<svg version="1.1" xmlns="http://www.w3.org/2000/svg" xmlns:xlink="http://www.w3.org/1999/xlink" width="2.40011" height="4.76002" viewBox="0,0,2.40011,4.76002"><g transform="translate(-348.06318,-177.44452)"><g data-paper-data="{&quot;isPaintingLayer&quot;:true}" fill="#000000" fill-rule="evenodd" stroke="#000000" stroke-width="0" stroke-linecap="round" stroke-linejoin="miter" stroke-miterlimit="10" stroke-dasharray="" stroke-dashoffset="0" style="mix-blend-mode: normal"><path d="M348.36318,182.06455l-0.28,-0.58c-0.00002,-0.00369 -0.00035,-0.00737 -0.001,-0.011c-0.001,-0.004 -0.002,-0.008 -0.003,-0.011c-0.00154,-0.00298 -0.00357,-0.00569 -0.006,-0.008c-0.00321,-0.00342 -0.0056,-0.00752 -0.007,-0.012c-0.002,-0.005 -0.003,-0.011 -0.003,-0.018c0.00042,-0.02548 0.00586,-0.05062 0.016,-0.074c0.016,-0.039 0.045,-0.082 0.086,-0.127c0.00911,-0.00988 0.01844,-0.01955 0.028,-0.029c0.03522,-0.03549 0.06956,-0.07183 0.103,-0.109c0.061,-0.066 0.126,-0.143 0.197,-0.231c0.06483,-0.08084 0.12302,-0.16679 0.174,-0.257c0.04661,-0.08196 0.08867,-0.16642 0.126,-0.253c0.04109,-0.09676 0.0716,-0.19768 0.091,-0.301c0.026,-0.132 0.039,-0.279 0.039,-0.439c0.00026,-0.03645 -0.00208,-0.07288 -0.007,-0.109c-0.012,-0.085 -0.041,-0.144 -0.085,-0.178c-0.03133,-0.0227 -0.06933,-0.03431 -0.108,-0.033h-0.26c-0.02667,0.00034 -0.05326,-0.00302 -0.079,-0.01c-0.059,-0.017 -0.097,-0.056 -0.112,-0.116c-0.00612,-0.02419 -0.00914,-0.04905 -0.009,-0.074v-1.44c-0.00034,-0.02667 0.00302,-0.05326 0.01,-0.079c0.017,-0.059 0.056,-0.097 0.116,-0.112c0.02419,-0.00612 0.04905,-0.00914 0.074,-0.009h1.8c0.02667,-0.00034 0.05326,0.00302 0.079,0.01c0.081,0.023 0.121,0.086 0.121,0.19v1.24c0.00198,0.31022 -0.02278,0.62003 -0.074,0.926c-0.059,0.339 -0.154,0.643 -0.283,0.911c-0.10477,0.21926 -0.24049,0.42233 -0.403,0.603c-0.07815,0.09026 -0.15919,0.17797 -0.243,0.263c-0.087,0.088 -0.171,0.165 -0.252,0.233c-0.07451,0.06299 -0.15301,0.12111 -0.235,0.174c-0.04432,0.02844 -0.08933,0.05578 -0.135,0.082c-0.132,0.075 -0.235,0.117 -0.307,0.126c-0.00928,0.00125 -0.01863,0.00191 -0.028,0.002c-0.02316,-0.00038 -0.04545,-0.00888 -0.063,-0.024c-0.023,-0.019 -0.043,-0.047 -0.063,-0.085c-0.00499,-0.01019 -0.00965,-0.02052 -0.014,-0.031z"/></g></g></svg>