<svg version="1.1" xmlns="http://www.w3.org/2000/svg" xmlns:xlink="http://www.w3.org/1999/xlink" width="8.90007" height="12.60009" viewBox="0,0,8.90007,12.60009"><g transform="translate(-206.48852,-167.42471)"><g data-paper-data="{&quot;isPaintingLayer&quot;:true}" fill="#000000" fill-rule="evenodd" stroke="#000000" stroke-width="0" stroke-linecap="round" stroke-linejoin="miter" stroke-miterlimit="10" stroke-dasharray="" stroke-dashoffset="0" style="mix-blend-mode: normal"><path d="M215.18853,180.02475h-1.78l-0.16,-0.1l-3.6,-5.82c-0.15705,0.18474 -0.3114,0.37176 -0.463,0.561c-0.273,0.339 -0.572,0.726 -0.897,1.159v4c0.00034,0.02667 -0.00302,0.05325 -0.01,0.079c-0.017,0.059 -0.056,0.097 -0.116,0.113c-0.02423,0.00578 -0.04909,0.00847 -0.074,0.008h-1.4c-0.02667,0.00034 -0.05326,-0.00302 -0.079,-0.01c-0.059,-0.017 -0.097,-0.055 -0.112,-0.116c-0.00611,-0.02418 -0.00914,-0.04905 -0.009,-0.074v-12.2c0,-0.106 0.042,-0.17 0.126,-0.191c0.02418,-0.00611 0.04905,-0.00914 0.074,-0.009h1.4c0.02667,-0.00034 0.05326,0.00302 0.079,0.01c0.059,0.017 0.097,0.056 0.112,0.116c0.00611,0.02418 0.00914,0.04905 0.009,0.074v5.26c0,0.153 0.055,0.233 0.164,0.24c0.00533,0.00017 0.01067,0.00017 0.016,0c0.0198,-0.00039 0.03927,-0.00518 0.057,-0.014c0.03,-0.014 0.061,-0.039 0.094,-0.073c0.01002,-0.01068 0.01969,-0.02169 0.029,-0.033l4.2,-5.5l0.16,-0.08h1.66c0.02646,-0.00035 0.0529,0.00166 0.079,0.006c0.094,0.017 0.141,0.069 0.141,0.154c0,0.052 -0.019,0.104 -0.057,0.156c-0.00099,0.00134 -0.00199,0.00267 -0.003,0.004l-3.84,4.72c-0.01377,0.01409 -0.02405,0.03122 -0.03,0.05c-0.007,0.02 -0.01,0.043 -0.01,0.07c0,0.032 0.004,0.06 0.013,0.084c0.00204,0.00546 0.00438,0.0108 0.007,0.016l4.38,7.04c0.02221,0.03347 0.03562,0.07198 0.039,0.112c0.00077,0.00931 0.0011,0.01865 0.001,0.028c0.00066,0.0239 -0.00341,0.04769 -0.012,0.07c-0.025,0.06 -0.088,0.09 -0.188,0.09z"/></g></g></svg>