<svg version="1.1" xmlns="http://www.w3.org/2000/svg" xmlns:xlink="http://www.w3.org/1999/xlink" width="178.89804" height="27.11675" viewBox="0,0,178.89804,27.11675"><g transform="translate(-150.54331,-166.44162)"><g data-paper-data="{&quot;isPaintingLayer&quot;:true}" fill-rule="nonzero" stroke-width="1" stroke-linecap="butt" stroke-linejoin="miter" stroke-miterlimit="10" stroke-dasharray="" stroke-dashoffset="0" style="mix-blend-mode: normal"><path d="M151.21193,180.23442l11.59659,-13.2928h154.90881l11.07073,12.83554l-10.89246,13.28121h-155.09604z" fill="#ffad00" stroke="#80f7ff"/><path d="M197.78306,175.86933l-1.1231,2.21175l-0.19293,-0.11024c0.0046,-0.04593 0.0069,-0.08268 0.0069,-0.11024c0,-0.15618 -0.13321,-0.32384 -0.39963,-0.50298c-0.81764,-0.56959 -1.77767,-0.85438 -2.8801,-0.85438c-0.48691,0 -0.91639,0.05971 -1.28846,0.17915c-0.27101,0.09187 -0.4915,0.22967 -0.66146,0.41341c-0.16536,0.18374 -0.24805,0.38355 -0.24805,0.59945c0,0.3537 0.2136,0.59485 0.64079,0.72347c0.22049,0.06431 0.69361,0.13321 1.41938,0.20671l1.08176,0.11024c0.64308,0.0689 1.16214,0.16307 1.55718,0.2825c0.39963,0.11943 0.75333,0.28709 1.06109,0.50298c0.31235,0.22508 0.5581,0.52136 0.73725,0.88883c0.18374,0.36748 0.27561,0.76022 0.27561,1.17822c0,0.66146 -0.2136,1.24942 -0.64079,1.76389c-0.38585,0.46853 -0.9853,0.81534 -1.79834,1.04042c-0.60634,0.16996 -1.25631,0.25494 -1.94992,0.25494c-1.24483,0 -2.47358,-0.29857 -3.68625,-0.89572c-0.25723,-0.11943 -0.41111,-0.17915 -0.46164,-0.17915c-0.05971,0 -0.15388,0.05053 -0.2825,0.15158l-0.19982,-0.10335l1.01975,-2.30821l0.19982,0.09646c0,0.04134 0,0.0712 0,0.08957c0,0.20671 0.09876,0.39733 0.29628,0.57189c0.29857,0.26642 0.76022,0.49609 1.38493,0.68902c0.62471,0.19293 1.21727,0.28939 1.77767,0.28939c0.61093,0 1.13229,-0.10335 1.56407,-0.31006c0.23886,-0.11484 0.42949,-0.26642 0.57189,-0.45475c0.1424,-0.19293 0.21359,-0.39274 0.21359,-0.59945c0,-0.31235 -0.16766,-0.53514 -0.50298,-0.66835c-0.23427,-0.09187 -0.70739,-0.17685 -1.41938,-0.25494l-1.0611,-0.11024c-0.71199,-0.0735 -1.21497,-0.1424 -1.50895,-0.20671c-0.29398,-0.0689 -0.58796,-0.17685 -0.88194,-0.32384c-0.418,-0.20671 -0.74644,-0.51676 -0.9853,-0.93018c-0.21589,-0.37207 -0.32384,-0.79926 -0.32384,-1.28157c0,-0.79467 0.27331,-1.45153 0.81993,-1.97059c0.71658,-0.68443 1.79145,-1.02664 3.22461,-1.02664c0.60174,0 1.16214,0.06201 1.68121,0.18604c0.51906,0.11943 1.16674,0.34221 1.94303,0.66835c0.26642,0.10565 0.42949,0.15847 0.4892,0.15847c0.09646,0 0.209,-0.05282 0.33762,-0.15847zM204.39764,176.62725v7.13134c0,0.1424 0.03215,0.25034 0.09646,0.32384c0.06431,0.0735 0.17914,0.13321 0.34451,0.17915v0.22049h-2.93522v-0.22049c0.16536,-0.04593 0.2802,-0.10565 0.34451,-0.17915c0.06431,-0.0735 0.09646,-0.18144 0.09646,-0.32384v-7.13134h-2.92143c-0.1378,0 -0.24345,0.03215 -0.31695,0.09646c-0.0735,0.05971 -0.13321,0.17225 -0.17915,0.33762h-0.22049v-2.43224h0.22049c0.05053,0.16996 0.11024,0.28709 0.17915,0.3514c0.07349,0.06431 0.17914,0.09646 0.31695,0.09646h7.88926c0.1424,0 0.25034,-0.03215 0.32384,-0.09646c0.0735,-0.06431 0.13321,-0.18144 0.17915,-0.3514h0.22049v2.43224h-0.22049c-0.04593,-0.16536 -0.10565,-0.2779 -0.17915,-0.33762c-0.0735,-0.06431 -0.18144,-0.09646 -0.32384,-0.09646zM214.80871,182.08428h-4.27192l-0.6339,1.32292c-0.08728,0.18374 -0.13091,0.32843 -0.13091,0.43408c0,0.20211 0.15388,0.34221 0.46164,0.4203v0.22049h-3.11436v-0.22049c0.18374,-0.03675 0.32384,-0.10106 0.4203,-0.19293c0.09646,-0.09187 0.20671,-0.27101 0.33073,-0.53743l3.45887,-7.22781c0.11024,-0.22967 0.16537,-0.41341 0.16537,-0.55121c0,-0.2113 -0.13321,-0.36288 -0.39963,-0.45475v-0.22049h3.33485v0.22049c-0.27101,0.07809 -0.40652,0.2136 -0.40652,0.40652c0,0.13321 0.04364,0.2848 0.13091,0.45475l3.5829,7.24847c0.15158,0.30776 0.28479,0.51906 0.39963,0.6339c0.11484,0.11024 0.26872,0.18374 0.46164,0.22049v0.22049h-3.45887v-0.22049c0.30317,-0.05053 0.45475,-0.19292 0.45475,-0.42719c0,-0.09646 -0.04593,-0.23886 -0.1378,-0.42719zM214.21615,180.79581l-1.52273,-3.34863l-1.5434,3.34863zM221.89182,180.64423v3.12125c0,0.1378 0.03215,0.24575 0.09646,0.32384c0.0689,0.0735 0.18374,0.13091 0.34451,0.17226v0.22049h-2.93522v-0.22049c0.16536,-0.04593 0.2802,-0.10565 0.34451,-0.17915c0.06431,-0.0735 0.09646,-0.17915 0.09646,-0.31695v-7.96505c0,-0.1424 -0.03215,-0.25034 -0.09646,-0.32384c-0.06431,-0.0735 -0.17914,-0.13321 -0.34451,-0.17915v-0.22049h5.88422c0.71658,0 1.28387,0.04134 1.70188,0.12402c0.4226,0.08268 0.79007,0.22738 1.10243,0.43408c0.36288,0.23886 0.6339,0.5627 0.81304,0.97152c0.16996,0.39504 0.25494,0.81764 0.25494,1.26779c0,1.53421 -0.85209,2.43224 -2.55626,2.69406l1.8259,2.5976c0.32154,0.45475 0.55581,0.74873 0.7028,0.88194c0.15158,0.12862 0.33532,0.19982 0.55121,0.2136v0.22049h-3.40375v-0.22049c0.23427,-0.03675 0.3514,-0.11943 0.3514,-0.24805c0,-0.08268 -0.10795,-0.2825 -0.32384,-0.59945l-1.90169,-2.76986zM221.89182,179.09394h3.16949c0.46853,0 0.79926,-0.01378 0.99219,-0.04134c0.19293,-0.02756 0.36977,-0.08498 0.53054,-0.17226c0.3491,-0.18833 0.52365,-0.52825 0.52365,-1.01975c0,-0.4915 -0.17455,-0.83141 -0.52365,-1.01975c-0.16536,-0.09187 -0.34221,-0.14929 -0.53054,-0.17226c-0.18374,-0.02756 -0.51447,-0.04134 -0.99219,-0.04134h-3.16949zM235.85823,176.62725v7.13134c0,0.1424 0.03215,0.25034 0.09646,0.32384c0.06431,0.0735 0.17914,0.13321 0.34451,0.17915v0.22049h-2.93522v-0.22049c0.16536,-0.04593 0.2802,-0.10565 0.34451,-0.17915c0.06431,-0.0735 0.09646,-0.18144 0.09646,-0.32384v-7.13134h-2.92144c-0.1378,0 -0.24345,0.03215 -0.31695,0.09646c-0.0735,0.05971 -0.13321,0.17225 -0.17915,0.33762h-0.22048v-2.43224h0.22049c0.05053,0.16996 0.11024,0.28709 0.17915,0.3514c0.0735,0.06431 0.17914,0.09646 0.31695,0.09646h7.88926c0.1424,0 0.25034,-0.03215 0.32384,-0.09646c0.0735,-0.06431 0.13321,-0.18144 0.17914,-0.3514h0.22048v2.43224h-0.22048c-0.04593,-0.16536 -0.10565,-0.2779 -0.17914,-0.33762c-0.0735,-0.06431 -0.18144,-0.09646 -0.32384,-0.09646zM252.32578,181.09898h-2.322c-0.14239,0 -0.25034,0.03215 -0.32383,0.09646c-0.06891,0.06431 -0.12633,0.17914 -0.17226,0.34451h-0.22048v-2.19108h0.22048c0.04593,0.16996 0.10335,0.28709 0.17226,0.3514c0.07349,0.05971 0.18144,0.08957 0.32383,0.08957h4.46484v0.22049c-0.16536,0.04593 -0.28249,0.10565 -0.35139,0.17915c-0.06433,0.0735 -0.0965,0.18144 -0.0965,0.32384v1.92925c0,0.1424 0.03217,0.25034 0.0965,0.32384c0.06433,0.0735 0.18146,0.13321 0.35139,0.17914v0.17226c-1.78685,1.01975 -3.51859,1.52962 -5.1952,1.52962c-1.52043,0 -2.76067,-0.36059 -3.7207,-1.08176c-1.20807,-0.9095 -1.81211,-2.17271 -1.81211,-3.7896c0,-1.50665 0.53743,-2.70555 1.6123,-3.59668c1.01975,-0.8452 2.37482,-1.26779 4.06521,-1.26779c0.53743,0 1.04271,0.05053 1.51584,0.15158c0.47772,0.09646 1.01975,0.26183 1.62608,0.49609c0.31236,0.12402 0.53514,0.18604 0.66835,0.18604c0.09647,0 0.20901,-0.05282 0.33762,-0.15847l0.19293,0.10335l-1.10243,2.25309l-0.19982,-0.10335c-0.00467,-0.15158 -0.02533,-0.25953 -0.062,-0.32384c-0.03673,-0.0689 -0.11942,-0.15158 -0.24805,-0.24805c-0.2802,-0.2113 -0.69131,-0.39044 -1.23334,-0.53743c-0.54203,-0.15158 -1.0542,-0.22738 -1.53651,-0.22738c-0.983,0 -1.79834,0.27561 -2.44602,0.82682c-0.73036,0.62471 -1.09554,1.44924 -1.09554,2.47358c0,0.99219 0.35599,1.79375 1.06798,2.40467c0.65227,0.5604 1.51125,0.8406 2.57693,0.8406c0.51906,0 1.03123,-0.05972 1.53651,-0.17915c0.50528,-0.11943 0.94166,-0.2825 1.30914,-0.4892zM262.66795,182.08428h-4.27192l-0.6339,1.32292c-0.08727,0.18374 -0.13091,0.32843 -0.13091,0.43408c0,0.20211 0.15388,0.34221 0.46164,0.4203v0.22049h-3.11436v-0.22049c0.18374,-0.03675 0.32384,-0.10106 0.4203,-0.19293c0.09646,-0.09187 0.2067,-0.27101 0.33073,-0.53744l3.45887,-7.2278c0.11025,-0.22967 0.16537,-0.41341 0.16537,-0.55121c0,-0.2113 -0.13321,-0.36288 -0.39963,-0.45475v-0.22049h3.33485v0.22049c-0.27101,0.07809 -0.40652,0.2136 -0.40652,0.40652c0,0.13321 0.04364,0.2848 0.13091,0.45475l3.5829,7.24848c0.15158,0.30776 0.28479,0.51906 0.39963,0.6339c0.11483,0.11024 0.26871,0.18374 0.46164,0.22049v0.22049h-3.45887v-0.22049c0.30317,-0.05053 0.45475,-0.19292 0.45475,-0.42719c0,-0.09646 -0.04594,-0.23886 -0.13781,-0.42719zM262.07539,180.79581l-1.52273,-3.34863l-1.5434,3.34863zM273.04457,184.35115l-3.46577,-6.36653v5.77398c0,0.1424 0.03217,0.25034 0.0965,0.32384c0.06433,0.0735 0.17917,0.13321 0.34451,0.17915v0.22049h-2.76297v-0.22049c0.16537,-0.04593 0.2802,-0.10565 0.34451,-0.17915c0.06433,-0.0735 0.0965,-0.18144 0.0965,-0.32384v-7.96505c0,-0.1378 -0.03217,-0.24345 -0.0965,-0.31695c-0.06433,-0.0735 -0.17917,-0.13321 -0.34451,-0.17915v-0.22049h3.62424v0.22049c-0.21589,0.05512 -0.32384,0.18144 -0.32384,0.37896c0,0.09187 0.03217,0.19752 0.0965,0.31695l2.56315,4.72667l2.5976,-4.64399c0.11484,-0.2113 0.17226,-0.36518 0.17226,-0.46164c0,-0.18833 -0.11484,-0.29398 -0.34451,-0.31695v-0.22049h3.55533v0.22049c-0.16536,0.04593 -0.2802,0.10565 -0.34451,0.17915c-0.06433,0.0735 -0.0965,0.17914 -0.0965,0.31695v7.96505c0,0.1424 0.03217,0.25034 0.0965,0.32384c0.06433,0.0735 0.17917,0.13321 0.34451,0.17915v0.22049h-2.93522v-0.22049c0.16077,-0.04134 0.27331,-0.09876 0.33762,-0.17226c0.06891,-0.07809 0.10336,-0.18833 0.10336,-0.33073v-5.77398zM283.38673,180.35484v2.57693h6.04958c0.13781,0 0.24346,-0.03215 0.31695,-0.09646c0.0735,-0.06431 0.13322,-0.17914 0.17915,-0.34451h0.22048v2.43224h-0.22048c-0.04593,-0.16536 -0.10565,-0.2802 -0.17915,-0.34451c-0.07349,-0.06431 -0.17914,-0.09646 -0.31695,-0.09646h-8.54383v-0.22049c0.16537,-0.04593 0.2802,-0.10565 0.34451,-0.17915c0.06433,-0.0735 0.0965,-0.18144 0.0965,-0.32384v-7.95816c0,-0.1424 -0.03217,-0.25034 -0.0965,-0.32384c-0.06433,-0.0735 -0.17917,-0.13321 -0.34451,-0.17915v-0.22049h8.37847c0.13781,0 0.24346,-0.03215 0.31695,-0.09646c0.07349,-0.0689 0.13321,-0.18604 0.17914,-0.3514h0.22049v2.43224h-0.22049c-0.04593,-0.16077 -0.10565,-0.27331 -0.17914,-0.33762c-0.07349,-0.06431 -0.17914,-0.09646 -0.31695,-0.09646h-5.88422v2.23242h3.81716c0.13781,0 0.24346,-0.03215 0.31695,-0.09646c0.0735,-0.06431 0.13322,-0.17914 0.17915,-0.34451h0.22048v2.3771h-0.22048c-0.04593,-0.16077 -0.10565,-0.27331 -0.17915,-0.33762c-0.07349,-0.0689 -0.17914,-0.10335 -0.31695,-0.10335z" fill="#ffffff" stroke="none"/></g></g></svg>