<svg version="1.1" xmlns="http://www.w3.org/2000/svg" xmlns:xlink="http://www.w3.org/1999/xlink" width="110.65348" height="15.18201" viewBox="0,0,110.65348,15.18201"><g transform="translate(-184.67326,-172.409)"><g data-paper-data="{&quot;isPaintingLayer&quot;:true}" fill-rule="nonzero" stroke="none" stroke-linecap="butt" stroke-linejoin="miter" stroke-miterlimit="10" stroke-dasharray="" stroke-dashoffset="0" style="mix-blend-mode: normal"><path d="M184.67326,187.591v-15.18201h110.65348v15.18201z" fill="#000000" stroke-width="0"/><path d="M194.28662,177.19491v6.35292c0,0.12685 0.02864,0.22302 0.08593,0.28849c0.05729,0.06547 0.15959,0.11866 0.3069,0.15959v0.19642h-2.61482v-0.19642c0.14731,-0.04093 0.24962,-0.09413 0.3069,-0.15959c0.05729,-0.06547 0.08593,-0.16163 0.08593,-0.28849v-6.35292h-2.60254c-0.12276,0 -0.21688,0.02863 -0.28235,0.0859c-0.06547,0.0532 -0.11867,0.15346 -0.15959,0.30077h-0.19642v-2.16675h0.19642c0.04501,0.15141 0.09821,0.25576 0.15959,0.31305c0.06547,0.05727 0.15959,0.0859 0.28235,0.0859h7.02811c0.12685,0 0.22302,-0.02863 0.28849,-0.0859c0.06547,-0.05727 0.11867,-0.16162 0.15959,-0.31305h0.19642v2.16675h-0.19642c-0.04092,-0.14731 -0.09412,-0.24757 -0.15959,-0.30077c-0.06547,-0.05727 -0.16164,-0.0859 -0.28849,-0.0859zM206.88811,176.45834v4.69563c0,0.88798 -0.16368,1.55294 -0.49105,1.99488c-0.58926,0.79386 -1.80664,1.19079 -3.65216,1.19079c-1.33401,0 -2.35498,-0.21483 -3.06291,-0.6445c-0.4133,-0.24961 -0.69974,-0.58925 -0.85933,-1.01892c-0.1555,-0.42557 -0.23325,-0.93299 -0.23325,-1.52225v-4.69563c0,-0.12685 -0.02864,-0.22302 -0.08593,-0.28849c-0.05729,-0.06547 -0.15959,-0.11866 -0.3069,-0.15959v-0.19642h2.62096v0.19642c-0.14731,0.0368 -0.25166,0.09 -0.31304,0.15959c-0.05729,0.06547 -0.08593,0.16163 -0.08593,0.28849v4.18003c0,0.48287 0.0266,0.84092 0.0798,1.07417c0.05319,0.22915 0.15345,0.42148 0.30077,0.57698c0.39284,0.41739 1.06394,0.62608 2.01329,0.62608c0.95345,0 1.62659,-0.20869 2.01943,-0.62608c0.14322,-0.1555 0.24143,-0.34783 0.29463,-0.57698c0.0532,-0.23325 0.0798,-0.5913 0.0798,-1.07417v-4.18003c0,-0.12685 -0.02864,-0.22302 -0.08593,-0.28849c-0.05729,-0.06547 -0.15959,-0.11866 -0.3069,-0.15959v-0.19642h2.46751v0.19642c-0.14731,0.04093 -0.24962,0.09413 -0.3069,0.15959c-0.05729,0.06547 -0.08593,0.16163 -0.08593,0.28849zM213.02006,177.19491v6.35292c0,0.12685 0.02864,0.22302 0.08593,0.28849c0.05729,0.06547 0.15959,0.11866 0.3069,0.15959v0.19642h-2.61482v-0.19642c0.14731,-0.04093 0.24962,-0.09413 0.30691,-0.15959c0.05729,-0.06547 0.08593,-0.16163 0.08593,-0.28849v-6.35292h-2.60255c-0.12276,0 -0.21688,0.02863 -0.28235,0.0859c-0.06547,0.0532 -0.11867,0.15346 -0.15959,0.30077h-0.19642v-2.16675h0.19642c0.04501,0.15141 0.09821,0.25576 0.15959,0.31305c0.06547,0.05727 0.15959,0.0859 0.28235,0.0859h7.02811c0.12685,0 0.22302,-0.02863 0.28849,-0.0859c0.06547,-0.05727 0.11867,-0.16162 0.15959,-0.31305h0.19642v2.16675h-0.19642c-0.04092,-0.14731 -0.09412,-0.24757 -0.15959,-0.30077c-0.06547,-0.05727 -0.16164,-0.0859 -0.28849,-0.0859zM221.61338,175.66653c1.46086,0 2.61892,0.39488 3.47416,1.18465c0.90434,0.82659 1.35652,1.89462 1.35652,3.20408c0,0.80204 -0.21688,1.55089 -0.65064,2.24654c-0.84706,1.35856 -2.23631,2.03784 -4.16776,2.03784c-1.44859,0 -2.6005,-0.39488 -3.45574,-1.18465c-0.45831,-0.42148 -0.80613,-0.92685 -1.04347,-1.51611c-0.20869,-0.51969 -0.31304,-1.06598 -0.31304,-1.63887c0,-0.83887 0.21483,-1.60613 0.6445,-2.30178c0.8225,-1.32992 2.20766,-2.00715 4.15548,-2.0317zM221.61948,177.08442c-0.79795,0 -1.46291,0.23734 -1.99488,0.71202c-0.63018,0.56061 -0.94527,1.29514 -0.94527,2.20357c0,0.90844 0.31509,1.64297 0.94527,2.20358c0.53197,0.47467 1.20102,0.71201 2.00715,0.71201c0.80614,0 1.47314,-0.23734 2.00102,-0.71201c0.31509,-0.28235 0.55652,-0.62813 0.72429,-1.03734c0.14731,-0.36419 0.22097,-0.74066 0.22097,-1.12941c0,-0.94935 -0.31509,-1.69615 -0.94527,-2.2404c-0.53606,-0.46649 -1.20716,-0.70383 -2.01329,-0.71202zM229.98569,180.77341v2.78056c0,0.12276 0.02864,0.21892 0.08593,0.28849c0.06138,0.06547 0.16368,0.11662 0.3069,0.15345v0.19642h-2.61482v-0.19642c0.14731,-0.04093 0.24962,-0.09413 0.30691,-0.15959c0.05729,-0.06547 0.08593,-0.15958 0.08593,-0.28235v-7.09563c0,-0.12685 -0.02864,-0.22302 -0.08593,-0.28849c-0.05729,-0.06547 -0.15959,-0.11866 -0.30691,-0.15959v-0.19642h5.24193c0.63836,0 1.14373,0.03683 1.51611,0.11048c0.37647,0.07366 0.70383,0.20256 0.98209,0.3867c0.32327,0.21279 0.5647,0.50128 0.72429,0.86547c0.15141,0.35192 0.22711,0.72839 0.22711,1.12941c0,1.36675 -0.75908,2.16674 -2.27723,2.39999l1.62659,2.31406c0.28644,0.40511 0.49514,0.66701 0.62609,0.78568c0.13504,0.11457 0.29872,0.178 0.49105,0.19028v0.19642h-3.03222v-0.19642c0.2087,-0.03273 0.31304,-0.10639 0.31304,-0.22097c0,-0.07366 -0.09616,-0.25167 -0.28849,-0.53402l-1.69411,-2.46751zM229.98569,179.39234h2.82352c0.41739,0 0.71202,-0.01227 0.88388,-0.0368c0.17187,-0.02453 0.32941,-0.07568 0.47263,-0.15345c0.311,-0.16777 0.4665,-0.47058 0.4665,-0.90843c0,-0.43785 -0.1555,-0.74067 -0.4665,-0.90844c-0.14731,-0.08184 -0.30486,-0.13299 -0.47263,-0.15345c-0.16368,-0.02453 -0.45831,-0.0368 -0.88388,-0.0368h-2.82352zM238.32122,183.54783v-7.09563c0,-0.12276 -0.02863,-0.21688 -0.0859,-0.28235c-0.05727,-0.06547 -0.15957,-0.11866 -0.3069,-0.15959v-0.19642h2.61482v0.19642c-0.14731,0.0368 -0.24961,0.09 -0.3069,0.15959c-0.05727,0.06547 -0.0859,0.15958 -0.0859,0.28235v7.09563c0,0.12685 0.02863,0.22506 0.0859,0.29463c0.0614,0.06547 0.1637,0.11662 0.3069,0.15345v0.19642h-2.61482v-0.19642c0.14731,-0.04093 0.24962,-0.09413 0.3069,-0.15959c0.05727,-0.06547 0.0859,-0.16163 0.0859,-0.28849zM248.18512,182.05627h-3.80561l-0.56471,1.17852c-0.07775,0.16368 -0.11662,0.29258 -0.11662,0.38669c0,0.18005 0.13708,0.30486 0.41125,0.37443v0.19642h-2.77441v-0.19642c0.16368,-0.03273 0.28849,-0.09002 0.37442,-0.17187c0.08593,-0.08184 0.18414,-0.24143 0.29463,-0.47877l3.08132,-6.43885c0.09821,-0.20461 0.14731,-0.36829 0.14731,-0.49105c0,-0.18823 -0.11867,-0.32327 -0.35601,-0.40511v-0.19642h2.97083v0.19642c-0.24143,0.06957 -0.36214,0.19028 -0.36214,0.36215c0,0.11867 0.03887,0.2537 0.11662,0.40511l3.19181,6.45727c0.13503,0.27417 0.2537,0.4624 0.35601,0.5647c0.1023,0.09821 0.23938,0.16368 0.41125,0.19642v0.19642h-3.08132v-0.19642c0.27007,-0.045 0.40511,-0.17185 0.40511,-0.38056c0,-0.08593 -0.04092,-0.21279 -0.12276,-0.38056zM247.65724,180.90845l-1.35651,-2.98311l-1.37493,2.98311zM254.49507,182.81126h5.14986c0.12685,0 0.22302,-0.02863 0.28849,-0.0859c0.06547,-0.05727 0.11866,-0.15957 0.15959,-0.3069h0.19642v2.16674h-0.19642c-0.04093,-0.14731 -0.09413,-0.24961 -0.15959,-0.3069c-0.06547,-0.05727 -0.16163,-0.0859 -0.28849,-0.0859h-7.37184v-0.19642c0.14731,-0.04093 0.24961,-0.09413 0.3069,-0.15959c0.05727,-0.06547 0.0859,-0.16163 0.0859,-0.28849v-7.08949c0,-0.12685 -0.02863,-0.22302 -0.0859,-0.28849c-0.05727,-0.06547 -0.15957,-0.11866 -0.3069,-0.15959v-0.19642h2.61482v0.19642c-0.14731,0.0368 -0.24961,0.09 -0.3069,0.15959c-0.05727,0.06547 -0.0859,0.16163 -0.0859,0.28849zM261.7196,178.17699l-1.05575,-1.5468l0.15959,-0.11048c0.12276,0.0614 0.20869,0.0921 0.2578,0.0921c0.09412,0 0.27008,-0.08389 0.52788,-0.25166c0.38465,-0.25371 0.72634,-0.43171 1.02506,-0.53401c0.30281,-0.10639 0.62812,-0.15959 0.97595,-0.15959c0.56471,0 1.03734,0.13299 1.4179,0.39897c0.51151,0.35601 0.76726,0.84296 0.76726,1.46087c0,0.32327 -0.08184,0.63222 -0.24552,0.92685c-0.16369,0.29463 -0.44604,0.63836 -0.84706,1.03119c-0.27826,0.27417 -0.46036,0.49105 -0.54629,0.65064c-0.08184,0.1555 -0.12276,0.35806 -0.12276,0.60767c0,0.11049 0.02457,0.19028 0.0737,0.23939c0.04913,0.04907 0.14325,0.09203 0.28235,0.1289v0.19642h-2.01943v-0.19642c0.16368,-0.0532 0.27212,-0.12072 0.32532,-0.20256c0.0532,-0.08593 0.1023,-0.27417 0.14731,-0.5647c0.045,-0.26189 0.10638,-0.46854 0.18414,-0.61995c0.08185,-0.1555 0.24962,-0.39284 0.50333,-0.71202c0.22915,-0.28644 0.3826,-0.50741 0.46035,-0.66291c0.08184,-0.15959 0.12276,-0.32532 0.12276,-0.49719c0,-0.26598 -0.08798,-0.47877 -0.26393,-0.63836c-0.17187,-0.16368 -0.40307,-0.24552 -0.69361,-0.24552c-0.43375,0 -0.80408,0.1555 -1.11099,0.46649c-0.14322,0.14732 -0.21483,0.2885 -0.21483,0.42353c0,0.045 0.0184,0.11457 0.0552,0.2087zM263.48123,182.32634c0.28235,0 0.51969,0.09821 0.71202,0.29463c0.19642,0.19641 0.29463,0.4358 0.29463,0.71815c0,0.27417 -0.10026,0.50946 -0.30077,0.70588c-0.19642,0.19642 -0.43171,0.29463 -0.70588,0.29463c-0.27826,0 -0.5156,-0.09821 -0.71202,-0.29463c-0.19641,-0.20051 -0.29462,-0.43989 -0.29462,-0.71815c0,-0.27417 0.09616,-0.50742 0.28849,-0.69975c0.19641,-0.19641 0.4358,-0.29667 0.71815,-0.30076zM272.51649,178.45321v5.09461c0,0.12685 0.02863,0.22302 0.0859,0.28849c0.05727,0.06547 0.15957,0.11866 0.3069,0.15959v0.19642h-2.46137v-0.19642c0.14731,-0.04093 0.24961,-0.09413 0.3069,-0.15959c0.05727,-0.06547 0.0859,-0.16163 0.0859,-0.28849v-7.09563c0,-0.12276 -0.02863,-0.21688 -0.0859,-0.28235c-0.05727,-0.06547 -0.15957,-0.11866 -0.3069,-0.15959v-0.19642h2.84807v0.19642c-0.17596,0.045 -0.26394,0.13912 -0.26394,0.28235c0,0.09821 0.05729,0.20665 0.17187,0.32532l4.62198,4.80612v-4.97185c0,-0.12276 -0.02863,-0.21688 -0.0859,-0.28235c-0.05727,-0.06547 -0.15957,-0.11866 -0.3069,-0.15959v-0.19642h2.46137v0.19642c-0.14731,0.04093 -0.24961,0.09413 -0.3069,0.15959c-0.05727,0.06547 -0.0859,0.15958 -0.0859,0.28235v7.09563c0,0.12685 0.02863,0.22302 0.0859,0.28849c0.05727,0.06547 0.15957,0.11866 0.3069,0.15959v0.19642h-2.63937v-0.19642c0.17187,-0.03687 0.2578,-0.12485 0.2578,-0.26394c0,-0.08184 -0.10026,-0.22506 -0.30077,-0.42967zM285.95277,175.66652c1.46086,0 2.61891,0.39488 3.47415,1.18465c0.90435,0.82659 1.35652,1.89462 1.35652,3.20408c0,0.80204 -0.21688,1.55089 -0.65064,2.24654c-0.84705,1.35856 -2.23631,2.03784 -4.16776,2.03784c-1.44859,0 -2.6005,-0.39488 -3.45574,-1.18465c-0.45831,-0.42148 -0.80613,-0.92685 -1.04347,-1.51611c-0.2087,-0.51969 -0.31305,-1.06598 -0.31305,-1.63887c0,-0.83887 0.21483,-1.60613 0.6445,-2.30178c0.82251,-1.32992 2.20767,-2.00715 4.15549,-2.0317zM285.95877,177.08441c-0.79795,0 -1.46291,0.23734 -1.99488,0.71202c-0.63018,0.56061 -0.94527,1.29514 -0.94527,2.20357c0,0.90844 0.31509,1.64297 0.94527,2.20358c0.53197,0.47467 1.20102,0.71201 2.00715,0.71201c0.80614,0 1.47315,-0.23734 2.00102,-0.71201c0.31509,-0.28235 0.55652,-0.62813 0.72429,-1.03734c0.14731,-0.36419 0.22097,-0.74066 0.22097,-1.12941c0,-0.94935 -0.31509,-1.69615 -0.94526,-2.2404c-0.53606,-0.46649 -1.20716,-0.70383 -2.01329,-0.71202z" fill="#f9f9f9" stroke-width="0.73416"/></g></g></svg>