<svg version="1.1" xmlns="http://www.w3.org/2000/svg" xmlns:xlink="http://www.w3.org/1999/xlink" width="178.89805" height="27.11675" viewBox="0,0,178.89805,27.11675"><g transform="translate(-150.54332,-166.44163)"><g stroke-miterlimit="10"><path d="M151.21193,180.23442l11.59659,-13.2928h154.90881l11.07073,12.83554l-10.89246,13.28121h-155.09604z" fill="#000000" stroke="#80f7ff"/><path d="M185.08101,184.35115l-3.46576,-6.36653v5.77398c0,0.1424 0.03215,0.25034 0.09646,0.32384c0.06431,0.0735 0.17914,0.13321 0.34451,0.17915v0.22049h-2.76297v-0.22049c0.16536,-0.04593 0.2802,-0.10565 0.34451,-0.17915c0.06431,-0.0735 0.09646,-0.18144 0.09646,-0.32384v-7.96505c0,-0.1378 -0.03215,-0.24345 -0.09646,-0.31695c-0.06431,-0.0735 -0.17914,-0.13321 -0.34451,-0.17915v-0.22049h3.62424v0.22049c-0.21589,0.05512 -0.32384,0.18144 -0.32384,0.37896c0,0.09187 0.03215,0.19752 0.09646,0.31695l2.56315,4.72667l2.5976,-4.64398c0.11484,-0.2113 0.17225,-0.36518 0.17225,-0.46164c0,-0.18833 -0.11484,-0.29398 -0.34451,-0.31695v-0.22049h3.55534v0.22049c-0.16536,0.04593 -0.2802,0.10565 -0.34451,0.17915c-0.06431,0.0735 -0.09646,0.17915 -0.09646,0.31695v7.96505c0,0.1424 0.03215,0.25034 0.09646,0.32384c0.06431,0.0735 0.17914,0.13321 0.34451,0.17915v0.22049h-2.93522v-0.22049c0.16077,-0.04134 0.27331,-0.09876 0.33762,-0.17226c0.0689,-0.07809 0.10335,-0.18833 0.10335,-0.33073v-5.77398zM198.60644,182.55281h-3.54845l-0.39963,0.8406c-0.09646,0.20211 -0.14469,0.36059 -0.14469,0.47542c0,0.22049 0.14699,0.36059 0.44097,0.4203v0.19293h-2.83876v-0.19293c0.17455,-0.02756 0.30317,-0.08039 0.38585,-0.15848c0.08728,-0.07809 0.18833,-0.23197 0.30317,-0.46164l2.81809,-5.70507c0.10565,-0.21589 0.15847,-0.40422 0.15847,-0.56499c0,-0.18833 -0.12862,-0.33532 -0.38585,-0.44097v-0.19293h2.99723v0.19293c-0.25264,0.10106 -0.37896,0.25723 -0.37896,0.46853c0,0.15158 0.05742,0.33762 0.17226,0.5581l2.92144,5.53282c0.16077,0.30317 0.28709,0.50069 0.37896,0.59256c0.09187,0.08728 0.23197,0.14929 0.4203,0.18604v0.18604h-3.14881v-0.18604c0.29857,-0.05053 0.44786,-0.19063 0.44786,-0.4203c0,-0.1424 -0.05742,-0.31924 -0.17226,-0.53054zM198.04833,181.47105l-1.2609,-2.47358l-1.19889,2.47358zM204.83517,177.46785v6.31141c0,0.1424 0.03215,0.25264 0.09646,0.33073c0.06431,0.0735 0.17914,0.13551 0.34451,0.18604v0.18604h-2.72851v-0.19293c0.16077,-0.04134 0.27331,-0.10106 0.33762,-0.17915c0.0689,-0.07809 0.10335,-0.18833 0.10335,-0.33073v-6.31141c0,-0.1424 -0.03215,-0.25034 -0.09646,-0.32384c-0.06431,-0.0735 -0.17914,-0.13551 -0.34451,-0.18604v-0.19293h2.72851v0.19293c-0.16536,0.04593 -0.2802,0.10794 -0.34451,0.18604c-0.06431,0.0735 -0.09646,0.18144 -0.09646,0.32384zM208.75568,179.39711v4.38216c0,0.1424 0.03215,0.25264 0.09646,0.33073c0.0689,0.07809 0.18374,0.1401 0.34451,0.18604v0.18604h-2.56315v-0.19293c0.16077,-0.04134 0.27331,-0.10106 0.33762,-0.17915c0.0689,-0.07809 0.10335,-0.18833 0.10335,-0.33073v-6.31141c0,-0.1424 -0.03215,-0.25034 -0.09646,-0.32384c-0.06431,-0.0735 -0.17914,-0.13551 -0.34451,-0.18604v-0.19293h2.96278v0.19293c-0.20211,0.05053 -0.30317,0.1401 -0.30317,0.26872c0,0.11024 0.0735,0.23886 0.22049,0.38585l4.13411,4.10655v-4.25124c0,-0.1424 -0.03215,-0.25034 -0.09646,-0.32384c-0.06431,-0.07809 -0.17914,-0.1401 -0.34451,-0.18604v-0.19293h2.56315v0.19293c-0.16536,0.04593 -0.2802,0.10795 -0.34451,0.18604c-0.06431,0.0735 -0.09646,0.18144 -0.09646,0.32384v6.31141c0,0.1424 0.03215,0.25264 0.09646,0.33073c0.06431,0.0735 0.17914,0.13551 0.34451,0.18604v0.18604h-2.76297v-0.18604c0.20211,-0.04134 0.30317,-0.12632 0.30317,-0.25494c0,-0.06431 -0.02756,-0.13091 -0.08268,-0.19982c-0.05512,-0.0689 -0.18144,-0.20441 -0.37896,-0.40652zM229.94989,183.26939l0.73036,0.75792c0.16536,0.17455 0.27561,0.2825 0.33073,0.32384c0.05971,0.03675 0.12862,0.05512 0.20671,0.05512c0.06431,0 0.16996,-0.02986 0.31695,-0.08957l0.14469,0.16536l-2.01193,1.83279l-0.15158,-0.16536c0.09187,-0.15158 0.1378,-0.26412 0.1378,-0.33762c0,-0.08268 -0.12862,-0.2779 -0.38585,-0.58567l-0.81304,-0.99219c-0.67983,0.27561 -1.50665,0.41341 -2.48047,0.41341c-1.60312,0 -2.88469,-0.44327 -3.84472,-1.32981c-0.51447,-0.47313 -0.90491,-1.04042 -1.17133,-1.70188c-0.23427,-0.58337 -0.3514,-1.1966 -0.3514,-1.83968c0,-0.94166 0.24345,-1.80063 0.73036,-2.57693c0.94625,-1.52503 2.50573,-2.28754 4.67844,-2.28754c1.63068,0 2.92374,0.44327 3.87918,1.32981c0.51447,0.47313 0.90491,1.03812 1.17133,1.69499c0.23427,0.58337 0.3514,1.1966 0.3514,1.83968c0,1.38263 -0.4892,2.54707 -1.46761,3.49332zM228.59253,181.89824c0.48691,-0.60634 0.73036,-1.31603 0.73036,-2.12907c0,-1.01515 -0.3537,-1.83738 -1.06109,-2.46669c-0.59256,-0.53284 -1.34129,-0.79926 -2.2462,-0.79926c-0.9095,0 -1.66053,0.26642 -2.25309,0.79926c-0.70739,0.6339 -1.06109,1.45842 -1.06109,2.47358c0,1.01975 0.3537,1.84427 1.06109,2.47358c0.59715,0.53284 1.35048,0.79926 2.25998,0.79926c0.43178,0 0.85438,-0.0735 1.26779,-0.22049c-0.05053,-0.06431 -0.09416,-0.11943 -0.13091,-0.16536c-0.48691,-0.62471 -1.06109,-1.01515 -1.72255,-1.17133v-0.19293c0.33073,-0.25723 0.70739,-0.38585 1.12999,-0.38585c0.30317,0 0.60404,0.0735 0.90261,0.22049c0.30317,0.14699 0.67753,0.40193 1.1231,0.76481zM240.82261,177.46785v4.08588c0,0.93247 -0.18374,1.6169 -0.55121,2.05327c-0.59256,0.69361 -1.70877,1.04042 -3.34864,1.04042c-1.09784,0 -1.98437,-0.16766 -2.65961,-0.50298c-0.48691,-0.24345 -0.81993,-0.59026 -0.99908,-1.04042c-0.16536,-0.41341 -0.24805,-0.93018 -0.24805,-1.55029v-4.08588c0,-0.1424 -0.03215,-0.25034 -0.09646,-0.32384c-0.06431,-0.0735 -0.17914,-0.13551 -0.34451,-0.18604v-0.19293h2.7354v0.19293c-0.16996,0.04593 -0.28709,0.10794 -0.3514,0.18604c-0.06431,0.0735 -0.09646,0.18144 -0.09646,0.32384v3.71381c0,0.43178 0.03675,0.76251 0.11024,0.99219c0.07809,0.22967 0.2113,0.418 0.39963,0.565c0.37666,0.29857 0.92099,0.44786 1.63297,0.44786c0.71199,0 1.25631,-0.14929 1.63297,-0.44786c0.18374,-0.14699 0.31235,-0.33532 0.38585,-0.565c0.0735,-0.22967 0.11024,-0.5604 0.11024,-0.99219v-3.71381c0,-0.1424 -0.03215,-0.25034 -0.09646,-0.32384c-0.05971,-0.0735 -0.17455,-0.13551 -0.34451,-0.18604v-0.19293h2.57004v0.19293c-0.16536,0.04593 -0.2802,0.10794 -0.34451,0.18604c-0.06433,0.0735 -0.0965,0.18144 -0.0965,0.32384zM244.7569,177.46785v6.31141c0,0.1424 0.03217,0.25264 0.0965,0.33073c0.06433,0.0735 0.17917,0.13551 0.34451,0.18604v0.18604h-2.72852v-0.19293c0.16077,-0.04134 0.27331,-0.10106 0.33762,-0.17915c0.06891,-0.07809 0.10336,-0.18833 0.10336,-0.33073v-6.31141c0,-0.1424 -0.03217,-0.25034 -0.0965,-0.32384c-0.06433,-0.0735 -0.17917,-0.13551 -0.34451,-0.18604v-0.19293h2.72852v0.19293c-0.16537,0.04593 -0.2802,0.10794 -0.34451,0.18604c-0.06433,0.0735 -0.0965,0.18144 -0.0965,0.32384zM249.40089,183.08336h3.91363c0.14699,0 0.25724,-0.03215 0.33073,-0.09646c0.07349,-0.0689 0.1355,-0.18604 0.18603,-0.3514h0.18604v2.28754h-0.19293c-0.04133,-0.16077 -0.10105,-0.27561 -0.17914,-0.34451c-0.07349,-0.06431 -0.18374,-0.09646 -0.33073,-0.09646h-6.91086v-0.41341l4.49929,-5.90489h-3.74137c-0.14699,0 -0.25723,0.03215 -0.33073,0.09646c-0.07349,0.06431 -0.1355,0.18144 -0.18603,0.3514h-0.18604v-2.28754h0.18604c0.04593,0.16536 0.10565,0.2802 0.17914,0.34451c0.07809,0.06431 0.19063,0.09646 0.33762,0.09646h6.78684v0.33762zM267.21202,181.09898h-2.32199c-0.1424,0 -0.25035,0.03215 -0.32384,0.09646c-0.0689,0.06431 -0.12632,0.17914 -0.17225,0.34451h-0.22049v-2.19108h0.22049c0.04593,0.16996 0.10335,0.28709 0.17225,0.3514c0.07349,0.05971 0.18144,0.08957 0.32384,0.08957h4.46484v0.22049c-0.16537,0.04593 -0.2825,0.10565 -0.3514,0.17915c-0.06433,0.0735 -0.0965,0.18144 -0.0965,0.32384v1.92925c0,0.1424 0.03217,0.25034 0.0965,0.32384c0.06433,0.0735 0.18147,0.13321 0.3514,0.17914v0.17226c-1.78685,1.01975 -3.51859,1.52962 -5.1952,1.52962c-1.52043,0 -2.76067,-0.36059 -3.7207,-1.08176c-1.20808,-0.9095 -1.81212,-2.17271 -1.81212,-3.7896c0,-1.50665 0.53743,-2.70555 1.6123,-3.59668c1.01975,-0.8452 2.37482,-1.26779 4.06521,-1.26779c0.53744,0 1.04272,0.05053 1.51584,0.15158c0.47772,0.09646 1.01975,0.26183 1.62609,0.49609c0.31235,0.12402 0.53514,0.18604 0.66835,0.18604c0.09646,0 0.209,-0.05282 0.33762,-0.15847l0.19292,0.10335l-1.10243,2.25309l-0.19981,-0.10335c-0.00467,-0.15158 -0.02533,-0.25953 -0.062,-0.32384c-0.03673,-0.0689 -0.11941,-0.15158 -0.24804,-0.24805c-0.2802,-0.2113 -0.69132,-0.39044 -1.23335,-0.53743c-0.54203,-0.15158 -1.0542,-0.22738 -1.53651,-0.22738c-0.983,0 -1.79834,0.27561 -2.44601,0.82682c-0.73036,0.62471 -1.09554,1.44924 -1.09554,2.47358c0,0.99219 0.35599,1.79375 1.06798,2.40467c0.65227,0.5604 1.51124,0.8406 2.57693,0.8406c0.51906,0 1.03123,-0.05971 1.53651,-0.17915c0.50528,-0.11943 0.94166,-0.2825 1.30913,-0.4892zM276.63091,182.55281h-3.54845l-0.39963,0.8406c-0.09646,0.20211 -0.14469,0.36059 -0.14469,0.47542c0,0.22049 0.14699,0.36059 0.44097,0.4203v0.19293h-2.83876v-0.19293c0.17455,-0.02756 0.30317,-0.08039 0.38585,-0.15848c0.08728,-0.07809 0.18834,-0.23197 0.30317,-0.46164l2.81809,-5.70507c0.10565,-0.21589 0.15847,-0.40422 0.15847,-0.56499c0,-0.18833 -0.12862,-0.33532 -0.38585,-0.44097v-0.19293h2.99723v0.19293c-0.25264,0.10106 -0.37896,0.25723 -0.37896,0.46853c0,0.15158 0.05742,0.33762 0.17225,0.5581l2.92144,5.53282c0.16077,0.30317 0.28709,0.50069 0.37896,0.59256c0.09187,0.08728 0.23198,0.14929 0.42031,0.18604v0.18604h-3.14882v-0.18604c0.29857,-0.05053 0.44786,-0.19063 0.44786,-0.4203c0,-0.1424 -0.05742,-0.31924 -0.17225,-0.53054zM276.0728,181.47105l-1.2609,-2.47358l-1.1989,2.47358zM285.50547,184.24091l-2.8112,-4.83002v4.36838c0,0.1424 0.03217,0.25264 0.0965,0.33073c0.06433,0.0735 0.17917,0.13551 0.34451,0.18604v0.18604h-2.56315v-0.19293c0.16077,-0.04134 0.27331,-0.10105 0.33762,-0.17915c0.0689,-0.07809 0.10335,-0.18833 0.10335,-0.33073v-6.31141c0,-0.1424 -0.03217,-0.25034 -0.0965,-0.32384c-0.06433,-0.07809 -0.17917,-0.1401 -0.34451,-0.18604v-0.19293h3.25906v0.19293c-0.21589,0.0689 -0.32384,0.19982 -0.32384,0.39274c0,0.18833 0.07809,0.418 0.23427,0.68902l1.92236,3.24528l1.93614,-3.19705c0.22049,-0.36288 0.33073,-0.62012 0.33073,-0.7717c0,-0.18833 -0.11254,-0.30776 -0.33762,-0.35829v-0.19293h3.17638v0.19293c-0.16537,0.04593 -0.2802,0.10795 -0.34451,0.18604c-0.06433,0.0735 -0.0965,0.18144 -0.0965,0.32384v6.31141c0,0.1424 0.03217,0.25264 0.0965,0.33073c0.06433,0.07809 0.17917,0.1401 0.34451,0.18604v0.18604h-2.72852v-0.19293c0.16077,-0.04134 0.27331,-0.10106 0.33762,-0.17915c0.06891,-0.07809 0.10336,-0.18833 0.10336,-0.33073v-4.36838zM294.41447,181.20233v1.88102h4.89893c0.14239,0 0.25034,-0.03215 0.32384,-0.09646c0.07809,-0.06431 0.1401,-0.18144 0.18603,-0.3514h0.19293v2.28754h-0.19293c-0.04133,-0.16077 -0.10105,-0.27561 -0.17914,-0.34451c-0.07809,-0.06431 -0.18834,-0.09646 -0.33073,-0.09646h-7.18647v-0.19293c0.16077,-0.04134 0.27331,-0.10106 0.33762,-0.17915c0.06891,-0.07809 0.10336,-0.18833 0.10336,-0.33073v-6.31141c0,-0.1424 -0.03217,-0.25034 -0.0965,-0.32384c-0.06433,-0.0735 -0.17917,-0.13551 -0.34451,-0.18604v-0.19293h6.97287c0.14699,0 0.25724,-0.03215 0.33073,-0.09646c0.07809,-0.06431 0.1401,-0.17914 0.18603,-0.34451h0.18604v2.28754h-0.18604c-0.04593,-0.16996 -0.10794,-0.28709 -0.18603,-0.3514c-0.07349,-0.06431 -0.18374,-0.09646 -0.33073,-0.09646h-4.68533v1.69499h2.90766c0.1424,0 0.25035,-0.03215 0.32384,-0.09646c0.07809,-0.06431 0.1424,-0.17914 0.19293,-0.34451h0.18603v2.23242h-0.18603c-0.04593,-0.16536 -0.10795,-0.2802 -0.18604,-0.34451c-0.07349,-0.0689 -0.18374,-0.10335 -0.33073,-0.10335z" fill="#ffffff" stroke="none"/></g></g></svg>