<svg version="1.1" xmlns="http://www.w3.org/2000/svg" xmlns:xlink="http://www.w3.org/1999/xlink" width="108.8376" height="21.90065" viewBox="0,0,108.8376,21.90065"><g transform="translate(-195.74653,-169.098)"><g data-paper-data="{&quot;isPaintingLayer&quot;:true}" fill-rule="nonzero" stroke="none" stroke-linecap="butt" stroke-linejoin="miter" stroke-miterlimit="10" stroke-dasharray="" stroke-dashoffset="0" style="mix-blend-mode: normal"><path d="M206.16269,183.03963c0,1.46895 -0.42733,2.6174 -1.28199,3.47206c-0.85466,0.85466 -2.02982,1.28199 -3.52547,1.28199h-0.80124c-1.49565,0 -2.67081,-0.42733 -3.52547,-1.28199c-0.85466,-0.85466 -1.28199,-2.00311 -1.28199,-3.47206v-0.6677c0,-0.29379 0.05342,-0.64099 0.18696,-1.01491c0.10683,-0.37391 0.3205,-0.77453 0.61429,-1.20186c0.21366,-0.34721 0.45404,-0.61429 0.6677,-0.77453c0.21366,-0.16025 0.34721,-0.26709 0.34721,-0.37392c0,-0.10683 -0.13354,-0.21366 -0.34721,-0.37391c-0.21366,-0.16025 -0.42733,-0.37392 -0.64099,-0.69441c-0.56087,-0.74783 -0.82795,-1.46895 -0.82795,-2.16336v-0.53416c0,-1.46895 0.42733,-2.6441 1.28199,-3.49876c0.85466,-0.85466 2.02982,-1.3087 3.52547,-1.3087h0.80124c1.46895,0 2.6441,0.45404 3.49876,1.3087c0.85466,0.85466 1.3087,2.02981 1.3087,3.49876v0.53416c0,0.69441 -0.29379,1.41553 -0.82795,2.16336c-0.21366,0.32049 -0.45404,0.53416 -0.6677,0.69441c-0.21366,0.16025 -0.3205,0.26708 -0.3205,0.37391c0,0.10683 0.10683,0.21367 0.3205,0.37392c0.21367,0.16024 0.42733,0.42732 0.6677,0.77453c0.53416,0.82795 0.82795,1.57578 0.82795,2.21677zM203.75897,175.50795v-0.53416c0,-0.6677 -0.24037,-1.22857 -0.69441,-1.70932c-0.48075,-0.45404 -1.04162,-0.69441 -1.70932,-0.69441h-0.80124c-0.69441,0 -1.25528,0.24037 -1.70932,0.69441c-0.48075,0.48075 -0.69441,1.04162 -0.69441,1.70932v0.53416c0,0.69441 0.21366,1.25528 0.69441,1.70932c0.45404,0.48074 1.01491,0.69441 1.70932,0.69441h0.80124c0.6677,0 1.22857,-0.21367 1.70932,-0.69441c0.45404,-0.45404 0.69441,-1.01491 0.69441,-1.70932zM203.75897,183.2533v-0.80124c0,-0.641 -0.24037,-1.20187 -0.69441,-1.68261c-0.48075,-0.48075 -1.04162,-0.72112 -1.70932,-0.72112h-0.80124c-0.69441,0 -1.25528,0.24037 -1.70932,0.72112c-0.48075,0.48074 -0.69441,1.04161 -0.69441,1.68261v0.80124c0,0.69441 0.21366,1.25528 0.69441,1.70932c0.45404,0.48074 1.01491,0.69441 1.70932,0.69441h0.80124c0.6677,0 1.22857,-0.21367 1.70932,-0.69441c0.45404,-0.45404 0.69441,-1.01491 0.69441,-1.70932z" fill="#ffad00" stroke-width="0.65849"/><path d="M240.13745,177.61789c0,0.18696 0.16025,0.3205 0.48074,0.42733c0.3205,0.10683 0.72112,0.29379 1.25529,0.58758c0.96149,0.56087 1.6559,1.20186 2.10994,1.94969c0.45403,0.74783 0.69441,1.6559 0.69441,2.67081c0,1.84286 -0.85466,3.20497 -2.53727,4.05963c-0.26708,0.16025 -0.53417,0.24037 -0.77454,0.29379c-0.26708,0.0534 -0.48074,0.0801 -0.64099,0.10683c-0.18696,0.0267 -0.3205,0.0534 -0.42733,0.0801c-0.10683,0.0534 -0.16025,0.13354 -0.16025,0.24037v0.82795c0,0.18696 -0.10683,0.26708 -0.26708,0.26708h-0.6677c-0.18696,0 -0.26708,-0.0801 -0.26708,-0.26708v-0.80124c0,-0.16025 -0.08013,-0.24038 -0.18696,-0.26708c-0.6677,0 -1.25528,-0.0801 -1.73603,-0.21367c-0.48075,-0.13354 -0.88137,-0.3205 -1.17516,-0.56087c-0.53416,-0.40062 -0.90807,-0.77453 -1.14845,-1.12174c-0.26708,-0.3472 -0.37391,-0.64099 -0.37391,-0.85466c0,-0.0534 0.05342,-0.13354 0.16025,-0.18695l1.68261,-0.85466c0.02671,0 0.08012,-0.0267 0.13354,-0.0267c0.05342,0 0.13354,0.0534 0.24037,0.16025c0.3205,0.42733 0.64099,0.80124 0.90807,1.09503c0.26708,0.29379 0.64099,0.42733 1.12174,0.42733c0.13354,0 0.24037,0 0.29379,-0.0267c0.05342,-0.0267 0.08013,-0.10683 0.08013,-0.24037v-5.18137c-0.05342,-0.16025 -0.21366,-0.3205 -0.50745,-0.42733c-0.3205,-0.10684 -0.69441,-0.29379 -1.14845,-0.56087c-0.85466,-0.42733 -1.52236,-1.01491 -1.9764,-1.73603c-0.45404,-0.72112 -0.6677,-1.54907 -0.6677,-2.51056c0,-1.86957 0.77453,-3.20497 2.35031,-4.03292c0.24037,-0.10684 0.48075,-0.21367 0.72112,-0.26709c0.24037,-0.0534 0.45404,-0.0801 0.64099,-0.10683c0.16025,-0.0267 0.3205,-0.0534 0.42733,-0.10683c0.10683,-0.0534 0.16025,-0.13354 0.16025,-0.24037v-0.85466c0,-0.16025 0.08012,-0.26708 0.26708,-0.26708h0.6677c0.16025,0 0.26708,0.10683 0.26708,0.26708v0.82795c0,0.16025 0.05342,0.26708 0.16025,0.26708c0.10683,0.0267 0.29379,0.0534 0.58758,0.10683c0.56087,0.13354 1.06832,0.29379 1.49565,0.50746c0.42733,0.21366 0.77453,0.45403 1.06832,0.69441c0.26708,0.24037 0.48075,0.48074 0.641,0.72112c0.13354,0.26708 0.21366,0.48074 0.21366,0.64099c0,0.10683 -0.0534,0.18696 -0.13354,0.21366l-1.68261,0.85466c-0.0801,0.0534 -0.13354,0.0534 -0.16025,0.0534c-0.10683,0 -0.21366,-0.0801 -0.32049,-0.24037c-0.10684,-0.16025 -0.29379,-0.40062 -0.50746,-0.72112c-0.16025,-0.21367 -0.3472,-0.37391 -0.56087,-0.48075c-0.21366,-0.10683 -0.40062,-0.16025 -0.56087,-0.16025c-0.16025,0 -0.24037,0.10684 -0.24037,0.26709zM238.93559,176.76323v-3.76584c0,-0.16025 -0.08013,-0.26708 -0.18696,-0.26708c-0.21366,0 -0.40062,0.0801 -0.61429,0.18696c-0.21367,0.10683 -0.37391,0.26708 -0.53416,0.48074c-0.16025,0.21367 -0.29379,0.45404 -0.40062,0.72112c-0.10683,0.26708 -0.16025,0.56087 -0.16025,0.85466c0,0.26708 0.05342,0.53416 0.18696,0.80124c0.13354,0.26708 0.29379,0.48075 0.48075,0.6677c0.16025,0.18696 0.3472,0.34721 0.56087,0.45404c0.18696,0.10683 0.34721,0.16025 0.48075,0.16025c0.10683,0 0.18696,-0.0801 0.18696,-0.29379zM240.13745,185.33653c0,0.18696 0.08012,0.26708 0.24037,0.26708c0.21367,0 0.45404,-0.0534 0.6677,-0.18695c0.21367,-0.10684 0.42733,-0.29379 0.61429,-0.50746c0.16025,-0.21366 0.3205,-0.45404 0.42733,-0.74783c0.10683,-0.26708 0.18696,-0.58757 0.18696,-0.90807c0,-0.3205 -0.0801,-0.64099 -0.24038,-0.93478c-0.16024,-0.29379 -0.32049,-0.56087 -0.53416,-0.77454c-0.21366,-0.21366 -0.42733,-0.40062 -0.64099,-0.53416c-0.21367,-0.13354 -0.40062,-0.21367 -0.53416,-0.21367c-0.13355,0 -0.18696,0.10684 -0.18696,0.29379zM257.63126,183.03963c0,1.46895 -0.42733,2.6174 -1.28199,3.47206c-0.85466,0.85466 -2.02982,1.28199 -3.52547,1.28199h-0.80125c-1.49565,0 -2.67081,-0.42733 -3.52546,-1.28199c-0.85466,-0.85466 -1.28199,-2.00311 -1.28199,-3.47206v-0.6677c0,-0.29379 0.0534,-0.64099 0.18695,-1.01491c0.10684,-0.37391 0.3205,-0.77453 0.61429,-1.20186c0.21366,-0.34721 0.45404,-0.61429 0.6677,-0.77453c0.21367,-0.16025 0.34721,-0.26709 0.34721,-0.37392c0,-0.10683 -0.13354,-0.21366 -0.34721,-0.37391c-0.21366,-0.16025 -0.42733,-0.37392 -0.64099,-0.69441c-0.56087,-0.74783 -0.82795,-1.46895 -0.82795,-2.16336v-0.53416c0,-1.46895 0.42733,-2.6441 1.28199,-3.49876c0.85465,-0.85466 2.02981,-1.3087 3.52546,-1.3087h0.80125c1.46894,0 2.6441,0.45404 3.49876,1.3087c0.85466,0.85466 1.3087,2.02981 1.3087,3.49876v0.53416c0,0.69441 -0.29379,1.41553 -0.82796,2.16336c-0.21366,0.32049 -0.45403,0.53416 -0.6677,0.69441c-0.21366,0.16025 -0.3205,0.26708 -0.3205,0.37391c0,0.10683 0.10684,0.21367 0.3205,0.37392c0.21367,0.16024 0.42733,0.42732 0.6677,0.77453c0.53417,0.82795 0.82796,1.57578 0.82796,2.21677zM255.22753,175.50795v-0.53416c0,-0.6677 -0.24038,-1.22857 -0.69441,-1.70932c-0.48075,-0.45404 -1.04162,-0.69441 -1.70932,-0.69441h-0.80125c-0.69441,0 -1.25528,0.24037 -1.70931,0.69441c-0.48075,0.48075 -0.69441,1.04162 -0.69441,1.70932v0.53416c0,0.69441 0.21366,1.25528 0.69441,1.70932c0.45403,0.48074 1.0149,0.69441 1.70931,0.69441h0.80125c0.6677,0 1.22857,-0.21367 1.70932,-0.69441c0.45403,-0.45404 0.69441,-1.01491 0.69441,-1.70932zM255.22753,183.2533v-0.80124c0,-0.641 -0.24038,-1.20187 -0.69441,-1.68261c-0.48075,-0.48075 -1.04162,-0.72112 -1.70932,-0.72112h-0.80125c-0.69441,0 -1.25528,0.24037 -1.70931,0.72112c-0.48075,0.48074 -0.69441,1.04161 -0.69441,1.68261v0.80124c0,0.69441 0.21366,1.25528 0.69441,1.70932c0.45403,0.48074 1.0149,0.69441 1.70931,0.69441h0.80125c0.6677,0 1.22857,-0.21367 1.70932,-0.69441c0.45403,-0.45404 0.69441,-1.01491 0.69441,-1.70932zM262.99959,186.5651c0,1.44224 -0.34721,2.51057 -1.01491,3.25839c-0.37392,0.42733 -0.69441,0.72112 -0.9882,0.90808c-0.29379,0.18695 -0.50746,0.26708 -0.61429,0.26708c-0.0801,0 -0.13354,-0.0534 -0.18696,-0.18696l-0.37391,-0.77453l-0.0267,-0.0267c0,0 0,-0.0267 0,-0.0534c0,-0.0801 0.0534,-0.18695 0.16025,-0.29379c0.10683,-0.10683 0.24037,-0.26708 0.40062,-0.45403c0.16025,-0.18696 0.29379,-0.42733 0.40062,-0.69441c0.10684,-0.26709 0.18696,-0.58758 0.18696,-0.9882c0,-0.26709 -0.10683,-0.42733 -0.26708,-0.42733h-0.3472c-0.18696,0 -0.26709,-0.0801 -0.26709,-0.26709v-1.92298c0,-0.16025 0.0801,-0.26708 0.26709,-0.26708h2.40372c0.16025,0 0.26709,0.10683 0.26709,0.26708zM276.48716,183.2533c0,0.69441 -0.13354,1.3087 -0.34721,1.86957c-0.24037,0.56087 -0.56087,1.04161 -0.9882,1.44223c-0.42733,0.40063 -0.90807,0.69441 -1.49565,0.90808c-0.58758,0.21366 -1.25528,0.3205 -1.9764,0.3205h-0.80124c-0.74783,0 -1.38883,-0.10684 -1.9764,-0.3205c-0.58758,-0.21367 -1.09504,-0.50745 -1.52237,-0.90808c-0.42733,-0.40062 -0.74782,-0.88136 -0.96149,-1.44223c-0.24037,-0.56087 -0.3472,-1.17516 -0.3472,-1.86957v-8.27951c0,-0.6677 0.10683,-1.28199 0.3472,-1.84286c0.21367,-0.56087 0.53416,-1.04162 0.96149,-1.44224c0.42733,-0.40062 0.93479,-0.72112 1.52237,-0.93478c0.58757,-0.21367 1.22857,-0.3205 1.9764,-0.3205h0.80124c0.72112,0 1.38882,0.10683 1.9764,0.3205c0.58758,0.21366 1.06832,0.53416 1.49565,0.93478c0.42733,0.40062 0.74783,0.88137 0.9882,1.44224c0.21367,0.56087 0.34721,1.17516 0.34721,1.84286zM274.08343,183.2533v-8.27951c0,-0.6677 -0.24038,-1.22857 -0.69441,-1.70932c-0.48075,-0.45404 -1.04162,-0.69441 -1.70932,-0.69441h-0.80124c-0.69442,0 -1.25529,0.24037 -1.70932,0.69441c-0.48075,0.48075 -0.69441,1.04162 -0.69441,1.70932v8.27951c0,0.69441 0.21366,1.25528 0.69441,1.70932c0.45403,0.48074 1.0149,0.69441 1.70932,0.69441h0.80124c0.6677,0 1.22857,-0.21367 1.70932,-0.69441c0.45403,-0.45404 0.69441,-1.01491 0.69441,-1.70932zM290.53564,183.2533c0,0.69441 -0.13354,1.3087 -0.3472,1.86957c-0.24038,0.56087 -0.56087,1.04161 -0.9882,1.44223c-0.42733,0.40063 -0.90808,0.69441 -1.49566,0.90808c-0.58757,0.21366 -1.25528,0.3205 -1.97639,0.3205h-0.80125c-0.74782,0 -1.38882,-0.10684 -1.9764,-0.3205c-0.58758,-0.21367 -1.09503,-0.50745 -1.52236,-0.90808c-0.42733,-0.40062 -0.74783,-0.88136 -0.96149,-1.44223c-0.24037,-0.56087 -0.34721,-1.17516 -0.34721,-1.86957v-8.27951c0,-0.6677 0.10684,-1.28199 0.34721,-1.84286c0.21366,-0.56087 0.53416,-1.04162 0.96149,-1.44224c0.42733,-0.40062 0.93478,-0.72112 1.52236,-0.93478c0.58758,-0.21367 1.22858,-0.3205 1.9764,-0.3205h0.80125c0.72111,0 1.38882,0.10683 1.97639,0.3205c0.58758,0.21366 1.06833,0.53416 1.49566,0.93478c0.42733,0.40062 0.74782,0.88137 0.9882,1.44224c0.21366,0.56087 0.3472,1.17516 0.3472,1.84286zM288.13191,183.2533v-8.27951c0,-0.6677 -0.24037,-1.22857 -0.69441,-1.70932c-0.48074,-0.45404 -1.04161,-0.69441 -1.70931,-0.69441h-0.80125c-0.69441,0 -1.25528,0.24037 -1.70932,0.69441c-0.48074,0.48075 -0.69441,1.04162 -0.69441,1.70932v8.27951c0,0.69441 0.21367,1.25528 0.69441,1.70932c0.45404,0.48074 1.01491,0.69441 1.70932,0.69441h0.80125c0.6677,0 1.22857,-0.21367 1.70931,-0.69441c0.45404,-0.45404 0.69441,-1.01491 0.69441,-1.70932zM304.58413,183.2533c0,0.69441 -0.13354,1.3087 -0.3472,1.86957c-0.24038,0.56087 -0.56087,1.04161 -0.9882,1.44223c-0.42733,0.40063 -0.90808,0.69441 -1.49566,0.90808c-0.58758,0.21366 -1.25528,0.3205 -1.9764,0.3205h-0.80124c-0.74783,0 -1.38882,-0.10684 -1.9764,-0.3205c-0.58758,-0.21367 -1.09503,-0.50745 -1.52236,-0.90808c-0.42733,-0.40062 -0.74783,-0.88136 -0.96149,-1.44223c-0.24037,-0.56087 -0.34721,-1.17516 -0.34721,-1.86957v-8.27951c0,-0.6677 0.10684,-1.28199 0.34721,-1.84286c0.21366,-0.56087 0.53416,-1.04162 0.96149,-1.44224c0.42733,-0.40062 0.93478,-0.72112 1.52236,-0.93478c0.58758,-0.21367 1.22857,-0.3205 1.9764,-0.3205h0.80124c0.72112,0 1.38882,0.10683 1.9764,0.3205c0.58758,0.21366 1.06833,0.53416 1.49566,0.93478c0.42733,0.40062 0.74782,0.88137 0.9882,1.44224c0.21366,0.56087 0.3472,1.17516 0.3472,1.84286zM302.1804,183.2533v-8.27951c0,-0.6677 -0.24037,-1.22857 -0.69441,-1.70932c-0.48074,-0.45404 -1.04161,-0.69441 -1.70932,-0.69441h-0.80124c-0.69441,0 -1.25528,0.24037 -1.70932,0.69441c-0.48074,0.48075 -0.69441,1.04162 -0.69441,1.70932v8.27951c0,0.69441 0.21367,1.25528 0.69441,1.70932c0.45404,0.48074 1.01491,0.69441 1.70932,0.69441h0.80124c0.66771,0 1.22858,-0.21367 1.70932,-0.69441c0.45404,-0.45404 0.69441,-1.01491 0.69441,-1.70932z" fill="#ffad00" stroke-width="0.65849"/><path d="M217.00409,182.9375v-4.625h4.625v4.625z" fill="#ffffff" stroke-width="0"/></g></g></svg>