<svg version="1.1" xmlns="http://www.w3.org/2000/svg" xmlns:xlink="http://www.w3.org/1999/xlink" width="104.46698" height="19.60984" viewBox="0,0,104.46698,19.60984"><g transform="translate(-187.76651,-170.19508)"><g stroke="none" stroke-miterlimit="10"><path d="M188.92527,189.80492c-0.63997,0 -1.15876,-0.5188 -1.15876,-1.15876v-17.29231c0,-0.63997 0.5188,-1.15876 1.15876,-1.15876h102.14945c0.63997,0 1.15876,0.5188 1.15876,1.15876v17.29231c0,0.63997 -0.5188,1.15876 -1.15876,1.15876z" fill="#1a1a1a" stroke-width="0.052"/><path d="M221.72998,181.31355l1.16624,1.74936l-0.15959,0.11048c-0.11458,-0.10639 -0.2087,-0.15959 -0.28235,-0.15959c-0.07366,0 -0.28031,0.09821 -0.61995,0.29463c-0.70383,0.40511 -1.29718,0.67928 -1.78005,0.82251c-0.47877,0.13913 -1.04961,0.20869 -1.71253,0.20869c-1.32173,0 -2.40613,-0.31304 -3.25319,-0.93913c-0.49923,-0.36419 -0.89207,-0.81636 -1.17851,-1.35651c-0.33146,-0.6179 -0.49719,-1.29923 -0.49719,-2.04399c0,-1.01483 0.29667,-1.89666 0.89002,-2.64551c0.89207,-1.12531 2.2404,-1.68797 4.045,-1.68797c0.66291,0 1.23171,0.06956 1.70639,0.20869c0.47468,0.13913 1.06803,0.4133 1.78005,0.8225c0.33964,0.19233 0.54629,0.28849 0.61995,0.28849c0.07366,0 0.16777,-0.0532 0.28235,-0.15959l0.15959,0.11049l-1.16624,1.74935l-0.16573,-0.11048c0.00819,-0.06547 0.01228,-0.12071 0.01228,-0.16573c0,-0.11867 -0.05115,-0.22915 -0.15345,-0.33146c-0.1023,-0.10639 -0.2844,-0.23325 -0.54629,-0.38056c-0.72429,-0.40921 -1.49155,-0.61381 -2.30178,-0.61381c-0.95754,0 -1.72071,0.23939 -2.28951,0.71816c-0.6711,0.56061 -1.00665,1.29309 -1.00665,2.19743c0,0.90435 0.33555,1.63683 1.00665,2.19744c0.5688,0.47877 1.33196,0.71815 2.28951,0.71815c0.81023,0 1.57749,-0.2046 2.30178,-0.6138c0.26189,-0.14732 0.44399,-0.27213 0.54629,-0.37443c0.1023,-0.10639 0.15345,-0.21892 0.15345,-0.33759c0,-0.045 -0.00409,-0.0982 -0.01228,-0.15959zM226.03892,181.36885v2.19743c0,0.12685 0.02864,0.22506 0.08593,0.29463c0.05729,0.06547 0.15959,0.12071 0.3069,0.16573v0.16573h-2.43068v-0.17187c0.14322,-0.0368 0.24348,-0.09 0.30077,-0.15959c0.06138,-0.06957 0.09207,-0.16778 0.09207,-0.29463v-5.62248c0,-0.12686 -0.02864,-0.22302 -0.08593,-0.28849c-0.05729,-0.06547 -0.15959,-0.12071 -0.3069,-0.16573v-0.17187h4.50535c0.58516,0 1.0312,0.0307 1.3381,0.0921c0.3069,0.05727 0.58107,0.16366 0.8225,0.31918c0.49514,0.32327 0.74271,0.85115 0.74271,1.58363c0,0.55652 -0.15345,0.99232 -0.46036,1.30741c-0.30281,0.311 -0.79386,0.53606 -1.47314,0.67519l1.30128,1.81687c0.23734,0.33555 0.42557,0.56471 0.5647,0.68747c0.14322,0.11867 0.30486,0.19437 0.48491,0.22711v0.16573h-2.8849v-0.16573c0.21279,-0.05727 0.31918,-0.14934 0.31918,-0.27622c0,-0.09002 -0.06547,-0.2271 -0.19642,-0.41125l-1.37493,-1.97032zM226.03892,180.12282h2.47979c0.37647,0 0.65473,-0.04092 0.83478,-0.12277c0.25371,-0.11048 0.38056,-0.3294 0.38056,-0.65677c0,-0.29054 -0.09003,-0.4931 -0.27008,-0.60767c-0.17596,-0.11458 -0.49105,-0.17187 -0.94527,-0.17187h-2.47979zM234.69362,181.27064v1.6757h4.36417c0.12686,0 0.22302,-0.02863 0.28849,-0.0859c0.06957,-0.05727 0.12481,-0.16161 0.16573,-0.31304h0.17187v2.03784h-0.17187c-0.0368,-0.14322 -0.09,-0.24552 -0.15959,-0.3069c-0.06956,-0.05727 -0.16777,-0.0859 -0.29463,-0.0859h-6.40202v-0.17187c0.14322,-0.0368 0.24348,-0.09 0.30077,-0.15959c0.06138,-0.06957 0.09207,-0.16778 0.09207,-0.29463v-5.62248c0,-0.12686 -0.02864,-0.22302 -0.08593,-0.28849c-0.05729,-0.06547 -0.15959,-0.12071 -0.3069,-0.16573v-0.17187h6.21174c0.13095,0 0.22916,-0.02863 0.29463,-0.0859c0.06957,-0.05727 0.12481,-0.15957 0.16573,-0.30691h0.16573v2.03785h-0.16573c-0.04093,-0.15141 -0.09618,-0.25576 -0.16573,-0.31305c-0.06547,-0.05727 -0.16368,-0.0859 -0.29463,-0.0859h-4.17389v1.50997h2.59027c0.12685,0 0.22302,-0.02863 0.28849,-0.0859c0.06957,-0.05727 0.12685,-0.15957 0.17186,-0.30691h0.16573v1.98874h-0.16573c-0.04093,-0.14731 -0.09617,-0.24961 -0.16572,-0.3069c-0.06547,-0.0614 -0.16368,-0.0921 -0.29463,-0.0921zM241.11405,183.56628v-5.62248c0,-0.12686 -0.02863,-0.22302 -0.0859,-0.28849c-0.05727,-0.06547 -0.15957,-0.12071 -0.3069,-0.16573v-0.17187h4.03272c0.83887,0 1.49974,0.10435 1.9826,0.31304c0.67928,0.29463 1.16828,0.78158 1.467,1.46087c0.2087,0.47468 0.31305,1.02915 0.31305,1.66342c0,1.17442 -0.34987,2.06444 -1.04962,2.67007c-0.31509,0.27007 -0.68746,0.46649 -1.11713,0.58925c-0.42557,0.11867 -0.95754,0.17801 -1.5959,0.17801h-4.03272v-0.17187c0.14322,-0.0368 0.24347,-0.09 0.30076,-0.15959c0.0614,-0.06957 0.0921,-0.16778 0.0921,-0.29463zM242.75906,182.94634h1.75549c0.80614,0 1.39131,-0.18414 1.7555,-0.55243c0.38056,-0.38465 0.57084,-0.93094 0.57084,-1.63887c0,-0.70793 -0.19028,-1.25422 -0.57084,-1.63887c-0.18824,-0.19233 -0.42149,-0.33146 -0.69975,-0.41739c-0.27826,-0.09003 -0.63018,-0.13504 -1.05575,-0.13504h-1.75549zM251.60404,177.9438v5.62248c0,0.12685 0.02863,0.22506 0.0859,0.29463c0.05727,0.06547 0.15957,0.12071 0.3069,0.16573v0.16573h-2.43068v-0.17187c0.14322,-0.0368 0.24347,-0.09 0.30076,-0.15959c0.0614,-0.06957 0.0921,-0.16778 0.0921,-0.29463v-5.62248c0,-0.12686 -0.02863,-0.22302 -0.0859,-0.28849c-0.05727,-0.06547 -0.15957,-0.12071 -0.3069,-0.16573v-0.17187h2.43068v0.17187c-0.14731,0.04093 -0.24961,0.09618 -0.3069,0.16573c-0.05727,0.06547 -0.0859,0.16163 -0.0859,0.28849zM256.99942,178.56374v5.00254c0,0.12685 0.02863,0.22506 0.0859,0.29463c0.05727,0.06547 0.15957,0.12071 0.30691,0.16573v0.16573h-2.43068v-0.17187c0.14322,-0.0368 0.24347,-0.09 0.30076,-0.15959c0.0614,-0.06957 0.0921,-0.16778 0.0921,-0.29463v-5.00254h-2.02557c-0.13094,0 -0.23119,0.0307 -0.30076,0.0921c-0.06547,0.05727 -0.11866,0.15957 -0.15959,0.30691h-0.16573v-2.03785h0.17187c0.0368,0.14323 0.08795,0.24553 0.15345,0.30691c0.06957,0.05727 0.16982,0.0859 0.30076,0.0859h5.69615c0.13095,0 0.22916,-0.02863 0.29463,-0.0859c0.06956,-0.05727 0.1248,-0.15957 0.16573,-0.30691h0.16572v2.03785h-0.16572c-0.04093,-0.14731 -0.09618,-0.24962 -0.16573,-0.30691c-0.06547,-0.0614 -0.16368,-0.0921 -0.29463,-0.0921zM266.96767,177.93766l-0.82864,1.60204l-0.14731,-0.0798c0,-0.13503 -0.04297,-0.24143 -0.1289,-0.31918c-0.23325,-0.20869 -0.57698,-0.38056 -1.0312,-0.5156c-0.45422,-0.13503 -0.91458,-0.20255 -1.38107,-0.20255c-0.39693,0 -0.74884,0.05524 -1.05575,0.16572c-0.44194,0.15959 -0.66291,0.3908 -0.66291,0.69361c0,0.20051 0.10639,0.34373 0.31918,0.42966c0.21279,0.08185 0.62404,0.14732 1.23375,0.19642l0.96982,0.0737c0.84705,0.06547 1.49155,0.22915 1.9335,0.49105c0.24552,0.14731 0.44808,0.34373 0.60767,0.58925c0.20051,0.30691 0.30076,0.65269 0.30076,1.03734c0,0.69974 -0.31509,1.25217 -0.94526,1.65728c-0.60153,0.38875 -1.41585,0.58312 -2.44296,0.58312c-1.03529,0 -2.0358,-0.21892 -3.00152,-0.65677c-0.06547,-0.02867 -0.12071,-0.043 -0.16573,-0.043c-0.08184,0 -0.15754,0.0491 -0.22711,0.14731l-0.15345,-0.0614l0.70588,-1.68183l0.15345,0.0614c0,0.02453 0,0.0409 0,0.0491c0,0.10639 0.04092,0.19642 0.12276,0.27008c0.2046,0.18005 0.55856,0.33759 1.06189,0.47263c0.50332,0.13095 1.0005,0.19642 1.49155,0.19642c0.43376,0 0.82251,-0.05729 1.16624,-0.17187c0.42557,-0.13913 0.63836,-0.36419 0.63836,-0.67519c0,-0.24961 -0.14731,-0.42352 -0.44194,-0.52173c-0.19642,-0.06547 -0.55038,-0.12071 -1.06189,-0.16573l-0.96368,-0.0798c-0.51969,-0.04093 -0.91662,-0.09413 -1.19079,-0.15959c-0.27417,-0.06547 -0.51355,-0.16163 -0.71815,-0.28849c-0.26189,-0.16368 -0.4665,-0.3867 -0.61381,-0.66905c-0.14731,-0.28235 -0.22097,-0.5913 -0.22097,-0.92685c0,-0.75294 0.32327,-1.32787 0.96981,-1.7248c0.58926,-0.3601 1.31765,-0.54015 2.18516,-0.54015c0.47059,0 0.90844,0.0532 1.31355,0.15959c0.40921,0.1023 0.89616,0.2844 1.46087,0.54629c0.16777,0.07775 0.2844,0.11662 0.34987,0.11662c0.06547,0 0.14935,-0.04501 0.25166,-0.13504z" fill="#f9f9f9" stroke-width="0.052"/></g></g></svg>