<svg version="1.1" xmlns="http://www.w3.org/2000/svg" xmlns:xlink="http://www.w3.org/1999/xlink" width="7.54005" height="13.00004" viewBox="0,0,7.54005,13.00004"><g transform="translate(-135.80849,-167.2247)"><g data-paper-data="{&quot;isPaintingLayer&quot;:true}" fill="#000000" fill-rule="evenodd" stroke="#000000" stroke-width="0" stroke-linecap="round" stroke-linejoin="miter" stroke-miterlimit="10" stroke-dasharray="" stroke-dashoffset="0" style="mix-blend-mode: normal"><path d="M140.00853,180.22475h-0.6c-0.547,0 -1.04,-0.08 -1.48,-0.24c-0.44,-0.16 -0.817,-0.39 -1.13,-0.69c-0.313,-0.3 -0.557,-0.66 -0.73,-1.08c-0.1325,-0.325 -0.21477,-0.66825 -0.244,-1.018c-0.01086,-0.1237 -0.0162,-0.24782 -0.016,-0.372v-6.2c-0.00134,-0.29541 0.03121,-0.59 0.097,-0.878c0.04033,-0.17481 0.09484,-0.34605 0.163,-0.512c0.173,-0.42 0.417,-0.78 0.73,-1.08c0.28108,-0.2671 0.60931,-0.4797 0.968,-0.627c0.05349,-0.02228 0.10751,-0.04329 0.162,-0.063c0.28705,-0.10273 0.58504,-0.17186 0.888,-0.206c0.19649,-0.02294 0.39417,-0.0343 0.592,-0.034h0.6c0.26509,-0.00116 0.52977,0.02092 0.791,0.066c0.18981,0.03333 0.37671,0.08148 0.559,0.144c0.407,0.14 0.757,0.31 1.05,0.51c0.12194,0.08237 0.2379,0.17326 0.347,0.272c0.12,0.109 0.222,0.223 0.307,0.341c0.00881,0.01223 0.01748,0.02456 0.026,0.037c0.115,0.168 0.189,0.327 0.221,0.478c0.01238,0.0565 0.01875,0.11416 0.019,0.172c0,0.04374 -0.01898,0.08533 -0.052,0.114c-0.014,0.014 -0.031,0.026 -0.052,0.037c-0.00526,0.00313 -0.01059,0.00613 -0.016,0.009l-1.28,0.64c-0.023,0.012 -0.051,0.018 -0.084,0.02c-0.00534,0.00012 -0.01066,0.00012 -0.016,0c-0.01735,-0.00025 -0.03443,-0.00434 -0.05,-0.012c-0.029,-0.013 -0.058,-0.039 -0.088,-0.077c-0.0077,-0.01007 -0.01504,-0.02041 -0.022,-0.031c-0.10802,-0.14648 -0.22143,-0.28892 -0.34,-0.427c-0.10786,-0.12601 -0.22131,-0.24714 -0.34,-0.363c-0.227,-0.22 -0.553,-0.33 -0.98,-0.33h-0.6c-0.25386,-0.00282 -0.50554,0.04724 -0.739,0.147c-0.20222,0.08914 -0.38577,0.21569 -0.541,0.373c-0.33686,0.33058 -0.52461,0.78405 -0.52,1.256c-0.00005,0.008 -0.00005,0.016 0,0.024v6.2c-0.00282,0.25386 0.04724,0.50554 0.147,0.739c0.08914,0.20222 0.21569,0.38577 0.373,0.541c0.33058,0.33686 0.78405,0.52461 1.256,0.52c0.008,0.00005 0.016,0.00005 0.024,0h0.6c0.1288,0.00073 0.25728,-0.01302 0.383,-0.041c0.09171,-0.02079 0.18115,-0.05061 0.267,-0.089c0.06162,-0.02738 0.12171,-0.05809 0.18,-0.092c0.057,-0.034 0.108,-0.069 0.153,-0.105c0.03486,-0.02826 0.06731,-0.05936 0.097,-0.093c0.05346,-0.06261 0.10646,-0.12561 0.159,-0.189c0.147,-0.179 0.261,-0.326 0.341,-0.441c0.02,-0.02874 0.04101,-0.05675 0.063,-0.084c0.066,-0.083 0.124,-0.13 0.172,-0.143c0.00817,-0.00205 0.01658,-0.00306 0.025,-0.003c0.00842,0.00012 0.0168,0.00113 0.025,0.003c0.025,0.005 0.056,0.018 0.095,0.037l1.26,0.64c0.01737,0.00841 0.03408,0.0181 0.05,0.029c0.038,0.027 0.06,0.057 0.068,0.089c0.00145,0.00724 0.00212,0.01462 0.002,0.022c-0.00069,0.01864 -0.00371,0.03711 -0.009,0.055c-0.016,0.062 -0.056,0.153 -0.117,0.275c-0.02082,0.04027 -0.04215,0.08028 -0.064,0.12c-0.05016,0.0913 -0.10734,0.17855 -0.171,0.261c-0.066,0.085 -0.141,0.173 -0.227,0.263c-0.08106,0.08496 -0.16512,0.16701 -0.252,0.246c-0.6,0.56 -1.433,0.84 -2.5,0.84z"/></g></g></svg>