<svg version="1.1" xmlns="http://www.w3.org/2000/svg" xmlns:xlink="http://www.w3.org/1999/xlink" width="3.80012" height="17.5004" viewBox="0,0,3.80012,17.5004"><g transform="translate(-202.5076,-167.15467)"><g data-paper-data="{&quot;isPaintingLayer&quot;:true}" fill="#000000" fill-rule="evenodd" stroke="#000000" stroke-width="0" stroke-linecap="round" stroke-linejoin="miter" stroke-miterlimit="10" stroke-dasharray="" stroke-dashoffset="0" style="mix-blend-mode: normal"><path d="M202.50762,184.45476v-1.2c-0.00013,-0.01436 0.00054,-0.02872 0.002,-0.043c0.005,-0.043 0.018,-0.072 0.038,-0.087c0.00941,-0.00672 0.01908,-0.01306 0.029,-0.019c0.024,-0.016 0.054,-0.032 0.091,-0.051c0.11607,-0.0515 0.23207,-0.10317 0.348,-0.155c0.10741,-0.04816 0.21474,-0.09649 0.322,-0.145c0.09846,-0.0439 0.1937,-0.09469 0.285,-0.152c0.08325,-0.05256 0.16186,-0.1121 0.235,-0.178c0.14,-0.127 0.25,-0.28 0.33,-0.46c0.03431,-0.07844 0.06045,-0.1602 0.078,-0.244c0.017,-0.082 0.029,-0.171 0.036,-0.266c0.00408,-0.05991 0.00607,-0.11995 0.006,-0.18v-10.12c-0.00034,-0.02667 0.00303,-0.05326 0.01,-0.079c0.023,-0.081 0.086,-0.121 0.19,-0.121h1.4c0.02667,-0.00034 0.05325,0.00303 0.079,0.01c0.081,0.023 0.121,0.086 0.121,0.19v9.92c-0.00133,0.29693 -0.04304,0.59231 -0.124,0.878c-0.03317,0.11908 -0.07188,0.23653 -0.116,0.352c-0.14464,0.37607 -0.34267,0.72937 -0.588,1.049c-0.03644,0.0477 -0.07378,0.09471 -0.112,0.141c-0.27736,0.3442 -0.6225,0.62774 -1.014,0.833c-0.44221,0.22184 -0.93131,0.33399 -1.426,0.327c-0.02826,0.00039 -0.05647,-0.00263 -0.084,-0.009c-0.074,-0.018 -0.117,-0.064 -0.131,-0.136c-0.0034,-0.01814 -0.00507,-0.03655 -0.005,-0.055zM206.19562,168.75076c0.07599,-0.15417 0.11437,-0.32414 0.112,-0.496c0.00002,-0.00466 0.00002,-0.00934 0,-0.014c0.00191,-0.28822 -0.11362,-0.56479 -0.32,-0.766c-0.08319,-0.08422 -0.17943,-0.15445 -0.285,-0.208c-0.15386,-0.07584 -0.32348,-0.11421 -0.495,-0.112c-0.00466,-0.00002 -0.00933,-0.00002 -0.014,0c-0.28822,-0.00191 -0.56479,0.11362 -0.766,0.32c-0.08422,0.08319 -0.15445,0.17943 -0.208,0.285c-0.07584,0.15386 -0.11421,0.32348 -0.112,0.495c0.00012,0.02235 0.0008,0.04469 0.002,0.067c0.00669,0.27346 0.12096,0.53326 0.318,0.723c0.213,0.207 0.473,0.31 0.78,0.31c0.00466,0.00002 0.00934,0.00002 0.014,0c0.28822,0.00191 0.56479,-0.11362 0.766,-0.32c0.08413,-0.08289 0.15436,-0.17878 0.208,-0.284z"/></g></g></svg>