<svg version="1.1" xmlns="http://www.w3.org/2000/svg" xmlns:xlink="http://www.w3.org/1999/xlink" width="123.01458" height="74.6279" viewBox="0,0,123.01458,74.6279"><g transform="translate(-178.49273,-141.30169)"><g stroke-miterlimit="10"><path d="M179.49274,180.00001c0,-18.65796 27.09004,-33.78323 60.50729,-33.78323c33.41725,0 60.50729,15.12527 60.50729,33.78323c0,18.65796 -27.09003,33.78323 -60.50729,33.78323c-33.41725,0 -60.50728,-15.12527 -60.50728,-33.78323z" fill="#000000" stroke="#80f7ff" stroke-width="2" stroke-linecap="butt"/><path d="M237.06677,182.93279l5.13574,5.13574c0.45993,0.45993 1.16682,0.56381 1.73961,0.25641l6.15476,-3.30404c0.45521,-0.24461 1.00533,-0.2328 1.44968,0.03116l8.97998,5.32887c0.64078,0.38012 0.89861,1.17532 0.59876,1.85719c-0.76734,1.74623 -2.16413,4.94686 -2.71898,6.36206c-0.11663,0.29797 -0.29041,0.57089 -0.53218,0.78008c-5.98477,5.18768 -17.89196,-1.1333 -27.00605,-10.24738c-9.11551,-9.11456 -15.43648,-21.02176 -10.2488,-27.00652c0.20966,-0.24177 0.4826,-0.41554 0.78009,-0.53218c1.41474,-0.55485 4.61583,-1.95163 6.36205,-2.71897c0.68187,-0.29985 1.47707,-0.04202 1.85719,0.59876l5.32887,8.97998c0.26349,0.44435 0.2753,0.99447 0.03117,1.44968l-3.30404,6.15382c-0.3074,0.57279 -0.20352,1.27969 0.25641,1.73962z" fill="#f9f9f9" stroke="none" stroke-width="1" stroke-linecap="round"/><path d="M281.92143,212.51214l-83.72896,-66.93652" fill="none" stroke="#ff0000" stroke-width="5" stroke-linecap="round"/><path d="M279.55614,143.8017l-85.43714,69.6279" fill="none" stroke="#ff0000" stroke-width="5" stroke-linecap="round"/></g></g></svg>