<svg version="1.1" xmlns="http://www.w3.org/2000/svg" xmlns:xlink="http://www.w3.org/1999/xlink" width="8.96004" height="12.60004" viewBox="0,0,8.96004,12.60004"><g transform="translate(-314.4285,-167.42473)"><g data-paper-data="{&quot;isPaintingLayer&quot;:true}" fill="#000000" fill-rule="evenodd" stroke="#000000" stroke-width="0" stroke-linecap="round" stroke-linejoin="miter" stroke-miterlimit="10" stroke-dasharray="" stroke-dashoffset="0" style="mix-blend-mode: normal"><path d="M323.36852,167.68475l-3.72,12.2c-0.01067,0.0257 -0.02517,0.04963 -0.043,0.071c-0.038,0.045 -0.088,0.068 -0.151,0.069c-0.002,0.00002 -0.004,0.00002 -0.006,0h-1.08c-0.03244,0.00051 -0.06457,-0.00632 -0.094,-0.02c-0.032,-0.015 -0.06,-0.04 -0.082,-0.074c-0.00929,-0.01462 -0.01732,-0.03001 -0.024,-0.046l-3.72,-12.2c0.00018,-0.00533 0.00018,-0.01067 0,-0.016c-0.002,-0.017 -0.005,-0.028 -0.01,-0.034c-0.00321,-0.00342 -0.00561,-0.00752 -0.007,-0.012c-0.002,-0.005 -0.003,-0.011 -0.003,-0.018c-0.00038,-0.02666 0.00438,-0.05313 0.014,-0.078c0.024,-0.061 0.081,-0.094 0.171,-0.101c0.01165,-0.00077 0.02332,-0.0011 0.035,-0.001h1.5c0.02384,-0.00012 0.04764,0.00222 0.071,0.007c0.076,0.016 0.119,0.06 0.129,0.133l2.6,9.16l2.52,-9.16c0.00308,-0.0266 0.0127,-0.05202 0.028,-0.074c0.029,-0.039 0.077,-0.061 0.145,-0.065c0.00898,-0.00063 0.01799,-0.00096 0.027,-0.001h1.5c0.02754,-0.00021 0.05502,0.00247 0.082,0.008c0.08,0.017 0.125,0.063 0.136,0.137c0.00148,0.01161 0.00214,0.0233 0.002,0.035c0.00003,0.00988 -0.00166,0.0197 -0.005,0.029c-0.00146,0.00376 -0.00313,0.00743 -0.005,0.011c-0.00428,0.00816 -0.00732,0.01693 -0.009,0.026c-0.00074,0.00463 -0.00107,0.00931 -0.001,0.014z"/></g></g></svg>