<svg version="1.1" xmlns="http://www.w3.org/2000/svg" xmlns:xlink="http://www.w3.org/1999/xlink" width="7.20018" height="13.70005" viewBox="0,0,7.20018,13.70005"><g transform="translate(-333.2676,-170.95474)"><g data-paper-data="{&quot;isPaintingLayer&quot;:true}" fill="#000000" fill-rule="evenodd" stroke="#000000" stroke-width="0" stroke-linecap="round" stroke-linejoin="miter" stroke-miterlimit="10" stroke-dasharray="" stroke-dashoffset="0" style="mix-blend-mode: normal"><path d="M333.64762,182.47476l1.26,-0.64c0.053,-0.026 0.086,-0.04 0.099,-0.04c0.01972,0.00053 0.03898,0.00603 0.056,0.016c0.028,0.015 0.058,0.04 0.089,0.077c0.01263,0.01518 0.02463,0.03086 0.036,0.047c0.12,0.16 0.233,0.307 0.34,0.44c0.07686,0.09672 0.16075,0.18764 0.251,0.272c0.02897,0.02679 0.05864,0.0528 0.089,0.078c0.12,0.1 0.26,0.18 0.42,0.24c0.07878,0.02903 0.16014,0.05046 0.243,0.064c0.077,0.013 0.159,0.021 0.247,0.024c0.02999,0.00123 0.05999,0.00189 0.09,0.002c0.20974,0.00144 0.41814,-0.03341 0.616,-0.103c0.03169,-0.01141 0.06304,-0.02375 0.094,-0.037c0.22,-0.093 0.41,-0.223 0.57,-0.39c0.16,-0.167 0.287,-0.36 0.38,-0.58c0.093,-0.22 0.14,-0.45 0.14,-0.69v-1.66c0.00035,-0.02646 -0.00166,-0.0529 -0.006,-0.079c-0.017,-0.094 -0.069,-0.141 -0.154,-0.141c-0.02609,0.00045 -0.05201,0.00448 -0.077,0.012c-0.049,0.014 -0.103,0.04 -0.163,0.078c-0.093,0.06 -0.203,0.127 -0.33,0.2c-0.06678,0.03827 -0.13555,0.07299 -0.206,0.104c-0.075,0.034 -0.157,0.066 -0.244,0.096c-0.155,0.054 -0.337,0.084 -0.546,0.089c-0.02466,0.00066 -0.04933,0.001 -0.074,0.001c-0.547,0 -1.04,-0.08 -1.48,-0.24c-0.44,-0.16 -0.817,-0.39 -1.13,-0.69c-0.313,-0.3 -0.557,-0.66 -0.73,-1.08c-0.1325,-0.325 -0.21477,-0.66825 -0.244,-1.018c-0.01086,-0.1237 -0.0162,-0.24783 -0.016,-0.372v-5.4c-0.00034,-0.02667 0.00302,-0.05326 0.01,-0.079c0.017,-0.059 0.056,-0.097 0.116,-0.112c0.02418,-0.00611 0.04905,-0.00914 0.074,-0.009h1.4c0.02667,-0.00034 0.05326,0.00303 0.079,0.01c0.081,0.023 0.121,0.086 0.121,0.19v5.4c0,0.24 0.047,0.47 0.14,0.69c0.093,0.22 0.22,0.413 0.38,0.58c0.16,0.167 0.35,0.297 0.57,0.39c0.22,0.093 0.457,0.14 0.71,0.14c0.20974,0.00144 0.41814,-0.03341 0.616,-0.103c0.03169,-0.01141 0.06304,-0.02375 0.094,-0.037c0.22,-0.093 0.41,-0.223 0.57,-0.39c0.16,-0.167 0.287,-0.36 0.38,-0.58c0.093,-0.22 0.14,-0.45 0.14,-0.69v-5.4c-0.00034,-0.02667 0.00302,-0.05326 0.01,-0.079c0.023,-0.081 0.086,-0.121 0.19,-0.121h1.4c0.02667,-0.00034 0.05325,0.00303 0.079,0.01c0.081,0.023 0.121,0.086 0.121,0.19v9.9c0.003,0.36728 -0.03626,0.73369 -0.117,1.092c-0.14,0.598 -0.405,1.101 -0.795,1.509c-0.01255,0.01311 -0.02522,0.02611 -0.038,0.039c-0.633,0.64 -1.517,0.96 -2.65,0.96c-0.2364,0.00079 -0.4726,-0.01425 -0.707,-0.045c-0.19012,-0.02516 -0.37824,-0.06359 -0.563,-0.115c-0.291,-0.082 -0.537,-0.183 -0.738,-0.304c-0.05945,-0.03543 -0.11688,-0.07416 -0.172,-0.116c-0.268,-0.203 -0.489,-0.397 -0.664,-0.58c-0.07296,-0.07621 -0.14173,-0.15633 -0.206,-0.24c-0.164,-0.215 -0.259,-0.401 -0.283,-0.559c-0.00444,-0.02677 -0.00678,-0.05386 -0.007,-0.081c0,-0.051 0.037,-0.097 0.112,-0.136c0.00266,-0.00136 0.00532,-0.00269 0.008,-0.004z"/></g></g></svg>