<svg version="1.1" xmlns="http://www.w3.org/2000/svg" xmlns:xlink="http://www.w3.org/1999/xlink" width="423.16974" height="423.16974" viewBox="0,0,423.16974,423.16974"><defs><radialGradient cx="240.00004" cy="180" r="209.83487" gradientUnits="userSpaceOnUse" id="color-1"><stop offset="0" stop-color="#000000"/><stop offset="1" stop-color="#7400ff"/></radialGradient><radialGradient cx="240" cy="180" r="209.83487" gradientUnits="userSpaceOnUse" id="color-2"><stop offset="0" stop-color="#000000"/><stop offset="1" stop-color="#7400ff"/></radialGradient><radialGradient cx="240" cy="180" r="149.83014" gradientUnits="userSpaceOnUse" id="color-3"><stop offset="0" stop-color="#000000"/><stop offset="1" stop-color="#7400ff"/></radialGradient><radialGradient cx="240" cy="180" r="149.83014" gradientUnits="userSpaceOnUse" id="color-4"><stop offset="0" stop-color="#000000"/><stop offset="1" stop-color="#7400ff"/></radialGradient><radialGradient cx="240.00001" cy="180" r="194.19107" gradientUnits="userSpaceOnUse" id="color-5"><stop offset="0" stop-color="#000000"/><stop offset="1" stop-color="#7400ff"/></radialGradient><radialGradient cx="240" cy="180" r="194.19107" gradientUnits="userSpaceOnUse" id="color-6"><stop offset="0" stop-color="#000000"/><stop offset="1" stop-color="#7400ff"/></radialGradient><radialGradient cx="240.00001" cy="180" r="194.19107" gradientUnits="userSpaceOnUse" id="color-7"><stop offset="0" stop-color="#000000"/><stop offset="1" stop-color="#7400ff"/></radialGradient><radialGradient cx="240" cy="180" r="194.19107" gradientUnits="userSpaceOnUse" id="color-8"><stop offset="0" stop-color="#000000"/><stop offset="1" stop-color="#7400ff"/></radialGradient></defs><g transform="translate(-28.41513,31.58487)"><g data-paper-data="{&quot;isPaintingLayer&quot;:true}" fill="none" fill-rule="nonzero" stroke-width="3.5" stroke-linecap="butt" stroke-linejoin="miter" stroke-miterlimit="10" stroke-dasharray="" stroke-dashoffset="0" style="mix-blend-mode: normal"><path d="M210.73555,180c0,-115.88861 13.10216,-209.83487 29.26449,-209.83487c16.16232,0 29.26449,93.94626 29.26449,209.83487c0,115.88861 -13.10216,209.83487 -29.26449,209.83487c-16.16232,0 -29.26449,-93.94626 -29.26449,-209.83487z" stroke="url(#color-1)"/><path d="M240,150.73551c115.88861,0 209.83487,13.10216 209.83487,29.26449c0,16.16232 -93.94626,29.26449 -209.83487,29.26449c-115.88861,0 -209.83487,-13.10216 -209.83487,-29.26449c0,-16.16232 93.94626,-29.26449 209.83487,-29.26449z" stroke="url(#color-2)"/><path d="M219.3069,159.3069c81.9456,-81.9456 157.64026,-139.11102 169.06876,-127.68256c11.4285,11.4285 -45.73692,87.12316 -127.68256,169.06876c-81.9456,81.9456 -157.64026,139.11102 -169.06876,127.68256c-11.4285,-11.4285 45.73692,-87.12316 127.68256,-169.06876z" stroke="url(#color-3)"/><path d="M260.6931,159.3069c81.9456,81.9456 139.11102,157.64026 127.68256,169.06876c-11.4285,11.4285 -87.12316,-45.73692 -169.06876,-127.68256c-81.9456,-81.9456 -139.11102,-157.64026 -127.68256,-169.06876c11.4285,-11.4285 87.12316,45.73692 169.06876,127.68256z" stroke="url(#color-4)"/><path d="M228.80097,152.96314c107.0671,-44.34865 198.87611,-68.19553 205.06117,-53.26346c6.18506,14.93203 -75.59599,62.98853 -182.6631,107.33718c-107.0671,44.34865 -198.87611,68.19553 -205.06117,53.26346c-6.18506,-14.93203 75.59599,-62.98853 182.6631,-107.33718z" stroke="url(#color-5)"/><path d="M267.03686,168.80096c44.34865,107.0671 68.19553,198.87611 53.26346,205.06117c-14.93203,6.18506 -62.98853,-75.59599 -107.33718,-182.6631c-44.34865,-107.0671 -68.19553,-198.87611 -53.26346,-205.06117c14.93203,-6.18506 62.98853,75.59599 107.33718,182.6631z" stroke="url(#color-6)"/><path d="M251.19904,152.96314c107.0671,44.34865 188.84816,92.40515 182.6631,107.33718c-6.18506,14.93203 -97.99406,-8.91481 -205.06117,-53.26346c-107.0671,-44.34865 -188.84816,-92.40515 -182.6631,-107.33718c6.18506,-14.93203 97.99406,8.91481 205.06117,53.26346z" stroke="url(#color-7)"/><path d="M267.03686,191.19904c-44.34865,107.0671 -92.40515,188.84816 -107.33718,182.6631c-14.93203,-6.18506 8.91481,-97.99406 53.26346,-205.06117c44.34865,-107.0671 92.40515,-188.84816 107.33718,-182.6631c14.93203,6.18506 -8.91481,97.99406 -53.26346,205.06117z" stroke="url(#color-8)"/></g></g></svg>