<svg version="1.1" xmlns="http://www.w3.org/2000/svg" xmlns:xlink="http://www.w3.org/1999/xlink" width="104.46698" height="19.60984" viewBox="0,0,104.46698,19.60984"><g transform="translate(-187.76651,-170.19508)"><g data-paper-data="{&quot;isPaintingLayer&quot;:true}" fill-rule="nonzero" stroke="none" stroke-linecap="butt" stroke-linejoin="miter" stroke-miterlimit="10" stroke-dasharray="" stroke-dashoffset="0" style="mix-blend-mode: normal"><path d="M187.76651,189.80492c0,0 0,-0.5188 0,-1.15876v-17.29231c0,-0.63997 0,-1.15876 0,-1.15876h104.46698c0,0 0,0.5188 0,1.15876v17.29231c0,0.63997 0,1.15876 0,1.15876z" fill="#1a1a1a" stroke-width="0.052"/><path d="M208.34283,184.07263l-3.08746,-5.6716v5.14372c0,0.12685 0.02864,0.22302 0.08593,0.28849c0.05729,0.06547 0.15959,0.11866 0.3069,0.15959v0.19642h-2.46137v-0.19642c0.14731,-0.04093 0.24962,-0.09413 0.3069,-0.15959c0.05729,-0.06547 0.08593,-0.16163 0.08593,-0.28849v-7.09563c0,-0.12276 -0.02864,-0.21688 -0.08593,-0.28235c-0.05729,-0.06547 -0.15959,-0.11866 -0.3069,-0.15959v-0.19642h3.22863v0.19642c-0.19233,0.04913 -0.28849,0.16167 -0.28849,0.3376c0,0.08184 0.02864,0.17596 0.08593,0.28235l2.28337,4.21072l2.31406,-4.13707c0.1023,-0.18823 0.15345,-0.32532 0.15345,-0.41125c0,-0.16777 -0.1023,-0.26189 -0.30691,-0.28235v-0.19642h3.16725v0.19642c-0.14731,0.04093 -0.24962,0.09413 -0.30691,0.15959c-0.05729,0.06547 -0.08593,0.15958 -0.08593,0.28235v7.09563c0,0.12685 0.02864,0.22302 0.08593,0.28849c0.05729,0.06547 0.15959,0.11866 0.30691,0.15959v0.19642h-2.61482v-0.19642c0.14322,-0.0368 0.24348,-0.08795 0.30077,-0.15345c0.06138,-0.06957 0.09207,-0.16778 0.09207,-0.29463v-5.14372zM220.39189,182.47059h-3.16111l-0.35601,0.74884c-0.08593,0.18005 -0.1289,0.32123 -0.1289,0.42353c0,0.19642 0.13095,0.32123 0.39284,0.37442v0.17187h-2.52889v-0.17187c0.1555,-0.02453 0.27008,-0.07159 0.34373,-0.14117c0.07775,-0.06957 0.16777,-0.20665 0.27007,-0.41125l2.51048,-5.08234c0.09412,-0.19233 0.14118,-0.3601 0.14118,-0.50332c0,-0.16777 -0.11458,-0.29872 -0.34373,-0.39284v-0.17187h2.67007v0.17187c-0.22506,0.09003 -0.3376,0.22916 -0.3376,0.41739c0,0.13504 0.05115,0.30077 0.15345,0.49718l2.60255,4.92889c0.14322,0.27007 0.25575,0.44603 0.33759,0.52787c0.08184,0.07775 0.20665,0.133 0.37442,0.16573v0.16573h-2.8051v-0.16573c0.26598,-0.045 0.39898,-0.16981 0.39898,-0.37442c0,-0.12685 -0.05115,-0.2844 -0.15345,-0.47263zM219.8947,181.50691l-1.12327,-2.20358l-1.06803,2.20358zM225.94072,177.94068v5.62248c0,0.12686 0.02864,0.22507 0.08593,0.29463c0.05729,0.06547 0.15959,0.12071 0.3069,0.16573v0.16573h-2.43068v-0.17187c0.14322,-0.0368 0.24348,-0.09 0.30077,-0.15959c0.06138,-0.06956 0.09207,-0.16777 0.09207,-0.29463v-5.62248c0,-0.12685 -0.02864,-0.22302 -0.08593,-0.28849c-0.05729,-0.06547 -0.15959,-0.12071 -0.30691,-0.16573v-0.17187h2.43068v0.17187c-0.14731,0.04093 -0.24962,0.09618 -0.3069,0.16573c-0.05729,0.06547 -0.08593,0.16163 -0.08593,0.28849zM229.43329,179.65934v3.90382c0,0.12686 0.02864,0.22507 0.08593,0.29463c0.06138,0.06957 0.16368,0.12481 0.3069,0.16573v0.16573h-2.28337v-0.17187c0.14322,-0.0368 0.24348,-0.09 0.30077,-0.15959c0.06138,-0.06956 0.09207,-0.16777 0.09207,-0.29463v-5.62248c0,-0.12685 -0.02864,-0.22302 -0.08593,-0.28849c-0.05729,-0.06547 -0.15959,-0.12071 -0.3069,-0.16573v-0.17187h2.63938v0.17187c-0.18005,0.045 -0.27008,0.1248 -0.27008,0.23939c0,0.09821 0.06547,0.21278 0.19642,0.34373l3.68285,3.6583v-3.7872c0,-0.12685 -0.02864,-0.22302 -0.08593,-0.28849c-0.05729,-0.06957 -0.15959,-0.12481 -0.3069,-0.16573v-0.17187h2.28337v0.17187c-0.14731,0.04093 -0.24961,0.09618 -0.3069,0.16573c-0.05727,0.06547 -0.0859,0.16163 -0.0859,0.28849v5.62248c0,0.12686 0.02863,0.22507 0.0859,0.29463c0.05727,0.06547 0.15957,0.12071 0.3069,0.16573v0.16573h-2.46137v-0.16573c0.18005,-0.0368 0.27008,-0.1125 0.27008,-0.22711c0,-0.05727 -0.02455,-0.1166 -0.07366,-0.178c-0.04911,-0.0614 -0.16164,-0.18212 -0.33759,-0.36215zM245.34321,184.07263l-3.08746,-5.6716v5.14372c0,0.12685 0.02863,0.22302 0.0859,0.28849c0.05727,0.06547 0.15957,0.11866 0.30691,0.15959v0.19642h-2.46137v-0.19642c0.14731,-0.04093 0.24961,-0.09413 0.3069,-0.15959c0.05727,-0.06547 0.0859,-0.16163 0.0859,-0.28849v-7.09563c0,-0.12276 -0.02863,-0.21688 -0.0859,-0.28235c-0.05727,-0.06547 -0.15957,-0.11866 -0.3069,-0.15959v-0.19642h3.22863v0.19642c-0.19233,0.04913 -0.28849,0.16167 -0.28849,0.3376c0,0.08184 0.02863,0.17596 0.0859,0.28235l2.28337,4.21072l2.31406,-4.13707c0.1023,-0.18823 0.15345,-0.32532 0.15345,-0.41125c0,-0.16777 -0.1023,-0.26189 -0.3069,-0.28235v-0.19642h3.16725v0.19642c-0.14731,0.04093 -0.24962,0.09413 -0.30691,0.15959c-0.05727,0.06547 -0.0859,0.15958 -0.0859,0.28235v7.09563c0,0.12685 0.02863,0.22302 0.0859,0.28849c0.05727,0.06547 0.15957,0.11866 0.30691,0.15959v0.19642h-2.61483v-0.19642c0.14323,-0.0368 0.24348,-0.08795 0.30077,-0.15345c0.0614,-0.06957 0.0921,-0.16778 0.0921,-0.29463v-5.14372zM254.21888,181.26752v1.6757h4.36418c0.12685,0 0.22302,-0.02863 0.28849,-0.0859c0.06957,-0.05727 0.12481,-0.16161 0.16573,-0.31304h0.17187v2.03785h-0.17187c-0.0368,-0.14323 -0.09,-0.24553 -0.15959,-0.30691c-0.06957,-0.05727 -0.16778,-0.0859 -0.29463,-0.0859h-6.40202v-0.17187c0.14322,-0.0368 0.24347,-0.09 0.30076,-0.15959c0.0614,-0.06956 0.0921,-0.16777 0.0921,-0.29463v-5.62248c0,-0.12685 -0.02863,-0.22302 -0.0859,-0.28849c-0.05727,-0.06547 -0.15957,-0.12071 -0.3069,-0.16573v-0.17187h6.21174c0.13095,0 0.22916,-0.02863 0.29463,-0.0859c0.06957,-0.05727 0.12481,-0.15957 0.16573,-0.3069h0.16572v2.03784h-0.16572c-0.04093,-0.15141 -0.09618,-0.25575 -0.16573,-0.31304c-0.06547,-0.05727 -0.16368,-0.0859 -0.29463,-0.0859h-4.1739v1.50997h2.59027c0.12685,0 0.22302,-0.02863 0.28849,-0.0859c0.06957,-0.05727 0.12686,-0.15957 0.17187,-0.3069h0.16573v1.98874h-0.16573c-0.04093,-0.14731 -0.09618,-0.24962 -0.16573,-0.30691c-0.06547,-0.0614 -0.16368,-0.0921 -0.29463,-0.0921zM262.13701,179.65934v3.90382c0,0.12686 0.02863,0.22507 0.0859,0.29463c0.0614,0.06957 0.1637,0.12481 0.3069,0.16573v0.16573h-2.28337v-0.17187c0.14323,-0.0368 0.24348,-0.09 0.30077,-0.15959c0.0614,-0.06956 0.0921,-0.16777 0.0921,-0.29463v-5.62248c0,-0.12685 -0.02863,-0.22302 -0.0859,-0.28849c-0.05727,-0.06547 -0.15957,-0.12071 -0.30691,-0.16573v-0.17187h2.63938v0.17187c-0.18005,0.045 -0.27008,0.1248 -0.27008,0.23939c0,0.09821 0.06547,0.21278 0.19642,0.34373l3.68285,3.6583v-3.7872c0,-0.12685 -0.02863,-0.22302 -0.0859,-0.28849c-0.05727,-0.06957 -0.15957,-0.12481 -0.3069,-0.16573v-0.17187h2.28336v0.17187c-0.14731,0.04093 -0.24961,0.09618 -0.3069,0.16573c-0.05727,0.06547 -0.0859,0.16163 -0.0859,0.28849v5.62248c0,0.12686 0.02863,0.22507 0.0859,0.29463c0.05727,0.06547 0.15957,0.12071 0.3069,0.16573v0.16573h-2.46137v-0.16573c0.18005,-0.0368 0.27008,-0.1125 0.27008,-0.22711c0,-0.05727 -0.02457,-0.1166 -0.0737,-0.178c-0.04913,-0.0614 -0.16166,-0.18212 -0.33759,-0.36215zM276.80703,177.94068v3.63988c0,0.83069 -0.16368,1.4404 -0.49104,1.82915c-0.52788,0.6179 -1.52225,0.92685 -2.98311,0.92685c-0.97801,0 -1.76777,-0.14936 -2.3693,-0.44808c-0.43376,-0.21688 -0.73044,-0.52583 -0.89003,-0.92685c-0.14731,-0.36829 -0.22097,-0.82864 -0.22097,-1.38107v-3.63988c0,-0.12685 -0.02863,-0.22302 -0.0859,-0.28849c-0.05727,-0.06547 -0.15957,-0.12071 -0.3069,-0.16573v-0.17187h2.43682v0.17187c-0.15141,0.04093 -0.25576,0.09618 -0.31305,0.16573c-0.05727,0.06547 -0.0859,0.16163 -0.0859,0.28849v3.30843c0,0.38465 0.03273,0.67928 0.0982,0.88388c0.06957,0.20461 0.18824,0.37238 0.35601,0.50332c0.33555,0.26599 0.82045,0.39898 1.45472,0.39898c0.63427,0 1.11918,-0.13299 1.45473,-0.39898c0.16368,-0.13094 0.27826,-0.29871 0.34373,-0.50332c0.06547,-0.2046 0.0982,-0.49923 0.0982,-0.88388v-3.30843c0,-0.12685 -0.02863,-0.22302 -0.0859,-0.28849c-0.0532,-0.06547 -0.1555,-0.12071 -0.3069,-0.16573v-0.17187h2.2895v0.17187c-0.14731,0.04093 -0.24961,0.09618 -0.3069,0.16573c-0.05727,0.06547 -0.0859,0.16163 -0.0859,0.28849z" fill="#f9f9f9" stroke-width="0.052"/></g></g></svg>