<svg version="1.1" xmlns="http://www.w3.org/2000/svg" xmlns:xlink="http://www.w3.org/1999/xlink" width="12.94" height="12.64003" viewBox="0,0,12.94,12.64003"><g transform="translate(-324.24852,-167.38474)"><g data-paper-data="{&quot;isPaintingLayer&quot;:true}" fill="#000000" fill-rule="evenodd" stroke="#000000" stroke-width="0" stroke-linecap="round" stroke-linejoin="miter" stroke-miterlimit="10" stroke-dasharray="" stroke-dashoffset="0" style="mix-blend-mode: normal"><path d="M337.16853,167.66475l-2.58,12.2c-0.00617,0.02605 -0.01629,0.05101 -0.03,0.074c-0.03,0.049 -0.076,0.077 -0.137,0.084c-0.01095,0.00131 -0.02197,0.00197 -0.033,0.002h-1.14c-0.02384,0.00012 -0.04764,-0.00222 -0.071,-0.007c-0.072,-0.015 -0.114,-0.055 -0.127,-0.122c-0.00077,-0.00365 -0.00143,-0.00732 -0.002,-0.011l-2.3,-8.86l-2.36,8.86c-0.00308,0.0266 -0.0127,0.05202 -0.028,0.074c-0.029,0.039 -0.077,0.061 -0.145,0.065c-0.00898,0.00063 -0.01799,0.00096 -0.027,0.001h-1.14c-0.02754,0.00037 -0.05495,-0.00403 -0.081,-0.013c-0.046,-0.016 -0.08,-0.049 -0.102,-0.098c-0.00712,-0.01579 -0.01281,-0.03219 -0.017,-0.049l-2.58,-12.2c0,-0.012 -0.003,-0.024 -0.008,-0.036c-0.00064,-0.00134 -0.0013,-0.00268 -0.002,-0.004c-0.007,-0.013 -0.01,-0.027 -0.01,-0.04c0,-0.091 0.053,-0.143 0.16,-0.157c0.01992,-0.00224 0.03996,-0.00324 0.06,-0.003h1.46c0.02754,-0.00037 0.05495,0.00403 0.081,0.013c0.046,0.016 0.08,0.049 0.102,0.098c0.00712,0.01579 0.01281,0.03219 0.017,0.049l1.74,9.22l2.34,-9.28c0.00308,-0.0266 0.01269,-0.05202 0.028,-0.074c0.029,-0.039 0.077,-0.061 0.145,-0.065c0.00898,-0.00063 0.01799,-0.00096 0.027,-0.001h0.62c0.02384,-0.00012 0.04764,0.00222 0.071,0.007c0.076,0.016 0.119,0.06 0.129,0.133l2.38,9.28l1.7,-9.22c0.024,-0.095 0.079,-0.148 0.166,-0.158c0.01128,-0.00134 0.02263,-0.00201 0.034,-0.002h1.46c0.147,0 0.22,0.053 0.22,0.16c-0.00005,0.00849 -0.0014,0.01692 -0.004,0.025c-0.00162,0.00514 -0.00363,0.01015 -0.006,0.015c-0.00477,0.00938 -0.00782,0.01954 -0.009,0.03c-0.00054,0.00331 -0.00087,0.00665 -0.001,0.01z"/></g></g></svg>