<svg version="1.1" xmlns="http://www.w3.org/2000/svg" xmlns:xlink="http://www.w3.org/1999/xlink" width="2.20019" height="12.80014" viewBox="0,0,2.20019,12.80014"><g transform="translate(-199.70753,-167.15467)"><g data-paper-data="{&quot;isPaintingLayer&quot;:true}" fill="#000000" fill-rule="evenodd" stroke="#000000" stroke-width="0" stroke-linecap="round" stroke-linejoin="miter" stroke-miterlimit="10" stroke-dasharray="" stroke-dashoffset="0" style="mix-blend-mode: normal"><path d="M201.50762,179.95476h-1.4c-0.02667,0.00034 -0.05326,-0.00302 -0.079,-0.01c-0.059,-0.017 -0.097,-0.055 -0.112,-0.116c-0.00611,-0.02418 -0.00914,-0.04905 -0.009,-0.074v-8.6c-0.00034,-0.02667 0.00302,-0.05326 0.01,-0.079c0.023,-0.081 0.086,-0.121 0.19,-0.121h1.4c0.02667,-0.00034 0.05326,0.00303 0.079,0.01c0.081,0.023 0.121,0.086 0.121,0.19v8.6c0.00034,0.02667 -0.00302,0.05326 -0.01,0.079c-0.017,0.059 -0.055,0.097 -0.116,0.113c-0.02423,0.00578 -0.04909,0.00847 -0.074,0.008zM201.79562,168.75076c0.07599,-0.15417 0.11437,-0.32414 0.112,-0.496c0.00002,-0.00466 0.00002,-0.00934 0,-0.014c0.00191,-0.28822 -0.11363,-0.56479 -0.32,-0.766c-0.08319,-0.08422 -0.17943,-0.15445 -0.285,-0.208c-0.15386,-0.07584 -0.32348,-0.11421 -0.495,-0.112c-0.00466,-0.00002 -0.00933,-0.00002 -0.014,0c-0.28822,-0.00191 -0.56479,0.11362 -0.766,0.32c-0.08422,0.08319 -0.15446,0.17943 -0.208,0.285c-0.07584,0.15386 -0.11421,0.32348 -0.112,0.495c0.00012,0.02235 0.0008,0.04469 0.002,0.067c0.00669,0.27346 0.12096,0.53326 0.318,0.723c0.213,0.207 0.473,0.31 0.78,0.31c0.00466,0.00002 0.00934,0.00002 0.014,0c0.28822,0.00191 0.56479,-0.11362 0.766,-0.32c0.08413,-0.08289 0.15436,-0.17878 0.208,-0.284z"/></g></g></svg>