<svg version="1.1" xmlns="http://www.w3.org/2000/svg" xmlns:xlink="http://www.w3.org/1999/xlink" width="7.90006" height="9.00004" viewBox="0,0,7.90006,9.00004"><g transform="translate(-324.12756,-170.95476)"><g data-paper-data="{&quot;isPaintingLayer&quot;:true}" fill="#000000" fill-rule="evenodd" stroke="#000000" stroke-width="0" stroke-linecap="round" stroke-linejoin="miter" stroke-miterlimit="10" stroke-dasharray="" stroke-dashoffset="0" style="mix-blend-mode: normal"><path d="M331.82762,179.95476h-1.64l-0.18,-0.1l-1.76,-2.84c-0.01345,-0.01869 -0.0278,-0.03671 -0.043,-0.054c-0.05,-0.057 -0.095,-0.086 -0.137,-0.086c-0.053,0 -0.113,0.047 -0.18,0.14l-1.76,2.84l-0.18,0.1h-1.6c-0.02646,0.00035 -0.0529,-0.00166 -0.079,-0.006c-0.094,-0.017 -0.141,-0.068 -0.141,-0.154c0.00034,-0.0078 0.00169,-0.01553 0.004,-0.023c0.007,-0.027 0.026,-0.066 0.056,-0.117l2.66,-4.1c0.00474,-0.01364 0.00941,-0.02731 0.014,-0.041c0.015,-0.048 0.023,-0.079 0.026,-0.093c0.00014,-0.00199 0.00014,-0.00401 0,-0.006c0.00026,-0.01807 -0.00279,-0.03603 -0.009,-0.053c-0.00686,-0.0177 -0.01743,-0.03373 -0.031,-0.047l-2.66,-4.06c-0.01049,-0.01376 -0.02018,-0.02812 -0.029,-0.043c-0.019,-0.033 -0.029,-0.062 -0.031,-0.089c-0.00009,-0.00267 -0.00009,-0.00534 0,-0.008c0,-0.107 0.073,-0.16 0.22,-0.16h1.62l0.16,0.1l1.78,2.86c0.01032,0.01581 0.02133,0.03116 0.033,0.046c0.039,0.048 0.073,0.072 0.104,0.074c0.001,0.00002 0.002,0.00002 0.003,0c0.01285,-0.00023 0.02549,-0.00331 0.037,-0.009c0.034,-0.017 0.075,-0.053 0.123,-0.111l1.8,-2.86l0.16,-0.1h1.66c0.0245,-0.00011 0.04896,0.00224 0.073,0.007c0.085,0.017 0.127,0.068 0.127,0.153c0,0.057 -0.01,0.099 -0.029,0.127c-0.00329,0.00465 -0.00697,0.00899 -0.011,0.013l-2.68,4.08v0.2l2.68,4.12c0.00833,0.01689 0.01568,0.03426 0.022,0.052c0.007,0.017 0.011,0.033 0.014,0.049c0.00253,0.01285 0.00387,0.0259 0.004,0.039c0,0.107 -0.067,0.16 -0.2,0.16z"/></g></g></svg>