<svg version="1.1" xmlns="http://www.w3.org/2000/svg" xmlns:xlink="http://www.w3.org/1999/xlink" width="7.20004" height="9.40001" viewBox="0,0,7.20004,9.40001"><g transform="translate(-245.60761,-170.75475)"><g data-paper-data="{&quot;isPaintingLayer&quot;:true}" fill="#000000" fill-rule="evenodd" stroke="#000000" stroke-width="0" stroke-linecap="round" stroke-linejoin="miter" stroke-miterlimit="10" stroke-dasharray="" stroke-dashoffset="0" style="mix-blend-mode: normal"><path d="M245.60762,176.75476v-2.6c0,-0.507 0.087,-0.97 0.26,-1.39c0.16474,-0.4073 0.41348,-0.7753 0.73,-1.08c0.28108,-0.2671 0.60931,-0.4797 0.968,-0.627c0.05349,-0.02228 0.10751,-0.04328 0.162,-0.063c0.28705,-0.10273 0.58504,-0.17186 0.888,-0.206c0.19649,-0.02294 0.39417,-0.0343 0.592,-0.034c0.547,0 1.04,0.083 1.48,0.25c0.29755,0.11099 0.57823,0.26277 0.834,0.451c0.10377,0.07674 0.20263,0.1599 0.296,0.249c0.313,0.3 0.557,0.657 0.73,1.07c0.1269,0.30705 0.20745,0.63126 0.239,0.962c0.01407,0.13889 0.02108,0.2784 0.021,0.418v2.6c0.00134,0.29541 -0.03121,0.59 -0.097,0.878c-0.04033,0.17481 -0.09485,0.34605 -0.163,0.512c-0.173,0.42 -0.417,0.78 -0.73,1.08c-0.28108,0.2671 -0.60932,0.4797 -0.968,0.627c-0.05349,0.02228 -0.10751,0.04328 -0.162,0.063c-0.44,0.16 -0.933,0.24 -1.48,0.24c-0.547,0 -1.04,-0.08 -1.48,-0.24c-0.44,-0.16 -0.817,-0.39 -1.13,-0.69c-0.313,-0.3 -0.557,-0.66 -0.73,-1.08c-0.1325,-0.325 -0.21477,-0.66825 -0.244,-1.018c-0.01086,-0.1237 -0.0162,-0.24782 -0.016,-0.372zM251.00762,176.75476v-2.6c0.00689,-0.47453 -0.17936,-0.93149 -0.516,-1.266c-0.00133,-0.00134 -0.00267,-0.00267 -0.004,-0.004c-0.32478,-0.33928 -0.77432,-0.53081 -1.244,-0.53c-0.012,-0.0001 -0.024,-0.0001 -0.036,0c-0.26157,-0.00304 -0.52064,0.05123 -0.759,0.159c-0.19488,0.09079 -0.37147,0.21654 -0.521,0.371c-0.3376,0.33336 -0.52528,0.78958 -0.52,1.264c0,0.002 0,0.004 0,0.006v2.6c0,0.24 0.047,0.47 0.14,0.69c0.093,0.22 0.22,0.413 0.38,0.58c0.16,0.167 0.35,0.297 0.57,0.39c0.22,0.093 0.457,0.14 0.71,0.14c0.507,0 0.933,-0.177 1.28,-0.53c0.347,-0.353 0.52,-0.777 0.52,-1.27z"/></g></g></svg>