<svg version="1.1" xmlns="http://www.w3.org/2000/svg" xmlns:xlink="http://www.w3.org/1999/xlink" width="6.94002" height="9.40007" viewBox="0,0,6.94002,9.40007"><g transform="translate(-148.50761,-170.75469)"><g data-paper-data="{&quot;isPaintingLayer&quot;:true}" fill="#000000" fill-rule="evenodd" stroke="#000000" stroke-width="0" stroke-linecap="round" stroke-linejoin="miter" stroke-miterlimit="10" stroke-dasharray="" stroke-dashoffset="0" style="mix-blend-mode: normal"><path d="M148.50762,176.75476v-2.6c0,-0.507 0.087,-0.97 0.26,-1.39c0.16474,-0.4073 0.41348,-0.7753 0.73,-1.08c0.28108,-0.2671 0.60931,-0.4797 0.968,-0.627c0.05349,-0.02228 0.10751,-0.04328 0.162,-0.063c0.28705,-0.10273 0.58504,-0.17186 0.888,-0.206c0.19649,-0.02294 0.39417,-0.0343 0.592,-0.034c0.41845,-0.00236 0.83506,0.05556 1.237,0.172c0.15768,0.04631 0.31231,0.10243 0.463,0.168c0.18821,0.08384 0.37032,0.18075 0.545,0.29c0.273,0.172 0.494,0.362 0.665,0.57c0.215,0.262 0.345,0.486 0.391,0.674c0.01218,0.04773 0.01856,0.09674 0.019,0.146c0,0.04374 -0.01897,0.08533 -0.052,0.114c-0.014,0.014 -0.031,0.026 -0.052,0.038c-0.00527,0.00279 -0.01061,0.00546 -0.016,0.008l-1.28,0.64c-0.023,0.012 -0.051,0.018 -0.084,0.02c-0.00534,0.00012 -0.01067,0.00012 -0.016,0c-0.01735,-0.00025 -0.03443,-0.00434 -0.05,-0.012c-0.029,-0.013 -0.058,-0.039 -0.088,-0.077c-0.0077,-0.01007 -0.01504,-0.02041 -0.022,-0.031c-0.09194,-0.12833 -0.18832,-0.2534 -0.289,-0.375c-0.1,-0.12 -0.199,-0.229 -0.297,-0.326c-0.0372,-0.03716 -0.07521,-0.07351 -0.114,-0.109c-0.227,-0.207 -0.547,-0.31 -0.96,-0.31c-0.20973,-0.00144 -0.41814,0.03341 -0.616,0.103c-0.03169,0.01141 -0.06304,0.02375 -0.094,0.037c-0.22,0.093 -0.41,0.223 -0.57,0.39c-0.16,0.167 -0.287,0.36 -0.38,0.58c-0.093,0.22 -0.14,0.45 -0.14,0.69v2.6c0,0.24 0.047,0.47 0.14,0.69c0.093,0.22 0.22,0.413 0.38,0.58c0.16,0.167 0.35,0.297 0.57,0.39c0.22,0.093 0.457,0.14 0.71,0.14c0.12523,0.00056 0.25019,-0.01149 0.373,-0.036c0.09481,-0.01909 0.18756,-0.04722 0.277,-0.084c0.08005,-0.03248 0.15674,-0.07267 0.229,-0.12c0.0836,-0.0548 0.15816,-0.12227 0.221,-0.2c0.174,-0.204 0.31,-0.373 0.409,-0.507c0.02775,-0.03713 0.05475,-0.0748 0.081,-0.113c0.01866,-0.02739 0.03835,-0.05408 0.059,-0.08c0.065,-0.081 0.121,-0.127 0.17,-0.138c0.00691,-0.00141 0.01395,-0.00208 0.021,-0.002c0.00842,0.00012 0.0168,0.00113 0.025,0.003c0.025,0.005 0.056,0.018 0.095,0.037l1.26,0.64c0.01737,0.00841 0.03408,0.0181 0.05,0.029c0.038,0.027 0.06,0.057 0.068,0.089c0.00145,0.00724 0.00213,0.01462 0.002,0.022c-0.00069,0.01864 -0.00371,0.03711 -0.009,0.055c-0.016,0.062 -0.056,0.153 -0.117,0.275c-0.02082,0.04027 -0.04215,0.08028 -0.064,0.12c-0.05016,0.0913 -0.10733,0.17856 -0.171,0.261c-0.066,0.085 -0.141,0.173 -0.227,0.263c-0.08106,0.08496 -0.16512,0.16701 -0.252,0.246c-0.6,0.56 -1.433,0.84 -2.5,0.84c-0.547,0 -1.04,-0.08 -1.48,-0.24c-0.44,-0.16 -0.817,-0.39 -1.13,-0.69c-0.313,-0.3 -0.557,-0.66 -0.73,-1.08c-0.1325,-0.325 -0.21477,-0.66825 -0.244,-1.018c-0.01086,-0.1237 -0.0162,-0.24782 -0.016,-0.372z"/></g></g></svg>