<svg version="1.1" xmlns="http://www.w3.org/2000/svg" xmlns:xlink="http://www.w3.org/1999/xlink" width="13.22005" height="12.80014" viewBox="0,0,13.22005,12.80014"><g transform="translate(-400.26316,-166.80445)"><g data-paper-data="{&quot;isPaintingLayer&quot;:true}" fill="#000000" fill-rule="evenodd" stroke="#000000" stroke-width="0" stroke-linecap="round" stroke-linejoin="miter" stroke-miterlimit="10" stroke-dasharray="" stroke-dashoffset="0" style="mix-blend-mode: normal"><path d="M413.28318,179.60455h-1.4c-0.106,0 -0.17,-0.042 -0.191,-0.126c-0.00612,-0.02419 -0.00914,-0.04905 -0.009,-0.074v-10.6c0.00034,-0.02667 -0.00302,-0.05326 -0.01,-0.079c-0.017,-0.059 -0.056,-0.097 -0.116,-0.112c-0.02419,-0.00612 -0.04905,-0.00914 -0.074,-0.009h-1.46c-0.47453,-0.00688 -0.93148,0.17936 -1.266,0.516c-0.00134,0.00133 -0.00267,0.00266 -0.004,0.004c-0.353,0.347 -0.53,0.773 -0.53,1.28v0.9c-0.00034,0.02667 0.00302,0.05326 0.01,0.079c0.023,0.081 0.086,0.121 0.19,0.121h1.4c0.106,0 0.17,0.042 0.191,0.126c0.00612,0.02419 0.00914,0.04905 0.009,0.074v1.2c0.00034,0.02667 -0.00302,0.05326 -0.01,0.079c-0.023,0.081 -0.086,0.121 -0.19,0.121h-1.4c-0.02667,-0.00034 -0.05326,0.00302 -0.079,0.01c-0.081,0.023 -0.121,0.086 -0.121,0.19v6.1c0.00034,0.02667 -0.00302,0.05326 -0.01,0.079c-0.023,0.081 -0.086,0.121 -0.19,0.121h-1.4c-0.02667,0.00034 -0.05326,-0.00302 -0.079,-0.01c-0.059,-0.017 -0.097,-0.056 -0.112,-0.116c-0.00612,-0.02419 -0.00914,-0.04905 -0.009,-0.074v-6.1c0.00034,-0.02667 -0.00302,-0.05326 -0.01,-0.079c-0.023,-0.081 -0.086,-0.121 -0.19,-0.121h-3.06c-0.02667,-0.00034 -0.05326,0.00302 -0.079,0.01c-0.081,0.023 -0.121,0.086 -0.121,0.19v6.1c0.00034,0.02667 -0.00302,0.05326 -0.01,0.079c-0.017,0.059 -0.056,0.097 -0.116,0.113c-0.02423,0.00578 -0.04909,0.00847 -0.074,0.008h-1.4c-0.02667,0.00034 -0.05326,-0.00302 -0.079,-0.01c-0.059,-0.017 -0.097,-0.056 -0.112,-0.116c-0.00612,-0.02419 -0.00914,-0.04905 -0.009,-0.074v-6.1c0.00034,-0.02667 -0.00302,-0.05326 -0.01,-0.079c-0.023,-0.081 -0.086,-0.121 -0.19,-0.121h-0.5c-0.02667,0.00034 -0.05326,-0.00302 -0.079,-0.01c-0.081,-0.023 -0.121,-0.086 -0.121,-0.19v-1.2c-0.00034,-0.02667 0.00302,-0.05326 0.01,-0.079c0.017,-0.059 0.056,-0.097 0.116,-0.112c0.02419,-0.00612 0.04905,-0.00914 0.074,-0.009h0.5c0.02667,0.00034 0.05326,-0.00302 0.079,-0.01c0.081,-0.023 0.121,-0.086 0.121,-0.19v-0.9c-0.00255,-0.41953 0.06748,-0.83634 0.207,-1.232c0.0225,-0.06336 0.04684,-0.12606 0.073,-0.188c0.17936,-0.42931 0.44482,-0.8173 0.78,-1.14c0.3045,-0.29 0.65664,-0.52544 1.041,-0.696c0.04925,-0.02228 0.09893,-0.04362 0.149,-0.064c0.34206,-0.13699 0.70211,-0.22388 1.069,-0.258c0.15321,-0.0149 0.30707,-0.02224 0.461,-0.022c0.29704,-0.00205 0.59334,0.03017 0.883,0.096c0.34924,0.07923 0.68059,0.22303 0.977,0.424c0.198,0.132 0.357,0.243 0.478,0.335c0.0242,0.01807 0.0482,0.0364 0.072,0.055c0.127,0.1 0.203,0.15 0.23,0.15c0.053,0 0.143,-0.043 0.27,-0.13c0.04969,-0.03397 0.10004,-0.06697 0.151,-0.099c0.049,-0.03 0.102,-0.063 0.158,-0.096c0.05998,-0.03561 0.12031,-0.07061 0.181,-0.105c0.2,-0.113 0.44,-0.213 0.72,-0.3c0.28,-0.087 0.6,-0.13 0.96,-0.13h3.26c0.02667,-0.00034 0.05326,0.00302 0.079,0.01c0.059,0.017 0.097,0.056 0.112,0.116c0.00612,0.02419 0.00914,0.04905 0.009,0.074v12.2c0.00034,0.02667 -0.00302,0.05326 -0.01,0.079c-0.017,0.059 -0.056,0.097 -0.116,0.113c-0.02423,0.00578 -0.04909,0.00847 -0.074,0.008zM406.54318,169.54455v-0.16c-0.15323,-0.19077 -0.32693,-0.36414 -0.518,-0.517c-0.392,-0.309 -0.813,-0.463 -1.262,-0.463c-0.26157,-0.00303 -0.52064,0.05124 -0.759,0.159c-0.19488,0.09079 -0.37146,0.21653 -0.521,0.371c-0.3376,0.33336 -0.52528,0.78958 -0.52,1.264c0,0.002 0,0.004 0,0.006v1.1c-0.00034,0.02667 0.00302,0.05326 0.01,0.079c0.017,0.059 0.056,0.097 0.116,0.113c0.02423,0.00578 0.04909,0.00847 0.074,0.008h3.06c0.02667,0.00034 0.05326,-0.00302 0.079,-0.01c0.081,-0.023 0.121,-0.086 0.121,-0.19v-0.7c-0.00007,-0.15546 0.00494,-0.31087 0.015,-0.466c0.00152,-0.02468 0.00319,-0.04934 0.005,-0.074c0.013,-0.173 0.046,-0.347 0.1,-0.52z"/></g></g></svg>