<svg version="1.1" xmlns="http://www.w3.org/2000/svg" xmlns:xlink="http://www.w3.org/1999/xlink" width="7.20005" height="9.0001" viewBox="0,0,7.20005,9.0001"><g transform="translate(-236.4876,-170.95471)"><g data-paper-data="{&quot;isPaintingLayer&quot;:true}" fill="#000000" fill-rule="evenodd" stroke="#000000" stroke-width="0" stroke-linecap="round" stroke-linejoin="miter" stroke-miterlimit="10" stroke-dasharray="" stroke-dashoffset="0" style="mix-blend-mode: normal"><path d="M243.48762,179.95476h-1.4c-0.02667,0.00034 -0.05325,-0.00302 -0.079,-0.01c-0.059,-0.017 -0.097,-0.055 -0.112,-0.116c-0.00611,-0.02418 -0.00914,-0.04905 -0.009,-0.074v-5.4c0,-0.24 -0.047,-0.47 -0.14,-0.69c-0.093,-0.22 -0.22,-0.413 -0.38,-0.58c-0.16,-0.167 -0.35,-0.297 -0.57,-0.39c-0.22,-0.093 -0.457,-0.14 -0.71,-0.14c-0.26157,-0.00304 -0.52064,0.05124 -0.759,0.159c-0.19488,0.09079 -0.37147,0.21653 -0.521,0.371c-0.3376,0.33336 -0.52528,0.78958 -0.52,1.264c0,0.002 0,0.004 0,0.006v5.4c0.00034,0.02667 -0.00302,0.05326 -0.01,0.079c-0.017,0.059 -0.055,0.097 -0.116,0.113c-0.02423,0.00578 -0.0491,0.00847 -0.074,0.008h-1.4c-0.02667,0.00034 -0.05326,-0.00302 -0.079,-0.01c-0.059,-0.017 -0.097,-0.055 -0.112,-0.116c-0.00611,-0.02418 -0.00914,-0.04905 -0.009,-0.074v-8.6c-0.00034,-0.02667 0.00303,-0.05326 0.01,-0.079c0.023,-0.081 0.086,-0.121 0.19,-0.121h1.2c0.02667,-0.00034 0.05326,0.00303 0.079,0.01c0.081,0.023 0.121,0.086 0.121,0.19v0.24c-0.00016,0.02509 0.00152,0.05016 0.005,0.075c0.014,0.097 0.059,0.145 0.135,0.145c0.067,0 0.153,-0.033 0.26,-0.1c0.04328,-0.02696 0.08696,-0.0533 0.131,-0.079c0.04,-0.023 0.082,-0.047 0.127,-0.073c0.04714,-0.02635 0.09447,-0.05235 0.142,-0.078c0.15,-0.081 0.326,-0.153 0.528,-0.217c0.01397,-0.0044 0.02798,-0.00874 0.042,-0.013c0.22,-0.067 0.477,-0.1 0.77,-0.1c0.28799,-0.00141 0.5753,0.02809 0.857,0.088c0.18179,0.03934 0.36006,0.09352 0.533,0.162c0.40035,0.15555 0.76603,0.38869 1.076,0.686c0.00468,0.00465 0.00935,0.00932 0.014,0.014c0.307,0.3 0.547,0.657 0.72,1.07c0.1269,0.30705 0.20745,0.63126 0.239,0.962c0.01407,0.13889 0.02108,0.2784 0.021,0.418v5.4c0.00034,0.02667 -0.00303,0.05326 -0.01,0.079c-0.023,0.081 -0.086,0.121 -0.19,0.121z"/></g></g></svg>