<svg version="1.1" xmlns="http://www.w3.org/2000/svg" xmlns:xlink="http://www.w3.org/1999/xlink" width="178.89804" height="27.11675" viewBox="0,0,178.89804,27.11675"><g transform="translate(-150.54333,-166.44163)"><g stroke-miterlimit="10"><path d="M151.21194,180.23444l11.59659,-13.2928h154.90881l11.07073,12.83554l-10.89246,13.28121h-155.09604z" fill="#000000" stroke="#80f7ff" stroke-width="1"/><path d="M178.43364,182.63432c0,1.10217 -0.3149,1.96815 -0.94471,2.59796c-0.62981,0.62981 -1.4958,0.94471 -2.59796,0.94471h-3.9363c-0.13777,0 -0.19681,-0.05905 -0.19681,-0.19682v-12.00572c0,-0.11809 0.05905,-0.19682 0.19681,-0.19682h3.9363c1.08249,0 1.94847,0.33459 2.57828,0.9644c0.62981,0.62981 0.96439,1.4958 0.96439,2.57828zM176.6623,182.83114v-5.70764c0,-0.49204 -0.17713,-0.90535 -0.51172,-1.25962c-0.35427,-0.33459 -0.76758,-0.51172 -1.25962,-0.51172h-2.16497c-0.13777,0 -0.19681,0.07873 -0.19681,0.19681v8.85669c0,0.13777 0.05905,0.19681 0.19681,0.19681h2.16497c0.49204,0 0.90535,-0.15745 1.25962,-0.51172c0.33458,-0.35426 0.51172,-0.76758 0.51172,-1.25962zM182.46833,179.97731c0,0.31491 -0.11809,0.57077 -0.3149,0.76758c-0.2165,0.2165 -0.47236,0.3149 -0.76758,0.3149c-0.3149,0 -0.57076,-0.09841 -0.76758,-0.3149c-0.2165,-0.19681 -0.3149,-0.45268 -0.3149,-0.76758c0,-0.3149 0.09841,-0.57076 0.3149,-0.76758c0.19681,-0.19681 0.45268,-0.3149 0.76758,-0.3149c0.29522,0 0.55108,0.11809 0.76758,0.3149c0.19681,0.2165 0.3149,0.47236 0.3149,0.76758zM182.46833,185.29133c0,0.31491 -0.11809,0.57076 -0.3149,0.76758c-0.19682,0.2165 -0.45268,0.31491 -0.76758,0.31491c-0.3149,0 -0.59044,-0.09841 -0.78726,-0.29522c-0.19681,-0.19682 -0.29522,-0.47236 -0.29522,-0.78726c0,-0.29522 0.09841,-0.55108 0.3149,-0.76758c0.19681,-0.19681 0.45268,-0.3149 0.76758,-0.3149c0.29522,0 0.55108,0.11809 0.76758,0.3149c0.19681,0.2165 0.3149,0.47236 0.3149,0.76758z" fill="#ffae00" stroke="none" stroke-width="9.52081"/><path d="M163.40004,181.6495c0,0 0,-0.66823 0,-1.49252v0c0,-0.8243 0,-1.49252 0,-1.49252h2.98504c0,0 0,0.66822 0,1.49252v0c0,0.8243 0,1.49252 0,1.49252z" fill="#ffae00" stroke="none" stroke-width="2"/></g></g></svg>