<svg version="1.1" xmlns="http://www.w3.org/2000/svg" xmlns:xlink="http://www.w3.org/1999/xlink" width="145.335" height="157.56502" viewBox="0,0,145.335,157.56502"><g transform="translate(-167.75193,-102.20662)"><g data-paper-data="{&quot;isPaintingLayer&quot;:true}" fill="#f9f9f9" fill-rule="nonzero" stroke="#010101" stroke-width="0.6" stroke-linecap="butt" stroke-linejoin="miter" stroke-miterlimit="10" stroke-dasharray="" stroke-dashoffset="0" style="mix-blend-mode: normal"><path d="M169.26189,220.72782l11.0832,-12.38802l1.88761,2.76114l-7.73404,8.33245l10.78037,-3.87634l2.19286,3.20766l-7.66358,8.76716l10.6663,-4.37485l1.85646,2.71557l-15.48138,5.95448l-1.95613,-2.86138l8.09696,-9.53789l-11.72888,4.22519zM189.73529,244.45072l9.74396,-12.91371l2.58875,1.98158l-9.74396,12.91371zM205.73429,254.55274l5.47662,-15.25302l2.97506,1.08365l2.54073,12.44363l3.65731,-10.18602l2.84077,1.03474l-5.47662,15.25302l-3.06803,-1.11753l-2.53368,-12.17046l-3.57139,9.94671zM255.27985,253.6236c-0.52542,-1.56518 -0.73399,-2.95796 -0.62572,-4.17833c0.08416,-0.90071 0.32018,-1.76359 0.70804,-2.58865c0.39479,-0.82742 0.89903,-1.51303 1.51272,-2.05683c0.81438,-0.72893 1.84247,-1.30484 3.08426,-1.72773c2.24772,-0.76546 4.28024,-0.67512 6.09757,0.27102c1.82426,0.94378 3.15625,2.66641 3.99598,5.1679c0.83269,2.48052 0.81532,4.651 -0.05213,6.51143c-0.86979,1.85345 -2.42508,3.16172 -4.66587,3.92481c-2.26853,0.77254 -4.30564,0.69155 -6.11133,-0.24298c-1.80805,-0.94151 -3.12255,-2.63506 -3.94351,-5.08065zM258.41853,252.43793c0.58406,1.73987 1.42628,2.92464 2.52667,3.55433c1.09804,0.6227 2.26102,0.72496 3.48893,0.30679c1.22792,-0.41816 2.0849,-1.20443 2.57094,-2.35879c0.49062,-1.16371 0.43687,-2.63647 -0.16126,-4.41825c-0.59109,-1.76083 -1.41709,-2.94334 -2.47799,-3.54754c-1.05397,-0.60656 -2.21573,-0.69367 -3.48528,-0.26133c-1.26954,0.43234 -2.14504,1.22102 -2.62648,2.36604c-0.48379,1.13803 -0.42896,2.59094 0.16448,4.35875zM285.47866,248.07238l-10.49855,-12.29911l2.3989,-2.07734l12.0087,3.88561l-7.01098,-8.21339l2.29063,-1.98356l10.49855,12.2991l-2.47386,2.14225l-11.76902,-3.75756l6.84627,8.02042zM305.63838,227.54757l-13.18507,-9.31241l6.85549,-9.84684l2.2305,1.57536l-4.98869,7.16546l2.92302,2.06449l4.64181,-6.66723l2.2215,1.56902l-4.64181,6.66722l3.58857,2.53456l5.16527,-7.4191l2.2215,1.56901z"/><path d="M311.61541,143.53309l-11.3804,12.11159l-1.82006,-2.80677l7.93385,-8.13964l-10.87119,3.6099l-2.11439,-3.26068l7.87395,-8.57596l-10.76924,4.11107l-1.79002,-2.76045l15.62119,-5.57172l1.88614,2.90866l-8.32589,9.33578l11.82787,-3.93529zM291.72357,119.31344l-10.05431,12.67008l-2.5399,-2.04469l10.0543,-12.67008zM275.9744,108.82075l-5.84499,15.1137l-2.94788,-1.15654l-2.23812,-12.50244l-3.90331,10.09298l-2.81482,-1.10434l5.84499,-15.1137l3.04001,1.19268l2.23771,12.22918l3.8116,-9.85586zM226.42108,108.53037c0.48729,1.57764 0.66201,2.97513 0.52417,4.19247c-0.10599,0.89837 -0.36286,1.75519 -0.77062,2.57046c-0.41475,0.81745 -0.93547,1.49045 -1.56217,2.01898c-0.83182,0.70868 -1.87357,1.25912 -3.12525,1.65132c-2.26562,0.70992 -4.29534,0.56958 -6.08917,-0.421c-1.80082,-0.98839 -3.09063,-2.74328 -3.86943,-5.26469c-0.77227,-2.50028 -0.70225,-4.66968 0.21007,-6.50821c0.9145,-1.83149 2.50106,-3.1011 4.75968,-3.80882c2.28659,-0.71649 4.32113,-0.58539 6.10362,0.3933c1.78466,0.98573 3.05769,2.71112 3.81909,5.17618zM223.25458,109.63844c-0.54168,-1.75371 -1.35491,-2.95886 -2.43969,-3.61544c-1.08261,-0.64953 -2.24276,-0.78039 -3.48046,-0.39256c-1.2377,0.38782 -2.11349,1.15276 -2.62738,2.29482c-0.51871,1.15129 -0.5007,2.62493 0.05403,4.4209c0.5482,1.77485 1.34527,2.97733 2.39121,3.60746c1.03894,0.63231 2.19824,0.74798 3.47789,0.34701c1.27965,-0.40097 2.17401,-1.16787 2.68309,-2.3007c0.51125,-1.12578 0.49169,-2.57961 -0.05868,-4.3615zM196.09662,113.33678l10.19707,12.55378l-2.44858,2.01768l-11.91085,-4.17995l6.80964,8.38346l-2.33805,1.92661l-10.19708,-12.55378l2.5251,-2.08074l11.67435,4.04605l-6.64966,-8.1865zM175.44504,133.35936l12.95524,9.63409l-7.09231,9.6752l-2.19161,-1.62978l5.16101,-7.04056l-2.87207,-2.13579l-4.80215,6.551l-2.18277,-1.62321l4.80215,-6.551l-3.52602,-2.62211l-5.3437,7.28978l-2.18277,-1.62321z"/></g></g></svg>