<svg version="1.1" xmlns="http://www.w3.org/2000/svg" xmlns:xlink="http://www.w3.org/1999/xlink" width="7.80031" height="13.00031" viewBox="0,0,7.80031,13.00031"><g transform="translate(-129.28302,-166.80439)"><g data-paper-data="{&quot;isPaintingLayer&quot;:true}" fill="#000000" fill-rule="evenodd" stroke="#000000" stroke-width="0" stroke-linecap="round" stroke-linejoin="miter" stroke-miterlimit="10" stroke-dasharray="" stroke-dashoffset="0" style="mix-blend-mode: normal"><path d="M133.48318,179.80455h-0.6c-0.36738,0.00277 -0.73384,-0.03717 -1.092,-0.119c-0.58512,-0.12839 -1.12186,-0.41999 -1.548,-0.841c-0.64,-0.64 -0.96,-1.507 -0.96,-2.6v-0.5c0.00065,-0.10961 0.01035,-0.21898 0.029,-0.327c0.023,-0.138 0.06,-0.286 0.111,-0.443c0.05136,-0.15541 0.11558,-0.30626 0.192,-0.451c0.073,-0.14 0.159,-0.281 0.258,-0.425c0.00332,-0.00467 0.00666,-0.00934 0.01,-0.014c0.115,-0.177 0.229,-0.322 0.341,-0.434c0.05229,-0.05316 0.10881,-0.10198 0.169,-0.146c0.03107,-0.02236 0.06142,-0.04571 0.091,-0.07c0.106,-0.087 0.159,-0.157 0.159,-0.21c-0.00077,-0.02679 -0.00834,-0.05294 -0.022,-0.076c-0.033,-0.06 -0.103,-0.127 -0.211,-0.202c-0.00564,-0.00403 -0.01131,-0.00803 -0.017,-0.012c-0.137,-0.093 -0.272,-0.225 -0.404,-0.394c-0.0296,-0.03797 -0.05827,-0.07665 -0.086,-0.116c-0.413,-0.573 -0.62,-1.113 -0.62,-1.62v-0.4c-0.00309,-0.3717 0.03888,-0.7424 0.125,-1.104c0.13462,-0.57722 0.4272,-1.10559 0.845,-1.526c0.45441,-0.44971 1.03219,-0.75426 1.66,-0.875c0.31919,-0.06505 0.64425,-0.09689 0.97,-0.095h0.6c0.3717,-0.00309 0.7424,0.03888 1.104,0.125c0.57724,0.13457 1.10562,0.42716 1.526,0.845c0.44971,0.45441 0.75426,1.03219 0.875,1.66c0.06505,0.31919 0.09689,0.64425 0.095,0.97v0.4c-0.0023,0.25104 -0.04832,0.49976 -0.136,0.735c-0.069,0.192 -0.165,0.388 -0.287,0.588c-0.06175,0.10154 -0.12747,0.20062 -0.197,0.297c-0.05613,0.0802 -0.11655,0.15731 -0.181,0.231c-0.102,0.115 -0.205,0.208 -0.309,0.279c-0.157,0.106 -0.24,0.198 -0.249,0.275c-0.00065,0.00497 -0.00098,0.00998 -0.001,0.015c0,0.059 0.063,0.139 0.188,0.24c0.01711,0.01362 0.03444,0.02696 0.052,0.04c0.16,0.12 0.326,0.313 0.5,0.58c0.12134,0.17814 0.23058,0.36423 0.327,0.557c0.098,0.198 0.171,0.389 0.22,0.573c0.04725,0.17275 0.07179,0.35091 0.073,0.53v0.5c0.00296,0.36734 -0.03868,0.73369 -0.124,1.091c-0.13332,0.5708 -0.42277,1.09327 -0.836,1.509c-0.43163,0.42657 -0.97648,0.72051 -1.57,0.847c-0.35125,0.07796 -0.71021,0.11587 -1.07,0.113zM135.28318,176.40455v-0.6c0.00688,-0.47453 -0.17936,-0.93148 -0.516,-1.266c-0.00133,-0.00134 -0.00266,-0.00267 -0.004,-0.004c-0.347,-0.353 -0.773,-0.53 -1.28,-0.53h-0.6c-0.26157,-0.00303 -0.52064,0.05124 -0.759,0.159c-0.19488,0.09079 -0.37146,0.21653 -0.521,0.371c-0.3376,0.33336 -0.52528,0.78958 -0.52,1.264c0,0.002 0,0.004 0,0.006v0.6c-0.00282,0.25387 0.04724,0.50554 0.147,0.739c0.08914,0.20222 0.2157,0.38578 0.373,0.541c0.33057,0.33686 0.78405,0.52461 1.256,0.52c0.008,0.00004 0.016,0.00004 0.024,0h0.6c0.25387,0.00282 0.50554,-0.04724 0.739,-0.147c0.20222,-0.08914 0.38578,-0.2157 0.541,-0.373c0.347,-0.347 0.52,-0.773 0.52,-1.28zM135.28318,170.60455v-0.4c0.00282,-0.25387 -0.04724,-0.50554 -0.147,-0.739c-0.08914,-0.20222 -0.2157,-0.38578 -0.373,-0.541c-0.347,-0.347 -0.773,-0.52 -1.28,-0.52h-0.6c-0.25387,-0.00282 -0.50554,0.04724 -0.739,0.147c-0.20222,0.08914 -0.38578,0.2157 -0.541,0.373c-0.33686,0.33057 -0.52461,0.78405 -0.52,1.256c-0.00004,0.008 -0.00004,0.016 0,0.024v0.4c0,0.507 0.173,0.933 0.52,1.28c0.33057,0.33686 0.78405,0.52461 1.256,0.52c0.008,0.00004 0.016,0.00004 0.024,0h0.6c0.25387,0.00282 0.50554,-0.04724 0.739,-0.147c0.20222,-0.08914 0.38578,-0.2157 0.541,-0.373c0.347,-0.347 0.52,-0.773 0.52,-1.28z"/></g></g></svg>