<svg version="1.1" xmlns="http://www.w3.org/2000/svg" xmlns:xlink="http://www.w3.org/1999/xlink" width="178.89804" height="27.11675" viewBox="0,0,178.89804,27.11675"><g transform="translate(-150.54331,-166.44162)"><g data-paper-data="{&quot;isPaintingLayer&quot;:true}" fill-rule="nonzero" stroke-linecap="butt" stroke-linejoin="miter" stroke-miterlimit="10" stroke-dasharray="" stroke-dashoffset="0" style="mix-blend-mode: normal"><path d="M151.21193,180.23442l11.59659,-13.2928h154.90881l11.07073,12.83554l-10.89246,13.28121h-155.09604z" fill="#000000" stroke="#80f7ff" stroke-width="1"/><path d="M179.30761,186.33153c0,0.04227 0,0.06341 0,0.06341l0.02112,0.02116c0,0.12682 -0.08455,0.19024 -0.23251,0.19024h-1.58531c-0.12682,0 -0.21137,-0.04228 -0.21137,-0.14796l-0.78208,-2.79015c-0.02112,-0.08455 -0.08455,-0.12682 -0.21137,-0.12682h-3.42427c-0.12683,0 -0.21138,0.04228 -0.21138,0.12682l-0.78208,2.79015c-0.02112,0.10569 -0.08455,0.14796 -0.21137,0.14796h-1.58531c-0.1691,0 -0.23251,-0.06341 -0.23251,-0.19024v-0.02116c0,0 0.02112,-0.02112 0.02112,-0.06341l3.93157,-12.89385c0,-0.08455 0.08455,-0.14796 0.21137,-0.14796h1.14142c0.08455,0 0.1691,0.06341 0.21137,0.14796zM175.90448,181.5756l-1.0146,-3.97384c-0.04227,-0.10569 -0.06341,-0.23251 -0.10569,-0.40161c-0.04227,-0.14796 -0.10569,-0.31706 -0.14796,-0.52844h-0.08455l-0.25365,0.95118l-1.03574,3.95271c0,0.04227 -0.02112,0.06341 -0.02112,0.06341v0.02112c0,0.12683 0.06341,0.19024 0.23251,0.19024h2.21943c0.14796,0 0.23251,-0.06341 0.23251,-0.19024c0,0 -0.02112,-0.02112 -0.02112,-0.04227c0,0 0,-0.02112 0,-0.04227zM182.83758,179.94801c0,0.3382 -0.12682,0.61299 -0.3382,0.82436c-0.23251,0.23251 -0.5073,0.3382 -0.82436,0.3382c-0.3382,0 -0.61299,-0.10569 -0.82436,-0.3382c-0.23251,-0.21137 -0.3382,-0.48616 -0.3382,-0.82436c0,-0.3382 0.10569,-0.61299 0.3382,-0.82436c0.21137,-0.21137 0.48616,-0.3382 0.82436,-0.3382c0.31706,0 0.59185,0.12682 0.82436,0.3382c0.21137,0.23251 0.3382,0.5073 0.3382,0.82436zM182.83758,185.65513c0,0.3382 -0.12682,0.61299 -0.3382,0.82436c-0.21138,0.23251 -0.48616,0.3382 -0.82436,0.3382c-0.3382,0 -0.63412,-0.10569 -0.8455,-0.31706c-0.21137,-0.21138 -0.31706,-0.5073 -0.31706,-0.8455c0,-0.31706 0.10569,-0.59185 0.3382,-0.82436c0.21137,-0.21137 0.48616,-0.3382 0.82436,-0.3382c0.31706,0 0.59185,0.12682 0.82436,0.3382c0.21137,0.23251 0.3382,0.5073 0.3382,0.82436z" fill="#ffae00" stroke="none" stroke-width="9.52081"/><path d="M163.52125,181.74391c0,0 0,-0.71766 0,-1.60293v0c0,-0.88527 0,-1.60293 0,-1.60293h3.20586c0,0 0,0.71766 0,1.60293v0c0,0.88527 0,1.60293 0,1.60293z" fill="#ffae00" stroke="none" stroke-width="2"/></g></g></svg>