<svg version="1.1" xmlns="http://www.w3.org/2000/svg" xmlns:xlink="http://www.w3.org/1999/xlink" width="7.2" height="12.60008" viewBox="0,0,7.2,12.60008"><g transform="translate(-120.78318,-167.00452)"><g data-paper-data="{&quot;isPaintingLayer&quot;:true}" fill="#000000" fill-rule="evenodd" stroke="#000000" stroke-width="0" stroke-linecap="round" stroke-linejoin="miter" stroke-miterlimit="10" stroke-dasharray="" stroke-dashoffset="0" style="mix-blend-mode: normal"><path d="M122.98318,176.40455v3c0.00034,0.02667 -0.00302,0.05326 -0.01,0.079c-0.017,0.059 -0.056,0.097 -0.116,0.113c-0.02423,0.00578 -0.04909,0.00847 -0.074,0.008h-1.4c-0.02667,0.00034 -0.05326,-0.00302 -0.079,-0.01c-0.059,-0.017 -0.097,-0.056 -0.112,-0.116c-0.00612,-0.02419 -0.00914,-0.04905 -0.009,-0.074v-3c-0.00073,-0.20987 0.0113,-0.41959 0.036,-0.628c0.027,-0.216 0.067,-0.417 0.123,-0.605c0.00359,-0.01236 0.00726,-0.02469 0.011,-0.037c0.113,-0.367 0.277,-0.703 0.49,-1.01c0.15306,-0.21832 0.32578,-0.42217 0.516,-0.609c0.09145,-0.09044 0.18618,-0.1775 0.284,-0.261c0.1693,-0.14396 0.3427,-0.28302 0.52,-0.417c0.19659,-0.149 0.39665,-0.29337 0.6,-0.433c0.17247,-0.12147 0.34481,-0.24314 0.517,-0.365c0.15782,-0.11145 0.31549,-0.22312 0.473,-0.335c0.15269,-0.10775 0.29925,-0.22393 0.439,-0.348c0.11315,-0.10102 0.22033,-0.20853 0.321,-0.322c0.207,-0.233 0.37,-0.487 0.49,-0.76c0.07147,-0.16521 0.12121,-0.339 0.148,-0.517c0.02187,-0.14329 0.03257,-0.28806 0.032,-0.433v-0.52c0,-0.106 -0.042,-0.17 -0.126,-0.191c-0.02419,-0.00612 -0.04905,-0.00914 -0.074,-0.009h-5c-0.02667,0.00034 -0.05326,-0.00302 -0.079,-0.01c-0.081,-0.023 -0.121,-0.086 -0.121,-0.19v-1.2c0,-0.106 0.042,-0.17 0.126,-0.191c0.02419,-0.00612 0.04905,-0.00914 0.074,-0.009h6.8c0.02667,-0.00034 0.05326,0.00302 0.079,0.01c0.081,0.023 0.121,0.086 0.121,0.19v2.12c0,0.538 -0.064,1.014 -0.193,1.429c-0.00231,0.00701 -0.00464,0.01401 -0.007,0.021c-0.133,0.42 -0.327,0.807 -0.58,1.16c-0.19338,0.26798 -0.41278,0.51619 -0.655,0.741c-0.09233,0.08601 -0.18737,0.16905 -0.285,0.249c-0.22009,0.18047 -0.44483,0.3552 -0.674,0.524c-0.19292,0.14203 -0.38829,0.28072 -0.586,0.416c-0.14731,0.10242 -0.29398,0.20576 -0.44,0.31c-0.13404,0.09568 -0.26738,0.19235 -0.4,0.29c-0.253,0.187 -0.467,0.377 -0.64,0.57c-0.12064,0.1334 -0.22535,0.28039 -0.312,0.438c-0.03228,0.0592 -0.06165,0.11994 -0.088,0.182c-0.05979,0.14332 -0.10015,0.29399 -0.12,0.448c-0.01346,0.1001 -0.02014,0.201 -0.02,0.302z"/></g></g></svg>