<svg version="1.1" xmlns="http://www.w3.org/2000/svg" xmlns:xlink="http://www.w3.org/1999/xlink" width="8.48005" height="9" viewBox="0,0,8.48005,9"><g transform="translate(-302.76757,-170.95476)"><g data-paper-data="{&quot;isPaintingLayer&quot;:true}" fill="#000000" fill-rule="evenodd" stroke="#000000" stroke-width="0" stroke-linecap="round" stroke-linejoin="miter" stroke-miterlimit="10" stroke-dasharray="" stroke-dashoffset="0" style="mix-blend-mode: normal"><path d="M311.22762,171.23476l-3.4,8.6c-0.061,0.061 -0.117,0.1 -0.167,0.116c-0.00428,0.00148 -0.00862,0.00281 -0.013,0.004h-1.28c-0.08,0 -0.14,-0.04 -0.18,-0.12l-3.4,-8.6c-0.012,-0.024 -0.019,-0.059 -0.02,-0.105c-0.00007,-0.005 -0.00007,-0.01 0,-0.015c-0.00034,-0.02397 0.00408,-0.04775 0.013,-0.07c0.025,-0.06 0.087,-0.09 0.187,-0.09h1.5c0.02157,0.01096 0.0426,0.02298 0.063,0.036c0.022,0.014 0.045,0.03 0.069,0.047c0.01624,0.01202 0.03224,0.02436 0.048,0.037l2.34,6.54l2.38,-6.54c0.013,-0.04 0.073,-0.08 0.18,-0.12h1.5c0.0245,-0.00011 0.04896,0.00224 0.073,0.007c0.085,0.017 0.127,0.068 0.127,0.153c-0.00009,0.01402 -0.00076,0.02803 -0.002,0.042c-0.002,0.033 -0.008,0.059 -0.018,0.078z"/></g></g></svg>