<svg version="1.1" xmlns="http://www.w3.org/2000/svg" xmlns:xlink="http://www.w3.org/1999/xlink" width="7.80016" height="12.60018" viewBox="0,0,7.80016,12.60018"><g transform="translate(-126.14852,-167.42459)"><g data-paper-data="{&quot;isPaintingLayer&quot;:true}" fill="#000000" fill-rule="evenodd" stroke="#000000" stroke-width="0" stroke-linecap="round" stroke-linejoin="miter" stroke-miterlimit="10" stroke-dasharray="" stroke-dashoffset="0" style="mix-blend-mode: normal"><path d="M130.34853,180.02475h-4c-0.02667,0.00034 -0.05325,-0.00302 -0.079,-0.01c-0.059,-0.017 -0.097,-0.055 -0.112,-0.116c-0.00611,-0.02418 -0.00914,-0.04905 -0.009,-0.074v-12.2c0,-0.106 0.042,-0.17 0.126,-0.191c0.02419,-0.00611 0.04905,-0.00914 0.074,-0.009h4c0.3717,-0.00309 0.7424,0.03888 1.104,0.125c0.57724,0.13457 1.10562,0.42716 1.526,0.845c0.44971,0.45441 0.75427,1.03219 0.875,1.66c0.06506,0.31919 0.09689,0.64425 0.095,0.97v0.2c-0.0023,0.25104 -0.04832,0.49976 -0.136,0.735c-0.069,0.192 -0.165,0.388 -0.287,0.588c-0.06175,0.10154 -0.12746,0.20062 -0.197,0.297c-0.0555,0.07743 -0.11422,0.1525 -0.176,0.225c-0.061,0.071 -0.121,0.133 -0.179,0.187c-0.04576,0.04239 -0.09419,0.0818 -0.145,0.118c-0.03006,0.02101 -0.05941,0.04303 -0.088,0.066c-0.083,0.068 -0.132,0.126 -0.147,0.174c-0.00317,0.00969 -0.00485,0.0198 -0.005,0.03c0,0.059 0.063,0.139 0.188,0.24c0.01711,0.01362 0.03445,0.02696 0.052,0.04c0.16,0.12 0.326,0.313 0.5,0.58c0.12133,0.17815 0.23058,0.36423 0.327,0.557c0.098,0.198 0.171,0.389 0.22,0.573c0.04725,0.17274 0.07178,0.35092 0.073,0.53v0.3c0.00305,0.36685 -0.03757,0.73275 -0.121,1.09c-0.13043,0.57576 -0.42133,1.10279 -0.839,1.52c-0.42164,0.41198 -0.94971,0.69834 -1.525,0.827c-0.336,0.081 -0.701,0.122 -1.096,0.123c-0.00634,0.00001 -0.01266,0.00001 -0.019,0zM132.14853,176.62475v-0.4c0.00689,-0.47453 -0.17937,-0.93149 -0.516,-1.266c-0.00133,-0.00134 -0.00266,-0.00267 -0.004,-0.004c-0.32503,-0.33954 -0.77497,-0.53108 -1.245,-0.53c-0.01166,-0.00009 -0.02334,-0.00009 -0.035,0h-2.2c-0.02667,-0.00034 -0.05326,0.00302 -0.079,0.01c-0.081,0.023 -0.121,0.086 -0.121,0.19v3.6c-0.00034,0.02667 0.00302,0.05325 0.01,0.079c0.017,0.059 0.056,0.097 0.116,0.113c0.02423,0.00578 0.0491,0.00847 0.074,0.008h2.2c0.2615,0.00334 0.52056,-0.05058 0.759,-0.158c0.19496,-0.09109 0.37155,-0.21717 0.521,-0.372c0.347,-0.353 0.52,-0.777 0.52,-1.27zM132.14853,171.02475v-0.2c0.00282,-0.25386 -0.04724,-0.50554 -0.147,-0.739c-0.08914,-0.20222 -0.21569,-0.38577 -0.373,-0.541c-0.33058,-0.33686 -0.78405,-0.52461 -1.256,-0.52c-0.008,-0.00005 -0.016,-0.00005 -0.024,0h-2.2c-0.02667,-0.00034 -0.05326,0.00302 -0.079,0.01c-0.059,0.017 -0.097,0.056 -0.112,0.116c-0.00611,0.02418 -0.00914,0.04905 -0.009,0.074v3.4c-0.00034,0.02667 0.00302,0.05326 0.01,0.079c0.017,0.059 0.056,0.097 0.116,0.113c0.02423,0.00578 0.0491,0.00847 0.074,0.008h2.2c0.25386,0.00282 0.50554,-0.04724 0.739,-0.147c0.20222,-0.08914 0.38577,-0.21569 0.541,-0.373c0.347,-0.347 0.52,-0.773 0.52,-1.28z"/></g></g></svg>