<svg version="1.1" xmlns="http://www.w3.org/2000/svg" xmlns:xlink="http://www.w3.org/1999/xlink" width="9.92003" height="12.62005" viewBox="0,0,9.92003,12.62005"><g transform="translate(-225.54852,-167.40474)"><g data-paper-data="{&quot;isPaintingLayer&quot;:true}" fill="#000000" fill-rule="evenodd" stroke="#000000" stroke-width="0" stroke-linecap="round" stroke-linejoin="miter" stroke-miterlimit="10" stroke-dasharray="" stroke-dashoffset="0" style="mix-blend-mode: normal"><path d="M235.26853,180.02475h-1.4c-0.02667,0.00034 -0.05326,-0.00302 -0.079,-0.01c-0.059,-0.017 -0.097,-0.055 -0.112,-0.116c-0.00611,-0.02418 -0.00914,-0.04905 -0.009,-0.074l0.22,-8.88l-2.86,7.16c-0.01755,0.04399 -0.05219,0.07899 -0.096,0.097c-0.024,0.011 -0.052,0.018 -0.084,0.023h-0.68c-0.02388,-0.00312 -0.04735,-0.00882 -0.07,-0.017c-0.028,-0.011 -0.051,-0.025 -0.07,-0.043c-0.01747,-0.01691 -0.03111,-0.03737 -0.04,-0.06l-2.82,-7.18l0.18,8.9c0.00034,0.02667 -0.00302,0.05325 -0.01,0.079c-0.017,0.059 -0.056,0.097 -0.116,0.113c-0.02423,0.00578 -0.04909,0.00847 -0.074,0.008h-1.4c-0.02667,0.00034 -0.05326,-0.00302 -0.079,-0.01c-0.059,-0.017 -0.097,-0.055 -0.112,-0.116c-0.00611,-0.02418 -0.00914,-0.04905 -0.009,-0.074v-12.2c0,-0.106 0.042,-0.17 0.126,-0.191c0.02418,-0.00611 0.04905,-0.00914 0.074,-0.009h1.38c0.093,0 0.153,0.04 0.18,0.12l3.16,7.94h0.06l3.14,-7.96l0.18,-0.12l1.42,0.02c0.02667,-0.00034 0.05325,0.00302 0.079,0.01c0.059,0.017 0.097,0.056 0.112,0.116c0.00611,0.02418 0.00914,0.04905 0.009,0.074v12.2c0.00034,0.02667 -0.00302,0.05325 -0.01,0.079c-0.017,0.059 -0.056,0.097 -0.116,0.113c-0.02423,0.00578 -0.04909,0.00847 -0.074,0.008z"/></g></g></svg>