<svg version="1.1" xmlns="http://www.w3.org/2000/svg" xmlns:xlink="http://www.w3.org/1999/xlink" width="143.42459" height="21.90065" viewBox="0,0,143.42459,21.90065"><g transform="translate(-185.21212,-169.12956)"><g data-paper-data="{&quot;isPaintingLayer&quot;:true}" fill-rule="nonzero" stroke="none" stroke-linecap="butt" stroke-linejoin="miter" stroke-miterlimit="10" stroke-dasharray="" stroke-dashoffset="0" style="mix-blend-mode: normal"><path d="M194.21275,187.29107c0,0.18696 -0.10683,0.26709 -0.26708,0.26709h-8.27951c-0.18696,0 -0.26708,-0.0801 -0.26708,-0.26709v-1.60248c0,-0.16025 0.08013,-0.26708 0.26708,-0.26708h2.67081c0.16025,0 0.26708,-0.0801 0.26708,-0.26708v-9.64163c0,-0.18695 -0.08012,-0.29379 -0.24037,-0.29379c-0.08012,0 -0.16025,0.0534 -0.21366,0.10684l-1.28199,1.30869c-0.08012,0.0801 -0.13354,0.10684 -0.18696,0.10684c-0.05342,0 -0.13354,-0.0267 -0.18696,-0.10684l-1.17516,-1.14845c-0.08012,-0.0534 -0.10683,-0.13354 -0.10683,-0.18695c0,-0.0534 0.02671,-0.10683 0.10683,-0.18696l4.3,-4.3l0.18696,-0.0801h0.93478c0.16025,0 0.26708,0.10684 0.26708,0.26708v14.1553c0,0.18695 0.08012,0.26708 0.26708,0.26708h2.67081c0.16025,0 0.26708,0.10683 0.26708,0.26708zM200.56928,170.46497c0.72112,0 1.38882,0.13354 1.9764,0.34721c0.58758,0.21366 1.06832,0.53416 1.49565,0.93478c0.42733,0.40062 0.74783,0.88137 0.9882,1.41553c0.21366,0.56087 0.34721,1.17516 0.34721,1.84286c0,0.80124 -0.18696,1.52236 -0.50745,2.21677c-0.3205,0.69441 -0.80124,1.3087 -1.41553,1.81615c-0.48075,0.40062 -0.9882,0.74783 -1.52236,1.06833c-0.53416,0.32049 -1.09503,0.6677 -1.6559,1.0149c-0.80124,0.50746 -1.38882,1.01491 -1.76273,1.54907c-0.37391,0.53417 -0.56087,1.12174 -0.56087,1.78945v0.69441c0,0.18695 0.08012,0.26708 0.26708,0.26708h6.67702c0.16025,0 0.26708,0.10683 0.26708,0.26708v1.60248c0,0.18696 -0.10683,0.26709 -0.26708,0.26709h-9.08075c-0.18696,0 -0.26708,-0.0801 -0.26708,-0.26709v-2.83105c0,-1.3087 0.3205,-2.40373 0.9882,-3.2851c0.64099,-0.85466 1.6559,-1.70932 2.99131,-2.56398c0.48075,-0.3205 0.96149,-0.58758 1.38882,-0.85466c0.42733,-0.26708 0.77453,-0.53416 1.09503,-0.80124c0.29379,-0.26708 0.53416,-0.53416 0.69441,-0.85466c0.16025,-0.3205 0.26708,-0.6677 0.26708,-1.09503c0,-0.3205 -0.08012,-0.641 -0.18696,-0.93478c-0.13354,-0.29379 -0.3205,-0.56087 -0.53416,-0.77454c-0.21366,-0.21366 -0.48075,-0.37391 -0.77453,-0.50745c-0.29379,-0.10684 -0.58758,-0.18696 -0.90807,-0.18696h-1.01491c-0.3205,0 -0.56087,0.0534 -0.77453,0.13354c-0.21366,0.0801 -0.40062,0.18696 -0.56087,0.3205c-0.16025,0.13354 -0.3205,0.29379 -0.45404,0.48074c-0.13354,0.18696 -0.26708,0.37392 -0.42733,0.56087c-0.10683,0.10684 -0.18696,0.16025 -0.24037,0.16025c-0.05342,0 -0.10683,0 -0.13354,-0.0267l-1.68261,-0.85466c-0.10683,-0.0534 -0.16025,-0.10683 -0.16025,-0.18695c0,-0.21367 0.10683,-0.50746 0.37391,-0.85466c0.26708,-0.3205 0.64099,-0.69441 1.17516,-1.09503c0.29379,-0.21367 0.69441,-0.40062 1.20186,-0.56087c0.48075,-0.13354 1.04162,-0.21367 1.68261,-0.21367z" fill="#ffad00" stroke-width="0.65849"/><path d="M239.53845,177.64945c0,0.18696 0.16025,0.3205 0.48074,0.42733c0.3205,0.10683 0.72112,0.29379 1.25529,0.58758c0.96149,0.56087 1.6559,1.20186 2.10994,1.94969c0.45403,0.74783 0.69441,1.6559 0.69441,2.67081c0,1.84286 -0.85466,3.20497 -2.53727,4.05963c-0.26708,0.16025 -0.53417,0.24037 -0.77454,0.29379c-0.26708,0.0534 -0.48074,0.0801 -0.64099,0.10683c-0.18696,0.0267 -0.3205,0.0534 -0.42733,0.0801c-0.10683,0.0534 -0.16025,0.13354 -0.16025,0.24037v0.82795c0,0.18696 -0.10683,0.26708 -0.26708,0.26708h-0.6677c-0.18696,0 -0.26708,-0.0801 -0.26708,-0.26708v-0.80124c0,-0.16025 -0.08013,-0.24038 -0.18696,-0.26708c-0.6677,0 -1.25528,-0.0801 -1.73603,-0.21367c-0.48075,-0.13354 -0.88137,-0.3205 -1.17516,-0.56087c-0.53416,-0.40062 -0.90807,-0.77453 -1.14845,-1.12174c-0.26708,-0.3472 -0.37391,-0.64099 -0.37391,-0.85466c0,-0.0534 0.05342,-0.13354 0.16025,-0.18695l1.68261,-0.85466c0.02671,0 0.08012,-0.0267 0.13354,-0.0267c0.05342,0 0.13354,0.0534 0.24037,0.16025c0.3205,0.42733 0.64099,0.80124 0.90807,1.09503c0.26708,0.29379 0.64099,0.42733 1.12174,0.42733c0.13354,0 0.24037,0 0.29379,-0.0267c0.05342,-0.0267 0.08013,-0.10683 0.08013,-0.24037v-5.18137c-0.05342,-0.16025 -0.21366,-0.3205 -0.50745,-0.42733c-0.3205,-0.10684 -0.69441,-0.29379 -1.14845,-0.56087c-0.85466,-0.42733 -1.52236,-1.01491 -1.9764,-1.73603c-0.45404,-0.72112 -0.6677,-1.54907 -0.6677,-2.51056c0,-1.86957 0.77453,-3.20497 2.35031,-4.03292c0.24037,-0.10684 0.48075,-0.21367 0.72112,-0.26709c0.24037,-0.0534 0.45404,-0.0801 0.64099,-0.10683c0.16025,-0.0267 0.3205,-0.0534 0.42733,-0.10683c0.10683,-0.0534 0.16025,-0.13354 0.16025,-0.24037v-0.85466c0,-0.16025 0.08012,-0.26708 0.26708,-0.26708h0.6677c0.16025,0 0.26708,0.10683 0.26708,0.26708v0.82795c0,0.16025 0.05342,0.26708 0.16025,0.26708c0.10683,0.0267 0.29379,0.0534 0.58758,0.10683c0.56087,0.13354 1.06832,0.29379 1.49565,0.50746c0.42733,0.21366 0.77453,0.45403 1.06832,0.69441c0.26708,0.24037 0.48075,0.48074 0.641,0.72112c0.13354,0.26708 0.21366,0.48074 0.21366,0.64099c0,0.10683 -0.0534,0.18696 -0.13354,0.21366l-1.68261,0.85466c-0.0801,0.0534 -0.13354,0.0534 -0.16025,0.0534c-0.10683,0 -0.21366,-0.0801 -0.32049,-0.24037c-0.10684,-0.16025 -0.29379,-0.40062 -0.50746,-0.72112c-0.16025,-0.21367 -0.3472,-0.37391 -0.56087,-0.48075c-0.21366,-0.10683 -0.40062,-0.16025 -0.56087,-0.16025c-0.16025,0 -0.24037,0.10684 -0.24037,0.26709zM238.33658,176.79479v-3.76584c0,-0.16025 -0.08013,-0.26708 -0.18696,-0.26708c-0.21366,0 -0.40062,0.0801 -0.61429,0.18696c-0.21367,0.10683 -0.37391,0.26708 -0.53416,0.48074c-0.16025,0.21367 -0.29379,0.45404 -0.40062,0.72112c-0.10683,0.26708 -0.16025,0.56087 -0.16025,0.85466c0,0.26708 0.05342,0.53416 0.18696,0.80124c0.13354,0.26708 0.29379,0.48075 0.48075,0.6677c0.16025,0.18696 0.3472,0.34721 0.56087,0.45404c0.18696,0.10683 0.34721,0.16025 0.48075,0.16025c0.10683,0 0.18696,-0.0801 0.18696,-0.29379zM239.53845,185.36809c0,0.18696 0.08012,0.26708 0.24037,0.26708c0.21367,0 0.45404,-0.0534 0.6677,-0.18695c0.21367,-0.10684 0.42733,-0.29379 0.61429,-0.50746c0.16025,-0.21366 0.3205,-0.45404 0.42733,-0.74783c0.10683,-0.26708 0.18696,-0.58757 0.18696,-0.90807c0,-0.3205 -0.0801,-0.64099 -0.24038,-0.93478c-0.16024,-0.29379 -0.32049,-0.56087 -0.53416,-0.77454c-0.21366,-0.21366 -0.42733,-0.40062 -0.64099,-0.53416c-0.21367,-0.13354 -0.40062,-0.21367 -0.53416,-0.21367c-0.13355,0 -0.18696,0.10684 -0.18696,0.29379zM257.35276,187.29107c0,0.18696 -0.10684,0.26709 -0.26708,0.26709h-8.27951c-0.18696,0 -0.26709,-0.0801 -0.26709,-0.26709v-1.60248c0,-0.16025 0.0801,-0.26708 0.26709,-0.26708h2.67081c0.16024,0 0.26708,-0.0801 0.26708,-0.26708v-9.64163c0,-0.18695 -0.0801,-0.29379 -0.24038,-0.29379c-0.0801,0 -0.16025,0.0534 -0.21366,0.10684l-1.28199,1.30869c-0.0801,0.0801 -0.13354,0.10684 -0.18696,0.10684c-0.0534,0 -0.13354,-0.0267 -0.18695,-0.10684l-1.17516,-1.14845c-0.0801,-0.0534 -0.10683,-0.13354 -0.10683,-0.18695c0,-0.0534 0.0267,-0.10683 0.10683,-0.18696l4.3,-4.3l0.18696,-0.0801h0.93478c0.16025,0 0.26709,0.10684 0.26709,0.26708v14.1553c0,0.18695 0.0801,0.26708 0.26708,0.26708h2.67081c0.16024,0 0.26708,0.10683 0.26708,0.26708zM263.70929,170.46497c0.72112,0 1.38882,0.13354 1.9764,0.34721c0.58758,0.21366 1.06832,0.53416 1.49565,0.93478c0.42733,0.40062 0.74783,0.88137 0.9882,1.41553c0.21367,0.56087 0.34721,1.17516 0.34721,1.84286c0,0.80124 -0.18696,1.52236 -0.50746,2.21677c-0.3205,0.69441 -0.80124,1.3087 -1.41553,1.81615c-0.48074,0.40062 -0.9882,0.74783 -1.52236,1.06833c-0.53416,0.32049 -1.09503,0.6677 -1.6559,1.0149c-0.80124,0.50746 -1.38882,1.01491 -1.76274,1.54907c-0.37391,0.53417 -0.56087,1.12174 -0.56087,1.78945v0.69441c0,0.18695 0.0801,0.26708 0.26709,0.26708h6.67702c0.16025,0 0.26708,0.10683 0.26708,0.26708v1.60248c0,0.18696 -0.10683,0.26709 -0.26708,0.26709h-9.08075c-0.18696,0 -0.26708,-0.0801 -0.26708,-0.26709v-2.83105c0,-1.3087 0.32049,-2.40373 0.98819,-3.2851c0.641,-0.85466 1.65591,-1.70932 2.99131,-2.56398c0.48075,-0.3205 0.96149,-0.58758 1.38882,-0.85466c0.42733,-0.26708 0.77454,-0.53416 1.09504,-0.80124c0.29378,-0.26708 0.53416,-0.53416 0.69441,-0.85466c0.16024,-0.3205 0.26708,-0.6677 0.26708,-1.09503c0,-0.3205 -0.0801,-0.641 -0.18696,-0.93478c-0.13354,-0.29379 -0.3205,-0.56087 -0.53416,-0.77454c-0.21367,-0.21366 -0.48075,-0.37391 -0.77454,-0.50745c-0.29379,-0.10684 -0.58757,-0.18696 -0.90807,-0.18696h-1.01491c-0.3205,0 -0.56087,0.0534 -0.77453,0.13354c-0.21367,0.0801 -0.40063,0.18696 -0.56087,0.3205c-0.16025,0.13354 -0.3205,0.29379 -0.45404,0.48074c-0.13354,0.18696 -0.26708,0.37392 -0.42733,0.56087c-0.10683,0.10684 -0.18696,0.16025 -0.24038,0.16025c-0.0534,0 -0.10683,0 -0.13354,-0.0267l-1.68261,-0.85466c-0.10683,-0.0534 -0.16024,-0.10683 -0.16024,-0.18695c0,-0.21367 0.10683,-0.50746 0.37391,-0.85466c0.26708,-0.3205 0.64099,-0.69441 1.17516,-1.09503c0.29378,-0.21367 0.69441,-0.40062 1.20186,-0.56087c0.48075,-0.13354 1.04162,-0.21367 1.68261,-0.21367zM281.06955,183.07119c0,1.46895 -0.42733,2.6174 -1.28199,3.47206c-0.85466,0.85466 -2.02982,1.28199 -3.52547,1.28199h-0.80124c-0.641,0 -1.22857,-0.0534 -1.70932,-0.21367c-0.50745,-0.13354 -0.90808,-0.3205 -1.20187,-0.56087c-0.53416,-0.40062 -0.90807,-0.77453 -1.14844,-1.12174c-0.26708,-0.3472 -0.37392,-0.64099 -0.37392,-0.85466c0,-0.0534 0.0534,-0.13354 0.16025,-0.18695l1.68261,-0.85466c0.0534,-0.0267 0.10683,-0.0534 0.13354,-0.0534c0.0534,0 0.13354,0.0801 0.24038,0.18696l0.42733,0.58757c0.13354,0.18696 0.29378,0.34721 0.45403,0.48075c0.16025,0.16025 0.34721,0.26708 0.56087,0.34721c0.21367,0.0801 0.45404,0.10683 0.77454,0.10683h0.80124c0.641,0 1.20187,-0.21367 1.68261,-0.69441c0.48075,-0.45404 0.72112,-1.01491 0.72112,-1.70932v-0.93478c0,-0.66771 -0.24037,-1.22858 -0.72112,-1.70932c-0.48074,-0.45404 -1.04161,-0.69441 -1.68261,-0.69441h-4.2733c-0.18695,0 -0.26708,-0.0801 -0.26708,-0.26708v-8.68014c0,-0.16024 0.0801,-0.26708 0.26708,-0.26708h8.5466c0.16025,0 0.26708,0.10684 0.26708,0.26708v1.60249c0,0.18696 -0.10683,0.26708 -0.26708,0.26708h-6.14287c-0.18695,0 -0.26708,0.10683 -0.26708,0.26708v4.40684c0,0.18695 0.0801,0.26708 0.26708,0.26708h1.86957c1.49565,0 2.67081,0.42733 3.52547,1.28199c0.85466,0.85466 1.28199,2.02981 1.28199,3.47205zM287.05217,186.59666c0,1.44224 -0.3472,2.51057 -1.01491,3.25839c-0.37391,0.42733 -0.69441,0.72112 -0.9882,0.90808c-0.29378,0.18695 -0.50745,0.26708 -0.61428,0.26708c-0.0801,0 -0.13354,-0.0534 -0.18696,-0.18696l-0.37391,-0.77453l-0.0267,-0.0267c0,0 0,-0.0267 0,-0.0534c0,-0.0801 0.0534,-0.18695 0.16025,-0.29379c0.10683,-0.10683 0.24037,-0.26708 0.40062,-0.45403c0.16025,-0.18696 0.29379,-0.42733 0.40062,-0.69441c0.10683,-0.26709 0.18696,-0.58758 0.18696,-0.9882c0,-0.26709 -0.10683,-0.42733 -0.26708,-0.42733h-0.34721c-0.18695,0 -0.26708,-0.0801 -0.26708,-0.26709v-1.92298c0,-0.16025 0.0801,-0.26708 0.26708,-0.26708h2.40373c0.16025,0 0.26708,0.10683 0.26708,0.26708zM300.53974,183.28486c0,0.69441 -0.13354,1.3087 -0.3472,1.86957c-0.24038,0.56087 -0.56087,1.04161 -0.9882,1.44223c-0.42733,0.40063 -0.90808,0.69441 -1.49566,0.90808c-0.58757,0.21366 -1.25528,0.3205 -1.97639,0.3205h-0.80125c-0.74782,0 -1.38882,-0.10684 -1.9764,-0.3205c-0.58758,-0.21367 -1.09503,-0.50745 -1.52236,-0.90808c-0.42733,-0.40062 -0.74783,-0.88136 -0.96149,-1.44223c-0.24037,-0.56087 -0.34721,-1.17516 -0.34721,-1.86957v-8.27951c0,-0.6677 0.10684,-1.28199 0.34721,-1.84286c0.21366,-0.56087 0.53416,-1.04162 0.96149,-1.44224c0.42733,-0.40062 0.93478,-0.72112 1.52236,-0.93478c0.58758,-0.21367 1.22858,-0.3205 1.9764,-0.3205h0.80125c0.72111,0 1.38882,0.10683 1.97639,0.3205c0.58758,0.21366 1.06833,0.53416 1.49566,0.93478c0.42733,0.40062 0.74782,0.88137 0.9882,1.44224c0.21366,0.56087 0.3472,1.17516 0.3472,1.84286zM298.13601,183.28486v-8.27951c0,-0.6677 -0.24037,-1.22857 -0.69441,-1.70932c-0.48074,-0.45404 -1.04161,-0.69441 -1.70931,-0.69441h-0.80125c-0.69441,0 -1.25528,0.24037 -1.70932,0.69441c-0.48074,0.48075 -0.69441,1.04162 -0.69441,1.70932v8.27951c0,0.69441 0.21367,1.25528 0.69441,1.70932c0.45404,0.48074 1.01491,0.69441 1.70932,0.69441h0.80125c0.6677,0 1.22857,-0.21367 1.70931,-0.69441c0.45404,-0.45404 0.69441,-1.01491 0.69441,-1.70932zM314.58823,183.28486c0,0.69441 -0.13354,1.3087 -0.34721,1.86957c-0.24037,0.56087 -0.56087,1.04161 -0.9882,1.44223c-0.42733,0.40063 -0.90807,0.69441 -1.49565,0.90808c-0.58758,0.21366 -1.25528,0.3205 -1.9764,0.3205h-0.80124c-0.74783,0 -1.38882,-0.10684 -1.9764,-0.3205c-0.58758,-0.21367 -1.09503,-0.50745 -1.52236,-0.90808c-0.42733,-0.40062 -0.74783,-0.88136 -0.9615,-1.44223c-0.24037,-0.56087 -0.3472,-1.17516 -0.3472,-1.86957v-8.27951c0,-0.6677 0.10683,-1.28199 0.3472,-1.84286c0.21367,-0.56087 0.53417,-1.04162 0.9615,-1.44224c0.42733,-0.40062 0.93478,-0.72112 1.52236,-0.93478c0.58758,-0.21367 1.22857,-0.3205 1.9764,-0.3205h0.80124c0.72112,0 1.38882,0.10683 1.9764,0.3205c0.58758,0.21366 1.06832,0.53416 1.49565,0.93478c0.42733,0.40062 0.74783,0.88137 0.9882,1.44224c0.21367,0.56087 0.34721,1.17516 0.34721,1.84286zM312.1845,183.28486v-8.27951c0,-0.6677 -0.24037,-1.22857 -0.69441,-1.70932c-0.48075,-0.45404 -1.04162,-0.69441 -1.70932,-0.69441h-0.80124c-0.69441,0 -1.25528,0.24037 -1.70932,0.69441c-0.48075,0.48075 -0.69441,1.04162 -0.69441,1.70932v8.27951c0,0.69441 0.21366,1.25528 0.69441,1.70932c0.45404,0.48074 1.01491,0.69441 1.70932,0.69441h0.80124c0.6677,0 1.22857,-0.21367 1.70932,-0.69441c0.45404,-0.45404 0.69441,-1.01491 0.69441,-1.70932zM328.63671,183.28486c0,0.69441 -0.13354,1.3087 -0.3472,1.86957c-0.24038,0.56087 -0.56087,1.04161 -0.9882,1.44223c-0.42733,0.40063 -0.90808,0.69441 -1.49566,0.90808c-0.58757,0.21366 -1.25528,0.3205 -1.9764,0.3205h-0.80124c-0.74783,0 -1.38882,-0.10684 -1.9764,-0.3205c-0.58758,-0.21367 -1.09503,-0.50745 -1.52236,-0.90808c-0.42733,-0.40062 -0.74783,-0.88136 -0.96149,-1.44223c-0.24037,-0.56087 -0.34721,-1.17516 -0.34721,-1.86957v-8.27951c0,-0.6677 0.10684,-1.28199 0.34721,-1.84286c0.21366,-0.56087 0.53416,-1.04162 0.96149,-1.44224c0.42733,-0.40062 0.93478,-0.72112 1.52236,-0.93478c0.58758,-0.21367 1.22857,-0.3205 1.9764,-0.3205h0.80124c0.72112,0 1.38883,0.10683 1.9764,0.3205c0.58758,0.21366 1.06833,0.53416 1.49566,0.93478c0.42733,0.40062 0.74782,0.88137 0.9882,1.44224c0.21366,0.56087 0.3472,1.17516 0.3472,1.84286zM326.23298,183.28486v-8.27951c0,-0.6677 -0.24037,-1.22857 -0.69441,-1.70932c-0.48074,-0.45404 -1.04161,-0.69441 -1.70932,-0.69441h-0.80124c-0.69441,0 -1.25528,0.24037 -1.70932,0.69441c-0.48074,0.48075 -0.69441,1.04162 -0.69441,1.70932v8.27951c0,0.69441 0.21367,1.25528 0.69441,1.70932c0.45404,0.48074 1.01491,0.69441 1.70932,0.69441h0.80124c0.66771,0 1.22858,-0.21367 1.70932,-0.69441c0.45404,-0.45404 0.69441,-1.01491 0.69441,-1.70932z" fill="#ffad00" stroke-width="0.65849"/><path d="M217.00409,182.93752v-4.625h4.625v4.625z" fill="#ffffff" stroke-width="0"/></g></g></svg>