<svg version="1.1" xmlns="http://www.w3.org/2000/svg" xmlns:xlink="http://www.w3.org/1999/xlink" width="8.84011" height="12.60006" viewBox="0,0,8.84011,12.60006"><g transform="translate(-347.10842,-167.42471)"><g data-paper-data="{&quot;isPaintingLayer&quot;:true}" fill="#000000" fill-rule="evenodd" stroke="#000000" stroke-width="0" stroke-linecap="round" stroke-linejoin="miter" stroke-miterlimit="10" stroke-dasharray="" stroke-dashoffset="0" style="mix-blend-mode: normal"><path d="M355.90853,167.72475l-3.48,6.52v5.58c0.00034,0.02667 -0.00302,0.05325 -0.01,0.079c-0.023,0.081 -0.086,0.121 -0.19,0.121h-1.4c-0.02667,0.00034 -0.05326,-0.00302 -0.079,-0.01c-0.059,-0.017 -0.097,-0.055 -0.112,-0.116c-0.00612,-0.02418 -0.00914,-0.04905 -0.009,-0.074v-5.58l-3.48,-6.52c-0.024,-0.071 -0.037,-0.116 -0.04,-0.134c-0.00014,-0.00199 -0.00014,-0.00401 0,-0.006c0,-0.091 0.053,-0.143 0.16,-0.157c0.01992,-0.00224 0.03996,-0.00324 0.06,-0.003h1.64l0.18,0.12l2.2,4.56c0.00952,0.02264 0.0216,0.04411 0.036,0.064c0.018,0.025 0.039,0.044 0.063,0.057c0.02499,0.01298 0.05284,0.01952 0.081,0.019c0.0563,0.00084 0.10941,-0.02608 0.142,-0.072c0.014,-0.019 0.027,-0.042 0.038,-0.068l2.2,-4.56l0.18,-0.12h1.64c0.02646,-0.00035 0.0529,0.00166 0.079,0.006c0.094,0.017 0.141,0.069 0.141,0.154c0,0.013 -0.013,0.06 -0.04,0.14z"/></g></g></svg>