<svg version="1.1" xmlns="http://www.w3.org/2000/svg" xmlns:xlink="http://www.w3.org/1999/xlink" width="178.89804" height="27.11675" viewBox="0,0,178.89804,27.11675"><g transform="translate(-150.54332,-166.44162)"><g data-paper-data="{&quot;isPaintingLayer&quot;:true}" fill-rule="nonzero" stroke-width="1" stroke-linecap="butt" stroke-linejoin="miter" stroke-miterlimit="10" stroke-dasharray="" stroke-dashoffset="0" style="mix-blend-mode: normal"><path d="M151.21193,180.23442l11.59659,-13.2928h154.90881l11.07073,12.83554l-10.89246,13.28121h-155.09604z" fill="#000000" stroke="#80f7ff"/><path d="M221.97106,180.6649v3.10058c0,0.1378 0.03215,0.24575 0.09646,0.32384c0.0689,0.0735 0.18374,0.13091 0.34451,0.17226v0.22049h-2.93522v-0.22049c0.16536,-0.04593 0.2802,-0.10565 0.34451,-0.17915c0.06431,-0.0735 0.09646,-0.17915 0.09646,-0.31695v-7.96505c0,-0.1424 -0.03215,-0.25034 -0.09646,-0.32384c-0.06431,-0.0735 -0.17914,-0.13321 -0.34451,-0.17915v-0.22049h5.87044c0.68443,0 1.22645,0.04593 1.62608,0.1378c0.40422,0.09187 0.76022,0.25034 1.06798,0.47542c0.31695,0.23427 0.56499,0.54203 0.74414,0.92329c0.17914,0.39504 0.26872,0.81304 0.26872,1.25401c0,0.6339 -0.16996,1.18971 -0.50987,1.66742c-0.29398,0.40882 -0.68443,0.7005 -1.17133,0.87505c-0.48231,0.16996 -1.15755,0.25494 -2.02572,0.25494zM221.97106,179.11461h3.13503c0.62471,0 1.06339,-0.06661 1.31603,-0.19982c0.16077,-0.08728 0.28939,-0.22508 0.38585,-0.41341c0.10106,-0.19293 0.15158,-0.40422 0.15158,-0.6339c0,-0.22508 -0.05053,-0.43179 -0.15158,-0.62012c-0.09646,-0.19293 -0.22508,-0.33303 -0.38585,-0.4203c-0.24805,-0.13321 -0.68672,-0.19982 -1.31603,-0.19982h-3.13503zM232.76798,182.93177h5.78087c0.1424,0 0.25034,-0.03215 0.32384,-0.09646c0.0735,-0.06431 0.13321,-0.17914 0.17915,-0.34451h0.22049v2.43224h-0.22049c-0.04593,-0.16536 -0.10565,-0.2802 -0.17915,-0.34451c-0.0735,-0.06431 -0.18144,-0.09646 -0.32384,-0.09646h-8.27511v-0.22049c0.16536,-0.04593 0.2802,-0.10565 0.34451,-0.17915c0.06431,-0.0735 0.09646,-0.18144 0.09646,-0.32384v-7.95816c0,-0.1424 -0.03215,-0.25034 -0.09646,-0.32384c-0.06431,-0.0735 -0.17914,-0.13321 -0.34451,-0.17915v-0.22049h2.93522v0.22049c-0.16536,0.04134 -0.2802,0.10105 -0.34451,0.17915c-0.06431,0.0735 -0.09646,0.18144 -0.09646,0.32384zM247.66456,182.08428h-4.27191l-0.6339,1.32292c-0.08727,0.18374 -0.13091,0.32843 -0.13091,0.43408c0,0.20211 0.15388,0.34221 0.46164,0.4203v0.22049h-3.11436v-0.22049c0.18373,-0.03675 0.32383,-0.10106 0.4203,-0.19293c0.09646,-0.09187 0.2067,-0.27101 0.33073,-0.53743l3.45887,-7.22781c0.11024,-0.22967 0.16536,-0.41341 0.16536,-0.55121c0,-0.2113 -0.13321,-0.36288 -0.39963,-0.45475v-0.22049h3.33485v0.22049c-0.27101,0.07809 -0.40652,0.2136 -0.40652,0.40652c0,0.13321 0.04364,0.2848 0.13092,0.45475l3.58289,7.24847c0.15159,0.30776 0.2848,0.51906 0.39963,0.6339c0.11484,0.11024 0.26872,0.18374 0.46165,0.22049v0.22049h-3.45888v-0.22049c0.30317,-0.05053 0.45476,-0.19292 0.45476,-0.42719c0,-0.09646 -0.04594,-0.23886 -0.13781,-0.42719zM247.07201,180.79581l-1.52273,-3.34863l-1.5434,3.34863zM256.31864,180.54777v3.21083c0,0.1424 0.03217,0.25034 0.0965,0.32384c0.0689,0.0735 0.18603,0.13321 0.3514,0.17915v0.22049h-2.95589v-0.22049c0.16537,-0.04593 0.2825,-0.10565 0.3514,-0.17915c0.0689,-0.0735 0.10335,-0.18144 0.10335,-0.32384v-3.21083l-3.03857,-4.27881c-0.26183,-0.36748 -0.46853,-0.61323 -0.62012,-0.73725c-0.14699,-0.12862 -0.32383,-0.20671 -0.53054,-0.23427v-0.22049h3.71381v0.22049c-0.30776,0.05053 -0.46164,0.19292 -0.46164,0.42719c0,0.08268 0.09416,0.26412 0.28249,0.54432l1.69499,2.52181l1.74322,-2.52181c0.18833,-0.27101 0.28249,-0.45475 0.28249,-0.55121c0,-0.10565 -0.04134,-0.19522 -0.12402,-0.26872c-0.08268,-0.07809 -0.19522,-0.12862 -0.33762,-0.15158v-0.22049h3.63802v0.22049c-0.20671,0.02756 -0.38585,0.10565 -0.53744,0.23427c-0.14699,0.12402 -0.35139,0.36977 -0.61322,0.73725z" fill="#ffffff" stroke="none"/></g></g></svg>