<svg version="1.1" xmlns="http://www.w3.org/2000/svg" xmlns:xlink="http://www.w3.org/1999/xlink" width="132.50097" height="21.90065" viewBox="0,0,132.50097,21.90065"><g transform="translate(-185.07722,-169.02614)"><g data-paper-data="{&quot;isPaintingLayer&quot;:true}" fill="#ffad00" fill-rule="nonzero" stroke="none" stroke-width="0.65849" stroke-linecap="butt" stroke-linejoin="miter" stroke-miterlimit="10" stroke-dasharray="" stroke-dashoffset="0" style="mix-blend-mode: normal"><path d="M194.07785,187.18765c0,0.18696 -0.10683,0.26709 -0.26708,0.26709h-8.27951c-0.18696,0 -0.26708,-0.0801 -0.26708,-0.26709v-1.60248c0,-0.16025 0.08012,-0.26708 0.26708,-0.26708h2.67081c0.16025,0 0.26708,-0.0801 0.26708,-0.26708v-9.64163c0,-0.18695 -0.08012,-0.29379 -0.24037,-0.29379c-0.08012,0 -0.16025,0.0534 -0.21366,0.10684l-1.28199,1.30869c-0.08012,0.0801 -0.13354,0.10684 -0.18696,0.10684c-0.05342,0 -0.13354,-0.0267 -0.18696,-0.10684l-1.17516,-1.14845c-0.08013,-0.0534 -0.10683,-0.13354 -0.10683,-0.18695c0,-0.0534 0.02671,-0.10683 0.10683,-0.18696l4.3,-4.3l0.18696,-0.0801h0.93478c0.16025,0 0.26708,0.10684 0.26708,0.26708v14.1553c0,0.18695 0.08012,0.26708 0.26708,0.26708h2.67081c0.16025,0 0.26708,0.10683 0.26708,0.26708zM206.12321,187.18765c0,0.18696 -0.10683,0.26709 -0.26708,0.26709h-8.27951c-0.18696,0 -0.26708,-0.0801 -0.26708,-0.26709v-1.60248c0,-0.16025 0.08013,-0.26708 0.26708,-0.26708h2.67081c0.16025,0 0.26708,-0.0801 0.26708,-0.26708v-9.64163c0,-0.18695 -0.08012,-0.29379 -0.24037,-0.29379c-0.08012,0 -0.16025,0.0534 -0.21366,0.10684l-1.28199,1.30869c-0.08012,0.0801 -0.13354,0.10684 -0.18696,0.10684c-0.05342,0 -0.13354,-0.0267 -0.18696,-0.10684l-1.17516,-1.14845c-0.08012,-0.0534 -0.10683,-0.13354 -0.10683,-0.18695c0,-0.0534 0.02671,-0.10683 0.10683,-0.18696l4.3,-4.3l0.18696,-0.0801h0.93478c0.16025,0 0.26708,0.10684 0.26708,0.26708v14.1553c0,0.18695 0.08012,0.26708 0.26708,0.26708h2.67081c0.16025,0 0.26708,0.10683 0.26708,0.26708z"/><path d="M240.41846,177.54603c0,0.18696 0.16025,0.3205 0.48074,0.42733c0.3205,0.10683 0.72112,0.29379 1.25529,0.58758c0.96149,0.56087 1.6559,1.20186 2.10994,1.94969c0.45403,0.74783 0.69441,1.6559 0.69441,2.67081c0,1.84286 -0.85466,3.20497 -2.53727,4.05963c-0.26708,0.16025 -0.53417,0.24037 -0.77454,0.29379c-0.26708,0.0534 -0.48074,0.0801 -0.64099,0.10683c-0.18696,0.0267 -0.3205,0.0534 -0.42733,0.0801c-0.10683,0.0534 -0.16025,0.13354 -0.16025,0.24037v0.82795c0,0.18696 -0.10683,0.26708 -0.26708,0.26708h-0.6677c-0.18696,0 -0.26708,-0.0801 -0.26708,-0.26708v-0.80124c0,-0.16025 -0.08013,-0.24038 -0.18696,-0.26708c-0.6677,0 -1.25528,-0.0801 -1.73603,-0.21367c-0.48075,-0.13354 -0.88137,-0.3205 -1.17516,-0.56087c-0.53416,-0.40062 -0.90807,-0.77453 -1.14845,-1.12174c-0.26708,-0.3472 -0.37391,-0.64099 -0.37391,-0.85466c0,-0.0534 0.05342,-0.13354 0.16025,-0.18695l1.68261,-0.85466c0.02671,0 0.08012,-0.0267 0.13354,-0.0267c0.05342,0 0.13354,0.0534 0.24037,0.16025c0.3205,0.42733 0.64099,0.80124 0.90807,1.09503c0.26708,0.29379 0.64099,0.42733 1.12174,0.42733c0.13354,0 0.24037,0 0.29379,-0.0267c0.05342,-0.0267 0.08013,-0.10683 0.08013,-0.24037v-5.18137c-0.05342,-0.16025 -0.21366,-0.3205 -0.50745,-0.42733c-0.3205,-0.10684 -0.69441,-0.29379 -1.14845,-0.56087c-0.85466,-0.42733 -1.52236,-1.01491 -1.9764,-1.73603c-0.45404,-0.72112 -0.6677,-1.54907 -0.6677,-2.51056c0,-1.86957 0.77453,-3.20497 2.35031,-4.03292c0.24037,-0.10684 0.48075,-0.21367 0.72112,-0.26709c0.24037,-0.0534 0.45404,-0.0801 0.64099,-0.10683c0.16025,-0.0267 0.3205,-0.0534 0.42733,-0.10683c0.10683,-0.0534 0.16025,-0.13354 0.16025,-0.24037v-0.85466c0,-0.16025 0.08012,-0.26708 0.26708,-0.26708h0.6677c0.16025,0 0.26708,0.10683 0.26708,0.26708v0.82795c0,0.16025 0.05342,0.26708 0.16025,0.26708c0.10683,0.0267 0.29379,0.0534 0.58758,0.10683c0.56087,0.13354 1.06832,0.29379 1.49565,0.50746c0.42733,0.21366 0.77453,0.45403 1.06832,0.69441c0.26708,0.24037 0.48075,0.48074 0.641,0.72112c0.13354,0.26708 0.21366,0.48074 0.21366,0.64099c0,0.10683 -0.0534,0.18696 -0.13354,0.21366l-1.68261,0.85466c-0.0801,0.0534 -0.13354,0.0534 -0.16025,0.0534c-0.10683,0 -0.21366,-0.0801 -0.32049,-0.24037c-0.10684,-0.16025 -0.29379,-0.40062 -0.50746,-0.72112c-0.16025,-0.21367 -0.3472,-0.37391 -0.56087,-0.48075c-0.21366,-0.10683 -0.40062,-0.16025 -0.56087,-0.16025c-0.16025,0 -0.24037,0.10684 -0.24037,0.26709zM239.2166,176.69137v-3.76584c0,-0.16025 -0.08013,-0.26708 -0.18696,-0.26708c-0.21366,0 -0.40062,0.0801 -0.61429,0.18696c-0.21367,0.10683 -0.37391,0.26708 -0.53416,0.48074c-0.16025,0.21367 -0.29379,0.45404 -0.40062,0.72112c-0.10683,0.26708 -0.16025,0.56087 -0.16025,0.85466c0,0.26708 0.05342,0.53416 0.18696,0.80124c0.13354,0.26708 0.29379,0.48075 0.48075,0.6677c0.16025,0.18696 0.3472,0.34721 0.56087,0.45404c0.18696,0.10683 0.34721,0.16025 0.48075,0.16025c0.10683,0 0.18696,-0.0801 0.18696,-0.29379zM240.41846,185.26467c0,0.18696 0.08012,0.26708 0.24037,0.26708c0.21367,0 0.45404,-0.0534 0.6677,-0.18695c0.21367,-0.10684 0.42733,-0.29379 0.61429,-0.50746c0.16025,-0.21366 0.3205,-0.45404 0.42733,-0.74783c0.10683,-0.26708 0.18696,-0.58757 0.18696,-0.90807c0,-0.3205 -0.0801,-0.64099 -0.24038,-0.93478c-0.16024,-0.29379 -0.32049,-0.56087 -0.53416,-0.77454c-0.21366,-0.21366 -0.42733,-0.40062 -0.64099,-0.53416c-0.21367,-0.13354 -0.40062,-0.21367 -0.53416,-0.21367c-0.13355,0 -0.18696,0.10684 -0.18696,0.29379zM257.88557,183.18144c0,0.69441 -0.13354,1.3087 -0.3472,1.86957c-0.24038,0.56087 -0.56087,1.04161 -0.9882,1.44223c-0.42733,0.40063 -0.90808,0.69441 -1.49566,0.90808c-0.58757,0.21366 -1.25528,0.3205 -1.9764,0.3205h-0.80124c-0.74783,0 -1.38882,-0.10684 -1.9764,-0.3205c-0.58758,-0.21367 -1.09503,-0.50745 -1.52236,-0.90808c-0.42733,-0.40062 -0.74783,-0.88136 -0.96149,-1.44223c-0.24037,-0.56087 -0.34721,-1.17516 -0.34721,-1.86957v-8.27951c0,-0.6677 0.10684,-1.28199 0.34721,-1.84286c0.21366,-0.56087 0.53416,-1.04162 0.96149,-1.44224c0.42733,-0.40062 0.93478,-0.72112 1.52236,-0.93478c0.58758,-0.21367 1.22857,-0.3205 1.9764,-0.3205h0.80124c0.641,0 1.25529,0.10683 1.81616,0.29379c0.53416,0.18696 1.0149,0.42733 1.41552,0.69441c0.37392,0.29379 0.69441,0.58758 0.90808,0.90808c0.21366,0.32049 0.3205,0.58758 0.3205,0.82795c0,0.0801 -0.0534,0.13354 -0.16025,0.18695l-1.68261,0.85466c-0.0801,0.0534 -0.13354,0.0534 -0.16025,0.0534c-0.0534,0 -0.10683,0 -0.13354,-0.0534c-0.0267,-0.0267 -0.0534,-0.0801 -0.0801,-0.13354l-0.45403,-0.58757c-0.13354,-0.16025 -0.26708,-0.3205 -0.42733,-0.45404c-0.16025,-0.13354 -0.34721,-0.24038 -0.56087,-0.3205c-0.21367,-0.0801 -0.48075,-0.13354 -0.80125,-0.13354h-0.80124c-0.69441,0 -1.25528,0.24037 -1.70932,0.69441c-0.48074,0.48075 -0.69441,1.04162 -0.69441,1.70932v3.25839c0,0.21366 0.0534,0.29379 0.21367,0.29379c0.0534,0 0.13354,-0.0267 0.26708,-0.13354c0.13354,-0.0801 0.29379,-0.18696 0.50745,-0.29379c0.21367,-0.10684 0.45404,-0.21367 0.72112,-0.3205c0.26708,-0.0801 0.58758,-0.13354 0.96149,-0.13354h0.80125c0.64099,0 1.22857,0.13354 1.78944,0.3472c0.56087,0.21367 1.04161,0.53417 1.44224,0.93479c0.40062,0.40062 0.72111,0.88136 0.96149,1.44223c0.21366,0.56087 0.3472,1.17516 0.3472,1.81616zM255.48184,183.18144v-1.06832c0,-0.66771 -0.24037,-1.22858 -0.69441,-1.70932c-0.48074,-0.45404 -1.04161,-0.69441 -1.70932,-0.69441h-0.80124c-0.69441,0 -1.25528,0.24037 -1.70932,0.69441c-0.48074,0.48074 -0.69441,1.04161 -0.69441,1.70932v1.06832c0,0.69441 0.21367,1.25528 0.69441,1.70932c0.45404,0.48074 1.01491,0.69441 1.70932,0.69441h0.80124c0.80125,-0.16025 1.38883,-0.42733 1.78945,-0.85466c0.40062,-0.40062 0.61428,-0.90808 0.61428,-1.54907zM271.2396,183.31498c0,0.18696 -0.10683,0.26708 -0.26708,0.26708h-1.86956c-0.18696,0 -0.26708,0.10683 -0.26708,0.26708v3.33851c0,0.18696 -0.10684,0.26709 -0.26709,0.26709h-1.86956c-0.18696,0 -0.26708,-0.0801 -0.26708,-0.26709v-3.33851c0,-0.16025 -0.10684,-0.26708 -0.26708,-0.26708h-6.67703c-0.16025,0 -0.24037,-0.0534 -0.24037,-0.21366v-0.0534l0.0267,-1.86957l7.07764,-10.70994l0.21367,-0.10684h2.0031c0.16025,0 0.26709,0.10684 0.26709,0.26708v10.28262c0,0.18696 0.0801,0.26708 0.26708,0.26708h1.86956c0.16025,0 0.26708,0.10684 0.26708,0.26708zM266.43215,181.17833v-6.06274c0,-0.18695 -0.0801,-0.29379 -0.24038,-0.29379c-0.13354,0 -0.21366,0.0534 -0.24037,0.13354l-4.03292,6.06274c-0.0534,0.10684 -0.0801,0.16025 -0.0801,0.21367c0,0.16025 0.0801,0.21366 0.29379,0.21366h4.03293c0.16024,0 0.26708,-0.0801 0.26708,-0.26708zM275.99365,186.49324c0,1.44224 -0.34721,2.51057 -1.01491,3.25839c-0.37391,0.42733 -0.69441,0.72112 -0.9882,0.90808c-0.29379,0.18695 -0.50745,0.26708 -0.61429,0.26708c-0.0801,0 -0.13354,-0.0534 -0.18695,-0.18696l-0.37392,-0.77453l-0.0267,-0.0267c0,0 0,-0.0267 0,-0.0534c0,-0.0801 0.0534,-0.18695 0.16024,-0.29379c0.10684,-0.10683 0.24038,-0.26708 0.40063,-0.45403c0.16024,-0.18696 0.29379,-0.42733 0.40062,-0.69441c0.10683,-0.26709 0.18695,-0.58758 0.18695,-0.9882c0,-0.26709 -0.10683,-0.42733 -0.26708,-0.42733h-0.3472c-0.18696,0 -0.26708,-0.0801 -0.26708,-0.26709v-1.92298c0,-0.16025 0.0801,-0.26708 0.26708,-0.26708h2.40373c0.16025,0 0.26708,0.10683 0.26708,0.26708zM289.48122,183.18144c0,0.69441 -0.13354,1.3087 -0.34721,1.86957c-0.24037,0.56087 -0.56087,1.04161 -0.9882,1.44223c-0.42733,0.40063 -0.90807,0.69441 -1.49565,0.90808c-0.58758,0.21366 -1.25528,0.3205 -1.9764,0.3205h-0.80124c-0.74783,0 -1.38882,-0.10684 -1.9764,-0.3205c-0.58758,-0.21367 -1.09503,-0.50745 -1.52236,-0.90808c-0.42733,-0.40062 -0.74783,-0.88136 -0.96149,-1.44223c-0.24038,-0.56087 -0.34721,-1.17516 -0.34721,-1.86957v-8.27951c0,-0.6677 0.10683,-1.28199 0.34721,-1.84286c0.21366,-0.56087 0.53416,-1.04162 0.96149,-1.44224c0.42733,-0.40062 0.93478,-0.72112 1.52236,-0.93478c0.58758,-0.21367 1.22857,-0.3205 1.9764,-0.3205h0.80124c0.72112,0 1.38882,0.10683 1.9764,0.3205c0.58758,0.21366 1.06832,0.53416 1.49565,0.93478c0.42733,0.40062 0.74783,0.88137 0.9882,1.44224c0.21367,0.56087 0.34721,1.17516 0.34721,1.84286zM287.07749,183.18144v-8.27951c0,-0.6677 -0.24037,-1.22857 -0.69441,-1.70932c-0.48075,-0.45404 -1.04162,-0.69441 -1.70932,-0.69441h-0.80124c-0.69441,0 -1.25528,0.24037 -1.70932,0.69441c-0.48075,0.48075 -0.69441,1.04162 -0.69441,1.70932v8.27951c0,0.69441 0.21366,1.25528 0.69441,1.70932c0.45404,0.48074 1.01491,0.69441 1.70932,0.69441h0.80124c0.6677,0 1.22857,-0.21367 1.70932,-0.69441c0.45404,-0.45404 0.69441,-1.01491 0.69441,-1.70932zM303.5297,183.18144c0,0.69441 -0.13354,1.3087 -0.3472,1.86957c-0.24037,0.56087 -0.56087,1.04161 -0.9882,1.44223c-0.42733,0.40063 -0.90808,0.69441 -1.49565,0.90808c-0.58758,0.21366 -1.25529,0.3205 -1.9764,0.3205h-0.80125c-0.74782,0 -1.38882,-0.10684 -1.9764,-0.3205c-0.58757,-0.21367 -1.09503,-0.50745 -1.52236,-0.90808c-0.42733,-0.40062 -0.74782,-0.88136 -0.96149,-1.44223c-0.24037,-0.56087 -0.3472,-1.17516 -0.3472,-1.86957v-8.27951c0,-0.6677 0.10683,-1.28199 0.3472,-1.84286c0.21367,-0.56087 0.53416,-1.04162 0.96149,-1.44224c0.42733,-0.40062 0.93479,-0.72112 1.52236,-0.93478c0.58758,-0.21367 1.22858,-0.3205 1.9764,-0.3205h0.80125c0.72111,0 1.38882,0.10683 1.9764,0.3205c0.58757,0.21366 1.06832,0.53416 1.49565,0.93478c0.42733,0.40062 0.74783,0.88137 0.9882,1.44224c0.21366,0.56087 0.3472,1.17516 0.3472,1.84286zM301.12597,183.18144v-8.27951c0,-0.6677 -0.24037,-1.22857 -0.69441,-1.70932c-0.48074,-0.45404 -1.04161,-0.69441 -1.70931,-0.69441h-0.80125c-0.69441,0 -1.25528,0.24037 -1.70932,0.69441c-0.48074,0.48075 -0.69441,1.04162 -0.69441,1.70932v8.27951c0,0.69441 0.21367,1.25528 0.69441,1.70932c0.45404,0.48074 1.01491,0.69441 1.70932,0.69441h0.80125c0.6677,0 1.22857,-0.21367 1.70931,-0.69441c0.45404,-0.45404 0.69441,-1.01491 0.69441,-1.70932zM317.57819,183.18144c0,0.69441 -0.13354,1.3087 -0.3472,1.86957c-0.24038,0.56087 -0.56087,1.04161 -0.9882,1.44223c-0.42733,0.40063 -0.90808,0.69441 -1.49566,0.90808c-0.58757,0.21366 -1.25528,0.3205 -1.9764,0.3205h-0.80124c-0.74783,0 -1.38882,-0.10684 -1.9764,-0.3205c-0.58758,-0.21367 -1.09503,-0.50745 -1.52236,-0.90808c-0.42733,-0.40062 -0.74783,-0.88136 -0.96149,-1.44223c-0.24037,-0.56087 -0.34721,-1.17516 -0.34721,-1.86957v-8.27951c0,-0.6677 0.10684,-1.28199 0.34721,-1.84286c0.21366,-0.56087 0.53416,-1.04162 0.96149,-1.44224c0.42733,-0.40062 0.93478,-0.72112 1.52236,-0.93478c0.58758,-0.21367 1.22857,-0.3205 1.9764,-0.3205h0.80124c0.72112,0 1.38883,0.10683 1.9764,0.3205c0.58758,0.21366 1.06833,0.53416 1.49566,0.93478c0.42733,0.40062 0.74782,0.88137 0.9882,1.44224c0.21366,0.56087 0.3472,1.17516 0.3472,1.84286zM315.17446,183.18144v-8.27951c0,-0.6677 -0.24037,-1.22857 -0.69441,-1.70932c-0.48074,-0.45404 -1.04161,-0.69441 -1.70932,-0.69441h-0.80124c-0.69441,0 -1.25528,0.24037 -1.70932,0.69441c-0.48074,0.48075 -0.69441,1.04162 -0.69441,1.70932v8.27951c0,0.69441 0.21367,1.25528 0.69441,1.70932c0.45404,0.48074 1.01491,0.69441 1.70932,0.69441h0.80124c0.66771,0 1.22858,-0.21367 1.70932,-0.69441c0.45404,-0.45404 0.69441,-1.01491 0.69441,-1.70932z"/></g></g></svg>