<svg version="1.1" xmlns="http://www.w3.org/2000/svg" xmlns:xlink="http://www.w3.org/1999/xlink" width="178.89805" height="27.11675" viewBox="0,0,178.89805,27.11675"><defs><linearGradient x1="150.54332" y1="180" x2="329.44137" y2="180" gradientUnits="userSpaceOnUse" id="color-1"><stop offset="0" stop-color="#000a75"/><stop offset="1" stop-color="#39442d"/></linearGradient></defs><g transform="translate(-150.54332,-166.44162)"><g data-paper-data="{&quot;isPaintingLayer&quot;:true}" fill-rule="nonzero" stroke-linecap="butt" stroke-linejoin="miter" stroke-miterlimit="10" stroke-dasharray="" stroke-dashoffset="0" style="mix-blend-mode: normal"><path d="M151.21193,180.23443l11.5966,-13.2928h154.90881l11.07073,12.83554l-10.89246,13.28121h-155.09604z" fill="url(#color-1)" stroke="#80f7ff" stroke-width="1"/><path d="M225.57807,178.71498l0.24804,0.02067c1.14837,0.10106 2.02342,0.35829 2.62516,0.7717c0.31235,0.21589 0.55811,0.50757 0.73725,0.87505c0.18374,0.36289 0.27561,0.75104 0.27561,1.16445c0,0.63389 -0.18374,1.1851 -0.55122,1.65364c-0.36289,0.46854 -0.89113,0.82683 -1.58474,1.07487c-0.56959,0.2067 -1.15295,0.32384 -1.7501,0.3514v0.44787c0,0.14239 0.03216,0.25034 0.09646,0.32384c0.0643,0.0735 0.17914,0.13321 0.34451,0.17914v0.22048h-1.91547v-0.22048c0.16537,-0.04593 0.2802,-0.10565 0.34451,-0.17914c0.0643,-0.0735 0.09646,-0.18144 0.09646,-0.32384v-0.44787c-1.11162,-0.08268 -2.23931,-0.41111 -3.38308,-0.9853c-0.10106,-0.05052 -0.18144,-0.07579 -0.24115,-0.07579c-0.05972,0 -0.15388,0.05053 -0.2825,0.15158l-0.19982,-0.09646l1.01975,-2.30821l0.19982,0.08957c0,0.04593 0,0.07809 0,0.09646c0,0.24804 0.14469,0.47312 0.43408,0.67524c0.29857,0.2067 0.67754,0.38815 1.13688,0.54433c0.46394,0.15618 0.90261,0.25264 1.31602,0.28939v-2.34955c-0.67065,-0.0643 -1.17363,-0.13321 -1.50895,-0.20671c-0.33533,-0.0735 -0.64998,-0.18374 -0.94396,-0.33073c-0.4226,-0.2113 -0.75103,-0.52135 -0.98529,-0.93017c-0.21589,-0.37667 -0.32384,-0.80385 -0.32384,-1.28158c0,-0.88654 0.33532,-1.59853 1.00597,-2.13596c0.67524,-0.53743 1.59393,-0.82452 2.75608,-0.86127v-0.33762c0,-0.1378 -0.03216,-0.24345 -0.09646,-0.31695c-0.0643,-0.0735 -0.17914,-0.13321 -0.34451,-0.17915v-0.22048h1.92236v0.22048c-0.16996,0.04593 -0.28709,0.10565 -0.3514,0.17915c-0.0643,0.0735 -0.09646,0.17915 -0.09646,0.31695v0.37207c0.43178,0.03215 0.87275,0.11483 1.32291,0.24804c0.45475,0.13321 1.04041,0.3514 1.75699,0.65457c0.11943,0.05052 0.2136,0.07579 0.2825,0.07579c0.09646,0 0.20901,-0.05283 0.33762,-0.15848l0.19982,0.10335l-1.12999,2.21175l-0.19293,-0.11024c0.0046,-0.03674 0.0069,-0.07349 0.0069,-0.11024c0,-0.23426 -0.29628,-0.49839 -0.88884,-0.79237c-0.58796,-0.29857 -1.15295,-0.46854 -1.69499,-0.50987zM224.54454,178.59785v-2.07395c-0.37667,0.02756 -0.69131,0.08268 -0.94395,0.16537c-0.2802,0.09187 -0.50298,0.22967 -0.66835,0.41341c-0.16537,0.18374 -0.24805,0.38355 -0.24805,0.59945c0,0.16537 0.05742,0.31235 0.17225,0.44097c0.11483,0.12861 0.27102,0.22049 0.46854,0.27561c0.27561,0.07809 0.68213,0.13781 1.21956,0.17915zM225.57807,180.77515v2.23931c0.45476,-0.05052 0.82452,-0.1447 1.10932,-0.2825c0.52365,-0.25724 0.78548,-0.60634 0.78548,-1.04731c0,-0.14699 -0.04823,-0.2825 -0.1447,-0.40652c-0.09187,-0.12861 -0.2113,-0.21818 -0.35829,-0.26871c-0.25724,-0.09187 -0.72117,-0.16995 -1.39182,-0.23426zM233.02636,178.47382v-2.50113h0.22048c0.05052,0.16995 0.09876,0.28019 0.1447,0.33073c0.04593,0.05052 0.11713,0.07579 0.21359,0.07579c0.04593,0 0.11024,-0.00919 0.19293,-0.02756l0.59256,-0.15158v-0.40653c0,-0.1378 -0.03216,-0.24345 -0.09646,-0.31695c-0.0643,-0.0735 -0.17914,-0.13321 -0.34451,-0.17914v-0.22049h2.87321v0.22049c-0.16537,0.04593 -0.2802,0.10565 -0.34451,0.17914c-0.0643,0.0689 -0.09646,0.17455 -0.09646,0.31695v7.96506c0,0.14239 0.03216,0.25034 0.09646,0.32384c0.0643,0.0735 0.17915,0.13321 0.34451,0.17915v0.22049h-2.87321v-0.22049c0.16537,-0.04593 0.2802,-0.10565 0.34451,-0.17915c0.0643,-0.0735 0.09646,-0.18144 0.09646,-0.32383v-5.95312l-0.64767,0.15847c-0.15159,0.03674 -0.26183,0.08957 -0.33073,0.15848c-0.0643,0.0689 -0.11943,0.18603 -0.16537,0.3514zM243.91975,174.9116c1.23564,0 2.26228,0.40193 3.07991,1.20578c0.9187,0.90491 1.37804,2.14744 1.37804,3.72759c0,0.49609 -0.0689,0.99908 -0.20671,1.50895c-0.1378,0.50987 -0.32613,0.95314 -0.56499,1.32981c-0.418,0.66146 -0.96922,1.16444 -1.65365,1.50895c-0.60634,0.30317 -1.28157,0.45475 -2.02571,0.45475c-1.23564,0 -2.25998,-0.40422 -3.07302,-1.21267c-0.39044,-0.39044 -0.69362,-0.83141 -0.90951,-1.32291c-0.31235,-0.72576 -0.46853,-1.50436 -0.46853,-2.33578c0,-1.1208 0.25724,-2.09002 0.7717,-2.90765c0.40422,-0.64768 0.95544,-1.14837 1.65365,-1.50207c0.57878,-0.29398 1.25171,-0.44556 2.01882,-0.45475zM243.91975,176.51012c-0.73036,0 -1.31143,0.32384 -1.74322,0.97152c-0.39962,0.60174 -0.59944,1.34818 -0.59944,2.23931c0,0.89113 0.19982,1.63756 0.59944,2.23931c0.43178,0.64767 1.01515,0.97152 1.75011,0.97152c0.73955,0 1.32291,-0.32384 1.75011,-0.97152c0.39963,-0.60174 0.59944,-1.3344 0.59944,-2.19797c0,-0.93247 -0.19982,-1.69268 -0.59944,-2.28065c-0.42719,-0.63849 -1.01286,-0.96233 -1.757,-0.97152zM253.98631,174.9116c1.23564,0 2.26228,0.40193 3.07991,1.20578c0.91869,0.90491 1.37804,2.14744 1.37804,3.72759c0,0.49609 -0.0689,0.99908 -0.20671,1.50895c-0.1378,0.50987 -0.32613,0.95314 -0.56499,1.32981c-0.418,0.66146 -0.96922,1.16444 -1.65364,1.50895c-0.60634,0.30317 -1.28158,0.45475 -2.02572,0.45475c-1.23564,0 -2.25998,-0.40422 -3.07302,-1.21267c-0.39044,-0.39044 -0.69362,-0.83141 -0.90951,-1.32291c-0.31236,-0.72576 -0.46853,-1.50436 -0.46853,-2.33578c0,-1.1208 0.25723,-2.09002 0.7717,-2.90765c0.40422,-0.64768 0.95544,-1.14837 1.65365,-1.50207c0.57878,-0.29398 1.25172,-0.44556 2.01882,-0.45475zM253.98631,176.51012c-0.73036,0 -1.31144,0.32384 -1.74322,0.97152c-0.39963,0.60174 -0.59944,1.34818 -0.59944,2.23931c0,0.89113 0.19981,1.63756 0.59944,2.23931c0.43178,0.64767 1.01515,0.97152 1.75011,0.97152c0.73955,0 1.32291,-0.32384 1.75011,-0.97152c0.39962,-0.60174 0.59944,-1.3344 0.59944,-2.19797c0,-0.93247 -0.19982,-1.69268 -0.59944,-2.28065c-0.4272,-0.63849 -1.01286,-0.96233 -1.757,-0.97152z" fill="#ffdb29" stroke="none" stroke-width="1"/><path d="M195.80849,179.82775c0,1.64866 -1.34403,2.98517 -3.00198,2.98517c-0.79618,0 -1.55974,-0.3145 -2.12273,-0.87434c-0.56298,-0.55983 -0.87926,-1.31912 -0.87926,-2.11084c0,-0.79172 0.31628,-1.55101 0.87926,-2.11084c0.56298,-0.55983 1.32655,-0.87434 2.12273,-0.87434c1.65795,0 3.00198,1.33651 3.00198,2.98517z" fill="#ffdb29" stroke="none" stroke-width="2"/><path d="M289.07774,180c0,1.64866 -1.34403,2.98517 -3.00198,2.98517c-1.65795,0 -3.00198,-1.33651 -3.00198,-2.98517c0,-1.64866 1.34403,-2.98517 3.00198,-2.98517c1.65795,0 3.00198,1.33651 3.00198,2.98517z" fill="#ffdb29" stroke="none" stroke-width="2"/></g></g></svg>