<svg version="1.1" xmlns="http://www.w3.org/2000/svg" xmlns:xlink="http://www.w3.org/1999/xlink" width="6.96006" height="9.20017" viewBox="0,0,6.96006,9.20017"><g transform="translate(-130.44758,-170.75463)"><g data-paper-data="{&quot;isPaintingLayer&quot;:true}" fill="#000000" fill-rule="evenodd" stroke="#000000" stroke-width="0" stroke-linecap="round" stroke-linejoin="miter" stroke-miterlimit="10" stroke-dasharray="" stroke-dashoffset="0" style="mix-blend-mode: normal"><path d="M137.20762,179.95476h-1.2c-0.02667,0.00034 -0.05326,-0.00302 -0.079,-0.01c-0.059,-0.017 -0.097,-0.055 -0.112,-0.116c-0.00612,-0.02419 -0.00914,-0.04905 -0.009,-0.074v-0.26c0.00016,-0.02509 -0.00152,-0.05015 -0.005,-0.075c-0.009,-0.06 -0.029,-0.101 -0.062,-0.124c-0.02154,-0.01446 -0.04707,-0.02181 -0.073,-0.021c-0.078,0 -0.17,0.035 -0.274,0.106c-0.002,0.00133 -0.004,0.00266 -0.006,0.004c-0.092,0.063 -0.198,0.129 -0.319,0.197c-0.02027,0.01112 -0.0406,0.02212 -0.061,0.033c-0.147,0.08 -0.313,0.157 -0.5,0.23c-0.13731,0.05329 -0.28135,0.08728 -0.428,0.101c-0.06381,0.00615 -0.12789,0.00915 -0.192,0.009h-0.78c-0.21478,0.00099 -0.42914,-0.01911 -0.64,-0.06c-0.15349,-0.03018 -0.30406,-0.07367 -0.45,-0.13c-0.21332,-0.08152 -0.4153,-0.19007 -0.601,-0.323c-0.08388,-0.06039 -0.16371,-0.12619 -0.239,-0.197c-0.233,-0.22 -0.413,-0.483 -0.54,-0.79c-0.1082,-0.26525 -0.17075,-0.54689 -0.185,-0.833c-0.00323,-0.05561 -0.0049,-0.1113 -0.005,-0.167v-0.12c-0.0012,-0.21553 0.02365,-0.43043 0.074,-0.64c0.02932,-0.11956 0.06811,-0.23659 0.116,-0.35c0.127,-0.3 0.307,-0.56 0.54,-0.78c0.233,-0.22 0.513,-0.393 0.84,-0.52c0.23172,-0.0886 0.47417,-0.1461 0.721,-0.171c0.12258,-0.01285 0.24575,-0.0192 0.369,-0.019h2.3c0.02667,0.00034 0.05326,-0.00302 0.079,-0.01c0.059,-0.017 0.097,-0.055 0.113,-0.116c0.00578,-0.02423 0.00847,-0.04909 0.008,-0.074l-0.02,-0.56c-0.0098,-0.22967 -0.05779,-0.4561 -0.142,-0.67c-0.08899,-0.22042 -0.22088,-0.42096 -0.388,-0.59c-0.27787,-0.28382 -0.64905,-0.45751 -1.045,-0.489c-0.07477,-0.00743 -0.14986,-0.0111 -0.225,-0.011c-0.12886,-0.00079 -0.25738,0.01331 -0.383,0.042c-0.08113,0.01903 -0.16043,0.04513 -0.237,0.078c-0.10017,0.04227 -0.19514,0.09596 -0.283,0.16c-0.06428,0.04719 -0.12358,0.1008 -0.177,0.16c-0.05335,0.05637 -0.10602,0.11337 -0.158,0.171c-0.112,0.125 -0.203,0.234 -0.273,0.327c-0.02028,0.02689 -0.03995,0.05423 -0.059,0.082c-0.01867,0.02739 -0.03835,0.05407 -0.059,0.08c-0.074,0.094 -0.138,0.14 -0.191,0.14c-0.00842,-0.00012 -0.01679,-0.00113 -0.025,-0.003c-0.025,-0.005 -0.056,-0.018 -0.095,-0.037l-1.22,-0.64c-0.01947,-0.00939 -0.0379,-0.02078 -0.055,-0.034c-0.043,-0.035 -0.065,-0.077 -0.065,-0.126c0.00064,-0.02273 0.00434,-0.04526 0.011,-0.067c0.019,-0.068 0.064,-0.162 0.133,-0.282c0.02142,-0.03734 0.04343,-0.07434 0.066,-0.111c0.05312,-0.08487 0.11193,-0.16606 0.176,-0.243c0.067,-0.081 0.142,-0.164 0.228,-0.25c0.09222,-0.09228 0.18761,-0.18133 0.286,-0.267c0.32854,-0.28515 0.71772,-0.49171 1.138,-0.604c0.369,-0.104 0.783,-0.156 1.242,-0.156c0.36738,-0.00274 0.73383,0.03719 1.092,0.119c0.56875,0.12582 1.09312,0.40251 1.518,0.801c0.54093,0.51303 0.8807,1.20249 0.958,1.944c0.01947,0.15795 0.03016,0.31686 0.032,0.476l0.02,2.64v3.02c0.00034,0.02667 -0.00302,0.05326 -0.01,0.079c-0.023,0.081 -0.086,0.121 -0.19,0.121zM135.60762,176.53476v-0.08c0.00034,-0.02667 -0.00302,-0.05326 -0.01,-0.079c-0.023,-0.081 -0.086,-0.121 -0.19,-0.121h-2.3c-0.253,0 -0.463,0.083 -0.63,0.25c-0.167,0.167 -0.25,0.377 -0.25,0.63v0.32c0,0.267 0.083,0.483 0.25,0.65c0.15435,0.15537 0.36304,0.24465 0.582,0.249c0.01599,0.00068 0.03199,0.00101 0.048,0.001h0.78c0.52699,0.00884 1.0225,-0.25021 1.316,-0.688c0.121,-0.167 0.228,-0.363 0.322,-0.59c0.02185,-0.05354 0.04252,-0.10755 0.062,-0.162z"/></g></g></svg>