<svg version="1.1" xmlns="http://www.w3.org/2000/svg" xmlns:xlink="http://www.w3.org/1999/xlink" width="178.89804" height="27.11675" viewBox="0,0,178.89804,27.11675"><g transform="translate(-150.54331,-166.44162)"><g stroke-miterlimit="10"><path d="M151.21193,180.23442l11.59659,-13.2928h154.90881l11.07073,12.83554l-10.89246,13.28121h-155.09604z" fill="#ffad00" stroke="#80f7ff"/><path d="M176.87479,183.26939l0.73036,0.75792c0.16536,0.17455 0.27561,0.2825 0.33073,0.32384c0.05971,0.03675 0.12861,0.05512 0.2067,0.05512c0.06431,0 0.16996,-0.02986 0.31695,-0.08957l0.14469,0.16536l-2.01194,1.83279l-0.15158,-0.16536c0.09187,-0.15158 0.1378,-0.26412 0.1378,-0.33762c0,-0.08268 -0.12862,-0.2779 -0.38585,-0.58567l-0.81304,-0.99219c-0.67983,0.27561 -1.50665,0.41341 -2.48047,0.41341c-1.60312,0 -2.88469,-0.44327 -3.84472,-1.32981c-0.51447,-0.47313 -0.90491,-1.04042 -1.17133,-1.70187c-0.23427,-0.58337 -0.3514,-1.1966 -0.3514,-1.83968c0,-0.94166 0.24345,-1.80063 0.73036,-2.57693c0.94625,-1.52503 2.50573,-2.28754 4.67844,-2.28754c1.63068,0 2.92374,0.44327 3.87918,1.32981c0.51447,0.47313 0.90491,1.03812 1.17133,1.69499c0.23427,0.58337 0.3514,1.1966 0.3514,1.83968c0,1.38263 -0.4892,2.54707 -1.46761,3.49332zM175.51743,181.89824c0.48691,-0.60634 0.73036,-1.31602 0.73036,-2.12907c0,-1.01515 -0.3537,-1.83738 -1.06109,-2.46669c-0.59256,-0.53284 -1.34129,-0.79926 -2.2462,-0.79926c-0.9095,0 -1.66054,0.26642 -2.25309,0.79926c-0.70739,0.6339 -1.06109,1.45842 -1.06109,2.47358c0,1.01975 0.3537,1.84427 1.06109,2.47358c0.59715,0.53284 1.35048,0.79926 2.25998,0.79926c0.43179,0 0.85438,-0.0735 1.26779,-0.22049c-0.05053,-0.06431 -0.09416,-0.11943 -0.13091,-0.16536c-0.48691,-0.62471 -1.06109,-1.01515 -1.72255,-1.17133v-0.19293c0.33073,-0.25723 0.70739,-0.38585 1.12999,-0.38585c0.30317,0 0.60404,0.0735 0.90261,0.22049c0.30317,0.14699 0.67753,0.40193 1.1231,0.76481zM187.74751,177.46785v4.08588c0,0.93247 -0.18374,1.6169 -0.55121,2.05327c-0.59256,0.69361 -1.70877,1.04042 -3.34863,1.04042c-1.09784,0 -1.98437,-0.16766 -2.65961,-0.50298c-0.48691,-0.24345 -0.81993,-0.59026 -0.99908,-1.04042c-0.16536,-0.41341 -0.24805,-0.93018 -0.24805,-1.55029v-4.08588c0,-0.1424 -0.03215,-0.25034 -0.09646,-0.32384c-0.06431,-0.0735 -0.17914,-0.13551 -0.34451,-0.18604v-0.19293h2.7354v0.19293c-0.16996,0.04593 -0.28709,0.10795 -0.3514,0.18604c-0.06431,0.0735 -0.09646,0.18144 -0.09646,0.32384v3.71381c0,0.43178 0.03675,0.76251 0.11024,0.99219c0.07809,0.22967 0.2113,0.418 0.39963,0.56499c0.37666,0.29857 0.92099,0.44786 1.63297,0.44786c0.71199,0 1.25631,-0.14929 1.63297,-0.44786c0.18374,-0.14699 0.31235,-0.33532 0.38585,-0.56499c0.0735,-0.22967 0.11024,-0.5604 0.11024,-0.99219v-3.71381c0,-0.1424 -0.03215,-0.25034 -0.09646,-0.32384c-0.05971,-0.0735 -0.17455,-0.13551 -0.34451,-0.18604v-0.19293h2.57004v0.19293c-0.16536,0.04593 -0.2802,0.10795 -0.34451,0.18604c-0.06431,0.0735 -0.09646,0.18144 -0.09646,0.32384zM191.6818,177.46785v6.31141c0,0.1424 0.03215,0.25264 0.09646,0.33073c0.06431,0.0735 0.17914,0.13551 0.34451,0.18604v0.18604h-2.72851v-0.19293c0.16077,-0.04134 0.27331,-0.10106 0.33762,-0.17915c0.0689,-0.07809 0.10335,-0.18833 0.10335,-0.33073v-6.31141c0,-0.1424 -0.03215,-0.25034 -0.09646,-0.32384c-0.06431,-0.0735 -0.17914,-0.13551 -0.34451,-0.18604v-0.19293h2.72851v0.19293c-0.16536,0.04593 -0.2802,0.10795 -0.34451,0.18604c-0.06431,0.0735 -0.09646,0.18144 -0.09646,0.32384zM201.02489,181.7191l1.16444,1.69499l-0.15848,0.11713c-0.11024,-0.07809 -0.19752,-0.11713 -0.26183,-0.11713c-0.07809,0 -0.25953,0.08498 -0.54432,0.25494c-0.6293,0.36748 -1.18511,0.62241 -1.66743,0.76481c-0.48231,0.1424 -1.03812,0.2136 -1.66743,0.2136c-1.25861,0 -2.28525,-0.30087 -3.07991,-0.90261c-0.45016,-0.34451 -0.80845,-0.77629 -1.07487,-1.29536c-0.28479,-0.5604 -0.42719,-1.16904 -0.42719,-1.8259c0,-0.90491 0.26183,-1.70417 0.78548,-2.39778c0.82223,-1.08406 2.08313,-1.62608 3.78271,-1.62608c0.6293,0 1.18741,0.0712 1.67432,0.2136c0.4915,0.1424 1.0496,0.39733 1.67432,0.76481c0.28479,0.16996 0.46624,0.25494 0.54432,0.25494c0.06431,0 0.15158,-0.03904 0.26183,-0.11713l0.15848,0.12402l-1.16444,1.68809l-0.15158,-0.11024c0.0046,-0.05512 0.00919,-0.08957 0.01378,-0.10335c0.0046,-0.04134 0.0069,-0.0712 0.0069,-0.08957c0,-0.22508 -0.31006,-0.48002 -0.93018,-0.76481c-0.58796,-0.27101 -1.18052,-0.40652 -1.77767,-0.40652c-0.83601,0 -1.52503,0.22049 -2.06706,0.66146c-0.62012,0.49609 -0.93018,1.13229 -0.93018,1.90858c0,0.78089 0.31006,1.41938 0.93018,1.91547c0.54662,0.43638 1.23564,0.65457 2.06706,0.65457c0.65227,0 1.30224,-0.16307 1.94992,-0.4892c0.50528,-0.25723 0.75792,-0.48231 0.75792,-0.67524c0,-0.00919 -0.00689,-0.07349 -0.02067,-0.19293zM206.41991,180.96118l-1.09554,0.89572v1.92236c0,0.1424 0.03215,0.25264 0.09646,0.33073c0.06431,0.0735 0.17914,0.13551 0.34451,0.18604v0.18604h-2.72851v-0.19293c0.16077,-0.04134 0.27331,-0.10106 0.33762,-0.17915c0.0689,-0.07809 0.10335,-0.18833 0.10335,-0.33073v-6.31141c0,-0.1424 -0.03215,-0.25034 -0.09646,-0.32384c-0.06431,-0.0735 -0.17914,-0.13551 -0.34451,-0.18604v-0.19293h2.72851v0.19293c-0.16536,0.04593 -0.2802,0.10794 -0.34451,0.18604c-0.06431,0.0735 -0.09646,0.18144 -0.09646,0.32384v2.5287l2.90077,-2.3151c0.21589,-0.16996 0.32384,-0.31925 0.32384,-0.44786c0,-0.1378 -0.13321,-0.22967 -0.39963,-0.27561v-0.19293h3.47265v0.18604c-0.17455,0.02756 -0.32154,0.08038 -0.44097,0.15847c-0.11484,0.07809 -0.40422,0.31925 -0.86816,0.72347l-2.60449,2.07395l2.86632,3.29351c0.36748,0.42719 0.6293,0.7051 0.78548,0.83371c0.16077,0.12862 0.34451,0.21589 0.55121,0.26183v0.18604h-3.37619v-0.18604c0.25264,-0.05971 0.37896,-0.15158 0.37896,-0.27561c0,-0.04593 -0.01608,-0.08957 -0.04823,-0.13091c-0.02756,-0.04593 -0.13321,-0.17455 -0.31695,-0.38585zM221.57143,174.91159c1.63986,0 2.93981,0.44327 3.89984,1.32981c1.01515,0.92788 1.52273,2.12677 1.52273,3.59668c0,0.90032 -0.24345,1.74092 -0.73036,2.52181c-0.95085,1.52503 -2.51033,2.28754 -4.67844,2.28754c-1.62608,0 -2.91914,-0.44327 -3.87917,-1.32981c-0.51447,-0.47313 -0.90491,-1.04042 -1.17133,-1.70188c-0.23427,-0.58337 -0.3514,-1.1966 -0.3514,-1.83968c0,-0.94166 0.24116,-1.80293 0.72347,-2.58382c0.92329,-1.49287 2.47817,-2.25309 4.66466,-2.28065zM221.57833,176.50323c-0.89572,0 -1.64216,0.26642 -2.23931,0.79926c-0.70739,0.6293 -1.06109,1.45383 -1.06109,2.47358c0,1.01975 0.3537,1.84427 1.06109,2.47358c0.59715,0.53284 1.34818,0.79926 2.25309,0.79926c0.90491,0 1.65364,-0.26642 2.2462,-0.79926c0.3537,-0.31695 0.62471,-0.7051 0.81304,-1.16444c0.16536,-0.40882 0.24805,-0.83142 0.24805,-1.26779c0,-1.06568 -0.3537,-1.90399 -1.06109,-2.51492c-0.60174,-0.52365 -1.35507,-0.79007 -2.25998,-0.79926zM230.5907,181.31258v2.46669c0,0.1424 0.03215,0.25264 0.09646,0.33073c0.06431,0.0735 0.17914,0.13551 0.34451,0.18604v0.18604h-2.72851v-0.19293c0.16077,-0.04134 0.27331,-0.10106 0.33762,-0.17915c0.0689,-0.07809 0.10335,-0.18833 0.10335,-0.33073v-6.31141c0,-0.1424 -0.03215,-0.25034 -0.09646,-0.32384c-0.06431,-0.0735 -0.17914,-0.13551 -0.34451,-0.18604v-0.19293h5.0574c0.65686,0 1.15755,0.03445 1.50206,0.10335c0.34451,0.06431 0.65227,0.18374 0.92329,0.35829c0.55581,0.36288 0.83371,0.95544 0.83371,1.77767c0,0.62471 -0.17225,1.11391 -0.51676,1.46761c-0.33992,0.3491 -0.89113,0.60174 -1.65364,0.75792l1.46072,2.03949c0.26642,0.37666 0.47772,0.6339 0.6339,0.7717c0.16077,0.13321 0.34221,0.21819 0.54433,0.25494v0.18604h-3.23839v-0.18604c0.23886,-0.06431 0.35829,-0.16766 0.35829,-0.31006c0,-0.10106 -0.0735,-0.25494 -0.22049,-0.46164l-1.5434,-2.21175zM230.5907,179.91387h2.78364c0.4226,0 0.73495,-0.04593 0.93706,-0.1378c0.28479,-0.12402 0.42719,-0.36977 0.42719,-0.73725c0,-0.32614 -0.10106,-0.55351 -0.30317,-0.68213c-0.19752,-0.12862 -0.55121,-0.19293 -1.06109,-0.19293h-2.78364zM238.45929,183.77926v-6.31141c0,-0.1424 -0.03215,-0.25034 -0.09646,-0.32384c-0.06431,-0.0735 -0.17914,-0.13551 -0.34451,-0.18604v-0.19293h4.52685c0.94166,0 1.6835,0.11713 2.22553,0.3514c0.76251,0.33073 1.31143,0.87735 1.64675,1.63987c0.23427,0.53284 0.3514,1.15525 0.3514,1.86724c0,1.31832 -0.39274,2.3174 -1.17822,2.99723c-0.35369,0.30317 -0.7717,0.52365 -1.25401,0.66146c-0.47772,0.13321 -1.07487,0.19982 -1.79145,0.19982h-4.52685v-0.19293c0.16077,-0.04134 0.27331,-0.10106 0.33762,-0.17915c0.0689,-0.07809 0.10335,-0.18833 0.10335,-0.33073zM240.30586,183.08335h1.97059c0.90491,0 1.56178,-0.20671 1.97059,-0.62012c0.42719,-0.43178 0.64079,-1.04501 0.64079,-1.83968c0,-0.79467 -0.2136,-1.40789 -0.64079,-1.83968c-0.21129,-0.21589 -0.47312,-0.37207 -0.78548,-0.46853c-0.31235,-0.10106 -0.70739,-0.15158 -1.18511,-0.15158h-1.97059zM250.23461,181.20233v1.88102h4.89893c0.14239,0 0.25034,-0.03215 0.32384,-0.09646c0.07809,-0.06431 0.1401,-0.18144 0.18603,-0.3514h0.19293v2.28754h-0.19293c-0.04133,-0.16077 -0.10105,-0.27561 -0.17914,-0.34451c-0.07809,-0.06431 -0.18834,-0.09646 -0.33073,-0.09646h-7.18647v-0.19293c0.16077,-0.04134 0.27331,-0.10106 0.33762,-0.17915c0.0689,-0.07809 0.10335,-0.18833 0.10335,-0.33073v-6.31141c0,-0.1424 -0.03217,-0.25034 -0.0965,-0.32384c-0.06433,-0.0735 -0.17917,-0.13551 -0.34451,-0.18604v-0.19293h6.97287c0.14699,0 0.25724,-0.03215 0.33073,-0.09646c0.07809,-0.06431 0.1401,-0.17914 0.18603,-0.34451h0.18604v2.28754h-0.18604c-0.04593,-0.16996 -0.10794,-0.28709 -0.18603,-0.3514c-0.07349,-0.06431 -0.18374,-0.09646 -0.33073,-0.09646h-4.68533v1.69499h2.90766c0.1424,0 0.25035,-0.03215 0.32384,-0.09646c0.07809,-0.06431 0.1424,-0.17914 0.19293,-0.34451h0.18603v2.23242h-0.186c-0.04593,-0.16536 -0.10795,-0.2802 -0.18604,-0.34451c-0.07349,-0.0689 -0.18374,-0.10335 -0.33073,-0.10335zM259.28832,181.31258v2.46669c0,0.1424 0.03217,0.25264 0.0965,0.33073c0.06433,0.0735 0.17917,0.13551 0.34451,0.18604v0.18604h-2.72851v-0.19293c0.16077,-0.04134 0.27331,-0.10105 0.33762,-0.17915c0.0689,-0.07809 0.10335,-0.18833 0.10335,-0.33073v-6.31141c0,-0.1424 -0.03217,-0.25034 -0.0965,-0.32384c-0.06433,-0.0735 -0.17917,-0.13551 -0.34451,-0.18604v-0.19293h5.05739c0.65687,0 1.15755,0.03445 1.50206,0.10335c0.34451,0.06431 0.65228,0.18374 0.92329,0.35829c0.55581,0.36288 0.83371,0.95544 0.83371,1.77767c0,0.62471 -0.17225,1.11391 -0.51676,1.46761c-0.33992,0.3491 -0.89114,0.60174 -1.65365,0.75792l1.46072,2.0395c0.26642,0.37666 0.47772,0.6339 0.6339,0.7717c0.16077,0.13321 0.34221,0.21819 0.54432,0.25494v0.18604h-3.23838v-0.18604c0.23886,-0.06431 0.35829,-0.16766 0.35829,-0.31006c0,-0.10106 -0.0735,-0.25494 -0.22049,-0.46164l-1.5434,-2.21175zM259.28832,179.91387h2.78363c0.4226,0 0.73496,-0.04593 0.93707,-0.1378c0.28479,-0.12402 0.42719,-0.36977 0.42719,-0.73725c0,-0.32614 -0.10106,-0.55351 -0.30317,-0.68213c-0.19752,-0.12862 -0.55122,-0.19293 -1.06109,-0.19293h-2.78363zM278.75309,181.09898h-2.32199c-0.14239,0 -0.25034,0.03215 -0.32384,0.09646c-0.0689,0.06431 -0.12632,0.17914 -0.17225,0.34451h-0.22049v-2.19108h0.22049c0.04593,0.16996 0.10335,0.28709 0.17225,0.3514c0.0735,0.05971 0.18145,0.08957 0.32384,0.08957h4.46484v0.22049c-0.16536,0.04593 -0.28249,0.10565 -0.3514,0.17915c-0.06433,0.0735 -0.0965,0.18144 -0.0965,0.32384v1.92925c0,0.1424 0.03217,0.25034 0.0965,0.32384c0.06433,0.0735 0.18147,0.13321 0.3514,0.17914v0.17226c-1.78685,1.01975 -3.51859,1.52962 -5.1952,1.52962c-1.52043,0 -2.76067,-0.36059 -3.7207,-1.08176c-1.20808,-0.9095 -1.81212,-2.17271 -1.81212,-3.7896c0,-1.50665 0.53744,-2.70555 1.61231,-3.59668c1.01975,-0.8452 2.37482,-1.26779 4.06521,-1.26779c0.53743,0 1.04271,0.05053 1.51584,0.15158c0.47772,0.09646 1.01975,0.26183 1.62608,0.49609c0.31235,0.12402 0.53514,0.18604 0.66835,0.18604c0.09646,0 0.209,-0.05282 0.33762,-0.15847l0.19292,0.10335l-1.10243,2.25309l-0.19981,-0.10335c-0.00467,-0.15158 -0.02533,-0.25953 -0.062,-0.32384c-0.03673,-0.0689 -0.11942,-0.15158 -0.24805,-0.24805c-0.2802,-0.2113 -0.69131,-0.39044 -1.23334,-0.53743c-0.54203,-0.15158 -1.05421,-0.22738 -1.53652,-0.22738c-0.983,0 -1.79834,0.27561 -2.44601,0.82682c-0.73036,0.62471 -1.09554,1.44924 -1.09554,2.47358c0,0.99219 0.35599,1.79375 1.06798,2.40467c0.65227,0.5604 1.51124,0.8406 2.57693,0.8406c0.51906,0 1.03123,-0.05971 1.53651,-0.17915c0.50528,-0.11943 0.94166,-0.2825 1.30913,-0.4892zM288.17198,182.55281h-3.54845l-0.39963,0.8406c-0.09646,0.20211 -0.14469,0.36059 -0.14469,0.47542c0,0.22049 0.14699,0.36059 0.44097,0.4203v0.19293h-2.83876v-0.19293c0.17455,-0.02756 0.30317,-0.08039 0.38585,-0.15847c0.08728,-0.07809 0.18834,-0.23197 0.30317,-0.46164l2.81809,-5.70507c0.10565,-0.21589 0.15847,-0.40422 0.15847,-0.565c0,-0.18833 -0.12862,-0.33532 -0.38585,-0.44097v-0.19293h2.99723v0.19293c-0.25264,0.10106 -0.37896,0.25723 -0.37896,0.46853c0,0.15158 0.05742,0.33762 0.17226,0.55811l2.92144,5.53282c0.16077,0.30317 0.28709,0.50069 0.37896,0.59256c0.09187,0.08728 0.23197,0.14929 0.4203,0.18604v0.18604h-3.14882v-0.18604c0.29857,-0.05053 0.44786,-0.19063 0.44786,-0.4203c0,-0.1424 -0.05742,-0.31924 -0.17225,-0.53054zM287.61387,181.47105l-1.2609,-2.47358l-1.19889,2.47358zM297.04654,184.24091l-2.8112,-4.83002v4.36838c0,0.1424 0.03217,0.25264 0.0965,0.33073c0.06433,0.0735 0.17917,0.13551 0.34451,0.18604v0.18604h-2.56315v-0.19293c0.16077,-0.04134 0.27331,-0.10106 0.33762,-0.17915c0.06891,-0.07809 0.10336,-0.18833 0.10336,-0.33073v-6.31141c0,-0.1424 -0.03217,-0.25034 -0.0965,-0.32384c-0.06433,-0.07809 -0.17917,-0.1401 -0.34451,-0.18604v-0.19293h3.25906v0.19293c-0.21589,0.0689 -0.32384,0.19982 -0.32384,0.39274c0,0.18833 0.07809,0.418 0.23427,0.68902l1.92236,3.24528l1.93614,-3.19705c0.22049,-0.36288 0.33073,-0.62012 0.33073,-0.7717c0,-0.18833 -0.11254,-0.30776 -0.33762,-0.35829v-0.19293h3.17638v0.19293c-0.16537,0.04593 -0.2802,0.10795 -0.34451,0.18604c-0.06433,0.0735 -0.0965,0.18144 -0.0965,0.32384v6.31141c0,0.1424 0.03217,0.25264 0.0965,0.33073c0.06433,0.07809 0.17917,0.1401 0.34451,0.18604v0.18604h-2.72851v-0.19293c0.16077,-0.04134 0.27331,-0.10105 0.33762,-0.17915c0.0689,-0.07809 0.10335,-0.18833 0.10335,-0.33073v-4.36838zM305.95555,181.20233v1.88102h4.89892c0.14239,0 0.25034,-0.03215 0.32384,-0.09646c0.07809,-0.06431 0.1401,-0.18144 0.18603,-0.3514h0.19293v2.28754h-0.19293c-0.04133,-0.16077 -0.10105,-0.27561 -0.17914,-0.34451c-0.07809,-0.06431 -0.18834,-0.09646 -0.33073,-0.09646h-7.18646v-0.19293c0.16077,-0.04134 0.2733,-0.10106 0.33761,-0.17915c0.06891,-0.07809 0.10336,-0.18833 0.10336,-0.33073v-6.31141c0,-0.1424 -0.03217,-0.25034 -0.0965,-0.32384c-0.06433,-0.0735 -0.17917,-0.13551 -0.3445,-0.18604v-0.19293h6.97286c0.14699,0 0.25724,-0.03215 0.33073,-0.09646c0.07809,-0.06431 0.1401,-0.17914 0.18604,-0.34451h0.18603v2.28754h-0.18603c-0.04593,-0.16996 -0.10795,-0.28709 -0.18604,-0.3514c-0.07349,-0.06431 -0.18374,-0.09646 -0.33073,-0.09646h-4.68532v1.69499h2.90765c0.1424,0 0.25035,-0.03215 0.32384,-0.09646c0.07809,-0.06431 0.1424,-0.17914 0.19293,-0.34451h0.18603v2.23242h-0.18603c-0.04593,-0.16536 -0.10795,-0.2802 -0.18604,-0.34451c-0.07349,-0.0689 -0.18374,-0.10335 -0.33073,-0.10335z" fill="#ffffff" stroke="none"/></g></g></svg>