<svg version="1.1" xmlns="http://www.w3.org/2000/svg" xmlns:xlink="http://www.w3.org/1999/xlink" width="7.76005" height="13.00007" viewBox="0,0,7.76005,13.00007"><g transform="translate(-287.96852,-167.2247)"><g data-paper-data="{&quot;isPaintingLayer&quot;:true}" fill="#000000" fill-rule="evenodd" stroke="#000000" stroke-width="0" stroke-linecap="round" stroke-linejoin="miter" stroke-miterlimit="10" stroke-dasharray="" stroke-dashoffset="0" style="mix-blend-mode: normal"><path d="M292.12853,180.22475h-0.84c-0.21383,0.00069 -0.42752,-0.01101 -0.64,-0.035c-0.228,-0.027 -0.442,-0.068 -0.64,-0.125c-0.1321,-0.03726 -0.26198,-0.082 -0.389,-0.134c-0.131,-0.054 -0.249,-0.114 -0.355,-0.179c-0.05376,-0.03303 -0.10583,-0.06874 -0.156,-0.107c-0.254,-0.201 -0.464,-0.392 -0.632,-0.574c-0.08161,-0.08722 -0.15775,-0.1794 -0.228,-0.276c-0.04329,-0.06024 -0.08399,-0.1223 -0.122,-0.186c-0.075,-0.125 -0.124,-0.237 -0.145,-0.334c-0.00831,-0.03609 -0.01266,-0.07297 -0.013,-0.11c0,-0.052 0.037,-0.097 0.112,-0.136c0.00266,-0.00136 0.00532,-0.00269 0.008,-0.004l1.26,-0.64c0.00928,-0.00477 0.01862,-0.00943 0.028,-0.014c0.027,-0.012 0.047,-0.02 0.06,-0.024c0.00358,-0.00106 0.00727,-0.00173 0.011,-0.002c0.045,0 0.092,0.031 0.145,0.093c0.01263,0.01518 0.02463,0.03086 0.036,0.047l0.33,0.44c0.1,0.133 0.21,0.253 0.33,0.36c0.11507,0.10181 0.24705,0.18269 0.39,0.239c0.00996,0.00377 0.01996,0.00744 0.03,0.011c0.07845,0.02897 0.15949,0.0504 0.242,0.064c0.078,0.013 0.16,0.021 0.248,0.024c0.02999,0.00123 0.05999,0.00189 0.09,0.002h0.84c0.47453,0.00689 0.93148,-0.17936 1.266,-0.516c0.00133,-0.00133 0.00267,-0.00266 0.004,-0.004c0.33929,-0.32478 0.53081,-0.77432 0.53,-1.244c0.0001,-0.012 0.0001,-0.024 0,-0.036c0.00062,-0.13067 -0.01245,-0.26105 -0.039,-0.389c-0.02521,-0.12168 -0.06588,-0.23963 -0.121,-0.351c-0.07513,-0.14805 -0.17037,-0.28502 -0.283,-0.407c-0.05875,-0.06456 -0.12119,-0.12566 -0.187,-0.183c-0.207,-0.18 -0.46,-0.35 -0.76,-0.51c-0.14917,-0.07958 -0.29918,-0.15759 -0.45,-0.234c-0.159,-0.08 -0.326,-0.163 -0.504,-0.249c-0.02532,-0.01236 -0.05065,-0.0247 -0.076,-0.037c-0.25395,-0.12034 -0.50566,-0.24537 -0.755,-0.375c-0.22441,-0.1166 -0.44614,-0.2383 -0.665,-0.365c-0.413,-0.24 -0.76,-0.503 -1.04,-0.79c-0.27712,-0.28215 -0.49177,-0.61946 -0.63,-0.99c-0.131,-0.35 -0.201,-0.759 -0.209,-1.226c-0.00061,-0.03133 -0.00094,-0.06267 -0.001,-0.094c0,-0.507 0.087,-0.97 0.26,-1.39c0.173,-0.42 0.417,-0.78 0.73,-1.08c0.28109,-0.2671 0.60931,-0.4797 0.968,-0.627c0.05349,-0.02228 0.10751,-0.04329 0.162,-0.063c0.28705,-0.10273 0.58504,-0.17186 0.888,-0.206c0.1965,-0.02294 0.39417,-0.0343 0.592,-0.034h0.32c0.26509,-0.00116 0.52977,0.02092 0.791,0.066c0.1898,0.03333 0.37671,0.08148 0.559,0.144c0.19416,0.0661 0.38389,0.1446 0.568,0.235c0.16774,0.08249 0.32889,0.17777 0.482,0.285c0.1218,0.08509 0.23773,0.17831 0.347,0.279c0.115,0.107 0.215,0.218 0.298,0.332c0.01191,0.01615 0.02359,0.03249 0.035,0.049c0.04706,0.06773 0.08949,0.13855 0.127,0.212c0.075,0.15 0.113,0.29 0.113,0.418c0,0.04374 -0.01898,0.08533 -0.052,0.114c-0.014,0.014 -0.031,0.026 -0.052,0.037c-0.00526,0.00313 -0.01059,0.00613 -0.016,0.009l-1.28,0.64c-0.023,0.012 -0.051,0.018 -0.084,0.02c-0.00534,0.00012 -0.01066,0.00012 -0.016,0c-0.01735,-0.00025 -0.03443,-0.00434 -0.05,-0.012c-0.029,-0.013 -0.058,-0.039 -0.088,-0.077c-0.0077,-0.01007 -0.01504,-0.02041 -0.022,-0.031c-0.10802,-0.14649 -0.22143,-0.28892 -0.34,-0.427c-0.10785,-0.12602 -0.2213,-0.24714 -0.34,-0.363c-0.1281,-0.12207 -0.28388,-0.21129 -0.454,-0.26c-0.114,-0.035 -0.24,-0.056 -0.378,-0.065c-0.04926,-0.00326 -0.09862,-0.00493 -0.148,-0.005h-0.32c-0.24,0 -0.47,0.047 -0.69,0.14c-0.22,0.093 -0.413,0.22 -0.58,0.38c-0.16759,0.16135 -0.30032,0.35535 -0.39,0.57c-0.093,0.22 -0.14,0.457 -0.14,0.71c0,0.267 0.06,0.497 0.18,0.69c0.0713,0.11371 0.15517,0.21903 0.25,0.314c0.08117,0.08142 0.16807,0.15695 0.26,0.226c0.22,0.167 0.493,0.327 0.82,0.48c0.17262,0.08111 0.34528,0.1621 0.518,0.243c0.19062,0.08909 0.38129,0.17809 0.572,0.267c0.516,0.232 0.963,0.477 1.341,0.734c0.01303,0.00862 0.02603,0.01729 0.039,0.026c0.20846,0.14285 0.40631,0.3006 0.592,0.472c0.13448,0.12434 0.26075,0.25729 0.378,0.398c0.26,0.313 0.453,0.66 0.58,1.04c0.06971,0.21289 0.11926,0.43185 0.148,0.654c0.02862,0.21749 0.04266,0.43664 0.042,0.656c0.00137,0.27967 -0.02781,0.55866 -0.087,0.832c-0.04114,0.18748 -0.09904,0.37088 -0.173,0.548c-0.173,0.413 -0.417,0.77 -0.73,1.07c-0.27132,0.2578 -0.58531,0.46656 -0.928,0.617c-0.06652,0.02961 -0.13388,0.05728 -0.202,0.083c-0.29359,0.10969 -0.59956,0.1829 -0.911,0.218c-0.18887,0.02179 -0.37887,0.03248 -0.569,0.032z"/></g></g></svg>