<svg version="1.1" xmlns="http://www.w3.org/2000/svg" xmlns:xlink="http://www.w3.org/1999/xlink" width="4.60005" height="0.90008" viewBox="0,0,4.60005,0.90008"><g transform="translate(-254.88316,-183.20452)"><g data-paper-data="{&quot;isPaintingLayer&quot;:true}" fill="#000000" fill-rule="evenodd" stroke="#000000" stroke-width="0" stroke-linecap="round" stroke-linejoin="miter" stroke-miterlimit="10" stroke-dasharray="" stroke-dashoffset="0" style="mix-blend-mode: normal"><path d="M259.28318,184.10455h-4.2c-0.02667,0.00034 -0.05326,-0.00302 -0.079,-0.01c-0.059,-0.017 -0.097,-0.056 -0.112,-0.116c-0.00612,-0.02419 -0.00914,-0.04905 -0.009,-0.074v-0.5c-0.00034,-0.02667 0.00302,-0.05326 0.01,-0.079c0.017,-0.059 0.056,-0.097 0.116,-0.112c0.02419,-0.00612 0.04905,-0.00914 0.074,-0.009h4.2c0.02667,-0.00034 0.05326,0.00302 0.079,0.01c0.059,0.017 0.097,0.056 0.112,0.116c0.00612,0.02419 0.00914,0.04905 0.009,0.074v0.5c0.00034,0.02667 -0.00302,0.05326 -0.01,0.079c-0.017,0.059 -0.056,0.097 -0.116,0.113c-0.02423,0.00578 -0.04909,0.00847 -0.074,0.008z"/></g></g></svg>