<svg version="1.1" xmlns="http://www.w3.org/2000/svg" xmlns:xlink="http://www.w3.org/1999/xlink" width="80.94081" height="8.83333" viewBox="0,0,80.94081,8.83333"><g transform="translate(-201.7435,-165.56332)"><g data-paper-data="{&quot;isPaintingLayer&quot;:true}" fill-rule="nonzero" stroke="none" stroke-linecap="butt" stroke-linejoin="miter" stroke-miterlimit="10" stroke-dasharray="" stroke-dashoffset="0" style="mix-blend-mode: normal"><path d="M205.8168,169.95856v2.06048c0,0.10947 0.02472,0.19422 0.07416,0.25425c0.04944,0.0565 0.13772,0.10417 0.26484,0.14302v0.14301h-2.09756v-0.14301c0.12712,-0.03531 0.21541,-0.08122 0.26484,-0.13772c0.04944,-0.06003 0.07416,-0.14655 0.07416,-0.25955v-2.06048l-1.75857,-2.42067c-0.19775,-0.27191 -0.35666,-0.4573 -0.47672,-0.55617c-0.11653,-0.10241 -0.25602,-0.17127 -0.41845,-0.20658v-0.14831h2.66962v0.14831c-0.22953,0.06003 -0.3443,0.16774 -0.3443,0.32311c0,0.07769 0.08298,0.23306 0.24895,0.46613l0.86339,1.19709l0.8422,-1.19709c0.16597,-0.23659 0.24895,-0.39373 0.24895,-0.47142c0,-0.14831 -0.113,-0.25425 -0.339,-0.31781l-0.0053,-0.14831h2.5425v0.14831c-0.16244,0.03531 -0.30369,0.10417 -0.42375,0.20658c-0.11653,0.09888 -0.27367,0.28427 -0.47142,0.55617zM214.92213,166.4997c0.94284,0 1.72855,0.24013 2.35711,0.72037c0.75216,0.57913 1.12824,1.38602 1.12824,2.42067c0,0.97109 -0.37608,1.7462 -1.12824,2.32533c-0.6215,0.48025 -1.40367,0.72038 -2.34652,0.72038c-0.94284,0 -1.72502,-0.24013 -2.34652,-0.72038c-0.75569,-0.57912 -1.13353,-1.37012 -1.13353,-2.373c0,-1.01347 0.37784,-1.80447 1.13353,-2.373c0.62503,-0.46966 1.40367,-0.70978 2.33592,-0.72037zM214.92743,167.62263c-0.61091,0 -1.10881,0.19598 -1.49372,0.58795c-0.35666,0.36725 -0.53498,0.82808 -0.53498,1.38248c0,0.55088 0.17833,1.00994 0.53498,1.37719c0.38491,0.3955 0.88458,0.59325 1.49902,0.59325c0.61091,0 1.10881,-0.19775 1.49372,-0.59325c0.35666,-0.36372 0.53498,-0.81395 0.53498,-1.3507c0,-0.58266 -0.17833,-1.05231 -0.53498,-1.40897c-0.38844,-0.38491 -0.88811,-0.58089 -1.49902,-0.58795zM228.25436,167.16709v3.14105c0,0.71684 -0.14125,1.243 -0.42375,1.57847c-0.45553,0.53322 -1.31362,0.79983 -2.57428,0.79983c-0.84397,0 -1.5255,-0.12889 -2.04459,-0.38667c-0.37431,-0.18716 -0.63033,-0.45377 -0.76805,-0.79983c-0.12713,-0.31781 -0.19069,-0.71508 -0.19069,-1.1918v-3.14105c0,-0.10947 -0.02472,-0.19245 -0.07416,-0.24895c-0.04944,-0.0565 -0.13772,-0.10417 -0.26484,-0.14302v-0.14831h2.10286v0.14831c-0.13066,0.03531 -0.2207,0.08299 -0.27014,0.14302c-0.04944,0.0565 -0.07416,0.13948 -0.07416,0.24895v2.85501c0,0.33194 0.02825,0.58619 0.08475,0.76275c0.06003,0.17656 0.16244,0.32134 0.30722,0.43434c0.28956,0.22953 0.70802,0.3443 1.25536,0.3443c0.54734,0 0.9658,-0.11477 1.25536,-0.3443c0.14125,-0.113 0.24013,-0.25778 0.29663,-0.43434c0.0565,-0.17656 0.08475,-0.43081 0.08475,-0.76275v-2.85501c0,-0.10947 -0.02472,-0.19245 -0.07416,-0.24895c-0.04591,-0.0565 -0.13419,-0.10417 -0.26484,-0.14302v-0.14831h1.97573v0.14831c-0.12712,0.03531 -0.21541,0.08299 -0.26484,0.14302c-0.04944,0.0565 -0.07416,0.13948 -0.07416,0.24895zM242.15337,171.0762h-2.72789l-0.30722,0.64622c-0.07416,0.15538 -0.11124,0.2772 -0.11124,0.36548c0,0.1695 0.113,0.2772 0.339,0.32311v0.14831h-2.18231v-0.14831c0.13419,-0.02119 0.23306,-0.0618 0.29663,-0.12183c0.06709,-0.06003 0.14478,-0.17833 0.23306,-0.35489l2.16642,-4.38581c0.08122,-0.16597 0.12183,-0.31075 0.12183,-0.43434c0,-0.14478 -0.09888,-0.25778 -0.29663,-0.339v-0.14831h2.30414v0.14831c-0.19421,0.07769 -0.29132,0.19775 -0.29132,0.36019c0,0.11653 0.04414,0.25955 0.13242,0.42905l2.24587,4.25339c0.12359,0.23306 0.2207,0.38491 0.29133,0.45553c0.07063,0.06709 0.17833,0.11477 0.32311,0.14302v0.14301h-2.42067v-0.14301c0.22953,-0.03885 0.3443,-0.14655 0.3443,-0.32311c0,-0.10947 -0.04414,-0.24542 -0.13243,-0.40786zM241.72432,170.24459l-0.96933,-1.90158l-0.92165,1.90158zM249.65374,170.12276v1.89628c0,0.10947 0.02473,0.19422 0.0742,0.25425c0.04947,0.0565 0.13775,0.10417 0.26484,0.14302v0.14302h-2.09756v-0.14831c0.12359,-0.03178 0.21011,-0.07769 0.25954,-0.13772c0.053,-0.06003 0.0795,-0.14478 0.0795,-0.25425v-4.85194c0,-0.10947 -0.02473,-0.19245 -0.0742,-0.24895c-0.04947,-0.0565 -0.13775,-0.10417 -0.26484,-0.14302v-0.14831h3.8879c0.50497,0 0.88988,0.02648 1.15472,0.07945c0.26485,0.04944 0.50144,0.14125 0.70978,0.27544c0.42729,0.27897 0.64093,0.7345 0.64093,1.36659c0,0.48025 -0.13242,0.85633 -0.39727,1.12823c-0.26131,0.26838 -0.68506,0.46259 -1.27125,0.58266l1.12294,1.56788c0.20481,0.28956 0.36725,0.48731 0.48731,0.59325c0.12359,0.10241 0.26308,0.16773 0.41845,0.19598v0.14302h-2.48953v-0.14302c0.18363,-0.04944 0.27544,-0.12889 0.27544,-0.23836c0,-0.07769 -0.0565,-0.19598 -0.1695,-0.35489l-1.1865,-1.7003zM249.65374,169.04749h2.13994c0.32487,0 0.565,-0.03531 0.72037,-0.10594c0.21894,-0.09534 0.32841,-0.28427 0.32841,-0.56677c0,-0.25072 -0.07769,-0.42552 -0.23306,-0.52439c-0.15185,-0.09888 -0.42375,-0.14831 -0.81572,-0.14831h-2.13994zM259.81315,170.03801v1.44605h3.76607c0.10947,0 0.19246,-0.02472 0.24896,-0.07416c0.06,-0.04944 0.10767,-0.13949 0.14301,-0.27014h0.14831v1.75856h-0.14831c-0.0318,-0.12359 -0.07771,-0.21187 -0.13772,-0.26484c-0.06,-0.04944 -0.14475,-0.07416 -0.25425,-0.07416h-5.52464v-0.14831c0.12359,-0.03178 0.21011,-0.07769 0.25955,-0.13772c0.053,-0.06003 0.0795,-0.14478 0.0795,-0.25425v-4.85194c0,-0.10947 -0.02473,-0.19245 -0.0742,-0.24895c-0.04947,-0.0565 -0.13775,-0.10417 -0.26485,-0.14302v-0.14831h5.36044c0.113,0 0.19775,-0.02472 0.25425,-0.07416c0.06007,-0.04944 0.10774,-0.13772 0.14302,-0.26484h0.14301v1.75856h-0.14301c-0.03533,-0.13066 -0.08301,-0.2207 -0.14302,-0.27014c-0.05647,-0.04944 -0.14122,-0.07416 -0.25425,-0.07416h-3.60187v1.30303h2.23528c0.10947,0 0.19245,-0.02472 0.24895,-0.07416c0.06,-0.04944 0.10944,-0.13772 0.14831,-0.26484h0.14302v1.71619h-0.14302c-0.03533,-0.12713 -0.083,-0.21541 -0.14301,-0.26484c-0.05647,-0.05297 -0.14122,-0.07945 -0.25425,-0.07945zM277.64773,171.0762h-2.7279l-0.30721,0.64622c-0.07416,0.15538 -0.11124,0.2772 -0.11124,0.36548c0,0.1695 0.113,0.2772 0.339,0.32311v0.14831h-2.18231v-0.14831c0.13419,-0.02119 0.23306,-0.0618 0.29662,-0.12183c0.06709,-0.06003 0.14478,-0.17833 0.23307,-0.35489l2.16642,-4.38581c0.08122,-0.16597 0.12183,-0.31075 0.12183,-0.43434c0,-0.14478 -0.09888,-0.25778 -0.29663,-0.339v-0.14831h2.30414v0.14831c-0.19422,0.07769 -0.29133,0.19775 -0.29133,0.36019c0,0.11653 0.04414,0.25955 0.13243,0.42905l2.24587,4.25339c0.12359,0.23306 0.2207,0.38491 0.29133,0.45553c0.07063,0.06709 0.17833,0.11477 0.32311,0.14302v0.14301h-2.42067v-0.14301c0.22953,-0.03885 0.34429,-0.14655 0.34429,-0.32311c0,-0.10947 -0.04414,-0.24542 -0.13242,-0.40786zM277.21868,170.24459l-0.96933,-1.90158l-0.92166,1.90158z" fill="#ffdb29" stroke-width="0.76876"/><path d="M229.51764,174.39665v-8.83333h53.16667v8.83333z" fill="#000000" stroke-width="0"/></g></g></svg>