<svg version="1.1" xmlns="http://www.w3.org/2000/svg" xmlns:xlink="http://www.w3.org/1999/xlink" width="178.89805" height="27.11675" viewBox="0,0,178.89805,27.11675"><defs><linearGradient x1="150.54332" y1="180" x2="329.44137" y2="180" gradientUnits="userSpaceOnUse" id="color-1"><stop offset="0" stop-color="#000a75"/><stop offset="1" stop-color="#39442d"/></linearGradient></defs><g transform="translate(-150.54332,-166.44163)"><g stroke-miterlimit="10"><path d="M151.21193,180.23442l11.59659,-13.2928h154.90881l11.07073,12.83554l-10.89246,13.28121h-155.09604z" fill="url(#color-1)" stroke="#80f7ff" stroke-width="1"/><path d="M212.65208,181.25057l1.30914,1.9637l-0.17914,0.12402c-0.12862,-0.11943 -0.23427,-0.17915 -0.31695,-0.17915c-0.08268,0 -0.31465,0.11024 -0.69591,0.33073c-0.79007,0.45475 -1.45613,0.76251 -1.99815,0.92328c-0.53743,0.15618 -1.17822,0.23427 -1.92236,0.23427c-1.48369,0 -2.70095,-0.3514 -3.6518,-1.0542c-0.5604,-0.40882 -1.00137,-0.91639 -1.32292,-1.52273c-0.37207,-0.69361 -0.55811,-1.45842 -0.55811,-2.29443c0,-1.13918 0.33303,-2.12907 0.99908,-2.96967c1.00137,-1.2632 2.51492,-1.8948 4.54063,-1.8948c0.74414,0 1.38263,0.07809 1.91547,0.23427c0.53284,0.15618 1.19889,0.46394 1.99815,0.92329c0.38126,0.21589 0.61323,0.32384 0.69591,0.32384c0.08268,0 0.18833,-0.05972 0.31695,-0.17915l0.17915,0.12402l-1.30914,1.9637l-0.18603,-0.12402c0.00919,-0.0735 0.01378,-0.13551 0.01378,-0.18604c0,-0.13321 -0.05742,-0.25723 -0.17225,-0.37207c-0.11484,-0.11943 -0.31925,-0.26183 -0.61323,-0.42719c-0.81304,-0.45935 -1.67431,-0.68902 -2.58382,-0.68902c-1.07487,0 -1.93155,0.26872 -2.57004,0.80615c-0.75333,0.6293 -1.12999,1.45153 -1.12999,2.46669c0,1.01515 0.37666,1.83738 1.12999,2.46669c0.63849,0.53743 1.49517,0.80615 2.57004,0.80615c0.9095,0 1.77078,-0.22967 2.58382,-0.68902c0.29398,-0.16536 0.49839,-0.30547 0.61323,-0.4203c0.11484,-0.11943 0.17225,-0.24575 0.17225,-0.37896c0,-0.05053 -0.00459,-0.11024 -0.01378,-0.17915zM219.54227,176.59969c1.22645,0 2.2485,0.31236 3.06613,0.93707c0.97841,0.75333 1.46761,1.80293 1.46761,3.14881c0,1.2632 -0.4892,2.27146 -1.46761,3.02479c-0.80845,0.62471 -1.8259,0.93707 -3.05235,0.93707c-1.22645,0 -2.2439,-0.31236 -3.05235,-0.93707c-0.983,-0.75333 -1.4745,-1.78226 -1.4745,-3.0868c0,-1.31832 0.4915,-2.34726 1.4745,-3.0868c0.81304,-0.61093 1.8259,-0.92329 3.03857,-0.93707zM219.54917,178.06041c-0.79467,0 -1.44235,0.25494 -1.94303,0.76481c-0.46394,0.47772 -0.69591,1.07717 -0.69591,1.79834c0,0.71658 0.23197,1.31373 0.69591,1.79145c0.50069,0.51447 1.15066,0.7717 1.94992,0.7717c0.79467,0 1.44235,-0.25723 1.94303,-0.7717c0.46394,-0.47313 0.69591,-1.05879 0.69591,-1.757c0,-0.75792 -0.23197,-1.36885 -0.69591,-1.83279c-0.50528,-0.50069 -1.15526,-0.75562 -1.94992,-0.76481zM227.54867,181.31258v2.46669c0,0.1424 0.03215,0.25264 0.09646,0.33073c0.06431,0.0735 0.17914,0.13551 0.34451,0.18604v0.18604h-2.72851v-0.19293c0.16077,-0.04134 0.27331,-0.10106 0.33762,-0.17915c0.0689,-0.07809 0.10335,-0.18833 0.10335,-0.33073v-6.31141c0,-0.1424 -0.03215,-0.25034 -0.09646,-0.32384c-0.06431,-0.0735 -0.17914,-0.13551 -0.34451,-0.18604v-0.19293h5.0574c0.65686,0 1.15755,0.03445 1.50206,0.10335c0.34451,0.06431 0.65227,0.18374 0.92329,0.35829c0.55581,0.36288 0.83371,0.95544 0.83371,1.77767c0,0.62471 -0.17225,1.11391 -0.51676,1.46761c-0.33992,0.3491 -0.89113,0.60174 -1.65364,0.75792l1.46072,2.03949c0.26642,0.37666 0.47772,0.6339 0.6339,0.7717c0.16077,0.13321 0.34221,0.21819 0.54432,0.25494v0.18604h-3.23839v-0.18604c0.23886,-0.06431 0.35829,-0.16766 0.35829,-0.31006c0,-0.10106 -0.0735,-0.25494 -0.22049,-0.46164l-1.5434,-2.21175zM227.54867,179.91387h2.78364c0.4226,0 0.73495,-0.04593 0.93706,-0.1378c0.28479,-0.12402 0.42719,-0.36977 0.42719,-0.73725c0,-0.32614 -0.10106,-0.55351 -0.30317,-0.68213c-0.19752,-0.12862 -0.55122,-0.19293 -1.06109,-0.19293h-2.78364zM237.26384,181.31258v2.46669c0,0.1424 0.03215,0.25264 0.09646,0.33073c0.06431,0.0735 0.17914,0.13551 0.34451,0.18604v0.18604h-2.72851v-0.19293c0.16077,-0.04134 0.27331,-0.10106 0.33762,-0.17915c0.0689,-0.07809 0.10335,-0.18833 0.10335,-0.33073v-6.31141c0,-0.1424 -0.03215,-0.25034 -0.09646,-0.32384c-0.06431,-0.0735 -0.17914,-0.13551 -0.34451,-0.18604v-0.19293h5.0574c0.65686,0 1.15755,0.03445 1.50206,0.10335c0.34451,0.06431 0.65227,0.18374 0.92328,0.35829c0.55581,0.36288 0.83371,0.95544 0.83371,1.77767c0,0.62471 -0.17225,1.11391 -0.51676,1.46761c-0.33991,0.3491 -0.89113,0.60174 -1.65365,0.75792l1.46072,2.03949c0.26642,0.37666 0.47772,0.6339 0.6339,0.7717c0.16077,0.13321 0.34222,0.21819 0.54433,0.25494v0.18604h-3.23839v-0.18604c0.23886,-0.06431 0.35829,-0.16766 0.35829,-0.31006c0,-0.10106 -0.0735,-0.25494 -0.22049,-0.46164l-1.5434,-2.21175zM237.26384,179.91387h2.78364c0.42259,0 0.73495,-0.04593 0.93706,-0.1378c0.28479,-0.12402 0.42719,-0.36977 0.42719,-0.73725c0,-0.32614 -0.10106,-0.55351 -0.30317,-0.68213c-0.19751,-0.12862 -0.55121,-0.19293 -1.06108,-0.19293h-2.78365zM246.979,181.20233v1.88102h4.89892c0.1424,0 0.25035,-0.03215 0.32384,-0.09646c0.07809,-0.06431 0.1401,-0.18144 0.18603,-0.3514h0.19293v2.28754h-0.19293c-0.04133,-0.16077 -0.10105,-0.27561 -0.17914,-0.34451c-0.07809,-0.06431 -0.18833,-0.09646 -0.33073,-0.09646h-7.18646v-0.19293c0.16077,-0.04134 0.27331,-0.10106 0.33762,-0.17915c0.0689,-0.07809 0.10335,-0.18833 0.10335,-0.33073v-6.31141c0,-0.1424 -0.03217,-0.25034 -0.0965,-0.32384c-0.06433,-0.0735 -0.17917,-0.13551 -0.34451,-0.18604v-0.19293h6.97287c0.14699,0 0.25723,-0.03215 0.33072,-0.09646c0.07809,-0.06431 0.14011,-0.17914 0.18604,-0.34451h0.18603v2.28754h-0.18603c-0.04593,-0.16996 -0.10795,-0.28709 -0.18604,-0.3514c-0.07349,-0.06431 -0.18373,-0.09646 -0.33072,-0.09646h-4.68533v1.69499h2.90766c0.14239,0 0.25034,-0.03215 0.32384,-0.09646c0.07809,-0.06431 0.14239,-0.17914 0.19292,-0.34451h0.18604v2.23242h-0.18604c-0.04593,-0.16536 -0.10794,-0.2802 -0.18603,-0.34451c-0.0735,-0.0689 -0.18374,-0.10335 -0.33073,-0.10335zM261.28992,181.7191l1.16444,1.69499l-0.15848,0.11713c-0.11024,-0.07809 -0.19751,-0.11713 -0.26182,-0.11713c-0.07809,0 -0.25954,0.08498 -0.54433,0.25494c-0.6293,0.36748 -1.18511,0.62241 -1.66742,0.76481c-0.48231,0.1424 -1.03812,0.2136 -1.66743,0.2136c-1.25861,0 -2.28524,-0.30087 -3.07991,-0.90261c-0.45016,-0.34451 -0.80845,-0.77629 -1.07487,-1.29536c-0.28479,-0.5604 -0.42719,-1.16904 -0.42719,-1.8259c0,-0.90491 0.26183,-1.70417 0.78548,-2.39778c0.82223,-1.08406 2.08313,-1.62608 3.78271,-1.62608c0.62931,0 1.18741,0.0712 1.67432,0.2136c0.4915,0.1424 1.0496,0.39733 1.67431,0.76481c0.28479,0.16996 0.46624,0.25494 0.54433,0.25494c0.06433,0 0.15161,-0.03904 0.26182,-0.11713l0.15848,0.12402l-1.16444,1.68809l-0.15159,-0.11024c0.00467,-0.05512 0.00927,-0.08957 0.0138,-0.10335c0.00467,-0.04134 0.007,-0.0712 0.007,-0.08957c0,-0.22508 -0.31006,-0.48002 -0.93017,-0.76481c-0.58796,-0.27101 -1.18052,-0.40652 -1.77767,-0.40652c-0.83601,0 -1.52502,0.22049 -2.06705,0.66146c-0.62012,0.49609 -0.93018,1.13229 -0.93018,1.90858c0,0.78089 0.31006,1.41938 0.93018,1.91547c0.54662,0.43638 1.23564,0.65457 2.06705,0.65457c0.65227,0 1.30225,-0.16307 1.94992,-0.4892c0.50528,-0.25723 0.75792,-0.48231 0.75792,-0.67524c0,-0.00919 -0.0069,-0.07349 -0.0207,-0.19293zM267.83559,178.16376v5.6155c0,0.1424 0.03217,0.25264 0.0965,0.33073c0.06433,0.0735 0.17917,0.13551 0.34451,0.18604v0.18604h-2.72852v-0.19293c0.16077,-0.04134 0.27331,-0.10106 0.33762,-0.17915c0.0689,-0.07809 0.10335,-0.18833 0.10335,-0.33073v-5.6155h-2.27376c-0.14699,0 -0.25953,0.03445 -0.33762,0.10335c-0.07349,0.06431 -0.13321,0.17914 -0.17914,0.34451h-0.18604v-2.28754h0.19293c0.04133,0.16077 0.09875,0.27561 0.17225,0.34451c0.07809,0.06431 0.19063,0.09646 0.33762,0.09646h6.39409c0.14699,0 0.25724,-0.03215 0.33073,-0.09646c0.07809,-0.06431 0.14011,-0.17914 0.18604,-0.34451h0.18603v2.28754h-0.18603c-0.04593,-0.16536 -0.10795,-0.2802 -0.18604,-0.34451c-0.07349,-0.0689 -0.18374,-0.10335 -0.33073,-0.10335zM274.49841,181.17477h-1.80523v-0.22049c0.18833,-0.05053 0.30776,-0.10565 0.35829,-0.16537c0.05053,-0.06431 0.0758,-0.17685 0.0758,-0.33762c0,-0.09646 -0.0069,-0.19982 -0.0207,-0.31006l-0.50299,-4.23746c-0.02753,-0.24345 -0.06658,-0.39733 -0.11713,-0.46164c-0.04593,-0.06431 -0.15847,-0.11254 -0.33762,-0.14469v-0.22049h2.89388v0.22049c-0.17915,0.03215 -0.29398,0.08038 -0.34451,0.14469c-0.04593,0.06431 -0.08268,0.21819 -0.11024,0.46164l-0.50299,4.23746c-0.0138,0.11024 -0.0207,0.2136 -0.0207,0.31006c0,0.16536 0.02527,0.2779 0.0758,0.33762c0.05053,0.05971 0.16996,0.11483 0.35829,0.16537zM273.59579,182.38745c0.31695,0 0.58337,0.11024 0.79926,0.33073c0.22049,0.22049 0.33073,0.4892 0.33073,0.80615c0,0.30776 -0.11254,0.57189 -0.33762,0.79237c-0.22049,0.22049 -0.48461,0.33073 -0.79237,0.33073c-0.31235,0 -0.57877,-0.11024 -0.79926,-0.33073c-0.22049,-0.22508 -0.33073,-0.4938 -0.33073,-0.80615c0,-0.30776 0.10795,-0.56959 0.32384,-0.78548c0.22049,-0.22049 0.4892,-0.33302 0.80615,-0.33762z" fill="#ffdb29" stroke="none" stroke-width="1"/><path d="M195.80849,179.82774c0,1.64867 -1.34403,2.98517 -3.00198,2.98517c-0.79618,0 -1.55974,-0.31451 -2.12272,-0.87434c-0.56298,-0.55983 -0.87926,-1.31912 -0.87926,-2.11084c0,-0.79172 0.31628,-1.55101 0.87926,-2.11084c0.56298,-0.55983 1.32655,-0.87434 2.12272,-0.87434c1.65795,0 3.00198,1.33651 3.00198,2.98517z" fill="#ffdb29" stroke="none" stroke-width="2"/><path d="M289.07774,180c0,1.64866 -1.34403,2.98517 -3.00198,2.98517c-1.65795,0 -3.00198,-1.33651 -3.00198,-2.98517c0,-1.64866 1.34403,-2.98517 3.00198,-2.98517c1.65795,0 3.00198,1.33651 3.00198,2.98517z" fill="#ffdb29" stroke="none" stroke-width="2"/></g></g></svg>