<svg version="1.1" xmlns="http://www.w3.org/2000/svg" xmlns:xlink="http://www.w3.org/1999/xlink" width="7.52015" height="12.80017" viewBox="0,0,7.52015,12.80017"><g transform="translate(-102.26318,-167.00452)"><g data-paper-data="{&quot;isPaintingLayer&quot;:true}" fill="#000000" fill-rule="evenodd" stroke="#000000" stroke-width="0" stroke-linecap="round" stroke-linejoin="miter" stroke-miterlimit="10" stroke-dasharray="" stroke-dashoffset="0" style="mix-blend-mode: normal"><path d="M106.18318,179.80455h-0.6c-0.21383,0.00068 -0.42752,-0.011 -0.64,-0.035c-0.228,-0.027 -0.442,-0.068 -0.64,-0.125c-0.1321,-0.03726 -0.26198,-0.082 -0.389,-0.134c-0.199,-0.082 -0.369,-0.178 -0.511,-0.286c-0.11391,-0.09016 -0.22496,-0.18388 -0.333,-0.281c-0.223,-0.2 -0.399,-0.39 -0.527,-0.569c-0.04329,-0.06024 -0.08399,-0.1223 -0.122,-0.186c-0.075,-0.125 -0.124,-0.237 -0.145,-0.334c-0.00831,-0.03609 -0.01267,-0.07297 -0.013,-0.11c0,-0.052 0.037,-0.097 0.112,-0.136c0.00265,-0.00136 0.00532,-0.00269 0.008,-0.004l1.26,-0.64c0.041,-0.021 0.071,-0.033 0.088,-0.038c0.00358,-0.00106 0.00727,-0.00173 0.011,-0.002c0.054,0 0.114,0.047 0.181,0.14l0.33,0.44c0.1,0.133 0.21,0.253 0.33,0.36c0.11506,0.1018 0.24705,0.18269 0.39,0.239c0.00996,0.00377 0.01996,0.00744 0.03,0.011c0.07845,0.02897 0.15948,0.0504 0.242,0.064c0.078,0.013 0.16,0.021 0.248,0.024c0.02999,0.00122 0.05999,0.00189 0.09,0.002h0.6c0.47453,0.00688 0.93148,-0.17936 1.266,-0.516c0.00134,-0.00133 0.00267,-0.00266 0.004,-0.004c0.33929,-0.32479 0.53081,-0.77432 0.53,-1.244c0.0001,-0.012 0.0001,-0.024 0,-0.036v-0.7c0,-0.507 -0.177,-0.933 -0.53,-1.28c-0.33336,-0.3376 -0.78958,-0.52528 -1.264,-0.52c-0.002,0 -0.004,0 -0.006,0h-3.2c-0.02667,0.00034 -0.05326,-0.00302 -0.079,-0.01c-0.081,-0.023 -0.121,-0.086 -0.121,-0.19v-6.5c0,-0.106 0.042,-0.17 0.126,-0.191c0.02419,-0.00612 0.04905,-0.00914 0.074,-0.009h6.4c0.02667,-0.00034 0.05326,0.00302 0.079,0.01c0.081,0.023 0.121,0.086 0.121,0.19v1.2c0,0.106 -0.042,0.17 -0.126,0.192c-0.02423,0.00578 -0.04909,0.00847 -0.074,0.008h-4.6c-0.02667,-0.00034 -0.05326,0.00302 -0.079,0.01c-0.059,0.017 -0.097,0.056 -0.112,0.116c-0.00612,0.02419 -0.00914,0.04905 -0.009,0.074v3.3c-0.00034,0.02667 0.00302,0.05326 0.01,0.079c0.017,0.059 0.056,0.097 0.116,0.113c0.02423,0.00578 0.04909,0.00847 0.074,0.008h1.4c0.36738,-0.00277 0.73384,0.03717 1.092,0.119c0.58512,0.12839 1.12186,0.41999 1.548,0.841c0.64,0.64 0.96,1.507 0.96,2.6v0.38c0.00296,0.36734 -0.03868,0.73369 -0.124,1.091c-0.13332,0.5708 -0.42277,1.09327 -0.836,1.509c-0.43163,0.42657 -0.97648,0.72051 -1.57,0.847c-0.35125,0.07796 -0.71021,0.11587 -1.07,0.113z"/></g></g></svg>