<svg version="1.1" xmlns="http://www.w3.org/2000/svg" xmlns:xlink="http://www.w3.org/1999/xlink" width="178.89805" height="27.11674" viewBox="0,0,178.89805,27.11674"><g transform="translate(-150.54331,-166.44163)"><g data-paper-data="{&quot;isPaintingLayer&quot;:true}" fill-rule="nonzero" stroke-width="1" stroke-linecap="butt" stroke-linejoin="miter" stroke-miterlimit="10" stroke-dasharray="" stroke-dashoffset="0" style="mix-blend-mode: normal"><path d="M151.21193,180.23443l11.5966,-13.2928h154.90881l11.07073,12.83553l-10.89246,13.28121h-155.09604z" fill="#000000" stroke="#80f7ff"/><path d="M224.9993,178.71498l0.24804,0.02067c1.14837,0.10106 2.02342,0.35829 2.62516,0.7717c0.31236,0.21589 0.5581,0.50758 0.73725,0.87506c0.18374,0.36289 0.27561,0.75103 0.27561,1.16444c0,0.63389 -0.18374,1.18511 -0.55122,1.65365c-0.36289,0.46853 -0.89113,0.82682 -1.58474,1.07487c-0.56959,0.2067 -1.15295,0.32384 -1.7501,0.3514v0.44786c0,0.14239 0.03216,0.25035 0.09646,0.32384c0.0643,0.07349 0.17914,0.13321 0.34451,0.17915v0.22048h-1.91547v-0.22048c0.16537,-0.04594 0.2802,-0.10565 0.34451,-0.17915c0.0643,-0.0735 0.09646,-0.18145 0.09646,-0.32384v-0.44786c-1.11162,-0.08268 -2.23931,-0.41112 -3.38308,-0.9853c-0.10106,-0.05052 -0.18144,-0.07579 -0.24115,-0.07579c-0.05972,0 -0.15388,0.05053 -0.2825,0.15159l-0.19982,-0.09646l1.01975,-2.30822l0.19982,0.08957c0,0.04593 0,0.07808 0,0.09646c0,0.24804 0.14469,0.47312 0.43408,0.67524c0.29857,0.2067 0.67753,0.38815 1.13688,0.54432c0.46394,0.15618 0.90261,0.25265 1.31602,0.28939v-2.34956c-0.67065,-0.0643 -1.17362,-0.13321 -1.50895,-0.2067c-0.33532,-0.07349 -0.64997,-0.18374 -0.94395,-0.33073c-0.4226,-0.2113 -0.75103,-0.52135 -0.9853,-0.93017c-0.21589,-0.37667 -0.32384,-0.80385 -0.32384,-1.28158c0,-0.88653 0.33532,-1.59852 1.00596,-2.13595c0.67524,-0.53743 1.59393,-0.82453 2.75608,-0.86128v-0.33762c0,-0.1378 -0.03216,-0.24346 -0.09646,-0.31695c-0.0643,-0.0735 -0.17914,-0.13321 -0.34451,-0.17915v-0.22048h1.92236v0.22048c-0.16996,0.04593 -0.28709,0.10565 -0.3514,0.17915c-0.0643,0.07349 -0.09646,0.17915 -0.09646,0.31695v0.37207c0.43178,0.03216 0.87275,0.11484 1.32291,0.24805c0.45476,0.13321 1.04042,0.35139 1.757,0.65456c0.11943,0.05052 0.2136,0.07579 0.2825,0.07579c0.09647,0 0.20901,-0.05282 0.33762,-0.15848l0.19982,0.10336l-1.12999,2.21175l-0.19293,-0.11024c0.0046,-0.03674 0.0069,-0.0735 0.0069,-0.11024c0,-0.23426 -0.29628,-0.49839 -0.88884,-0.79237c-0.58796,-0.29858 -1.15295,-0.46854 -1.69499,-0.50988zM223.96577,178.59785v-2.07395c-0.37667,0.02756 -0.69132,0.08268 -0.94396,0.16537c-0.2802,0.09187 -0.50298,0.22967 -0.66835,0.41341c-0.16537,0.18374 -0.24804,0.38355 -0.24804,0.59945c0,0.16537 0.05742,0.31236 0.17226,0.44098c0.11483,0.12861 0.27102,0.22048 0.46854,0.27561c0.27561,0.07809 0.68213,0.1378 1.21956,0.17915zM224.9993,180.77515v2.23931c0.45475,-0.05052 0.82452,-0.14469 1.10932,-0.2825c0.52365,-0.25724 0.78548,-0.60634 0.78548,-1.04731c0,-0.14699 -0.04823,-0.28249 -0.1447,-0.40652c-0.09187,-0.12861 -0.2113,-0.21819 -0.35829,-0.26872c-0.25724,-0.09187 -0.72117,-0.16996 -1.39182,-0.23426zM229.80176,183.36586l1.66053,-2.19797l0.17915,0.12402c-0.03215,0.11943 -0.04823,0.22049 -0.04823,0.30317c0,0.23426 0.18604,0.46853 0.55811,0.7028c0.7717,0.4961 1.62149,0.74414 2.54936,0.74414c0.69362,0 1.24023,-0.14469 1.63986,-0.43408c0.43178,-0.31695 0.64768,-0.75103 0.64768,-1.30225c0,-0.50987 -0.20901,-0.91639 -0.62701,-1.21956c-0.41341,-0.30317 -0.96922,-0.45475 -1.66742,-0.45475c-0.51446,0 -1.00137,0.08268 -1.46072,0.24804c-0.45475,0.16537 -0.68212,0.34222 -0.68212,0.53055c0,0.0643 0.03215,0.15618 0.09646,0.27561l-0.16537,0.14469l-2.42534,-2.43912l0.1447,-0.16537c0.03674,0.0046 0.0666,0.0069 0.08957,0.0069c0.22048,0 0.33073,-0.1401 0.33073,-0.4203v-1.99126c0,-0.15158 -0.03445,-0.26642 -0.10335,-0.34451c-0.0643,-0.07809 -0.17685,-0.1378 -0.33762,-0.17915v-0.22048h7.45518c0.1424,0 0.24805,-0.03215 0.31695,-0.09646c0.07349,-0.0643 0.1355,-0.18144 0.18604,-0.3514h0.22048v2.48736h-0.22048c-0.05052,-0.16537 -0.11254,-0.27791 -0.18604,-0.33762c-0.0689,-0.0643 -0.17455,-0.09646 -0.31695,-0.09646h-5.36745v2.02571c0.75792,-0.37667 1.63756,-0.565 2.63894,-0.565c1.30914,0 2.33807,0.30547 3.0868,0.9164c0.69361,0.56499 1.04042,1.31143 1.04042,2.23931c0,0.7074 -0.20901,1.34129 -0.62701,1.90169c-0.71658,0.96462 -1.93614,1.44694 -3.65868,1.44694c-1.11162,0 -2.06935,-0.19753 -2.87321,-0.59256c-0.19752,-0.09646 -0.51906,-0.27561 -0.96463,-0.53743c-0.19293,-0.11483 -0.36747,-0.17226 -0.52366,-0.17226c-0.08727,0 -0.22278,0.05282 -0.40652,0.15847zM244.49852,174.9116c1.23564,0 2.26228,0.40193 3.07992,1.20578c0.9187,0.90491 1.37804,2.14744 1.37804,3.72759c0,0.49609 -0.06891,0.99908 -0.20671,1.50895c-0.1378,0.50987 -0.32614,0.95314 -0.565,1.3298c-0.418,0.66146 -0.96922,1.16444 -1.65364,1.50895c-0.60634,0.30317 -1.28157,0.45475 -2.02571,0.45475c-1.23564,0 -2.25999,-0.40422 -3.07303,-1.21267c-0.39044,-0.39044 -0.69361,-0.83141 -0.9095,-1.32292c-0.31236,-0.72576 -0.46853,-1.50435 -0.46853,-2.33577c0,-1.12081 0.25723,-2.09003 0.7717,-2.90766c0.40422,-0.64768 0.95544,-1.14837 1.65364,-1.50206c0.57878,-0.29398 1.25172,-0.44557 2.01882,-0.45476zM244.49852,176.51012c-0.73035,0 -1.31143,0.32384 -1.74321,0.97152c-0.39963,0.60174 -0.59945,1.34818 -0.59945,2.23931c0,0.89113 0.19981,1.63757 0.59945,2.23931c0.43178,0.64768 1.01516,0.97152 1.75011,0.97152c0.73954,0 1.32291,-0.32384 1.7501,-0.97152c0.39963,-0.60174 0.59945,-1.3344 0.59945,-2.19796c0,-0.93247 -0.19982,-1.69269 -0.59945,-2.28066c-0.42719,-0.63849 -1.01286,-0.96233 -1.757,-0.97152zM254.56509,174.9116c1.23564,0 2.26228,0.40193 3.07991,1.20578c0.9187,0.90491 1.37804,2.14744 1.37804,3.72759c0,0.49609 -0.06891,0.99908 -0.20671,1.50895c-0.1378,0.50987 -0.32614,0.95314 -0.565,1.3298c-0.418,0.66146 -0.96921,1.16444 -1.65364,1.50895c-0.60633,0.30317 -1.28157,0.45475 -2.02571,0.45475c-1.23564,0 -2.25998,-0.40422 -3.07303,-1.21267c-0.39044,-0.39044 -0.69361,-0.83141 -0.9095,-1.32292c-0.31236,-0.72576 -0.46853,-1.50435 -0.46853,-2.33577c0,-1.12081 0.25723,-2.09003 0.7717,-2.90766c0.40422,-0.64768 0.95544,-1.14837 1.65364,-1.50206c0.57878,-0.29398 1.25171,-0.44557 2.01883,-0.45476zM254.56509,176.51012c-0.73036,0 -1.31143,0.32384 -1.74322,0.97152c-0.39963,0.60174 -0.59945,1.34818 -0.59945,2.23931c0,0.89113 0.19982,1.63757 0.59945,2.23931c0.43178,0.64768 1.01515,0.97152 1.75011,0.97152c0.73955,0 1.32292,-0.32384 1.7501,-0.97152c0.39963,-0.60174 0.59945,-1.3344 0.59945,-2.19796c0,-0.93247 -0.19982,-1.69269 -0.59945,-2.28066c-0.42719,-0.63849 -1.01285,-0.96233 -1.75699,-0.97152z" fill="#ffdb29" stroke="none"/></g></g></svg>