<svg version="1.1" xmlns="http://www.w3.org/2000/svg" xmlns:xlink="http://www.w3.org/1999/xlink" width="2.20033" height="7.60031" viewBox="0,0,2.20033,7.60031"><g transform="translate(-318.50309,-172.2043)"><g data-paper-data="{&quot;isPaintingLayer&quot;:true}" fill="#000000" fill-rule="evenodd" stroke="#000000" stroke-width="0" stroke-linecap="round" stroke-linejoin="miter" stroke-miterlimit="10" stroke-dasharray="" stroke-dashoffset="0" style="mix-blend-mode: normal"><path d="M319.67018,179.80255c-0.02231,0.00121 -0.04465,0.00187 -0.067,0.002c-0.13134,0.00138 -0.26204,-0.01854 -0.387,-0.059c-0.15219,-0.05084 -0.29026,-0.13683 -0.403,-0.251c-0.18356,-0.1832 -0.2926,-0.42801 -0.306,-0.687c-0.00259,-0.03427 -0.00393,-0.06863 -0.004,-0.103c-0.00221,-0.17152 0.03617,-0.34114 0.112,-0.495c0.05355,-0.10557 0.12378,-0.20181 0.208,-0.285c0.20121,-0.20637 0.47778,-0.32191 0.766,-0.32c0.00467,-0.00002 0.00933,-0.00002 0.014,0c0.17152,-0.00221 0.34114,0.03617 0.495,0.112c0.10557,0.05355 0.20181,0.12378 0.285,0.208c0.20637,0.20121 0.32191,0.47778 0.32,0.766c0.00002,0.00467 0.00002,0.00933 0,0.014c0.00617,0.29118 -0.10563,0.57249 -0.31,0.78c-0.18974,0.19704 -0.44954,0.31131 -0.723,0.318zM320.38318,174.08455c-0.20121,0.20637 -0.47778,0.32191 -0.766,0.32c-0.00467,0.00002 -0.00933,0.00002 -0.014,0c-0.17152,0.00221 -0.34114,-0.03617 -0.495,-0.112c-0.10557,-0.05355 -0.20181,-0.12378 -0.285,-0.208c-0.20637,-0.20121 -0.32191,-0.47778 -0.32,-0.766c-0.00002,-0.00467 -0.00002,-0.00933 0,-0.014c0,-0.32 0.107,-0.583 0.32,-0.79c0.20751,-0.20437 0.48882,-0.31617 0.78,-0.31c0.17152,-0.00221 0.34114,0.03617 0.495,0.112c0.10557,0.05355 0.20181,0.12378 0.285,0.208c0.20637,0.20121 0.32191,0.47778 0.32,0.766c0.00002,0.00467 0.00002,0.00933 0,0.014c0.00221,0.17152 -0.03617,0.34114 -0.112,0.495c-0.05355,0.10557 -0.12378,0.20181 -0.208,0.285z"/></g></g></svg>