<svg version="1.1" xmlns="http://www.w3.org/2000/svg" xmlns:xlink="http://www.w3.org/1999/xlink" width="7.02" height="8.76" viewBox="0,0,7.02,8.76"><g transform="translate(-374.52318,-170.38454)"><g data-paper-data="{&quot;isPaintingLayer&quot;:true}" fill="#000000" fill-rule="evenodd" stroke="#000000" stroke-width="0" stroke-linecap="round" stroke-linejoin="miter" stroke-miterlimit="10" stroke-dasharray="" stroke-dashoffset="0" style="mix-blend-mode: normal"><path d="M381.54318,175.34455l-0.1,0.18l-6.18,3.58c-0.041,0.021 -0.074,0.033 -0.099,0.038c-0.00692,0.00132 -0.01395,0.00199 -0.021,0.002c-0.04374,-0.00001 -0.08532,-0.01897 -0.114,-0.052c-0.013,-0.014 -0.026,-0.031 -0.037,-0.052c-0.00313,-0.00526 -0.00613,-0.01059 -0.009,-0.016l-0.42,-0.68c-0.00602,-0.01217 -0.01169,-0.02451 -0.017,-0.037c-0.016,-0.035 -0.023,-0.063 -0.023,-0.083c0.00001,-0.04374 0.01897,-0.08532 0.052,-0.114c0.014,-0.013 0.031,-0.026 0.052,-0.037c0.00526,-0.00313 0.01059,-0.00613 0.016,-0.009l5.38,-3.12c0.093,-0.067 0.14,-0.127 0.14,-0.18c-0.00039,-0.01929 -0.00554,-0.03818 -0.015,-0.055c-0.015,-0.028 -0.041,-0.058 -0.078,-0.089c-0.01518,-0.01262 -0.03086,-0.02463 -0.047,-0.036l-5.38,-3.12c-0.01951,-0.0097 -0.03795,-0.02143 -0.055,-0.035c-0.043,-0.034 -0.065,-0.076 -0.065,-0.125c0.00012,-0.00842 0.00113,-0.01679 0.003,-0.025c0.004,-0.017 0.01,-0.037 0.021,-0.06c0.00502,-0.01181 0.01036,-0.02348 0.016,-0.035l0.42,-0.68c0.0097,-0.01951 0.02143,-0.03795 0.035,-0.055c0.034,-0.043 0.076,-0.065 0.125,-0.065c0.00842,0.00012 0.01679,0.00113 0.025,0.003c0.017,0.004 0.037,0.01 0.06,0.021c0.01181,0.00502 0.02348,0.01036 0.035,0.016l6.18,3.6l0.1,0.18z"/></g></g></svg>