<svg version="1.1" xmlns="http://www.w3.org/2000/svg" xmlns:xlink="http://www.w3.org/1999/xlink" width="8.1002" height="12.60009" viewBox="0,0,8.1002,12.60009"><g transform="translate(-196.26308,-167.00447)"><g data-paper-data="{&quot;isPaintingLayer&quot;:true}" fill="#000000" fill-rule="evenodd" stroke="#000000" stroke-width="0" stroke-linecap="round" stroke-linejoin="miter" stroke-miterlimit="10" stroke-dasharray="" stroke-dashoffset="0" style="mix-blend-mode: normal"><path d="M203.34318,167.28455l-5.22,12.2c-0.01755,0.04399 -0.05219,0.07899 -0.096,0.097c-0.019,0.009 -0.042,0.015 -0.066,0.02c-0.00598,0.00114 -0.01198,0.00214 -0.018,0.003h-0.48c-0.02509,0.00016 -0.05015,-0.00152 -0.075,-0.005c-0.097,-0.014 -0.145,-0.059 -0.145,-0.135c0.00001,-0.00369 0.00035,-0.00737 0.001,-0.011c0.004,-0.017 0.013,-0.049 0.028,-0.096c0.00362,-0.01102 0.00729,-0.02202 0.011,-0.033l5.22,-12.2c0.01092,-0.02259 0.02507,-0.04348 0.042,-0.062c0.03548,-0.03834 0.08579,-0.05949 0.138,-0.058h0.48c0.02646,-0.00035 0.0529,0.00166 0.079,0.006c0.094,0.017 0.141,0.069 0.141,0.154c-0.00012,0.00842 -0.00113,0.01679 -0.003,0.025c-0.004,0.017 -0.01,0.037 -0.021,0.06c-0.00502,0.01181 -0.01036,0.02348 -0.016,0.035zM196.26318,170.70455v-2c-0.00196,-0.1918 0.02433,-0.38285 0.078,-0.567c0.07502,-0.25178 0.21344,-0.48007 0.402,-0.663c0.21007,-0.20295 0.47198,-0.34411 0.757,-0.408c0.172,-0.041 0.36,-0.062 0.563,-0.062c0.18361,-0.00145 0.36679,0.01801 0.546,0.058c0.275,0.064 0.509,0.18 0.704,0.348c0.02399,0.0206 0.04734,0.04194 0.07,0.064c0.26312,0.25777 0.42765,0.59955 0.465,0.966c0.01034,0.08762 0.01535,0.17578 0.015,0.264v2c0.00196,0.1918 -0.02433,0.38285 -0.078,0.567c-0.07502,0.25178 -0.21344,0.48007 -0.402,0.663c-0.21007,0.20295 -0.47198,0.34411 -0.757,0.408c-0.172,0.041 -0.36,0.062 -0.563,0.062c-0.18361,0.00145 -0.36679,-0.01801 -0.546,-0.058c-0.275,-0.064 -0.509,-0.18 -0.704,-0.348c-0.02399,-0.0206 -0.04734,-0.04194 -0.07,-0.064c-0.26312,-0.25777 -0.42765,-0.59955 -0.465,-0.966c-0.01034,-0.08762 -0.01535,-0.17578 -0.015,-0.264zM200.76318,177.90455v-2c-0.00196,-0.1918 0.02433,-0.38285 0.078,-0.567c0.07502,-0.25178 0.21344,-0.48007 0.402,-0.663c0.21007,-0.20295 0.47198,-0.34411 0.757,-0.408c0.172,-0.041 0.36,-0.062 0.563,-0.062c0.18361,-0.00145 0.36679,0.01801 0.546,0.058c0.275,0.064 0.509,0.18 0.704,0.348c0.02399,0.0206 0.04734,0.04194 0.07,0.064c0.26312,0.25777 0.42765,0.59955 0.465,0.966c0.01034,0.08762 0.01535,0.17578 0.015,0.264v2c0.00196,0.1918 -0.02433,0.38285 -0.078,0.567c-0.07502,0.25178 -0.21344,0.48007 -0.402,0.663c-0.21007,0.20295 -0.47198,0.34411 -0.757,0.408c-0.172,0.041 -0.36,0.062 -0.563,0.062c-0.52,0 -0.937,-0.135 -1.25,-0.406c-0.02399,-0.0206 -0.04734,-0.04194 -0.07,-0.064c-0.26312,-0.25777 -0.42765,-0.59955 -0.465,-0.966c-0.01034,-0.08762 -0.01535,-0.17578 -0.015,-0.264zM203.26318,177.90455v-2c0.00108,-0.08967 -0.01417,-0.17879 -0.045,-0.263c-0.03402,-0.08923 -0.08689,-0.17006 -0.155,-0.237c-0.12711,-0.12834 -0.30036,-0.20038 -0.481,-0.2c-0.00633,-0.00007 -0.01267,-0.00007 -0.019,0c-0.213,0 -0.383,0.067 -0.51,0.2c-0.1144,0.12033 -0.18121,0.27811 -0.188,0.444c-0.00125,0.01864 -0.00191,0.03732 -0.002,0.056v2c-0.0008,0.08524 0.01237,0.17003 0.039,0.251c0.03141,0.09309 0.08297,0.17811 0.151,0.249c0.09883,0.10373 0.23003,0.17074 0.372,0.19c0.04567,0.00688 0.09181,0.01022 0.138,0.01c0.08967,0.00108 0.17879,-0.01417 0.263,-0.045c0.08923,-0.03402 0.17006,-0.08689 0.237,-0.155c0.12834,-0.12711 0.20038,-0.30036 0.2,-0.481c0.00007,-0.00633 0.00007,-0.01267 0,-0.019zM198.76318,170.70455v-2c0.00108,-0.08967 -0.01417,-0.17879 -0.045,-0.263c-0.03402,-0.08923 -0.08689,-0.17006 -0.155,-0.237c-0.12711,-0.12834 -0.30036,-0.20038 -0.481,-0.2c-0.00633,-0.00007 -0.01267,-0.00007 -0.019,0c-0.2,0 -0.367,0.067 -0.5,0.2c-0.12834,0.12711 -0.20038,0.30036 -0.2,0.481c-0.00007,0.00633 -0.00007,0.01267 0,0.019v2c-0.0008,0.08524 0.01237,0.17003 0.039,0.251c0.03141,0.09309 0.08297,0.17811 0.151,0.249c0.09883,0.10373 0.23003,0.17074 0.372,0.19c0.04567,0.00688 0.09181,0.01022 0.138,0.01c0.08967,0.00108 0.17879,-0.01417 0.263,-0.045c0.08923,-0.03402 0.17006,-0.08689 0.237,-0.155c0.12834,-0.12711 0.20038,-0.30036 0.2,-0.481c0.00007,-0.00633 0.00007,-0.01267 0,-0.019z"/></g></g></svg>