<svg version="1.1" xmlns="http://www.w3.org/2000/svg" xmlns:xlink="http://www.w3.org/1999/xlink" width="123.01458" height="69.56646" viewBox="0,0,123.01458,69.56646"><g transform="translate(-178.49271,-145.21677)"><g stroke-miterlimit="10"><path d="M179.49271,180c0,-18.65796 27.09003,-33.78323 60.50729,-33.78323c33.41725,0 60.50729,15.12527 60.50729,33.78323c0,18.65796 -27.09003,33.78323 -60.50729,33.78323c-33.41725,0 -60.50729,-15.12527 -60.50729,-33.78323z" fill="#000000" stroke="#80f7ff" stroke-width="2"/><path d="M224.49357,177.783h2.2152v-6.64562c0.00403,-7.3377 5.95353,-13.28394 13.29123,-13.28394c7.3377,0 13.28721,5.94624 13.29123,13.28394v6.64562h2.2152v24.3672h-31.01286M248.86082,177.783v-6.64562c0.00184,-3.16689 -1.68662,-6.09401 -4.42892,-7.67799c-2.7423,-1.58398 -6.12149,-1.58398 -8.8638,0c-2.7423,1.58398 -4.43076,4.5111 -4.42892,7.67799v6.64562" fill="#ffffff" stroke="none" stroke-width="2.21521"/></g></g></svg>