<svg version="1.1" xmlns="http://www.w3.org/2000/svg" xmlns:xlink="http://www.w3.org/1999/xlink" width="7.16017" height="9.40007" viewBox="0,0,7.16017,9.40007"><g transform="translate(-279.14762,-170.75474)"><g data-paper-data="{&quot;isPaintingLayer&quot;:true}" fill="#000000" fill-rule="evenodd" stroke="#000000" stroke-width="0" stroke-linecap="round" stroke-linejoin="miter" stroke-miterlimit="10" stroke-dasharray="" stroke-dashoffset="0" style="mix-blend-mode: normal"><path d="M283.00762,180.15476h-0.6c-0.25009,0.00108 -0.49987,-0.01764 -0.747,-0.056c-0.20126,-0.03175 -0.39959,-0.0799 -0.593,-0.144c-0.19668,-0.06457 -0.3885,-0.1431 -0.574,-0.235c-0.1591,-0.07934 -0.31159,-0.1713 -0.456,-0.275c-0.287,-0.207 -0.507,-0.427 -0.66,-0.66c-0.112,-0.171 -0.184,-0.333 -0.214,-0.486c-0.01063,-0.05402 -0.01599,-0.10894 -0.016,-0.164c0,-0.051 0.037,-0.097 0.112,-0.136c0.00266,-0.00136 0.00532,-0.00269 0.008,-0.004l1.16,-0.58c0.053,-0.026 0.086,-0.04 0.099,-0.04c0.028,0 0.081,0.04 0.161,0.12c0.11444,0.14668 0.23385,0.28943 0.358,0.428c0.11231,0.12545 0.22974,0.24622 0.352,0.362c0.12637,0.11712 0.27792,0.20367 0.443,0.253c0.114,0.035 0.238,0.058 0.374,0.07c0.06421,0.00495 0.1286,0.00728 0.193,0.007h0.6c0.369,0 0.677,-0.071 0.925,-0.212c0.06527,-0.03721 0.12717,-0.08004 0.185,-0.128c0.09863,-0.08004 0.1843,-0.17482 0.254,-0.281c0.10364,-0.16053 0.15788,-0.34794 0.156,-0.539c0.00068,-0.07491 -0.00671,-0.14967 -0.022,-0.223c-0.023,-0.104 -0.063,-0.195 -0.12,-0.273c-0.00581,-0.00814 -0.01182,-0.01614 -0.018,-0.024c-0.091,-0.113 -0.22,-0.21 -0.388,-0.289c-0.03027,-0.01454 -0.06095,-0.02821 -0.092,-0.041c-0.08601,-0.03459 -0.17343,-0.06561 -0.262,-0.093c-0.099,-0.031 -0.206,-0.06 -0.321,-0.088c-0.07207,-0.01749 -0.14441,-0.03382 -0.217,-0.049c-0.14889,-0.03086 -0.29789,-0.06119 -0.447,-0.091c-0.152,-0.031 -0.313,-0.063 -0.481,-0.096c-0.05732,-0.01104 -0.11466,-0.02204 -0.172,-0.033c-0.947,-0.187 -1.65,-0.457 -2.11,-0.81c-0.29787,-0.23099 -0.50952,-0.55533 -0.601,-0.921c-0.052,-0.19 -0.081,-0.4 -0.088,-0.629c-0.00081,-0.03332 -0.00114,-0.06667 -0.001,-0.1c0,-0.44 0.077,-0.84 0.23,-1.2c0.153,-0.36 0.373,-0.67 0.66,-0.93c0.25736,-0.2317 0.55356,-0.41619 0.875,-0.545c0.04791,-0.01943 0.09626,-0.03776 0.145,-0.055c0.393,-0.14 0.83,-0.21 1.31,-0.21h0.6c0.25011,-0.00075 0.4999,0.0183 0.747,0.057c0.20123,0.03142 0.39956,0.07925 0.593,0.143c0.19671,0.0649 0.38853,0.14377 0.574,0.236c0.15907,0.07902 0.31155,0.17065 0.456,0.274c0.11897,0.0851 0.2319,0.17832 0.338,0.279c0.112,0.107 0.209,0.218 0.289,0.332c0.01126,0.01616 0.02226,0.0325 0.033,0.049c0.112,0.171 0.184,0.333 0.214,0.487c0.01057,0.05369 0.01593,0.10828 0.016,0.163c0,0.052 -0.037,0.097 -0.112,0.136c-0.00266,0.00136 -0.00532,0.00269 -0.008,0.004l-1.16,0.58c-0.01216,0.00636 -0.0245,0.01236 -0.037,0.018c-0.035,0.015 -0.063,0.022 -0.083,0.022c-0.0184,-0.00016 -0.03614,-0.0069 -0.05,-0.019c-0.00747,-0.00619 -0.01418,-0.01324 -0.02,-0.021c-0.019,-0.025 -0.04,-0.05 -0.065,-0.075c-0.00166,-0.00168 -0.00333,-0.00334 -0.005,-0.005c-0.10507,-0.13291 -0.21413,-0.26265 -0.327,-0.389c-0.112,-0.125 -0.221,-0.239 -0.329,-0.342c-0.02443,-0.02326 -0.04909,-0.04626 -0.074,-0.069c-0.205,-0.187 -0.485,-0.293 -0.84,-0.315c-0.04994,-0.00325 -0.09996,-0.00492 -0.15,-0.005h-0.6c-0.306,0 -0.567,0.039 -0.781,0.116c-0.10618,0.03755 -0.20677,0.08936 -0.299,0.154c-0.241,0.171 -0.367,0.405 -0.379,0.703c-0.00065,0.01566 -0.00098,0.03133 -0.001,0.047c0,0.387 0.158,0.663 0.473,0.828c0.02199,0.01137 0.04433,0.02204 0.067,0.032c0.11386,0.05005 0.22998,0.09477 0.348,0.134c0.256,0.085 0.568,0.169 0.937,0.251c0.11807,0.02625 0.2364,0.05125 0.355,0.075c0.22164,0.04415 0.44235,0.09282 0.662,0.146c0.267,0.065 0.513,0.133 0.738,0.204c0.15393,0.04815 0.30515,0.10457 0.453,0.169c0.204,0.09 0.383,0.19 0.537,0.301c0.21993,0.1551 0.40322,0.35648 0.537,0.59c0.01871,0.03277 0.03638,0.06612 0.053,0.1c0.07126,0.14864 0.12269,0.30598 0.153,0.468c0.027,0.141 0.043,0.292 0.046,0.452c0.00059,0.02333 0.00091,0.04666 0.001,0.07c0.00343,0.34169 -0.04512,0.68191 -0.144,1.009c-0.14011,0.45259 -0.39749,0.86005 -0.746,1.181c-0.38301,0.3522 -0.85153,0.59801 -1.359,0.713c-0.32,0.078 -0.671,0.117 -1.051,0.117z"/></g></g></svg>