<svg version="1.1" xmlns="http://www.w3.org/2000/svg" xmlns:xlink="http://www.w3.org/1999/xlink" width="7.80008" height="13.00006" viewBox="0,0,7.80008,13.00006"><g transform="translate(-138.98314,-166.80451)"><g data-paper-data="{&quot;isPaintingLayer&quot;:true}" fill="#000000" fill-rule="evenodd" stroke="#000000" stroke-width="0" stroke-linecap="round" stroke-linejoin="miter" stroke-miterlimit="10" stroke-dasharray="" stroke-dashoffset="0" style="mix-blend-mode: normal"><path d="M143.18318,179.80455h-0.6c-0.21383,0.00068 -0.42752,-0.011 -0.64,-0.035c-0.228,-0.027 -0.442,-0.068 -0.64,-0.125c-0.1321,-0.03726 -0.26198,-0.082 -0.389,-0.134c-0.199,-0.082 -0.369,-0.178 -0.511,-0.286c-0.11391,-0.09016 -0.22496,-0.18388 -0.333,-0.281c-0.223,-0.2 -0.399,-0.39 -0.527,-0.569c-0.04329,-0.06024 -0.08399,-0.1223 -0.122,-0.186c-0.075,-0.125 -0.124,-0.237 -0.145,-0.334c-0.00831,-0.03609 -0.01267,-0.07297 -0.013,-0.11c0,-0.052 0.037,-0.097 0.112,-0.136c0.00265,-0.00136 0.00532,-0.00269 0.008,-0.004l1.26,-0.64c0.0125,-0.00604 0.02517,-0.01171 0.038,-0.017c0.035,-0.015 0.062,-0.023 0.082,-0.023c0.01212,-0.0002 0.02422,0.00115 0.036,0.004c0.02167,0.00529 0.04078,0.01803 0.054,0.036c0.00814,0.0109 0.01614,0.0219 0.024,0.033c0.007,0.01 0.014,0.02 0.022,0.031c0.00808,0.01195 0.01608,0.02395 0.024,0.036c0.05723,0.07625 0.1139,0.15292 0.17,0.23c0.05063,0.06955 0.10063,0.13955 0.15,0.21c0.093,0.133 0.2,0.253 0.32,0.36c0.11506,0.1018 0.24705,0.18269 0.39,0.239c0.00996,0.00377 0.01996,0.00744 0.03,0.011c0.06983,0.02559 0.14177,0.045 0.215,0.058c0.114,0.021 0.243,0.032 0.385,0.032h0.6c0.25387,0.00282 0.50554,-0.04724 0.739,-0.147c0.20222,-0.08914 0.38578,-0.2157 0.541,-0.373c0.347,-0.347 0.52,-0.773 0.52,-1.28v-1.74c0.00016,-0.02509 -0.00152,-0.05015 -0.005,-0.075c-0.009,-0.06 -0.029,-0.101 -0.062,-0.124c-0.02154,-0.01446 -0.04707,-0.02181 -0.073,-0.021c-0.02262,0.00027 -0.04511,0.0033 -0.067,0.009c-0.044,0.011 -0.094,0.032 -0.152,0.062c-0.01721,0.00929 -0.03421,0.01896 -0.051,0.029c-0.097,0.057 -0.207,0.122 -0.329,0.194c-0.02033,0.012 -0.04067,0.024 -0.061,0.036c-0.144,0.085 -0.315,0.161 -0.511,0.227c-0.003,0.001 -0.006,0.002 -0.009,0.003c-0.2,0.067 -0.427,0.1 -0.68,0.1h-0.6c-0.29547,0.00132 -0.59009,-0.03157 -0.878,-0.098c-0.1643,-0.03832 -0.32544,-0.08913 -0.482,-0.152c-0.413,-0.167 -0.77,-0.4 -1.07,-0.7c-0.27655,-0.27835 -0.50018,-0.60465 -0.66,-0.963c-0.01733,-0.03871 -0.034,-0.07772 -0.05,-0.117c-0.14836,-0.3633 -0.23423,-0.74907 -0.254,-1.141c-0.00415,-0.07626 -0.00615,-0.15263 -0.006,-0.229v-1.5c-0.00134,-0.29541 0.03121,-0.59 0.097,-0.878c0.04033,-0.17481 0.09484,-0.34605 0.163,-0.512c0.173,-0.42 0.417,-0.78 0.73,-1.08c0.28109,-0.2671 0.60931,-0.4797 0.968,-0.627c0.05349,-0.02228 0.10751,-0.04329 0.162,-0.063c0.28705,-0.10273 0.58504,-0.17186 0.888,-0.206c0.19649,-0.02295 0.39417,-0.0343 0.592,-0.034h0.6c0.27677,-0.00104 0.55312,0.02171 0.826,0.068c0.22266,0.03789 0.44151,0.09545 0.654,0.172c0.44,0.16 0.817,0.39 1.13,0.69c0.313,0.3 0.557,0.66 0.73,1.08c0.13249,0.32499 0.21477,0.66826 0.244,1.018c0.01086,0.1237 0.0162,0.24782 0.016,0.372v6.2c0.00134,0.29541 -0.03121,0.59 -0.097,0.878c-0.04033,0.17481 -0.09484,0.34605 -0.163,0.512c-0.173,0.42 -0.417,0.78 -0.73,1.08c-0.28109,0.2671 -0.60931,0.4797 -0.968,0.627c-0.05349,0.02228 -0.10751,0.04329 -0.162,0.063c-0.44,0.16 -0.933,0.24 -1.48,0.24zM144.98318,171.70455v-1.5c0.00282,-0.25387 -0.04724,-0.50554 -0.147,-0.739c-0.08914,-0.20222 -0.2157,-0.38578 -0.373,-0.541c-0.347,-0.347 -0.773,-0.52 -1.28,-0.52h-0.6c-0.25387,-0.00282 -0.50554,0.04724 -0.739,0.147c-0.20222,0.08914 -0.38578,0.2157 -0.541,0.373c-0.33686,0.33057 -0.52461,0.78405 -0.52,1.256c-0.00004,0.008 -0.00004,0.016 0,0.024v1.5c-0.00688,0.47453 0.17936,0.93148 0.516,1.266c0.00133,0.00134 0.00266,0.00267 0.004,0.004c0.32503,0.33954 0.77497,0.53108 1.245,0.53c0.01167,0.00009 0.02333,0.00009 0.035,0h0.6c0.2615,0.00335 0.52056,-0.05058 0.759,-0.158c0.19496,-0.09109 0.37155,-0.21718 0.521,-0.372c0.3376,-0.33336 0.52528,-0.78958 0.52,-1.264c0,-0.002 0,-0.004 0,-0.006z"/></g></g></svg>