<svg version="1.1" xmlns="http://www.w3.org/2000/svg" xmlns:xlink="http://www.w3.org/1999/xlink" width="6.34001" height="12.60004" viewBox="0,0,6.34001,12.60004"><g transform="translate(-356.04317,-167.00453)"><g data-paper-data="{&quot;isPaintingLayer&quot;:true}" fill="#000000" fill-rule="evenodd" stroke="#000000" stroke-width="0" stroke-linecap="round" stroke-linejoin="miter" stroke-miterlimit="10" stroke-dasharray="" stroke-dashoffset="0" style="mix-blend-mode: normal"><path d="M357.02318,179.60455h-0.66c-0.03927,0.00032 -0.07847,-0.00337 -0.117,-0.011c-0.119,-0.024 -0.185,-0.091 -0.2,-0.2c-0.0021,-0.01625 -0.0031,-0.03262 -0.003,-0.049c0.00016,-0.00704 0.00083,-0.01406 0.002,-0.021c0.004,-0.025 0.013,-0.061 0.028,-0.109c0.00326,-0.01002 0.00659,-0.02002 0.01,-0.03l5.06,-12c0.033,-0.099 0.097,-0.157 0.193,-0.174c0.02211,-0.00402 0.04453,-0.00603 0.067,-0.006h0.66c0.03927,-0.00032 0.07847,0.00337 0.117,0.011c0.135,0.028 0.203,0.111 0.203,0.249c-0.00016,0.00704 -0.00083,0.01406 -0.002,0.021c-0.004,0.03 -0.017,0.077 -0.038,0.139l-5.06,12c-0.033,0.099 -0.097,0.157 -0.193,0.174c-0.02211,0.00402 -0.04453,0.00603 -0.067,0.006z"/></g></g></svg>