<svg version="1.1" xmlns="http://www.w3.org/2000/svg" xmlns:xlink="http://www.w3.org/1999/xlink" width="156.33096" height="15.7328" viewBox="0,0,156.33096,15.7328"><g transform="translate(-161.83452,-172.1336)"><g data-paper-data="{&quot;isPaintingLayer&quot;:true}" fill="#f9f9f9" fill-rule="nonzero" stroke="#000000" stroke-width="0.5" stroke-linecap="butt" stroke-linejoin="miter" stroke-miterlimit="10" stroke-dasharray="" stroke-dashoffset="0" style="mix-blend-mode: normal"><path d="M170.82384,186.40802l-4.97995,-8.55623v7.73845c0,0.25225 0.05696,0.44755 0.17088,0.58588c0.11392,0.13019 0.31735,0.24004 0.61029,0.32955v0.32956h-4.54054v-0.34176c0.2848,-0.07324 0.48416,-0.17902 0.59808,-0.31735c0.12206,-0.13833 0.18309,-0.33363 0.18309,-0.58588v-11.18048c0,-0.25225 -0.05696,-0.44348 -0.17088,-0.57367c-0.11392,-0.13833 -0.31735,-0.24818 -0.61029,-0.32956v-0.34176h5.77332v0.34176c-0.38245,0.12206 -0.57367,0.35397 -0.57367,0.69573c0,0.33362 0.13833,0.74048 0.415,1.22058l3.40541,5.74891l3.42982,-5.66347c0.39058,-0.64284 0.58588,-1.09852 0.58588,-1.36704c0,-0.33362 -0.19936,-0.54519 -0.59808,-0.6347v-0.34176h5.62686v0.34176c-0.29294,0.08137 -0.49637,0.19122 -0.61029,0.32956c-0.11392,0.13019 -0.17088,0.32142 -0.17088,0.57367v11.18048c0,0.25225 0.05696,0.44755 0.17088,0.58588c0.11392,0.13833 0.31735,0.24818 0.61029,0.32955v0.32956h-4.83348v-0.34176c0.2848,-0.07324 0.48416,-0.17902 0.59808,-0.31735c0.12206,-0.13833 0.18309,-0.33363 0.18309,-0.58588v-7.73845zM186.6059,174.40976v11.18048c0,0.25225 0.05696,0.44755 0.17088,0.58588c0.11392,0.13019 0.31735,0.24004 0.61029,0.32955v0.32956h-4.83348v-0.34176c0.2848,-0.07324 0.48416,-0.17902 0.59808,-0.31735c0.12206,-0.13833 0.18309,-0.33363 0.18309,-0.58588v-11.18048c0,-0.25225 -0.05696,-0.44348 -0.17088,-0.57367c-0.11392,-0.13019 -0.31735,-0.24005 -0.61029,-0.32956v-0.34176h4.83348v0.34176c-0.29294,0.08137 -0.49637,0.19122 -0.61029,0.32956c-0.11392,0.13019 -0.17088,0.32142 -0.17088,0.57367zM193.84391,184.35746h7.65301c0.26039,0 0.45568,-0.05696 0.58588,-0.17088c0.13019,-0.11392 0.24005,-0.32142 0.32956,-0.6225h0.32955v4.05232h-0.32955c-0.08137,-0.29294 -0.19122,-0.49637 -0.32956,-0.61029c-0.13019,-0.11392 -0.32549,-0.17088 -0.58588,-0.17088h-11.70533v-0.34176c0.2848,-0.07324 0.48416,-0.17902 0.59808,-0.31735c0.12206,-0.13833 0.18309,-0.33363 0.18309,-0.58588v-11.18048c0,-0.25225 -0.05696,-0.44348 -0.17088,-0.57367c-0.11392,-0.13019 -0.31735,-0.24005 -0.61029,-0.32956v-0.34176h4.83348v0.34176c-0.29294,0.08137 -0.49637,0.19122 -0.61029,0.32956c-0.11392,0.13019 -0.17088,0.32142 -0.17088,0.57367zM208.19789,184.35746h7.65301c0.26039,0 0.45568,-0.05696 0.58588,-0.17088c0.1302,-0.11392 0.24005,-0.32142 0.32956,-0.6225h0.32955v4.05232h-0.32955c-0.08137,-0.29294 -0.19122,-0.49637 -0.32956,-0.61029c-0.13019,-0.11392 -0.32549,-0.17088 -0.58588,-0.17088h-11.70533v-0.34176c0.2848,-0.07324 0.48416,-0.17902 0.59808,-0.31735c0.12206,-0.13833 0.18309,-0.33363 0.18309,-0.58588v-11.18048c0,-0.25225 -0.05696,-0.44348 -0.17088,-0.57367c-0.11392,-0.13019 -0.31735,-0.24005 -0.61029,-0.32956v-0.34176h4.83348v0.34176c-0.29294,0.08137 -0.49637,0.19122 -0.61029,0.32956c-0.11392,0.13019 -0.17088,0.32142 -0.17088,0.57367zM222.55186,174.40976v11.18048c0,0.25225 0.05696,0.44755 0.17088,0.58588c0.11392,0.13019 0.31735,0.24004 0.61029,0.32955v0.32956h-4.83348v-0.34176c0.2848,-0.07324 0.48416,-0.17902 0.59808,-0.31735c0.12206,-0.13833 0.18309,-0.33363 0.18309,-0.58588v-11.18048c0,-0.25225 -0.05696,-0.44348 -0.17088,-0.57367c-0.11392,-0.13019 -0.31735,-0.24005 -0.61029,-0.32956v-0.34176h4.83348v0.34176c-0.29294,0.08137 -0.49637,0.19122 -0.61029,0.32956c-0.11392,0.13019 -0.17088,0.32142 -0.17088,0.57367zM233.4272,172.87183c2.17262,0 3.98315,0.55333 5.43157,1.65998c1.73322,1.3345 2.59983,3.19384 2.59983,5.57803c0,2.23773 -0.86661,4.02384 -2.59983,5.35833c-1.43215,1.10665 -3.23453,1.65998 -5.40715,1.65998c-2.17263,0 -3.97501,-0.55333 -5.40715,-1.65998c-1.74136,-1.33449 -2.61203,-3.15722 -2.61203,-5.46818c0,-2.33537 0.87068,-4.1581 2.61203,-5.46818c1.44028,-1.08224 3.23453,-1.63557 5.38274,-1.65998zM233.43941,175.45946c-1.40773,0 -2.55507,0.45161 -3.44203,1.35484c-0.82185,0.84627 -1.23278,1.90817 -1.23278,3.1857c0,1.2694 0.41093,2.32723 1.23278,3.1735c0.88695,0.91136 2.03836,1.36704 3.45423,1.36704c1.40773,0 2.55507,-0.45568 3.44202,-1.36704c0.82185,-0.83813 1.23278,-1.87562 1.23278,-3.11247c0,-1.34263 -0.41093,-2.42488 -1.23278,-3.24673c-0.89509,-0.88695 -2.0465,-1.33857 -3.45423,-1.35484zM247.31736,177.82737v7.76287c0,0.25225 0.05696,0.44755 0.17088,0.58588c0.12205,0.13833 0.32548,0.24818 0.61029,0.32955v0.32956h-4.54055v-0.34176c0.2848,-0.07324 0.48416,-0.17902 0.59808,-0.31735c0.12206,-0.13833 0.18309,-0.33363 0.18309,-0.58588v-11.18048c0,-0.25225 -0.05696,-0.44348 -0.17088,-0.57367c-0.11392,-0.13019 -0.31735,-0.24005 -0.61029,-0.32956v-0.34176h5.24848v0.34176c-0.35803,0.08951 -0.53705,0.24818 -0.53705,0.47603c0,0.19529 0.13019,0.42313 0.39058,0.68352l7.32346,7.27464v-7.53096c0,-0.25225 -0.05696,-0.44348 -0.17088,-0.57367c-0.11392,-0.13833 -0.31735,-0.24818 -0.61029,-0.32956v-0.34176h4.54054v0.34176c-0.29293,0.08137 -0.49636,0.19122 -0.61029,0.32956c-0.11392,0.13019 -0.17088,0.32142 -0.17088,0.57367v11.18048c0,0.25225 0.05696,0.44755 0.17088,0.58588c0.11393,0.13019 0.31736,0.24004 0.61029,0.32955v0.32956h-4.89451v-0.32956c0.35804,-0.07323 0.53706,-0.22377 0.53706,-0.45161c0,-0.11392 -0.04882,-0.23191 -0.14647,-0.35397c-0.09765,-0.12206 -0.32142,-0.36211 -0.67132,-0.72014zM272.51005,183.41761h-6.28596l-0.70794,1.48911c-0.17088,0.35803 -0.25632,0.63876 -0.25632,0.84219c0,0.39059 0.26039,0.63877 0.78117,0.74456v0.34176h-5.02878v-0.34176c0.30921,-0.0488 0.53706,-0.14238 0.68353,-0.28074c0.15461,-0.13833 0.33362,-0.41093 0.53705,-0.81778l4.99216,-10.10637c0.18715,-0.38245 0.28073,-0.71607 0.28073,-1.00087c0,-0.33362 -0.22784,-0.59401 -0.68352,-0.78117v-0.34176h5.3095v0.34176c-0.44754,0.17902 -0.67131,0.45568 -0.67131,0.82999c0,0.26853 0.10171,0.59808 0.30514,0.98867l5.17524,9.80123c0.28481,0.53705 0.50858,0.88695 0.67132,1.0497c0.16275,0.1546 0.41093,0.26445 0.74455,0.32955v0.32956h-5.57803v-0.32956c0.52891,-0.08951 0.79337,-0.33769 0.79337,-0.74455c0,-0.25225 -0.10171,-0.56553 -0.30514,-0.93984zM271.52139,181.50131l-2.23366,-4.38187l-2.1238,4.38187zM283.54406,174.40976v11.18048c0,0.25225 0.05696,0.44755 0.17088,0.58588c0.11392,0.13019 0.31735,0.24004 0.61029,0.32955v0.32956h-4.83349v-0.34176c0.28481,-0.07324 0.48417,-0.17902 0.59809,-0.31735c0.12205,-0.13833 0.18308,-0.33363 0.18308,-0.58588v-11.18048c0,-0.25225 -0.05696,-0.44348 -0.17088,-0.57367c-0.11392,-0.13019 -0.31735,-0.24005 -0.61029,-0.32956v-0.34176h4.83349v0.34176c-0.29294,0.08137 -0.49637,0.19122 -0.61029,0.32956c-0.11392,0.13019 -0.17088,0.32142 -0.17088,0.57367zM290.78208,181.22058v4.36966c0,0.25225 0.05696,0.44755 0.17088,0.58588c0.11392,0.13019 0.31735,0.24004 0.61029,0.32955v0.32956h-4.83348v-0.34176c0.2848,-0.07324 0.48416,-0.17902 0.59808,-0.31735c0.12205,-0.13833 0.18308,-0.33363 0.18308,-0.58588v-11.18048c0,-0.25225 -0.05696,-0.44348 -0.17088,-0.57367c-0.11392,-0.13019 -0.31735,-0.24005 -0.61028,-0.32956v-0.34176h8.95902c1.16362,0 2.05057,0.06103 2.66086,0.18309c0.61029,0.11392 1.15548,0.32549 1.63557,0.6347c0.9846,0.64284 1.4769,1.69253 1.4769,3.14909c0,1.10666 -0.30514,1.97326 -0.91543,2.59982c-0.60215,0.61843 -1.57861,1.06597 -2.92938,1.34264l2.58762,3.6129c0.47195,0.66725 0.84626,1.12293 1.12293,1.36705c0.2848,0.23597 0.60622,0.38651 0.96425,0.45161v0.32956h-5.73671v-0.32956c0.42313,-0.11392 0.6347,-0.29701 0.6347,-0.54926c0,-0.17902 -0.13019,-0.45161 -0.39058,-0.81778l-2.73409,-3.91805zM290.78208,178.74281h4.93113c0.74862,0 1.30195,-0.08137 1.65998,-0.24411c0.50451,-0.2197 0.75676,-0.65504 0.75676,-1.30602c0,-0.57774 -0.17902,-0.98053 -0.53706,-1.20837c-0.34989,-0.22784 -0.97645,-0.34176 -1.87968,-0.34176h-4.93113zM307.9922,181.02528v3.33218h8.6783c0.25225,0 0.44348,-0.05696 0.57367,-0.17088c0.13833,-0.11392 0.24818,-0.32142 0.32955,-0.6225h0.34176v4.05232h-0.34176c-0.07323,-0.28481 -0.17902,-0.48824 -0.31735,-0.61029c-0.13833,-0.11392 -0.33362,-0.17088 -0.58587,-0.17088h-12.73061v-0.34176c0.2848,-0.07324 0.48416,-0.17902 0.59808,-0.31735c0.12206,-0.13833 0.18309,-0.33363 0.18309,-0.58588v-11.18048c0,-0.25225 -0.05696,-0.44348 -0.17089,-0.57367c-0.11392,-0.13019 -0.31735,-0.24005 -0.61028,-0.32956v-0.34176h12.35223c0.26039,0 0.45568,-0.05696 0.58587,-0.17088c0.13833,-0.11392 0.24819,-0.31735 0.32956,-0.61029h0.32956v4.05231h-0.32956c-0.08137,-0.30108 -0.19123,-0.50857 -0.32956,-0.62249c-0.13019,-0.11392 -0.32548,-0.17088 -0.58587,-0.17088h-8.29992v3.00262h5.15083c0.25225,0 0.44348,-0.05696 0.57367,-0.17088c0.13833,-0.11392 0.25225,-0.31735 0.34176,-0.61029h0.32956v3.95467h-0.32956c-0.08137,-0.29294 -0.19122,-0.49637 -0.32955,-0.61029c-0.13019,-0.12206 -0.32549,-0.18309 -0.58588,-0.18309z"/></g></g></svg>