<svg version="1.1" xmlns="http://www.w3.org/2000/svg" xmlns:xlink="http://www.w3.org/1999/xlink" width="8.64021" height="12.60011" viewBox="0,0,8.64021,12.60011"><g transform="translate(-337.66842,-167.42467)"><g data-paper-data="{&quot;isPaintingLayer&quot;:true}" fill="#000000" fill-rule="evenodd" stroke="#000000" stroke-width="0" stroke-linecap="round" stroke-linejoin="miter" stroke-miterlimit="10" stroke-dasharray="" stroke-dashoffset="0" style="mix-blend-mode: normal"><path d="M346.08853,180.02475h-1.74c-0.061,-0.009 -0.107,-0.029 -0.14,-0.06c-0.01747,-0.01691 -0.03111,-0.03737 -0.04,-0.06l-1.96,-4.22c-0.00829,-0.0229 -0.01867,-0.045 -0.031,-0.066c-0.038,-0.063 -0.088,-0.094 -0.149,-0.094c-0.08,0 -0.14,0.053 -0.18,0.16l-2.06,4.22l-0.18,0.12h-1.72c-0.02646,0.00035 -0.0529,-0.00166 -0.079,-0.006c-0.094,-0.017 -0.141,-0.069 -0.141,-0.154c0.00001,-0.00369 0.00035,-0.00737 0.001,-0.011c0.004,-0.017 0.013,-0.049 0.028,-0.096c0.00362,-0.01101 0.00729,-0.02201 0.011,-0.033l3.02,-5.92v-0.18l-3.02,-5.9c-0.024,-0.071 -0.037,-0.116 -0.04,-0.134c-0.00014,-0.00199 -0.00014,-0.00401 0,-0.006c0,-0.091 0.053,-0.143 0.16,-0.157c0.01992,-0.00224 0.03996,-0.00324 0.06,-0.003h1.7l0.18,0.12l2.08,4.28c0.00952,0.02264 0.0216,0.04411 0.036,0.064c0.018,0.025 0.039,0.044 0.063,0.057c0.02499,0.01298 0.05284,0.01952 0.081,0.019c0.0563,0.00084 0.10941,-0.02608 0.142,-0.072c0.014,-0.019 0.027,-0.042 0.038,-0.068l1.98,-4.28c0.01092,-0.02259 0.02507,-0.04348 0.042,-0.062c0.03548,-0.03834 0.08578,-0.05948 0.138,-0.058h1.72c0.02646,-0.00035 0.0529,0.00166 0.079,0.006c0.094,0.017 0.141,0.069 0.141,0.154c-0.00012,0.00842 -0.00113,0.0168 -0.003,0.025c-0.004,0.017 -0.01,0.037 -0.021,0.06c-0.00502,0.01181 -0.01035,0.02348 -0.016,0.035l-2.98,5.92v0.18l2.98,5.94c0.027,0.053 0.04,0.093 0.04,0.12c0.00091,0.02625 -0.00458,0.05234 -0.016,0.076c-0.024,0.045 -0.072,0.072 -0.144,0.081c-0.01992,0.00224 -0.03996,0.00324 -0.06,0.003z"/></g></g></svg>