<svg version="1.1" xmlns="http://www.w3.org/2000/svg" xmlns:xlink="http://www.w3.org/1999/xlink" width="8.98002" height="12.60005" viewBox="0,0,8.98002,12.60005"><g transform="translate(-92.18318,-167.00452)"><g data-paper-data="{&quot;isPaintingLayer&quot;:true}" fill="#000000" fill-rule="evenodd" stroke="#000000" stroke-width="0" stroke-linecap="round" stroke-linejoin="miter" stroke-miterlimit="10" stroke-dasharray="" stroke-dashoffset="0" style="mix-blend-mode: normal"><path d="M100.96318,176.70455h-1.4c-0.02667,-0.00034 -0.05326,0.00302 -0.079,0.01c-0.059,0.017 -0.097,0.056 -0.112,0.116c-0.00612,0.02419 -0.00914,0.04905 -0.009,0.074v2.5c0.00034,0.02667 -0.00302,0.05326 -0.01,0.079c-0.023,0.081 -0.086,0.121 -0.19,0.121h-1.4c-0.02667,0.00034 -0.05326,-0.00302 -0.079,-0.01c-0.059,-0.017 -0.097,-0.056 -0.112,-0.116c-0.00612,-0.02419 -0.00914,-0.04905 -0.009,-0.074v-2.5c0.00034,-0.02667 -0.00302,-0.05326 -0.01,-0.079c-0.023,-0.081 -0.086,-0.121 -0.19,-0.121h-5c-0.103,0 -0.162,-0.039 -0.176,-0.118c-0.00261,-0.01385 -0.00395,-0.02791 -0.004,-0.042v-0.04l0.02,-1.4l5.3,-8.02l0.16,-0.08h1.5c0.02667,-0.00034 0.05326,0.00302 0.079,0.01c0.081,0.023 0.121,0.086 0.121,0.19v7.7c-0.00034,0.02667 0.00302,0.05326 0.01,0.079c0.023,0.081 0.086,0.121 0.19,0.121h1.4c0.02667,-0.00034 0.05326,0.00302 0.079,0.01c0.059,0.017 0.097,0.056 0.112,0.116c0.00612,0.02419 0.00914,0.04905 0.009,0.074v1.2c0.00034,0.02667 -0.00302,0.05326 -0.01,0.079c-0.023,0.081 -0.086,0.121 -0.19,0.121zM97.56318,174.90455v-4.54c0.00021,-0.02754 -0.00247,-0.05502 -0.008,-0.082c-0.017,-0.08 -0.063,-0.125 -0.137,-0.136c-0.01161,-0.00148 -0.0233,-0.00214 -0.035,-0.002c-0.02149,-0.00029 -0.04294,0.00172 -0.064,0.006c-0.057,0.013 -0.096,0.044 -0.116,0.094l-3.02,4.54c-0.01001,0.01628 -0.01935,0.03296 -0.028,0.05c-0.016,0.034 -0.026,0.063 -0.03,0.088c-0.00123,0.00727 -0.0019,0.01463 -0.002,0.022c-0.00091,0.02626 0.00458,0.05234 0.016,0.076c0.024,0.045 0.072,0.072 0.144,0.081c0.01992,0.00224 0.03996,0.00324 0.06,0.003h3.02c0.02667,0.00034 0.05326,-0.00302 0.079,-0.01c0.059,-0.017 0.097,-0.056 0.112,-0.116c0.00612,-0.02419 0.00914,-0.04905 0.009,-0.074z"/></g></g></svg>