<svg version="1.1" xmlns="http://www.w3.org/2000/svg" xmlns:xlink="http://www.w3.org/1999/xlink" width="163.07286" height="25.42367" viewBox="0,0,163.07286,25.42367"><g transform="translate(-158.24868,-168.36265)"><g data-paper-data="{&quot;isPaintingLayer&quot;:true}" fill="#f9f9f9" fill-rule="nonzero" stroke="#010101" stroke-width="0.6" stroke-linecap="butt" stroke-linejoin="miter" stroke-miterlimit="10" stroke-dasharray="" stroke-dashoffset="0" style="mix-blend-mode: normal"><path d="M172.8996,192.06832l-8.59346,-15.78601v14.31675c0,0.35308 0.07973,0.62074 0.23918,0.80297c0.15945,0.18223 0.4442,0.3303 0.85422,0.44419v0.54671h-6.85085v-0.54671c0.41003,-0.11389 0.69477,-0.26196 0.85422,-0.44419c0.15945,-0.18223 0.23918,-0.44989 0.23918,-0.80297v-19.74959c0,-0.34169 -0.07973,-0.60366 -0.23918,-0.78589c-0.15945,-0.18223 -0.4442,-0.3303 -0.85422,-0.44419v-0.5467h8.98641v0.5467c-0.53531,0.13667 -0.80297,0.44989 -0.80297,0.93964c0,0.22779 0.07973,0.48976 0.23918,0.78589l6.3554,11.71991l6.44083,-11.5149c0.28474,-0.52392 0.42711,-0.90547 0.42711,-1.14466c0,-0.46697 -0.28474,-0.72893 -0.85422,-0.78588v-0.5467h8.81556v0.5467c-0.41003,0.11389 -0.69477,0.26196 -0.85422,0.44419c-0.15945,0.18223 -0.23918,0.4442 -0.23918,0.78589v19.74959c0,0.35308 0.07973,0.62074 0.23918,0.80297c0.15945,0.18223 0.44419,0.3303 0.85422,0.44419v0.54671h-7.27796v-0.54671c0.39864,-0.10251 0.67768,-0.24488 0.83714,-0.42711c0.17084,-0.19362 0.25627,-0.46697 0.25627,-0.82005v-14.31675zM193.45216,190.59906v-19.74959c0,-0.34169 -0.07973,-0.60366 -0.23918,-0.78589c-0.15945,-0.18223 -0.44419,-0.3303 -0.85422,-0.44419v-0.5467h7.27796v0.5467c-0.41003,0.10251 -0.69477,0.25057 -0.85422,0.44419c-0.15945,0.18223 -0.23918,0.4442 -0.23918,0.78589v19.74959c0,0.35308 0.07973,0.62643 0.23918,0.82005c0.17084,0.18223 0.45559,0.3246 0.85422,0.42711v0.54671h-7.27796v-0.54671c0.41003,-0.11389 0.69477,-0.26196 0.85422,-0.44419c0.15945,-0.18223 0.23918,-0.44989 0.23918,-0.80297zM210.00697,188.54893h14.33383c0.35308,0 0.62073,-0.07973 0.80297,-0.23918c0.18223,-0.15945 0.3303,-0.44419 0.4442,-0.85422h0.5467v6.0308h-0.5467c-0.1139,-0.41003 -0.26196,-0.69477 -0.4442,-0.85422c-0.18223,-0.15945 -0.44989,-0.23918 -0.80297,-0.23918h-20.51839v-0.54671c0.41003,-0.11389 0.69477,-0.26196 0.85422,-0.44419c0.15945,-0.18223 0.23918,-0.44989 0.23918,-0.80297v-19.73251c0,-0.35308 -0.07973,-0.62074 -0.23918,-0.80297c-0.15945,-0.18223 -0.4442,-0.3303 -0.85422,-0.44419v-0.5467h7.27796v0.5467c-0.41003,0.10251 -0.69477,0.25057 -0.85422,0.44419c-0.15945,0.18223 -0.23918,0.44989 -0.23918,0.80297zM234.7623,188.54893h14.33383c0.35308,0 0.62074,-0.07973 0.80297,-0.23918c0.18223,-0.15945 0.3303,-0.44419 0.44419,-0.85422h0.5467v6.0308h-0.5467c-0.11389,-0.41003 -0.26196,-0.69477 -0.44419,-0.85422c-0.18223,-0.15945 -0.44989,-0.23918 -0.80297,-0.23918h-20.51839v-0.54671c0.41003,-0.11389 0.69477,-0.26196 0.85422,-0.44419c0.15945,-0.18223 0.23918,-0.44989 0.23918,-0.80297v-19.73251c0,-0.35308 -0.07973,-0.62074 -0.23918,-0.80297c-0.15945,-0.18223 -0.44419,-0.3303 -0.85422,-0.44419v-0.5467h7.27796v0.5467c-0.41003,0.10251 -0.69477,0.25057 -0.85422,0.44419c-0.15945,0.18223 -0.23918,0.44989 -0.23918,0.80297zM254.42647,190.59906v-19.74959c0,-0.34169 -0.07973,-0.60366 -0.23919,-0.78589c-0.15945,-0.18223 -0.44419,-0.3303 -0.85422,-0.44419v-0.5467h7.27797v0.5467c-0.41003,0.10251 -0.69477,0.25057 -0.85422,0.44419c-0.15946,0.18223 -0.23919,0.4442 -0.23919,0.78589v19.74959c0,0.35308 0.07973,0.62643 0.23919,0.82005c0.17084,0.18223 0.45558,0.3246 0.85422,0.42711v0.54671h-7.27797v-0.54671c0.41003,-0.11389 0.69477,-0.26196 0.85422,-0.44419c0.15946,-0.18223 0.23919,-0.44989 0.23919,-0.80297zM277.61003,168.66266c4.06609,0 7.28936,1.0991 9.66979,3.2973c2.5171,2.3007 3.77565,5.27339 3.77565,8.91806c0,2.23237 -0.60365,4.31667 -1.81094,6.2529c-2.35765,3.78135 -6.22443,5.67203 -11.60033,5.67203c-4.03192,0 -7.2381,-1.0991 -9.61853,-3.29729c-1.27563,-1.17313 -2.24375,-2.57975 -2.90435,-4.21985c-0.58087,-1.44649 -0.87131,-2.967 -0.87131,-4.56155c0,-2.33487 0.59796,-4.47042 1.79387,-6.40665c2.28931,-3.70163 6.1447,-5.58661 11.56615,-5.65495zM277.62712,172.60916c-2.22097,0 -4.07179,0.6606 -5.55244,1.9818c-1.754,1.56037 -2.631,3.60481 -2.631,6.1333c0,2.5285 0.877,4.57294 2.631,6.13331c1.48065,1.3212 3.34286,1.9818 5.58661,1.9818c2.24375,0 4.10026,-0.6606 5.56952,-1.9818c0.877,-0.78588 1.54899,-1.7483 2.01596,-2.88727c0.41003,-1.01367 0.61504,-2.06152 0.61504,-3.14353c0,-2.64239 -0.877,-4.721 -2.631,-6.23581c-1.49204,-1.29842 -3.35994,-1.95902 -5.60369,-1.9818zM300.48608,176.41899v14.18007c0,0.35308 0.07973,0.62074 0.23918,0.80297c0.15945,0.18223 0.44419,0.3303 0.85422,0.44419v0.54671h-6.85085v-0.54671c0.41002,-0.11389 0.69476,-0.26196 0.85422,-0.44419c0.15945,-0.18223 0.23918,-0.44989 0.23918,-0.80297v-19.74959c0,-0.34169 -0.07973,-0.60366 -0.23918,-0.78589c-0.15946,-0.18223 -0.4442,-0.3303 -0.85422,-0.44419v-0.5467h7.92717v0.5467c-0.48975,0.12529 -0.73463,0.38725 -0.73463,0.78588c0,0.27335 0.15945,0.57518 0.47836,0.90548l12.86457,13.3771v-13.83838c0,-0.34169 -0.07973,-0.60366 -0.23918,-0.78589c-0.15945,-0.18223 -0.44419,-0.3303 -0.85422,-0.44419v-0.5467h6.85085v0.5467c-0.41003,0.11389 -0.69477,0.26196 -0.85422,0.44419c-0.15945,0.18223 -0.23918,0.4442 -0.23918,0.78589v19.74959c0,0.35308 0.07973,0.62074 0.23918,0.80297c0.15945,0.18223 0.44419,0.3303 0.85422,0.44419v0.54671h-7.3463v-0.54671c0.47837,-0.10251 0.71755,-0.34738 0.71755,-0.73463c0,-0.22779 -0.27905,-0.62642 -0.83714,-1.19591z"/></g></g></svg>