<svg version="1.1" xmlns="http://www.w3.org/2000/svg" xmlns:xlink="http://www.w3.org/1999/xlink" width="9.78018" height="12.60003" viewBox="0,0,9.78018,12.60003"><g transform="translate(-306.90309,-167.00453)"><g data-paper-data="{&quot;isPaintingLayer&quot;:true}" fill="#000000" fill-rule="evenodd" stroke="#000000" stroke-width="0" stroke-linecap="round" stroke-linejoin="miter" stroke-miterlimit="10" stroke-dasharray="" stroke-dashoffset="0" style="mix-blend-mode: normal"><path d="M316.66318,170.80455l-0.32,1.2c-0.00962,0.03408 -0.02447,0.06646 -0.044,0.096c-0.042,0.061 -0.102,0.095 -0.181,0.102c-0.01163,0.00123 -0.02331,0.00189 -0.035,0.002h-1.36c-0.054,0 -0.097,0.008 -0.13,0.024c-0.03814,0.01801 -0.06451,0.05418 -0.07,0.096l-0.52,1.82c-0.00017,0.00676 -0.00118,0.01348 -0.003,0.02c-0.001,0.005 -0.003,0.011 -0.005,0.016c-0.00064,0.00135 -0.00131,0.00268 -0.002,0.004c-0.0024,0.00483 -0.0044,0.00985 -0.006,0.015c-0.001,0.002 -0.001,0.003 -0.002,0.005c-0.00148,0.00656 -0.00216,0.01328 -0.002,0.02c-0.0005,0.02699 0.00425,0.05382 0.014,0.079c0.024,0.06 0.081,0.093 0.171,0.1c0.01165,0.00076 0.02332,0.0011 0.035,0.001h1.4c0.01945,-0.00013 0.03886,0.00154 0.058,0.005c0.064,0.012 0.098,0.047 0.102,0.104c0.00012,0.00367 0.00012,0.00733 0,0.011c-0.00002,0.00369 -0.00035,0.00737 -0.001,0.011c-0.001,0.004 -0.002,0.008 -0.003,0.011c-0.00154,0.00298 -0.00357,0.00569 -0.006,0.008c-0.006,0.006 -0.01,0.021 -0.01,0.044c-0.00002,0.002 -0.00002,0.004 0,0.006l-0.32,1.2c-0.036,0.121 -0.111,0.187 -0.225,0.198c-0.01163,0.00123 -0.02331,0.00189 -0.035,0.002h-1.52c-0.054,0 -0.097,0.008 -0.13,0.024c-0.03814,0.01801 -0.06451,0.05418 -0.07,0.096l-0.96,3.34c-0.00307,0.0266 -0.01269,0.05203 -0.028,0.074c-0.029,0.039 -0.077,0.061 -0.145,0.065c-0.00899,0.00062 -0.01799,0.00096 -0.027,0.001h-0.66c-0.02754,0.00021 -0.05502,-0.00247 -0.082,-0.008c-0.08,-0.017 -0.125,-0.062 -0.136,-0.137c-0.00148,-0.01161 -0.00214,-0.0233 -0.002,-0.035c0.00002,-0.00369 0.00035,-0.00737 0.001,-0.011c0.001,-0.004 0.002,-0.008 0.003,-0.011c0.00154,-0.00298 0.00357,-0.00569 0.006,-0.008c0.006,-0.006 0.01,-0.021 0.01,-0.044c0.00002,-0.002 0.00002,-0.004 0,-0.006l0.86,-3.1c0.00002,-0.00369 0.00035,-0.00737 0.001,-0.011c0.001,-0.004 0.002,-0.008 0.003,-0.011c0.00154,-0.00298 0.00357,-0.00569 0.006,-0.008c0.00321,-0.00342 0.0056,-0.00752 0.007,-0.012c0.002,-0.005 0.003,-0.011 0.003,-0.018c0.00038,-0.02666 -0.00438,-0.05314 -0.014,-0.078c-0.024,-0.061 -0.081,-0.094 -0.171,-0.101c-0.01165,-0.00076 -0.02332,-0.0011 -0.035,-0.001h-2.26c-0.0231,-0.0003 -0.04618,0.00137 -0.069,0.005c-0.077,0.014 -0.12,0.052 -0.131,0.115l-0.94,3.34c-0.00307,0.0266 -0.01269,0.05203 -0.028,0.074c-0.029,0.039 -0.077,0.061 -0.145,0.065c-0.00899,0.00062 -0.01799,0.00096 -0.027,0.001h-0.66c-0.02754,0.00021 -0.05502,-0.00247 -0.082,-0.008c-0.08,-0.017 -0.125,-0.062 -0.136,-0.137c-0.00148,-0.01161 -0.00214,-0.0233 -0.002,-0.035c0.00002,-0.00369 0.00035,-0.00737 0.001,-0.011c0.001,-0.004 0.002,-0.008 0.003,-0.011c0.00154,-0.00298 0.00357,-0.00569 0.006,-0.008c0.006,-0.006 0.01,-0.021 0.01,-0.044c0.00002,-0.002 0.00002,-0.004 0,-0.006l0.88,-3.1c0.00002,-0.00369 0.00035,-0.00737 0.001,-0.011c0.001,-0.004 0.002,-0.008 0.003,-0.011c0.00154,-0.00298 0.00357,-0.00569 0.006,-0.008c0.00321,-0.00342 0.0056,-0.00752 0.007,-0.012c0.002,-0.005 0.003,-0.011 0.003,-0.018c0.00038,-0.02666 -0.00438,-0.05314 -0.014,-0.078c-0.024,-0.061 -0.081,-0.094 -0.171,-0.101c-0.01165,-0.00076 -0.02332,-0.0011 -0.035,-0.001h-1.24c-0.01945,0.00013 -0.03886,-0.00154 -0.058,-0.005c-0.064,-0.012 -0.098,-0.047 -0.102,-0.104c-0.00012,-0.00367 -0.00012,-0.00733 0,-0.011c0.00002,-0.00369 0.00035,-0.00737 0.001,-0.011c0.001,-0.004 0.002,-0.008 0.003,-0.011c0.00154,-0.00298 0.00357,-0.00569 0.006,-0.008c0.007,-0.007 0.01,-0.023 0.01,-0.05l0.32,-1.2c0.04,-0.133 0.127,-0.2 0.26,-0.2h1.36c0.06226,0.00161 0.12119,-0.02804 0.157,-0.079c0.015,-0.02 0.028,-0.043 0.038,-0.069c0.00173,-0.00397 0.00339,-0.00797 0.005,-0.012l0.52,-1.8c0.00002,-0.00369 0.00035,-0.00737 0.001,-0.011c0.001,-0.004 0.002,-0.008 0.003,-0.011c0.00154,-0.00298 0.00357,-0.00569 0.006,-0.008c0.006,-0.005 0.009,-0.013 0.01,-0.023c0.00012,-0.00233 0.00012,-0.00467 0,-0.007c0.00038,-0.02666 -0.00438,-0.05314 -0.014,-0.078c-0.024,-0.061 -0.081,-0.094 -0.171,-0.101c-0.01165,-0.00076 -0.02332,-0.0011 -0.035,-0.001h-1.4c-0.01945,0.00013 -0.03886,-0.00154 -0.058,-0.005c-0.064,-0.012 -0.098,-0.047 -0.102,-0.104c-0.00012,-0.00367 -0.00012,-0.00733 0,-0.011c0.00002,-0.00369 0.00035,-0.00737 0.001,-0.011c0.001,-0.008 0.004,-0.014 0.009,-0.019c0.00211,-0.00198 0.00381,-0.00436 0.005,-0.007c0.003,-0.008 0.005,-0.021 0.005,-0.037c0.00002,-0.002 0.00002,-0.004 0,-0.006l0.32,-1.2c0.00962,-0.03408 0.02447,-0.06646 0.044,-0.096c0.042,-0.06 0.102,-0.095 0.181,-0.102c0.01163,-0.00123 0.02331,-0.00189 0.035,-0.002h1.54c0.06226,0.00161 0.12119,-0.02804 0.157,-0.079c0.015,-0.02 0.028,-0.043 0.038,-0.069c0.00173,-0.00397 0.00339,-0.00797 0.005,-0.012l0.94,-3.3c0.039,-0.091 0.104,-0.138 0.194,-0.14c0.002,-0.00002 0.004,-0.00002 0.006,0h0.66c0.02754,-0.00021 0.05502,0.00247 0.082,0.008c0.08,0.017 0.125,0.063 0.136,0.137c0.00148,0.01161 0.00214,0.0233 0.002,0.035c0.00003,0.00988 -0.00166,0.0197 -0.005,0.029c-0.00145,0.00376 -0.00312,0.00743 -0.005,0.011c-0.00429,0.00817 -0.00732,0.01693 -0.009,0.026c-0.00073,0.00463 -0.00107,0.00931 -0.001,0.014l-0.86,3.08c0,0.012 -0.003,0.024 -0.008,0.036c-0.00064,0.00135 -0.00131,0.00268 -0.002,0.004c-0.0024,0.00483 -0.0044,0.00985 -0.006,0.015c-0.003,0.008 -0.004,0.017 -0.004,0.025c-0.0005,0.02699 0.00425,0.05382 0.014,0.079c0.024,0.06 0.081,0.093 0.171,0.1c0.01165,0.00076 0.02332,0.0011 0.035,0.001h2.24c0.06226,0.00161 0.12119,-0.02804 0.157,-0.079c0.015,-0.02 0.028,-0.043 0.038,-0.069c0.00173,-0.00397 0.00339,-0.00797 0.005,-0.012l0.96,-3.3c0.00307,-0.0266 0.01269,-0.05203 0.028,-0.074c0.029,-0.039 0.077,-0.061 0.145,-0.065c0.00899,-0.00062 0.01799,-0.00096 0.027,-0.001h0.66c0.02754,-0.00021 0.05502,0.00247 0.082,0.008c0.08,0.017 0.125,0.063 0.136,0.137c0.00148,0.01161 0.00214,0.0233 0.002,0.035c0.00003,0.00988 -0.00166,0.0197 -0.005,0.029c-0.00145,0.00376 -0.00312,0.00743 -0.005,0.011c-0.00429,0.00817 -0.00732,0.01693 -0.009,0.026c-0.00073,0.00463 -0.00107,0.00931 -0.001,0.014l-0.86,3.08c-0.00017,0.00676 -0.00118,0.01348 -0.003,0.02c-0.001,0.005 -0.003,0.011 -0.005,0.016c-0.00064,0.00135 -0.00131,0.00268 -0.002,0.004c-0.0024,0.00483 -0.0044,0.00985 -0.006,0.015c-0.001,0.002 -0.001,0.003 -0.002,0.005c-0.00148,0.00656 -0.00216,0.01328 -0.002,0.02c-0.0005,0.02699 0.00425,0.05382 0.014,0.079c0.024,0.06 0.081,0.093 0.171,0.1c0.01165,0.00076 0.02332,0.0011 0.035,0.001h1.22c0.01945,-0.00013 0.03886,0.00154 0.058,0.005c0.064,0.012 0.098,0.047 0.102,0.104c0.00012,0.00367 0.00012,0.00733 0,0.011c-0.00002,0.00369 -0.00035,0.00737 -0.001,0.011c-0.001,0.004 -0.002,0.008 -0.003,0.011c-0.00154,0.00298 -0.00357,0.00569 -0.006,0.008c-0.006,0.006 -0.009,0.02 -0.01,0.043c-0.00003,0.00233 -0.00003,0.00467 0,0.007zM313.16318,172.20455h-2.24c-0.0231,-0.0003 -0.04618,0.00137 -0.069,0.005c-0.077,0.014 -0.12,0.052 -0.131,0.115l-0.52,1.82c0,0.012 -0.003,0.024 -0.008,0.036c-0.00064,0.00135 -0.00131,0.00268 -0.002,0.004c-0.0024,0.00483 -0.0044,0.00985 -0.006,0.015c-0.003,0.008 -0.004,0.017 -0.004,0.025c-0.0005,0.02699 0.00425,0.05382 0.014,0.079c0.024,0.06 0.081,0.093 0.171,0.1c0.01165,0.00076 0.02332,0.0011 0.035,0.001h2.26c0.06226,0.00161 0.12119,-0.02804 0.157,-0.079c0.015,-0.02 0.028,-0.043 0.038,-0.069c0.00173,-0.00397 0.00339,-0.00797 0.005,-0.012l0.5,-1.8c0.00002,-0.00369 0.00035,-0.00737 0.001,-0.011c0.001,-0.008 0.004,-0.014 0.009,-0.019c0.00321,-0.00342 0.0056,-0.00752 0.007,-0.012c0.002,-0.005 0.003,-0.011 0.003,-0.018c0.00038,-0.02666 -0.00438,-0.05314 -0.014,-0.078c-0.024,-0.061 -0.081,-0.094 -0.171,-0.101c-0.01165,-0.00076 -0.02332,-0.0011 -0.035,-0.001z"/></g></g></svg>