<svg version="1.1" xmlns="http://www.w3.org/2000/svg" xmlns:xlink="http://www.w3.org/1999/xlink" width="3.60006" height="18.16" viewBox="0,0,3.60006,18.16"><g transform="translate(-242.38314,-165.02454)"><g data-paper-data="{&quot;isPaintingLayer&quot;:true}" fill="#000000" fill-rule="evenodd" stroke="#000000" stroke-width="0" stroke-linecap="round" stroke-linejoin="miter" stroke-miterlimit="10" stroke-dasharray="" stroke-dashoffset="0" style="mix-blend-mode: normal"><path d="M242.38318,179.60455v-11c-0.00126,-0.28499 0.02587,-0.56939 0.081,-0.849c0.04289,-0.21584 0.10617,-0.42712 0.189,-0.631c0.10932,-0.27084 0.24887,-0.52847 0.416,-0.768c0.08948,-0.12734 0.18772,-0.2483 0.294,-0.362c0.293,-0.313 0.633,-0.553 1.02,-0.72c0.387,-0.167 0.787,-0.25 1.2,-0.25c0.109,0 0.194,0.006 0.255,0.017c0.01862,0.00303 0.037,0.00738 0.055,0.013c0.03621,0.012 0.06447,0.04064 0.076,0.077c0.006,0.016 0.01,0.034 0.012,0.054c0.00136,0.01295 0.00203,0.02597 0.002,0.039v1.2c0.00013,0.01436 -0.00054,0.02871 -0.002,0.043c-0.005,0.043 -0.018,0.072 -0.038,0.087c-0.00908,0.00669 -0.01842,0.01303 -0.028,0.019c-0.021,0.014 -0.047,0.028 -0.077,0.043c-0.00499,0.00269 -0.00999,0.00536 -0.015,0.008c-0.11574,0.05151 -0.2314,0.10317 -0.347,0.155c-0.10774,0.04816 -0.21541,0.09649 -0.323,0.145c-0.09849,0.04422 -0.19372,0.09535 -0.285,0.153c-0.08321,0.05224 -0.16182,0.11145 -0.235,0.177c-0.14,0.127 -0.25,0.28 -0.33,0.46c-0.03431,0.07844 -0.06045,0.1602 -0.078,0.244c-0.017,0.082 -0.029,0.171 -0.036,0.266c-0.00407,0.05991 -0.00607,0.11995 -0.006,0.18v11.4c-0.00053,0.09455 0.00448,0.18904 0.015,0.283c0.011,0.092 0.028,0.178 0.051,0.256c0.01449,0.05152 0.03253,0.10198 0.054,0.151c0.08,0.18 0.19,0.333 0.33,0.46c0.08288,0.07432 0.17261,0.14061 0.268,0.198c0.08124,0.04908 0.16539,0.09316 0.252,0.132c0.10759,0.04851 0.21526,0.09684 0.323,0.145c0.1156,0.05183 0.23126,0.10349 0.347,0.155c0.01242,0.00616 0.02475,0.0125 0.037,0.019c0.035,0.019 0.063,0.036 0.083,0.051c0.00988,0.00768 0.01777,0.01763 0.023,0.029c0.011,0.024 0.017,0.057 0.017,0.101v1.2c0.0001,0.01978 -0.00157,0.03952 -0.005,0.059c-0.003,0.02 -0.009,0.038 -0.017,0.053c-0.01392,0.02771 -0.03844,0.04863 -0.068,0.058c-0.045,0.015 -0.115,0.025 -0.21,0.028c-0.03332,0.00132 -0.06666,0.00198 -0.1,0.002c-0.413,0 -0.813,-0.083 -1.2,-0.25c-0.387,-0.167 -0.727,-0.407 -1.02,-0.72c-0.2302,-0.24804 -0.42351,-0.52791 -0.574,-0.831c-0.04921,-0.09786 -0.09458,-0.1976 -0.136,-0.299c-0.18,-0.44 -0.27,-0.933 -0.27,-1.48z"/></g></g></svg>