<svg version="1.1" xmlns="http://www.w3.org/2000/svg" xmlns:xlink="http://www.w3.org/1999/xlink" width="178.89805" height="27.11675" viewBox="0,0,178.89805,27.11675"><defs><linearGradient x1="150.54332" y1="180" x2="329.44137" y2="180" gradientUnits="userSpaceOnUse" id="color-1"><stop offset="0" stop-color="#000000"/><stop offset="1" stop-color="#000000"/></linearGradient></defs><g transform="translate(-150.54332,-166.44163)"><g data-paper-data="{&quot;isPaintingLayer&quot;:true}" fill-rule="nonzero" stroke-width="1" stroke-linecap="butt" stroke-linejoin="miter" stroke-miterlimit="10" stroke-dasharray="" stroke-dashoffset="0" style="mix-blend-mode: normal"><path d="M151.21193,180.23442l11.59659,-13.2928h154.90881l11.07073,12.83554l-10.89246,13.28121h-155.09604z" fill="url(#color-1)" stroke="#80f7ff"/><path d="M212.76922,178.71498l0.24805,0.02067c1.14836,0.10106 2.02342,0.35829 2.62516,0.7717c0.31235,0.21589 0.5581,0.50758 0.73725,0.87505c0.18374,0.36288 0.27561,0.75103 0.27561,1.16444c0,0.6339 -0.18374,1.18511 -0.55121,1.65364c-0.36288,0.46853 -0.89113,0.82682 -1.58474,1.07487c-0.56959,0.20671 -1.15296,0.32384 -1.75011,0.3514v0.44786c0,0.1424 0.03215,0.25034 0.09646,0.32384c0.06431,0.0735 0.17914,0.13321 0.34451,0.17915v0.22049h-1.91547v-0.22049c0.16536,-0.04593 0.2802,-0.10565 0.34451,-0.17915c0.06431,-0.07349 0.09646,-0.18144 0.09646,-0.32384v-0.44786c-1.11162,-0.08268 -2.23931,-0.41112 -3.38308,-0.9853c-0.10106,-0.05053 -0.18144,-0.07579 -0.24116,-0.07579c-0.05971,0 -0.15388,0.05053 -0.2825,0.15158l-0.19982,-0.09646l1.01975,-2.30821l0.19982,0.08957c0,0.04593 0,0.07809 0,0.09646c0,0.24805 0.14469,0.47313 0.43408,0.67524c0.29857,0.20671 0.67754,0.38815 1.13688,0.54432c0.46394,0.15618 0.90261,0.25264 1.31602,0.28939v-2.34955c-0.67064,-0.06431 -1.17363,-0.13321 -1.50895,-0.20671c-0.33532,-0.0735 -0.64997,-0.18374 -0.94396,-0.33073c-0.4226,-0.2113 -0.75103,-0.52136 -0.9853,-0.93017c-0.21589,-0.37666 -0.32384,-0.80385 -0.32384,-1.28157c0,-0.88654 0.33532,-1.59852 1.00597,-2.13596c0.67524,-0.53743 1.59393,-0.82453 2.75607,-0.86127v-0.33762c0,-0.1378 -0.03215,-0.24345 -0.09646,-0.31695c-0.06431,-0.0735 -0.17914,-0.13321 -0.34451,-0.17915v-0.22048h1.92236v0.22048c-0.16996,0.04593 -0.28709,0.10565 -0.3514,0.17915c-0.06431,0.0735 -0.09646,0.17914 -0.09646,0.31695v0.37207c0.43179,0.03215 0.87276,0.11484 1.32292,0.24805c0.45475,0.13321 1.04042,0.3514 1.757,0.65457c0.11943,0.05053 0.2136,0.07579 0.2825,0.07579c0.09646,0 0.209,-0.05282 0.33762,-0.15847l0.19982,0.10335l-1.12999,2.21175l-0.19293,-0.11024c0.0046,-0.03675 0.0069,-0.07349 0.0069,-0.11024c0,-0.23427 -0.29628,-0.49839 -0.88883,-0.79237c-0.58796,-0.29857 -1.15296,-0.46853 -1.69499,-0.50987zM211.73569,178.59784v-2.07395c-0.37666,0.02756 -0.69132,0.08268 -0.94395,0.16536c-0.2802,0.09187 -0.50298,0.22967 -0.66835,0.41341c-0.16536,0.18374 -0.24805,0.38355 -0.24805,0.59945c0,0.16536 0.05742,0.31236 0.17226,0.44097c0.11484,0.12862 0.27101,0.22049 0.46853,0.27561c0.27561,0.07809 0.68213,0.1378 1.21956,0.17915zM212.76922,180.77514v2.23931c0.45475,-0.05053 0.82453,-0.14469 1.10932,-0.2825c0.52365,-0.25723 0.78548,-0.60634 0.78548,-1.04731c0,-0.14699 -0.04823,-0.2825 -0.14469,-0.40652c-0.09187,-0.12862 -0.2113,-0.21819 -0.35829,-0.26872c-0.25723,-0.09187 -0.72117,-0.16996 -1.39182,-0.23427zM225.10954,179.54869c1.04271,0.39044 1.56407,1.08406 1.56407,2.08084c0,1.01975 -0.44786,1.79374 -1.34359,2.32199c-0.78548,0.46394 -1.76848,0.69591 -2.949,0.69591c-1.25401,0 -2.39089,-0.24575 -3.41064,-0.73725c-0.42719,-0.20671 -0.7028,-0.31006 -0.82682,-0.31006c-0.11484,0 -0.27101,0.08498 -0.46853,0.25494l-0.19982,-0.10335l1.10243,-2.54248l0.20671,0.08957c-0.02297,0.05512 -0.03445,0.10335 -0.03445,0.14469c0,0.24805 0.12632,0.47542 0.37896,0.68213c0.32614,0.26642 0.79237,0.48691 1.39871,0.66146c0.60634,0.16996 1.21497,0.25494 1.8259,0.25494c0.57878,0 1.07487,-0.09417 1.48828,-0.2825c0.52365,-0.23886 0.78548,-0.61323 0.78548,-1.1231c0,-0.44097 -0.18604,-0.774 -0.5581,-0.99908c-0.37207,-0.22508 -0.92099,-0.33762 -1.64675,-0.33762c-0.44097,0 -0.74644,0.03215 -0.91639,0.09646c-0.16536,0.06431 -0.27101,0.19063 -0.31695,0.37896h-0.22049v-2.30821h0.22049c0.05512,0.20671 0.15618,0.34221 0.30317,0.40652c0.15158,0.05971 0.44556,0.08957 0.88194,0.08957c0.67983,0 1.20119,-0.11943 1.56407,-0.35829c0.31695,-0.20211 0.47542,-0.4938 0.47542,-0.87505c0,-0.39044 -0.17685,-0.69132 -0.53054,-0.90261c-0.3537,-0.2113 -0.85898,-0.31695 -1.51584,-0.31695c-0.92788,0 -1.74322,0.20441 -2.44602,0.61323c-0.33992,0.20211 -0.50987,0.41341 -0.50987,0.6339c0,0.08728 0.02986,0.19063 0.08957,0.31006l-0.17226,0.1378l-1.58474,-1.94992l0.17225,-0.1378c0.16996,0.07809 0.29628,0.11713 0.37896,0.11713c0.09187,0 0.21589,-0.05283 0.37207,-0.15848c1.15296,-0.77629 2.44142,-1.16444 3.86539,-1.16444c0.99219,0 1.8282,0.19522 2.50803,0.58567c0.39044,0.22508 0.69591,0.51676 0.91639,0.87505c0.22508,0.37207 0.33762,0.78778 0.33762,1.24712c0,0.82223 -0.39504,1.46531 -1.18511,1.92925zM230.27029,182.78708h5.75331c0.1424,0 0.25034,-0.03215 0.32384,-0.09646c0.0735,-0.06431 0.13321,-0.17914 0.17915,-0.34451h0.22049v2.57693h-0.22049c-0.04593,-0.16536 -0.10565,-0.2802 -0.17915,-0.34451c-0.0735,-0.06431 -0.18144,-0.09646 -0.32384,-0.09646h-7.32427c-0.23427,0 -0.39274,0.02756 -0.47542,0.08268c-0.08268,0.05512 -0.14469,0.17455 -0.18604,0.35829h-0.22049c-0.0046,-0.22967 -0.0069,-0.37666 -0.0069,-0.44097c0,-0.58796 0.06661,-1.07257 0.19982,-1.45383c0.27101,-0.7717 0.77629,-1.42627 1.51584,-1.9637c0.38126,-0.27561 1.00367,-0.61093 1.86724,-1.00597l1.16444,-0.53055c0.54662,-0.25264 0.93936,-0.51217 1.17822,-0.77859c0.24345,-0.27101 0.36518,-0.59026 0.36518,-0.95774c0,-0.418 -0.14469,-0.73495 -0.43408,-0.95085c-0.28479,-0.22049 -0.7005,-0.33073 -1.24712,-0.33073c-0.66605,0 -1.28617,0.16307 -1.86035,0.4892c-0.55581,0.31236 -0.83371,0.6339 -0.83371,0.96463c0,0.07809 0.03675,0.22278 0.11024,0.43408l-0.15158,0.15847l-1.83279,-1.97748l0.16537,-0.15158c0.17455,0.08268 0.30317,0.12402 0.38585,0.12402c0.0735,0 0.1378,-0.01608 0.19293,-0.04823c0.05512,-0.03215 0.16766,-0.12402 0.33762,-0.27561c1.01056,-0.87735 2.25768,-1.31602 3.74137,-1.31602c1.06568,0 1.91777,0.26183 2.55626,0.78548c0.64768,0.53284 0.97152,1.24253 0.97152,2.12907c0,0.87276 -0.31006,1.59393 -0.93018,2.16352c-0.40882,0.37207 -0.95774,0.71199 -1.64675,1.01975l-1.06109,0.47542c-0.11024,0.05512 -0.36059,0.16077 -0.75103,0.31695c-0.47772,0.19292 -0.81304,0.3514 -1.00597,0.47542c-0.19293,0.11943 -0.37207,0.28939 -0.53743,0.50987zM238.66942,186.20461c0.37666,-0.24805 0.64768,-0.4892 0.81304,-0.72347c0.16537,-0.23427 0.2825,-0.53743 0.3514,-0.9095c-0.22049,0.05053 -0.38126,0.07579 -0.48231,0.07579c-0.30317,0 -0.54662,-0.10565 -0.73036,-0.31695c-0.18374,-0.2113 -0.27561,-0.48691 -0.27561,-0.82682c0,-0.33992 0.09187,-0.61093 0.27561,-0.81304c0.18833,-0.20211 0.43638,-0.30317 0.74414,-0.30317c0.41341,0 0.73036,0.16996 0.95084,0.50987c0.19293,0.30776 0.28939,0.67524 0.28939,1.10243c0,1.01056 -0.53514,1.8925 -1.60541,2.64583zM246.66204,174.9116c1.23564,0 2.26228,0.40193 3.07992,1.20578c0.91869,0.90491 1.37803,2.14744 1.37803,3.72759c0,0.49609 -0.0689,0.99908 -0.2067,1.50895c-0.13781,0.50987 -0.32614,0.95314 -0.565,1.3298c-0.418,0.66146 -0.96921,1.16444 -1.65364,1.50895c-0.60634,0.30317 -1.28158,0.45475 -2.02572,0.45475c-1.23564,0 -2.25998,-0.40422 -3.07302,-1.21267c-0.39044,-0.39044 -0.69361,-0.83142 -0.9095,-1.32292c-0.31236,-0.72577 -0.46854,-1.50436 -0.46854,-2.33577c0,-1.1208 0.25724,-2.09002 0.77171,-2.90766c0.40422,-0.64768 0.95543,-1.14837 1.65364,-1.50206c0.57877,-0.29398 1.25171,-0.44557 2.01882,-0.45475zM246.66204,176.51012c-0.73036,0 -1.31143,0.32384 -1.74321,0.97152c-0.39963,0.60174 -0.59945,1.34818 -0.59945,2.23931c0,0.89113 0.19982,1.63757 0.59945,2.23931c0.43178,0.64768 1.01515,0.97152 1.7501,0.97152c0.73955,0 1.32292,-0.32384 1.75011,-0.97152c0.39963,-0.60174 0.59945,-1.3344 0.59945,-2.19797c0,-0.93247 -0.19982,-1.69269 -0.59945,-2.28065c-0.42719,-0.63849 -1.01286,-0.96233 -1.757,-0.97152zM256.72861,174.9116c1.23564,0 2.26228,0.40193 3.07991,1.20578c0.91869,0.90491 1.37804,2.14744 1.37804,3.72759c0,0.49609 -0.0689,0.99908 -0.20671,1.50895c-0.1378,0.50987 -0.32613,0.95314 -0.56499,1.3298c-0.41801,0.66146 -0.96922,1.16444 -1.65365,1.50895c-0.60633,0.30317 -1.28157,0.45475 -2.02571,0.45475c-1.23564,0 -2.25998,-0.40422 -3.07303,-1.21267c-0.39044,-0.39044 -0.69361,-0.83142 -0.9095,-1.32292c-0.31235,-0.72577 -0.46853,-1.50436 -0.46853,-2.33577c0,-1.1208 0.25723,-2.09002 0.7717,-2.90766c0.40422,-0.64768 0.95543,-1.14837 1.65364,-1.50206c0.57878,-0.29398 1.25172,-0.44557 2.01883,-0.45475zM256.72861,176.51012c-0.73036,0 -1.31143,0.32384 -1.74322,0.97152c-0.39963,0.60174 -0.59945,1.34818 -0.59945,2.23931c0,0.89113 0.19982,1.63757 0.59945,2.23931c0.43179,0.64768 1.01516,0.97152 1.75011,0.97152c0.73955,0 1.32291,-0.32384 1.7501,-0.97152c0.39963,-0.60174 0.59945,-1.3344 0.59945,-2.19797c0,-0.93247 -0.19982,-1.69269 -0.59945,-2.28065c-0.42719,-0.63849 -1.01285,-0.96233 -1.75699,-0.97152zM266.79517,174.9116c1.23564,0 2.26228,0.40193 3.07991,1.20578c0.91869,0.90491 1.37804,2.14744 1.37804,3.72759c0,0.49609 -0.0689,0.99908 -0.20671,1.50895c-0.13781,0.50987 -0.32614,0.95314 -0.565,1.3298c-0.418,0.66146 -0.96921,1.16444 -1.65364,1.50895c-0.60633,0.30317 -1.28157,0.45475 -2.02571,0.45475c-1.23564,0 -2.25998,-0.40422 -3.07303,-1.21267c-0.39044,-0.39044 -0.69361,-0.83142 -0.9095,-1.32292c-0.31235,-0.72577 -0.46853,-1.50436 -0.46853,-2.33577c0,-1.1208 0.25723,-2.09002 0.7717,-2.90766c0.40422,-0.64768 0.95543,-1.14837 1.65364,-1.50206c0.57877,-0.29398 1.25172,-0.44557 2.01883,-0.45475zM266.79517,176.51012c-0.73036,0 -1.31143,0.32384 -1.74322,0.97152c-0.39963,0.60174 -0.59945,1.34818 -0.59945,2.23931c0,0.89113 0.19982,1.63757 0.59945,2.23931c0.43179,0.64768 1.01516,0.97152 1.75011,0.97152c0.73955,0 1.32291,-0.32384 1.7501,-0.97152c0.39963,-0.60174 0.59945,-1.3344 0.59945,-2.19797c0,-0.93247 -0.19982,-1.69269 -0.59945,-2.28065c-0.42719,-0.63849 -1.01285,-0.96233 -1.75699,-0.97152z" fill="#ffdb29" stroke="none"/></g></g></svg>