<svg version="1.1" xmlns="http://www.w3.org/2000/svg" xmlns:xlink="http://www.w3.org/1999/xlink" width="7.88004" height="13.00004" viewBox="0,0,7.88004,13.00004"><g transform="translate(-173.46849,-167.2247)"><g data-paper-data="{&quot;isPaintingLayer&quot;:true}" fill="#000000" fill-rule="evenodd" stroke="#000000" stroke-width="0" stroke-linecap="round" stroke-linejoin="miter" stroke-miterlimit="10" stroke-dasharray="" stroke-dashoffset="0" style="mix-blend-mode: normal"><path d="M181.22853,169.40475l-1.28,0.64c-0.023,0.012 -0.051,0.018 -0.084,0.02c-0.00534,0.00012 -0.01066,0.00012 -0.016,0c-0.01735,-0.00025 -0.03443,-0.00434 -0.05,-0.012c-0.029,-0.013 -0.058,-0.039 -0.088,-0.077c-0.0077,-0.01007 -0.01503,-0.02041 -0.022,-0.031c-0.10802,-0.14649 -0.22143,-0.28892 -0.34,-0.427c-0.10786,-0.12602 -0.2213,-0.24714 -0.34,-0.363c-0.1281,-0.12207 -0.28388,-0.21129 -0.454,-0.26c-0.114,-0.035 -0.24,-0.056 -0.378,-0.065c-0.04926,-0.00326 -0.09862,-0.00493 -0.148,-0.005h-0.96c-0.25386,-0.00282 -0.50554,0.04724 -0.739,0.147c-0.20222,0.08914 -0.38577,0.21569 -0.541,0.373c-0.33686,0.33058 -0.52461,0.78405 -0.52,1.256c-0.00005,0.008 -0.00005,0.016 0,0.024v6.2c-0.00282,0.25386 0.04724,0.50554 0.147,0.739c0.08914,0.20222 0.21569,0.38577 0.373,0.541c0.33058,0.33686 0.78405,0.52461 1.256,0.52c0.008,0.00005 0.016,0.00005 0.024,0h0.6c0.25386,0.00282 0.50554,-0.04724 0.739,-0.147c0.20222,-0.08914 0.38577,-0.21569 0.541,-0.373c0.347,-0.347 0.52,-0.773 0.52,-1.28v-1.3c0.00034,-0.02667 -0.00302,-0.05326 -0.01,-0.079c-0.023,-0.081 -0.086,-0.121 -0.19,-0.121h-2c-0.02667,0.00034 -0.05326,-0.00303 -0.079,-0.01c-0.059,-0.017 -0.097,-0.055 -0.112,-0.116c-0.00611,-0.02418 -0.00914,-0.04905 -0.009,-0.074v-1.2c-0.00034,-0.02667 0.00303,-0.05326 0.01,-0.079c0.017,-0.059 0.056,-0.097 0.116,-0.112c0.02418,-0.00611 0.04905,-0.00914 0.074,-0.009h3.8c0.02667,-0.00034 0.05326,0.00302 0.079,0.01c0.081,0.023 0.121,0.086 0.121,0.19v2.9c0.00134,0.29541 -0.03121,0.59 -0.097,0.878c-0.04033,0.17481 -0.09485,0.34605 -0.163,0.512c-0.173,0.42 -0.417,0.78 -0.73,1.08c-0.28108,0.2671 -0.60931,0.4797 -0.968,0.627c-0.05349,0.02228 -0.10751,0.04329 -0.162,0.063c-0.44,0.16 -0.933,0.24 -1.48,0.24h-0.6c-0.547,0 -1.04,-0.08 -1.48,-0.24c-0.44,-0.16 -0.817,-0.39 -1.13,-0.69c-0.313,-0.3 -0.557,-0.66 -0.73,-1.08c-0.1325,-0.325 -0.21477,-0.66825 -0.244,-1.018c-0.01086,-0.1237 -0.0162,-0.24782 -0.016,-0.372v-6.2c-0.00134,-0.29541 0.03121,-0.59 0.097,-0.878c0.04033,-0.17481 0.09484,-0.34605 0.163,-0.512c0.173,-0.42 0.417,-0.78 0.73,-1.08c0.28108,-0.2671 0.60931,-0.4797 0.968,-0.627c0.05349,-0.02228 0.10751,-0.04329 0.162,-0.063c0.28705,-0.10273 0.58504,-0.17186 0.888,-0.206c0.19649,-0.02294 0.39417,-0.0343 0.592,-0.034h0.96c0.26509,-0.00116 0.52977,0.02092 0.791,0.066c0.18981,0.03333 0.37671,0.08148 0.559,0.144c0.407,0.14 0.757,0.31 1.05,0.51c0.12194,0.08237 0.23789,0.17326 0.347,0.272c0.12,0.109 0.222,0.223 0.307,0.341c0.00881,0.01223 0.01748,0.02456 0.026,0.037c0.115,0.168 0.189,0.327 0.221,0.478c0.01238,0.0565 0.01875,0.11416 0.019,0.172c0,0.04374 -0.01897,0.08533 -0.052,0.114c-0.014,0.014 -0.031,0.026 -0.052,0.037c-0.00526,0.00313 -0.0106,0.00613 -0.016,0.009z"/></g></g></svg>