<svg version="1.1" xmlns="http://www.w3.org/2000/svg" xmlns:xlink="http://www.w3.org/1999/xlink" width="7.9201" height="12.60021" viewBox="0,0,7.9201,12.60021"><g transform="translate(-278.70852,-167.42459)"><g data-paper-data="{&quot;isPaintingLayer&quot;:true}" fill="#000000" fill-rule="evenodd" stroke="#000000" stroke-width="0" stroke-linecap="round" stroke-linejoin="miter" stroke-miterlimit="10" stroke-dasharray="" stroke-dashoffset="0" style="mix-blend-mode: normal"><path d="M286.42852,180.02475h-1.54l-0.18,-0.14l-1.86,-5.34l-0.16,-0.12h-1.98c-0.02667,-0.00034 -0.05326,0.00302 -0.079,0.01c-0.081,0.023 -0.121,0.086 -0.121,0.19v5.2c0.00034,0.02667 -0.00303,0.05325 -0.01,0.079c-0.017,0.059 -0.056,0.097 -0.116,0.113c-0.02423,0.00578 -0.0491,0.00847 -0.074,0.008h-1.4c-0.02667,0.00034 -0.05326,-0.00302 -0.079,-0.01c-0.059,-0.017 -0.097,-0.055 -0.112,-0.116c-0.00612,-0.02418 -0.00914,-0.04905 -0.009,-0.074v-12.2c0,-0.106 0.042,-0.17 0.126,-0.191c0.02418,-0.00611 0.04905,-0.00914 0.074,-0.009h4c0.3717,-0.00309 0.7424,0.03888 1.104,0.125c0.57723,0.13457 1.10562,0.42716 1.526,0.845c0.44971,0.45441 0.75426,1.03219 0.875,1.66c0.06505,0.31919 0.09689,0.64425 0.095,0.97v0.2c-0.00119,0.18317 -0.0247,0.36551 -0.07,0.543c-0.039,0.158 -0.095,0.323 -0.168,0.492c-0.01359,0.03185 -0.02759,0.06351 -0.042,0.095c-0.11992,0.25728 -0.27214,0.49822 -0.453,0.717c-0.12563,0.15345 -0.26162,0.29812 -0.407,0.433c-0.186,0.173 -0.352,0.289 -0.499,0.35c-0.00034,0 -0.00067,0 -0.001,0c-0.03161,0.01266 -0.06206,0.02805 -0.091,0.046c-0.031,0.02 -0.056,0.041 -0.076,0.064c-0.03434,0.03852 -0.05322,0.08839 -0.053,0.14c-0.00003,0.00771 0.00064,0.01541 0.002,0.023c0.003,0.015 0.009,0.028 0.018,0.037l1.94,5.6c0.00642,0.01335 0.01112,0.02747 0.014,0.042c0.003,0.013 0.005,0.027 0.006,0.042c0.00013,0.00534 0.00013,0.01066 0,0.016c0,0.107 -0.067,0.16 -0.2,0.16zM284.70853,171.02475v-0.2c0.00282,-0.25386 -0.04724,-0.50554 -0.147,-0.739c-0.08914,-0.20222 -0.21569,-0.38577 -0.373,-0.541c-0.33058,-0.33686 -0.78406,-0.52461 -1.256,-0.52c-0.008,-0.00005 -0.016,-0.00005 -0.024,0h-2.2c-0.02667,-0.00034 -0.05326,0.00302 -0.079,0.01c-0.059,0.017 -0.097,0.056 -0.112,0.116c-0.00612,0.02418 -0.00914,0.04905 -0.009,0.074v3.4c-0.00034,0.02667 0.00302,0.05326 0.01,0.079c0.017,0.059 0.056,0.097 0.116,0.113c0.02423,0.00578 0.0491,0.00847 0.074,0.008h2.2c0.25387,0.00282 0.50554,-0.04724 0.739,-0.147c0.20222,-0.08914 0.38578,-0.21569 0.541,-0.373c0.347,-0.347 0.52,-0.773 0.52,-1.28z"/></g></g></svg>