<svg version="1.1" xmlns="http://www.w3.org/2000/svg" xmlns:xlink="http://www.w3.org/1999/xlink" width="7.80008" height="13.00003" viewBox="0,0,7.80008,13.00003"><g transform="translate(-148.80314,-166.80451)"><g data-paper-data="{&quot;isPaintingLayer&quot;:true}" fill="#000000" fill-rule="evenodd" stroke="#000000" stroke-width="0" stroke-linecap="round" stroke-linejoin="miter" stroke-miterlimit="10" stroke-dasharray="" stroke-dashoffset="0" style="mix-blend-mode: normal"><path d="M153.00318,179.80455h-0.6c-0.547,0 -1.04,-0.08 -1.48,-0.24c-0.44,-0.16 -0.817,-0.39 -1.13,-0.69c-0.313,-0.3 -0.557,-0.66 -0.73,-1.08c-0.13249,-0.32499 -0.21477,-0.66826 -0.244,-1.018c-0.01086,-0.1237 -0.0162,-0.24782 -0.016,-0.372v-6.2c-0.00134,-0.29541 0.03121,-0.59 0.097,-0.878c0.04033,-0.17481 0.09484,-0.34605 0.163,-0.512c0.173,-0.42 0.417,-0.78 0.73,-1.08c0.28109,-0.2671 0.60931,-0.4797 0.968,-0.627c0.05349,-0.02228 0.10751,-0.04329 0.162,-0.063c0.28705,-0.10273 0.58504,-0.17186 0.888,-0.206c0.19649,-0.02295 0.39417,-0.0343 0.592,-0.034h0.6c0.27677,-0.00104 0.55312,0.02171 0.826,0.068c0.22266,0.03789 0.44151,0.09545 0.654,0.172c0.44,0.16 0.817,0.39 1.13,0.69c0.313,0.3 0.557,0.66 0.73,1.08c0.13249,0.32499 0.21477,0.66826 0.244,1.018c0.01086,0.1237 0.0162,0.24782 0.016,0.372v6.2c0.00134,0.29541 -0.03121,0.59 -0.097,0.878c-0.04033,0.17481 -0.09484,0.34605 -0.163,0.512c-0.173,0.42 -0.417,0.78 -0.73,1.08c-0.28109,0.2671 -0.60931,0.4797 -0.968,0.627c-0.05349,0.02228 -0.10751,0.04329 -0.162,0.063c-0.44,0.16 -0.933,0.24 -1.48,0.24zM154.80318,176.40455v-6.2c0.00282,-0.25387 -0.04724,-0.50554 -0.147,-0.739c-0.08914,-0.20222 -0.2157,-0.38578 -0.373,-0.541c-0.347,-0.347 -0.773,-0.52 -1.28,-0.52h-0.6c-0.25387,-0.00282 -0.50554,0.04724 -0.739,0.147c-0.20222,0.08914 -0.38578,0.2157 -0.541,0.373c-0.33686,0.33057 -0.52461,0.78405 -0.52,1.256c-0.00004,0.008 -0.00004,0.016 0,0.024v6.2c-0.00282,0.25387 0.04724,0.50554 0.147,0.739c0.08914,0.20222 0.2157,0.38578 0.373,0.541c0.33057,0.33686 0.78405,0.52461 1.256,0.52c0.008,0.00004 0.016,0.00004 0.024,0h0.6c0.25387,0.00282 0.50554,-0.04724 0.739,-0.147c0.20222,-0.08914 0.38578,-0.2157 0.541,-0.373c0.347,-0.347 0.52,-0.773 0.52,-1.28z"/></g></g></svg>