<svg version="1.1" xmlns="http://www.w3.org/2000/svg" xmlns:xlink="http://www.w3.org/1999/xlink" width="95.65348" height="15.18201" viewBox="0,0,95.65348,15.18201"><defs><linearGradient x1="192.17326" y1="180" x2="287.82674" y2="180" gradientUnits="userSpaceOnUse" id="color-1"><stop offset="0" stop-color="#402a5d"/><stop offset="1" stop-color="#181f36"/></linearGradient></defs><g transform="translate(-192.17326,-172.40899)"><g data-paper-data="{&quot;isPaintingLayer&quot;:true}" fill-rule="nonzero" stroke="none" stroke-linecap="butt" stroke-linejoin="miter" stroke-miterlimit="10" stroke-dasharray="" stroke-dashoffset="0" style="mix-blend-mode: normal"><path d="M192.17326,187.59101v-15.18201h95.65348v15.18201z" fill="url(#color-1)" stroke-width="0"/><path d="M203.80064,178.09412l-1.91508,4.83681c-0.11049,0.24552 -0.16573,0.40102 -0.16573,0.46649c0,0.18824 0.15141,0.32123 0.45422,0.39898v0.19642h-2.69462v-0.19642c0.27417,-0.0532 0.41125,-0.19233 0.41125,-0.41739c0,-0.0614 -0.05729,-0.2435 -0.17187,-0.54629l-2.39999,-6.18105c-0.11867,-0.30691 -0.22711,-0.51356 -0.32532,-0.61995c-0.09412,-0.11049 -0.23325,-0.18414 -0.41739,-0.22097v-0.19642h2.90945v0.19642c-0.2578,0.05727 -0.3867,0.17798 -0.3867,0.36215c0,0.09411 0.03274,0.22915 0.09821,0.40511l1.65728,4.4317l1.79232,-4.45625c0.07775,-0.19233 0.11662,-0.31918 0.11662,-0.38056c0,-0.18823 -0.13708,-0.30895 -0.41125,-0.36215v-0.19642h3.04449v0.19642c-0.27826,0.07366 -0.41739,0.20665 -0.41739,0.39898c0,0.06547 0.03478,0.18823 0.10435,0.36828l1.70639,4.45011l1.65114,-4.37645c0.08593,-0.21688 0.1289,-0.37852 0.1289,-0.48491c0,-0.18005 -0.14731,-0.29872 -0.44194,-0.35601v-0.19642h2.87876v0.19642c-0.2046,0.05727 -0.34578,0.13092 -0.42353,0.22097c-0.07775,0.09003 -0.18005,0.29668 -0.3069,0.61995l-2.39999,6.18105c-0.11458,0.29463 -0.17187,0.49105 -0.17187,0.58926c0,0.20051 0.14527,0.32531 0.4358,0.37442v0.19642h-2.73145v-0.19642c0.28644,-0.045 0.42967,-0.18208 0.42967,-0.41125c0,-0.07775 -0.06343,-0.2619 -0.19028,-0.55243zM216.91773,181.85676h-3.80561l-0.5647,1.17852c-0.07775,0.16368 -0.11662,0.29258 -0.11662,0.3867c0,0.18005 0.13708,0.30485 0.41125,0.37442v0.19642h-2.77442v-0.19642c0.16368,-0.03273 0.28849,-0.09002 0.37442,-0.17187c0.08593,-0.08184 0.18414,-0.24143 0.29463,-0.47877l3.08132,-6.43885c0.09821,-0.2046 0.14731,-0.36828 0.14731,-0.49105c0,-0.18823 -0.11867,-0.32327 -0.35601,-0.40511v-0.19642h2.97083v0.19642c-0.24143,0.06957 -0.36215,0.19028 -0.36215,0.36215c0,0.11867 0.03887,0.2537 0.11662,0.40511l3.1918,6.45727c0.13504,0.27417 0.25371,0.4624 0.35601,0.5647c0.1023,0.09821 0.23939,0.16368 0.41125,0.19642v0.19642h-3.08132v-0.19642c0.27008,-0.045 0.40511,-0.17185 0.40511,-0.38056c0,-0.08593 -0.04092,-0.21279 -0.12276,-0.38056zM216.38986,180.70894l-1.35652,-2.98311l-1.37493,2.98311zM223.22768,182.61175h5.14985c0.12685,0 0.22302,-0.02863 0.28849,-0.0859c0.06547,-0.05727 0.11867,-0.15957 0.15959,-0.30691h0.19642v2.16675h-0.19642c-0.04092,-0.14732 -0.09412,-0.24962 -0.15959,-0.30691c-0.06547,-0.05727 -0.16164,-0.0859 -0.28849,-0.0859h-7.37184v-0.19642c0.14731,-0.04093 0.24962,-0.09413 0.3069,-0.15959c0.05729,-0.06547 0.08593,-0.16163 0.08593,-0.28849v-7.08949c0,-0.12685 -0.02864,-0.22302 -0.08593,-0.28849c-0.05729,-0.06547 -0.15959,-0.11866 -0.3069,-0.15959v-0.19642h2.61482v0.19642c-0.14731,0.0368 -0.24962,0.09 -0.3069,0.15959c-0.05729,0.06547 -0.08593,0.16163 -0.08593,0.28849zM233.38008,180.07672l-1.25831,1.02506v2.24654c0,0.12685 0.02864,0.22506 0.08593,0.29463c0.06138,0.06547 0.16368,0.11662 0.3069,0.15345v0.19642h-2.61482v-0.19642c0.14731,-0.04093 0.24962,-0.09413 0.30691,-0.15959c0.05729,-0.06547 0.08593,-0.16163 0.08593,-0.28849v-7.09563c0,-0.12276 -0.02864,-0.21688 -0.08593,-0.28235c-0.05729,-0.06547 -0.15959,-0.11866 -0.30691,-0.15959v-0.19642h2.61482v0.19642c-0.14731,0.0368 -0.24962,0.09 -0.3069,0.15959c-0.05729,0.06547 -0.08593,0.15958 -0.08593,0.28235v2.93401l3.44961,-2.81738c0.15959,-0.13095 0.23938,-0.2353 0.23938,-0.31305c0,-0.11867 -0.11867,-0.20051 -0.356,-0.24552v-0.19642h3.42505v0.19642c-0.14323,0.02867 -0.24553,0.0614 -0.30691,0.0982c-0.0614,0.0368 -0.2394,0.17593 -0.53401,0.41739l-0.47263,0.39284l-2.84807,2.2895l3.22863,3.88541c0.29872,0.3601 0.51355,0.59335 0.6445,0.69974c0.13503,0.1023 0.30281,0.16982 0.50332,0.20256v0.19642h-3.2716v-0.19642c0.21688,-0.045 0.32532,-0.12275 0.32532,-0.23325c0,-0.05727 -0.09821,-0.20867 -0.29463,-0.45422zM249.25931,181.85676h-3.80561l-0.56471,1.17852c-0.07775,0.16368 -0.11662,0.29258 -0.11662,0.3867c0,0.18005 0.13708,0.30485 0.41125,0.37442v0.19642h-2.77442v-0.19642c0.16369,-0.03273 0.2885,-0.09002 0.37443,-0.17187c0.08593,-0.08184 0.18414,-0.24143 0.29463,-0.47877l3.08132,-6.43885c0.09821,-0.2046 0.14731,-0.36828 0.14731,-0.49105c0,-0.18823 -0.11867,-0.32327 -0.35601,-0.40511v-0.19642h2.97083v0.19642c-0.24143,0.06957 -0.36214,0.19028 -0.36214,0.36215c0,0.11867 0.03887,0.2537 0.11662,0.40511l3.19181,6.45727c0.13503,0.27417 0.2537,0.4624 0.356,0.5647c0.10231,0.09821 0.23939,0.16368 0.41126,0.19642v0.19642h-3.08132v-0.19642c0.27007,-0.045 0.40511,-0.17185 0.40511,-0.38056c0,-0.08593 -0.04092,-0.21279 -0.12276,-0.38056zM248.73143,180.70894l-1.35651,-2.98311l-1.37493,2.98311zM258.86541,178.09412l-1.91508,4.83681c-0.11049,0.24552 -0.16573,0.40102 -0.16573,0.46649c0,0.18824 0.15141,0.32123 0.45422,0.39898v0.19642h-2.69462v-0.19642c0.27417,-0.0532 0.41125,-0.19233 0.41125,-0.41739c0,-0.0614 -0.05729,-0.2435 -0.17187,-0.54629l-2.39999,-6.18105c-0.11867,-0.30691 -0.22711,-0.51356 -0.32532,-0.61995c-0.09411,-0.11049 -0.23324,-0.18414 -0.41739,-0.22097v-0.19642h2.90946v0.19642c-0.2578,0.05727 -0.3867,0.17798 -0.3867,0.36215c0,0.09411 0.03273,0.22915 0.0982,0.40511l1.65728,4.4317l1.79232,-4.45625c0.07775,-0.19233 0.11662,-0.31918 0.11662,-0.38056c0,-0.18823 -0.13708,-0.30895 -0.41125,-0.36215v-0.19642h3.04449v0.19642c-0.27826,0.07366 -0.41739,0.20665 -0.41739,0.39898c0,0.06547 0.03478,0.18823 0.10435,0.36828l1.70639,4.45011l1.65114,-4.37645c0.08593,-0.21688 0.1289,-0.37852 0.1289,-0.48491c0,-0.18005 -0.14731,-0.29872 -0.44194,-0.35601v-0.19642h2.87876v0.19642c-0.2046,0.05727 -0.34577,0.13092 -0.42352,0.22097c-0.07775,0.09003 -0.18006,0.29668 -0.30691,0.61995l-2.39999,6.18105c-0.11458,0.29463 -0.17187,0.49105 -0.17187,0.58926c0,0.20051 0.14527,0.32531 0.43581,0.37442v0.19642h-2.73145v-0.19642c0.28645,-0.045 0.42967,-0.18208 0.42967,-0.41125c0,-0.07775 -0.06343,-0.2619 -0.19028,-0.55243zM271.98251,181.85676h-3.80562l-0.5647,1.17852c-0.07775,0.16368 -0.11662,0.29258 -0.11662,0.3867c0,0.18005 0.13708,0.30485 0.41125,0.37442v0.19642h-2.77442v-0.19642c0.16369,-0.03273 0.2885,-0.09002 0.37443,-0.17187c0.08593,-0.08184 0.18414,-0.24143 0.29462,-0.47877l3.08132,-6.43885c0.09821,-0.2046 0.14732,-0.36828 0.14732,-0.49105c0,-0.18823 -0.11867,-0.32327 -0.35601,-0.40511v-0.19642h2.97083v0.19642c-0.24143,0.06957 -0.36215,0.19028 -0.36215,0.36215c0,0.11867 0.03888,0.2537 0.11663,0.40511l3.1918,6.45727c0.13504,0.27417 0.25371,0.4624 0.35601,0.5647c0.1023,0.09821 0.23938,0.16368 0.41125,0.19642v0.19642h-3.08132v-0.19642c0.27008,-0.045 0.40512,-0.17185 0.40512,-0.38056c0,-0.08593 -0.04092,-0.21279 -0.12276,-0.38056zM271.45463,180.70894l-1.35652,-2.98311l-1.37493,2.98311zM279.69194,180.48797v2.86035c0,0.12685 0.02863,0.22302 0.0859,0.28849c0.0614,0.06547 0.16575,0.11866 0.31304,0.15959v0.19642h-2.63324v-0.19642c0.14731,-0.04093 0.25166,-0.09413 0.31305,-0.15959c0.0614,-0.06547 0.0921,-0.16163 0.0921,-0.28849v-2.86035l-2.7069,-3.81175c-0.23325,-0.32737 -0.41739,-0.54629 -0.55243,-0.65678c-0.13095,-0.11457 -0.28849,-0.18414 -0.47263,-0.20869v-0.19642h3.30843v0.19642c-0.27417,0.045 -0.41125,0.17185 -0.41125,0.38056c0,0.07366 0.08389,0.2353 0.25166,0.48491l1.50997,2.24654l1.55293,-2.24654c0.16778,-0.24143 0.25167,-0.40512 0.25167,-0.49105c0,-0.09411 -0.03683,-0.17391 -0.11049,-0.23938c-0.07366,-0.06957 -0.17392,-0.11458 -0.30077,-0.13504v-0.19642h3.24091v0.19642c-0.18414,0.02453 -0.34373,0.0941 -0.47877,0.20869c-0.13095,0.11049 -0.31304,0.32941 -0.54629,0.65678z" fill="#fafafa" stroke-width="0.052"/></g></g></svg>