<svg version="1.1" xmlns="http://www.w3.org/2000/svg" xmlns:xlink="http://www.w3.org/1999/xlink" width="2.20032" height="12.80009" viewBox="0,0,2.20032,12.80009"><g transform="translate(-175.3031,-167.00452)"><g data-paper-data="{&quot;isPaintingLayer&quot;:true}" fill="#000000" fill-rule="evenodd" stroke="#000000" stroke-width="0" stroke-linecap="round" stroke-linejoin="miter" stroke-miterlimit="10" stroke-dasharray="" stroke-dashoffset="0" style="mix-blend-mode: normal"><path d="M177.30318,172.36455l-0.42,3.46c-0.00542,0.02665 -0.01416,0.05252 -0.026,0.077c-0.03,0.059 -0.077,0.092 -0.14,0.101c-0.01128,0.00143 -0.02263,0.0021 -0.034,0.002h-0.54c-0.102,0 -0.165,-0.043 -0.19,-0.13c-0.00474,-0.01635 -0.00809,-0.03308 -0.01,-0.05l-0.44,-3.46v-5.16c0,-0.106 0.042,-0.17 0.126,-0.191c0.02419,-0.00612 0.04905,-0.00914 0.074,-0.009h1.4c0.02667,-0.00034 0.05326,0.00302 0.079,0.01c0.059,0.017 0.097,0.056 0.112,0.116c0.00612,0.02419 0.00914,0.04905 0.009,0.074zM177.19318,179.48455c0.20437,-0.20751 0.31617,-0.48882 0.31,-0.78c0.00002,-0.00467 0.00002,-0.00933 0,-0.014c0.00191,-0.28822 -0.11363,-0.56479 -0.32,-0.766c-0.08319,-0.08422 -0.17943,-0.15445 -0.285,-0.208c-0.15386,-0.07583 -0.32348,-0.11421 -0.495,-0.112c-0.307,0 -0.567,0.103 -0.78,0.31c-0.11554,0.11001 -0.20358,0.24567 -0.257,0.396c-0.04327,0.12679 -0.06458,0.26004 -0.063,0.394c0.00007,0.03437 0.00141,0.06873 0.004,0.103c0.0134,0.25899 0.12244,0.5038 0.306,0.687c0.11274,0.11417 0.25081,0.20016 0.403,0.251c0.12496,0.04046 0.25566,0.06038 0.387,0.059c0.02235,-0.00013 0.04469,-0.00079 0.067,-0.002c0.27346,-0.00669 0.53326,-0.12096 0.723,-0.318z"/></g></g></svg>