<svg version="1.1" xmlns="http://www.w3.org/2000/svg" xmlns:xlink="http://www.w3.org/1999/xlink" width="13.36005" height="12.80008" viewBox="0,0,13.36005,12.80008"><g transform="translate(-206.10316,-166.80452)"><g data-paper-data="{&quot;isPaintingLayer&quot;:true}" fill="#000000" fill-rule="evenodd" stroke="#000000" stroke-width="0" stroke-linecap="round" stroke-linejoin="miter" stroke-miterlimit="10" stroke-dasharray="" stroke-dashoffset="0" style="mix-blend-mode: normal"><path d="M215.66318,173.10455h-1.4c-0.02667,-0.00034 -0.05326,0.00302 -0.079,0.01c-0.081,0.023 -0.121,0.086 -0.121,0.19v6.1c0.00034,0.02667 -0.00302,0.05326 -0.01,0.079c-0.023,0.081 -0.086,0.121 -0.19,0.121h-1.4c-0.02667,0.00034 -0.05326,-0.00302 -0.079,-0.01c-0.059,-0.017 -0.097,-0.056 -0.112,-0.116c-0.00612,-0.02419 -0.00914,-0.04905 -0.009,-0.074v-6.1c0.00034,-0.02667 -0.00302,-0.05326 -0.01,-0.079c-0.023,-0.081 -0.086,-0.121 -0.19,-0.121h-3.06c-0.02667,-0.00034 -0.05326,0.00302 -0.079,0.01c-0.081,0.023 -0.121,0.086 -0.121,0.19v6.1c0.00034,0.02667 -0.00302,0.05326 -0.01,0.079c-0.017,0.059 -0.056,0.097 -0.116,0.113c-0.02423,0.00578 -0.04909,0.00847 -0.074,0.008h-1.4c-0.02667,0.00034 -0.05326,-0.00302 -0.079,-0.01c-0.059,-0.017 -0.097,-0.056 -0.112,-0.116c-0.00612,-0.02419 -0.00914,-0.04905 -0.009,-0.074v-6.1c0.00034,-0.02667 -0.00302,-0.05326 -0.01,-0.079c-0.023,-0.081 -0.086,-0.121 -0.19,-0.121h-0.5c-0.02667,0.00034 -0.05326,-0.00302 -0.079,-0.01c-0.081,-0.023 -0.121,-0.086 -0.121,-0.19v-1.2c-0.00034,-0.02667 0.00302,-0.05326 0.01,-0.079c0.017,-0.059 0.056,-0.097 0.116,-0.112c0.02419,-0.00612 0.04905,-0.00914 0.074,-0.009h0.5c0.02667,0.00034 0.05326,-0.00302 0.079,-0.01c0.081,-0.023 0.121,-0.086 0.121,-0.19v-0.9c-0.00255,-0.41953 0.06748,-0.83634 0.207,-1.232c0.0225,-0.06336 0.04684,-0.12606 0.073,-0.188c0.17936,-0.42931 0.44482,-0.8173 0.78,-1.14c0.3045,-0.29 0.65664,-0.52544 1.041,-0.696c0.04925,-0.02228 0.09893,-0.04362 0.149,-0.064c0.37741,-0.15107 0.77634,-0.24152 1.182,-0.268c0.10916,-0.00791 0.21856,-0.01192 0.328,-0.012c0.693,0 1.3,0.16 1.82,0.48c0.06221,0.03882 0.12388,0.07849 0.185,0.119c0.112,0.074 0.205,0.141 0.28,0.2c0.00839,0.00694 0.01672,0.01394 0.025,0.021c0.01969,0.01638 0.0397,0.03238 0.06,0.048c0.062,0.047 0.11,0.076 0.144,0.087c0.00836,0.00298 0.01713,0.00467 0.026,0.005c0.02796,-0.00059 0.05564,-0.00566 0.082,-0.015c0.05,-0.016 0.106,-0.046 0.169,-0.091c0.02006,-0.01413 0.03974,-0.0288 0.059,-0.044c0.05081,-0.04012 0.10249,-0.07913 0.155,-0.117c0.058,-0.042 0.121,-0.085 0.189,-0.13c0.04176,-0.02804 0.08376,-0.0557 0.126,-0.083c0.10984,-0.0703 0.22334,-0.13472 0.34,-0.193c0.09836,-0.04917 0.19842,-0.09487 0.3,-0.137c0.21488,-0.08869 0.44372,-0.13879 0.676,-0.148c0.03465,-0.00145 0.06932,-0.00212 0.104,-0.002c0.159,0 0.266,0.032 0.319,0.097c0.02798,0.03476 0.04253,0.07841 0.041,0.123v1.2c0.00013,0.01436 -0.00054,0.02871 -0.002,0.043c-0.003,0.029 -0.01,0.052 -0.021,0.068c-0.00447,0.00731 -0.01023,0.01374 -0.017,0.019c-0.00908,0.00669 -0.01842,0.01303 -0.028,0.019c-0.021,0.014 -0.047,0.028 -0.077,0.043c-0.00499,0.00269 -0.00999,0.00536 -0.015,0.008c-0.11574,0.05151 -0.2314,0.10317 -0.347,0.155c-0.10774,0.04816 -0.21541,0.09649 -0.323,0.145c-0.207,0.093 -0.38,0.203 -0.52,0.33c-0.14,0.127 -0.25,0.28 -0.33,0.46c-0.03431,0.07844 -0.06045,0.1602 -0.078,0.244c-0.017,0.082 -0.029,0.171 -0.036,0.266c-0.00407,0.05991 -0.00607,0.11995 -0.006,0.18v1.1c-0.00034,0.02667 0.00302,0.05326 0.01,0.079c0.023,0.081 0.086,0.121 0.19,0.121h1.4c0.106,0 0.17,0.042 0.191,0.126c0.00612,0.02419 0.00914,0.04905 0.009,0.074v1.2c0.00034,0.02667 -0.00302,0.05326 -0.01,0.079c-0.023,0.081 -0.086,0.121 -0.19,0.121zM219.06318,179.60455h-1.4c-0.106,0 -0.17,-0.042 -0.191,-0.126c-0.00612,-0.02419 -0.00914,-0.04905 -0.009,-0.074v-8.6c-0.00034,-0.02667 0.00302,-0.05326 0.01,-0.079c0.023,-0.081 0.086,-0.121 0.19,-0.121h1.4c0.106,0 0.17,0.042 0.191,0.126c0.00612,0.02419 0.00914,0.04905 0.009,0.074v8.6c0.00034,0.02667 -0.00302,0.05326 -0.01,0.079c-0.017,0.059 -0.056,0.097 -0.116,0.113c-0.02423,0.00578 -0.04909,0.00847 -0.074,0.008zM212.36318,169.44455l-0.04,-0.16c-0.15921,-0.16905 -0.33398,-0.32272 -0.522,-0.459c-0.215,-0.154 -0.432,-0.265 -0.651,-0.335c-0.1768,-0.05674 -0.36132,-0.08575 -0.547,-0.086c-0.26157,-0.00303 -0.52064,0.05124 -0.759,0.159c-0.19488,0.09079 -0.37146,0.21653 -0.521,0.371c-0.3376,0.33336 -0.52528,0.78958 -0.52,1.264c0,0.002 0,0.004 0,0.006v1.1c-0.00034,0.02667 0.00302,0.05326 0.01,0.079c0.017,0.059 0.056,0.097 0.116,0.113c0.02423,0.00578 0.04909,0.00847 0.074,0.008h3.06c0.02667,0.00034 0.05326,-0.00302 0.079,-0.01c0.081,-0.023 0.121,-0.086 0.121,-0.19v-0.9c-0.0002,-0.13644 0.00414,-0.27285 0.013,-0.409c0.00208,-0.03035 0.00441,-0.06069 0.007,-0.091c0.0121,-0.15062 0.03753,-0.29987 0.076,-0.446c0.00132,-0.00467 0.00265,-0.00934 0.004,-0.014zM219.46318,167.90455c0,0.307 -0.107,0.567 -0.32,0.78c-0.20121,0.20637 -0.47778,0.32191 -0.766,0.32c-0.00467,0.00002 -0.00933,0.00002 -0.014,0c-0.29118,0.00617 -0.57249,-0.10563 -0.78,-0.31c-0.19704,-0.18974 -0.31131,-0.44954 -0.318,-0.723c-0.00121,-0.02231 -0.00187,-0.04465 -0.002,-0.067c0,-0.307 0.107,-0.567 0.32,-0.78c0.20121,-0.20637 0.47778,-0.32191 0.766,-0.32c0.00467,-0.00002 0.00933,-0.00002 0.014,0c0.307,0 0.567,0.107 0.78,0.32c0.20637,0.20121 0.32191,0.47778 0.32,0.766c0.00002,0.00467 0.00002,0.00933 0,0.014z"/></g></g></svg>