<svg version="1.1" xmlns="http://www.w3.org/2000/svg" xmlns:xlink="http://www.w3.org/1999/xlink" width="8.96006" height="12.60004" viewBox="0,0,8.96006,12.60004"><g transform="translate(-115.66851,-167.42472)"><g data-paper-data="{&quot;isPaintingLayer&quot;:true}" fill="#000000" fill-rule="evenodd" stroke="#000000" stroke-width="0" stroke-linecap="round" stroke-linejoin="miter" stroke-miterlimit="10" stroke-dasharray="" stroke-dashoffset="0" style="mix-blend-mode: normal"><path d="M124.40853,180.02474h-1.5c-0.02384,0.00013 -0.04764,-0.00222 -0.071,-0.007c-0.072,-0.015 -0.114,-0.055 -0.127,-0.122c-0.00076,-0.00365 -0.00143,-0.00732 -0.002,-0.011l-0.74,-2.64c-0.0065,-0.04713 -0.03899,-0.08659 -0.084,-0.102c-0.018,-0.007 -0.039,-0.012 -0.063,-0.015c-0.01759,-0.00208 -0.03529,-0.00308 -0.053,-0.003h-3.24c-0.0231,-0.0003 -0.04618,0.00137 -0.069,0.005c-0.077,0.014 -0.12,0.052 -0.131,0.115l-0.74,2.64c-0.00307,0.0266 -0.01269,0.05203 -0.028,0.074c-0.029,0.039 -0.077,0.061 -0.145,0.065c-0.00899,0.00062 -0.01799,0.00096 -0.027,0.001h-1.5c-0.02754,0.00021 -0.05502,-0.00247 -0.082,-0.008c-0.08,-0.017 -0.125,-0.062 -0.136,-0.137c-0.00148,-0.01161 -0.00214,-0.0233 -0.002,-0.035c0.00002,-0.00369 0.00035,-0.00737 0.001,-0.011c0.001,-0.004 0.002,-0.008 0.003,-0.011c0.00154,-0.00298 0.00357,-0.00569 0.006,-0.008c0.00211,-0.00198 0.00381,-0.00436 0.005,-0.007c0.003,-0.008 0.005,-0.021 0.005,-0.037c0.00002,-0.002 0.00002,-0.004 0,-0.006l3.72,-12.2c0.00307,-0.0266 0.01269,-0.05203 0.028,-0.074c0.029,-0.039 0.077,-0.061 0.145,-0.065c0.00899,-0.00062 0.01799,-0.00096 0.027,-0.001h1.08c0.03244,-0.00051 0.06458,0.00633 0.094,0.02c0.032,0.015 0.06,0.04 0.082,0.074c0.00929,0.01462 0.01732,0.03001 0.024,0.046l3.72,12.2c-0.00017,0.00533 -0.00017,0.01067 0,0.016c0.001,0.015 0.004,0.026 0.008,0.032c0.00061,0.00072 0.00128,0.00139 0.002,0.002c0.00371,0.0036 0.00646,0.00807 0.008,0.013c0.001,0.005 0.002,0.01 0.002,0.017c0.0005,0.02699 -0.00425,0.05382 -0.014,0.079c-0.024,0.06 -0.081,0.093 -0.171,0.1c-0.01165,0.00076 -0.02332,0.0011 -0.035,0.001zM121.38853,175.26474l-0.96,-3.76c-0.0108,-0.04272 -0.0218,-0.08539 -0.033,-0.128c-0.01,-0.038 -0.02,-0.078 -0.031,-0.12c-0.01188,-0.04403 -0.02388,-0.08803 -0.036,-0.132c-0.01846,-0.06806 -0.03713,-0.13606 -0.056,-0.204c-0.026,-0.092 -0.054,-0.191 -0.084,-0.296h-0.08l-0.24,0.9l-0.98,3.74c0.00017,0.00533 0.00017,0.01067 0,0.016c-0.001,0.015 -0.004,0.026 -0.008,0.032c-0.00061,0.00072 -0.00128,0.00139 -0.002,0.002c-0.006,0.006 -0.009,0.013 -0.01,0.023c-0.00012,0.00233 -0.00012,0.00467 0,0.007c-0.0005,0.02699 0.00425,0.05382 0.014,0.079c0.024,0.06 0.081,0.093 0.171,0.1c0.01165,0.00076 0.02332,0.0011 0.035,0.001h2.1c0.02754,0.00021 0.05502,-0.00247 0.082,-0.008c0.08,-0.017 0.125,-0.062 0.136,-0.137c0.00148,-0.01161 0.00214,-0.0233 0.002,-0.035c0.00016,-0.00672 -0.00052,-0.01344 -0.002,-0.02c-0.002,-0.007 -0.005,-0.013 -0.008,-0.02c-0.0024,-0.00483 -0.0044,-0.00985 -0.006,-0.015c-0.001,-0.002 -0.001,-0.003 -0.001,-0.005c-0.00182,-0.00652 -0.00283,-0.01324 -0.003,-0.02z"/></g></g></svg>