<svg version="1.1" xmlns="http://www.w3.org/2000/svg" xmlns:xlink="http://www.w3.org/1999/xlink" width="3.60005" height="18.20005" viewBox="0,0,3.60005,18.20005"><g transform="translate(-278.58316,-165.00452)"><g data-paper-data="{&quot;isPaintingLayer&quot;:true}" fill="#000000" fill-rule="evenodd" stroke="#000000" stroke-width="0" stroke-linecap="round" stroke-linejoin="miter" stroke-miterlimit="10" stroke-dasharray="" stroke-dashoffset="0" style="mix-blend-mode: normal"><path d="M281.98318,183.20455h-3.2c-0.02667,0.00034 -0.05326,-0.00302 -0.079,-0.01c-0.059,-0.017 -0.097,-0.056 -0.112,-0.116c-0.00612,-0.02419 -0.00914,-0.04905 -0.009,-0.074v-1.2c-0.00034,-0.02667 0.00302,-0.05326 0.01,-0.079c0.023,-0.081 0.086,-0.121 0.19,-0.121h1.4c0.02667,0.00034 0.05326,-0.00302 0.079,-0.01c0.081,-0.023 0.121,-0.086 0.121,-0.19v-14.6c0,-0.106 -0.042,-0.17 -0.126,-0.191c-0.02419,-0.00612 -0.04905,-0.00914 -0.074,-0.009h-1.4c-0.02667,0.00034 -0.05326,-0.00302 -0.079,-0.01c-0.081,-0.023 -0.121,-0.086 -0.121,-0.19v-1.2c0,-0.106 0.042,-0.17 0.126,-0.191c0.02419,-0.00612 0.04905,-0.00914 0.074,-0.009h3.2c0.02667,-0.00034 0.05326,0.00302 0.079,0.01c0.081,0.023 0.121,0.086 0.121,0.19v17.8c0.00034,0.02667 -0.00302,0.05326 -0.01,0.079c-0.023,0.081 -0.086,0.121 -0.19,0.121z"/></g></g></svg>