<svg version="1.1" xmlns="http://www.w3.org/2000/svg" xmlns:xlink="http://www.w3.org/1999/xlink" width="7.20006" height="12.60007" viewBox="0,0,7.20006,12.60007"><g transform="translate(-156.82758,-167.35474)"><g data-paper-data="{&quot;isPaintingLayer&quot;:true}" fill="#000000" fill-rule="evenodd" stroke="#000000" stroke-width="0" stroke-linecap="round" stroke-linejoin="miter" stroke-miterlimit="10" stroke-dasharray="" stroke-dashoffset="0" style="mix-blend-mode: normal"><path d="M163.82762,179.95476h-1.2c-0.02667,0.00034 -0.05326,-0.00302 -0.079,-0.01c-0.059,-0.017 -0.097,-0.055 -0.112,-0.116c-0.00611,-0.02418 -0.00914,-0.04905 -0.009,-0.074v-0.24c0.00016,-0.02509 -0.00151,-0.05015 -0.005,-0.075c-0.009,-0.06 -0.029,-0.101 -0.062,-0.124c-0.02154,-0.01447 -0.04707,-0.02181 -0.073,-0.021c-0.023,0.00043 -0.04585,0.00378 -0.068,0.01c-0.055,0.014 -0.119,0.044 -0.192,0.09c-0.04328,0.02696 -0.08696,0.0533 -0.131,0.079c-0.079,0.047 -0.169,0.097 -0.269,0.151c-0.08243,0.04428 -0.16722,0.08401 -0.254,0.119c-0.085,0.035 -0.176,0.067 -0.274,0.098c-0.01397,0.0044 -0.02798,0.00874 -0.042,0.013c-0.11284,0.03385 -0.22821,0.05859 -0.345,0.074c-0.132,0.017 -0.274,0.026 -0.425,0.026c-0.28799,0.00141 -0.5753,-0.02809 -0.857,-0.088c-0.18179,-0.03934 -0.36006,-0.09352 -0.533,-0.162c-0.40035,-0.15555 -0.76602,-0.38869 -1.076,-0.686c-0.00468,-0.00465 -0.00935,-0.00932 -0.014,-0.014c-0.307,-0.3 -0.547,-0.657 -0.72,-1.07c-0.1269,-0.30705 -0.20745,-0.63126 -0.239,-0.962c-0.01407,-0.13889 -0.02108,-0.2784 -0.021,-0.418v-2.2c-0.00132,-0.29547 0.03157,-0.59009 0.098,-0.878c0.03832,-0.16431 0.08913,-0.32544 0.152,-0.482c0.167,-0.413 0.4,-0.77 0.7,-1.07c0.27843,-0.27619 0.60473,-0.49948 0.963,-0.659c0.0387,-0.01766 0.07771,-0.03467 0.117,-0.051c0.3633,-0.14836 0.74907,-0.23424 1.141,-0.254c0.07626,-0.00414 0.15263,-0.00615 0.229,-0.006c0.12045,-0.00044 0.24077,0.00792 0.36,0.025c0.10866,0.01557 0.21574,0.04066 0.32,0.075c0.09221,0.0305 0.18297,0.0652 0.272,0.104c0.089,0.039 0.171,0.081 0.246,0.125c0.00066,0.00034 0.00133,0.00066 0.002,0.001c0.06099,0.03601 0.12199,0.07201 0.183,0.108c0.074,0.044 0.143,0.085 0.207,0.122c0.113,0.067 0.203,0.1 0.27,0.1c0.04748,0.0025 0.09175,-0.02398 0.112,-0.067c0.019,-0.036 0.028,-0.087 0.028,-0.153v-3.84c0,-0.106 0.042,-0.17 0.126,-0.191c0.02418,-0.00611 0.04905,-0.00914 0.074,-0.009h1.4c0.02667,-0.00034 0.05326,0.00302 0.079,0.01c0.081,0.023 0.121,0.086 0.121,0.19v12.2c0.00034,0.02667 -0.00303,0.05326 -0.01,0.079c-0.023,0.081 -0.086,0.121 -0.19,0.121zM162.22762,176.55476v-2.2c0,-0.493 -0.173,-0.917 -0.52,-1.27c-0.32478,-0.33928 -0.77432,-0.53081 -1.244,-0.53c-0.012,-0.0001 -0.024,-0.0001 -0.036,0c-0.20973,-0.00144 -0.41814,0.03341 -0.616,0.103c-0.03169,0.01141 -0.06303,0.02375 -0.094,0.037c-0.22,0.093 -0.41,0.223 -0.57,0.39c-0.16,0.167 -0.287,0.36 -0.38,0.58c-0.093,0.22 -0.14,0.45 -0.14,0.69v2.2c0,0.24 0.047,0.47 0.14,0.69c0.093,0.22 0.22,0.413 0.38,0.58c0.16,0.167 0.35,0.297 0.57,0.39c0.22,0.093 0.457,0.14 0.71,0.14c0.507,0 0.933,-0.177 1.28,-0.53c0.347,-0.353 0.52,-0.777 0.52,-1.27z"/></g></g></svg>