<svg version="1.1" xmlns="http://www.w3.org/2000/svg" xmlns:xlink="http://www.w3.org/1999/xlink" width="7.20002" height="13.5001" viewBox="0,0,7.20002,13.5001"><g transform="translate(-254.8076,-170.95471)"><g data-paper-data="{&quot;isPaintingLayer&quot;:true}" fill="#000000" fill-rule="evenodd" stroke="#000000" stroke-width="0" stroke-linecap="round" stroke-linejoin="miter" stroke-miterlimit="10" stroke-dasharray="" stroke-dashoffset="0" style="mix-blend-mode: normal"><path d="M256.60762,179.51476v4.74c0.00034,0.02667 -0.00302,0.05326 -0.01,0.079c-0.017,0.059 -0.055,0.097 -0.116,0.113c-0.02423,0.00578 -0.0491,0.00847 -0.074,0.008h-1.4c-0.02667,0.00034 -0.05326,-0.00302 -0.079,-0.01c-0.059,-0.017 -0.097,-0.055 -0.112,-0.116c-0.00611,-0.02418 -0.00914,-0.04905 -0.009,-0.074v-13.1c-0.00034,-0.02667 0.00303,-0.05326 0.01,-0.079c0.023,-0.081 0.086,-0.121 0.19,-0.121h1.2c0.02667,-0.00034 0.05326,0.00303 0.079,0.01c0.081,0.023 0.121,0.086 0.121,0.19v0.24c-0.00016,0.02509 0.00151,0.05016 0.005,0.075c0.014,0.097 0.059,0.145 0.135,0.145c0.067,0 0.153,-0.033 0.26,-0.1c0.04329,-0.02696 0.08696,-0.0533 0.131,-0.079c0.04,-0.023 0.082,-0.047 0.127,-0.073c0.04714,-0.02635 0.09447,-0.05235 0.142,-0.078c0.15,-0.081 0.326,-0.153 0.528,-0.217c0.01398,-0.0044 0.02798,-0.00874 0.042,-0.013c0.22,-0.067 0.477,-0.1 0.77,-0.1c0.28799,-0.00141 0.57531,0.02809 0.857,0.088c0.1818,0.03934 0.36006,0.09352 0.533,0.162c0.40035,0.15555 0.76603,0.38869 1.076,0.686c0.00468,0.00465 0.00935,0.00932 0.014,0.014c0.307,0.3 0.547,0.657 0.72,1.07c0.1269,0.30705 0.20745,0.63126 0.239,0.962c0.01407,0.13889 0.02108,0.2784 0.021,0.418v2.2c0,0.493 -0.083,0.947 -0.25,1.36c-0.167,0.413 -0.4,0.77 -0.7,1.07c-0.3,0.3 -0.65,0.537 -1.05,0.71c-0.37027,0.15894 -0.76723,0.24648 -1.17,0.258c-0.04332,0.00143 -0.08666,0.00209 -0.13,0.002c-0.12159,0.00041 -0.24311,-0.00593 -0.364,-0.019c-0.147,-0.016 -0.282,-0.043 -0.406,-0.081c-0.203,-0.061 -0.38,-0.131 -0.531,-0.21c-0.01306,-0.00654 -0.02606,-0.0132 -0.039,-0.02c-0.05403,-0.02901 -0.1077,-0.05867 -0.161,-0.089c-0.044,-0.026 -0.085,-0.05 -0.124,-0.074c-0.03542,-0.02167 -0.07043,-0.044 -0.105,-0.067c-0.089,-0.06 -0.155,-0.092 -0.196,-0.099c-0.00464,-0.0007 -0.00931,-0.00103 -0.014,-0.001c-0.091,0 -0.143,0.054 -0.157,0.16c-0.00224,0.01992 -0.00324,0.03995 -0.003,0.06zM260.20762,176.55476v-2.2c0,-0.24 -0.047,-0.47 -0.14,-0.69c-0.093,-0.22 -0.22,-0.413 -0.38,-0.58c-0.16,-0.167 -0.35,-0.297 -0.57,-0.39c-0.22,-0.093 -0.457,-0.14 -0.71,-0.14c-0.26157,-0.00304 -0.52064,0.05124 -0.759,0.159c-0.19488,0.09079 -0.37147,0.21653 -0.521,0.371c-0.3376,0.33336 -0.52528,0.78958 -0.52,1.264c0,0.002 0,0.004 0,0.006v2.2c-0.00689,0.47453 0.17937,0.93149 0.516,1.266c0.00133,0.00134 0.00266,0.00267 0.004,0.004c0.32502,0.33954 0.77497,0.53108 1.245,0.53c0.01166,0.00009 0.02334,0.00009 0.035,0c0.20974,0.00144 0.41814,-0.03341 0.616,-0.103c0.03169,-0.01141 0.06304,-0.02375 0.094,-0.037c0.22,-0.093 0.41,-0.223 0.57,-0.39c0.16,-0.167 0.287,-0.36 0.38,-0.58c0.093,-0.22 0.14,-0.45 0.14,-0.69z"/></g></g></svg>