<svg version="1.1" xmlns="http://www.w3.org/2000/svg" xmlns:xlink="http://www.w3.org/1999/xlink" width="7.80038" height="14.60006" viewBox="0,0,7.80038,14.60006"><g transform="translate(-268.20849,-167.22471)"><g data-paper-data="{&quot;isPaintingLayer&quot;:true}" fill="#000000" fill-rule="evenodd" stroke="#000000" stroke-width="0" stroke-linecap="round" stroke-linejoin="miter" stroke-miterlimit="10" stroke-dasharray="" stroke-dashoffset="0" style="mix-blend-mode: normal"><path d="M272.90853,180.38475v1.24c0.00034,0.02667 -0.00302,0.05326 -0.01,0.079c-0.023,0.081 -0.086,0.121 -0.19,0.121h-1.2c-0.02667,0.00034 -0.05326,-0.00303 -0.079,-0.01c-0.081,-0.023 -0.121,-0.086 -0.121,-0.19v-1.24c0,-0.066 -0.027,-0.115 -0.081,-0.15c-0.01241,-0.00776 -0.02545,-0.01445 -0.039,-0.02c-0.08,-0.033 -0.187,-0.063 -0.32,-0.09c-0.06209,-0.01254 -0.12409,-0.02554 -0.186,-0.039c-0.064,-0.013 -0.131,-0.028 -0.202,-0.044c-0.02401,-0.00563 -0.04801,-0.01129 -0.072,-0.017c-0.11786,-0.02782 -0.23224,-0.06874 -0.341,-0.122c-0.06129,-0.02962 -0.12103,-0.06232 -0.179,-0.098c-0.28369,-0.15279 -0.54428,-0.34504 -0.774,-0.571c-0.19091,-0.18938 -0.35449,-0.40445 -0.486,-0.639c-0.17917,-0.32443 -0.30128,-0.67722 -0.361,-1.043c-0.04022,-0.24023 -0.05996,-0.48344 -0.059,-0.727v-6.2c-0.00133,-0.29541 0.03121,-0.59 0.097,-0.878c0.04033,-0.17481 0.09485,-0.34605 0.163,-0.512c0.173,-0.42 0.417,-0.78 0.73,-1.08c0.28109,-0.2671 0.60931,-0.4797 0.968,-0.627c0.05349,-0.02228 0.10751,-0.04329 0.162,-0.063c0.28705,-0.10273 0.58504,-0.17186 0.888,-0.206c0.1965,-0.02294 0.39417,-0.0343 0.592,-0.034h0.6c0.27677,-0.00104 0.55313,0.02171 0.826,0.068c0.22265,0.03788 0.44151,0.09544 0.654,0.172c0.44,0.16 0.817,0.39 1.13,0.69c0.313,0.3 0.557,0.66 0.73,1.08c0.1325,0.325 0.21477,0.66825 0.244,1.018c0.01086,0.1237 0.0162,0.24782 0.016,0.372v6.2c0.00605,0.44348 -0.06745,0.88446 -0.217,1.302c-0.237,0.637 -0.668,1.155 -1.293,1.553c-0.06878,0.0437 -0.1388,0.08538 -0.21,0.125c-0.07743,0.04461 -0.15721,0.085 -0.239,0.121c-0.088,0.038 -0.173,0.068 -0.256,0.09c-0.01163,0.00314 -0.0233,0.00614 -0.035,0.009c-0.0596,0.01426 -0.11927,0.02826 -0.179,0.042c-0.047,0.011 -0.093,0.021 -0.136,0.031c-0.04162,0.00922 -0.08328,0.01822 -0.125,0.027c-0.0372,0.00778 -0.07422,0.01645 -0.111,0.026c-0.073,0.019 -0.135,0.04 -0.184,0.062c-0.00167,0.00066 -0.00333,0.00132 -0.005,0.002c-0.0222,0.0097 -0.04251,0.02325 -0.06,0.04c-0.028,0.028 -0.044,0.063 -0.049,0.106c-0.00074,0.00798 -0.00107,0.01599 -0.001,0.024zM274.20853,176.82475v-6.2c0.00282,-0.25386 -0.04724,-0.50554 -0.147,-0.739c-0.08914,-0.20222 -0.21569,-0.38577 -0.373,-0.541c-0.347,-0.347 -0.773,-0.52 -1.28,-0.52h-0.6c-0.25387,-0.00282 -0.50554,0.04724 -0.739,0.147c-0.20222,0.08914 -0.38578,0.21569 -0.541,0.373c-0.33686,0.33058 -0.52461,0.78405 -0.52,1.256c-0.00005,0.008 -0.00005,0.016 0,0.024v6.2c0,0.227 0.037,0.437 0.11,0.63c0.05266,0.14003 0.11934,0.27438 0.199,0.401c0.02555,0.04063 0.05257,0.08032 0.081,0.119c0.05309,0.07262 0.11194,0.14084 0.176,0.204c0.05939,0.05824 0.12437,0.1105 0.194,0.156c0.067,0.043 0.133,0.076 0.2,0.098c0.06456,0.02115 0.13207,0.03195 0.2,0.032c0.02401,0.00086 0.04782,-0.00466 0.069,-0.016c0.036,-0.021 0.059,-0.063 0.067,-0.124c0.00268,-0.01988 0.00402,-0.03994 0.004,-0.06v-0.82c-0.00034,-0.02667 0.00303,-0.05326 0.01,-0.079c0.017,-0.059 0.056,-0.097 0.116,-0.112c0.02418,-0.00611 0.04905,-0.00914 0.074,-0.009h1.2c0.02667,-0.00034 0.05326,0.00303 0.079,0.01c0.059,0.017 0.097,0.056 0.112,0.116c0.00612,0.02418 0.00914,0.04905 0.009,0.074v0.82c0,0.133 0.047,0.2 0.14,0.2c0.08916,-0.00073 0.17725,-0.01944 0.259,-0.055c0.04913,-0.02077 0.09632,-0.04587 0.141,-0.075c0.08029,-0.05291 0.15442,-0.11463 0.221,-0.184c0.05356,-0.05525 0.10334,-0.11405 0.149,-0.176c0.113,-0.153 0.207,-0.327 0.28,-0.52c0.06032,-0.16107 0.09605,-0.3303 0.106,-0.502c0.00268,-0.04262 0.00402,-0.0853 0.004,-0.128z"/></g></g></svg>