<svg version="1.1" xmlns="http://www.w3.org/2000/svg" xmlns:xlink="http://www.w3.org/1999/xlink" width="7.04" height="8.76" viewBox="0,0,7.04,8.76"><g transform="translate(-363.78318,-170.38454)"><g data-paper-data="{&quot;isPaintingLayer&quot;:true}" fill="#000000" fill-rule="evenodd" stroke="#000000" stroke-width="0" stroke-linecap="round" stroke-linejoin="miter" stroke-miterlimit="10" stroke-dasharray="" stroke-dashoffset="0" style="mix-blend-mode: normal"><path d="M370.78318,178.34455l-0.42,0.68c-0.0097,0.01951 -0.02143,0.03795 -0.035,0.055c-0.034,0.043 -0.076,0.065 -0.125,0.065c-0.00842,-0.00012 -0.01679,-0.00113 -0.025,-0.003c-0.025,-0.005 -0.056,-0.018 -0.095,-0.037l-6.2,-3.58l-0.1,-0.18v-1.14l0.1,-0.18l6.2,-3.6c0.01217,-0.00602 0.02451,-0.01169 0.037,-0.017c0.035,-0.015 0.063,-0.023 0.083,-0.023c0.04374,0.00001 0.08532,0.01897 0.114,0.052c0.013,0.014 0.026,0.031 0.037,0.052c0.00313,0.00526 0.00613,0.01059 0.009,0.016l0.4,0.68c0.026,0.053 0.04,0.086 0.04,0.099c0,0.081 -0.04,0.141 -0.12,0.181l-5.38,3.12c-0.01903,0.01342 -0.03738,0.02777 -0.055,0.043c-0.057,0.05 -0.085,0.095 -0.085,0.137c0,0.053 0.047,0.113 0.14,0.18l5.4,3.12c0.01951,0.0097 0.03795,0.02143 0.055,0.035c0.043,0.034 0.065,0.076 0.065,0.125c-0.00012,0.00842 -0.00113,0.01679 -0.003,0.025c-0.004,0.017 -0.01,0.037 -0.021,0.06c-0.00502,0.01181 -0.01036,0.02348 -0.016,0.035z"/></g></g></svg>