<svg version="1.1" xmlns="http://www.w3.org/2000/svg" xmlns:xlink="http://www.w3.org/1999/xlink" width="1.76006" height="3.60003" viewBox="0,0,1.76006,3.60003"><g transform="translate(-303.60315,-167.00453)"><g data-paper-data="{&quot;isPaintingLayer&quot;:true}" fill="#000000" fill-rule="evenodd" stroke="#000000" stroke-width="0" stroke-linecap="round" stroke-linejoin="miter" stroke-miterlimit="10" stroke-dasharray="" stroke-dashoffset="0" style="mix-blend-mode: normal"><path d="M305.36318,167.22455l-0.4,3.2c-0.00542,0.02665 -0.01416,0.05252 -0.026,0.077c-0.03,0.059 -0.077,0.092 -0.14,0.101c-0.01128,0.00143 -0.02263,0.0021 -0.034,0.002h-0.54c-0.102,0 -0.165,-0.043 -0.19,-0.13c-0.00474,-0.01635 -0.00809,-0.03308 -0.01,-0.05l-0.42,-3.2v-0.04c-0.00038,-0.0251 0.00334,-0.05009 0.011,-0.074c0.024,-0.071 0.087,-0.106 0.189,-0.106h1.36c0.02523,-0.00026 0.0504,0.00242 0.075,0.008c0.068,0.016 0.108,0.057 0.121,0.122c0.00294,0.0165 0.00428,0.03324 0.004,0.05z"/></g></g></svg>