<svg version="1.1" xmlns="http://www.w3.org/2000/svg" xmlns:xlink="http://www.w3.org/1999/xlink" width="7.20005" height="12.60008" viewBox="0,0,7.20005,12.60008"><g transform="translate(-139.58762,-167.35474)"><g data-paper-data="{&quot;isPaintingLayer&quot;:true}" fill="#000000" fill-rule="evenodd" stroke="#000000" stroke-width="0" stroke-linecap="round" stroke-linejoin="miter" stroke-miterlimit="10" stroke-dasharray="" stroke-dashoffset="0" style="mix-blend-mode: normal"><path d="M141.18762,179.51476v0.24c0.00034,0.02667 -0.00303,0.05326 -0.01,0.079c-0.017,0.059 -0.055,0.097 -0.116,0.113c-0.02423,0.00578 -0.0491,0.00847 -0.074,0.008h-1.2c-0.02667,0.00034 -0.05326,-0.00302 -0.079,-0.01c-0.059,-0.017 -0.097,-0.055 -0.112,-0.116c-0.00611,-0.02418 -0.00914,-0.04905 -0.009,-0.074v-12.2c0,-0.106 0.042,-0.17 0.126,-0.191c0.02418,-0.00611 0.04905,-0.00914 0.074,-0.009h1.4c0.02667,-0.00034 0.05325,0.00302 0.079,0.01c0.059,0.017 0.097,0.056 0.113,0.116c0.00578,0.02423 0.00847,0.04909 0.008,0.074v3.84c-0.00027,0.02845 0.00173,0.05687 0.006,0.085c0.017,0.103 0.068,0.155 0.154,0.155c0.01157,-0.00025 0.02304,-0.00227 0.034,-0.006c0.035,-0.012 0.082,-0.038 0.142,-0.079c0.01144,-0.0082 0.02277,-0.01653 0.034,-0.025c0.077,-0.056 0.169,-0.114 0.277,-0.174c0.03408,-0.01914 0.06842,-0.0378 0.103,-0.056c0.07063,-0.03652 0.14269,-0.07021 0.216,-0.101c0.077,-0.033 0.16,-0.065 0.249,-0.096c0.03157,-0.01128 0.06323,-0.02228 0.095,-0.033c0.11663,-0.03803 0.23645,-0.06547 0.358,-0.082c0.112,-0.016 0.231,-0.025 0.357,-0.027c0.01833,-0.00048 0.03666,-0.00082 0.055,-0.001c0.3435,-0.00217 0.68526,0.04911 1.013,0.152c0.09741,0.03119 0.1932,0.06724 0.287,0.108c0.4,0.173 0.75,0.41 1.05,0.71c0.29487,0.29672 0.53042,0.64699 0.694,1.032c0.0054,0.01263 0.01074,0.02531 0.016,0.038c0.14024,0.33879 0.22435,0.69816 0.249,1.064c0.00731,0.0985 0.01098,0.19723 0.011,0.296v2.2c0.00137,0.27967 -0.02781,0.55866 -0.087,0.832c-0.04114,0.18748 -0.09904,0.37088 -0.173,0.548c-0.173,0.413 -0.413,0.77 -0.72,1.07c-0.2892,0.28099 -0.6288,0.50491 -1.001,0.66c-0.0328,0.01381 -0.06581,0.02714 -0.099,0.04c-0.34185,0.13197 -0.70147,0.21219 -1.067,0.238c-0.11081,0.00821 -0.22189,0.01221 -0.333,0.012c-0.12159,0.00041 -0.24311,-0.00593 -0.364,-0.019c-0.147,-0.016 -0.282,-0.043 -0.406,-0.081c-0.203,-0.061 -0.38,-0.131 -0.531,-0.21c-0.01307,-0.00654 -0.02606,-0.0132 -0.039,-0.02c-0.05403,-0.02901 -0.1077,-0.05867 -0.161,-0.089c-0.044,-0.026 -0.085,-0.05 -0.124,-0.074c-0.03542,-0.02167 -0.07043,-0.044 -0.105,-0.067c-0.02552,-0.0173 -0.05189,-0.03332 -0.079,-0.048c-0.055,-0.029 -0.103,-0.046 -0.146,-0.05c-0.00829,-0.00114 -0.01664,-0.00181 -0.025,-0.002c-0.04748,-0.0025 -0.09175,0.02399 -0.112,0.067c-0.019,0.036 -0.028,0.087 -0.028,0.153zM144.98762,176.55476v-2.2c0,-0.24 -0.047,-0.47 -0.14,-0.69c-0.093,-0.22 -0.22,-0.413 -0.38,-0.58c-0.16,-0.167 -0.35,-0.297 -0.57,-0.39c-0.22,-0.093 -0.457,-0.14 -0.71,-0.14c-0.26157,-0.00304 -0.52064,0.05124 -0.759,0.159c-0.19488,0.09079 -0.37147,0.21653 -0.521,0.371c-0.3376,0.33336 -0.52528,0.78958 -0.52,1.264c0,0.002 0,0.004 0,0.006v2.2c-0.00689,0.47453 0.17936,0.93149 0.516,1.266c0.00133,0.00134 0.00267,0.00267 0.004,0.004c0.32503,0.33954 0.77497,0.53108 1.245,0.53c0.01166,0.00009 0.02334,0.00009 0.035,0c0.20973,0.00144 0.41814,-0.03341 0.616,-0.103c0.03169,-0.01141 0.06303,-0.02375 0.094,-0.037c0.22,-0.093 0.41,-0.223 0.57,-0.39c0.16,-0.167 0.287,-0.36 0.38,-0.58c0.093,-0.22 0.14,-0.45 0.14,-0.69z"/></g></g></svg>