<svg version="1.1" xmlns="http://www.w3.org/2000/svg" xmlns:xlink="http://www.w3.org/1999/xlink" width="10.80019" height="13.00029" viewBox="0,0,10.80019,13.00029"><g transform="translate(-221.62304,-166.80439)"><g data-paper-data="{&quot;isPaintingLayer&quot;:true}" fill="#000000" fill-rule="evenodd" stroke="#000000" stroke-width="0" stroke-linecap="round" stroke-linejoin="miter" stroke-miterlimit="10" stroke-dasharray="" stroke-dashoffset="0" style="mix-blend-mode: normal"><path d="M225.82318,179.80455h-0.6c-0.36738,0.00277 -0.73384,-0.03717 -1.092,-0.119c-0.58512,-0.12839 -1.12186,-0.41999 -1.548,-0.841c-0.64,-0.64 -0.96,-1.507 -0.96,-2.6v-0.5c0.00062,-0.11907 0.01167,-0.23786 0.033,-0.355c0.02,-0.114 0.05,-0.234 0.089,-0.358c0.00896,-0.02912 0.0183,-0.05812 0.028,-0.087c0.05347,-0.15443 0.11797,-0.30482 0.193,-0.45c0.073,-0.144 0.159,-0.29 0.257,-0.44c0.00663,-0.01002 0.0133,-0.02002 0.02,-0.03c0.114,-0.181 0.23,-0.327 0.347,-0.44c0.04478,-0.04332 0.09256,-0.08342 0.143,-0.12c0.03107,-0.02236 0.06142,-0.04571 0.091,-0.07c0.106,-0.087 0.159,-0.157 0.159,-0.21c0,-0.064 -0.037,-0.133 -0.11,-0.209c-0.0033,-0.0037 -0.00663,-0.00737 -0.01,-0.011c-0.076,-0.076 -0.171,-0.183 -0.284,-0.32c-0.00534,-0.00666 -0.01068,-0.01333 -0.016,-0.02c-0.19956,-0.23022 -0.38363,-0.47342 -0.551,-0.728c-0.03728,-0.05673 -0.07362,-0.11407 -0.109,-0.172c-0.07705,-0.12944 -0.13625,-0.2687 -0.176,-0.414c-0.039,-0.137 -0.067,-0.288 -0.084,-0.453c-0.01375,-0.13723 -0.02043,-0.27508 -0.02,-0.413c-0.00281,-0.37168 0.03712,-0.74244 0.119,-1.105c0.138,-0.59 0.396,-1.088 0.774,-1.495c0.02197,-0.02368 0.0443,-0.04702 0.067,-0.07c0.43606,-0.43569 0.98962,-0.73488 1.593,-0.861c0.34387,-0.07512 0.69503,-0.11168 1.047,-0.109c0.3717,-0.00309 0.7424,0.03888 1.104,0.125c0.57724,0.13457 1.10562,0.42716 1.526,0.845c0.44971,0.45441 0.75426,1.03219 0.875,1.66c0.06505,0.31919 0.09689,0.64425 0.095,0.97v0.4c0,0.267 -0.063,0.557 -0.19,0.87c-0.08314,0.20361 -0.1849,0.39911 -0.304,0.584c-0.07645,0.11918 -0.15854,0.23465 -0.246,0.346c-0.119,0.145 -0.241,0.261 -0.367,0.348c-0.001,0.00067 -0.002,0.00133 -0.003,0.002c-0.123,0.084 -0.236,0.155 -0.34,0.214c-0.00333,0.00201 -0.00666,0.00401 -0.01,0.006c-0.03594,0.02019 -0.07161,0.04086 -0.107,0.062c-0.059,0.036 -0.11,0.068 -0.153,0.098c-0.01955,0.01341 -0.03735,0.0292 -0.053,0.047c-0.03039,0.03375 -0.04714,0.07759 -0.047,0.123c0.00032,0.03154 0.00858,0.06249 0.024,0.09c0.02,0.037 0.052,0.073 0.096,0.11c0.02215,0.01848 0.04415,0.03715 0.066,0.056c0.073,0.063 0.164,0.144 0.274,0.244c0.07423,0.06635 0.14757,0.13369 0.22,0.202c0.148,0.14 0.268,0.263 0.36,0.368c0.125,0.143 0.226,0.22 0.304,0.229c0.00531,0.00065 0.01065,0.00099 0.016,0.001c0.066,0 0.154,-0.12 0.266,-0.361c0.00134,-0.003 0.00267,-0.006 0.004,-0.009c0.03631,-0.0777 0.07602,-0.15378 0.119,-0.228c0.12,-0.211 0.291,-0.465 0.511,-0.762c0.206,-0.279 0.506,-0.511 0.899,-0.696c0.04,-0.01874 0.08034,-0.03674 0.121,-0.054c0.26762,-0.11214 0.54808,-0.19073 0.835,-0.234c0.24649,-0.03807 0.49559,-0.05679 0.745,-0.056h0.36c0.106,0 0.17,0.042 0.191,0.126c0.00612,0.02419 0.00914,0.04905 0.009,0.074v1.4c0.00034,0.02667 -0.00302,0.05326 -0.01,0.079c-0.023,0.081 -0.086,0.121 -0.19,0.121h-0.52c-0.47016,-0.00606 -0.92254,0.17951 -1.253,0.514c-0.0057,0.0053 -0.01136,0.01064 -0.017,0.016c-0.20647,0.2011 -0.36062,0.44966 -0.449,0.724c-0.05477,0.17678 -0.08209,0.36093 -0.081,0.546v0.4l0.06,0.14c0.14024,0.16008 0.29054,0.31105 0.45,0.452c0.164,0.144 0.328,0.265 0.492,0.363c0.08333,0.04992 0.16948,0.095 0.258,0.135c0.1915,0.08636 0.38317,0.17236 0.575,0.258c0.17482,0.07773 0.34982,0.15507 0.525,0.232c0.07,0.026 0.117,0.064 0.141,0.113c0.01296,0.02715 0.01946,0.05692 0.019,0.087v1.4c0.00054,0.02813 -0.00352,0.05617 -0.012,0.083c-0.026,0.076 -0.093,0.116 -0.202,0.117c-0.002,0.00001 -0.004,0.00001 -0.006,0c-0.20405,0.00101 -0.40792,-0.01269 -0.61,-0.041c-0.321,-0.047 -0.601,-0.133 -0.84,-0.259c-0.29456,-0.15546 -0.58186,-0.3243 -0.861,-0.506c-0.09723,-0.06332 -0.19357,-0.128 -0.289,-0.194c-0.04406,-0.03159 -0.08806,-0.06325 -0.132,-0.095c-0.125,-0.09 -0.228,-0.165 -0.308,-0.225c-0.088,-0.066 -0.153,-0.104 -0.195,-0.116c-0.00811,-0.00245 -0.01652,-0.0038 -0.025,-0.004c-0.01581,0.00078 -0.03121,0.00523 -0.045,0.013c-0.042,0.021 -0.095,0.069 -0.16,0.143c-0.01532,0.01773 -0.03032,0.03573 -0.045,0.054c-0.03589,0.04391 -0.07324,0.0866 -0.112,0.128c-0.084,0.091 -0.19,0.194 -0.316,0.311c-0.04038,0.03731 -0.08105,0.07432 -0.122,0.111c-0.26547,0.22721 -0.57441,0.39801 -0.908,0.502c-0.258,0.085 -0.544,0.142 -0.858,0.173c-0.18416,0.01722 -0.36904,0.02556 -0.554,0.025zM227.60318,177.00455l-0.02,-0.18c-0.24355,-0.32372 -0.50425,-0.63416 -0.781,-0.93c-0.1997,-0.21336 -0.40961,-0.41693 -0.629,-0.61c-0.487,-0.427 -1.017,-0.793 -1.59,-1.1l-0.2,-0.02c-0.19146,0.12883 -0.36526,0.28213 -0.517,0.456c-0.28838,0.32668 -0.44611,0.74826 -0.443,1.184v0.6c-0.00282,0.25387 0.04724,0.50554 0.147,0.739c0.08914,0.20222 0.2157,0.38578 0.373,0.541c0.33057,0.33686 0.78405,0.52461 1.256,0.52c0.008,0.00004 0.016,0.00004 0.024,0h0.6c0.46087,-0.00093 0.90307,-0.18219 1.232,-0.505c0.16,-0.148 0.31,-0.329 0.452,-0.542c0.03313,-0.05028 0.06514,-0.10129 0.096,-0.153zM227.02318,170.60455v-0.4c0.00688,-0.47453 -0.17936,-0.93148 -0.516,-1.266c-0.00133,-0.00134 -0.00266,-0.00267 -0.004,-0.004c-0.32503,-0.33954 -0.77497,-0.53108 -1.245,-0.53c-0.01167,-0.00009 -0.02333,-0.00009 -0.035,0c-0.25387,-0.00282 -0.50554,0.04724 -0.739,0.147c-0.20222,0.08914 -0.38578,0.2157 -0.541,0.373c-0.33686,0.33057 -0.52461,0.78405 -0.52,1.256c-0.00004,0.008 -0.00004,0.016 0,0.024c0.00147,0.29051 0.07794,0.57572 0.222,0.828c0.06348,0.11328 0.1364,0.22099 0.218,0.322c0.11935,0.14704 0.24972,0.28477 0.39,0.412c0.144,0.133 0.307,0.266 0.49,0.401c0.14991,0.11054 0.30333,0.21626 0.46,0.317c0.19347,-0.04618 0.38304,-0.10737 0.567,-0.183c0.199,-0.084 0.376,-0.181 0.528,-0.293c0.09532,-0.06971 0.18403,-0.14804 0.265,-0.234c0.307,-0.327 0.46,-0.717 0.46,-1.17z"/></g></g></svg>