<svg version="1.1" xmlns="http://www.w3.org/2000/svg" xmlns:xlink="http://www.w3.org/1999/xlink" width="178.89804" height="27.11675" viewBox="0,0,178.89804,27.11675"><g transform="translate(-150.54331,-166.44162)"><g data-paper-data="{&quot;isPaintingLayer&quot;:true}" fill-rule="nonzero" stroke-linecap="butt" stroke-linejoin="miter" stroke-miterlimit="10" stroke-dasharray="" stroke-dashoffset="0" style="mix-blend-mode: normal"><path d="M151.21193,180.23442l11.59659,-13.2928h154.90881l11.07073,12.83554l-10.89246,13.28121h-155.09604z" fill="#ffad00" stroke="#80f7ff" stroke-width="1"/><path d="M178.13021,182.49771c0,1.10792 -0.31655,1.95865 -0.94965,2.59175c-0.6331,0.6331 -1.50361,0.92986 -2.61153,0.92986h-3.95687c-0.13849,0 -0.19784,-0.05935 -0.19784,-0.19785v-12.06844c0,-0.11871 0.05935,-0.19785 0.19784,-0.19785h3.95687c1.08814,0 1.95865,0.33634 2.59175,0.96943c0.6331,0.6331 0.96943,1.50361 0.96943,2.59175v0.19784c0,0.51439 -0.21763,1.04857 -0.61332,1.60253c-0.17806,0.23741 -0.33633,0.41547 -0.49461,0.53418c-0.15828,0.11871 -0.23741,0.19784 -0.23741,0.2572c0,0.07913 0.07913,0.15827 0.23741,0.27698c0.15828,0.11871 0.31655,0.31655 0.49461,0.57375c0.39569,0.61331 0.61332,1.16727 0.61332,1.6421zM176.34962,177.11637v-0.19784c0,-0.49461 -0.17806,-0.91008 -0.51439,-1.2662c-0.35612,-0.33634 -0.77159,-0.51439 -1.2662,-0.51439h-2.17628c-0.13849,0 -0.19784,0.07914 -0.19784,0.19784v3.36334c0,0.13849 0.05935,0.19784 0.19784,0.19784h2.17628c0.49461,0 0.91008,-0.15828 1.2662,-0.51439c0.33633,-0.33634 0.51439,-0.7518 0.51439,-1.2662zM176.34962,182.65599v-0.39569c0,-0.47482 -0.17806,-0.8903 -0.51439,-1.24641c-0.35612,-0.35612 -0.77159,-0.53418 -1.2662,-0.53418h-2.17628c-0.13849,0 -0.19784,0.07914 -0.19784,0.19784v3.56118c0,0.13849 0.05935,0.19784 0.19784,0.19784h2.17628c0.49461,0 0.91008,-0.15828 1.2662,-0.51439c0.33633,-0.35612 0.51439,-0.77159 0.51439,-1.2662zM182.48278,179.78726c0,0.31655 -0.11871,0.57375 -0.31655,0.77159c-0.21763,0.21763 -0.47482,0.31655 -0.77159,0.31655c-0.31655,0 -0.57375,-0.09892 -0.77159,-0.31655c-0.21763,-0.19784 -0.31655,-0.45504 -0.31655,-0.77159c0,-0.31655 0.09892,-0.57375 0.31655,-0.77159c0.19784,-0.19784 0.45504,-0.31655 0.77159,-0.31655c0.29676,0 0.55396,0.11871 0.77159,0.31655c0.19784,0.21763 0.31655,0.47482 0.31655,0.77159zM182.48278,185.12903c0,0.31655 -0.11871,0.57375 -0.31655,0.77159c-0.19784,0.21763 -0.45504,0.31655 -0.77159,0.31655c-0.31655,0 -0.59353,-0.09892 -0.79137,-0.29676c-0.19784,-0.19785 -0.29676,-0.47482 -0.29676,-0.79138c0,-0.29676 0.09892,-0.55396 0.31655,-0.77159c0.19784,-0.19784 0.45504,-0.31655 0.77159,-0.31655c0.29676,0 0.55396,0.11871 0.77159,0.31655c0.19784,0.21763 0.31655,0.47482 0.31655,0.77159z" fill="#000000" stroke="none" stroke-width="9.52081"/><path d="M163.01807,181.46819c0,0 0,-0.67172 0,-1.50032v0c0,-0.8286 0,-1.50032 0,-1.50032h3.00064c0,0 0,0.67171 0,1.50032v0c0,0.8286 0,1.50032 0,1.50032z" fill="#000000" stroke="none" stroke-width="2"/></g></g></svg>