<svg version="1.1" xmlns="http://www.w3.org/2000/svg" xmlns:xlink="http://www.w3.org/1999/xlink" width="5.40003" height="18.16" viewBox="0,0,5.40003,18.16"><g transform="translate(-292.98316,-165.02454)"><g data-paper-data="{&quot;isPaintingLayer&quot;:true}" fill="#000000" fill-rule="evenodd" stroke="#000000" stroke-width="0" stroke-linecap="round" stroke-linejoin="miter" stroke-miterlimit="10" stroke-dasharray="" stroke-dashoffset="0" style="mix-blend-mode: normal"><path d="M296.58318,176.70455v2.9c0.00126,0.28499 -0.02587,0.56939 -0.081,0.849c-0.04289,0.21584 -0.10617,0.42712 -0.189,0.631c-0.10362,0.25691 -0.23507,0.50171 -0.392,0.73c-0.09565,0.1381 -0.20198,0.2685 -0.318,0.39c-0.293,0.307 -0.637,0.547 -1.03,0.72c-0.393,0.173 -0.797,0.26 -1.21,0.26c-0.147,0 -0.247,-0.01 -0.3,-0.03c-0.02779,-0.01065 -0.0499,-0.03239 -0.061,-0.06c-0.012,-0.027 -0.019,-0.063 -0.019,-0.106c-0.00001,-0.00133 -0.00001,-0.00267 0,-0.004v-1.2c-0.00013,-0.01436 0.00054,-0.02871 0.002,-0.043c0.005,-0.043 0.018,-0.072 0.038,-0.087c0.00908,-0.00669 0.01842,-0.01303 0.028,-0.019c0.025,-0.016 0.055,-0.033 0.092,-0.051c0.202,-0.092 0.383,-0.174 0.544,-0.247c0.06865,-0.03103 0.13732,-0.06203 0.206,-0.093c0.205,-0.093 0.355,-0.192 0.448,-0.298c0.00067,-0.00067 0.00133,-0.00133 0.002,-0.002c0.10861,-0.13613 0.20153,-0.28406 0.277,-0.441c0.10579,-0.21793 0.16148,-0.45676 0.163,-0.699v-3.16c0.00221,-0.21882 0.03796,-0.43601 0.106,-0.644c0.057,-0.179 0.136,-0.364 0.237,-0.556c0.08404,-0.15818 0.1765,-0.31173 0.277,-0.46c0.05096,-0.07463 0.10466,-0.14735 0.161,-0.218c0.116,-0.145 0.229,-0.259 0.339,-0.342c0.152,-0.114 0.232,-0.21 0.239,-0.288c0.00053,-0.00398 0.00086,-0.00799 0.001,-0.012c-0.00077,-0.02679 -0.00834,-0.05294 -0.022,-0.076c-0.033,-0.06 -0.103,-0.127 -0.211,-0.202c-0.00564,-0.00403 -0.01131,-0.00803 -0.017,-0.012c-0.07623,-0.0524 -0.14753,-0.11165 -0.213,-0.177c-0.064,-0.064 -0.128,-0.136 -0.191,-0.217c-0.0296,-0.03797 -0.05827,-0.07665 -0.086,-0.116c-0.13077,-0.17898 -0.24682,-0.36827 -0.347,-0.566c-0.107,-0.217 -0.183,-0.428 -0.227,-0.635c-0.03001,-0.13766 -0.04543,-0.27811 -0.046,-0.419v-3.3c0.00049,-0.09421 -0.00451,-0.18837 -0.015,-0.282c-0.011,-0.093 -0.028,-0.179 -0.051,-0.257c-0.01449,-0.05152 -0.03253,-0.10198 -0.054,-0.151c-0.08,-0.18 -0.19,-0.333 -0.33,-0.46c-0.08288,-0.07432 -0.17261,-0.14061 -0.268,-0.198c-0.08124,-0.04908 -0.16539,-0.09316 -0.252,-0.132c-0.207,-0.093 -0.43,-0.193 -0.67,-0.3c-0.01242,-0.00616 -0.02475,-0.0125 -0.037,-0.019c-0.027,-0.015 -0.05,-0.028 -0.068,-0.04c-0.00509,-0.00354 -0.01009,-0.00721 -0.015,-0.011c-0.00988,-0.00768 -0.01777,-0.01763 -0.023,-0.029c-0.011,-0.024 -0.017,-0.057 -0.017,-0.101v-1.2c-0.0001,-0.01978 0.00157,-0.03952 0.005,-0.059c0.003,-0.02 0.009,-0.038 0.017,-0.053c0.01392,-0.02771 0.03844,-0.04863 0.068,-0.058c0.06,-0.02 0.157,-0.03 0.29,-0.03c0.413,0 0.817,0.083 1.21,0.25c0.393,0.167 0.737,0.407 1.03,0.72c0.2302,0.24804 0.42351,0.52791 0.574,0.831c0.04921,0.09786 0.09458,0.1976 0.136,0.299c0.18,0.44 0.27,0.933 0.27,1.48v2.9c-0.00053,0.09455 0.00448,0.18904 0.015,0.283c0.011,0.092 0.028,0.178 0.051,0.256c0.01449,0.05152 0.03253,0.10198 0.054,0.151c0.08,0.18 0.19,0.333 0.33,0.46c0.08288,0.07432 0.17261,0.14061 0.268,0.198c0.08124,0.04908 0.16539,0.09316 0.252,0.132c0.207,0.093 0.43,0.193 0.67,0.3c0.01242,0.00616 0.02475,0.0125 0.037,0.019c0.035,0.019 0.063,0.036 0.083,0.051c0.00988,0.00768 0.01777,0.01763 0.023,0.029c0.011,0.024 0.017,0.057 0.017,0.101v1.24c0.00013,0.01436 -0.00054,0.02871 -0.002,0.043c-0.005,0.043 -0.018,0.072 -0.038,0.087c-0.00908,0.00669 -0.01842,0.01303 -0.028,0.019c-0.021,0.014 -0.047,0.028 -0.077,0.043c-0.00499,0.00269 -0.00999,0.00536 -0.015,0.008c-0.24,0.107 -0.463,0.207 -0.67,0.3c-0.09849,0.04422 -0.19372,0.09535 -0.285,0.153c-0.08321,0.05224 -0.16182,0.11145 -0.235,0.177c-0.14,0.127 -0.25,0.28 -0.33,0.46c-0.03431,0.07844 -0.06045,0.1602 -0.078,0.244c-0.017,0.082 -0.029,0.171 -0.036,0.266c-0.00407,0.05991 -0.00607,0.11995 -0.006,0.18z"/></g></g></svg>