<svg version="1.1" xmlns="http://www.w3.org/2000/svg" xmlns:xlink="http://www.w3.org/1999/xlink" width="7.40002" height="8.98008" viewBox="0,0,7.40002,8.98008"><g transform="translate(-342.24762,-170.97472)"><g data-paper-data="{&quot;isPaintingLayer&quot;:true}" fill="#000000" fill-rule="evenodd" stroke="#000000" stroke-width="0" stroke-linecap="round" stroke-linejoin="miter" stroke-miterlimit="10" stroke-dasharray="" stroke-dashoffset="0" style="mix-blend-mode: normal"><path d="M349.44762,179.95476h-6.98c-0.02646,0.00035 -0.0529,-0.00166 -0.079,-0.006c-0.094,-0.017 -0.141,-0.068 -0.141,-0.154c0.00011,-0.01684 0.00212,-0.03361 0.006,-0.05c0.006,-0.027 0.018,-0.057 0.034,-0.09l4.06,-6.78c0.027,-0.053 0.04,-0.1 0.04,-0.14c0,-0.107 -0.073,-0.16 -0.22,-0.16h-3.5c-0.02667,0.00034 -0.05326,-0.00302 -0.079,-0.01c-0.081,-0.023 -0.121,-0.086 -0.121,-0.19v-1.2c-0.00034,-0.02667 0.00302,-0.05325 0.01,-0.079c0.017,-0.059 0.056,-0.097 0.116,-0.112c0.02418,-0.00611 0.04905,-0.00914 0.074,-0.009h6.62c0.02646,-0.00035 0.0529,0.00166 0.079,0.006c0.094,0.017 0.141,0.069 0.141,0.154c-0.00011,0.01684 -0.00212,0.03361 -0.006,0.05c-0.004,0.016 -0.009,0.032 -0.015,0.049c-0.00572,0.01394 -0.01206,0.02763 -0.019,0.041l-4.08,6.78c-0.01049,0.01092 -0.01865,0.02384 -0.024,0.038c-0.011,0.026 -0.016,0.06 -0.016,0.102c0,0.107 0.073,0.16 0.22,0.16h3.88c0.02667,-0.00034 0.05326,0.00302 0.079,0.01c0.081,0.023 0.121,0.086 0.121,0.19v1.2c0.00034,0.02667 -0.00302,0.05326 -0.01,0.079c-0.023,0.081 -0.086,0.121 -0.19,0.121z"/></g></g></svg>