<svg version="1.1" xmlns="http://www.w3.org/2000/svg" xmlns:xlink="http://www.w3.org/1999/xlink" width="146.88421" height="9.17037" viewBox="0,0,146.88421,9.17037"><g transform="translate(-166.55789,-175.41482)"><g data-paper-data="{&quot;isPaintingLayer&quot;:true}" fill="#f9f9f9" fill-rule="nonzero" stroke="none" stroke-width="2" stroke-linecap="butt" stroke-linejoin="miter" stroke-miterlimit="10" stroke-dasharray="" stroke-dashoffset="0" style="mix-blend-mode: normal"><path d="M171.62796,177.1949v6.35292c0,0.12685 0.02864,0.22302 0.08593,0.28849c0.05729,0.06547 0.15959,0.11866 0.30691,0.15959v0.19642h-2.61482v-0.19642c0.14731,-0.04093 0.24962,-0.09413 0.3069,-0.15959c0.05729,-0.06547 0.08593,-0.16163 0.08593,-0.28849v-6.35292h-2.60255c-0.12276,0 -0.21688,0.02863 -0.28235,0.0859c-0.06547,0.0532 -0.11867,0.15346 -0.15959,0.30077h-0.19642v-2.16675h0.19642c0.04501,0.15141 0.09821,0.25576 0.15959,0.31305c0.06547,0.05727 0.15959,0.0859 0.28235,0.0859h7.02811c0.12685,0 0.22302,-0.02863 0.28849,-0.0859c0.06547,-0.05727 0.11867,-0.16162 0.15959,-0.31305h0.19642v2.16675h-0.19642c-0.04092,-0.14731 -0.09412,-0.24757 -0.15959,-0.30077c-0.06547,-0.05727 -0.16164,-0.0859 -0.28849,-0.0859zM180.22128,175.66652c1.46086,0 2.61892,0.39488 3.47416,1.18465c0.90434,0.82659 1.35652,1.89462 1.35652,3.20408c0,0.80204 -0.21688,1.55089 -0.65064,2.24654c-0.84706,1.35856 -2.23631,2.03784 -4.16776,2.03784c-1.44859,0 -2.6005,-0.39488 -3.45574,-1.18465c-0.45831,-0.42148 -0.80614,-0.92685 -1.04348,-1.51611c-0.20869,-0.51969 -0.31304,-1.06598 -0.31304,-1.63887c0,-0.83887 0.21483,-1.60613 0.6445,-2.30178c0.8225,-1.32992 2.20766,-2.00715 4.15548,-2.0317zM180.22738,177.08441c-0.79795,0 -1.46291,0.23734 -1.99488,0.71202c-0.63018,0.56061 -0.94527,1.29514 -0.94527,2.20357c0,0.90844 0.31509,1.64297 0.94527,2.20358c0.53197,0.47467 1.20102,0.71201 2.00715,0.71201c0.80614,0 1.47314,-0.23734 2.00102,-0.71201c0.31509,-0.28235 0.55652,-0.62813 0.72429,-1.03734c0.14731,-0.36419 0.22097,-0.74066 0.22097,-1.12941c0,-0.94935 -0.31509,-1.69615 -0.94527,-2.2404c-0.53606,-0.46649 -1.20716,-0.70383 -2.01329,-0.71202zM190.69282,177.1949v6.35292c0,0.12685 0.02864,0.22302 0.08593,0.28849c0.05729,0.06547 0.15959,0.11866 0.3069,0.15959v0.19642h-2.61482v-0.19642c0.14731,-0.04093 0.24962,-0.09413 0.3069,-0.15959c0.05729,-0.06547 0.08593,-0.16163 0.08593,-0.28849v-6.35292h-2.60255c-0.12276,0 -0.21688,0.02863 -0.28235,0.0859c-0.06547,0.0532 -0.11867,0.15346 -0.15959,0.30077h-0.19642v-2.16675h0.19642c0.04501,0.15141 0.09821,0.25576 0.15959,0.31305c0.06547,0.05727 0.15959,0.0859 0.28235,0.0859h7.02811c0.12685,0 0.22302,-0.02863 0.28849,-0.0859c0.06547,-0.05727 0.11867,-0.16162 0.15959,-0.31305h0.19642v2.16675h-0.19642c-0.04092,-0.14731 -0.09412,-0.24757 -0.15959,-0.30077c-0.06547,-0.05727 -0.16164,-0.0859 -0.28849,-0.0859zM199.96747,182.05626h-3.80561l-0.5647,1.17852c-0.07775,0.16368 -0.11662,0.29258 -0.11662,0.38669c0,0.18005 0.13708,0.30486 0.41125,0.37443v0.19642h-2.77442v-0.19642c0.16368,-0.03273 0.28849,-0.09002 0.37442,-0.17187c0.08593,-0.08184 0.18414,-0.24143 0.29463,-0.47877l3.08132,-6.43885c0.09821,-0.20461 0.14731,-0.36829 0.14731,-0.49105c0,-0.18823 -0.11867,-0.32327 -0.35601,-0.40511v-0.19642h2.97083v0.19642c-0.24143,0.06957 -0.36215,0.19028 -0.36215,0.36215c0,0.11867 0.03887,0.2537 0.11662,0.40511l3.1918,6.45727c0.13504,0.27417 0.25371,0.4624 0.35601,0.5647c0.1023,0.09821 0.23938,0.16368 0.41125,0.19642v0.19642h-3.08132v-0.19642c0.27008,-0.045 0.40511,-0.17185 0.40511,-0.38056c0,-0.08593 -0.04092,-0.21279 -0.12276,-0.38056zM199.43959,180.90844l-1.35652,-2.98311l-1.37493,2.98311zM206.27742,182.81125h5.14985c0.12685,0 0.22302,-0.02863 0.28849,-0.0859c0.06547,-0.05727 0.11867,-0.15957 0.15959,-0.3069h0.19642v2.16674h-0.19642c-0.04092,-0.14731 -0.09412,-0.24961 -0.15959,-0.3069c-0.06547,-0.05727 -0.16164,-0.0859 -0.28849,-0.0859h-7.37184v-0.19642c0.14731,-0.04093 0.24962,-0.09413 0.3069,-0.15959c0.05729,-0.06547 0.08593,-0.16163 0.08593,-0.28849v-7.08949c0,-0.12685 -0.02864,-0.22302 -0.08593,-0.28849c-0.05729,-0.06547 -0.15959,-0.11866 -0.3069,-0.15959v-0.19642h2.61482v0.19642c-0.14731,0.0368 -0.24962,0.09 -0.3069,0.15959c-0.05729,0.06547 -0.08593,0.16163 -0.08593,0.28849zM218.31421,180.79182v2.76214c0,0.12276 0.02864,0.21892 0.08593,0.28849c0.06138,0.06547 0.16368,0.11662 0.3069,0.15345v0.19642h-2.61482v-0.19642c0.14731,-0.04093 0.24962,-0.09413 0.3069,-0.15959c0.05729,-0.06547 0.08593,-0.15958 0.08593,-0.28235v-7.09563c0,-0.12685 -0.02864,-0.22302 -0.08593,-0.28849c-0.05729,-0.06547 -0.15959,-0.11866 -0.3069,-0.15959v-0.19642h5.22965c0.60972,0 1.09258,0.04092 1.44859,0.12276c0.3601,0.08184 0.67724,0.22302 0.9514,0.42353c0.28235,0.20869 0.50332,0.48286 0.66291,0.8225c0.15959,0.35192 0.23939,0.7243 0.23939,1.11713c0,0.56471 -0.15141,1.05985 -0.45422,1.48542c-0.26189,0.36419 -0.60972,0.62404 -1.04348,0.77954c-0.42967,0.15141 -1.0312,0.22711 -1.8046,0.22711zM218.31421,179.41075h2.79283c0.55652,0 0.94731,-0.05934 1.17237,-0.17801c0.14322,-0.07775 0.2578,-0.20051 0.34373,-0.36828c0.09003,-0.17187 0.13504,-0.3601 0.13504,-0.56471c0,-0.20051 -0.04501,-0.38465 -0.13504,-0.55242c-0.08593,-0.17187 -0.20051,-0.29668 -0.34373,-0.37443c-0.22097,-0.11867 -0.61176,-0.178 -1.17237,-0.178h-2.79283zM227.93259,180.7734v2.78056c0,0.12276 0.02864,0.21892 0.08593,0.28849c0.06138,0.06547 0.16368,0.11662 0.3069,0.15345v0.19642h-2.61482v-0.19642c0.14731,-0.04093 0.24962,-0.09413 0.3069,-0.15959c0.05729,-0.06547 0.08593,-0.15958 0.08593,-0.28235v-7.09563c0,-0.12685 -0.02864,-0.22302 -0.08593,-0.28849c-0.05729,-0.06547 -0.15959,-0.11866 -0.3069,-0.15959v-0.19642h5.24193c0.63836,0 1.14373,0.03683 1.51611,0.11048c0.37647,0.07366 0.70383,0.20256 0.98209,0.3867c0.32327,0.21279 0.5647,0.50128 0.72429,0.86547c0.15141,0.35192 0.22711,0.72839 0.22711,1.12941c0,1.36675 -0.75908,2.16674 -2.27723,2.39999l1.62659,2.31406c0.28644,0.40511 0.49514,0.66701 0.62608,0.78568c0.13504,0.11457 0.29872,0.178 0.49105,0.19028v0.19642h-3.03221v-0.19642c0.20869,-0.03273 0.31304,-0.10639 0.31304,-0.22097c0,-0.07366 -0.09616,-0.25167 -0.28849,-0.53402l-1.69411,-2.46751zM227.93259,179.39233h2.82352c0.41739,0 0.71202,-0.01227 0.88388,-0.0368c0.17187,-0.02453 0.32941,-0.07568 0.47263,-0.15345c0.311,-0.16777 0.46649,-0.47058 0.46649,-0.90843c0,-0.43785 -0.1555,-0.74067 -0.46649,-0.90844c-0.14731,-0.08184 -0.30486,-0.13299 -0.47263,-0.15345c-0.16368,-0.02453 -0.45831,-0.0368 -0.88388,-0.0368h-2.82352zM236.26811,183.54782v-7.09563c0,-0.12276 -0.02863,-0.21688 -0.0859,-0.28235c-0.05727,-0.06547 -0.15957,-0.11866 -0.30691,-0.15959v-0.19642h2.61483v0.19642c-0.14731,0.0368 -0.24962,0.09 -0.30691,0.15959c-0.05727,0.06547 -0.0859,0.15958 -0.0859,0.28235v7.09563c0,0.12685 0.02863,0.22506 0.0859,0.29463c0.0614,0.06547 0.1637,0.11662 0.30691,0.15345v0.19642h-2.61483v-0.19642c0.14731,-0.04093 0.24962,-0.09413 0.30691,-0.15959c0.05727,-0.06547 0.0859,-0.16163 0.0859,-0.28849zM242.7131,182.81125h4.35804c0.12276,0 0.21688,-0.02863 0.28235,-0.0859c0.06547,-0.05727 0.11866,-0.15957 0.15959,-0.3069h0.19642v2.16674h-0.19642c-0.04093,-0.14731 -0.09413,-0.24961 -0.15959,-0.3069c-0.06547,-0.05727 -0.15958,-0.0859 -0.28235,-0.0859h-7.32888v-0.42967l4.87364,-6.56775h-4.19231c-0.12685,0 -0.22302,0.02863 -0.28849,0.0859c-0.06547,0.0532 -0.11866,0.15346 -0.15959,0.30077h-0.19642v-2.16675h0.19642c0.045,0.15141 0.0982,0.25576 0.15959,0.31305c0.06547,0.05727 0.16163,0.0859 0.28849,0.0859h7.21839v0.34987zM251.1898,180.5156v2.29565h5.38924c0.12276,0 0.21688,-0.02863 0.28235,-0.0859c0.06547,-0.05727 0.11866,-0.15957 0.15959,-0.3069h0.19642v2.16674h-0.19642c-0.04093,-0.14731 -0.09413,-0.24961 -0.15959,-0.3069c-0.06547,-0.05727 -0.15958,-0.0859 -0.28235,-0.0859h-7.61123v-0.19642c0.14731,-0.04093 0.24961,-0.09413 0.3069,-0.15959c0.05727,-0.06547 0.0859,-0.16163 0.0859,-0.28849v-7.08949c0,-0.12685 -0.02863,-0.22302 -0.0859,-0.28849c-0.05727,-0.06547 -0.15957,-0.11866 -0.3069,-0.15959v-0.19642h7.46391c0.12276,0 0.21688,-0.02863 0.28235,-0.0859c0.06547,-0.0614 0.11866,-0.16575 0.15959,-0.31305h0.19642v2.16675h-0.19642c-0.04093,-0.14322 -0.09413,-0.24348 -0.15959,-0.30077c-0.06547,-0.05727 -0.15958,-0.0859 -0.28235,-0.0859h-5.24192v1.98874h3.4005c0.12276,0 0.21688,-0.02863 0.28235,-0.0859c0.06547,-0.05727 0.11866,-0.15957 0.15959,-0.30691h0.19642v2.11764h-0.19642c-0.04093,-0.14322 -0.09413,-0.24348 -0.15959,-0.30077c-0.06547,-0.0614 -0.15958,-0.0921 -0.28235,-0.0921zM266.81736,184.07569l-3.08746,-5.67159v5.14372c0,0.12685 0.02863,0.22302 0.0859,0.28849c0.05727,0.06547 0.15957,0.11866 0.30691,0.15959v0.19642h-2.46137v-0.19642c0.14731,-0.04093 0.24961,-0.09413 0.3069,-0.15959c0.05727,-0.06547 0.0859,-0.16163 0.0859,-0.28849v-7.09563c0,-0.12276 -0.02863,-0.21688 -0.0859,-0.28235c-0.05727,-0.06547 -0.15957,-0.11866 -0.3069,-0.15959v-0.19642h3.22863v0.19642c-0.19233,0.04913 -0.28849,0.16166 -0.28849,0.33759c0,0.08184 0.02863,0.17596 0.0859,0.28235l2.28337,4.21073l2.31406,-4.13707c0.1023,-0.18823 0.15345,-0.32532 0.15345,-0.41125c0,-0.16777 -0.1023,-0.26189 -0.3069,-0.28235v-0.19642h3.16725v0.19642c-0.14731,0.04093 -0.24961,0.09413 -0.3069,0.15959c-0.05727,0.06547 -0.0859,0.15958 -0.0859,0.28235v7.09563c0,0.12685 0.02863,0.22302 0.0859,0.28849c0.05727,0.06547 0.15957,0.11866 0.3069,0.15959v0.19642h-2.61483v-0.19642c0.14323,-0.03687 0.24348,-0.08802 0.30077,-0.15345c0.0614,-0.06957 0.0921,-0.16778 0.0921,-0.29463v-5.14372zM278.41221,175.66652c1.46087,0 2.61892,0.39488 3.47416,1.18465c0.90434,0.82659 1.35651,1.89462 1.35651,3.20408c0,0.80204 -0.21688,1.55089 -0.65063,2.24654c-0.84706,1.35856 -2.23631,2.03784 -4.16776,2.03784c-1.44859,0 -2.60051,-0.39488 -3.45575,-1.18465c-0.45831,-0.42148 -0.80613,-0.92685 -1.04347,-1.51611c-0.20869,-0.51969 -0.31304,-1.06598 -0.31304,-1.63887c0,-0.83887 0.21483,-1.60613 0.64449,-2.30178c0.82251,-1.32992 2.20767,-2.00715 4.15549,-2.0317zM278.41821,177.08441c-0.79795,0 -1.46291,0.23734 -1.99488,0.71202c-0.63018,0.56061 -0.94527,1.29514 -0.94527,2.20357c0,0.90844 0.31509,1.64297 0.94527,2.20358c0.53197,0.47467 1.20102,0.71201 2.00715,0.71201c0.80614,0 1.47315,-0.23734 2.00102,-0.71201c0.31509,-0.28235 0.55652,-0.62813 0.72429,-1.03734c0.14731,-0.36419 0.22097,-0.74066 0.22097,-1.12941c0,-0.94935 -0.31509,-1.69615 -0.94526,-2.2404c-0.53606,-0.46649 -1.20716,-0.70383 -2.01329,-0.71202zM286.63096,178.45321v5.09461c0,0.12685 0.02863,0.22302 0.0859,0.28849c0.05727,0.06547 0.15957,0.11866 0.30691,0.15959v0.19642h-2.46137v-0.19642c0.14731,-0.04093 0.24961,-0.09413 0.3069,-0.15959c0.05727,-0.06547 0.0859,-0.16163 0.0859,-0.28849v-7.09563c0,-0.12276 -0.02863,-0.21688 -0.0859,-0.28235c-0.05727,-0.06547 -0.15957,-0.11866 -0.3069,-0.15959v-0.19642h2.84807v0.19642c-0.17596,0.045 -0.26394,0.13912 -0.26394,0.28235c0,0.09821 0.05729,0.20665 0.17187,0.32532l4.62198,4.80612v-4.97185c0,-0.12276 -0.02863,-0.21688 -0.0859,-0.28235c-0.05727,-0.06547 -0.15957,-0.11866 -0.3069,-0.15959v-0.19642h2.46137v0.19642c-0.14731,0.04093 -0.24961,0.09413 -0.3069,0.15959c-0.05727,0.06547 -0.0859,0.15958 -0.0859,0.28235v7.09563c0,0.12685 0.02863,0.22302 0.0859,0.28849c0.05727,0.06547 0.15957,0.11866 0.3069,0.15959v0.19642h-2.63938v-0.19642c0.17187,-0.03687 0.2578,-0.12485 0.2578,-0.26394c0,-0.08184 -0.10025,-0.22506 -0.30076,-0.42967zM297.7409,180.5156v2.29565h5.38923c0.12277,0 0.21689,-0.02863 0.28236,-0.0859c0.06547,-0.05727 0.11866,-0.15957 0.15959,-0.3069h0.19642v2.16674h-0.19642c-0.04093,-0.14731 -0.09413,-0.24961 -0.15959,-0.3069c-0.06547,-0.05727 -0.15959,-0.0859 -0.28236,-0.0859h-7.61104v-0.19642c0.14731,-0.04093 0.24961,-0.09413 0.3069,-0.15959c0.05727,-0.06547 0.0859,-0.16163 0.0859,-0.28849v-7.08949c0,-0.12685 -0.02863,-0.22302 -0.0859,-0.28849c-0.05727,-0.06547 -0.15957,-0.11866 -0.3069,-0.15959v-0.19642h7.46391c0.12276,0 0.21688,-0.02863 0.28235,-0.0859c0.06547,-0.0614 0.11866,-0.16575 0.15959,-0.31305h0.19642v2.16675h-0.19642c-0.04093,-0.14322 -0.09413,-0.24348 -0.15959,-0.30077c-0.06547,-0.05727 -0.15958,-0.0859 -0.28235,-0.0859h-5.24192v1.98874h3.40049c0.12277,0 0.21689,-0.02863 0.28236,-0.0859c0.06547,-0.05727 0.11866,-0.15957 0.15959,-0.30691h0.19642v2.11764h-0.19642c-0.04093,-0.14322 -0.09413,-0.24348 -0.15959,-0.30077c-0.06547,-0.0614 -0.15959,-0.0921 -0.28236,-0.0921zM309.71016,180.68747v2.86035c0,0.12685 0.02863,0.22302 0.0859,0.28849c0.0614,0.06547 0.16575,0.11866 0.31304,0.15959v0.19642h-2.63323v-0.19642c0.14731,-0.04093 0.25166,-0.09413 0.31304,-0.15959c0.0614,-0.06547 0.0921,-0.16163 0.0921,-0.28849v-2.86035l-2.7069,-3.81175c-0.23325,-0.32737 -0.41739,-0.54629 -0.55242,-0.65678c-0.13095,-0.11457 -0.28849,-0.18414 -0.47264,-0.20869v-0.19642h3.30843v0.19642c-0.27417,0.045 -0.41125,0.17185 -0.41125,0.38056c0,0.07365 0.08389,0.23529 0.25166,0.48491l1.50997,2.24654l1.55294,-2.24654c0.16777,-0.24143 0.25166,-0.40512 0.25166,-0.49105c0,-0.09411 -0.03683,-0.17391 -0.11049,-0.23938c-0.07365,-0.06957 -0.17391,-0.11458 -0.30076,-0.13504v-0.19642h3.2409v0.19642c-0.18414,0.02453 -0.34373,0.0941 -0.47877,0.20869c-0.13094,0.11049 -0.31304,0.32941 -0.54629,0.65678z"/></g></g></svg>