<svg version="1.1" xmlns="http://www.w3.org/2000/svg" xmlns:xlink="http://www.w3.org/1999/xlink" width="8.40005" height="8.40008" viewBox="0,0,8.40005,8.40008"><g transform="translate(-260.28316,-170.60452)"><g data-paper-data="{&quot;isPaintingLayer&quot;:true}" fill="#000000" fill-rule="evenodd" stroke="#000000" stroke-width="0" stroke-linecap="round" stroke-linejoin="miter" stroke-miterlimit="10" stroke-dasharray="" stroke-dashoffset="0" style="mix-blend-mode: normal"><path d="M268.48318,175.40455h-3.2c-0.02667,-0.00034 -0.05326,0.00302 -0.079,0.01c-0.059,0.017 -0.097,0.056 -0.112,0.116c-0.00612,0.02419 -0.00914,0.04905 -0.009,0.074v3.2c0,0.106 -0.042,0.17 -0.126,0.192c-0.02423,0.00578 -0.04909,0.00847 -0.074,0.008h-0.8c-0.02667,0.00034 -0.05326,-0.00302 -0.079,-0.01c-0.059,-0.017 -0.097,-0.056 -0.112,-0.116c-0.00612,-0.02419 -0.00914,-0.04905 -0.009,-0.074v-3.2c0.00034,-0.02667 -0.00302,-0.05326 -0.01,-0.079c-0.017,-0.059 -0.056,-0.097 -0.116,-0.112c-0.02419,-0.00612 -0.04905,-0.00914 -0.074,-0.009h-3.2c-0.02667,0.00034 -0.05326,-0.00302 -0.079,-0.01c-0.059,-0.017 -0.097,-0.056 -0.112,-0.116c-0.00612,-0.02419 -0.00914,-0.04905 -0.009,-0.074v-0.8c-0.00034,-0.02667 0.00302,-0.05326 0.01,-0.079c0.017,-0.059 0.056,-0.097 0.116,-0.112c0.02419,-0.00612 0.04905,-0.00914 0.074,-0.009h3.2c0.02667,0.00034 0.05326,-0.00302 0.079,-0.01c0.081,-0.023 0.121,-0.086 0.121,-0.19v-3.2c-0.00034,-0.02667 0.00302,-0.05326 0.01,-0.079c0.017,-0.059 0.056,-0.097 0.116,-0.112c0.02419,-0.00612 0.04905,-0.00914 0.074,-0.009h0.8c0.02667,-0.00034 0.05326,0.00302 0.079,0.01c0.081,0.023 0.121,0.086 0.121,0.19v3.2c-0.00034,0.02667 0.00302,0.05326 0.01,0.079c0.023,0.081 0.086,0.121 0.19,0.121h3.2c0.02667,-0.00034 0.05326,0.00302 0.079,0.01c0.081,0.023 0.121,0.086 0.121,0.19v0.8c0.00034,0.02667 -0.00302,0.05326 -0.01,0.079c-0.023,0.081 -0.086,0.121 -0.19,0.121z"/></g></g></svg>