<svg version="1.1" xmlns="http://www.w3.org/2000/svg" xmlns:xlink="http://www.w3.org/1999/xlink" width="178.89804" height="27.11675" viewBox="0,0,178.89804,27.11675"><g transform="translate(-150.54331,-166.44166)"><g stroke-miterlimit="10"><path d="M151.21193,180.23447l11.59659,-13.2928h154.90881l11.07073,12.83554l-10.89246,13.28121h-155.09604z" fill="#ff2a00" stroke="#80f7ff" stroke-width="1"/><path d="M179.04484,183.87435c0,0.15577 -0.08901,0.22253 -0.22253,0.22253h-1.55773c-0.15577,0 -0.22253,0.08901 -0.22253,0.22253v2.78166c0,0.15577 -0.08901,0.22253 -0.22253,0.22253h-1.55773c-0.15577,0 -0.22253,-0.06676 -0.22253,-0.22253v-2.78166c0,-0.13352 -0.08901,-0.22253 -0.22253,-0.22253h-5.56332c-0.13352,0 -0.20028,-0.04451 -0.20028,-0.17803v-0.04451l0.02225,-1.55773l5.89712,-8.92356l0.17803,-0.08901h1.66899c0.13352,0 0.22253,0.08901 0.22253,0.22253v8.56751c0,0.15577 0.06676,0.22253 0.22253,0.22253h1.55773c0.13352,0 0.22253,0.08901 0.22253,0.22253zM175.03925,182.09413v-5.05149c0,-0.15577 -0.06676,-0.24478 -0.20028,-0.24478c-0.11127,0 -0.17802,0.0445 -0.20028,0.11127l-3.36024,5.05149c-0.0445,0.08901 -0.06676,0.13352 -0.06676,0.17803c0,0.13352 0.06676,0.17803 0.24479,0.17803h3.36024c0.13352,0 0.22253,-0.06676 0.22253,-0.22253z" fill="#000000" stroke="none" stroke-width="0.25147"/></g></g></svg>