<svg version="1.1" xmlns="http://www.w3.org/2000/svg" xmlns:xlink="http://www.w3.org/1999/xlink" width="7.80004" height="12.80002" viewBox="0,0,7.80004,12.80002"><g transform="translate(-305.40852,-167.42472)"><g data-paper-data="{&quot;isPaintingLayer&quot;:true}" fill="#000000" fill-rule="evenodd" stroke="#000000" stroke-width="0" stroke-linecap="round" stroke-linejoin="miter" stroke-miterlimit="10" stroke-dasharray="" stroke-dashoffset="0" style="mix-blend-mode: normal"><path d="M309.60853,180.22475h-0.6c-0.547,0 -1.04,-0.08 -1.48,-0.24c-0.44,-0.16 -0.817,-0.39 -1.13,-0.69c-0.313,-0.3 -0.557,-0.66 -0.73,-1.08c-0.1325,-0.325 -0.21477,-0.66825 -0.244,-1.018c-0.01086,-0.1237 -0.0162,-0.24782 -0.016,-0.372v-9.2c0,-0.106 0.042,-0.17 0.126,-0.191c0.02418,-0.00611 0.04905,-0.00914 0.074,-0.009h1.4c0.02667,-0.00034 0.05326,0.00302 0.079,0.01c0.059,0.017 0.097,0.056 0.112,0.116c0.00612,0.02418 0.00914,0.04905 0.009,0.074v9.2c-0.00282,0.25386 0.04724,0.50554 0.147,0.739c0.08914,0.20222 0.21569,0.38577 0.373,0.541c0.33058,0.33686 0.78406,0.52461 1.256,0.52c0.008,0.00005 0.016,0.00005 0.024,0h0.6c0.25387,0.00282 0.50554,-0.04724 0.739,-0.147c0.20222,-0.08914 0.38578,-0.21569 0.541,-0.373c0.347,-0.347 0.52,-0.773 0.52,-1.28v-9.2c0,-0.106 0.042,-0.17 0.126,-0.191c0.02418,-0.00611 0.04905,-0.00914 0.074,-0.009h1.4c0.02667,-0.00034 0.05326,0.00302 0.079,0.01c0.081,0.023 0.121,0.086 0.121,0.19v9.2c0.00133,0.29541 -0.03121,0.59 -0.097,0.878c-0.04033,0.17481 -0.09484,0.34605 -0.163,0.512c-0.173,0.42 -0.417,0.78 -0.73,1.08c-0.28109,0.2671 -0.60932,0.4797 -0.968,0.627c-0.05349,0.02228 -0.10751,0.04329 -0.162,0.063c-0.44,0.16 -0.933,0.24 -1.48,0.24z"/></g></g></svg>