<svg version="1.1" xmlns="http://www.w3.org/2000/svg" xmlns:xlink="http://www.w3.org/1999/xlink" width="6.94" height="12.80002" viewBox="0,0,6.94,12.80002"><g transform="translate(-196.84852,-167.42472)"><g data-paper-data="{&quot;isPaintingLayer&quot;:true}" fill="#000000" fill-rule="evenodd" stroke="#000000" stroke-width="0" stroke-linecap="round" stroke-linejoin="miter" stroke-miterlimit="10" stroke-dasharray="" stroke-dashoffset="0" style="mix-blend-mode: normal"><path d="M196.98853,178.00475l1.26,-0.62c0.01335,-0.00642 0.02747,-0.01112 0.042,-0.014c0.013,-0.003 0.027,-0.005 0.042,-0.006c0.00534,-0.00012 0.01066,-0.00012 0.016,0c0.04,0 0.093,0.04 0.16,0.12c0.0582,0.07777 0.11653,0.15544 0.175,0.233c0.05486,0.07244 0.10985,0.14477 0.165,0.217c0.0639,0.08424 0.13339,0.16409 0.208,0.239c0.04215,0.0423 0.0862,0.08268 0.132,0.121c0.12,0.1 0.26,0.18 0.42,0.24c0.07845,0.02897 0.15949,0.0504 0.242,0.064c0.078,0.013 0.16,0.021 0.248,0.024c0.02999,0.00123 0.05999,0.00189 0.09,0.002c0.507,0 0.933,-0.177 1.28,-0.53c0.347,-0.353 0.52,-0.777 0.52,-1.27v-9.2c0,-0.106 0.042,-0.17 0.126,-0.191c0.02418,-0.00611 0.04905,-0.00914 0.074,-0.009h1.4c0.02667,-0.00034 0.05326,0.00302 0.079,0.01c0.081,0.023 0.121,0.086 0.121,0.19v9c0.00072,0.85549 -0.30873,1.68223 -0.871,2.327c-0.06081,0.07291 -0.12385,0.14395 -0.189,0.213c-0.32,0.347 -0.687,0.61 -1.1,0.79c-0.39512,0.1704 -0.81977,0.26179 -1.25,0.269c-0.03,0.00069 -0.06,0.00102 -0.09,0.001c-0.37567,-0.00244 -0.7486,-0.06421 -1.105,-0.183c-0.293,-0.096 -0.592,-0.228 -0.895,-0.397c-0.15501,-0.08576 -0.30586,-0.17887 -0.452,-0.279c-0.261,-0.179 -0.47,-0.363 -0.628,-0.551c-0.173,-0.206 -0.284,-0.38 -0.332,-0.521c-0.01746,-0.04779 -0.02692,-0.09813 -0.028,-0.149c0,-0.037 0.041,-0.08 0.122,-0.129c0.00596,-0.00374 0.01196,-0.00741 0.018,-0.011z"/></g></g></svg>