<svg version="1.1" xmlns="http://www.w3.org/2000/svg" xmlns:xlink="http://www.w3.org/1999/xlink" width="5.10002" height="10.98002" viewBox="0,0,5.10002,10.98002"><g transform="translate(-287.34762,-169.15474)"><g data-paper-data="{&quot;isPaintingLayer&quot;:true}" fill="#000000" fill-rule="evenodd" stroke="#000000" stroke-width="0" stroke-linecap="round" stroke-linejoin="miter" stroke-miterlimit="10" stroke-dasharray="" stroke-dashoffset="0" style="mix-blend-mode: normal"><path d="M288.84762,176.75476v-4c0.00034,-0.02667 -0.00302,-0.05326 -0.01,-0.079c-0.023,-0.081 -0.086,-0.121 -0.19,-0.121h-1.1c-0.02667,0.00034 -0.05326,-0.00302 -0.079,-0.01c-0.081,-0.023 -0.121,-0.086 -0.121,-0.19l0.04,-0.7l2.3,-2.44l0.14,-0.06h0.62c0.02667,-0.00034 0.05326,0.00302 0.079,0.01c0.059,0.017 0.097,0.056 0.113,0.116c0.00578,0.02423 0.00847,0.0491 0.008,0.074v1.4c-0.00034,0.02667 0.00302,0.05326 0.01,0.079c0.017,0.059 0.056,0.097 0.116,0.113c0.02423,0.00578 0.0491,0.00847 0.074,0.008h1.4c0.02667,-0.00034 0.05326,0.00303 0.079,0.01c0.081,0.023 0.121,0.086 0.121,0.19v1.2c0.00034,0.02667 -0.00302,0.05326 -0.01,0.079c-0.023,0.081 -0.086,0.121 -0.19,0.121h-1.4c-0.02667,-0.00034 -0.05326,0.00303 -0.079,0.01c-0.081,0.023 -0.121,0.086 -0.121,0.19v4c0.00172,0.28172 0.07318,0.55863 0.208,0.806c0.06655,0.12473 0.1442,0.24321 0.232,0.354c0.093,0.107 0.24,0.203 0.44,0.29c0.2,0.087 0.453,0.197 0.76,0.33c0.107,0.04 0.16,0.107 0.16,0.2v1.2c0.00018,0.01941 -0.00116,0.0388 -0.004,0.058c-0.008,0.049 -0.027,0.083 -0.056,0.102c-0.00629,0.00404 -0.013,0.0074 -0.02,0.01c-0.053,0.02 -0.153,0.03 -0.3,0.03c-0.413,0 -0.813,-0.083 -1.2,-0.25c-0.387,-0.167 -0.73,-0.397 -1.03,-0.69c-0.3,-0.293 -0.54,-0.647 -0.72,-1.06c-0.13475,-0.3135 -0.21945,-0.64622 -0.251,-0.986c-0.01283,-0.13094 -0.01917,-0.26244 -0.019,-0.394z"/></g></g></svg>