<svg version="1.1" xmlns="http://www.w3.org/2000/svg" xmlns:xlink="http://www.w3.org/1999/xlink" width="7.20005" height="9.00007" viewBox="0,0,7.20005,9.00007"><g transform="translate(-294.2076,-170.95474)"><g data-paper-data="{&quot;isPaintingLayer&quot;:true}" fill="#000000" fill-rule="evenodd" stroke="#000000" stroke-width="0" stroke-linecap="round" stroke-linejoin="miter" stroke-miterlimit="10" stroke-dasharray="" stroke-dashoffset="0" style="mix-blend-mode: normal"><path d="M301.20762,179.95476h-1.2c-0.02667,0.00034 -0.05325,-0.00302 -0.079,-0.01c-0.059,-0.017 -0.097,-0.055 -0.112,-0.116c-0.00612,-0.02418 -0.00914,-0.04905 -0.009,-0.074v-0.24c0.00016,-0.02509 -0.00151,-0.05015 -0.005,-0.075c-0.009,-0.06 -0.029,-0.101 -0.062,-0.124c-0.02153,-0.01447 -0.04707,-0.02181 -0.073,-0.021c-0.023,0.00043 -0.04585,0.00378 -0.068,0.01c-0.055,0.014 -0.119,0.044 -0.192,0.09c-0.04329,0.02696 -0.08696,0.0533 -0.131,0.079c-0.079,0.047 -0.169,0.097 -0.269,0.151c-0.08243,0.04428 -0.16722,0.08401 -0.254,0.119c-0.085,0.035 -0.176,0.067 -0.274,0.098c-0.01398,0.0044 -0.02798,0.00874 -0.042,0.013c-0.11284,0.03385 -0.22821,0.05859 -0.345,0.074c-0.132,0.017 -0.274,0.026 -0.425,0.026c-0.28799,0.00141 -0.57531,-0.02809 -0.857,-0.088c-0.1818,-0.03934 -0.36006,-0.09352 -0.533,-0.162c-0.40035,-0.15555 -0.76603,-0.38869 -1.076,-0.686c-0.00468,-0.00465 -0.00935,-0.00932 -0.014,-0.014c-0.307,-0.3 -0.547,-0.657 -0.72,-1.07c-0.1269,-0.30705 -0.20745,-0.63126 -0.239,-0.962c-0.01407,-0.13889 -0.02108,-0.2784 -0.021,-0.418v-5.4c-0.00034,-0.02667 0.00302,-0.05326 0.01,-0.079c0.017,-0.059 0.056,-0.097 0.116,-0.112c0.02418,-0.00611 0.04905,-0.00914 0.074,-0.009h1.4c0.02667,-0.00034 0.05326,0.00303 0.079,0.01c0.081,0.023 0.121,0.086 0.121,0.19v5.4c0,0.24 0.047,0.47 0.14,0.69c0.093,0.22 0.22,0.413 0.38,0.58c0.16,0.167 0.35,0.297 0.57,0.39c0.22,0.093 0.457,0.14 0.71,0.14c0.20974,0.00144 0.41814,-0.03341 0.616,-0.103c0.03169,-0.01141 0.06304,-0.02375 0.094,-0.037c0.22,-0.093 0.41,-0.223 0.57,-0.39c0.16,-0.167 0.287,-0.36 0.38,-0.58c0.093,-0.22 0.14,-0.45 0.14,-0.69v-5.4c-0.00034,-0.02667 0.00302,-0.05326 0.01,-0.079c0.023,-0.081 0.086,-0.121 0.19,-0.121h1.4c0.02667,-0.00034 0.05326,0.00303 0.079,0.01c0.081,0.023 0.121,0.086 0.121,0.19v8.6c0.00034,0.02667 -0.00302,0.05326 -0.01,0.079c-0.023,0.081 -0.086,0.121 -0.19,0.121z"/></g></g></svg>