<svg version="1.1" xmlns="http://www.w3.org/2000/svg" xmlns:xlink="http://www.w3.org/1999/xlink" width="7.5801" height="12.60008" viewBox="0,0,7.5801,12.60008"><g transform="translate(-208.70762,-167.35474)"><g data-paper-data="{&quot;isPaintingLayer&quot;:true}" fill="#000000" fill-rule="evenodd" stroke="#000000" stroke-width="0" stroke-linecap="round" stroke-linejoin="miter" stroke-miterlimit="10" stroke-dasharray="" stroke-dashoffset="0" style="mix-blend-mode: normal"><path d="M216.06762,179.95476h-1.76l-0.18,-0.1l-2.54,-4.16c-0.0097,-0.01952 -0.02143,-0.03795 -0.035,-0.055c-0.034,-0.043 -0.076,-0.065 -0.125,-0.065c-0.067,0 -0.12,0.027 -0.16,0.08l-0.76,0.78v3.32c0.00034,0.02667 -0.00302,0.05326 -0.01,0.079c-0.017,0.059 -0.055,0.097 -0.116,0.113c-0.02423,0.00578 -0.0491,0.00847 -0.074,0.008h-1.4c-0.02667,0.00034 -0.05326,-0.00302 -0.079,-0.01c-0.059,-0.017 -0.097,-0.055 -0.112,-0.116c-0.00611,-0.02418 -0.00914,-0.04905 -0.009,-0.074v-12.2c0,-0.106 0.042,-0.17 0.126,-0.191c0.02418,-0.00611 0.04905,-0.00914 0.074,-0.009h1.4c0.02667,-0.00034 0.05326,0.00302 0.079,0.01c0.059,0.017 0.097,0.056 0.113,0.116c0.00578,0.02423 0.00847,0.04909 0.008,0.074v6.24c-0.00021,0.02754 0.00247,0.05502 0.008,0.082c0.017,0.08 0.063,0.125 0.137,0.136c0.01161,0.00147 0.0233,0.00215 0.035,0.002c0.0289,0.00044 0.05755,-0.00536 0.084,-0.017c0.027,-0.012 0.051,-0.032 0.072,-0.058c0.00135,-0.00165 0.00269,-0.00331 0.004,-0.005l2.66,-2.92l0.14,-0.06h1.7c0.02646,-0.00035 0.0529,0.00166 0.079,0.006c0.094,0.017 0.141,0.069 0.141,0.154c-0.00017,0.05426 -0.01887,0.10683 -0.053,0.149c-0.00834,0.01089 -0.01736,0.02124 -0.027,0.031l-2.6,2.64c-0.00638,0.00963 -0.01272,0.0193 -0.019,0.029c-0.033,0.05 -0.053,0.085 -0.059,0.102c-0.00113,0.00288 -0.0018,0.00591 -0.002,0.009c0,0.013 0.013,0.046 0.039,0.098c0.00034,0.00066 0.00066,0.00133 0.001,0.002l3.4,5.48c0.00833,0.01689 0.01568,0.03426 0.022,0.052c0.007,0.017 0.011,0.033 0.014,0.049c0.00253,0.01285 0.00387,0.0259 0.004,0.039c0.00091,0.02625 -0.00458,0.05234 -0.016,0.076c-0.024,0.045 -0.072,0.072 -0.144,0.081c-0.01992,0.00224 -0.03995,0.00324 -0.06,0.003z"/></g></g></svg>