<svg version="1.1" xmlns="http://www.w3.org/2000/svg" xmlns:xlink="http://www.w3.org/1999/xlink" width="123.01458" height="69.56646" viewBox="0,0,123.01458,69.56646"><g transform="translate(-178.49273,-145.21677)"><g stroke-miterlimit="10"><path d="M179.49274,180c0,-18.65796 27.09004,-33.78323 60.50729,-33.78323c33.41725,0 60.50729,15.12527 60.50729,33.78323c0,18.65796 -27.09003,33.78323 -60.50729,33.78323c-33.41725,0 -60.50728,-15.12527 -60.50728,-33.78323z" fill="#000000" fill-rule="nonzero" stroke="#80f7ff" stroke-width="2"/><path d="M240,158.55427c5.68776,0 11.14257,2.25945 15.16442,6.28131c4.02186,4.02186 6.28131,9.47666 6.28131,15.16442c0,11.84415 -9.60158,21.44573 -21.44573,21.44573c-11.84415,0 -21.44573,-9.60158 -21.44573,-21.44573c0,-11.84415 9.60158,-21.44573 21.44573,-21.44573zM240,162.84341c-9.47532,0 -17.15659,7.68127 -17.15659,17.15659c0,9.47532 7.68127,17.15659 17.15659,17.15659c9.47532,0 17.15659,-7.68127 17.15659,-17.15659c0,-9.47532 -7.68127,-17.15659 -17.15659,-17.15659zM247.58221,169.3849l3.03288,3.03288l-7.58233,7.58218l7.58233,7.58225l-3.03288,3.03288l-7.58225,-7.58233l-7.58218,7.58233l-3.03288,-3.03288l7.58217,-7.58225l-7.58217,-7.58218l3.03288,-3.03288l7.58218,7.58217z" fill="#ffffff" fill-rule="evenodd" stroke="none" stroke-width="1"/></g></g></svg>