<svg version="1.1" xmlns="http://www.w3.org/2000/svg" xmlns:xlink="http://www.w3.org/1999/xlink" width="205.04951" height="217.77688" viewBox="0,0,205.04951,217.77688"><defs><radialGradient cx="242.16949" cy="183.02424" r="34.52992" fx="242.16949" fy="183.02424" gradientUnits="userSpaceOnUse" id="color-1"><stop offset="0" stop-color="#ffffff"/><stop offset="1" stop-color="#50528e"/></radialGradient><linearGradient x1="242.10883" y1="121.13623" x2="242.07699" y2="128.94248" gradientTransform="translate(-135,-31.5)" gradientUnits="userSpaceOnUse" id="color-2"><stop offset="0" stop-color="#f9f9f9"/><stop offset="0.51765" stop-color="#ffffff"/><stop offset="0.71765" stop-color="#767676"/><stop offset="0.89706" stop-color="#ffffff"/><stop offset="1" stop-color="#ffffff"/></linearGradient></defs><g transform="translate(-116.31311,-24.38428)"><g data-paper-data="{&quot;isPaintingLayer&quot;:true}" fill-rule="nonzero" stroke-linecap="butt" stroke-linejoin="miter" stroke-miterlimit="10" stroke-dasharray="" stroke-dashoffset="0" style="mix-blend-mode: normal"><path d="M192.5463,183.02425c0,-27.40613 22.21706,-49.62319 49.62319,-49.62319c27.40613,0 49.62319,22.21706 49.62319,49.62319c0,27.40613 -22.21706,49.62319 -49.62319,49.62319c-27.40613,0 -49.62319,-22.21706 -49.62319,-49.62319z" fill="#5c3a6f" stroke="#d4d4d4" stroke-width="0"/><path d="M204.88097,183.02425c0,-20.59388 16.69464,-37.28852 37.28852,-37.28852c20.59388,0 37.28852,16.69464 37.28852,37.28852c0,20.59388 -16.69464,37.28852 -37.28852,37.28852c-20.59388,0 -37.28852,-16.69464 -37.28852,-37.28852z" fill="#763f93" stroke="#d4d4d4" stroke-width="0"/><path d="M207.63957,183.02425c0,-19.07035 15.45957,-34.52992 34.52992,-34.52992c19.07035,0 34.52992,15.45957 34.52992,34.52992c0,19.07035 -15.45957,34.52992 -34.52992,34.52992c-19.07035,0 -34.52992,-15.45957 -34.52992,-34.52992z" fill="url(#color-1)" stroke="#d4d4d4" stroke-width="0"/><path d="M237.3538,183.02425c0,-19.07035 2.15606,-34.52992 4.81569,-34.52992c2.65963,0 4.81569,15.45957 4.81569,34.52992c0,19.07035 -2.15606,34.52992 -4.81569,34.52992c-2.65963,0 -4.81569,-15.45957 -4.81569,-34.52992z" fill="none" stroke="#e8dfc0" stroke-width="0.59447"/><path d="M242.16949,178.20856c19.07035,0 34.52992,2.15606 34.52992,4.81569c0,2.65963 -15.45957,4.81569 -34.52992,4.81569c-19.07035,0 -34.52992,-2.15606 -34.52992,-4.81569c0,-2.65963 15.45957,-4.81569 34.52992,-4.81569z" fill="none" stroke="#e8dfc0" stroke-width="0.59447"/><path d="M238.76428,179.61903c13.48477,-13.48477 25.9409,-22.89178 27.82155,-21.01113c1.88064,1.88064 -7.52636,14.33678 -21.01113,27.82155c-13.48477,13.48477 -25.9409,22.89178 -27.82155,21.01113c-1.88064,-1.88064 7.52636,-14.33678 21.01113,-27.82155z" fill="none" stroke="#e8dfc0" stroke-width="0.59447"/><path d="M245.5747,179.61903c13.48477,13.48477 22.89178,25.9409 21.01113,27.82155c-1.88064,1.88064 -14.33678,-7.52636 -27.82155,-21.01113c-13.48477,-13.48477 -22.89178,-25.9409 -21.01113,-27.82155c1.88064,-1.88064 14.33678,7.52636 27.82155,21.01113z" fill="none" stroke="#e8dfc0" stroke-width="0.59447"/><path d="M240.69317,176.73223c17.6187,-7.29791 32.72657,-11.22209 33.74437,-8.76491c1.0178,2.45718 -12.4399,10.36524 -30.0586,17.66315c-17.6187,7.29791 -32.72657,11.22209 -33.74437,8.76491c-1.0178,-2.45718 12.4399,-10.36524 30.0586,-17.66315z" fill="none" stroke="#e8dfc0" stroke-width="0.59447"/><path d="M246.98518,179.33846c7.29791,17.6187 11.22209,32.72657 8.76491,33.74437c-2.45718,1.0178 -10.36524,-12.4399 -17.66315,-30.0586c-7.29791,-17.6187 -11.22209,-32.72657 -8.76491,-33.74437c2.45718,-1.0178 10.36524,12.4399 17.66315,30.0586z" fill="none" stroke="#e8dfc0" stroke-width="0.59447"/><path d="M244.37895,176.73223c17.6187,7.29791 31.0764,15.20597 30.0586,17.66315c-1.0178,2.45718 -16.12567,-1.467 -33.74437,-8.76491c-17.6187,-7.29791 -31.0764,-15.20597 -30.0586,-17.66315c1.0178,-2.45718 16.12567,1.467 33.74437,8.76491z" fill="none" stroke="#e8dfc0" stroke-width="0.59447"/><path d="M246.98518,183.02424c-7.29791,17.6187 -15.20597,31.0764 -17.66315,30.0586c-2.45718,-1.0178 1.467,-16.12567 8.76491,-33.74437c7.29791,-17.6187 15.20597,-31.0764 17.66315,-30.0586c2.45718,1.0178 -1.467,16.12567 -8.76491,33.74437z" fill="none" stroke="#e8dfc0" stroke-width="0.59447"/><path d="M243.46386,169.61939h-0.69594c0.17093,-1.55062 0.54333,-2.88757 1.11718,-4.01086c0.57385,-1.12329 1.69713,-2.57012 3.36985,-4.34051c1.67271,-1.7826 2.77768,-3.21723 3.31491,-4.30389c0.37849,-0.76921 0.56774,-1.56283 0.56774,-2.38087c0,-0.96456 -0.34187,-1.7765 -1.0256,-2.43582c-0.68374,-0.67152 -1.56283,-1.00728 -2.63728,-1.00728c-1.03781,0 -1.88028,0.21977 -2.52739,0.65931c-0.36629,0.24419 -0.54943,0.54333 -0.54943,0.89741c0,0.24419 0.09768,0.57996 0.29303,1.00729c0.20756,0.42733 0.31134,0.78141 0.31134,1.06223c0,0.41513 -0.14651,0.7631 -0.43954,1.04392c-0.29303,0.28083 -0.65322,0.42124 -1.08055,0.42124c-0.42733,0 -0.79362,-0.15262 -1.09886,-0.45786c-0.29303,-0.30524 -0.43955,-0.70816 -0.43955,-1.20876c0,-1.07444 0.51891,-2.0512 1.55673,-2.93029c1.05002,-0.87909 2.47854,-1.31864 4.28557,-1.31864c1.88027,0 3.39426,0.53112 4.54197,1.59335c1.15991,1.05003 1.73987,2.25267 1.73987,3.60794c0,1.08665 -0.26861,2.0329 -0.80584,2.83873c-0.70816,1.05003 -2.05121,2.25878 -4.02916,3.62625c-1.97796,1.35527 -3.33933,2.55181 -4.08412,3.58962c-0.74479,1.03782 -1.30643,2.38698 -1.68493,4.04749zM242.365,172.568c0.51281,0 0.95235,0.18315 1.31864,0.54944c0.36629,0.35407 0.54943,0.79362 0.54943,1.31864c0,0.5128 -0.18314,0.94624 -0.54943,1.30032c-0.36629,0.36629 -0.80583,0.54943 -1.31864,0.54943c-0.5128,0 -0.95234,-0.18314 -1.31863,-0.54943c-0.36629,-0.35408 -0.54944,-0.78752 -0.54944,-1.30032c0,-0.52502 0.17704,-0.96457 0.53112,-1.31864c0.36629,-0.36629 0.81194,-0.54944 1.33695,-0.54944z" fill="#008000" stroke="none" stroke-width="2.65804"/><path d="M246.04206,196.42909h0.69594c-0.17093,1.55062 -0.54332,2.88757 -1.11717,4.01086c-0.57386,1.12328 -1.69715,2.57012 -3.36986,4.34051c-1.67271,1.7826 -2.77768,3.21723 -3.3149,4.30389c-0.3785,0.7692 -0.56775,1.56282 -0.56775,2.38087c0,0.96455 0.34187,1.77649 1.02561,2.43581c0.68373,0.67153 1.56282,1.00729 2.63727,1.00729c1.03782,0 1.88028,-0.21977 2.52739,-0.65932c0.36629,-0.24419 0.54943,-0.54333 0.54943,-0.8974c0,-0.24419 -0.09768,-0.57996 -0.29303,-1.00729c-0.20756,-0.42733 -0.31134,-0.78141 -0.31134,-1.06224c0,-0.41512 0.14651,-0.76309 0.43954,-1.04392c0.29303,-0.28082 0.65322,-0.42123 1.08055,-0.42123c0.42734,0 0.79363,0.15262 1.09887,0.45786c0.29303,0.30524 0.43954,0.70816 0.43954,1.20876c0,1.07444 -0.51891,2.0512 -1.55672,2.93029c-1.05003,0.87909 -2.47856,1.31864 -4.28557,1.31864c-1.88028,0 -3.39427,-0.53112 -4.54197,-1.59335c-1.15991,-1.05003 -1.73987,-2.25267 -1.73987,-3.60794c0,-1.08665 0.26861,-2.0329 0.80583,-2.83873c0.70816,-1.05003 2.05122,-2.25878 4.02917,-3.62626c1.97795,-1.35526 3.33932,-2.5518 4.08411,-3.58961c0.74479,-1.03782 1.30643,-2.38698 1.68493,-4.04749zM247.14092,193.48048c-0.5128,0 -0.95235,-0.18315 -1.31864,-0.54944c-0.36629,-0.35407 -0.54943,-0.79362 -0.54943,-1.31864c0,-0.5128 0.18314,-0.94624 0.54943,-1.30032c0.36629,-0.36629 0.80584,-0.54943 1.31864,-0.54943c0.51281,0 0.95235,0.18314 1.31864,0.54943c0.36629,0.35408 0.54943,0.78752 0.54943,1.30032c0,0.52502 -0.17704,0.96457 -0.53112,1.31864c-0.36629,0.36629 -0.81194,0.54944 -1.33695,0.54944z" fill="#008000" stroke="none" stroke-width="2.65804"/><path d="M255.81141,180.91673v-0.69595c1.55063,0.17093 2.88758,0.54333 4.01086,1.11719c1.12328,0.57385 2.57012,1.69713 4.34051,3.36985c1.78261,1.67271 3.21724,2.77768 4.30389,3.31491c0.7692,0.37849 1.56282,0.56773 2.38087,0.56773c0.96455,0 1.77649,-0.34187 2.43581,-1.0256c0.67153,-0.68373 1.0073,-1.56282 1.0073,-2.63727c0,-1.03782 -0.21977,-1.88028 -0.65932,-2.52739c-0.24419,-0.36629 -0.54333,-0.54944 -0.89741,-0.54944c-0.24419,0 -0.57996,0.09768 -1.00729,0.29304c-0.42734,0.20756 -0.78142,0.31134 -1.06224,0.31134c-0.41513,0 -0.7631,-0.14652 -1.04392,-0.43955c-0.28082,-0.29303 -0.42123,-0.65321 -0.42123,-1.08054c0,-0.42733 0.15262,-0.79362 0.45786,-1.09887c0.30524,-0.29303 0.70816,-0.43954 1.20875,-0.43954c1.07445,0 2.05122,0.51891 2.93031,1.55672c0.87909,1.05003 1.31863,2.47855 1.31863,4.28557c0,1.88028 -0.53112,3.39427 -1.59335,4.54198c-1.05003,1.15991 -2.25267,1.73986 -3.60794,1.73986c-1.08665,0 -2.0329,-0.26861 -2.83873,-0.80583c-1.05003,-0.70816 -2.25878,-2.05122 -3.62625,-4.02917c-1.35527,-1.97795 -2.55181,-3.33932 -3.58962,-4.08411c-1.03782,-0.74479 -2.38698,-1.30643 -4.04749,-1.68493zM252.86279,179.81787c0,0.5128 -0.18314,0.95234 -0.54942,1.31863c-0.35408,0.36629 -0.79363,0.54944 -1.31864,0.54944c-0.51281,0 -0.94625,-0.18315 -1.30032,-0.54944c-0.36629,-0.36629 -0.54943,-0.80583 -0.54943,-1.31863c0,-0.51281 0.18314,-0.95235 0.54943,-1.31864c0.35407,-0.36629 0.78751,-0.54943 1.30032,-0.54943c0.52501,0 0.96456,0.17704 1.31864,0.53112c0.36628,0.36629 0.54942,0.81194 0.54942,1.33695z" fill="#008000" stroke="none" stroke-width="2.65804"/><path d="M229.00171,183.49493v0.69595c-1.55062,-0.17094 -2.88757,-0.54333 -4.01085,-1.11718c-1.12328,-0.57385 -2.57012,-1.69714 -4.34051,-3.36985c-1.7826,-1.67272 -3.21723,-2.77769 -4.30389,-3.31491c-0.7692,-0.3785 -1.56283,-0.56775 -2.38087,-0.56775c-0.96456,0 -1.7765,0.34187 -2.43582,1.02562c-0.67153,0.68373 -1.00729,1.56282 -1.00729,2.63726c0,1.03781 0.21977,1.88028 0.65932,2.52739c0.24419,0.36629 0.54333,0.54944 0.89741,0.54944c0.24419,0 0.57996,-0.09768 1.00729,-0.29304c0.42734,-0.20756 0.78142,-0.31134 1.06224,-0.31134c0.41513,0 0.7631,0.14652 1.04392,0.43955c0.28082,0.29303 0.42123,0.65321 0.42123,1.08055c0,0.42733 -0.15262,0.79362 -0.45786,1.09886c-0.30524,0.29303 -0.70816,0.43955 -1.20875,0.43955c-1.07444,0 -2.05121,-0.51891 -2.9303,-1.55673c-0.87909,-1.05003 -1.31864,-2.47855 -1.31864,-4.28557c0,-1.88027 0.53112,-3.39426 1.59335,-4.54197c1.05003,-1.15991 2.25267,-1.73987 3.60794,-1.73987c1.08665,0 2.0329,0.26861 2.83873,0.80583c1.05003,0.70816 2.25878,2.05122 3.62625,4.02917c1.35527,1.97796 2.55181,3.33933 3.58962,4.08411c1.03782,0.74479 2.38698,1.30643 4.04748,1.68493zM231.95033,184.59379c0,-0.5128 0.18314,-0.95234 0.54943,-1.31863c0.35408,-0.36629 0.79363,-0.54943 1.31864,-0.54943c0.5128,0 0.94625,0.18314 1.30033,0.54943c0.36629,0.36629 0.54943,0.80583 0.54943,1.31863c0,0.51281 -0.18314,0.95235 -0.54943,1.31864c-0.35408,0.36629 -0.78752,0.54943 -1.30033,0.54943c-0.52501,0 -0.96456,-0.17704 -1.31864,-0.53111c-0.36629,-0.36629 -0.54943,-0.81195 -0.54943,-1.33696z" fill="#008000" stroke="none" stroke-width="2.65804"/><path d="M269.45895,166.71345l-8.0162,4.41603c0.28491,2.40875 0.23742,4.34697 -0.14245,5.81466c-0.27627,1.03602 -0.8245,1.96412 -1.64468,2.7843c-0.96695,0.96695 -2.18427,1.6231 -3.65196,1.96844c-1.45907,0.35397 -2.86633,0.29354 -4.22178,-0.18131c-1.34683,-0.48347 -2.71955,-1.44179 -4.11817,-2.87494l-1.92959,1.10076l-0.85472,-0.85471l1.96844,-1.06192c-0.55254,-0.82881 -0.95831,-1.57993 -1.21732,-2.25334c-0.25037,-0.66478 -0.436,-1.48065 -0.55687,-2.4476l4.72684,-2.603l0.53096,0.53096c-0.64751,0.45758 -1.15689,0.87199 -1.52812,1.24322c-0.66478,0.66478 -1.07919,1.44179 -1.24323,2.33104c-0.1554,0.89789 -0.01726,1.78715 0.41441,2.66776l10.17888,-5.6722c-0.25037,-2.06341 -0.23743,-3.69082 0.0388,-4.88225c0.28491,-1.20005 0.84608,-2.2188 1.68353,-3.05625c1.29503,-1.29503 2.81021,-1.85189 4.54554,-1.67058c1.75259,0.1813 3.19007,0.83313 4.31242,1.95548c0.28491,0.28491 0.6432,0.695 1.07487,1.23028l1.30798,-0.71227l0.82881,0.82882l-1.46337,0.78997c0.42304,0.76837 0.70794,1.43315 0.85471,1.99432c0.1554,0.55255 0.259,1.26913 0.31081,2.14974l-3.97572,2.2663l-0.53096,-0.53096c0.43167,-0.36261 0.76838,-0.66478 1.01012,-0.90652c0.72521,-0.72521 1.20005,-1.53675 1.42452,-2.43464c0.12951,-0.52664 0.09066,-1.16984 -0.11655,-1.92959zM268.91504,165.70334c-0.32807,-0.44895 -0.60003,-0.78134 -0.81587,-0.99718c-0.74248,-0.74247 -1.66195,-1.10076 -2.7584,-1.07487c-1.08782,0.01727 -2.05045,0.44463 -2.8879,1.28208c-0.48347,0.48347 -0.82449,1.09214 -1.02306,1.82599c-0.18994,0.72521 -0.24174,1.79576 -0.15541,3.21165zM248.58317,178.13556c0.2331,0.28491 0.4144,0.49211 0.54391,0.62161c0.58708,0.58708 1.37273,1.04466 2.35694,1.37273c0.99285,0.33671 1.96844,0.37987 2.92675,0.1295c0.96695,-0.24174 1.78714,-0.69932 2.46055,-1.37273c0.56981,-0.56981 0.96696,-1.30365 1.19143,-2.20153c0.24173,-0.89789 0.30216,-2.16701 0.18129,-3.80738z" fill="#008000" stroke="none" stroke-width="2.65804"/><path d="M216.81512,201.24699l8.0162,-4.41603c-0.28491,-2.40875 -0.23742,-4.34697 0.14245,-5.81466c0.27627,-1.03602 0.8245,-1.96412 1.64468,-2.7843c0.96695,-0.96695 2.18427,-1.6231 3.65196,-1.96844c1.45906,-0.35397 2.86632,-0.29354 4.22178,0.18131c1.34683,0.48347 2.71955,1.44179 4.11817,2.87495l1.92959,-1.10077l0.85472,0.85472l-1.96844,1.06191c0.55254,0.82881 0.95831,1.57993 1.21732,2.25334c0.25037,0.66478 0.43599,1.48065 0.55686,2.4476l-4.72684,2.603l-0.53095,-0.53096c0.64751,-0.45757 1.15688,-0.87198 1.52812,-1.24323c0.66478,-0.66477 1.07919,-1.44179 1.24322,-2.33104c0.15541,-0.89789 0.01727,-1.78714 -0.4144,-2.66775l-10.17889,5.67221c0.25037,2.0634 0.23742,3.69081 -0.03885,4.88224c-0.28491,1.20005 -0.84608,2.2188 -1.68353,3.05625c-1.29502,1.29503 -2.8102,1.85189 -4.54553,1.67058c-1.7526,-0.1813 -3.19008,-0.83313 -4.31243,-1.95548c-0.2849,-0.28491 -0.64319,-0.695 -1.07487,-1.23028l-1.30797,0.71227l-0.82881,-0.82881l1.46338,-0.78997c-0.42304,-0.76838 -0.70795,-1.43316 -0.85472,-1.99434c-0.1554,-0.55254 -0.259,-1.26912 -0.3108,-2.14974l3.97572,-2.26629l0.53096,0.53096c-0.43167,0.36261 -0.76838,0.66479 -1.01012,0.90652c-0.72521,0.72521 -1.20006,1.53676 -1.42453,2.43464c-0.1295,0.52665 -0.09065,1.16984 0.11655,1.92959zM217.35903,202.25711c0.32807,0.44894 0.60003,0.78133 0.81586,0.99717c0.74248,0.74248 1.66195,1.10077 2.7584,1.07486c1.08782,-0.01727 2.05045,-0.44462 2.8879,-1.28207c0.48348,-0.48347 0.8245,-1.09213 1.02307,-1.82598c0.18994,-0.72522 0.24174,-1.79577 0.15541,-3.21166zM237.69091,189.82488c-0.23311,-0.28491 -0.41441,-0.49211 -0.54391,-0.62161c-0.58708,-0.58708 -1.37273,-1.04466 -2.35695,-1.37273c-0.99285,-0.33671 -1.96844,-0.37987 -2.92676,-0.1295c-0.96695,0.24174 -1.78713,0.69932 -2.46054,1.37273c-0.56981,0.56981 -0.96695,1.30365 -1.19142,2.20153c-0.24174,0.89789 -0.30217,2.16701 -0.1813,3.80738z" fill="#008000" stroke="none" stroke-width="2.65804"/><path d="M259.32335,208.06428l-4.41603,-8.0162c-2.40874,0.28491 -4.34696,0.23742 -5.81465,-0.14246c-1.03601,-0.27627 -1.96411,-0.82449 -2.7843,-1.64468c-0.96695,-0.96695 -1.6231,-2.18427 -1.96844,-3.65196c-0.35397,-1.45906 -0.29354,-2.86632 0.1813,-4.22178c0.48348,-1.34683 1.4418,-2.71955 2.87496,-4.11817l-1.10077,-1.92959l0.85472,-0.85472l1.06191,1.96844c0.82882,-0.55255 1.57993,-0.95832 2.25334,-1.21732c0.66478,-0.25037 1.48065,-0.43599 2.4476,-0.55686l2.60299,4.72683l-0.53096,0.53096c-0.45757,-0.64751 -0.87198,-1.15688 -1.24322,-1.52812c-0.66477,-0.66478 -1.44179,-1.07919 -2.33104,-1.24323c-0.89788,-0.1554 -1.78713,-0.01726 -2.66775,0.41441l5.6722,10.17889c2.06341,-0.25037 3.69082,-0.23744 4.88224,0.0388c1.20006,0.2849 2.21881,0.84608 3.05626,1.68353c1.29502,1.29503 1.85188,2.8102 1.67058,4.54553c-0.1813,1.7526 -0.83313,3.19008 -1.95549,4.31244c-0.28491,0.2849 -0.695,0.64319 -1.23027,1.07486l0.71226,1.30798l-0.82881,0.82881l-0.78997,-1.46337c-0.76838,0.42304 -1.43316,0.70794 -1.99433,0.85471c-0.55254,0.1554 -1.26912,0.259 -2.14974,0.3108l-2.26629,-3.97572l0.53096,-0.53096c0.36261,0.43167 0.66478,0.76838 0.90652,1.01012c0.72521,0.72522 1.53675,1.20006 2.43464,1.42453c0.52664,0.1295 1.16983,0.09065 1.92958,-0.11655zM260.33347,207.52036c0.44895,-0.32807 0.78134,-0.60003 0.99717,-0.81586c0.74248,-0.74248 1.10077,-1.66195 1.07487,-2.7584c-0.01727,-1.08782 -0.44462,-2.05045 -1.28207,-2.8879c-0.48348,-0.48348 -1.09214,-0.8245 -1.82599,-1.02307c-0.72521,-0.18994 -1.79576,-0.24174 -3.21165,-0.15541zM247.90125,187.18849c-0.2849,0.23311 -0.4921,0.41442 -0.6216,0.54392c-0.58708,0.58708 -1.04466,1.37273 -1.37273,2.35695c-0.33671,0.99285 -0.37987,1.96843 -0.1295,2.92675c0.24174,0.96695 0.69932,1.78714 1.37273,2.46055c0.56981,0.56981 1.30365,0.96694 2.20153,1.19141c0.89789,0.24175 2.16701,0.30218 3.80738,0.18131z" fill="#008000" stroke="none" stroke-width="2.65804"/><path d="M224.78981,155.42045l4.41603,8.0162c2.40875,-0.28491 4.34697,-0.23742 5.81466,0.14245c1.03602,0.27627 1.96412,0.8245 2.7843,1.64468c0.96695,0.96695 1.6231,2.18428 1.96844,3.65197c0.35397,1.45906 0.29353,2.86632 -0.18131,4.22178c-0.48347,1.34682 -1.44179,2.71954 -2.87495,4.11817l1.10077,1.92959l-0.85472,0.85471l-1.06192,-1.96844c-0.82881,0.55255 -1.57992,0.95832 -2.25334,1.21733c-0.66478,0.25037 -1.48064,0.43599 -2.44759,0.55686l-2.603,-4.72684l0.53096,-0.53096c0.45758,0.64751 0.87198,1.15689 1.24322,1.52813c0.66478,0.66478 1.44179,1.07919 2.33104,1.24322c0.89788,0.1554 1.78713,0.01727 2.66775,-0.4144l-5.67221,-10.17889c-2.06341,0.25037 -3.69082,0.23744 -4.88224,-0.0388c-1.20006,-0.28491 -2.21881,-0.84608 -3.05626,-1.68352c-1.29503,-1.29503 -1.85189,-2.81021 -1.67058,-4.54554c0.1813,-1.7526 0.83313,-3.19008 1.95548,-4.31243c0.28491,-0.2849 0.695,-0.64319 1.23027,-1.07487l-0.71227,-1.30797l0.82882,-0.82882l0.78997,1.46338c0.76838,-0.42304 1.43316,-0.70795 1.99434,-0.85472c0.55254,-0.1554 1.26912,-0.259 2.14974,-0.3108l2.26629,3.97572l-0.53096,0.53096c-0.36261,-0.43167 -0.66478,-0.76838 -0.90652,-1.01011c-0.72522,-0.72522 -1.53676,-1.20006 -2.43465,-1.42453c-0.52664,-0.12951 -1.16984,-0.09066 -1.92958,0.11655zM223.7797,155.96436c-0.44894,0.32807 -0.78133,0.60003 -0.99717,0.81586c-0.74248,0.74248 -1.10077,1.66195 -1.07487,2.75841c0.01726,1.08782 0.44462,2.05045 1.28207,2.8879c0.48347,0.48347 1.09213,0.8245 1.82598,1.02307c0.72521,0.18994 1.79577,0.24174 3.21166,0.1554zM236.21192,176.29624c0.2849,-0.23311 0.4921,-0.41442 0.6216,-0.54392c0.58708,-0.58708 1.04466,-1.37273 1.37273,-2.35695c0.33671,-0.99285 0.37987,-1.96844 0.1295,-2.92675c-0.24174,-0.96695 -0.69931,-1.78713 -1.37272,-2.46054c-0.56981,-0.56981 -1.30366,-0.96696 -2.20154,-1.19143c-0.89788,-0.24173 -2.16701,-0.30217 -3.80737,-0.1813z" fill="#008000" stroke="none" stroke-width="2.65804"/><path d="M202.40782,189.55978l-5.10859,-9.38436v8.51092c0,0.2099 0.0474,0.36902 0.14219,0.47735c0.09479,0.10833 0.26406,0.19635 0.50781,0.26406v0.325h-4.07265v-0.325c0.24375,-0.06771 0.41302,-0.15573 0.50781,-0.26406c0.09479,-0.10833 0.14219,-0.26745 0.14219,-0.47735v-11.7406c0,-0.20313 -0.0474,-0.35886 -0.14219,-0.46719c-0.09479,-0.10834 -0.26406,-0.19636 -0.50781,-0.26406v-0.32501h5.34218v0.32501c-0.31823,0.08125 -0.47734,0.26744 -0.47734,0.55859c0,0.13541 0.0474,0.29114 0.14219,0.46719l3.77812,6.96718l3.8289,-6.84531c0.16927,-0.31146 0.25391,-0.53828 0.25391,-0.68047c0,-0.27761 -0.16927,-0.43333 -0.50781,-0.46718v-0.32501h5.24062v0.32501c-0.24375,0.0677 -0.41302,0.15572 -0.50781,0.26406c-0.09479,0.10833 -0.14219,0.26406 -0.14219,0.46719v11.7406c0,0.2099 0.0474,0.36902 0.14219,0.47735c0.09479,0.10833 0.26406,0.19635 0.50781,0.26406v0.325h-4.32656v-0.325c0.23698,-0.06093 0.40286,-0.14557 0.49766,-0.25391c0.10156,-0.1151 0.15234,-0.2776 0.15234,-0.4875v-8.51092zM214.62578,188.68634v-11.7406c0,-0.20313 -0.0474,-0.35886 -0.14219,-0.46719c-0.09479,-0.10834 -0.26406,-0.19636 -0.50781,-0.26406v-0.32501h4.32656v0.32501c-0.24375,0.06093 -0.41302,0.14895 -0.50781,0.26406c-0.09479,0.10833 -0.14219,0.26406 -0.14219,0.46719v11.7406c0,0.2099 0.0474,0.3724 0.14219,0.4875c0.10156,0.10833 0.27083,0.19297 0.50781,0.25391v0.325h-4.32656v-0.325c0.24375,-0.06771 0.41302,-0.15573 0.50781,-0.26406c0.09479,-0.10833 0.14219,-0.26745 0.14219,-0.47735zM224.46717,187.46759h8.52108c0.2099,0 0.36901,-0.04739 0.47734,-0.14218c0.10833,-0.09479 0.19635,-0.26406 0.26406,-0.50781h0.325v3.58515h-0.325c-0.06771,-0.24375 -0.15573,-0.41302 -0.26406,-0.50781c-0.10833,-0.09479 -0.26745,-0.14219 -0.47734,-0.14219h-12.19764v-0.325c0.24375,-0.06771 0.41302,-0.15573 0.50781,-0.26406c0.09479,-0.10833 0.14219,-0.26745 0.14219,-0.47735v-11.73045c0,-0.2099 -0.0474,-0.36901 -0.14219,-0.47734c-0.09479,-0.10834 -0.26406,-0.19636 -0.50781,-0.26406v-0.32501h4.32656v0.32501c-0.24375,0.06093 -0.41302,0.14895 -0.50781,0.26406c-0.09479,0.10833 -0.14219,0.26744 -0.14219,0.47734zM239.18356,187.46759h8.52108c0.2099,0 0.36902,-0.04739 0.47735,-0.14218c0.10833,-0.09479 0.19635,-0.26406 0.26406,-0.50781h0.325v3.58515h-0.325c-0.06771,-0.24375 -0.15573,-0.41302 -0.26406,-0.50781c-0.10833,-0.09479 -0.26745,-0.14219 -0.47735,-0.14219h-12.19764v-0.325c0.24375,-0.06771 0.41302,-0.15573 0.50781,-0.26406c0.09479,-0.10833 0.14219,-0.26745 0.14219,-0.47735v-11.73045c0,-0.2099 -0.0474,-0.36901 -0.14219,-0.47734c-0.09479,-0.10834 -0.26406,-0.19636 -0.50781,-0.26406v-0.32501h4.32656v0.32501c-0.24375,0.06093 -0.41302,0.14895 -0.50781,0.26406c-0.09479,0.10833 -0.14219,0.26744 -0.14219,0.47734zM250.87339,188.68634v-11.7406c0,-0.20313 -0.0474,-0.35886 -0.14219,-0.46719c-0.09479,-0.10834 -0.26406,-0.19636 -0.50781,-0.26406v-0.32501h4.32655v0.32501c-0.24375,0.06093 -0.41301,0.14895 -0.5078,0.26406c-0.0948,0.10833 -0.1422,0.26406 -0.1422,0.46719v11.7406c0,0.2099 0.0474,0.3724 0.1422,0.4875c0.10155,0.10833 0.27082,0.19297 0.5078,0.25391v0.325h-4.32655v-0.325c0.24375,-0.06771 0.41302,-0.15573 0.50781,-0.26406c0.09479,-0.10833 0.14219,-0.26745 0.14219,-0.47735zM264.65541,175.64573c2.41718,0 4.33332,0.65339 5.74843,1.96017c1.49635,1.3677 2.24452,3.13488 2.24452,5.30154c0,1.32709 -0.35885,2.56615 -1.07656,3.71719c-1.40156,2.24791 -3.70026,3.37187 -6.89609,3.37187c-2.39687,0 -4.30285,-0.65338 -5.71796,-1.96015c-0.75833,-0.6974 -1.33385,-1.5336 -1.72655,-2.50859c-0.34532,-0.8599 -0.51798,-1.76381 -0.51798,-2.71172c0,-1.38802 0.35547,-2.65755 1.06641,-3.80859c1.36093,-2.20052 3.65286,-3.32109 6.87578,-3.36172zM264.66551,177.99182c-1.32031,0 -2.42057,0.39271 -3.30078,1.17813c-1.04271,0.9276 -1.56406,2.14296 -1.56406,3.64609c0,1.50312 0.52135,2.71848 1.56406,3.64609c0.88021,0.78541 1.98723,1.17812 3.32108,1.17812c1.33385,0 2.4375,-0.39271 3.31094,-1.17812c0.52135,-0.46719 0.92083,-1.03932 1.19843,-1.71641c0.24375,-0.6026 0.36563,-1.22551 0.36563,-1.86874c0,-1.57084 -0.52135,-2.80652 -1.56406,-3.70703c-0.88698,-0.77187 -1.99739,-1.16458 -3.33124,-1.17813zM278.25454,180.25667v8.42967c0,0.2099 0.0474,0.36902 0.14219,0.47735c0.09479,0.10833 0.26406,0.19635 0.50781,0.26406v0.325h-4.07265v-0.325c0.24375,-0.06771 0.41302,-0.15573 0.50781,-0.26406c0.09479,-0.10833 0.14219,-0.26745 0.14219,-0.47735v-11.7406c0,-0.20313 -0.0474,-0.35886 -0.14219,-0.46719c-0.09479,-0.10834 -0.26406,-0.19636 -0.50781,-0.26406v-0.32501h4.7125v0.32501c-0.29115,0.07447 -0.43672,0.2302 -0.43672,0.46718c0,0.1625 0.09479,0.34193 0.28437,0.53828l7.64765,7.95234v-8.22655c0,-0.20313 -0.0474,-0.35886 -0.14219,-0.46719c-0.09479,-0.10834 -0.26406,-0.19636 -0.50781,-0.26406v-0.32501h4.07265v0.32501c-0.24375,0.0677 -0.41302,0.15572 -0.50781,0.26406c-0.09479,0.10833 -0.14219,0.26406 -0.14219,0.46719v11.7406c0,0.2099 0.0474,0.36902 0.14219,0.47735c0.09479,0.10833 0.26406,0.19635 0.50781,0.26406v0.325h-4.36718v-0.325c0.28437,-0.06093 0.42656,-0.20651 0.42656,-0.43672c0,-0.13541 -0.16589,-0.37239 -0.49766,-0.71094z" fill="#f9f9f9" stroke="#010101" stroke-width="0.35668"/><path d="M318.46114,184.20596c0,0 -19.44481,58.9645 -65.57841,57.94206c-58.639,-1.29959 -65.72236,-58.5516 -65.72236,-58.5516" fill="none" stroke="none" stroke-width="0.43495"/><path d="M200.2453,206.59709l6.58867,-7.36435l1.12213,1.64143l-4.59768,4.95342l6.40865,-2.30439l1.3036,1.90687l-4.55579,5.21186l6.34083,-2.60074l1.10362,1.61434l-9.20327,3.53978l-1.16287,-1.70102l4.81343,-5.67002l-6.97251,2.51176zM212.41619,220.69974l5.79253,-7.67686l1.53894,1.178l-5.79253,7.67685zM221.92718,226.70511l3.25571,-9.06751l1.7686,0.6442l1.5104,7.39741l2.17417,-6.05532l1.68876,0.61513l-3.25571,9.06752l-1.82386,-0.66434l-1.50621,-7.23502l-2.1231,5.91306zM251.3807,226.15277c-0.31234,-0.93045 -0.43633,-1.75842 -0.37197,-2.48391c0.05,-0.53545 0.1903,-1.04841 0.42091,-1.53888c0.23469,-0.49188 0.53445,-0.89946 0.89928,-1.22273c0.48412,-0.43333 1.09529,-0.77569 1.8335,-1.02709c1.33621,-0.45505 2.5445,-0.40134 3.62485,0.16111c1.08447,0.56105 1.8763,1.58512 2.3755,3.07219c0.49501,1.47461 0.48468,2.7649 -0.031,3.87087c-0.51707,1.10183 -1.44164,1.87956 -2.77373,2.3332c-1.34858,0.45925 -2.55959,0.4111 -3.63303,-0.14445c-1.07483,-0.55971 -1.85627,-1.56648 -2.34431,-3.02031zM253.24656,225.44792c0.34721,1.03431 0.84789,1.73862 1.50204,2.11295c0.65275,0.37018 1.34411,0.43098 2.07408,0.18239c0.72997,-0.24859 1.23942,-0.71601 1.52835,-1.40224c0.29167,-0.6918 0.2597,-1.56731 -0.0959,-2.62654c-0.35139,-1.04676 -0.84242,-1.74973 -1.4731,-2.10892c-0.62656,-0.36058 -1.31719,-0.41236 -2.0719,-0.15535c-0.75471,0.25701 -1.27517,0.72586 -1.56138,1.40655c-0.2876,0.67653 -0.255,1.54025 0.0978,2.59116zM269.3331,222.85271l-6.24111,-7.31149l1.42608,-1.23492l7.13886,2.30989l-4.16784,-4.88265l1.36172,-1.17916l6.24111,7.31148l-1.47065,1.27351l-6.99638,-2.23376l4.06993,4.76793zM281.31752,210.65126l-7.83818,-5.53598l4.07541,-5.85369l1.32597,0.93651l-2.96564,4.25968l1.73766,1.22728l2.75943,-3.96349l1.32063,0.93273l-2.75944,3.96349l2.13331,1.50672l3.07062,-4.41045l1.32062,0.93273z" fill="#f9f9f9" stroke="#010101" stroke-width="0.35542"/><path d="M190.11594,209.19484c0,0 20.87964,-58.47182 66.97449,-56.32254c58.58975,2.73188 64.27219,60.13986 64.27219,60.13986" fill="none" stroke="none" stroke-width="0.43495"/><path d="M284.8707,160.70687l-6.76534,7.20002l-1.08198,-1.66855l4.71647,-4.8388l-6.46264,2.14599l-1.25695,-1.93839l4.68086,-5.09818l-6.40203,2.44392l-1.06412,-1.64101l9.28638,-3.31224l1.12126,1.72912l-4.94952,5.54987l7.03135,-2.33943zM273.04553,146.30893l-5.97703,7.53202l-1.5099,-1.21552l5.97701,-7.53202zM263.68306,140.07129l-3.47469,8.9847l-1.75243,-0.68753l-1.3305,-7.43237l-2.32042,6l-1.67334,-0.65649l3.47469,-8.9847l1.80721,0.70902l1.33025,7.26992l2.26589,-5.85904zM234.22493,139.89867c0.28968,0.93787 0.39355,1.76864 0.31161,2.49232c-0.06301,0.53406 -0.21571,1.04342 -0.45811,1.52807c-0.24656,0.48595 -0.55611,0.88603 -0.92867,1.20023c-0.49449,0.42129 -1.11379,0.74851 -1.85788,0.98166c-1.34685,0.42203 -2.55347,0.33861 -3.61985,-0.25026c-1.07054,-0.58757 -1.8373,-1.63082 -2.30027,-3.12973c-0.4591,-1.48635 -0.41747,-2.776 0.12488,-3.86896c0.54364,-1.08877 1.48681,-1.84352 2.8295,-2.26424c1.35932,-0.42593 2.5688,-0.34799 3.62844,0.23381c1.06093,0.58599 1.81771,1.61169 2.27035,3.0771zM232.34252,140.55739c-0.32201,-1.04253 -0.80546,-1.75896 -1.45033,-2.14929c-0.64358,-0.38613 -1.33326,-0.46391 -2.06904,-0.23336c-0.73578,0.23055 -1.25642,0.68528 -1.56191,1.36421c-0.30836,0.68441 -0.29765,1.56045 0.03212,2.62811c0.32589,1.0551 0.79973,1.76995 1.42151,2.14454c0.61762,0.37589 1.3068,0.44465 2.06751,0.20629c0.76072,-0.23837 1.29239,-0.69427 1.59502,-1.3677c0.30392,-0.66925 0.29229,-1.53351 -0.03489,-2.5928zM216.19784,142.75595l6.06189,7.4629l-1.45562,1.19946l-7.08069,-2.48487l4.04815,4.98375l-1.38991,1.14531l-6.06189,-7.46289l1.5011,-1.23694l6.94009,2.40526l-3.95305,-4.86665zM203.92102,154.65886l7.70155,5.72721l-4.21619,5.75165l-1.30285,-0.96886l3.06808,-4.18543l-1.70737,-1.26967l-2.85475,3.8944l-1.2976,-0.96496l2.85475,-3.8944l-2.09613,-1.55877l-3.17669,4.33358l-1.2976,-0.96495z" fill="#f9f9f9" stroke="#010101" stroke-width="0.35542"/><text transform="translate(135,31.5)" font-size="8.36684" xml:space="preserve" fill="#000000" fill-rule="nonzero" stroke="none" stroke-width="0.23144" stroke-linecap="butt" stroke-linejoin="miter" stroke-miterlimit="10" stroke-dasharray="" stroke-dashoffset="0" font-family="&quot;Univers LT 53 Extended&quot;" font-weight="normal" text-anchor="middle" style="mix-blend-mode: normal"><tspan x="0" dy="0">GameDays</tspan></text><text transform="translate(135,31.5)" font-size="8.36684" xml:space="preserve" fill="url(#color-2)" fill-rule="nonzero" stroke="none" stroke-width="0.23144" stroke-linecap="butt" stroke-linejoin="miter" stroke-miterlimit="10" stroke-dasharray="" stroke-dashoffset="0" font-family="&quot;Univers LT 53 Extended&quot;" font-weight="normal" text-anchor="middle" style="mix-blend-mode: normal"><tspan x="0" dy="0">GameDays</tspan></text></g></g></svg>