<svg version="1.1" xmlns="http://www.w3.org/2000/svg" xmlns:xlink="http://www.w3.org/1999/xlink" width="98.42054" height="98.17056" viewBox="0,0,98.42054,98.17056"><defs><radialGradient cx="247.97321" cy="155.35354" r="21.84271" gradientUnits="userSpaceOnUse" id="color-1"><stop offset="0" stop-color="#008000"/><stop offset="1" stop-color="#54ff00"/></radialGradient><radialGradient cx="231.2133" cy="206.20912" r="21.84271" gradientUnits="userSpaceOnUse" id="color-2"><stop offset="0" stop-color="#008000"/><stop offset="1" stop-color="#54ff00"/></radialGradient><radialGradient cx="265.19903" cy="188.65958" r="21.8427" gradientUnits="userSpaceOnUse" id="color-3"><stop offset="0" stop-color="#008000"/><stop offset="1" stop-color="#54ff00"/></radialGradient><radialGradient cx="214.34343" cy="172.14969" r="21.8427" gradientUnits="userSpaceOnUse" id="color-4"><stop offset="0" stop-color="#008000"/><stop offset="1" stop-color="#54ff00"/></radialGradient><radialGradient cx="266.44561" cy="163.405" r="22.76467" gradientUnits="userSpaceOnUse" id="color-5"><stop offset="0" stop-color="#008000"/><stop offset="1" stop-color="#54ff00"/></radialGradient><radialGradient cx="213.5544" cy="196.3739" r="22.76467" gradientUnits="userSpaceOnUse" id="color-6"><stop offset="0" stop-color="#008000"/><stop offset="1" stop-color="#54ff00"/></radialGradient><radialGradient cx="255.91696" cy="206.32061" r="22.76467" gradientUnits="userSpaceOnUse" id="color-7"><stop offset="0" stop-color="#008000"/><stop offset="1" stop-color="#54ff00"/></radialGradient><radialGradient cx="221.69809" cy="153.6794" r="22.76468" gradientUnits="userSpaceOnUse" id="color-8"><stop offset="0" stop-color="#008000"/><stop offset="1" stop-color="#54ff00"/></radialGradient></defs><g transform="translate(-190.78973,-130.91472)"><g data-paper-data="{&quot;isPaintingLayer&quot;:true}" fill-rule="nonzero" stroke="none" stroke-width="4.47125" stroke-linecap="butt" stroke-linejoin="miter" stroke-miterlimit="10" stroke-dasharray="" stroke-dashoffset="0" style="mix-blend-mode: normal"><path d="M241.54979,165.98221h-1.17069c0.28753,-2.60839 0.91396,-4.85735 1.87927,-6.7469c0.96531,-1.88954 2.85485,-4.32335 5.66863,-7.30144c2.81377,-2.99862 4.67251,-5.41189 5.5762,-7.23982c0.63669,-1.29393 0.95504,-2.62893 0.95504,-4.00501c0,-1.62254 -0.57508,-2.98835 -1.72523,-4.09743c-1.15016,-1.12962 -2.62893,-1.69443 -4.43632,-1.69443c-1.74577,0 -3.16293,0.36969 -4.25147,1.10908c-0.61615,0.41077 -0.92423,0.91396 -0.92423,1.50958c0,0.41077 0.16431,0.97558 0.49292,1.69443c0.34915,0.71885 0.52373,1.31447 0.52373,1.78685c0,0.69831 -0.24646,1.28365 -0.73938,1.75604c-0.49293,0.47239 -1.09881,0.70858 -1.81766,0.70858c-0.71885,0 -1.335,-0.25673 -1.84847,-0.77019c-0.49292,-0.51347 -0.73938,-1.19124 -0.73938,-2.03332c0,-1.80739 0.87289,-3.45047 2.61866,-4.92924c1.76631,-1.47877 4.16931,-2.21816 7.20901,-2.21816c3.16293,0 5.70971,0.89342 7.64033,2.68027c1.95116,1.76631 2.92674,3.78936 2.92674,6.06913c0,1.82793 -0.45185,3.41966 -1.35555,4.7752c-1.19123,1.76631 -3.45047,3.79963 -6.7777,6.09994c-3.32724,2.27977 -5.61729,4.29255 -6.87014,6.03832c-1.25285,1.74577 -2.19762,4.01528 -2.83431,6.80851zM239.70132,170.94226c0.86262,0 1.60201,0.30808 2.21816,0.92424c0.61616,0.59561 0.92424,1.335 0.92424,2.21816c0,0.86261 -0.30808,1.59173 -0.92424,2.18735c-0.61615,0.61615 -1.35554,0.92423 -2.21816,0.92423c-0.86261,0 -1.602,-0.30808 -2.21815,-0.92423c-0.61616,-0.59562 -0.92424,-1.32474 -0.92424,-2.18735c0,-0.88316 0.29781,-1.62255 0.89343,-2.21816c0.61615,-0.61616 1.36581,-0.92424 2.24896,-0.92424z" fill="url(#color-1)"/><path d="M237.63672,195.58045h1.17069c-0.28754,2.60839 -0.91396,4.85735 -1.87927,6.7469c-0.96531,1.88954 -2.85486,4.32335 -5.66863,7.30144c-2.81377,2.99862 -4.67251,5.41189 -5.57621,7.23982c-0.63669,1.29393 -0.95504,2.62893 -0.95504,4.00501c0,1.62254 0.57508,2.98835 1.72524,4.09743c1.15015,1.12962 2.62893,1.69443 4.43632,1.69443c1.74577,0 3.16293,-0.36969 4.25147,-1.10908c0.61615,-0.41077 0.92423,-0.91397 0.92423,-1.50958c0,-0.41077 -0.16431,-0.97558 -0.49292,-1.69443c-0.34915,-0.71885 -0.52373,-1.31446 -0.52373,-1.78685c0,-0.69831 0.24646,-1.28365 0.73938,-1.75604c0.49293,-0.47239 1.09881,-0.70858 1.81766,-0.70858c0.71885,0 1.335,0.25673 1.84847,0.77019c0.49292,0.51347 0.73938,1.19124 0.73938,2.03332c0,1.80739 -0.87289,3.45047 -2.61866,4.92924c-1.76631,1.47877 -4.16932,2.21816 -7.20901,2.21816c-3.16293,0 -5.70971,-0.89343 -7.64033,-2.68028c-1.95116,-1.76631 -2.92674,-3.78935 -2.92674,-6.06913c0,-1.82793 0.45185,-3.41966 1.35554,-4.7752c1.19123,-1.76631 3.45047,-3.79963 6.77771,-6.09994c3.32724,-2.27977 5.61728,-4.29255 6.87013,-6.03832c1.25285,-1.74577 2.19763,-4.01528 2.83432,-6.80851zM239.48518,190.62039c-0.86261,0 -1.602,-0.30808 -2.21816,-0.92424c-0.61615,-0.59561 -0.92423,-1.335 -0.92423,-2.21816c0,-0.86261 0.30808,-1.59173 0.92423,-2.18735c0.61616,-0.61615 1.35555,-0.92423 2.21816,-0.92423c0.86262,0 1.60201,0.30808 2.21816,0.92423c0.61615,0.59562 0.92423,1.32474 0.92423,2.18735c0,0.88316 -0.29781,1.62255 -0.89342,2.21816c-0.61615,0.61616 -1.36581,0.92424 -2.24897,0.92424z" fill="url(#color-2)"/><path d="M254.57035,182.23616v-1.1707c2.60839,0.28754 4.85736,0.91397 6.7469,1.87928c1.88955,0.96531 4.32336,2.85485 7.30144,5.66863c2.99863,2.81377 5.4119,4.67251 7.23983,5.5762c1.29393,0.63669 2.62893,0.95504 4.00501,0.95504c1.62254,0 2.98835,-0.57508 4.09743,-1.72523c1.12962,-1.15016 1.69443,-2.62893 1.69443,-4.43632c0,-1.74577 -0.36969,-3.16293 -1.10908,-4.25147c-0.41077,-0.61616 -0.91397,-0.92424 -1.50958,-0.92424c-0.41077,0 -0.97558,0.16431 -1.69443,0.49293c-0.71885,0.34915 -1.31446,0.52373 -1.78685,0.52373c-0.69831,0 -1.28366,-0.24646 -1.75604,-0.73939c-0.47239,-0.49292 -0.70858,-1.0988 -0.70858,-1.81765c0,-0.71885 0.25673,-1.335 0.77019,-1.84847c0.51347,-0.49293 1.19124,-0.73939 2.03331,-0.73939c1.80739,0 3.45048,0.87289 4.92925,2.61866c1.47877,1.76631 2.21815,4.16932 2.21815,7.20902c0,3.16293 -0.89342,5.70971 -2.68027,7.64033c-1.76631,1.95115 -3.78936,2.92673 -6.06913,2.92673c-1.82793,0 -3.41966,-0.45185 -4.7752,-1.35554c-1.76631,-1.19123 -3.79963,-3.45047 -6.09994,-6.77771c-2.27977,-3.32723 -4.29255,-5.61728 -6.03832,-6.87013c-1.74577,-1.25285 -4.01528,-2.19762 -6.80852,-2.83431zM249.6103,180.38769c0,0.86262 -0.30808,1.60201 -0.92423,2.21816c-0.59562,0.61616 -1.33501,0.92424 -2.21816,0.92424c-0.86262,0 -1.59174,-0.30808 -2.18735,-0.92424c-0.61615,-0.61615 -0.92423,-1.35554 -0.92423,-2.21816c0,-0.86261 0.30808,-1.602 0.92423,-2.21816c0.59561,-0.61615 1.32473,-0.92423 2.18735,-0.92423c0.88315,0 1.62254,0.29781 2.21816,0.89343c0.61615,0.61615 0.92423,1.36581 0.92423,2.24896z" fill="url(#color-3)"/><path d="M224.97211,178.5731v1.1707c-2.60839,-0.28754 -4.85736,-0.91396 -6.7469,-1.87927c-1.88954,-0.96531 -4.32336,-2.85486 -7.30144,-5.66863c-2.99862,-2.81378 -5.4119,-4.67252 -7.23982,-5.57621c-1.29393,-0.63669 -2.62893,-0.95504 -4.00501,-0.95504c-1.62254,0 -2.98835,0.57508 -4.09743,1.72524c-1.12962,1.15015 -1.69443,2.62892 -1.69443,4.43631c0,1.74577 0.36969,3.16293 1.10908,4.25147c0.41077,0.61616 0.91396,0.92424 1.50958,0.92424c0.41077,0 0.97558,-0.16431 1.69443,-0.49293c0.71885,-0.34915 1.31447,-0.52373 1.78685,-0.52373c0.69831,0 1.28366,0.24646 1.75604,0.73939c0.47239,0.49292 0.70858,1.09881 0.70858,1.81766c0,0.71885 -0.25673,1.335 -0.77019,1.84846c-0.51346,0.49293 -1.19123,0.73939 -2.03331,0.73939c-1.80739,0 -3.45047,-0.87289 -4.92924,-2.61866c-1.47877,-1.76631 -2.21816,-4.16932 -2.21816,-7.20902c0,-3.16293 0.89343,-5.7097 2.68027,-7.64032c1.76631,-1.95116 3.78936,-2.92674 6.06913,-2.92674c1.82793,0 3.41966,0.45185 4.7752,1.35554c1.76631,1.19123 3.79962,3.45047 6.09994,6.77771c2.27977,3.32724 4.29255,5.61728 6.03832,6.87013c1.74577,1.25285 4.01528,2.19762 6.80852,2.83431zM229.93216,180.42157c0,-0.86262 0.30808,-1.60201 0.92423,-2.21816c0.59562,-0.61615 1.335,-0.92423 2.21816,-0.92423c0.86262,0 1.59173,0.30808 2.18735,0.92423c0.61616,0.61615 0.92423,1.35554 0.92423,2.21816c0,0.86262 -0.30808,1.60201 -0.92423,2.21816c-0.59562,0.61615 -1.32473,0.92423 -2.18735,0.92423c-0.88316,0 -1.62254,-0.29781 -2.21816,-0.89342c-0.61615,-0.61616 -0.92423,-1.36582 -0.92423,-2.24897z" fill="url(#color-4)"/><path d="M285.02769,154.59397l-13.48453,7.42847c0.47926,4.0519 0.39939,7.3123 -0.23962,9.78119c-0.46473,1.74275 -1.38694,3.30396 -2.76662,4.68364c-1.62657,1.62657 -3.6743,2.73031 -6.1432,3.31122c-2.45437,0.59544 -4.82161,0.49378 -7.10171,-0.30498c-2.26557,-0.81328 -4.57472,-2.42532 -6.92743,-4.83613l-3.24587,1.85167l-1.43777,-1.43777l3.31122,-1.78632c-0.92947,-1.3942 -1.61204,-2.65769 -2.04773,-3.79048c-0.42116,-1.11826 -0.73341,-2.49068 -0.93673,-4.11725l7.95129,-4.37866l0.89316,0.89316c-1.08922,0.76972 -1.94607,1.46682 -2.57055,2.0913c-1.11826,1.11826 -1.81537,2.42533 -2.0913,3.92118c-0.26141,1.51039 -0.02904,3.00625 0.6971,4.48759l17.12252,-9.54156c-0.42116,-3.47098 -0.39938,-6.20855 0.06535,-8.21272c0.47926,-2.01868 1.42325,-3.73239 2.83197,-5.14111c2.17844,-2.17844 4.72721,-3.11516 7.64632,-2.81018c2.94815,0.30498 5.36621,1.40146 7.25419,3.28944c0.47926,0.47926 1.08196,1.1691 1.8081,2.06952l2.20022,-1.19814l1.3942,1.3942l-2.46163,1.32885c0.71162,1.29254 1.19088,2.4108 1.43777,3.35479c0.26141,0.92947 0.43569,2.13487 0.52283,3.61621l-6.6878,3.81227l-0.89316,-0.89316c0.72615,-0.60996 1.29254,-1.11827 1.69918,-1.52491c1.21993,-1.21993 2.01869,-2.58508 2.39628,-4.09546c0.21784,-0.8859 0.15249,-1.96786 -0.19606,-3.24588zM284.11276,152.89478c-0.55187,-0.75519 -1.00934,-1.31433 -1.37242,-1.6774c-1.24897,-1.24897 -2.79566,-1.85167 -4.64007,-1.8081c-1.82989,0.02904 -3.4492,0.74792 -4.85792,2.15665c-0.81328,0.81328 -1.38694,1.83715 -1.72096,3.0716c-0.3195,1.21992 -0.40664,3.02077 -0.26142,5.40252zM249.91128,173.80779c0.39212,0.47925 0.6971,0.8278 0.91495,1.04565c0.98756,0.98756 2.30915,1.75727 3.96476,2.30915c1.67014,0.56639 3.31123,0.63901 4.92327,0.21784c1.62657,-0.40664 3.00625,-1.17635 4.13903,-2.30914c0.95851,-0.95851 1.62657,-2.19296 2.00416,-3.70334c0.40664,-1.51039 0.5083,-3.64526 0.30498,-6.40461z" fill="url(#color-5)"/><path d="M194.97232,205.18492l13.48453,-7.42847c-0.47926,-4.05189 -0.39938,-7.31229 0.23963,-9.78119c0.46473,-1.74275 1.38694,-3.30396 2.76662,-4.68364c1.62657,-1.62657 3.6743,-2.73031 6.14319,-3.31123c2.45437,-0.59544 4.82161,-0.49378 7.10171,0.30498c2.26558,0.81329 4.57472,2.42533 6.92743,4.83614l3.24587,-1.85167l1.43777,1.43777l-3.31122,1.78632c0.92947,1.3942 1.61204,2.65769 2.04773,3.79048c0.42116,1.11826 0.73341,2.49068 0.93673,4.11725l-7.9513,4.37866l-0.89315,-0.89315c1.08922,-0.76972 1.94607,-1.46682 2.57055,-2.0913c1.11826,-1.11826 1.81536,-2.42533 2.0913,-3.92119c0.26141,-1.51038 0.02905,-3.00624 -0.6971,-4.48758l-17.12252,9.54156c0.42116,3.47098 0.39938,6.20855 -0.06535,8.21271c-0.47926,2.01868 -1.42325,3.73239 -2.83197,5.14111c-2.17844,2.17844 -4.72721,3.11517 -7.64632,2.81019c-2.94815,-0.30498 -5.36622,-1.40146 -7.2542,-3.28944c-0.47925,-0.47925 -1.08195,-1.16909 -1.8081,-2.06951l-2.20022,1.19814l-1.3942,-1.3942l2.46163,-1.32885c-0.71162,-1.29254 -1.19088,-2.41081 -1.43777,-3.3548c-0.26141,-0.92946 -0.43568,-2.13486 -0.52282,-3.6162l6.6878,-3.81227l0.89316,0.89316c-0.72615,0.60996 -1.29254,1.11827 -1.69918,1.52491c-1.21993,1.21993 -2.01869,2.58508 -2.39628,4.09546c-0.21784,0.8859 -0.15249,1.96786 0.19606,3.24587zM195.88727,206.88409c0.55187,0.75519 1.00934,1.31432 1.37241,1.6774c1.24897,1.24897 2.79566,1.85167 4.64007,1.8081c1.82989,-0.02905 3.44919,-0.74793 4.85792,-2.15665c0.81328,-0.81328 1.38694,-1.83715 1.72097,-3.0716c0.3195,-1.21992 0.40664,-3.02077 0.26142,-5.40252zM230.08875,185.9711c-0.39212,-0.47926 -0.69711,-0.82781 -0.91495,-1.04565c-0.98756,-0.98756 -2.30915,-1.75727 -3.96476,-2.30915c-1.67014,-0.56639 -3.31123,-0.63901 -4.92327,-0.21785c-1.62656,0.40664 -3.00624,1.17636 -4.13903,2.30915c-0.95851,0.95851 -1.62657,2.19296 -2.00416,3.70334c-0.40664,1.51038 -0.5083,3.64525 -0.30498,6.40461z" fill="url(#color-6)"/><path d="M264.728,224.90269l-7.42848,-13.48453c-4.05189,0.47926 -7.31229,0.39938 -9.78118,-0.23962c-1.74275,-0.46473 -3.30396,-1.38694 -4.68364,-2.76662c-1.62657,-1.62657 -2.73031,-3.6743 -3.31123,-6.1432c-0.59544,-2.45437 -0.49378,-4.82161 0.30498,-7.10171c0.81328,-2.26558 2.42533,-4.57472 4.83613,-6.92743l-1.85167,-3.24587l1.43777,-1.43777l1.78632,3.31123c1.3942,-0.92947 2.65769,-1.61205 3.79048,-2.04773c1.11827,-0.42116 2.49068,-0.73341 4.11725,-0.93673l4.37865,7.95129l-0.89316,0.89316c-0.76971,-1.08922 -1.46681,-1.94607 -2.0913,-2.57056c-1.11826,-1.11826 -2.42532,-1.81536 -3.92119,-2.0913c-1.51038,-0.26141 -3.00624,-0.02904 -4.48758,0.6971l9.54156,17.12252c3.47098,-0.42117 6.20854,-0.39938 8.21271,0.06535c2.01869,0.47926 3.73239,1.42325 5.14111,2.83197c2.17844,2.17844 3.11517,4.72721 2.81019,7.64632c-0.30498,2.94815 -1.40147,5.36621 -3.28945,7.25419c-0.47926,0.47926 -1.16909,1.08196 -2.06951,1.80811l1.19814,2.20022l-1.3942,1.3942l-1.32884,-2.46163c-1.29254,0.71162 -2.41081,1.19088 -3.35479,1.43777c-0.92947,0.26141 -2.13487,0.43568 -3.61621,0.52282l-3.81227,-6.6878l0.89316,-0.89316c0.60996,0.72615 1.11827,1.29254 1.52491,1.69919c1.21992,1.21992 2.58508,2.01868 4.09546,2.39628c0.8859,0.21785 1.96786,0.15249 3.24588,-0.19605zM266.42718,223.98775c0.75519,-0.55187 1.31432,-1.00935 1.67739,-1.37242c1.24897,-1.24897 1.85167,-2.79566 1.80811,-4.64007c-0.02905,-1.82989 -0.74793,-3.4492 -2.15665,-4.85792c-0.81329,-0.81329 -1.83715,-1.38694 -3.0716,-1.72097c-1.21992,-0.3195 -3.02077,-0.40664 -5.40253,-0.26141zM245.51418,189.78628c-0.47925,0.39213 -0.82779,0.69712 -1.04563,0.91496c-0.98756,0.98756 -1.75727,2.30915 -2.30914,3.96476c-0.5664,1.67013 -0.63901,3.31122 -0.21784,4.92327c0.40664,1.62657 1.17636,3.00624 2.30914,4.13903c0.95851,0.95851 2.19296,1.62656 3.70334,2.00416c1.51039,0.40665 3.64526,0.50831 6.40461,0.30498z" fill="url(#color-7)"/><path d="M212.88704,135.09732l7.42847,13.48453c4.0519,-0.47925 7.31229,-0.39938 9.78119,0.23963c1.74275,0.46473 3.30396,1.38694 4.68364,2.76661c1.62657,1.62657 2.73031,3.6743 3.31123,6.1432c0.59544,2.45437 0.49378,4.82161 -0.30498,7.10171c-0.81328,2.26558 -2.42533,4.57472 -4.83613,6.92743l1.85167,3.24587l-1.43777,1.43777l-1.78632,-3.31123c-1.3942,0.92947 -2.65769,1.61205 -3.79048,2.04773c-1.11826,0.42117 -2.49068,0.73341 -4.11724,0.93673l-4.37866,-7.9513l0.89316,-0.89316c0.76972,1.08922 1.46682,1.94607 2.0913,2.57056c1.11827,1.11827 2.42533,1.81537 3.92119,2.0913c1.51038,0.26141 3.00624,0.02905 4.48759,-0.6971l-9.54156,-17.12252c-3.47098,0.42116 -6.20855,0.39938 -8.21271,-0.06536c-2.01869,-0.47926 -3.73239,-1.42325 -5.14111,-2.83197c-2.17844,-2.17844 -3.11517,-4.72721 -2.81018,-7.64631c0.30498,-2.94815 1.40146,-5.36622 3.28944,-7.2542c0.47926,-0.47926 1.1691,-1.08196 2.06952,-1.8081l-1.19814,-2.20022l1.3942,-1.3942l1.32885,2.46164c1.29254,-0.71163 2.4108,-1.19088 3.35479,-1.43777c0.92947,-0.26141 2.13487,-0.43569 3.61621,-0.52283l3.81227,6.6878l-0.89316,0.89316c-0.60996,-0.72615 -1.11827,-1.29254 -1.5249,-1.69918c-1.21993,-1.21993 -2.58508,-2.01869 -4.09547,-2.39628c-0.8859,-0.21785 -1.96786,-0.15249 -3.24587,0.19606zM211.18785,136.01226c-0.75519,0.55187 -1.31433,1.00934 -1.6774,1.37241c-1.24897,1.24897 -1.85167,2.79566 -1.8081,4.64008c0.02904,1.82988 0.74793,3.44919 2.15665,4.85792c0.81328,0.81328 1.83715,1.38694 3.07159,1.72096c1.21992,0.3195 3.02077,0.40664 5.40253,0.26141zM232.10086,170.21375c0.47925,-0.39213 0.82779,-0.69712 1.04563,-0.91496c0.98756,-0.98756 1.75727,-2.30915 2.30914,-3.96476c0.5664,-1.67013 0.63901,-3.31122 0.21785,-4.92326c-0.40664,-1.62657 -1.17636,-3.00625 -2.30914,-4.13903c-0.95852,-0.95852 -2.19297,-1.62657 -3.70335,-2.00416c-1.51038,-0.40664 -3.64525,-0.5083 -6.40461,-0.30498z" fill="url(#color-8)"/></g></g></svg>