<svg version="1.1" xmlns="http://www.w3.org/2000/svg" xmlns:xlink="http://www.w3.org/1999/xlink" width="7.20003" height="9.4" viewBox="0,0,7.20003,9.4"><g transform="translate(-165.98761,-170.75476)"><g data-paper-data="{&quot;isPaintingLayer&quot;:true}" fill="#000000" fill-rule="evenodd" stroke="#000000" stroke-width="0" stroke-linecap="round" stroke-linejoin="miter" stroke-miterlimit="10" stroke-dasharray="" stroke-dashoffset="0" style="mix-blend-mode: normal"><path d="M172.98762,175.75476h-5c-0.02667,-0.00034 -0.05325,0.00302 -0.079,0.01c-0.059,0.017 -0.097,0.056 -0.112,0.116c-0.00611,0.02418 -0.00914,0.04905 -0.009,0.074v0.8c0,0.24 0.047,0.47 0.14,0.69c0.093,0.22 0.22,0.413 0.38,0.58c0.16,0.167 0.35,0.297 0.57,0.39c0.22,0.093 0.457,0.14 0.71,0.14c0.12523,0.00056 0.2502,-0.01149 0.373,-0.036c0.09481,-0.01909 0.18756,-0.04722 0.277,-0.084c0.08005,-0.03248 0.15674,-0.07267 0.229,-0.12c0.0836,-0.0548 0.15816,-0.12227 0.221,-0.2c0.174,-0.204 0.31,-0.373 0.409,-0.507c0.02775,-0.03713 0.05475,-0.0748 0.081,-0.113c0.01866,-0.02739 0.03835,-0.05408 0.059,-0.08c0.065,-0.081 0.121,-0.127 0.17,-0.138c0.00691,-0.00141 0.01395,-0.00208 0.021,-0.002c0.00842,0.00012 0.0168,0.00113 0.025,0.003c0.025,0.005 0.056,0.018 0.095,0.037l1.26,0.64c0.01737,0.00841 0.03408,0.0181 0.05,0.029c0.038,0.027 0.06,0.057 0.068,0.089c0.00145,0.00724 0.00212,0.01462 0.002,0.022c-0.00069,0.01864 -0.00371,0.03711 -0.009,0.055c-0.016,0.062 -0.056,0.153 -0.117,0.275c-0.02082,0.04027 -0.04216,0.08028 -0.064,0.12c-0.05016,0.0913 -0.10733,0.17856 -0.171,0.261c-0.066,0.085 -0.141,0.173 -0.227,0.263c-0.08106,0.08496 -0.16512,0.16701 -0.252,0.246c-0.6,0.56 -1.433,0.84 -2.5,0.84c-0.547,0 -1.04,-0.08 -1.48,-0.24c-0.44,-0.16 -0.817,-0.39 -1.13,-0.69c-0.313,-0.3 -0.557,-0.66 -0.73,-1.08c-0.1325,-0.325 -0.21477,-0.66825 -0.244,-1.018c-0.01086,-0.1237 -0.0162,-0.24782 -0.016,-0.372v-2.6c0,-0.453 0.093,-0.887 0.28,-1.3c0.187,-0.413 0.443,-0.773 0.77,-1.08c0.327,-0.307 0.707,-0.553 1.14,-0.74c0.40003,-0.17033 0.82841,-0.26429 1.263,-0.277c0.04898,-0.00189 0.09798,-0.00289 0.147,-0.003c0.493,0 0.96,0.093 1.4,0.28c0.44,0.187 0.823,0.433 1.15,0.74c0.327,0.307 0.583,0.667 0.77,1.08c0.187,0.413 0.28,0.847 0.28,1.3v1.4c0.00034,0.02667 -0.00303,0.05326 -0.01,0.079c-0.023,0.081 -0.086,0.121 -0.19,0.121zM167.98762,174.35476h3.2c0.093,0 0.15,-0.027 0.17,-0.08c0.00642,-0.01723 0.01143,-0.03496 0.015,-0.053c0.01,-0.052 0.015,-0.121 0.015,-0.207c0,-0.213 -0.05,-0.42 -0.15,-0.62c-0.1,-0.2 -0.233,-0.377 -0.4,-0.53c-0.167,-0.153 -0.357,-0.277 -0.57,-0.37c-0.213,-0.093 -0.44,-0.14 -0.68,-0.14c-0.24,0 -0.47,0.047 -0.69,0.14c-0.19804,0.08257 -0.3796,0.20011 -0.536,0.347c-0.01148,0.01084 -0.02282,0.02185 -0.034,0.033c-0.16,0.16 -0.29,0.343 -0.39,0.55c-0.06843,0.13894 -0.11465,0.28775 -0.137,0.441c-0.00873,0.06262 -0.01307,0.12578 -0.013,0.189c0,0.083 0.006,0.148 0.018,0.195c0.00313,0.01195 0.00714,0.02364 0.012,0.035c0.0093,0.02119 0.02601,0.03826 0.047,0.048c0.029,0.015 0.07,0.022 0.123,0.022z"/></g></g></svg>