<svg version="1.1" xmlns="http://www.w3.org/2000/svg" xmlns:xlink="http://www.w3.org/1999/xlink" width="7.68009" height="13" viewBox="0,0,7.68009,13"><g transform="translate(-384.10317,-166.80454)"><g data-paper-data="{&quot;isPaintingLayer&quot;:true}" fill="#000000" fill-rule="evenodd" stroke="#000000" stroke-width="0" stroke-linecap="round" stroke-linejoin="miter" stroke-miterlimit="10" stroke-dasharray="" stroke-dashoffset="0" style="mix-blend-mode: normal"><path d="M387.78318,176.00455h-1.38c-0.0385,0.00101 -0.07665,-0.00758 -0.111,-0.025c-0.06,-0.033 -0.101,-0.095 -0.122,-0.188c-0.00273,-0.01226 -0.00506,-0.02459 -0.007,-0.037c-0.00739,-0.04912 -0.01306,-0.09848 -0.017,-0.148c-0.015,-0.168 -0.023,-0.401 -0.023,-0.701c0,-0.007 0,-0.014 0,-0.021c-0.00159,-0.22794 0.02222,-0.45534 0.071,-0.678c0.06015,-0.27573 0.17176,-0.53764 0.329,-0.772c0.267,-0.393 0.693,-0.737 1.28,-1.03c0.15373,-0.07987 0.3074,-0.15987 0.461,-0.24c0.155,-0.081 0.301,-0.158 0.439,-0.23c0.12586,-0.06583 0.24835,-0.13792 0.367,-0.216c0.1091,-0.07141 0.21364,-0.14956 0.313,-0.234c0.12968,-0.10982 0.24434,-0.23624 0.341,-0.376c0.03598,-0.05281 0.06903,-0.10756 0.099,-0.164c0.107,-0.2 0.16,-0.447 0.16,-0.74c0.00144,-0.20974 -0.03341,-0.41814 -0.103,-0.616c-0.01141,-0.03169 -0.02375,-0.06303 -0.037,-0.094c-0.093,-0.22 -0.223,-0.41 -0.39,-0.57c-0.167,-0.16 -0.36,-0.287 -0.58,-0.38c-0.22,-0.093 -0.45,-0.14 -0.69,-0.14h-0.76c-0.08689,-0.00027 -0.17372,0.00474 -0.26,0.015c-0.118,0.014 -0.225,0.039 -0.32,0.075c-0.10607,0.03914 -0.20737,0.09013 -0.302,0.152c-0.04093,0.02713 -0.08033,0.05651 -0.118,0.088c-0.12,0.1 -0.23,0.22 -0.33,0.36c-0.07703,0.10763 -0.15672,0.21333 -0.239,0.317c-0.03004,0.0379 -0.06037,0.07557 -0.091,0.113c-0.067,0.08 -0.127,0.12 -0.18,0.12c-0.032,0 -0.06,-0.004 -0.084,-0.013c-0.00546,-0.00204 -0.0108,-0.00438 -0.016,-0.007l-1.26,-0.64c-0.069,-0.034 -0.108,-0.073 -0.118,-0.118c-0.00145,-0.00724 -0.00212,-0.01462 -0.002,-0.022c0.00101,-0.08125 0.0145,-0.16185 0.04,-0.239c0.021,-0.069 0.052,-0.14 0.092,-0.214c0.03275,-0.06092 0.06881,-0.12001 0.108,-0.177c0.08249,-0.11909 0.17589,-0.23024 0.279,-0.332c0.098,-0.097 0.208,-0.193 0.331,-0.286c0.02315,-0.01758 0.04648,-0.03492 0.07,-0.052c0.18043,-0.12995 0.3726,-0.24277 0.574,-0.337c0.15498,-0.07307 0.31389,-0.1375 0.476,-0.193c0.27767,-0.09416 0.56521,-0.15623 0.857,-0.185c0.16379,-0.01682 0.32835,-0.02517 0.493,-0.025h0.76c0.547,0 1.04,0.083 1.48,0.25c0.44,0.167 0.817,0.4 1.13,0.7c0.313,0.3 0.557,0.657 0.73,1.07c0.1269,0.30705 0.20745,0.63126 0.239,0.962c0.01407,0.13889 0.02108,0.2784 0.021,0.418c0.00151,0.25789 -0.01856,0.51546 -0.06,0.77c-0.068,0.398 -0.191,0.744 -0.37,1.04c-0.16054,0.26039 -0.3637,0.49195 -0.601,0.685c-0.182,0.151 -0.389,0.29 -0.623,0.418c-0.05478,0.03004 -0.11012,0.05905 -0.166,0.087c-0.307,0.147 -0.583,0.283 -0.83,0.41c-0.247,0.127 -0.46,0.26 -0.64,0.4c-0.10825,0.08317 -0.20597,0.17921 -0.291,0.286c-0.04812,0.06111 -0.09125,0.12599 -0.129,0.194c-0.1,0.18 -0.15,0.403 -0.15,0.67c-0.00003,0.04702 0.00097,0.09403 0.003,0.141c0.002,0.049 0.005,0.094 0.01,0.135c0.00398,0.03823 0.00965,0.07627 0.017,0.114c0.02,0.1 0.03,0.177 0.03,0.23c0.00039,0.02826 -0.00263,0.05646 -0.009,0.084c-0.018,0.074 -0.064,0.117 -0.136,0.131c-0.01814,0.00339 -0.03655,0.00507 -0.055,0.005zM388.15318,179.48455c0.20437,-0.20751 0.31617,-0.48882 0.31,-0.78c0.00002,-0.00467 0.00002,-0.00933 0,-0.014c0.00191,-0.28822 -0.11363,-0.56479 -0.32,-0.766c-0.08319,-0.08422 -0.17943,-0.15445 -0.285,-0.208c-0.15386,-0.07583 -0.32348,-0.11421 -0.495,-0.112c-0.29118,-0.00617 -0.57249,0.10563 -0.78,0.31c-0.213,0.207 -0.32,0.47 -0.32,0.79c0.00007,0.03437 0.00141,0.06873 0.004,0.103c0.0134,0.25899 0.12244,0.5038 0.306,0.687c0.207,0.207 0.47,0.31 0.79,0.31c0.02235,-0.00013 0.04469,-0.00079 0.067,-0.002c0.27346,-0.00669 0.53326,-0.12096 0.723,-0.318z"/></g></g></svg>