<svg version="1.1" xmlns="http://www.w3.org/2000/svg" xmlns:xlink="http://www.w3.org/1999/xlink" width="6.58" height="6.88" viewBox="0,0,6.58,6.88"><g transform="translate(-233.44318,-165.78454)"><g data-paper-data="{&quot;isPaintingLayer&quot;:true}" fill="#000000" fill-rule="evenodd" stroke="#000000" stroke-width="0" stroke-linecap="round" stroke-linejoin="miter" stroke-miterlimit="10" stroke-dasharray="" stroke-dashoffset="0" style="mix-blend-mode: normal"><path d="M239.98318,170.46455l-0.52,0.88c-0.01121,0.01944 -0.025,0.03727 -0.041,0.053c-0.03179,0.03094 -0.07465,0.04786 -0.119,0.047c-0.057,0 -0.099,-0.01 -0.127,-0.029c-0.00464,-0.00328 -0.00899,-0.00696 -0.013,-0.011l-1.66,-1.14c-0.01628,-0.01001 -0.03296,-0.01935 -0.05,-0.028c-0.034,-0.016 -0.063,-0.026 -0.088,-0.03c-0.00727,-0.00123 -0.01463,-0.0019 -0.022,-0.002c-0.107,0 -0.16,0.067 -0.16,0.2v0.04l0.24,2v0.04c0.00049,0.02544 -0.00323,0.05078 -0.011,0.075c-0.024,0.07 -0.087,0.105 -0.189,0.105h-1.04c-0.113,0 -0.179,-0.043 -0.196,-0.13c-0.00294,-0.0165 -0.00428,-0.03324 -0.004,-0.05v-0.04l0.24,-2v-0.04c0,-0.133 -0.053,-0.2 -0.16,-0.2c-0.0328,0.00021 -0.06517,0.00736 -0.095,0.021c-0.022,0.01 -0.043,0.023 -0.065,0.039l-1.6,1.14c-0.01349,0.00798 -0.02716,0.01564 -0.041,0.023c-0.04,0.022 -0.07,0.034 -0.091,0.036c-0.00264,0.0005 -0.00532,0.00083 -0.008,0.001c-0.04374,-0.00001 -0.08532,-0.01897 -0.114,-0.052c-0.013,-0.014 -0.026,-0.031 -0.037,-0.052c-0.00313,-0.00526 -0.00613,-0.01059 -0.009,-0.016l-0.52,-0.9c-0.02,-0.041 -0.033,-0.074 -0.038,-0.099c-0.00132,-0.00692 -0.00199,-0.01395 -0.002,-0.021c0.00006,-0.03752 0.01562,-0.07334 0.043,-0.099c0.014,-0.013 0.03,-0.026 0.05,-0.037c0.01514,-0.009 0.03083,-0.01702 0.047,-0.024l1.84,-0.78c0.059,-0.025 0.099,-0.058 0.121,-0.099c0.01298,-0.02499 0.01952,-0.05284 0.019,-0.081c0,-0.079 -0.045,-0.138 -0.135,-0.178c-0.00166,-0.00068 -0.00333,-0.00134 -0.005,-0.002l-1.84,-0.82c-0.02014,-0.00835 -0.03954,-0.01839 -0.058,-0.03c-0.019,-0.013 -0.035,-0.026 -0.048,-0.041c-0.02193,-0.02445 -0.03405,-0.05615 -0.034,-0.089c0.00012,-0.00842 0.00113,-0.01679 0.003,-0.025c0.004,-0.017 0.01,-0.037 0.021,-0.06c0.00502,-0.01181 0.01036,-0.02348 0.016,-0.035l0.52,-0.88c0.0097,-0.01951 0.02143,-0.03795 0.035,-0.055c0.034,-0.043 0.076,-0.065 0.125,-0.065c0.00781,0.00034 0.01554,0.00168 0.023,0.004c0.025,0.006 0.059,0.022 0.102,0.047c0.00502,0.00296 0.01002,0.00596 0.015,0.009l1.58,1.18c0.01365,0.01034 0.02802,0.0197 0.043,0.028c0.035,0.019 0.07,0.03 0.106,0.032c0.00367,0.00009 0.00733,0.00009 0.011,0c0.0239,0.00066 0.04769,-0.00342 0.07,-0.012c0.06,-0.025 0.09,-0.088 0.09,-0.188v-0.04l-0.22,-1.98v-0.04c-0.00038,-0.0251 0.00334,-0.05009 0.011,-0.074c0.024,-0.071 0.087,-0.106 0.189,-0.106h1.04c0.113,0 0.179,0.043 0.196,0.13c0.00294,0.0165 0.00428,0.03324 0.004,0.05v0.04l-0.22,1.98v0.04c-0.00011,0.02451 0.00224,0.04896 0.007,0.073c0.017,0.085 0.068,0.127 0.153,0.127c0.034,0 0.077,-0.014 0.13,-0.043c0.01013,-0.00544 0.02013,-0.01111 0.03,-0.017l1.64,-1.18c0.01376,-0.0105 0.02811,-0.02018 0.043,-0.029c0.033,-0.019 0.062,-0.029 0.089,-0.031c0.00267,-0.00009 0.00533,-0.00009 0.008,0c0.04374,0.00001 0.08532,0.01897 0.114,0.052c0.013,0.014 0.026,0.031 0.037,0.052c0.00313,0.00526 0.00613,0.01059 0.009,0.016l0.52,0.88c0.00637,0.01249 0.01238,0.02516 0.018,0.038c0.015,0.035 0.022,0.062 0.022,0.082c0,0.067 -0.047,0.12 -0.14,0.16l-1.88,0.82c-0.0229,0.00829 -0.04499,0.01867 -0.066,0.031c-0.063,0.038 -0.094,0.088 -0.094,0.149c0,0.08 0.053,0.14 0.16,0.18l1.88,0.8c0.093,0.04 0.14,0.093 0.14,0.16c-0.00012,0.00842 -0.00113,0.01679 -0.003,0.025c-0.004,0.017 -0.01,0.037 -0.021,0.06c-0.00502,0.01181 -0.01036,0.02348 -0.016,0.035z"/></g></g></svg>