<svg version="1.1" xmlns="http://www.w3.org/2000/svg" xmlns:xlink="http://www.w3.org/1999/xlink" width="7.80008" height="13.00004" viewBox="0,0,7.80008,13.00004"><g transform="translate(-111.66314,-166.80451)"><g data-paper-data="{&quot;isPaintingLayer&quot;:true}" fill="#000000" fill-rule="evenodd" stroke="#000000" stroke-width="0" stroke-linecap="round" stroke-linejoin="miter" stroke-miterlimit="10" stroke-dasharray="" stroke-dashoffset="0" style="mix-blend-mode: normal"><path d="M115.86318,179.80455h-0.6c-0.547,0 -1.04,-0.08 -1.48,-0.24c-0.44,-0.16 -0.817,-0.39 -1.13,-0.69c-0.313,-0.3 -0.557,-0.66 -0.73,-1.08c-0.13249,-0.32499 -0.21477,-0.66826 -0.244,-1.018c-0.01086,-0.1237 -0.0162,-0.24782 -0.016,-0.372v-6.2c-0.00134,-0.29541 0.03121,-0.59 0.097,-0.878c0.04033,-0.17481 0.09484,-0.34605 0.163,-0.512c0.173,-0.42 0.417,-0.78 0.73,-1.08c0.28109,-0.2671 0.60931,-0.4797 0.968,-0.627c0.05349,-0.02228 0.10751,-0.04329 0.162,-0.063c0.28705,-0.10273 0.58504,-0.17186 0.888,-0.206c0.19649,-0.02295 0.39417,-0.0343 0.592,-0.034h0.6c0.28035,-0.0011 0.5602,0.02368 0.836,0.074c0.17768,0.03282 0.35279,0.07827 0.524,0.136c0.19688,0.06611 0.38899,0.14563 0.575,0.238c0.16943,0.08381 0.33165,0.18148 0.485,0.292c0.293,0.213 0.52,0.437 0.68,0.67c0.04705,0.06773 0.08948,0.13856 0.127,0.212c0.075,0.15 0.113,0.29 0.113,0.418c-0.00009,0.02598 -0.00929,0.05111 -0.026,0.071c-0.019,0.023 -0.048,0.045 -0.086,0.065c-0.00265,0.00136 -0.00532,0.00269 -0.008,0.004l-1.26,0.64c-0.01216,0.00636 -0.02449,0.01236 -0.037,0.018c-0.035,0.015 -0.063,0.022 -0.083,0.022c-0.04,0 -0.07,-0.013 -0.09,-0.04c-0.014,-0.018 -0.029,-0.04 -0.046,-0.064c-0.00808,-0.01195 -0.01608,-0.02395 -0.024,-0.036l-0.33,-0.44c-0.08423,-0.11335 -0.17971,-0.21789 -0.285,-0.312c-0.0148,-0.0129 -0.02981,-0.02556 -0.045,-0.038c-0.12,-0.1 -0.26,-0.18 -0.42,-0.24c-0.06983,-0.02559 -0.14177,-0.045 -0.215,-0.058c-0.114,-0.021 -0.242,-0.032 -0.385,-0.032h-0.6c-0.25387,-0.00282 -0.50554,0.04724 -0.739,0.147c-0.20222,0.08914 -0.38578,0.2157 -0.541,0.373c-0.33686,0.33057 -0.52461,0.78405 -0.52,1.256c-0.00004,0.008 -0.00004,0.016 0,0.024v2.44c-0.00035,0.02646 0.00166,0.0529 0.006,0.079c0.017,0.094 0.069,0.141 0.154,0.141c0.036,0 0.096,-0.027 0.181,-0.081c0.00973,-0.00624 0.0194,-0.01257 0.029,-0.019c0.04088,-0.02704 0.08222,-0.05338 0.124,-0.079c0.075,-0.047 0.16,-0.097 0.256,-0.151c0.081,-0.04528 0.16446,-0.08601 0.25,-0.122c0.09,-0.039 0.187,-0.075 0.29,-0.108c0.207,-0.067 0.443,-0.1 0.71,-0.1h0.6c0.39069,-0.00223 0.77923,0.05786 1.151,0.178c0.06705,0.02196 0.13342,0.04597 0.199,0.072c0.42,0.167 0.78,0.4 1.08,0.7c0.27655,0.27835 0.50018,0.60465 0.66,0.963c0.01733,0.03871 0.034,0.07772 0.05,0.117c0.14836,0.3633 0.23423,0.74907 0.254,1.141c0.00415,0.07626 0.00615,0.15263 0.006,0.229v0.8c0.00134,0.29541 -0.03121,0.59 -0.097,0.878c-0.04033,0.17481 -0.09484,0.34605 -0.163,0.512c-0.173,0.42 -0.417,0.78 -0.73,1.08c-0.28109,0.2671 -0.60931,0.4797 -0.968,0.627c-0.05349,0.02228 -0.10751,0.04329 -0.162,0.063c-0.44,0.16 -0.933,0.24 -1.48,0.24zM117.66318,176.40455v-0.8c0.00299,-0.2542 -0.04708,-0.50624 -0.147,-0.74c-0.08925,-0.20187 -0.2158,-0.38507 -0.373,-0.54c-0.347,-0.347 -0.773,-0.52 -1.28,-0.52h-0.6c-0.25387,-0.00282 -0.50554,0.04724 -0.739,0.147c-0.20222,0.08914 -0.38578,0.2157 -0.541,0.373c-0.33686,0.33057 -0.52461,0.78405 -0.52,1.256c-0.00004,0.008 -0.00004,0.016 0,0.024v0.8c-0.00282,0.25387 0.04724,0.50554 0.147,0.739c0.08914,0.20222 0.2157,0.38578 0.373,0.541c0.33057,0.33686 0.78405,0.52461 1.256,0.52c0.008,0.00004 0.016,0.00004 0.024,0h0.6c0.18409,-0.0358 0.36526,-0.08527 0.542,-0.148c0.19,-0.069 0.358,-0.151 0.505,-0.246c0.10976,-0.07057 0.21138,-0.15308 0.303,-0.246c0.27107,-0.27627 0.42999,-0.64329 0.446,-1.03c0.00269,-0.04328 0.00402,-0.08664 0.004,-0.13z"/></g></g></svg>