<svg version="1.1" xmlns="http://www.w3.org/2000/svg" xmlns:xlink="http://www.w3.org/1999/xlink" width="183.69173" height="166.94834" viewBox="0,0,183.69173,166.94834"><defs><radialGradient cx="239.7851" cy="181.07449" r="58.08487" fx="239.7851" fy="181.07449" gradientUnits="userSpaceOnUse" id="color-1"><stop offset="0" stop-color="#ffffff"/><stop offset="1" stop-color="#50528e"/></radialGradient></defs><g transform="translate(-156.31093,-97.60031)"><g data-paper-data="{&quot;isPaintingLayer&quot;:true}" fill-rule="nonzero" stroke-linecap="butt" stroke-linejoin="miter" stroke-miterlimit="10" stroke-dasharray="" stroke-dashoffset="0" style="mix-blend-mode: normal"><path d="M156.31094,181.07449c0,-46.10151 37.37266,-83.47417 83.47417,-83.47417c46.10151,0 83.47417,37.37266 83.47417,83.47417c0,46.10151 -37.37266,83.47417 -83.47417,83.47417c-46.10151,0 -83.47417,-37.37266 -83.47417,-83.47417z" fill="#5c3a6f" stroke="#d4d4d4" stroke-width="0"/><path d="M177.05984,181.07449c0,-34.64221 28.08306,-62.72527 62.72527,-62.72527c34.64221,0 62.72527,28.08306 62.72527,62.72527c0,34.64221 -28.08306,62.72527 -62.72527,62.72527c-34.64221,0 -62.72527,-28.08306 -62.72527,-62.72527z" fill="#763f93" stroke="#d4d4d4" stroke-width="0"/><path d="M181.70025,181.07449c0,-32.07939 26.00548,-58.08487 58.08487,-58.08487c32.07939,0 58.08487,26.00548 58.08487,58.08487c0,32.07939 -26.00548,58.08487 -58.08487,58.08487c-32.07939,0 -58.08487,-26.00548 -58.08487,-58.08487z" fill="url(#color-1)" stroke="#d4d4d4" stroke-width="0"/><path d="M231.68435,181.07449c0,-32.07939 3.62684,-58.08487 8.10077,-58.08487c4.47393,0 8.10077,26.00548 8.10077,58.08487c0,32.07939 -3.62684,58.08487 -8.10077,58.08487c-4.47393,0 -8.10077,-26.00548 -8.10077,-58.08487z" fill="none" stroke="#e8dfc0" stroke-width="1"/><path d="M239.78511,172.97373c32.07939,0 58.08487,3.62684 58.08487,8.10077c0,4.47393 -26.00548,8.10077 -58.08487,8.10077c-32.07939,0 -58.08487,-3.62684 -58.08487,-8.10077c0,-4.47393 26.00548,-8.10077 58.08487,-8.10077z" fill="none" stroke="#e8dfc0" stroke-width="1"/><path d="M234.057,175.34639c22.68355,-22.68355 43.63676,-38.50764 46.80031,-35.3441c3.16355,3.16355 -12.66054,24.11676 -35.3441,46.80031c-22.68355,22.68355 -43.63676,38.50764 -46.80031,35.3441c-3.16355,-3.16355 12.66054,-24.11676 35.3441,-46.80031z" fill="none" stroke="#e8dfc0" stroke-width="1"/><path d="M245.51322,175.34639c22.68355,22.68355 38.50764,43.63676 35.3441,46.80031c-3.16355,3.16355 -24.11676,-12.66054 -46.80031,-35.3441c-22.68355,-22.68355 -38.50764,-43.63676 -35.3441,-46.80031c3.16355,-3.16355 24.11676,12.66054 46.80031,35.3441z" fill="none" stroke="#e8dfc0" stroke-width="1"/><path d="M238.12288,171.58521c29.63749,-12.27625 55.05135,-18.87736 56.76345,-14.74398c1.7121,4.13337 -20.9259,17.436 -50.56339,29.71225c-29.63749,12.27625 -55.05135,18.87736 -56.76345,14.74398c-1.7121,-4.13337 20.9259,-17.436 50.56339,-29.71225z" fill="none" stroke="#e8dfc0" stroke-width="1"/><path d="M247.48414,176.89997c12.27625,29.63749 18.87736,55.05135 14.74398,56.76345c-4.13337,1.7121 -17.436,-20.9259 -29.71225,-50.56339c-12.27625,-29.63749 -18.87736,-55.05135 -14.74398,-56.76345c4.13337,-1.7121 17.436,20.9259 29.71225,50.56339z" fill="none" stroke="#e8dfc0" stroke-width="1"/><path d="M243.10004,172.51587c29.63749,12.27625 52.27549,25.57888 50.56339,29.71225c-1.7121,4.13337 -27.12596,-2.46773 -56.76345,-14.74398c-29.63749,-12.27625 -52.27549,-25.57888 -50.56339,-29.71225c1.7121,-4.13337 27.12596,2.46773 56.76345,14.74398z" fill="none" stroke="#e8dfc0" stroke-width="1"/><path d="M246.71034,184.13091c-12.27625,29.63749 -25.57888,52.27549 -29.71225,50.56339c-4.13337,-1.7121 2.46773,-27.12596 14.74398,-56.76345c12.27625,-29.63749 25.57888,-52.27549 29.71225,-50.56339c4.13337,1.7121 -2.46773,27.12596 -14.74398,56.76345z" fill="none" stroke="#e8dfc0" stroke-width="1"/><path d="M336.2008,184.06506c0,0 -25.47895,77.26241 -85.92877,75.92269c-76.8359,-1.70288 -86.11737,-76.72138 -86.11737,-76.72138" fill="none" stroke="none" stroke-width="0.56993"/><path d="M168.0274,216.80851c0,0 27.35903,-76.61684 87.75807,-73.8006c76.77137,3.57964 84.2172,78.80252 84.2172,78.80252" fill="none" stroke="none" stroke-width="0.56993"/></g></g></svg>