<svg version="1.1" xmlns="http://www.w3.org/2000/svg" xmlns:xlink="http://www.w3.org/1999/xlink" width="172.60964" height="10.99956" viewBox="0,0,172.60964,10.99956"><g transform="translate(-153.69518,-174.50022)"><g data-paper-data="{&quot;isPaintingLayer&quot;:true}" fill="#f9f9f9" fill-rule="nonzero" stroke="none" stroke-width="0.5" stroke-linecap="butt" stroke-linejoin="miter" stroke-miterlimit="10" stroke-dasharray="" stroke-dashoffset="0" style="mix-blend-mode: normal"><path d="M159.31433,182.38222c0,0.0251 0,0.0377 0,0.0377l0.01257,0.0126c0,0.0754 -0.05028,0.11313 -0.13828,0.11313h-0.94281c-0.07542,0 -0.12571,-0.0251 -0.12571,-0.088l-0.46512,-1.65935c-0.01257,-0.0503 -0.05028,-0.0754 -0.12571,-0.0754h-2.03647c-0.07543,0 -0.12571,0.0251 -0.12571,0.0754l-0.46512,1.65935c-0.01257,0.0628 -0.05028,0.088 -0.12571,0.088h-0.94281c-0.10057,0 -0.13828,-0.0377 -0.13828,-0.11313v-0.0126c0,0 0.01257,-0.0126 0.01257,-0.0377l2.33817,-7.66819c0,-0.0503 0.05028,-0.088 0.12571,-0.088h0.67882c0.05028,0 0.10057,0.0377 0.12571,0.088zM157.29043,179.55379l-0.6034,-2.36331c-0.02514,-0.0628 -0.03771,-0.13828 -0.06285,-0.23884c-0.02514,-0.088 -0.06285,-0.18856 -0.088,-0.31427h-0.05028l-0.15085,0.56568l-0.61597,2.35074c0,0.0251 -0.01257,0.0377 -0.01257,0.0377v0.0126c0,0.0754 0.03771,0.11313 0.13828,0.11313h1.31993c0.088,0 0.13828,-0.0377 0.13828,-0.11313c0,0 -0.01257,-0.0126 -0.01257,-0.0251c0,0 0,-0.0126 0,-0.0251zM163.11072,177.99501c0,0.088 -0.02514,0.12571 -0.07542,0.12571c-0.06285,0 -0.13828,-0.0126 -0.23884,-0.0377c-0.10057,-0.0251 -0.22627,-0.0503 -0.37712,-0.0503c-0.35198,0 -0.62854,0.10056 -0.82967,0.3017c-0.20113,0.20113 -0.3017,0.46511 -0.3017,0.8171v3.26841c0,0.088 -0.05028,0.1257 -0.12571,0.1257h-0.87996c-0.088,0 -0.12571,-0.0377 -0.12571,-0.1257v-5.40545c0,-0.0754 0.03771,-0.12571 0.12571,-0.12571h0.75425c0.07542,0 0.12571,0.0503 0.12571,0.12571v0.40227c0,0.10056 0.03771,0.15085 0.11314,0.15085c0.02514,0 0.07542,-0.0251 0.13828,-0.10057c0.06285,-0.0754 0.13828,-0.15085 0.23885,-0.23885c0.10057,-0.0754 0.2137,-0.15084 0.35198,-0.22627c0.12571,-0.0754 0.27656,-0.11314 0.45255,-0.11314c0.23885,0 0.40227,0.0126 0.50283,0.0251c0.10057,0.0251 0.15085,0.0629 0.15085,0.13828zM168.34017,179.78007c0,0.088 -0.05028,0.12571 -0.12571,0.12571h-3.1427c-0.088,0 -0.12571,0.0503 -0.12571,0.1257v0.50284c0,0.15084 0.02514,0.30169 0.088,0.43997c0.05028,0.13828 0.13828,0.26399 0.23885,0.36456c0.10057,0.10056 0.2137,0.18856 0.35198,0.23884c0.13828,0.0629 0.28913,0.088 0.45255,0.088c0.15085,0 0.27656,-0.0251 0.40227,-0.0754c0.12571,-0.0503 0.2137,-0.11313 0.28913,-0.20113c0.13828,-0.16342 0.23884,-0.28913 0.3017,-0.3897c0.06285,-0.088 0.11314,-0.13827 0.16342,-0.13827c0.01257,0 0.03771,0.0126 0.07542,0.0251l0.79196,0.40226c0.05028,0.0251 0.07542,0.0629 0.07542,0.088c0,0.0503 -0.05028,0.13828 -0.12571,0.28913c-0.07543,0.15085 -0.2137,0.3017 -0.40227,0.47769c-0.37712,0.35198 -0.9051,0.52797 -1.57135,0.52797c-0.35198,0 -0.65368,-0.0503 -0.93024,-0.15085c-0.27656,-0.10056 -0.5154,-0.23884 -0.71654,-0.42741c-0.20113,-0.18856 -0.35198,-0.41483 -0.45255,-0.67882c-0.11314,-0.26399 -0.16342,-0.55311 -0.16342,-0.87995v-1.63421c0,-0.27656 0.05028,-0.55311 0.17599,-0.8171c0.11314,-0.25142 0.27656,-0.47769 0.47769,-0.67882c0.20113,-0.18857 0.43998,-0.33942 0.71653,-0.46512c0.27656,-0.11314 0.56569,-0.17599 0.89253,-0.17599c0.3017,0 0.6034,0.0629 0.87996,0.17599c0.27656,0.1257 0.5154,0.27655 0.71654,0.46512c0.20113,0.20113 0.36455,0.4274 0.49026,0.67882c0.11314,0.26399 0.17599,0.54054 0.17599,0.8171zM167.08309,179.02582c0.05028,0 0.088,-0.0126 0.10057,-0.0503c0.01257,-0.0251 0.02514,-0.088 0.02514,-0.16342c0,-0.12571 -0.03771,-0.26399 -0.10057,-0.3897c-0.06285,-0.12571 -0.15085,-0.22627 -0.25142,-0.32684c-0.10057,-0.10057 -0.22627,-0.17599 -0.35198,-0.23885c-0.13828,-0.0503 -0.27656,-0.088 -0.42741,-0.088c-0.15085,0 -0.3017,0.0377 -0.43998,0.088c-0.13828,0.0629 -0.25142,0.13828 -0.35198,0.23885c-0.10057,0.10057 -0.18856,0.22627 -0.25142,0.35198c-0.06285,0.12571 -0.088,0.26399 -0.088,0.3897c0,0.0754 0,0.12571 0.01257,0.15085c0.01257,0.0251 0.05028,0.0377 0.11314,0.0377zM176.43576,183.23704c0,0.70396 -0.20113,1.25708 -0.6034,1.65934c-0.40226,0.40227 -0.95538,0.6034 -1.65935,0.6034c-0.3017,0 -0.56569,-0.0251 -0.80453,-0.10057c-0.23884,-0.0628 -0.42741,-0.15084 -0.56569,-0.26398c-0.25142,-0.17599 -0.42741,-0.35198 -0.55311,-0.5154c-0.12571,-0.15085 -0.17599,-0.28913 -0.17599,-0.40227c0,-0.0251 0.02514,-0.0628 0.07543,-0.088l0.79196,-0.40226c0.02514,-0.0126 0.05028,-0.0251 0.06285,-0.0251c0.02514,0 0.06285,0.0377 0.11314,0.088c0.07543,0.10057 0.13828,0.20114 0.2137,0.27656c0.06285,0.088 0.13828,0.16342 0.2137,0.22627c0.07542,0.0629 0.16342,0.11314 0.26399,0.15085c0.10057,0.0377 0.2137,0.0503 0.36455,0.0503c0.15085,0 0.3017,-0.0251 0.43998,-0.088c0.13828,-0.0503 0.26399,-0.13828 0.36455,-0.23884c0.10057,-0.10057 0.17599,-0.22628 0.23884,-0.36456c0.05028,-0.13828 0.088,-0.28913 0.088,-0.43997v-1.04338c0,-0.088 -0.03771,-0.13828 -0.10057,-0.13828c-0.05028,0 -0.10057,0.0251 -0.15085,0.0628c-0.06285,0.0377 -0.13828,0.0754 -0.2137,0.12571c-0.07543,0.0503 -0.17599,0.088 -0.27656,0.12571c-0.11314,0.0377 -0.23884,0.0503 -0.38969,0.0503c-0.35198,0 -0.65368,-0.0503 -0.93024,-0.15085c-0.27656,-0.10056 -0.5154,-0.23884 -0.71653,-0.4274c-0.20113,-0.18857 -0.35198,-0.41484 -0.45255,-0.67883c-0.11314,-0.26398 -0.16342,-0.55311 -0.16342,-0.87995v-3.39412c0,-0.0754 0.03771,-0.12571 0.12571,-0.12571h0.87996c0.07542,0 0.12571,0.0503 0.12571,0.12571v3.39412c0,0.15085 0.02514,0.3017 0.08799,0.43998c0.05028,0.13827 0.13828,0.26398 0.23884,0.36455c0.10057,0.10056 0.2137,0.18856 0.35198,0.23884c0.13828,0.0629 0.28913,0.088 0.45255,0.088c0.15085,0 0.3017,-0.0251 0.43998,-0.088c0.13828,-0.0503 0.26399,-0.13828 0.36455,-0.23884c0.10057,-0.10057 0.17599,-0.22628 0.23884,-0.36455c0.05028,-0.13828 0.088,-0.28913 0.088,-0.43998v-3.39412c0,-0.0754 0.03771,-0.12571 0.12571,-0.12571h0.87996c0.07542,0 0.12571,0.0503 0.12571,0.12571zM182.19318,180.53432c0,0.32684 -0.06285,0.61596 -0.16342,0.87995c-0.11314,0.26399 -0.26399,0.49026 -0.46512,0.67882c-0.20113,0.18857 -0.42741,0.32685 -0.70397,0.42741c-0.27656,0.10057 -0.59083,0.15085 -0.93024,0.15085c-0.35198,0 -0.65368,-0.0503 -0.93024,-0.15085c-0.27656,-0.10056 -0.5154,-0.23884 -0.71654,-0.42741c-0.20113,-0.18856 -0.35198,-0.41483 -0.45255,-0.67882c-0.11314,-0.26399 -0.16342,-0.55311 -0.16342,-0.87995v-1.63421c0,-0.31427 0.05028,-0.6034 0.16342,-0.86738c0.10057,-0.26399 0.25142,-0.49027 0.45255,-0.67883c0.20113,-0.18856 0.43998,-0.33941 0.71654,-0.43998c0.27656,-0.10056 0.57826,-0.15084 0.93024,-0.15084c0.33941,0 0.65368,0.0629 0.93024,0.16342c0.27656,0.10056 0.50283,0.25141 0.70397,0.43997c0.20113,0.18857 0.35198,0.41484 0.46512,0.66626c0.10057,0.26398 0.16342,0.55311 0.16342,0.86738zM181.06181,180.53432v-1.63421c0,-0.3017 -0.11314,-0.56568 -0.32684,-0.79196c-0.22627,-0.22627 -0.49026,-0.33941 -0.80453,-0.33941c-0.32684,0 -0.59083,0.11314 -0.80453,0.33941c-0.22627,0.22628 -0.32684,0.49026 -0.32684,0.79196v1.63421c0,0.15084 0.02514,0.30169 0.088,0.43997c0.05028,0.13828 0.13828,0.26399 0.23884,0.36456c0.10057,0.10056 0.2137,0.18856 0.35198,0.23884c0.13828,0.0629 0.28913,0.088 0.45255,0.088c0.31427,0 0.57826,-0.10057 0.80453,-0.32684c0.2137,-0.22628 0.32684,-0.49026 0.32684,-0.80453zM187.87516,182.41994c0,0.088 -0.05028,0.1257 -0.12571,0.1257h-0.75425c-0.088,0 -0.12571,-0.0377 -0.12571,-0.1257v-0.15085c0,-0.088 -0.03771,-0.13828 -0.08799,-0.13828c-0.05028,0 -0.10057,0.0251 -0.16342,0.0628c-0.07543,0.0503 -0.15085,0.10057 -0.25142,0.15085c-0.10057,0.0503 -0.22627,0.10057 -0.36455,0.13828c-0.13828,0.0503 -0.3017,0.0628 -0.47769,0.0628c-0.32684,0 -0.61597,-0.0503 -0.87996,-0.15085c-0.26399,-0.10056 -0.49026,-0.25141 -0.67882,-0.43997c-0.20113,-0.18857 -0.35198,-0.41484 -0.45255,-0.67883c-0.11314,-0.25141 -0.16342,-0.54054 -0.16342,-0.86738v-3.39412c0,-0.0754 0.03771,-0.12571 0.12571,-0.12571h0.87996c0.07542,0 0.12571,0.0503 0.12571,0.12571v3.39412c0,0.15085 0.02514,0.3017 0.088,0.43998c0.05028,0.13827 0.13828,0.26398 0.23884,0.36455c0.10057,0.10056 0.2137,0.18856 0.35198,0.23884c0.13828,0.0629 0.28913,0.088 0.45255,0.088c0.15085,0 0.3017,-0.0251 0.43998,-0.088c0.13828,-0.0503 0.26399,-0.13828 0.36455,-0.23884c0.10057,-0.10057 0.17599,-0.22628 0.23885,-0.36455c0.05028,-0.13828 0.08799,-0.28913 0.08799,-0.43998v-3.39412c0,-0.0754 0.03771,-0.12571 0.12571,-0.12571h0.87996c0.07543,0 0.12571,0.0503 0.12571,0.12571zM193.49431,177.73103c-0.3017,0 -0.52797,0.0629 -0.67882,0.17599c-0.16342,0.11314 -0.23884,0.26398 -0.23884,0.46512c0,0.26398 0.11314,0.43998 0.33941,0.54054c0.22628,0.10057 0.56569,0.20113 1.03081,0.28913c0.32684,0.0754 0.62854,0.15085 0.87996,0.22627c0.25142,0.0754 0.45255,0.176 0.61597,0.28913c0.16342,0.12571 0.28913,0.26399 0.37712,0.43998c0.07543,0.17599 0.12571,0.37713 0.12571,0.61597c0,0.57826 -0.18856,1.03081 -0.56569,1.38279c-0.37712,0.35198 -0.87996,0.5154 -1.5085,0.5154h-0.37712c-0.31427,0 -0.59083,-0.0377 -0.84224,-0.12571c-0.25142,-0.0754 -0.47769,-0.18856 -0.65368,-0.31427c-0.17599,-0.1257 -0.31427,-0.26398 -0.41484,-0.41483c-0.10057,-0.15085 -0.13828,-0.28913 -0.13828,-0.41484c0,-0.0251 0.02514,-0.0628 0.07543,-0.088l0.72911,-0.36455c0.02514,-0.0126 0.05028,-0.0251 0.06285,-0.0251c0.01257,0 0.05028,0.0251 0.10057,0.0754c0.15085,0.20114 0.28913,0.36456 0.43998,0.50284c0.15085,0.13828 0.36455,0.20113 0.64111,0.20113h0.37712c0.28913,0 0.5154,-0.0628 0.69139,-0.2137c0.17599,-0.13828 0.26399,-0.31427 0.26399,-0.51541c0,-0.1257 -0.03771,-0.23884 -0.10057,-0.32684c-0.07543,-0.0754 -0.17599,-0.15085 -0.3017,-0.20113c-0.13828,-0.0503 -0.3017,-0.10057 -0.50283,-0.15085c-0.20113,-0.0377 -0.43998,-0.088 -0.69139,-0.13828c-0.6034,-0.11314 -1.04338,-0.27656 -1.3325,-0.50283c-0.28913,-0.22628 -0.42741,-0.56569 -0.42741,-1.04338c0,-0.27655 0.03771,-0.52797 0.13828,-0.75425c0.10057,-0.22627 0.23884,-0.41483 0.41484,-0.57825c0.17599,-0.16342 0.38969,-0.28913 0.64111,-0.37713c0.25142,-0.088 0.52797,-0.13827 0.82967,-0.13827h0.37712c0.3017,0 0.59083,0.0503 0.84224,0.1257c0.25142,0.088 0.46512,0.20114 0.64111,0.32684c0.17599,0.12571 0.31427,0.26399 0.41484,0.41484c0.10057,0.15085 0.15085,0.27656 0.15085,0.40227c0,0.0377 -0.02514,0.0628 -0.07543,0.088l-0.72911,0.36455c-0.03771,0.0251 -0.06285,0.0251 -0.07542,0.0251c-0.02514,0 -0.03771,0 -0.05028,-0.0251c-0.01257,-0.0126 -0.02514,-0.0251 -0.03771,-0.0503c-0.16342,-0.20113 -0.31427,-0.36455 -0.46512,-0.50283c-0.15085,-0.12571 -0.35198,-0.20113 -0.61597,-0.20113zM201.51449,182.41994c0,0.088 -0.05028,0.1257 -0.12571,0.1257h-0.75425c-0.088,0 -0.12571,-0.0377 -0.12571,-0.1257v-0.15085c0,-0.088 -0.03771,-0.13828 -0.08799,-0.13828c-0.05028,0 -0.10057,0.0251 -0.16342,0.0628c-0.07542,0.0503 -0.15085,0.10057 -0.25142,0.15085c-0.10057,0.0503 -0.22627,0.10057 -0.36455,0.13828c-0.13828,0.0503 -0.3017,0.0628 -0.47769,0.0628c-0.32684,0 -0.61597,-0.0503 -0.87996,-0.15085c-0.26399,-0.10056 -0.49026,-0.25141 -0.67882,-0.43997c-0.20113,-0.18857 -0.35198,-0.41484 -0.45255,-0.67883c-0.11314,-0.25141 -0.16342,-0.54054 -0.16342,-0.86738v-3.39412c0,-0.0754 0.03771,-0.12571 0.12571,-0.12571h0.87996c0.07542,0 0.12571,0.0503 0.12571,0.12571v3.39412c0,0.15085 0.02514,0.3017 0.088,0.43998c0.05028,0.13827 0.13828,0.26398 0.23884,0.36455c0.10057,0.10056 0.2137,0.18856 0.35198,0.23884c0.13828,0.0629 0.28913,0.088 0.45255,0.088c0.15085,0 0.3017,-0.0251 0.43998,-0.088c0.13828,-0.0503 0.26399,-0.13828 0.36455,-0.23884c0.10057,-0.10057 0.17599,-0.22628 0.23885,-0.36455c0.05028,-0.13828 0.08799,-0.28913 0.08799,-0.43998v-3.39412c0,-0.0754 0.03771,-0.12571 0.12571,-0.12571h0.87996c0.07542,0 0.12571,0.0503 0.12571,0.12571zM206.10283,177.99501c0,0.088 -0.02514,0.12571 -0.07542,0.12571c-0.06285,0 -0.13828,-0.0126 -0.23884,-0.0377c-0.10057,-0.0251 -0.22627,-0.0503 -0.37712,-0.0503c-0.35198,0 -0.62854,0.10056 -0.82967,0.3017c-0.20113,0.20113 -0.3017,0.46511 -0.3017,0.8171v3.26841c0,0.088 -0.05028,0.1257 -0.12571,0.1257h-0.87996c-0.088,0 -0.12571,-0.0377 -0.12571,-0.1257v-5.40545c0,-0.0754 0.03771,-0.12571 0.12571,-0.12571h0.75425c0.07542,0 0.12571,0.0503 0.12571,0.12571v0.40227c0,0.10056 0.03771,0.15085 0.11314,0.15085c0.02514,0 0.07542,-0.0251 0.13828,-0.10057c0.06285,-0.0754 0.13828,-0.15085 0.23884,-0.23885c0.10057,-0.0754 0.2137,-0.15084 0.35198,-0.22627c0.12571,-0.0754 0.27656,-0.11314 0.45255,-0.11314c0.23884,0 0.40227,0.0126 0.50283,0.0251c0.10057,0.0251 0.15085,0.0629 0.15085,0.13828zM211.33228,179.78007c0,0.088 -0.05028,0.12571 -0.12571,0.12571h-3.1427c-0.08799,0 -0.12571,0.0503 -0.12571,0.1257v0.50284c0,0.15084 0.02514,0.30169 0.088,0.43997c0.05028,0.13828 0.13828,0.26399 0.23884,0.36456c0.10057,0.10056 0.2137,0.18856 0.35198,0.23884c0.13828,0.0629 0.28913,0.088 0.45255,0.088c0.15085,0 0.27656,-0.0251 0.40227,-0.0754c0.12571,-0.0503 0.2137,-0.11313 0.28913,-0.20113c0.13828,-0.16342 0.23884,-0.28913 0.3017,-0.3897c0.06285,-0.088 0.11314,-0.13827 0.16342,-0.13827c0.01257,0 0.03771,0.0126 0.07542,0.0251l0.79196,0.40226c0.05028,0.0251 0.07542,0.0629 0.07542,0.088c0,0.0503 -0.05028,0.13828 -0.12571,0.28913c-0.07542,0.15085 -0.2137,0.3017 -0.40227,0.47769c-0.37712,0.35198 -0.9051,0.52797 -1.57135,0.52797c-0.35198,0 -0.65368,-0.0503 -0.93024,-0.15085c-0.27656,-0.10056 -0.5154,-0.23884 -0.71654,-0.42741c-0.20113,-0.18856 -0.35198,-0.41483 -0.45255,-0.67882c-0.11314,-0.26399 -0.16342,-0.55311 -0.16342,-0.87995v-1.63421c0,-0.27656 0.05028,-0.55311 0.17599,-0.8171c0.11314,-0.25142 0.27656,-0.47769 0.47769,-0.67882c0.20113,-0.18857 0.43998,-0.33942 0.71653,-0.46512c0.27656,-0.11314 0.56569,-0.17599 0.89253,-0.17599c0.3017,0 0.6034,0.0629 0.87996,0.17599c0.27656,0.1257 0.5154,0.27655 0.71654,0.46512c0.20113,0.20113 0.36455,0.4274 0.49026,0.67882c0.11314,0.26399 0.17599,0.54054 0.17599,0.8171zM210.0752,179.02582c0.05028,0 0.088,-0.0126 0.10057,-0.0503c0.01257,-0.0251 0.02514,-0.088 0.02514,-0.16342c0,-0.12571 -0.03771,-0.26399 -0.10057,-0.3897c-0.06285,-0.12571 -0.15085,-0.22627 -0.25142,-0.32684c-0.10057,-0.10057 -0.22628,-0.17599 -0.35198,-0.23885c-0.13828,-0.0503 -0.27656,-0.088 -0.42741,-0.088c-0.15085,0 -0.3017,0.0377 -0.43998,0.088c-0.13828,0.0629 -0.25142,0.13828 -0.35198,0.23885c-0.10057,0.10057 -0.18856,0.22627 -0.25142,0.35198c-0.06285,0.12571 -0.088,0.26399 -0.088,0.3897c0,0.0754 0,0.12571 0.01257,0.15085c0.01257,0.0251 0.05028,0.0377 0.11314,0.0377zM219.42787,183.23704c0,0.70396 -0.20113,1.25708 -0.6034,1.65934c-0.40226,0.40227 -0.95538,0.6034 -1.65935,0.6034c-0.3017,0 -0.56569,-0.0251 -0.80453,-0.10057c-0.23884,-0.0628 -0.42741,-0.15084 -0.56569,-0.26398c-0.25142,-0.17599 -0.42741,-0.35198 -0.55312,-0.5154c-0.12571,-0.15085 -0.17599,-0.28913 -0.17599,-0.40227c0,-0.0251 0.02514,-0.0628 0.07542,-0.088l0.79196,-0.40226c0.02514,-0.0126 0.05028,-0.0251 0.06285,-0.0251c0.02514,0 0.06285,0.0377 0.11314,0.088c0.07542,0.10057 0.13828,0.20114 0.2137,0.27656c0.06285,0.088 0.13828,0.16342 0.2137,0.22627c0.07542,0.0629 0.16342,0.11314 0.26399,0.15085c0.10057,0.0377 0.2137,0.0503 0.36455,0.0503c0.15085,0 0.3017,-0.0251 0.43998,-0.088c0.13828,-0.0503 0.26399,-0.13828 0.36455,-0.23884c0.10057,-0.10057 0.17599,-0.22628 0.23884,-0.36456c0.05028,-0.13828 0.088,-0.28913 0.088,-0.43997v-1.04338c0,-0.088 -0.03771,-0.13828 -0.10057,-0.13828c-0.05028,0 -0.10057,0.0251 -0.15085,0.0628c-0.06285,0.0377 -0.13828,0.0754 -0.2137,0.12571c-0.07542,0.0503 -0.17599,0.088 -0.27656,0.12571c-0.11314,0.0377 -0.23884,0.0503 -0.38969,0.0503c-0.35198,0 -0.65368,-0.0503 -0.93024,-0.15085c-0.27656,-0.10056 -0.5154,-0.23884 -0.71654,-0.4274c-0.20113,-0.18857 -0.35198,-0.41484 -0.45255,-0.67883c-0.11314,-0.26398 -0.16342,-0.55311 -0.16342,-0.87995v-3.39412c0,-0.0754 0.03771,-0.12571 0.12571,-0.12571h0.87996c0.07542,0 0.12571,0.0503 0.12571,0.12571v3.39412c0,0.15085 0.02514,0.3017 0.088,0.43998c0.05028,0.13827 0.13828,0.26398 0.23884,0.36455c0.10057,0.10056 0.2137,0.18856 0.35198,0.23884c0.13828,0.0629 0.28913,0.088 0.45255,0.088c0.15085,0 0.3017,-0.0251 0.43998,-0.088c0.13828,-0.0503 0.26399,-0.13828 0.36455,-0.23884c0.10057,-0.10057 0.17599,-0.22628 0.23884,-0.36455c0.05028,-0.13828 0.088,-0.28913 0.088,-0.43998v-3.39412c0,-0.0754 0.03771,-0.12571 0.12571,-0.12571h0.87996c0.07543,0 0.12571,0.0503 0.12571,0.12571zM225.18529,180.53432c0,0.32684 -0.06285,0.61596 -0.16342,0.87995c-0.11314,0.26399 -0.26399,0.49026 -0.46512,0.67882c-0.20113,0.18857 -0.42741,0.32685 -0.70397,0.42741c-0.27656,0.10057 -0.59083,0.15085 -0.93024,0.15085c-0.35198,0 -0.65368,-0.0503 -0.93024,-0.15085c-0.27656,-0.10056 -0.5154,-0.23884 -0.71654,-0.42741c-0.20113,-0.18856 -0.35198,-0.41483 -0.45255,-0.67882c-0.11314,-0.26399 -0.16342,-0.55311 -0.16342,-0.87995v-1.63421c0,-0.31427 0.05028,-0.6034 0.16342,-0.86738c0.10057,-0.26399 0.25142,-0.49027 0.45255,-0.67883c0.20113,-0.18856 0.43998,-0.33941 0.71654,-0.43998c0.27656,-0.10056 0.57826,-0.15084 0.93024,-0.15084c0.33941,0 0.65368,0.0629 0.93024,0.16342c0.27656,0.10056 0.50283,0.25141 0.70397,0.43997c0.20113,0.18857 0.35198,0.41484 0.46512,0.66626c0.10057,0.26398 0.16342,0.55311 0.16342,0.86738zM224.05392,180.53432v-1.63421c0,-0.3017 -0.11314,-0.56568 -0.32684,-0.79196c-0.22627,-0.22627 -0.49026,-0.33941 -0.80453,-0.33941c-0.32684,0 -0.59083,0.11314 -0.80453,0.33941c-0.22627,0.22628 -0.32684,0.49026 -0.32684,0.79196v1.63421c0,0.15084 0.02514,0.30169 0.088,0.43997c0.05028,0.13828 0.13828,0.26399 0.23885,0.36456c0.10057,0.10056 0.2137,0.18856 0.35198,0.23884c0.13828,0.0629 0.28913,0.088 0.45255,0.088c0.31427,0 0.57826,-0.10057 0.80453,-0.32684c0.2137,-0.22628 0.32684,-0.49026 0.32684,-0.80453zM230.86727,182.41994c0,0.088 -0.05028,0.1257 -0.12571,0.1257h-0.75425c-0.088,0 -0.12571,-0.0377 -0.12571,-0.1257v-0.15085c0,-0.088 -0.03771,-0.13828 -0.088,-0.13828c-0.05028,0 -0.10057,0.0251 -0.16342,0.0628c-0.07543,0.0503 -0.15085,0.10057 -0.25142,0.15085c-0.10057,0.0503 -0.22628,0.10057 -0.36455,0.13828c-0.13828,0.0503 -0.3017,0.0628 -0.47769,0.0628c-0.32684,0 -0.61597,-0.0503 -0.87996,-0.15085c-0.26399,-0.10056 -0.49026,-0.25141 -0.67882,-0.43997c-0.20113,-0.18857 -0.35198,-0.41484 -0.45255,-0.67883c-0.11314,-0.25141 -0.16342,-0.54054 -0.16342,-0.86738v-3.39412c0,-0.0754 0.03771,-0.12571 0.12571,-0.12571h0.87996c0.07542,0 0.12571,0.0503 0.12571,0.12571v3.39412c0,0.15085 0.02514,0.3017 0.088,0.43998c0.05028,0.13827 0.13828,0.26398 0.23884,0.36455c0.10057,0.10056 0.2137,0.18856 0.35198,0.23884c0.13828,0.0629 0.28913,0.088 0.45255,0.088c0.15085,0 0.3017,-0.0251 0.43998,-0.088c0.13828,-0.0503 0.26399,-0.13828 0.36455,-0.23884c0.10057,-0.10057 0.17599,-0.22628 0.23885,-0.36455c0.05028,-0.13828 0.088,-0.28913 0.088,-0.43998v-3.39412c0,-0.0754 0.03771,-0.12571 0.12571,-0.12571h0.87996c0.07542,0 0.12571,0.0503 0.12571,0.12571zM237.75608,178.13329l-1.09366,4.32436c-0.0126,0.0628 -0.0503,0.088 -0.12571,0.088h-0.72911c-0.0754,0 -0.12571,-0.0251 -0.12571,-0.088l-1.59649,-5.40545c0,-0.0126 -0.01257,-0.0251 -0.01257,-0.0251c0,0 0,-0.0126 0,-0.0251c0,-0.0754 0.03771,-0.11314 0.13828,-0.11314h0.91767c0.0251,0 0.0754,0.0377 0.12571,0.088l0.94281,4.03523l1.00566,-4.03523c0.0503,-0.0503 0.088,-0.088 0.12571,-0.088h0.84224c0.0754,0 0.11314,0.0377 0.12571,0.088l1.00566,4.03523l0.93024,-4.03523c0.0126,-0.0503 0.0629,-0.088 0.13828,-0.088h0.91767c0.088,0 0.13828,0.0377 0.13828,0.11314c0,0.0126 -0.0126,0.0251 -0.0126,0.0251c0,0 0,0.0126 0,0.0251l-1.62164,5.40545c-0.0251,0.0628 -0.0754,0.088 -0.1257,0.088h-0.70397c-0.0503,0 -0.10056,-0.0251 -0.12571,-0.088zM246.71906,182.41994c0,0.088 -0.0503,0.1257 -0.12571,0.1257h-0.75425c-0.088,0 -0.12571,-0.0377 -0.12571,-0.1257v-0.16343c0,-0.088 -0.0377,-0.13827 -0.088,-0.13827c-0.0503,0 -0.11314,0.0251 -0.17599,0.0754c-0.0754,0.0503 -0.15085,0.088 -0.23885,0.13828c-0.10056,0.0503 -0.20113,0.10057 -0.31427,0.15085c-0.12571,0.0503 -0.25141,0.0628 -0.38969,0.0628h-0.49026c-0.25142,0 -0.49027,-0.0377 -0.6914,-0.11313c-0.20113,-0.0754 -0.37712,-0.18857 -0.52797,-0.32684c-0.15085,-0.13828 -0.26399,-0.3017 -0.33941,-0.50284c-0.0754,-0.18856 -0.11314,-0.40226 -0.11314,-0.62854v-0.0754c0,-0.22628 0.0377,-0.42741 0.11314,-0.61597c0.0754,-0.18856 0.18856,-0.35198 0.33941,-0.49026c0.15085,-0.13828 0.32684,-0.25142 0.52797,-0.32684c0.20113,-0.0754 0.43998,-0.12571 0.6914,-0.12571h1.44564c0.0754,0 0.12571,-0.0377 0.12571,-0.12571l-0.0126,-0.35198c-0.0251,-0.31427 -0.13828,-0.57826 -0.33942,-0.79196c-0.20113,-0.20113 -0.46512,-0.31427 -0.79196,-0.31427c-0.15085,0 -0.27655,0.0251 -0.38969,0.0754c-0.12571,0.0503 -0.21371,0.12571 -0.28913,0.20114c-0.15085,0.15085 -0.25142,0.27655 -0.31427,0.36455c-0.0628,0.10057 -0.11314,0.13828 -0.15085,0.13828c-0.0251,0 -0.0503,0 -0.0754,-0.0251l-0.76682,-0.40227c-0.0503,-0.0251 -0.0754,-0.0503 -0.0754,-0.10057c0,-0.0503 0.0377,-0.13827 0.12571,-0.28912c0.088,-0.13828 0.23885,-0.3017 0.43998,-0.47769c0.35198,-0.31427 0.85481,-0.47769 1.49592,-0.47769c0.67883,0 1.23194,0.20113 1.63421,0.57825c0.40226,0.3897 0.61597,0.89253 0.62854,1.52107l0.0126,1.65934zM245.58769,180.39604v-0.0503c0,-0.0754 -0.0503,-0.1257 -0.12571,-0.1257h-1.44564c-0.16342,0 -0.3017,0.0628 -0.40227,0.16342c-0.10057,0.10056 -0.15085,0.23884 -0.15085,0.38969v0.20113c0,0.17599 0.0503,0.31427 0.15085,0.41484c0.10057,0.10057 0.23885,0.15085 0.40227,0.15085h0.49026c0.49026,0 0.84224,-0.3017 1.06852,-0.9051zM252.87876,182.41994c0,0.088 -0.0503,0.1257 -0.12571,0.1257h-0.87996c-0.088,0 -0.1257,-0.0377 -0.1257,-0.1257v-3.39412c0,-0.15085 -0.0377,-0.28913 -0.088,-0.42741c-0.0628,-0.13828 -0.13828,-0.26398 -0.23884,-0.36455c-0.10057,-0.10057 -0.22628,-0.18856 -0.36456,-0.25142c-0.13828,-0.0503 -0.28913,-0.088 -0.43998,-0.088c-0.32684,0 -0.59082,0.11313 -0.80453,0.33941c-0.22627,0.22627 -0.32684,0.49026 -0.32684,0.79196v3.39412c0,0.088 -0.0503,0.1257 -0.12571,0.1257h-0.87995c-0.088,0 -0.12571,-0.0377 -0.12571,-0.1257v-5.40545c0,-0.0754 0.0377,-0.12571 0.12571,-0.12571h0.75425c0.0754,0 0.1257,0.0503 0.1257,0.12571v0.15085c0,0.10057 0.0251,0.13828 0.088,0.13828c0.0377,0 0.088,-0.0126 0.16342,-0.0628c0.0628,-0.0377 0.15085,-0.088 0.25142,-0.13828c0.10056,-0.0503 0.2137,-0.10057 0.35198,-0.15085c0.13828,-0.0377 0.3017,-0.0629 0.49026,-0.0629c0.31427,0 0.6034,0.0629 0.86738,0.16342c0.26399,0.10057 0.49027,0.25142 0.6914,0.43998c0.18856,0.18856 0.33941,0.41484 0.45255,0.66625c0.10056,0.26399 0.16342,0.55312 0.16342,0.86739zM256.81341,182.53307c0,0.0629 -0.0251,0.10057 -0.0503,0.11314c-0.0377,0.0126 -0.10057,0.0126 -0.18856,0.0126c-0.26399,0 -0.5154,-0.0503 -0.75425,-0.15085c-0.25142,-0.10057 -0.46512,-0.25142 -0.65368,-0.43998c-0.18856,-0.17599 -0.33941,-0.40226 -0.45255,-0.66625c-0.11314,-0.25142 -0.16342,-0.54054 -0.16342,-0.86738v-2.51416c0,-0.0754 -0.0503,-0.12571 -0.12571,-0.12571h-0.69139c-0.088,0 -0.12571,-0.0377 -0.12571,-0.12571l0.0251,-0.43998l1.44564,-1.53364l0.088,-0.0377h0.38969c0.0754,0 0.12571,0.0503 0.12571,0.12571v0.87996c0,0.088 0.0377,0.1257 0.12571,0.1257h0.87996c0.0754,0 0.1257,0.0503 0.1257,0.12571v0.75425c0,0.088 -0.0503,0.12571 -0.1257,0.12571h-0.87996c-0.088,0 -0.12571,0.0503 -0.12571,0.12571v2.51416c0,0.25141 0.088,0.50283 0.27656,0.7291c0.0503,0.0754 0.15085,0.13828 0.27656,0.18856c0.12571,0.0503 0.27655,0.12571 0.47769,0.20114c0.0628,0.0251 0.10056,0.0754 0.10056,0.1257zM263.02341,182.53307c0,0.0629 -0.0252,0.10057 -0.0503,0.11314c-0.0377,0.0126 -0.10056,0.0126 -0.18856,0.0126c-0.26399,0 -0.5154,-0.0503 -0.75425,-0.15085c-0.25141,-0.10057 -0.46512,-0.25142 -0.65368,-0.43998c-0.18856,-0.17599 -0.33941,-0.40226 -0.45255,-0.66625c-0.11314,-0.25142 -0.16342,-0.54054 -0.16342,-0.86738v-2.51416c0,-0.0754 -0.0503,-0.12571 -0.12571,-0.12571h-0.69139c-0.088,0 -0.12571,-0.0377 -0.12571,-0.12571l0.0251,-0.43998l1.44564,-1.53364l0.088,-0.0377h0.3897c0.0754,0 0.1257,0.0503 0.1257,0.12571v0.87996c0,0.088 0.0377,0.1257 0.12571,0.1257h0.87996c0.0754,0 0.12571,0.0503 0.12571,0.12571v0.75425c0,0.088 -0.0503,0.12571 -0.12571,0.12571h-0.87996c-0.088,0 -0.12571,0.0503 -0.12571,0.12571v2.51416c0,0.25141 0.088,0.50283 0.27656,0.7291c0.0503,0.0754 0.15085,0.13828 0.27656,0.18856c0.12571,0.0503 0.27656,0.12571 0.47769,0.20114c0.0629,0.0251 0.10057,0.0754 0.10057,0.1257zM268.454,180.53432c0,0.32684 -0.0629,0.61596 -0.16342,0.87995c-0.11314,0.26399 -0.26399,0.49026 -0.46512,0.67882c-0.20114,0.18857 -0.42741,0.32685 -0.70397,0.42741c-0.27655,0.10057 -0.59082,0.15085 -0.93024,0.15085c-0.35198,0 -0.65368,-0.0503 -0.93024,-0.15085c-0.27655,-0.10056 -0.5154,-0.23884 -0.71653,-0.42741c-0.20113,-0.18856 -0.35198,-0.41483 -0.45255,-0.67882c-0.11314,-0.26399 -0.16342,-0.55311 -0.16342,-0.87995v-1.63421c0,-0.31427 0.0503,-0.6034 0.16342,-0.86738c0.10057,-0.26399 0.25142,-0.49027 0.45255,-0.67883c0.20113,-0.18856 0.43998,-0.33941 0.71653,-0.43998c0.27656,-0.10056 0.57826,-0.15084 0.93024,-0.15084c0.33942,0 0.65369,0.0629 0.93024,0.16342c0.27656,0.10056 0.50283,0.25141 0.70397,0.43997c0.20113,0.18857 0.35198,0.41484 0.46512,0.66626c0.10056,0.26398 0.16342,0.55311 0.16342,0.86738zM267.32263,180.53432v-1.63421c0,-0.3017 -0.11314,-0.56568 -0.32685,-0.79196c-0.22627,-0.22627 -0.49026,-0.33941 -0.80453,-0.33941c-0.32684,0 -0.59082,0.11314 -0.80453,0.33941c-0.22627,0.22628 -0.32684,0.49026 -0.32684,0.79196v1.63421c0,0.15084 0.0251,0.30169 0.088,0.43997c0.0503,0.13828 0.13828,0.26399 0.23884,0.36456c0.10057,0.10056 0.21371,0.18856 0.35198,0.23884c0.13828,0.0629 0.28913,0.088 0.45255,0.088c0.31427,0 0.57826,-0.10057 0.80453,-0.32684c0.21371,-0.22628 0.32685,-0.49026 0.32685,-0.80453zM275.15423,178.13329l-1.09366,4.32436c-0.0126,0.0628 -0.0503,0.088 -0.12571,0.088h-0.7291c-0.0754,0 -0.12571,-0.0251 -0.12571,-0.088l-1.59649,-5.40545c0,-0.0126 -0.0126,-0.0251 -0.0126,-0.0251c0,0 0,-0.0126 0,-0.0251c0,-0.0754 0.0377,-0.11314 0.13827,-0.11314h0.91767c0.0251,0 0.0754,0.0377 0.12571,0.088l0.94281,4.03523l1.00567,-4.03523c0.0503,-0.0503 0.088,-0.088 0.1257,-0.088h0.84225c0.0754,0 0.11313,0.0377 0.1257,0.088l1.00567,4.03523l0.93024,-4.03523c0.0126,-0.0503 0.0628,-0.088 0.13828,-0.088h0.91767c0.088,0 0.13827,0.0377 0.13827,0.11314c0,0.0126 -0.0126,0.0251 -0.0126,0.0251c0,0 0,0.0126 0,0.0251l-1.62163,5.40545c-0.0251,0.0628 -0.0754,0.088 -0.12571,0.088h-0.70396c-0.0503,0 -0.10057,-0.0251 -0.12571,-0.088zM284.11722,182.41994c0,0.088 -0.0503,0.1257 -0.12571,0.1257h-0.75425c-0.088,0 -0.1257,-0.0377 -0.1257,-0.1257v-0.16343c0,-0.088 -0.0377,-0.13827 -0.088,-0.13827c-0.0503,0 -0.11314,0.0251 -0.17599,0.0754c-0.0754,0.0503 -0.15085,0.088 -0.23885,0.13828c-0.10056,0.0503 -0.20113,0.10057 -0.31427,0.15085c-0.1257,0.0503 -0.25141,0.0628 -0.38969,0.0628h-0.49026c-0.25142,0 -0.49026,-0.0377 -0.6914,-0.11313c-0.20113,-0.0754 -0.37712,-0.18857 -0.52797,-0.32684c-0.15085,-0.13828 -0.26399,-0.3017 -0.33941,-0.50284c-0.0754,-0.18856 -0.11314,-0.40226 -0.11314,-0.62854v-0.0754c0,-0.22628 0.0377,-0.42741 0.11314,-0.61597c0.0754,-0.18856 0.18856,-0.35198 0.33941,-0.49026c0.15085,-0.13828 0.32684,-0.25142 0.52797,-0.32684c0.20114,-0.0754 0.43998,-0.12571 0.6914,-0.12571h1.44564c0.0754,0 0.12571,-0.0377 0.12571,-0.12571l-0.0126,-0.35198c-0.0251,-0.31427 -0.13828,-0.57826 -0.33941,-0.79196c-0.20114,-0.20113 -0.46512,-0.31427 -0.79196,-0.31427c-0.15085,0 -0.27656,0.0251 -0.3897,0.0754c-0.12571,0.0503 -0.2137,0.12571 -0.28913,0.20114c-0.15085,0.15085 -0.25141,0.27655 -0.31427,0.36455c-0.0628,0.10057 -0.11313,0.13828 -0.15085,0.13828c-0.0251,0 -0.0503,0 -0.0754,-0.0251l-0.76682,-0.40227c-0.0503,-0.0251 -0.0754,-0.0503 -0.0754,-0.10057c0,-0.0503 0.0377,-0.13827 0.12571,-0.28912c0.088,-0.13828 0.23885,-0.3017 0.43998,-0.47769c0.35198,-0.31427 0.85482,-0.47769 1.49593,-0.47769c0.67882,0 1.23193,0.20113 1.6342,0.57825c0.40227,0.3897 0.61597,0.89253 0.62854,1.52107l0.0126,1.65934zM282.98585,180.39604v-0.0503c0,-0.0754 -0.0503,-0.1257 -0.12571,-0.1257h-1.44564c-0.16342,0 -0.3017,0.0628 -0.40227,0.16342c-0.10056,0.10056 -0.15085,0.23884 -0.15085,0.38969v0.20113c0,0.17599 0.0503,0.31427 0.15085,0.41484c0.10057,0.10057 0.23885,0.15085 0.40227,0.15085h0.49026c0.49026,0 0.84224,-0.3017 1.06852,-0.9051zM286.8828,182.41994c0,0.088 -0.0503,0.1257 -0.1257,0.1257h-0.87996c-0.088,0 -0.12571,-0.0377 -0.12571,-0.1257v-7.66819c0,-0.0754 0.0377,-0.12571 0.12571,-0.12571h0.87996c0.0754,0 0.1257,0.0503 0.1257,0.12571zM293.25619,182.35704c0.0126,0.0377 0.0251,0.0629 0.0251,0.088c0,0.0754 -0.0503,0.10056 -0.13828,0.10056h-1.10623l-0.11314,-0.0628l-1.59649,-2.61473c-0.0251,-0.0503 -0.0628,-0.0754 -0.10056,-0.0754c-0.0503,0 -0.0754,0.0251 -0.10057,0.0503l-0.47769,0.49026v2.08676c0,0.088 -0.0503,0.1257 -0.12571,0.1257h-0.87996c-0.088,0 -0.1257,-0.0377 -0.1257,-0.1257v-7.66819c0,-0.0754 0.0377,-0.12571 0.1257,-0.12571h0.87996c0.0754,0 0.12571,0.0503 0.12571,0.12571v3.92209c0,0.10056 0.0377,0.13828 0.11314,0.13828c0.0377,0 0.0754,-0.0126 0.10056,-0.0503l1.67192,-1.83533l0.088,-0.0377h1.06852c0.088,0 0.13828,0.0377 0.13828,0.10057c0,0.0503 -0.0251,0.088 -0.0503,0.11314l-1.63421,1.65934c-0.0377,0.0503 -0.0503,0.088 -0.0503,0.088c0,0.0126 0,0.0377 0.0251,0.0628zM300.74839,182.41994c0,0.088 -0.0503,0.1257 -0.12571,0.1257h-0.75424c-0.088,0 -0.12571,-0.0377 -0.12571,-0.1257v-0.16343c0,-0.088 -0.0377,-0.13827 -0.088,-0.13827c-0.0503,0 -0.11313,0.0251 -0.17599,0.0754c-0.0754,0.0503 -0.15085,0.088 -0.23884,0.13828c-0.10057,0.0503 -0.20114,0.10057 -0.31427,0.15085c-0.12571,0.0503 -0.25142,0.0628 -0.3897,0.0628h-0.49026c-0.25142,0 -0.49026,-0.0377 -0.69139,-0.11313c-0.20114,-0.0754 -0.37713,-0.18857 -0.52798,-0.32684c-0.15085,-0.13828 -0.26398,-0.3017 -0.33941,-0.50284c-0.0754,-0.18856 -0.11314,-0.40226 -0.11314,-0.62854v-0.0754c0,-0.22628 0.0377,-0.42741 0.11314,-0.61597c0.0754,-0.18856 0.18856,-0.35198 0.33941,-0.49026c0.15085,-0.13828 0.32684,-0.25142 0.52798,-0.32684c0.20113,-0.0754 0.43997,-0.12571 0.69139,-0.12571h1.44564c0.0754,0 0.12571,-0.0377 0.12571,-0.12571l-0.0126,-0.35198c-0.0251,-0.31427 -0.13828,-0.57826 -0.33941,-0.79196c-0.20113,-0.20113 -0.46512,-0.31427 -0.79196,-0.31427c-0.15085,0 -0.27656,0.0251 -0.3897,0.0754c-0.1257,0.0503 -0.2137,0.12571 -0.28913,0.20114c-0.15084,0.15085 -0.25141,0.27655 -0.31427,0.36455c-0.0629,0.10057 -0.11313,0.13828 -0.15084,0.13828c-0.0251,0 -0.0503,0 -0.0754,-0.0251l-0.76682,-0.40227c-0.0503,-0.0251 -0.0754,-0.0503 -0.0754,-0.10057c0,-0.0503 0.0377,-0.13827 0.12571,-0.28912c0.088,-0.13828 0.23884,-0.3017 0.43997,-0.47769c0.35199,-0.31427 0.85482,-0.47769 1.49593,-0.47769c0.67882,0 1.23194,0.20113 1.6342,0.57825c0.40227,0.3897 0.61597,0.89253 0.62854,1.52107l0.0126,1.65934zM299.61702,180.39604v-0.0503c0,-0.0754 -0.0503,-0.1257 -0.12571,-0.1257h-1.44564c-0.16342,0 -0.3017,0.0628 -0.40226,0.16342c-0.10057,0.10056 -0.15085,0.23884 -0.15085,0.38969v0.20113c0,0.17599 0.0503,0.31427 0.15085,0.41484c0.10056,0.10057 0.23884,0.15085 0.40226,0.15085h0.49026c0.49026,0 0.84225,-0.3017 1.06852,-0.9051zM305.1356,178.13329l-1.09366,4.32436c-0.0126,0.0628 -0.0503,0.088 -0.12571,0.088h-0.7291c-0.0754,0 -0.12571,-0.0251 -0.12571,-0.088l-1.59649,-5.40545c0,-0.0126 -0.0126,-0.0251 -0.0126,-0.0251c0,0 0,-0.0126 0,-0.0251c0,-0.0754 0.0377,-0.11314 0.13827,-0.11314h0.91767c0.0251,0 0.0754,0.0377 0.12571,0.088l0.94281,4.03523l1.00566,-4.03523c0.0503,-0.0503 0.088,-0.088 0.12571,-0.088h0.84225c0.0754,0 0.11313,0.0377 0.1257,0.088l1.00567,4.03523l0.93024,-4.03523c0.0126,-0.0503 0.0628,-0.088 0.13828,-0.088h0.91766c0.088,0 0.13828,0.0377 0.13828,0.11314c0,0.0126 -0.0126,0.0251 -0.0126,0.0251c0,0 0,0.0126 0,0.0251l-1.62163,5.40545c-0.0251,0.0628 -0.0754,0.088 -0.12571,0.088h-0.70396c-0.0503,0 -0.10057,-0.0251 -0.12571,-0.088zM314.09858,182.41994c0,0.088 -0.0503,0.1257 -0.12571,0.1257h-0.75424c-0.088,0 -0.12571,-0.0377 -0.12571,-0.1257v-0.16343c0,-0.088 -0.0377,-0.13827 -0.088,-0.13827c-0.0503,0 -0.11313,0.0251 -0.17599,0.0754c-0.0754,0.0503 -0.15085,0.088 -0.23884,0.13828c-0.10057,0.0503 -0.20114,0.10057 -0.31427,0.15085c-0.12571,0.0503 -0.25142,0.0628 -0.3897,0.0628h-0.49026c-0.25142,0 -0.49026,-0.0377 -0.69139,-0.11313c-0.20114,-0.0754 -0.37713,-0.18857 -0.52798,-0.32684c-0.15085,-0.13828 -0.26398,-0.3017 -0.33941,-0.50284c-0.0754,-0.18856 -0.11314,-0.40226 -0.11314,-0.62854v-0.0754c0,-0.22628 0.0377,-0.42741 0.11314,-0.61597c0.0754,-0.18856 0.18856,-0.35198 0.33941,-0.49026c0.15085,-0.13828 0.32684,-0.25142 0.52798,-0.32684c0.20113,-0.0754 0.43997,-0.12571 0.69139,-0.12571h1.44564c0.0754,0 0.12571,-0.0377 0.12571,-0.12571l-0.0126,-0.35198c-0.0251,-0.31427 -0.13828,-0.57826 -0.33941,-0.79196c-0.20114,-0.20113 -0.46512,-0.31427 -0.79196,-0.31427c-0.15085,0 -0.27656,0.0251 -0.3897,0.0754c-0.12571,0.0503 -0.2137,0.12571 -0.28913,0.20114c-0.15085,0.15085 -0.25141,0.27655 -0.31427,0.36455c-0.0628,0.10057 -0.11313,0.13828 -0.15085,0.13828c-0.0251,0 -0.0503,0 -0.0754,-0.0251l-0.76682,-0.40227c-0.0503,-0.0251 -0.0754,-0.0503 -0.0754,-0.10057c0,-0.0503 0.0377,-0.13827 0.1257,-0.28912c0.088,-0.13828 0.23885,-0.3017 0.43998,-0.47769c0.35198,-0.31427 0.85482,-0.47769 1.49593,-0.47769c0.67882,0 1.23194,0.20113 1.6342,0.57825c0.40227,0.3897 0.61597,0.89253 0.62854,1.52107l0.0126,1.65934zM312.96721,180.39604v-0.0503c0,-0.0754 -0.0503,-0.1257 -0.12571,-0.1257h-1.44564c-0.16342,0 -0.3017,0.0628 -0.40227,0.16342c-0.10056,0.10056 -0.15084,0.23884 -0.15084,0.38969v0.20113c0,0.17599 0.0503,0.31427 0.15084,0.41484c0.10057,0.10057 0.23885,0.15085 0.40227,0.15085h0.49026c0.49026,0 0.84224,-0.3017 1.06852,-0.9051zM319.88115,183.23704c0,0.70396 -0.20114,1.25708 -0.6034,1.65934c-0.40227,0.40227 -0.95538,0.6034 -1.65935,0.6034c-0.3017,0 -0.56568,-0.0251 -0.80453,-0.10057c-0.23884,-0.0628 -0.4274,-0.15084 -0.56568,-0.26398c-0.25142,-0.17599 -0.42741,-0.35198 -0.55312,-0.5154c-0.12571,-0.15085 -0.17599,-0.28913 -0.17599,-0.40227c0,-0.0251 0.0251,-0.0628 0.0754,-0.088l0.79197,-0.40226c0.0251,-0.0126 0.0503,-0.0251 0.0628,-0.0251c0.0251,0 0.0628,0.0377 0.11314,0.088c0.0754,0.10057 0.13828,0.20114 0.2137,0.27656c0.0628,0.088 0.13828,0.16342 0.2137,0.22627c0.0754,0.0629 0.16342,0.11314 0.26399,0.15085c0.10057,0.0377 0.2137,0.0503 0.36455,0.0503c0.15085,0 0.3017,-0.0251 0.43998,-0.088c0.13828,-0.0503 0.26399,-0.13828 0.36455,-0.23884c0.10057,-0.10057 0.176,-0.22628 0.23885,-0.36456c0.0503,-0.13828 0.088,-0.28913 0.088,-0.43997v-1.04338c0,-0.088 -0.0377,-0.13828 -0.10057,-0.13828c-0.0503,0 -0.10057,0.0251 -0.15085,0.0628c-0.0628,0.0377 -0.13828,0.0754 -0.2137,0.12571c-0.0754,0.0503 -0.176,0.088 -0.27656,0.12571c-0.11314,0.0377 -0.23885,0.0503 -0.3897,0.0503c-0.35198,0 -0.65368,-0.0503 -0.93024,-0.15085c-0.27655,-0.10056 -0.5154,-0.23884 -0.71653,-0.4274c-0.20113,-0.18857 -0.35198,-0.41484 -0.45255,-0.67883c-0.11314,-0.26398 -0.16342,-0.55311 -0.16342,-0.87995v-3.39412c0,-0.0754 0.0377,-0.12571 0.12571,-0.12571h0.87995c0.0754,0 0.12571,0.0503 0.12571,0.12571v3.39412c0,0.15085 0.0251,0.3017 0.088,0.43998c0.0503,0.13827 0.13828,0.26398 0.23884,0.36455c0.10057,0.10056 0.21371,0.18856 0.35198,0.23884c0.13828,0.0629 0.28913,0.088 0.45255,0.088c0.15085,0 0.3017,-0.0251 0.43998,-0.088c0.13828,-0.0503 0.26399,-0.13828 0.36455,-0.23884c0.10057,-0.10057 0.176,-0.22628 0.23885,-0.36455c0.0503,-0.13828 0.088,-0.28913 0.088,-0.43998v-3.39412c0,-0.0754 0.0377,-0.12571 0.1257,-0.12571h0.87996c0.0754,0 0.12571,0.0503 0.12571,0.12571zM324.04208,174.50033c0.33941,0 0.65368,0.0629 0.93024,0.16342c0.27656,0.10057 0.50283,0.25142 0.70396,0.43998c0.20114,0.18856 0.35199,0.41484 0.46512,0.66625c0.10057,0.26399 0.16342,0.55312 0.16342,0.86739c0,0.46512 -0.10056,0.84224 -0.27655,1.14394c-0.176,0.3017 -0.46512,0.54054 -0.86739,0.74168c-0.20113,0.10056 -0.37712,0.18856 -0.52797,0.26398c-0.15085,0.0754 -0.28913,0.16342 -0.40227,0.25142c-0.11314,0.088 -0.20113,0.18856 -0.26399,0.3017c-0.0628,0.11314 -0.088,0.25142 -0.088,0.41484c0,0.10056 0,0.18856 0.0126,0.25141c0.0126,0.0629 0.0251,0.11314 0.0251,0.13828c0,0.10057 -0.0503,0.13828 -0.12571,0.13828h-0.86738c-0.088,0 -0.13828,-0.0503 -0.15085,-0.15085c-0.0251,-0.10057 -0.0251,-0.28913 -0.0251,-0.55312c0,-0.35198 0.0754,-0.65368 0.25141,-0.90509c0.16342,-0.25142 0.42741,-0.46512 0.80453,-0.65368c0.20114,-0.10057 0.3897,-0.20114 0.56569,-0.28913c0.16342,-0.088 0.3017,-0.18857 0.42741,-0.28913c0.11313,-0.10057 0.20113,-0.21371 0.27656,-0.33941c0.0628,-0.12571 0.10056,-0.27656 0.10056,-0.46512c0,-0.15085 -0.0377,-0.3017 -0.088,-0.43998c-0.0629,-0.13828 -0.15085,-0.26399 -0.25142,-0.36455c-0.10057,-0.10057 -0.22627,-0.176 -0.36455,-0.23885c-0.13828,-0.0503 -0.27656,-0.088 -0.42741,-0.088h-0.47769c-0.15085,0 -0.26399,0.0251 -0.36455,0.0628c-0.10057,0.0377 -0.18857,0.088 -0.26399,0.15085c-0.0754,0.0628 -0.15085,0.13828 -0.2137,0.22627c-0.0629,0.088 -0.12571,0.17599 -0.20114,0.26399c-0.0503,0.0503 -0.088,0.0754 -0.11313,0.0754c-0.0251,0 -0.0503,0 -0.0629,-0.0126l-0.79196,-0.40226c-0.0503,-0.0251 -0.0754,-0.0503 -0.0754,-0.088c0,-0.11313 0.0503,-0.23884 0.15085,-0.38969c0.10056,-0.15085 0.23884,-0.28913 0.4274,-0.42741c0.17599,-0.12571 0.40227,-0.23884 0.65368,-0.32684c0.25142,-0.088 0.54055,-0.13828 0.85482,-0.13828zM324.21807,181.97996c0,0.20113 -0.0754,0.36455 -0.20113,0.49026c-0.12571,0.13828 -0.28913,0.20113 -0.49026,0.20113c-0.20114,0 -0.37713,-0.0628 -0.50284,-0.18856c-0.1257,-0.12571 -0.18856,-0.3017 -0.18856,-0.50283c0,-0.20114 0.0629,-0.36456 0.20114,-0.49026c0.1257,-0.12571 0.28912,-0.20114 0.49026,-0.20114c0.18856,0 0.35198,0.0754 0.49026,0.20114c0.12571,0.13827 0.20113,0.3017 0.20113,0.49026z"/></g></g></svg>