<svg version="1.1" xmlns="http://www.w3.org/2000/svg" xmlns:xlink="http://www.w3.org/1999/xlink" width="123.01458" height="69.56646" viewBox="0,0,123.01458,69.56646"><g transform="translate(-178.49272,-145.21677)"><g stroke-miterlimit="10"><path d="M179.49273,180c0,-18.65796 27.09004,-33.78323 60.50729,-33.78323c33.41725,0 60.50729,15.12527 60.50729,33.78323c0,18.65796 -27.09003,33.78323 -60.50729,33.78323c-33.41725,0 -60.50728,-15.12527 -60.50728,-33.78323z" fill="#000000" stroke="#80f7ff" stroke-width="2"/><path d="M228.985,180h-4.69872v-17.708c-1.71673,1.60526 -3.74003,2.79248 -6.06988,3.56167v-4.26397c1.22624,-0.40132 2.55838,-1.15935 3.99643,-2.27411c1.43804,-1.12591 2.4246,-2.43576 2.95969,-3.92954h3.81249z" fill="#ffffff" stroke="none" stroke-width="1.68866"/><path d="M260.44935,200.61752v4.36429h-16.47062c0.17837,-1.64984 0.71345,-3.21051 1.60526,-4.682c0.89182,-1.48263 2.65314,-3.44461 5.28398,-5.88595c2.11804,-1.97313 3.41674,-3.31084 3.89609,-4.01314c0.64656,-0.96984 0.96984,-1.92854 0.96984,-2.87609c0,-1.04788 -0.28427,-1.8505 -0.85279,-2.40788c-0.55738,-0.56853 -1.33214,-0.8528 -2.32428,-0.8528c-0.981,0 -1.76132,0.29542 -2.341,0.88624c-0.57968,0.59082 -0.91411,1.57182 -1.00329,2.94297l-4.682,-0.4682c0.27869,-2.58624 1.15378,-4.44232 2.62527,-5.56824c1.47149,-1.1259 3.31085,-1.68886 5.51807,-1.68886c2.41904,0 4.31971,0.65214 5.70201,1.95641c1.3823,1.30427 2.07346,2.92625 2.07346,4.86593c0,1.10362 -0.20065,2.15707 -0.60197,3.16036c-0.39017,0.99213 -1.01443,2.03444 -1.87281,3.1269c-0.56853,0.7246 -1.59411,1.7669 -3.07674,3.12691c-1.48263,1.36002 -2.4246,2.26298 -2.82592,2.70888c-0.39016,0.4459 -0.70788,0.88065 -0.95312,1.30427z" fill="#ffffff" stroke="none" stroke-width="1.68866"/><path d="M233.23162,192.67484l6.06988,-25.34969h3.52822l-6.13677,25.34969z" fill="#ffffff" stroke="none" stroke-width="1.68866"/></g></g></svg>