<svg version="1.1" xmlns="http://www.w3.org/2000/svg" xmlns:xlink="http://www.w3.org/1999/xlink" width="178.89804" height="27.11675" viewBox="0,0,178.89804,27.11675"><g transform="translate(-150.54331,-166.44162)"><g stroke-miterlimit="10"><path d="M151.21193,180.23442l11.59659,-13.2928h154.90881l11.07073,12.83554l-10.89246,13.28121h-155.09604z" fill="#ffad00" stroke="#80f7ff"/><path d="M228.5064,179.55558c1.0565,0.39963 1.58474,1.13918 1.58474,2.21864c0,0.85898 -0.30776,1.53192 -0.92328,2.01882c-0.31236,0.24345 -0.67524,0.4203 -1.08865,0.53055c-0.40882,0.10565 -0.91639,0.15847 -1.52273,0.15847h-6.42854v-0.22049c0.16536,-0.04593 0.2802,-0.10565 0.34451,-0.17915c0.06431,-0.0735 0.09646,-0.18144 0.09646,-0.32384v-7.95816c0,-0.1424 -0.03215,-0.25034 -0.09646,-0.32384c-0.06431,-0.0735 -0.17914,-0.13321 -0.34451,-0.17915v-0.22049h6.36653c0.61093,0 1.10243,0.04593 1.4745,0.1378c0.37207,0.09187 0.69821,0.24805 0.97841,0.46853c0.55581,0.43638 0.83371,1.06568 0.83371,1.88791c0,0.91869 -0.42489,1.58015 -1.27468,1.98437zM222.62218,178.81833h3.60357c0.54662,0 0.92788,-0.08039 1.14377,-0.24116c0.24345,-0.18374 0.36518,-0.46853 0.36518,-0.85438c0,-0.39504 -0.11484,-0.67524 -0.34451,-0.8406c-0.22967,-0.16996 -0.61782,-0.25494 -1.16444,-0.25494h-3.60357zM222.62218,182.93177h3.48643c0.64768,0 1.11391,-0.08957 1.39871,-0.26872c0.32614,-0.20671 0.4892,-0.54433 0.4892,-1.01286c0,-0.46394 -0.16307,-0.80156 -0.4892,-1.01286c-0.2802,-0.17914 -0.74644,-0.26872 -1.39871,-0.26872h-3.48643zM237.18114,182.55281h-3.54845l-0.39963,0.8406c-0.09646,0.20211 -0.14469,0.36059 -0.14469,0.47542c0,0.22049 0.14699,0.36059 0.44097,0.4203v0.19293h-2.83876v-0.19293c0.17455,-0.02756 0.30317,-0.08039 0.38585,-0.15848c0.08728,-0.07809 0.18833,-0.23197 0.30317,-0.46164l2.81809,-5.70507c0.10565,-0.21589 0.15847,-0.40422 0.15847,-0.56499c0,-0.18833 -0.12862,-0.33532 -0.38585,-0.44097v-0.19293h2.99723v0.19293c-0.25264,0.10106 -0.37896,0.25723 -0.37896,0.46853c0,0.15158 0.05742,0.33762 0.17225,0.5581l2.92144,5.53282c0.16077,0.30317 0.28709,0.50069 0.37896,0.59256c0.09187,0.08728 0.23198,0.14929 0.42031,0.18604v0.18604h-3.14882v-0.18604c0.29857,-0.05053 0.44786,-0.19063 0.44786,-0.4203c0,-0.1424 -0.05742,-0.31924 -0.17226,-0.53054zM236.62304,181.47105l-1.2609,-2.47358l-1.19889,2.47358zM248.66708,181.7191l1.16445,1.69499l-0.15848,0.11713c-0.11024,-0.07809 -0.19752,-0.11713 -0.26183,-0.11713c-0.07809,0 -0.25953,0.08498 -0.54432,0.25494c-0.62931,0.36748 -1.18511,0.62241 -1.66742,0.76481c-0.48231,0.1424 -1.03812,0.2136 -1.66743,0.2136c-1.25861,0 -2.28524,-0.30087 -3.07991,-0.90261c-0.45016,-0.34451 -0.80845,-0.77629 -1.07487,-1.29536c-0.28479,-0.5604 -0.42719,-1.16904 -0.42719,-1.8259c0,-0.90491 0.26183,-1.70417 0.78548,-2.39778c0.82223,-1.08406 2.08313,-1.62608 3.78271,-1.62608c0.62931,0 1.18741,0.0712 1.67432,0.2136c0.49149,0.1424 1.0496,0.39733 1.67431,0.76481c0.28479,0.16996 0.46623,0.25494 0.54432,0.25494c0.06433,0 0.15161,-0.03904 0.26183,-0.11713l0.15848,0.12402l-1.16445,1.68809l-0.15158,-0.11024c0.00467,-0.05512 0.00927,-0.08957 0.0138,-0.10335c0.00467,-0.04134 0.007,-0.0712 0.007,-0.08957c0,-0.22508 -0.31006,-0.48002 -0.93017,-0.76481c-0.58797,-0.27101 -1.18052,-0.40652 -1.77767,-0.40652c-0.83601,0 -1.52503,0.22049 -2.06706,0.66146c-0.62011,0.49609 -0.93017,1.13229 -0.93017,1.90858c0,0.78089 0.31006,1.41938 0.93017,1.91547c0.54662,0.43638 1.23564,0.65457 2.06706,0.65457c0.65227,0 1.30224,-0.16307 1.94992,-0.4892c0.50528,-0.25723 0.75792,-0.48231 0.75792,-0.67524c0,-0.00919 -0.0069,-0.07349 -0.0207,-0.19293zM254.0621,180.96118l-1.09554,0.89572v1.92236c0,0.1424 0.03217,0.25264 0.0965,0.33073c0.06433,0.0735 0.17917,0.13551 0.34451,0.18604v0.18604h-2.72851v-0.19293c0.16077,-0.04134 0.27331,-0.10106 0.33762,-0.17915c0.0689,-0.07809 0.10335,-0.18833 0.10335,-0.33073v-6.31141c0,-0.1424 -0.03217,-0.25034 -0.0965,-0.32384c-0.06433,-0.0735 -0.17917,-0.13551 -0.34451,-0.18604v-0.19293h2.72851v0.19293c-0.16536,0.04593 -0.2802,0.10794 -0.34451,0.18604c-0.06433,0.0735 -0.0965,0.18144 -0.0965,0.32384v2.5287l2.90077,-2.3151c0.21589,-0.16996 0.32384,-0.31925 0.32384,-0.44786c0,-0.1378 -0.13321,-0.22967 -0.39963,-0.27561v-0.19293h3.47265v0.18604c-0.17455,0.02756 -0.32154,0.08038 -0.44097,0.15847c-0.11484,0.07809 -0.40423,0.31925 -0.86816,0.72347l-2.60449,2.07395l2.86631,3.29351c0.36748,0.42719 0.62931,0.7051 0.78548,0.83371c0.16077,0.12862 0.34451,0.21589 0.55122,0.26183v0.18604h-3.37619v-0.18604c0.25264,-0.05971 0.37896,-0.15158 0.37896,-0.27561c0,-0.04593 -0.01607,-0.08957 -0.0482,-0.13091c-0.02753,-0.04593 -0.13318,-0.17455 -0.31695,-0.38585z" fill="#ffffff" stroke="none"/></g></g></svg>