<svg version="1.1" xmlns="http://www.w3.org/2000/svg" xmlns:xlink="http://www.w3.org/1999/xlink" width="8.10011" height="13.50007" viewBox="0,0,8.10011,13.50007"><g transform="translate(-180.70755,-170.95474)"><g data-paper-data="{&quot;isPaintingLayer&quot;:true}" fill="#000000" fill-rule="evenodd" stroke="#000000" stroke-width="0" stroke-linecap="round" stroke-linejoin="miter" stroke-miterlimit="10" stroke-dasharray="" stroke-dashoffset="0" style="mix-blend-mode: normal"><path d="M186.10762,184.45476h-2.7c-0.23316,0.00125 -0.46579,-0.02221 -0.694,-0.07c-0.13817,-0.02966 -0.2739,-0.06977 -0.406,-0.12c-0.19839,-0.07426 -0.38735,-0.1716 -0.563,-0.29c-0.1016,-0.06895 -0.19757,-0.14586 -0.287,-0.23c-0.233,-0.22 -0.417,-0.483 -0.55,-0.79c-0.12033,-0.27946 -0.18747,-0.57891 -0.198,-0.883c-0.00147,-0.03898 -0.00214,-0.07799 -0.002,-0.117v-0.2c-0.00078,-0.16795 0.01802,-0.33541 0.056,-0.499c0.01929,-0.08188 0.04401,-0.1624 0.074,-0.241c0.03803,-0.10073 0.08383,-0.19836 0.137,-0.292c0.05442,-0.09607 0.11914,-0.18593 0.193,-0.268c0.187,-0.187 0.342,-0.335 0.465,-0.445c0.02475,-0.02195 0.04975,-0.04362 0.075,-0.065c0.02652,-0.02237 0.05221,-0.04572 0.077,-0.07c0.075,-0.074 0.115,-0.135 0.122,-0.185c0.00068,-0.00497 0.00101,-0.00999 0.001,-0.015c-0.00044,-0.02998 -0.00412,-0.05982 -0.011,-0.089c-0.014,-0.061 -0.04,-0.134 -0.079,-0.219c-0.01585,-0.03439 -0.03253,-0.0684 -0.05,-0.102c-0.076,-0.147 -0.122,-0.329 -0.135,-0.543c-0.00324,-0.04894 -0.00491,-0.09796 -0.005,-0.147c-0.00032,-0.10685 0.00469,-0.21365 0.015,-0.32c0.022,-0.216 0.067,-0.39 0.136,-0.523c0.01187,-0.02298 0.02489,-0.04533 0.039,-0.067c0.02225,-0.03363 0.04392,-0.06763 0.065,-0.102c0.065,-0.107 0.104,-0.189 0.119,-0.245c0.00377,-0.01403 0.0058,-0.02848 0.006,-0.043c-0.00075,-0.01118 -0.00382,-0.02207 -0.009,-0.032c-0.024,-0.05 -0.09,-0.132 -0.201,-0.248c-0.14,-0.147 -0.33,-0.373 -0.57,-0.68c-0.06562,-0.08465 -0.12352,-0.17501 -0.173,-0.27c-0.074,-0.139 -0.139,-0.299 -0.197,-0.48c-0.07005,-0.22268 -0.11532,-0.45239 -0.135,-0.685c-0.01012,-0.11472 -0.01512,-0.22984 -0.015,-0.345v-0.18c-0.00234,-0.375 0.05782,-0.74777 0.178,-1.103c0.02749,-0.0802 0.05818,-0.15926 0.092,-0.237c0.18,-0.413 0.43,-0.773 0.75,-1.08c0.30462,-0.28959 0.65985,-0.52076 1.048,-0.682c0.03051,-0.01306 0.06117,-0.02572 0.092,-0.038c0.36102,-0.14033 0.74146,-0.22432 1.128,-0.249c0.10384,-0.00729 0.2079,-0.01096 0.312,-0.011c0.12045,-0.00044 0.24077,0.00792 0.36,0.025c0.10866,0.01557 0.21574,0.04066 0.32,0.075c0.09221,0.0305 0.18297,0.0652 0.272,0.104c0.089,0.039 0.171,0.081 0.246,0.125c0.00066,0.00034 0.00134,0.00066 0.002,0.001c0.06099,0.03601 0.12199,0.07201 0.183,0.108c0.074,0.044 0.143,0.085 0.207,0.122c0.113,0.067 0.203,0.1 0.27,0.1c0.04748,0.0025 0.09175,-0.02398 0.112,-0.067c0.019,-0.036 0.028,-0.087 0.028,-0.153v-0.24c-0.00034,-0.02667 0.00303,-0.05326 0.01,-0.079c0.023,-0.081 0.086,-0.121 0.19,-0.121h1.2c0.02667,-0.00034 0.05326,0.00303 0.079,0.01c0.081,0.023 0.121,0.086 0.121,0.19v3.38c0.00234,0.375 -0.05782,0.74777 -0.178,1.103c-0.02749,0.0802 -0.05818,0.15926 -0.092,0.237c-0.17526,0.40653 -0.43029,0.77377 -0.75,1.08c-0.32,0.307 -0.7,0.547 -1.14,0.72c-0.36102,0.14033 -0.74146,0.22431 -1.128,0.249c-0.10384,0.00729 -0.20791,0.01097 -0.312,0.011c-0.067,0 -0.147,-0.003 -0.24,-0.01c-0.064,-0.004 -0.138,-0.011 -0.221,-0.018c-0.03968,-0.00386 -0.07934,-0.00787 -0.119,-0.012c-0.07971,0.0451 -0.15563,0.0966 -0.227,0.154c-0.073,0.061 -0.133,0.123 -0.178,0.187c-0.07343,0.09788 -0.11372,0.21664 -0.115,0.339c0,0.293 0.18,0.52 0.54,0.68h2.36c0.4,0 0.767,0.063 1.1,0.19c0.21015,0.07846 0.40917,0.18402 0.592,0.314c0.09122,0.06554 0.17745,0.13773 0.258,0.216c0.233,0.227 0.417,0.49 0.55,0.79c0.10998,0.25039 0.17531,0.51809 0.193,0.791c0.00471,0.06623 0.00704,0.13261 0.007,0.199v0.2c0.00134,0.22374 -0.0269,0.44667 -0.084,0.663c-0.03015,0.11184 -0.06893,0.22116 -0.116,0.327c-0.133,0.3 -0.317,0.563 -0.55,0.79c-0.19523,0.18821 -0.42114,0.34175 -0.668,0.454c-0.05976,0.02744 -0.12047,0.05279 -0.182,0.076c-0.24758,0.09287 -0.5066,0.15174 -0.77,0.175c-0.1097,0.01013 -0.21983,0.01513 -0.33,0.015zM186.10762,174.53476v-0.18c0,-0.493 -0.173,-0.917 -0.52,-1.27c-0.32478,-0.33928 -0.77432,-0.53081 -1.244,-0.53c-0.012,-0.0001 -0.024,-0.0001 -0.036,0c-0.20973,-0.00144 -0.41814,0.03341 -0.616,0.103c-0.03169,0.01141 -0.06303,0.02375 -0.094,0.037c-0.22,0.093 -0.41,0.223 -0.57,0.39c-0.16,0.167 -0.287,0.36 -0.38,0.58c-0.093,0.22 -0.14,0.45 -0.14,0.69v0.18c0,0.24 0.047,0.47 0.14,0.69c0.093,0.22 0.22,0.413 0.38,0.58c0.16135,0.16759 0.35534,0.30032 0.57,0.39c0.22,0.093 0.457,0.14 0.71,0.14c0.26183,0.00349 0.52126,-0.05044 0.76,-0.158c0.1946,-0.09119 0.37084,-0.21728 0.52,-0.372c0.3376,-0.33336 0.52528,-0.78957 0.52,-1.264c0,-0.002 0,-0.004 0,-0.006zM187.00762,181.95476v-0.2c0.00085,-0.22961 -0.09026,-0.45002 -0.253,-0.612c-0.0056,-0.00606 -0.01127,-0.01206 -0.017,-0.018c-0.07999,-0.08168 -0.17419,-0.1481 -0.278,-0.196c-0.11067,-0.04961 -0.23072,-0.07485 -0.352,-0.074h-2.7c-0.22961,-0.00085 -0.45002,0.09026 -0.612,0.253c-0.00606,0.0056 -0.01206,0.01127 -0.018,0.017c-0.08168,0.07999 -0.1481,0.17419 -0.196,0.278c-0.04961,0.11067 -0.07485,0.23072 -0.074,0.352v0.2c0,0.24 0.087,0.45 0.26,0.63c0.15955,0.17076 0.38231,0.2684 0.616,0.27c0.008,0.00009 0.016,0.00009 0.024,0h2.7c0.22996,0.00112 0.45077,-0.09001 0.613,-0.253c0.00573,-0.00561 0.01139,-0.01128 0.017,-0.017c0.08168,-0.07999 0.1481,-0.17419 0.196,-0.278c0.04961,-0.11067 0.07485,-0.23072 0.074,-0.352z"/></g></g></svg>