<svg version="1.1" xmlns="http://www.w3.org/2000/svg" xmlns:xlink="http://www.w3.org/1999/xlink" width="210.48644" height="297" viewBox="0,0,210.48644,297"><defs><linearGradient x1="135" y1="180" x2="345" y2="180" gradientUnits="userSpaceOnUse" id="color-1"><stop offset="0" stop-color="#07133a"/><stop offset="1" stop-color="#663aa2"/></linearGradient></defs><g transform="translate(-134.75678,-31.5)"><g data-paper-data="{&quot;isPaintingLayer&quot;:true}" stroke-linecap="butt" stroke-linejoin="miter" stroke-dasharray="" stroke-dashoffset="0" style="mix-blend-mode: normal"><path d="M136.15876,31.5h207.68248c0.64195,0 1.15876,0.51681 1.15876,1.15876v294.68248c0,0.64195 -0.51681,1.15876 -1.15876,1.15876h-207.68248c-0.64195,0 -1.15876,-0.51681 -1.15876,-1.15876v-294.68248c0,-0.64195 0.51681,-1.15876 1.15876,-1.15876z" fill="url(#color-1)" fill-rule="nonzero" stroke="none" stroke-width="2" stroke-miterlimit="10"/><g fill="none" fill-rule="evenodd" stroke="#8b91ff" stroke-width="0.5"><path d="M239.86892,282.14465v-209.72428" stroke-miterlimit="10"/><path d="M213.65339,72.42037v209.72428" stroke-miterlimit="4"/><path d="M187.43785,72.42037v209.72428" stroke-miterlimit="4"/><path d="M161.22231,72.42037v209.72428" stroke-miterlimit="4"/><path d="M135.00678,72.42037v209.72428" stroke-miterlimit="4"/><path d="M239.86892,72.42037h-104.86214" stroke-miterlimit="4"/><path d="M239.86892,98.63591h-104.86214" stroke-miterlimit="4"/><path d="M239.86892,124.85144h-104.86214" stroke-miterlimit="4"/><path d="M239.86892,151.06698h-104.86214" stroke-miterlimit="4"/><path d="M239.86892,177.28251h-104.86214" stroke-miterlimit="4"/><path d="M239.86892,203.49805h-104.86214" stroke-miterlimit="4"/><path d="M239.86892,229.71358h-104.86214" stroke-miterlimit="4"/><path d="M239.86892,255.92912h-104.86214" stroke-miterlimit="4"/><path d="M239.86892,282.14465h-104.86214" stroke-miterlimit="4"/></g><g fill="none" fill-rule="evenodd" stroke="#8b91ff" stroke-width="0.5"><path d="M344.99322,72.42037v209.72428" stroke-miterlimit="10"/><path d="M318.77768,72.42037v209.72428" stroke-miterlimit="4"/><path d="M292.56215,282.14465v-209.72428" stroke-miterlimit="4"/><path d="M266.34661,282.14465v-209.72428" stroke-miterlimit="4"/><path d="M240.13108,72.42037v209.72428" stroke-miterlimit="4"/><path d="M240.13108,72.42037h104.86214" stroke-miterlimit="4"/><path d="M344.99322,98.63591h-104.86214" stroke-miterlimit="4"/><path d="M344.99322,124.85144h-104.86214" stroke-miterlimit="4"/><path d="M344.99322,151.06698h-104.86214" stroke-miterlimit="4"/><path d="M240.13108,177.28251h104.86214" stroke-miterlimit="4"/><path d="M344.99322,203.49805h-104.86214" stroke-miterlimit="4"/><path d="M344.99322,229.71358h-104.86214" stroke-miterlimit="4"/><path d="M344.99322,255.92912h-104.86214" stroke-miterlimit="4"/><path d="M344.99322,282.14465h-104.86214" stroke-miterlimit="4"/></g><path d="M171.56211,319.27531c0,0.0904 0,0.13557 0,0.13557l0.04519,0.0452c0,0.27115 -0.18077,0.40672 -0.4971,0.40672h-3.38934c-0.27115,0 -0.45191,-0.0904 -0.45191,-0.31634l-1.67207,-5.96523c-0.04519,-0.18077 -0.18077,-0.27115 -0.45191,-0.27115h-7.32098c-0.27115,0 -0.45191,0.0904 -0.45191,0.27115l-1.67207,5.96523c-0.04519,0.22596 -0.18077,0.31634 -0.45191,0.31634h-3.38934c-0.36153,0 -0.4971,-0.13557 -0.4971,-0.40672v-0.0452c0,0 0.04519,-0.0452 0.04519,-0.13557l8.40556,-27.56663c0,-0.18077 0.18076,-0.31634 0.45191,-0.31634h2.44033c0.18077,0 0.36153,0.13557 0.45191,0.31634zM164.28632,309.10729l-2.16918,-8.49595c-0.09038,-0.22595 -0.13557,-0.4971 -0.22596,-0.85863c-0.09038,-0.31634 -0.22596,-0.67787 -0.31634,-1.12978h-0.18077l-0.54229,2.0336l-2.21437,8.45076c0,0.0904 -0.04519,0.13557 -0.04519,0.13557v0.0452c0,0.27115 0.13557,0.40672 0.4971,0.40672h4.74508c0.31634,0 0.4971,-0.13557 0.4971,-0.40672c0,0 -0.04519,-0.0452 -0.04519,-0.0904c0,0 0,-0.0452 0,-0.0904z" fill="#f9f9f9" fill-rule="nonzero" stroke="none" stroke-width="7.18986" stroke-miterlimit="10"/><path d="M222.65544,311.81876c0,2.53071 -0.72306,4.47393 -2.16918,5.92005c-1.44612,1.44611 -3.43453,2.12398 -5.96524,2.12398h-9.03824c-0.31634,0 -0.45191,-0.13557 -0.45191,-0.45191v-27.56663c0,-0.27115 0.13557,-0.45191 0.45191,-0.45191h9.03824c2.48552,0 4.47393,0.76825 5.92005,2.21437c1.44612,1.44611 2.21437,3.43453 2.21437,5.92004v0.45191c0,1.17498 -0.4971,2.39514 -1.40093,3.66049c-0.40672,0.5423 -0.76825,0.94902 -1.12978,1.22016c-0.36153,0.27115 -0.54229,0.45192 -0.54229,0.58749c0,0.18076 0.18076,0.36153 0.54229,0.63268c0.36153,0.27114 0.72306,0.72306 1.12978,1.31054c0.90382,1.40093 1.40093,2.66628 1.40093,3.75087zM218.58823,299.52675v-0.45191c0,-1.12978 -0.40672,-2.07879 -1.17497,-2.89224c-0.81344,-0.76825 -1.76246,-1.17497 -2.89224,-1.17497h-4.97103c-0.31634,0 -0.45191,0.18077 -0.45191,0.45191v7.68251c0,0.31634 0.13557,0.45191 0.45191,0.45191h4.97103c1.12978,0 2.0788,-0.36153 2.89224,-1.17497c0.76825,-0.76825 1.17497,-1.71727 1.17497,-2.89224zM218.58823,312.18029v-0.90383c0,-1.08458 -0.40672,-2.0336 -1.17497,-2.84704c-0.81344,-0.81344 -1.76246,-1.22016 -2.89224,-1.22016h-4.97103c-0.31634,0 -0.45191,0.18076 -0.45191,0.45191v8.13441c0,0.31634 0.13557,0.45192 0.45191,0.45192h4.97103c1.12978,0 2.0788,-0.36153 2.89224,-1.17497c0.76825,-0.81345 1.17497,-1.76246 1.17497,-2.89224z" fill="#f9f9f9" fill-rule="nonzero" stroke="none" stroke-width="7.18986" stroke-miterlimit="10"/><path d="M273.40984,315.34367c0.18077,0.0904 0.27115,0.22596 0.27115,0.31634c0,0.18077 -0.18077,0.4971 -0.45191,1.0394c-0.27115,0.54229 -0.76825,1.08459 -1.44612,1.71726c-1.35574,1.26536 -3.25377,1.89803 -5.6489,1.89803h-1.35574c-1.26535,0 -2.34994,-0.18076 -3.34415,-0.54229c-0.9942,-0.36153 -1.85284,-0.85863 -2.57589,-1.5365c-0.72306,-0.67787 -1.26536,-1.49131 -1.62689,-2.44033c-0.40672,-0.94901 -0.58748,-1.98841 -0.58748,-3.16338v-14.00927c0,-1.12978 0.18076,-2.16918 0.58748,-3.11819c0.36153,-0.94902 0.90383,-1.76246 1.62689,-2.44033c0.72305,-0.67787 1.58169,-1.22016 2.57589,-1.58169c0.99421,-0.36153 2.0788,-0.5423 3.34415,-0.5423h1.35574c1.08459,0 2.12399,0.18077 3.02781,0.49711c0.90382,0.31634 1.71726,0.67787 2.39513,1.12978c0.63268,0.45191 1.17497,0.94901 1.5365,1.49131c0.36153,0.54229 0.5423,0.9942 0.5423,1.44612c0,0.18076 -0.0904,0.27114 -0.27115,0.36153l-2.89224,1.44611c-0.0904,0.0452 -0.13557,0.0452 -0.22595,0.0452c-0.13558,0 -0.27115,-0.0904 -0.36153,-0.27115c-0.5423,-0.67787 -1.0394,-1.26536 -1.5365,-1.76246c-0.5423,-0.4971 -1.26536,-0.76825 -2.21437,-0.76825h-1.35574c-1.17497,0 -2.12398,0.40672 -2.89223,1.17497c-0.81345,0.81344 -1.17498,1.76246 -1.17498,2.89224v14.00927c0,1.17497 0.36153,2.12399 1.17498,2.89224c0.76825,0.81344 1.71726,1.17497 2.89223,1.17497h1.35574c0.54229,0 0.99421,-0.0904 1.44612,-0.27115c0.45191,-0.18076 0.76825,-0.40672 0.9942,-0.67787c0.49711,-0.58748 0.85864,-1.03939 1.12978,-1.40092c0.22596,-0.36153 0.40672,-0.5423 0.58749,-0.5423c0.0452,0 0.13557,0.0452 0.27115,0.0904z" fill="#f9f9f9" fill-rule="nonzero" stroke="none" stroke-width="7.18986" stroke-miterlimit="10"/><path d="M327.46801,311.72838c0,2.5307 -0.72305,4.51912 -2.16917,5.96524c-1.44612,1.44611 -3.43453,2.16917 -5.96524,2.16917h-9.03824c-0.31634,0 -0.45191,-0.13557 -0.45191,-0.45191v-27.56663c0,-0.27115 0.13557,-0.45191 0.45191,-0.45191h9.03824c2.48551,0 4.47393,0.76825 5.92005,2.21437c1.44611,1.44611 2.21436,3.43453 2.21436,5.92004zM323.40081,312.18029v-13.10545c0,-1.12978 -0.40672,-2.07879 -1.17497,-2.89224c-0.81345,-0.76825 -1.76246,-1.17497 -2.89224,-1.17497h-4.97103c-0.31634,0 -0.45192,0.18077 -0.45192,0.45191v20.33604c0,0.31634 0.13558,0.45192 0.45192,0.45192h4.97103c1.12978,0 2.07879,-0.36153 2.89224,-1.17497c0.76825,-0.81345 1.17497,-1.76246 1.17497,-2.89224z" fill="#f9f9f9" fill-rule="nonzero" stroke="none" stroke-width="7.18986" stroke-miterlimit="10"/></g></g></svg>