<svg version="1.1" xmlns="http://www.w3.org/2000/svg" xmlns:xlink="http://www.w3.org/1999/xlink" width="10.86003" height="12.80006" viewBox="0,0,10.86003,12.80006"><g transform="translate(-336.90316,-166.80454)"><g data-paper-data="{&quot;isPaintingLayer&quot;:true}" fill="#000000" fill-rule="evenodd" stroke="#000000" stroke-width="0" stroke-linecap="round" stroke-linejoin="miter" stroke-miterlimit="10" stroke-dasharray="" stroke-dashoffset="0" style="mix-blend-mode: normal"><path d="M347.74318,167.14455l-0.4,1.16c-0.039,0.091 -0.104,0.138 -0.194,0.14c-0.002,0.00002 -0.004,0.00002 -0.006,0c-0.02866,-0.00307 -0.05733,-0.00607 -0.086,-0.009c-0.083,-0.009 -0.154,-0.016 -0.214,-0.021c-0.08,-0.007 -0.14,-0.01 -0.18,-0.01c-0.26157,-0.00303 -0.52064,0.05124 -0.759,0.159c-0.19488,0.09079 -0.37146,0.21653 -0.521,0.371c-0.3376,0.33336 -0.52528,0.78958 -0.52,1.264c0,0.002 0,0.004 0,0.006v1.1c-0.00034,0.02667 0.00302,0.05326 0.01,0.079c0.023,0.081 0.086,0.121 0.19,0.121h1.4c0.106,0 0.17,0.042 0.191,0.126c0.00612,0.02419 0.00914,0.04905 0.009,0.074v1.2c0.00034,0.02667 -0.00302,0.05326 -0.01,0.079c-0.023,0.081 -0.086,0.121 -0.19,0.121h-1.4c-0.02667,-0.00034 -0.05326,0.00302 -0.079,0.01c-0.081,0.023 -0.121,0.086 -0.121,0.19v6.1c0.00034,0.02667 -0.00302,0.05326 -0.01,0.079c-0.023,0.081 -0.086,0.121 -0.19,0.121h-1.4c-0.02667,0.00034 -0.05326,-0.00302 -0.079,-0.01c-0.059,-0.017 -0.097,-0.056 -0.112,-0.116c-0.00612,-0.02419 -0.00914,-0.04905 -0.009,-0.074v-6.1c0.00034,-0.02667 -0.00302,-0.05326 -0.01,-0.079c-0.023,-0.081 -0.086,-0.121 -0.19,-0.121h-3.06c-0.02667,-0.00034 -0.05326,0.00302 -0.079,0.01c-0.081,0.023 -0.121,0.086 -0.121,0.19v6.1c0.00034,0.02667 -0.00302,0.05326 -0.01,0.079c-0.017,0.059 -0.056,0.097 -0.116,0.113c-0.02423,0.00578 -0.04909,0.00847 -0.074,0.008h-1.4c-0.02667,0.00034 -0.05326,-0.00302 -0.079,-0.01c-0.059,-0.017 -0.097,-0.056 -0.112,-0.116c-0.00612,-0.02419 -0.00914,-0.04905 -0.009,-0.074v-6.1c0.00034,-0.02667 -0.00302,-0.05326 -0.01,-0.079c-0.023,-0.081 -0.086,-0.121 -0.19,-0.121h-0.5c-0.02667,0.00034 -0.05326,-0.00302 -0.079,-0.01c-0.081,-0.023 -0.121,-0.086 -0.121,-0.19v-1.2c-0.00034,-0.02667 0.00302,-0.05326 0.01,-0.079c0.017,-0.059 0.056,-0.097 0.116,-0.112c0.02419,-0.00612 0.04905,-0.00914 0.074,-0.009h0.5c0.02667,0.00034 0.05326,-0.00302 0.079,-0.01c0.081,-0.023 0.121,-0.086 0.121,-0.19v-0.9c-0.00255,-0.41953 0.06748,-0.83634 0.207,-1.232c0.0225,-0.06336 0.04684,-0.12606 0.073,-0.188c0.17936,-0.42931 0.44482,-0.8173 0.78,-1.14c0.3045,-0.29 0.65664,-0.52544 1.041,-0.696c0.04925,-0.02228 0.09893,-0.04362 0.149,-0.064c0.37741,-0.15107 0.77634,-0.24152 1.182,-0.268c0.10916,-0.00791 0.21856,-0.01192 0.328,-0.012c0.693,0 1.3,0.16 1.82,0.48c0.06221,0.03882 0.12388,0.07849 0.185,0.119c0.112,0.074 0.205,0.141 0.28,0.2c0.00839,0.00694 0.01672,0.01394 0.025,0.021c0.01969,0.01638 0.0397,0.03238 0.06,0.048c0.062,0.047 0.11,0.076 0.144,0.087c0.00836,0.00298 0.01713,0.00467 0.026,0.005c0.0194,-0.00039 0.03863,-0.00376 0.057,-0.01c0.034,-0.01 0.072,-0.03 0.114,-0.059c0.00981,-0.00679 0.01948,-0.0138 0.029,-0.021c0.03017,-0.02237 0.06084,-0.04404 0.092,-0.065c0.032,-0.022 0.067,-0.045 0.105,-0.069c0.04069,-0.02584 0.08169,-0.05117 0.123,-0.076c0.09314,-0.05168 0.18517,-0.10536 0.276,-0.161c0.03146,-0.01946 0.0628,-0.03913 0.094,-0.059c0.08076,-0.05082 0.16422,-0.09722 0.25,-0.139c0.05918,-0.02879 0.1192,-0.05581 0.18,-0.081c0.09427,-0.03903 0.19077,-0.07242 0.289,-0.1c0.08285,-0.02327 0.16658,-0.04329 0.251,-0.06c0.09326,-0.01833 0.18738,-0.03202 0.282,-0.041c0.096,-0.009 0.199,-0.015 0.307,-0.018c0.037,-0.00074 0.074,-0.00107 0.111,-0.001c0.387,0 0.667,0.017 0.84,0.05c0.03223,0.00602 0.06398,0.01437 0.095,0.025c0.074,0.026 0.123,0.062 0.147,0.109c0.01207,0.0235 0.01825,0.04958 0.018,0.076c-0.00002,0.01349 -0.00169,0.02692 -0.005,0.04c-0.003,0.011 -0.007,0.022 -0.011,0.033c-0.00129,0.00236 -0.00262,0.00469 -0.004,0.007zM343.16318,169.44455l-0.04,-0.16c-0.15921,-0.16905 -0.33398,-0.32272 -0.522,-0.459c-0.215,-0.154 -0.432,-0.265 -0.651,-0.335c-0.1768,-0.05674 -0.36132,-0.08575 -0.547,-0.086c-0.26157,-0.00303 -0.52064,0.05124 -0.759,0.159c-0.19488,0.09079 -0.37146,0.21653 -0.521,0.371c-0.3376,0.33336 -0.52528,0.78958 -0.52,1.264c0,0.002 0,0.004 0,0.006v1.1c-0.00034,0.02667 0.00302,0.05326 0.01,0.079c0.017,0.059 0.056,0.097 0.116,0.113c0.02423,0.00578 0.04909,0.00847 0.074,0.008h3.06c0.02667,0.00034 0.05326,-0.00302 0.079,-0.01c0.081,-0.023 0.121,-0.086 0.121,-0.19v-0.9c-0.0002,-0.13644 0.00414,-0.27285 0.013,-0.409c0.00208,-0.03035 0.00441,-0.06069 0.007,-0.091c0.0121,-0.15062 0.03753,-0.29987 0.076,-0.446c0.00132,-0.00467 0.00265,-0.00934 0.004,-0.014z"/></g></g></svg>