<svg version="1.1" xmlns="http://www.w3.org/2000/svg" xmlns:xlink="http://www.w3.org/1999/xlink" width="194.67226" height="83.07443" viewBox="0,0,194.67226,83.07443"><defs><linearGradient x1="142.66387" y1="180" x2="337.33613" y2="180" gradientUnits="userSpaceOnUse" id="color-1"><stop offset="0" stop-color="#ffdd55"/><stop offset="1" stop-color="#fffb9d"/></linearGradient></defs><g transform="translate(-142.66387,-138.46279)"><g data-paper-data="{&quot;isPaintingLayer&quot;:true}" fill-rule="nonzero" stroke-linecap="butt" stroke-linejoin="miter" stroke-miterlimit="10" stroke-dasharray="" stroke-dashoffset="0" style="mix-blend-mode: normal"><path d="M142.66387,221.53721c0,0 0,-0.40428 0,-0.90298v-81.26846c0,-0.4987 0,-0.90298 0,-0.90298h194.67226c0,0 0,0.40428 0,0.90298v81.26846c0,0.4987 0,0.90298 0,0.90298z" fill="url(#color-1)" stroke="none" stroke-width="0.45055"/><path d="M151.33266,214.21639c0,0 0,-0.33303 0,-0.74383v-66.94512c0,-0.41081 0,-0.74383 0,-0.74383h177.33469c0,0 0,0.33303 0,0.74383v66.94512c0,0.41081 0,0.74383 0,0.74383z" fill="none" stroke="#000000" stroke-width="0.39029"/><path d="M166.44923,151.03489l-1.62163,7.66819c-0.02514,0.0754 -0.06285,0.10056 -0.12571,0.10056h-0.71654c-0.07542,0 -0.12571,-0.0251 -0.12571,-0.088l-1.44564,-5.56887l-1.48335,5.56887c-0.01257,0.0628 -0.05028,0.088 -0.12571,0.088h-0.71654c-0.07542,0 -0.11314,-0.0251 -0.12571,-0.10056l-1.62163,-7.66819c0,0 -0.01257,-0.0126 -0.01257,-0.0251c0,0 0,-0.0126 0,-0.0251c0,-0.0628 0.03771,-0.10056 0.13828,-0.10056h0.91767c0.06285,0 0.10057,0.0377 0.12571,0.10056l1.09366,5.79514l1.47078,-5.83285c0,-0.0503 0.05028,-0.088 0.12571,-0.088h0.38969c0.07542,0 0.11314,0.0377 0.12571,0.088l1.49592,5.83285l1.06852,-5.79514c0.01257,-0.0628 0.05028,-0.10056 0.12571,-0.10056h0.91767c0.088,0 0.13828,0.0377 0.13828,0.10056c0,0.0126 -0.01257,0.0251 -0.01257,0.0251c0,0.0126 0,0.0251 0,0.0251zM168.66169,151.44972c0,0.20114 -0.07542,0.36456 -0.20113,0.49027c-0.13828,0.13827 -0.3017,0.20113 -0.49026,0.20113c-0.20113,0 -0.36455,-0.0629 -0.49026,-0.18856c-0.13828,-0.12571 -0.20113,-0.3017 -0.20113,-0.50284c0,-0.18856 0.06285,-0.35198 0.20113,-0.49026c0.12571,-0.1257 0.28913,-0.20113 0.49026,-0.20113c0.18856,0 0.35198,0.0754 0.49026,0.20113c0.12571,0.13828 0.20113,0.3017 0.20113,0.49026zM168.53598,158.67793c0,0.088 -0.05028,0.12571 -0.12571,0.12571h-0.87996c-0.08799,0 -0.12571,-0.0377 -0.12571,-0.12571v-5.40544c0,-0.0754 0.03771,-0.12571 0.12571,-0.12571h0.87996c0.07543,0 0.12571,0.0503 0.12571,0.12571zM174.69566,158.67793c0,0.088 -0.05028,0.12571 -0.12571,0.12571h-0.87996c-0.088,0 -0.12571,-0.0377 -0.12571,-0.12571v-3.39411c0,-0.15085 -0.03771,-0.28913 -0.088,-0.42741c-0.06285,-0.13828 -0.13828,-0.26399 -0.23885,-0.36455c-0.10057,-0.10057 -0.22627,-0.18856 -0.36455,-0.25142c-0.13828,-0.0503 -0.28913,-0.088 -0.43998,-0.088c-0.32684,0 -0.59083,0.11313 -0.80453,0.33941c-0.22627,0.22627 -0.32684,0.49026 -0.32684,0.79196v3.39411c0,0.088 -0.05028,0.12571 -0.12571,0.12571h-0.87996c-0.088,0 -0.12571,-0.0377 -0.12571,-0.12571v-5.40544c0,-0.0754 0.03771,-0.12571 0.12571,-0.12571h0.75425c0.07543,0 0.12571,0.0503 0.12571,0.12571v0.15085c0,0.10057 0.02514,0.13828 0.088,0.13828c0.03771,0 0.08799,-0.0126 0.16342,-0.0629c0.06285,-0.0377 0.15085,-0.088 0.25142,-0.13827c0.10057,-0.0503 0.2137,-0.10057 0.35198,-0.15085c0.13828,-0.0377 0.3017,-0.0629 0.49026,-0.0629c0.31427,0 0.6034,0.0629 0.86738,0.16342c0.26399,0.10057 0.49026,0.25142 0.69139,0.43998c0.18856,0.18856 0.33941,0.41484 0.45255,0.66625c0.10057,0.26399 0.16342,0.55312 0.16342,0.86739zM183.41981,156.79231c0,0.32685 -0.06285,0.61597 -0.16342,0.87996c-0.11314,0.26399 -0.26399,0.49026 -0.46512,0.67882c-0.20113,0.18857 -0.42741,0.32684 -0.70397,0.42741c-0.27656,0.10057 -0.59083,0.15085 -0.93024,0.15085h-0.37712c-0.35198,0 -0.65368,-0.0503 -0.93024,-0.15085c-0.27656,-0.10057 -0.5154,-0.23884 -0.71654,-0.42741c-0.20113,-0.18856 -0.35198,-0.41483 -0.45255,-0.67882c-0.11314,-0.26399 -0.16342,-0.55311 -0.16342,-0.87996v-3.89694c0,-0.31427 0.05028,-0.6034 0.16342,-0.86739c0.10057,-0.26399 0.25142,-0.49026 0.45255,-0.67882c0.20113,-0.18856 0.43998,-0.33941 0.71654,-0.43998c0.27656,-0.10057 0.57826,-0.15085 0.93024,-0.15085h0.37712c0.33941,0 0.65368,0.0503 0.93024,0.15085c0.27656,0.10057 0.50283,0.25142 0.70397,0.43998c0.20113,0.18856 0.35198,0.41483 0.46512,0.67882c0.10057,0.26399 0.16342,0.55312 0.16342,0.86739zM182.28843,156.79231v-3.89694c0,-0.31427 -0.11314,-0.57826 -0.32684,-0.80453c-0.22627,-0.21371 -0.49026,-0.32685 -0.80453,-0.32685h-0.37712c-0.32684,0 -0.59083,0.11314 -0.80453,0.32685c-0.22628,0.22627 -0.32684,0.49026 -0.32684,0.80453v3.89694c0,0.32685 0.10057,0.59083 0.32684,0.80454c0.2137,0.22627 0.47769,0.32684 0.80453,0.32684h0.37712c0.31427,0 0.57826,-0.10057 0.80453,-0.32684c0.2137,-0.21371 0.32684,-0.47769 0.32684,-0.80454zM189.30294,158.67793c0,0.088 -0.05028,0.12571 -0.12571,0.12571h-0.87996c-0.088,0 -0.12571,-0.0377 -0.12571,-0.12571v-3.39411c0,-0.15085 -0.03771,-0.28913 -0.088,-0.42741c-0.06285,-0.13828 -0.13828,-0.26399 -0.23885,-0.36455c-0.10057,-0.10057 -0.22627,-0.18856 -0.36455,-0.25142c-0.13828,-0.0503 -0.28913,-0.088 -0.43998,-0.088c-0.32684,0 -0.59083,0.11313 -0.80453,0.33941c-0.22627,0.22627 -0.32684,0.49026 -0.32684,0.79196v3.39411c0,0.088 -0.05028,0.12571 -0.12571,0.12571h-0.87996c-0.088,0 -0.12571,-0.0377 -0.12571,-0.12571v-5.40544c0,-0.0754 0.03771,-0.12571 0.12571,-0.12571h0.75425c0.07543,0 0.12571,0.0503 0.12571,0.12571v0.15085c0,0.10057 0.02514,0.13828 0.088,0.13828c0.03771,0 0.08799,-0.0126 0.16342,-0.0629c0.06285,-0.0377 0.15085,-0.088 0.25142,-0.13827c0.10057,-0.0503 0.2137,-0.10057 0.35198,-0.15085c0.13828,-0.0377 0.3017,-0.0629 0.49026,-0.0629c0.31427,0 0.6034,0.0629 0.86738,0.16342c0.26399,0.10057 0.49026,0.25142 0.69139,0.43998c0.18856,0.18856 0.33941,0.41484 0.45255,0.66625c0.10057,0.26399 0.16342,0.55312 0.16342,0.86739zM195.03523,156.03807c0,0.088 -0.05028,0.1257 -0.12571,0.1257h-3.1427c-0.08799,0 -0.12571,0.0503 -0.12571,0.12571v0.50283c0,0.15085 0.02514,0.3017 0.088,0.43998c0.05028,0.13828 0.13828,0.26399 0.23884,0.36456c0.10057,0.10056 0.2137,0.18856 0.35198,0.23884c0.13828,0.0628 0.28913,0.088 0.45255,0.088c0.15085,0 0.27656,-0.0251 0.40227,-0.0754c0.12571,-0.0503 0.2137,-0.11314 0.28913,-0.20113c0.13828,-0.16342 0.23885,-0.28913 0.3017,-0.3897c0.06285,-0.088 0.11314,-0.13827 0.16342,-0.13827c0.01257,0 0.03771,0.0126 0.07543,0.0251l0.79196,0.40226c0.05028,0.0251 0.07543,0.0629 0.07543,0.088c0,0.0503 -0.05028,0.13828 -0.12571,0.28913c-0.07542,0.15085 -0.2137,0.3017 -0.40227,0.47769c-0.37712,0.35198 -0.9051,0.52797 -1.57135,0.52797c-0.35198,0 -0.65368,-0.0503 -0.93024,-0.15085c-0.27656,-0.10057 -0.5154,-0.23884 -0.71654,-0.42741c-0.20113,-0.18856 -0.35198,-0.41483 -0.45255,-0.67882c-0.11314,-0.26399 -0.16342,-0.55311 -0.16342,-0.87996v-1.6342c0,-0.27656 0.05028,-0.55311 0.17599,-0.8171c0.11314,-0.25142 0.27656,-0.47769 0.47769,-0.67882c0.20113,-0.18857 0.43998,-0.33942 0.71654,-0.46512c0.27656,-0.11314 0.56569,-0.176 0.89253,-0.176c0.3017,0 0.6034,0.0629 0.87996,0.176c0.27656,0.1257 0.5154,0.27655 0.71654,0.46512c0.20113,0.20113 0.36455,0.4274 0.49026,0.67882c0.11314,0.26399 0.17599,0.54054 0.17599,0.8171zM193.77815,155.28382c0.05028,0 0.088,-0.0126 0.10057,-0.0503c0.01257,-0.0252 0.02514,-0.088 0.02514,-0.16343c0,-0.1257 -0.03771,-0.26398 -0.10057,-0.38969c-0.06285,-0.12571 -0.15085,-0.22627 -0.25142,-0.32684c-0.10057,-0.10057 -0.22627,-0.17599 -0.35198,-0.23885c-0.13828,-0.0503 -0.27656,-0.088 -0.42741,-0.088c-0.15085,0 -0.3017,0.0377 -0.43998,0.088c-0.13828,0.0629 -0.25142,0.13828 -0.35198,0.23885c-0.10057,0.10057 -0.18856,0.22627 -0.25142,0.35198c-0.06285,0.12571 -0.088,0.26399 -0.088,0.3897c0,0.0754 0,0.1257 0.01257,0.15085c0.01257,0.0251 0.05028,0.0377 0.11314,0.0377zM205.09187,158.67793c0,0.088 -0.05028,0.12571 -0.12571,0.12571h-0.87996c-0.088,0 -0.12571,-0.0377 -0.12571,-0.12571l0.13828,-5.58143l-1.79762,4.50035c-0.02514,0.0503 -0.06285,0.0754 -0.11314,0.0754h-0.42741c-0.06285,0 -0.10057,-0.0251 -0.11314,-0.0754l-1.77248,-4.51292l0.11314,5.594c0,0.088 -0.05028,0.12571 -0.12571,0.12571h-0.87996c-0.088,0 -0.12571,-0.0377 -0.12571,-0.12571v-7.66818c0,-0.0754 0.03771,-0.12571 0.12571,-0.12571h0.86739c0.05028,0 0.088,0.0251 0.11314,0.0754l1.98619,4.99061h0.03771l1.97362,-5.00318l0.11314,-0.0754l0.89253,0.0126c0.07542,0 0.12571,0.0503 0.12571,0.12571zM207.75688,151.44972c0,0.20114 -0.07542,0.36456 -0.20113,0.49027c-0.13828,0.13827 -0.3017,0.20113 -0.49026,0.20113c-0.20113,0 -0.36455,-0.0629 -0.49026,-0.18856c-0.13828,-0.12571 -0.20113,-0.3017 -0.20113,-0.50284c0,-0.18856 0.06285,-0.35198 0.20113,-0.49026c0.12571,-0.1257 0.28913,-0.20113 0.49026,-0.20113c0.18856,0 0.35198,0.0754 0.49026,0.20113c0.12571,0.13828 0.20113,0.3017 0.20113,0.49026zM207.63117,158.67793c0,0.088 -0.05028,0.12571 -0.12571,0.12571h-0.87996c-0.088,0 -0.12571,-0.0377 -0.12571,-0.12571v-5.40544c0,-0.0754 0.03771,-0.12571 0.12571,-0.12571h0.87996c0.07543,0 0.12571,0.0503 0.12571,0.12571zM210.39674,158.67793c0,0.088 -0.05028,0.12571 -0.12571,0.12571h-0.87996c-0.088,0 -0.12571,-0.0377 -0.12571,-0.12571v-7.66818c0,-0.0754 0.03771,-0.12571 0.12571,-0.12571h0.87996c0.07542,0 0.12571,0.0503 0.12571,0.12571zM213.16231,158.67793c0,0.088 -0.05028,0.12571 -0.12571,0.12571h-0.87996c-0.088,0 -0.12571,-0.0377 -0.12571,-0.12571v-7.66818c0,-0.0754 0.03771,-0.12571 0.12571,-0.12571h0.87996c0.07542,0 0.12571,0.0503 0.12571,0.12571zM216.05358,151.44972c0,0.20114 -0.07542,0.36456 -0.20113,0.49027c-0.13828,0.13827 -0.3017,0.20113 -0.49026,0.20113c-0.20113,0 -0.36455,-0.0629 -0.49026,-0.18856c-0.13828,-0.12571 -0.20113,-0.3017 -0.20113,-0.50284c0,-0.18856 0.06285,-0.35198 0.20113,-0.49026c0.12571,-0.1257 0.28913,-0.20113 0.49026,-0.20113c0.18856,0 0.35198,0.0754 0.49026,0.20113c0.12571,0.13828 0.20113,0.3017 0.20113,0.49026zM215.92788,158.67793c0,0.088 -0.05028,0.12571 -0.12571,0.12571h-0.87996c-0.08799,0 -0.12571,-0.0377 -0.12571,-0.12571v-5.40544c0,-0.0754 0.03771,-0.12571 0.12571,-0.12571h0.87996c0.07542,0 0.12571,0.0503 0.12571,0.12571zM221.66016,156.79231c0,0.32685 -0.06285,0.61597 -0.16342,0.87996c-0.11314,0.26399 -0.26399,0.49026 -0.46512,0.67882c-0.20113,0.18857 -0.42741,0.32684 -0.70397,0.42741c-0.27656,0.10057 -0.59083,0.15085 -0.93024,0.15085c-0.35198,0 -0.65368,-0.0503 -0.93024,-0.15085c-0.27656,-0.10057 -0.5154,-0.23884 -0.71654,-0.42741c-0.20113,-0.18856 -0.35198,-0.41483 -0.45255,-0.67882c-0.11314,-0.26399 -0.16342,-0.55311 -0.16342,-0.87996v-1.6342c0,-0.31427 0.05028,-0.6034 0.16342,-0.86738c0.10057,-0.26399 0.25142,-0.49027 0.45255,-0.67883c0.20113,-0.18856 0.43998,-0.33941 0.71654,-0.43998c0.27656,-0.10056 0.57826,-0.15085 0.93024,-0.15085c0.33941,0 0.65368,0.0629 0.93024,0.16342c0.27656,0.10057 0.50283,0.25142 0.70397,0.43998c0.20113,0.18856 0.35198,0.41484 0.46512,0.66626c0.10057,0.26398 0.16342,0.55311 0.16342,0.86738zM220.52879,156.79231v-1.6342c0,-0.3017 -0.11314,-0.56569 -0.32684,-0.79196c-0.22627,-0.22627 -0.49026,-0.33941 -0.80453,-0.33941c-0.32684,0 -0.59083,0.11314 -0.80453,0.33941c-0.22628,0.22627 -0.32684,0.49026 -0.32684,0.79196v1.6342c0,0.15085 0.02514,0.3017 0.08799,0.43998c0.05028,0.13828 0.13828,0.26399 0.23885,0.36456c0.10057,0.10056 0.2137,0.18856 0.35198,0.23884c0.13828,0.0628 0.28913,0.088 0.45255,0.088c0.31427,0 0.57826,-0.10057 0.80453,-0.32684c0.2137,-0.22628 0.32684,-0.49027 0.32684,-0.80454zM227.44273,158.67793c0,0.088 -0.05028,0.12571 -0.12571,0.12571h-0.87996c-0.088,0 -0.12571,-0.0377 -0.12571,-0.12571v-3.39411c0,-0.15085 -0.03771,-0.28913 -0.088,-0.42741c-0.06285,-0.13828 -0.13828,-0.26399 -0.23884,-0.36455c-0.10057,-0.10057 -0.22627,-0.18856 -0.36455,-0.25142c-0.13828,-0.0503 -0.28913,-0.088 -0.43998,-0.088c-0.32684,0 -0.59083,0.11313 -0.80453,0.33941c-0.22627,0.22627 -0.32684,0.49026 -0.32684,0.79196v3.39411c0,0.088 -0.05028,0.12571 -0.12571,0.12571h-0.87995c-0.088,0 -0.12571,-0.0377 -0.12571,-0.12571v-5.40544c0,-0.0754 0.03771,-0.12571 0.12571,-0.12571h0.75425c0.07542,0 0.12571,0.0503 0.12571,0.12571v0.15085c0,0.10057 0.02514,0.13828 0.088,0.13828c0.03771,0 0.088,-0.0126 0.16342,-0.0629c0.06285,-0.0377 0.15085,-0.088 0.25142,-0.13827c0.10057,-0.0503 0.2137,-0.10057 0.35198,-0.15085c0.13828,-0.0377 0.3017,-0.0629 0.49026,-0.0629c0.31427,0 0.6034,0.0629 0.86739,0.16342c0.26399,0.10057 0.49026,0.25142 0.69139,0.43998c0.18856,0.18856 0.33941,0.41484 0.45255,0.66625c0.10057,0.26399 0.16342,0.55312 0.16342,0.86739z" fill="#665200" stroke="none" stroke-width="0.5"/><g fill="#665200" stroke="none" stroke-width="0.29229"><path d="M159.87171,166.36642c0.40418,0 0.72752,0.12492 0.96267,0.36008c0.23516,0.23516 0.36009,0.5585 0.36009,0.96268c0,0.19106 -0.03674,0.36008 -0.09553,0.50706c-0.06614,0.15432 -0.15432,0.28659 -0.2719,0.39682c-0.11758,0.11023 -0.2572,0.19842 -0.41887,0.25721c-0.16167,0.0588 -0.34539,0.0882 -0.53645,0.0882h-0.80835c-0.05144,0 -0.07349,0.0294 -0.07349,0.0735v1.91065c0,0.0514 -0.02939,0.0735 -0.07349,0.0735h-0.51441c-0.05144,0 -0.07349,-0.0221 -0.07349,-0.0735v-4.48269c0,-0.0441 0.02205,-0.0735 0.07349,-0.0735zM160.53309,167.68918v-0.0735c0,-0.18372 -0.06614,-0.33804 -0.19107,-0.47031c-0.13228,-0.12493 -0.2866,-0.19107 -0.47031,-0.19107h-0.80835c-0.05144,0 -0.07349,0.0294 -0.07349,0.0735v1.24927c0,0.0514 0.02205,0.0735 0.07349,0.0735h0.80835c0.18372,0 0.33804,-0.0588 0.47031,-0.19107c0.12493,-0.12493 0.19107,-0.27925 0.19107,-0.47031zM163.98698,170.92259c0,0.0514 -0.02939,0.0735 -0.07349,0.0735h-0.44092c-0.05144,0 -0.07349,-0.0221 -0.07349,-0.0735v-0.0955c0,-0.0514 -0.02205,-0.0808 -0.05144,-0.0808c-0.0294,0 -0.06614,0.0147 -0.10288,0.0441c-0.04409,0.0294 -0.08818,0.0514 -0.13962,0.0808c-0.05879,0.0294 -0.11758,0.0588 -0.18372,0.0882c-0.07349,0.0294 -0.14697,0.0367 -0.22781,0.0367h-0.2866c-0.14697,0 -0.2866,-0.0221 -0.40418,-0.0661c-0.11758,-0.0441 -0.22046,-0.11023 -0.30864,-0.19106c-0.08818,-0.0808 -0.15432,-0.17637 -0.19841,-0.29395c-0.04409,-0.11023 -0.06614,-0.23516 -0.06614,-0.36744v-0.0441c0,-0.13227 0.02205,-0.24985 0.06614,-0.36008c0.04409,-0.11023 0.11023,-0.20576 0.19841,-0.2866c0.08818,-0.0808 0.19107,-0.14697 0.30864,-0.19107c0.11758,-0.0441 0.2572,-0.0735 0.40418,-0.0735h0.8451c0.04409,0 0.07349,-0.0221 0.07349,-0.0735l-0.0073,-0.20576c-0.0147,-0.18372 -0.08084,-0.33804 -0.19841,-0.46297c-0.11758,-0.11758 -0.2719,-0.18371 -0.46297,-0.18371c-0.08818,0 -0.16167,0.0147 -0.22781,0.0441c-0.07349,0.0294 -0.12493,0.0735 -0.16902,0.11758c-0.08818,0.0882 -0.14697,0.16167 -0.18372,0.21311c-0.03674,0.0588 -0.06614,0.0808 -0.08818,0.0808c-0.0147,0 -0.0294,0 -0.04409,-0.0147l-0.44832,-0.23514c-0.0294,-0.0147 -0.04409,-0.0294 -0.04409,-0.0588c0,-0.0294 0.02205,-0.0808 0.07349,-0.16902c0.05144,-0.0808 0.13962,-0.17637 0.2572,-0.27925c0.20576,-0.18372 0.49971,-0.27925 0.87449,-0.27925c0.39683,0 0.72017,0.11758 0.95533,0.33804c0.23516,0.22781 0.36008,0.52175 0.36743,0.88919l0.0073,0.97002zM163.3256,169.73946v-0.0294c0,-0.0441 -0.0294,-0.0735 -0.07349,-0.0735h-0.8451c-0.09553,0 -0.17637,0.0367 -0.23516,0.0955c-0.05879,0.0588 -0.08818,0.13962 -0.08818,0.22781v0.11757c0,0.10289 0.0294,0.18372 0.08818,0.24251c0.05879,0.0588 0.13962,0.0882 0.23516,0.0882h0.2866c0.2866,0 0.49236,-0.17636 0.62464,-0.5291zM167.36737,171.40026c0,0.41152 -0.11758,0.73486 -0.35274,0.97002c-0.23516,0.23516 -0.5585,0.35274 -0.97003,0.35274c-0.17637,0 -0.33069,-0.0147 -0.47031,-0.0588c-0.13962,-0.0368 -0.24985,-0.0882 -0.33069,-0.15433c-0.14697,-0.10288 -0.24985,-0.20576 -0.32334,-0.30129c-0.07349,-0.0882 -0.10288,-0.16902 -0.10288,-0.23516c0,-0.0147 0.0147,-0.0367 0.04409,-0.0514l0.46297,-0.23516c0.0147,-0.007 0.02939,-0.0147 0.03674,-0.0147c0.0147,0 0.03674,0.022 0.06614,0.0514c0.04409,0.0588 0.08084,0.11758 0.12493,0.16167c0.03674,0.0514 0.08084,0.0955 0.12493,0.13227c0.04409,0.0368 0.09553,0.0661 0.15432,0.0882c0.05879,0.022 0.12493,0.0294 0.21311,0.0294c0.08818,0 0.17637,-0.0147 0.2572,-0.0514c0.08084,-0.0294 0.15432,-0.0808 0.21311,-0.13962c0.05879,-0.0588 0.10288,-0.13228 0.13962,-0.21311c0.02939,-0.0808 0.05144,-0.16902 0.05144,-0.25721v-0.60994c0,-0.0514 -0.02205,-0.0808 -0.05879,-0.0808c-0.02939,0 -0.05879,0.0147 -0.08818,0.0367c-0.03674,0.0221 -0.08084,0.0441 -0.12493,0.0735c-0.04409,0.0294 -0.10288,0.0514 -0.16167,0.0735c-0.06614,0.0221 -0.13963,0.0294 -0.22781,0.0294c-0.20576,0 -0.38213,-0.0294 -0.5438,-0.0882c-0.16167,-0.0588 -0.3013,-0.13962 -0.41887,-0.24985c-0.11758,-0.11023 -0.20576,-0.24251 -0.26455,-0.39683c-0.06614,-0.15432 -0.09553,-0.32334 -0.09553,-0.51441v-1.98414c0,-0.0441 0.02205,-0.0735 0.07349,-0.0735h0.51441c0.04409,0 0.07349,0.0294 0.07349,0.0735v1.98414c0,0.0882 0.0147,0.17637 0.05144,0.25721c0.02939,0.0808 0.08084,0.15432 0.13962,0.21311c0.05879,0.0588 0.12493,0.11023 0.20576,0.13962c0.08084,0.0368 0.16902,0.0514 0.26455,0.0514c0.08818,0 0.17637,-0.0147 0.2572,-0.0514c0.08084,-0.0294 0.15432,-0.0808 0.21311,-0.13962c0.05879,-0.0588 0.10288,-0.13228 0.13962,-0.21311c0.02939,-0.0808 0.05144,-0.16902 0.05144,-0.25721v-1.98414c0,-0.0441 0.02205,-0.0735 0.07349,-0.0735h0.51441c0.04409,0 0.07349,0.0294 0.07349,0.0735zM171.10784,170.98873c0,0.0367 -0.0147,0.0588 -0.0294,0.0661c-0.02205,0.007 -0.05879,0.007 -0.11023,0.007c-0.15432,0 -0.30129,-0.0294 -0.44092,-0.0882c-0.14697,-0.0588 -0.2719,-0.14697 -0.38213,-0.2572c-0.11023,-0.10288 -0.19841,-0.23516 -0.26455,-0.38948c-0.06614,-0.14697 -0.09553,-0.31599 -0.09553,-0.50706v-1.46973c0,-0.0441 -0.0294,-0.0735 -0.07349,-0.0735h-0.40417c-0.05144,0 -0.07349,-0.0221 -0.07349,-0.0735l0.0147,-0.2572l0.8451,-0.89654l0.05144,-0.022h0.22781c0.04409,0 0.07349,0.0294 0.07349,0.0735v0.51441c0,0.0514 0.02205,0.0735 0.07349,0.0735h0.51441c0.04409,0 0.07349,0.0294 0.07349,0.0735v0.44092c0,0.0514 -0.0294,0.0735 -0.07349,0.0735h-0.51441c-0.05144,0 -0.07349,0.0294 -0.07349,0.0735v1.46973c0,0.14697 0.05144,0.29395 0.16167,0.42622c0.0294,0.0441 0.08818,0.0808 0.16167,0.11023c0.07349,0.0294 0.16167,0.0735 0.27925,0.11758c0.03674,0.0147 0.05879,0.0441 0.05879,0.0735zM174.28247,169.82029c0,0.19107 -0.03674,0.36009 -0.09553,0.51441c-0.06614,0.15432 -0.15432,0.2866 -0.2719,0.39683c-0.11758,0.11023 -0.24985,0.19106 -0.41153,0.24985c-0.16167,0.0588 -0.34539,0.0882 -0.5438,0.0882c-0.20576,0 -0.38213,-0.0294 -0.5438,-0.0882c-0.16167,-0.0588 -0.30129,-0.13962 -0.41887,-0.24985c-0.11758,-0.11023 -0.20576,-0.24251 -0.26455,-0.39683c-0.06614,-0.15432 -0.09553,-0.32334 -0.09553,-0.51441v-0.95533c0,-0.18371 0.0294,-0.35273 0.09553,-0.50705c0.05879,-0.15433 0.14697,-0.2866 0.26455,-0.39683c0.11758,-0.11023 0.2572,-0.19842 0.41887,-0.25721c0.16167,-0.0588 0.33804,-0.0882 0.5438,-0.0882c0.19841,0 0.38213,0.0367 0.5438,0.0955c0.16167,0.0588 0.29395,0.14698 0.41153,0.25721c0.11758,0.11023 0.20576,0.2425 0.2719,0.38948c0.05879,0.15432 0.09553,0.32334 0.09553,0.50705zM173.62109,169.82029v-0.95533c0,-0.17636 -0.06614,-0.33069 -0.19107,-0.46296c-0.13228,-0.13228 -0.2866,-0.19842 -0.47031,-0.19842c-0.19107,0 -0.34539,0.0661 -0.47031,0.19842c-0.13228,0.13227 -0.19106,0.2866 -0.19106,0.46296v0.95533c0,0.0882 0.0147,0.17637 0.05144,0.2572c0.0294,0.0808 0.08084,0.15433 0.13962,0.21312c0.05879,0.0588 0.12493,0.11023 0.20576,0.13962c0.08083,0.0367 0.16902,0.0514 0.26455,0.0514c0.18372,0 0.33804,-0.0588 0.47031,-0.19106c0.12493,-0.13228 0.19107,-0.2866 0.19107,-0.47032zM177.91271,170.98873c0,0.0367 -0.0147,0.0588 -0.02939,0.0661c-0.02205,0.007 -0.05879,0.007 -0.11023,0.007c-0.15432,0 -0.3013,-0.0294 -0.44092,-0.0882c-0.14697,-0.0588 -0.2719,-0.14697 -0.38213,-0.2572c-0.11023,-0.10288 -0.19841,-0.23516 -0.26455,-0.38948c-0.06614,-0.14697 -0.09553,-0.31599 -0.09553,-0.50706v-1.46973c0,-0.0441 -0.0294,-0.0735 -0.07349,-0.0735h-0.40418c-0.05144,0 -0.07349,-0.0221 -0.07349,-0.0735l0.0147,-0.2572l0.8451,-0.89654l0.05144,-0.022h0.22781c0.04409,0 0.07349,0.0294 0.07349,0.0735v0.51441c0,0.0514 0.02205,0.0735 0.07349,0.0735h0.51441c0.04409,0 0.07349,0.0294 0.07349,0.0735v0.44092c0,0.0514 -0.02939,0.0735 -0.07349,0.0735h-0.51441c-0.05144,0 -0.07349,0.0294 -0.07349,0.0735v1.46973c0,0.14697 0.05144,0.29395 0.16167,0.42622c0.02939,0.0441 0.08818,0.0808 0.16167,0.11023c0.07349,0.0294 0.16167,0.0735 0.27925,0.11758c0.03674,0.0147 0.05879,0.0441 0.05879,0.0735zM181.22697,170.92263c0,0.0514 -0.02939,0.0735 -0.07349,0.0735h-0.51441c-0.05144,0 -0.07349,-0.0221 -0.07349,-0.0735v-1.98414c0,-0.0882 -0.02205,-0.16902 -0.05144,-0.24985c-0.03674,-0.0808 -0.08084,-0.15433 -0.13962,-0.21312c-0.05879,-0.0588 -0.13228,-0.11023 -0.21311,-0.14697c-0.08084,-0.0294 -0.16902,-0.0514 -0.2572,-0.0514c-0.19107,0 -0.34539,0.0661 -0.47031,0.19841c-0.13228,0.13228 -0.19107,0.2866 -0.19107,0.46297v1.98414c0,0.0514 -0.02939,0.0735 -0.07349,0.0735h-0.51441c-0.05144,0 -0.07349,-0.0221 -0.07349,-0.0735v-4.48269c0,-0.0441 0.02205,-0.0735 0.07349,-0.0735h0.51441c0.04409,0 0.07349,0.0294 0.07349,0.0735v1.41095c0,0.0588 0.0147,0.0882 0.05879,0.0882c0.0147,0 0.03674,-0.007 0.07349,-0.0367c0.03674,-0.0294 0.08819,-0.0588 0.14697,-0.0882c0.05879,-0.0294 0.12493,-0.0514 0.20576,-0.0808c0.08084,-0.0294 0.17637,-0.0441 0.2866,-0.0441c0.16902,0 0.33069,0.0367 0.47766,0.0955c0.14697,0.0661 0.2719,0.15432 0.38213,0.26455c0.11023,0.11023 0.19841,0.24251 0.2572,0.38948c0.05879,0.15432 0.09553,0.32334 0.09553,0.49971zM184.55592,169.37941c0,0.0514 -0.0294,0.0735 -0.07349,0.0735h-1.83717c-0.05144,0 -0.07349,0.0294 -0.07349,0.0735v0.29395c0,0.0882 0.0147,0.17637 0.05144,0.2572c0.0294,0.0808 0.08084,0.15433 0.13962,0.21312c0.05879,0.0588 0.12493,0.11023 0.20576,0.13962c0.08084,0.0367 0.16902,0.0514 0.26455,0.0514c0.08818,0 0.16167,-0.0147 0.23516,-0.0441c0.07349,-0.0294 0.12493,-0.0661 0.16902,-0.11758c0.08084,-0.0955 0.13962,-0.16902 0.17637,-0.22781c0.03674,-0.0514 0.06614,-0.0808 0.09553,-0.0808c0.0073,0 0.02205,0.007 0.04409,0.0147l0.46297,0.23516c0.0294,0.0147 0.04409,0.0367 0.04409,0.0514c0,0.0294 -0.02939,0.0808 -0.07349,0.16902c-0.04409,0.0882 -0.12493,0.17637 -0.23516,0.27925c-0.22046,0.20576 -0.5291,0.30865 -0.91858,0.30865c-0.20576,0 -0.38213,-0.0294 -0.5438,-0.0882c-0.16167,-0.0588 -0.3013,-0.13962 -0.41887,-0.24985c-0.11758,-0.11023 -0.20576,-0.24251 -0.26455,-0.39683c-0.06614,-0.15432 -0.09553,-0.32334 -0.09553,-0.51441v-0.95533c0,-0.16167 0.0294,-0.32334 0.10288,-0.47766c0.06614,-0.14697 0.16167,-0.27925 0.27925,-0.39683c0.11758,-0.11023 0.2572,-0.19841 0.41887,-0.2719c0.16167,-0.0661 0.33069,-0.10288 0.52176,-0.10288c0.17637,0 0.35274,0.0367 0.51441,0.10288c0.16167,0.0735 0.3013,0.16167 0.41887,0.2719c0.11758,0.11758 0.21311,0.24986 0.2866,0.39683c0.06614,0.15432 0.10288,0.31599 0.10288,0.47766zM183.82105,168.93849c0.02939,0 0.05144,-0.007 0.05879,-0.0294c0.0073,-0.0147 0.0147,-0.0514 0.0147,-0.0955c0,-0.0735 -0.02205,-0.15432 -0.05879,-0.22781c-0.03674,-0.0735 -0.08818,-0.13227 -0.14697,-0.19106c-0.05879,-0.0588 -0.13228,-0.10288 -0.20576,-0.13963c-0.08084,-0.0294 -0.16167,-0.0514 -0.24985,-0.0514c-0.08818,0 -0.17637,0.0221 -0.2572,0.0514c-0.08084,0.0368 -0.14697,0.0808 -0.20576,0.13963c-0.05879,0.0588 -0.11023,0.13228 -0.14697,0.20576c-0.03674,0.0735 -0.05144,0.15432 -0.05144,0.22781c0,0.0441 0,0.0735 0.0073,0.0882c0.0073,0.0147 0.0294,0.022 0.06614,0.022zM189.25172,169.82033c0,0.19107 -0.03674,0.36009 -0.09553,0.51441c-0.06614,0.15432 -0.15432,0.2866 -0.2719,0.39683c-0.11758,0.11023 -0.24985,0.19106 -0.41153,0.24985c-0.16167,0.0588 -0.34539,0.0882 -0.5438,0.0882c-0.20576,0 -0.38213,-0.0294 -0.5438,-0.0882c-0.16167,-0.0588 -0.30129,-0.13962 -0.41887,-0.24985c-0.11758,-0.11023 -0.20576,-0.24251 -0.26455,-0.39683c-0.06614,-0.15432 -0.09553,-0.32334 -0.09553,-0.51441v-0.95533c0,-0.18371 0.0294,-0.35273 0.09553,-0.50705c0.05879,-0.15433 0.14697,-0.2866 0.26455,-0.39683c0.11758,-0.11023 0.2572,-0.19842 0.41887,-0.25721c0.16167,-0.0588 0.33804,-0.0882 0.5438,-0.0882c0.19841,0 0.38213,0.0367 0.5438,0.0955c0.16167,0.0588 0.29395,0.14698 0.41153,0.25721c0.11758,0.11023 0.20576,0.2425 0.2719,0.38948c0.05879,0.15432 0.09553,0.32334 0.09553,0.50705zM188.59034,169.82033v-0.95533c0,-0.17636 -0.06614,-0.33069 -0.19107,-0.46296c-0.13228,-0.13228 -0.2866,-0.19842 -0.47031,-0.19842c-0.19107,0 -0.34539,0.0661 -0.47031,0.19842c-0.13228,0.13227 -0.19106,0.2866 -0.19106,0.46296v0.95533c0,0.0882 0.0147,0.17637 0.05144,0.2572c0.0294,0.0808 0.08084,0.15433 0.13962,0.21312c0.05879,0.0588 0.12493,0.11023 0.20576,0.13962c0.08084,0.0367 0.16902,0.0514 0.26455,0.0514c0.18372,0 0.33804,-0.0588 0.47031,-0.19106c0.12493,-0.13228 0.19107,-0.2866 0.19107,-0.47032zM191.71352,168.3359c0,0.0514 -0.0147,0.0735 -0.04409,0.0735c-0.03674,0 -0.08084,-0.007 -0.13962,-0.022c-0.05879,-0.0147 -0.13228,-0.0294 -0.22046,-0.0294c-0.20576,0 -0.36743,0.0588 -0.48501,0.17636c-0.11758,0.11758 -0.17637,0.2719 -0.17637,0.47767v1.91065c0,0.0514 -0.0294,0.0735 -0.07349,0.0735h-0.51441c-0.05144,0 -0.07349,-0.0221 -0.07349,-0.0735v-3.15993c0,-0.0441 0.02205,-0.0735 0.07349,-0.0735h0.44092c0.04409,0 0.07349,0.0294 0.07349,0.0735v0.23516c0,0.0588 0.02205,0.0882 0.06614,0.0882c0.0147,0 0.04409,-0.0147 0.08084,-0.0588c0.03674,-0.0441 0.08084,-0.0882 0.13962,-0.13963c0.05879,-0.0441 0.12493,-0.0882 0.20576,-0.13227c0.07349,-0.0441 0.16167,-0.0661 0.26455,-0.0661c0.13962,0 0.23516,0.007 0.29395,0.0147c0.05879,0.0147 0.08818,0.0368 0.08818,0.0808zM194.59419,170.92263c0,0.0514 -0.02939,0.0735 -0.07349,0.0735h-0.44092c-0.05144,0 -0.07349,-0.0221 -0.07349,-0.0735v-0.0882c0,-0.0514 -0.02205,-0.0808 -0.05144,-0.0808c-0.0294,0 -0.05879,0.0147 -0.09553,0.0368c-0.04409,0.0294 -0.08818,0.0588 -0.14697,0.0882c-0.05879,0.0294 -0.13228,0.0588 -0.21311,0.0808c-0.08084,0.0294 -0.17637,0.0367 -0.27925,0.0367c-0.19107,0 -0.36008,-0.0294 -0.51441,-0.0882c-0.15432,-0.0588 -0.2866,-0.14697 -0.39683,-0.2572c-0.11758,-0.11023 -0.20576,-0.24251 -0.26455,-0.39683c-0.06614,-0.14697 -0.09553,-0.31599 -0.09553,-0.50706v-0.80835c0,-0.17637 0.0294,-0.34539 0.08818,-0.49971c0.05879,-0.14697 0.14697,-0.27925 0.2572,-0.38948c0.11023,-0.11023 0.24251,-0.19841 0.39683,-0.26455c0.15432,-0.0588 0.32334,-0.0955 0.50706,-0.0955c0.08818,0 0.17637,0.0147 0.24985,0.0367c0.07349,0.0294 0.13228,0.0588 0.19107,0.0882c0.05144,0.0294 0.09553,0.0588 0.13962,0.0808c0.04409,0.0294 0.07349,0.0367 0.10288,0.0367c0.0294,0 0.05144,-0.022 0.05144,-0.0808v-1.41095c0,-0.0441 0.02205,-0.0735 0.07349,-0.0735h0.51441c0.04409,0 0.07349,0.0294 0.07349,0.0735zM193.93281,169.74684v-0.80835c0,-0.17637 -0.06614,-0.33069 -0.19107,-0.46297c-0.13228,-0.13227 -0.2866,-0.19841 -0.47031,-0.19841c-0.09553,0 -0.18372,0.022 -0.26455,0.0514c-0.08084,0.0367 -0.14697,0.0882 -0.20576,0.14697c-0.05879,0.0588 -0.11023,0.13228 -0.13962,0.21312c-0.03674,0.0808 -0.05144,0.16167 -0.05144,0.24985v0.80835c0,0.0882 0.0147,0.17637 0.05144,0.25721c0.0294,0.0808 0.08084,0.15432 0.13962,0.21311c0.05879,0.0588 0.12493,0.11023 0.20576,0.13962c0.08084,0.0368 0.16902,0.0514 0.26455,0.0514c0.18372,0 0.33804,-0.0588 0.47031,-0.19106c0.12493,-0.13228 0.19107,-0.2866 0.19107,-0.47032zM197.95989,169.37941c0,0.0514 -0.02939,0.0735 -0.07349,0.0735h-1.83717c-0.05144,0 -0.07349,0.0294 -0.07349,0.0735v0.29395c0,0.0882 0.0147,0.17637 0.05144,0.2572c0.0294,0.0808 0.08084,0.15433 0.13963,0.21312c0.05879,0.0588 0.12493,0.11023 0.20576,0.13962c0.08084,0.0367 0.16902,0.0514 0.26455,0.0514c0.08818,0 0.16167,-0.0147 0.23516,-0.0441c0.07349,-0.0294 0.12493,-0.0661 0.16902,-0.11758c0.08084,-0.0955 0.13962,-0.16902 0.17637,-0.22781c0.03674,-0.0514 0.06614,-0.0808 0.09553,-0.0808c0.0073,0 0.02205,0.007 0.04409,0.0147l0.46297,0.23516c0.02939,0.0147 0.04409,0.0367 0.04409,0.0514c0,0.0294 -0.0294,0.0808 -0.07349,0.16902c-0.04409,0.0882 -0.12493,0.17637 -0.23516,0.27925c-0.22046,0.20576 -0.5291,0.30865 -0.91858,0.30865c-0.20576,0 -0.38213,-0.0294 -0.5438,-0.0882c-0.16167,-0.0588 -0.30129,-0.13962 -0.41887,-0.24985c-0.11758,-0.11023 -0.20576,-0.24251 -0.26455,-0.39683c-0.06614,-0.15432 -0.09553,-0.32334 -0.09553,-0.51441v-0.95533c0,-0.16167 0.0294,-0.32334 0.10288,-0.47766c0.06614,-0.14697 0.16167,-0.27925 0.27925,-0.39683c0.11758,-0.11023 0.2572,-0.19841 0.41887,-0.2719c0.16167,-0.0661 0.33069,-0.10288 0.52176,-0.10288c0.17637,0 0.35274,0.0367 0.51441,0.10288c0.16167,0.0735 0.30129,0.16167 0.41887,0.2719c0.11758,0.11758 0.21311,0.24986 0.2866,0.39683c0.06614,0.15432 0.10288,0.31599 0.10288,0.47766zM197.22502,168.93849c0.0294,0 0.05144,-0.007 0.05879,-0.0294c0.0073,-0.0147 0.0147,-0.0514 0.0147,-0.0955c0,-0.0735 -0.02205,-0.15432 -0.05879,-0.22781c-0.03674,-0.0735 -0.08818,-0.13227 -0.14697,-0.19106c-0.05879,-0.0588 -0.13228,-0.10288 -0.20576,-0.13963c-0.08084,-0.0294 -0.16167,-0.0514 -0.24985,-0.0514c-0.08818,0 -0.17637,0.0221 -0.2572,0.0514c-0.08084,0.0368 -0.14697,0.0808 -0.20576,0.13963c-0.05879,0.0588 -0.11023,0.13228 -0.14697,0.20576c-0.03674,0.0735 -0.05144,0.15432 -0.05144,0.22781c0,0.0441 0,0.0735 0.0073,0.0882c0.0073,0.0147 0.02939,0.022 0.06614,0.022zM200.37025,168.3359c0,0.0514 -0.0147,0.0735 -0.04409,0.0735c-0.03674,0 -0.08084,-0.007 -0.13962,-0.022c-0.05879,-0.0147 -0.13228,-0.0294 -0.22046,-0.0294c-0.20576,0 -0.36743,0.0588 -0.48501,0.17636c-0.11758,0.11758 -0.17637,0.2719 -0.17637,0.47767v1.91065c0,0.0514 -0.02939,0.0735 -0.07349,0.0735h-0.5144c-0.05144,0 -0.07349,-0.0221 -0.07349,-0.0735v-3.15993c0,-0.0441 0.02205,-0.0735 0.07349,-0.0735h0.44092c0.04409,0 0.07349,0.0294 0.07349,0.0735v0.23516c0,0.0588 0.02205,0.0882 0.06614,0.0882c0.0147,0 0.04409,-0.0147 0.08083,-0.0588c0.03674,-0.0441 0.08083,-0.0882 0.13962,-0.13963c0.05879,-0.0441 0.12493,-0.0882 0.20576,-0.13227c0.07349,-0.0441 0.16167,-0.0661 0.26455,-0.0661c0.13962,0 0.23516,0.007 0.29395,0.0147c0.05879,0.0147 0.08818,0.0368 0.08818,0.0808zM204.74271,169.82033c0,0.19107 -0.03674,0.36009 -0.09553,0.51441c-0.06614,0.15432 -0.15432,0.2866 -0.2719,0.39683c-0.11758,0.11023 -0.24985,0.19106 -0.41152,0.24985c-0.16167,0.0588 -0.34539,0.0882 -0.5438,0.0882c-0.20576,0 -0.38213,-0.0294 -0.5438,-0.0882c-0.16167,-0.0588 -0.3013,-0.13962 -0.41887,-0.24985c-0.11758,-0.11023 -0.20576,-0.24251 -0.26455,-0.39683c-0.06614,-0.15432 -0.09553,-0.32334 -0.09553,-0.51441v-0.95533c0,-0.18371 0.02939,-0.35273 0.09553,-0.50705c0.05879,-0.15433 0.14697,-0.2866 0.26455,-0.39683c0.11758,-0.11023 0.2572,-0.19842 0.41887,-0.25721c0.16167,-0.0588 0.33804,-0.0882 0.5438,-0.0882c0.19841,0 0.38213,0.0367 0.5438,0.0955c0.16167,0.0588 0.29395,0.14698 0.41152,0.25721c0.11758,0.11023 0.20576,0.2425 0.2719,0.38948c0.05879,0.15432 0.09553,0.32334 0.09553,0.50705zM204.08133,169.82033v-0.95533c0,-0.17636 -0.06614,-0.33069 -0.19107,-0.46296c-0.13228,-0.13228 -0.2866,-0.19842 -0.47032,-0.19842c-0.19106,0 -0.34539,0.0661 -0.47031,0.19842c-0.13228,0.13227 -0.19107,0.2866 -0.19107,0.46296v0.95533c0,0.0882 0.0147,0.17637 0.05144,0.2572c0.02939,0.0808 0.08084,0.15433 0.13962,0.21312c0.05879,0.0588 0.12493,0.11023 0.20576,0.13962c0.08084,0.0367 0.16902,0.0514 0.26455,0.0514c0.18372,0 0.33804,-0.0588 0.47032,-0.19106c0.12493,-0.13228 0.19107,-0.2866 0.19107,-0.47032zM207.35148,166.4179l-0.14697,0.42622c-0.0147,0.0367 -0.04409,0.0514 -0.07349,0.0514c-0.04409,0 -0.08084,-0.007 -0.11023,-0.007c-0.0294,0 -0.05144,-0.007 -0.06614,-0.007c-0.09553,0 -0.18372,0.0221 -0.26455,0.0514c-0.08084,0.0367 -0.14697,0.0882 -0.20576,0.14698c-0.05879,0.0588 -0.11023,0.13227 -0.13962,0.21311c-0.03674,0.0808 -0.05144,0.16167 -0.05144,0.24985v0.40418c0,0.0514 0.02205,0.0735 0.07349,0.0735h0.51441c0.04409,0 0.07349,0.0294 0.07349,0.0735v0.44092c0,0.0514 -0.02939,0.0735 -0.07349,0.0735h-0.51441c-0.05144,0 -0.07349,0.0294 -0.07349,0.0735v2.24134c0,0.0514 -0.02939,0.0735 -0.07349,0.0735h-0.51441c-0.05144,0 -0.07349,-0.0221 -0.07349,-0.0735v-2.24134c0,-0.0441 -0.02939,-0.0735 -0.07349,-0.0735h-0.18372c-0.05144,0 -0.07349,-0.0221 -0.07349,-0.0735v-0.44092c0,-0.0441 0.02205,-0.0735 0.07349,-0.0735h0.18372c0.04409,0 0.07349,-0.0221 0.07349,-0.0735v-0.33069c0,-0.16902 0.0294,-0.33069 0.09553,-0.49236c0.05879,-0.16167 0.15432,-0.30864 0.2866,-0.44092c0.23516,-0.2572 0.5438,-0.38948 0.94063,-0.38948c0.13228,0 0.23516,0.007 0.3013,0.022c0.06614,0.0147 0.10288,0.0367 0.10288,0.0735c0,0.0147 -0.0073,0.022 -0.0073,0.0294z"/><path d="M158.98987,189.29427c0,0.0514 -0.02939,0.0735 -0.07349,0.0735h-0.51441c-0.05144,0 -0.07349,-0.022 -0.07349,-0.0735v-4.48269c0,-0.0441 0.02205,-0.0735 0.07349,-0.0735h0.51441c0.04409,0 0.07349,0.0294 0.07349,0.0735zM162.66421,189.29427c0,0.0514 -0.02939,0.0735 -0.07349,0.0735h-0.51441c-0.05144,0 -0.07349,-0.022 -0.07349,-0.0735v-1.98414c0,-0.0882 -0.02205,-0.16902 -0.05144,-0.24986c-0.03674,-0.0808 -0.08084,-0.15432 -0.13962,-0.21311c-0.05879,-0.0588 -0.13228,-0.11023 -0.21311,-0.14697c-0.08084,-0.0294 -0.16902,-0.0514 -0.2572,-0.0514c-0.19107,0 -0.34539,0.0661 -0.47031,0.19841c-0.13228,0.13228 -0.19106,0.2866 -0.19106,0.46297v1.98414c0,0.0514 -0.0294,0.0735 -0.07349,0.0735h-0.51441c-0.05144,0 -0.07349,-0.022 -0.07349,-0.0735v-3.15993c0,-0.0441 0.02205,-0.0735 0.07349,-0.0735h0.44092c0.04409,0 0.07349,0.0294 0.07349,0.0735v0.0882c0,0.0588 0.0147,0.0808 0.05144,0.0808c0.02205,0 0.05144,-0.007 0.09553,-0.0368c0.03674,-0.022 0.08818,-0.0514 0.14697,-0.0808c0.05879,-0.0294 0.12493,-0.0588 0.20576,-0.0882c0.08084,-0.0221 0.17637,-0.0368 0.2866,-0.0368c0.18372,0 0.35274,0.0368 0.50706,0.0955c0.15432,0.0588 0.2866,0.14698 0.40418,0.25721c0.11023,0.11023 0.19841,0.2425 0.26455,0.38948c0.05879,0.15432 0.09553,0.32334 0.09553,0.50706zM166.40468,189.36037c0,0.0368 -0.0147,0.0588 -0.02939,0.0661c-0.02205,0.007 -0.05879,0.007 -0.11023,0.007c-0.15432,0 -0.3013,-0.0294 -0.44092,-0.0882c-0.14697,-0.0588 -0.2719,-0.14698 -0.38213,-0.25721c-0.11023,-0.10288 -0.19842,-0.23515 -0.26455,-0.38948c-0.06614,-0.14697 -0.09553,-0.31599 -0.09553,-0.50705v-1.46974c0,-0.0441 -0.02939,-0.0735 -0.07349,-0.0735h-0.40418c-0.05144,0 -0.07349,-0.0221 -0.07349,-0.0735l0.0147,-0.2572l0.8451,-0.89654l0.05144,-0.022h0.22781c0.04409,0 0.07349,0.0294 0.07349,0.0735v0.51441c0,0.0514 0.02205,0.0735 0.07349,0.0735h0.51441c0.04409,0 0.07349,0.0294 0.07349,0.0735v0.44092c0,0.0514 -0.02939,0.0735 -0.07349,0.0735h-0.51441c-0.05144,0 -0.07349,0.0294 -0.07349,0.0735v1.46974c0,0.14697 0.05144,0.29394 0.16167,0.42622c0.02939,0.0441 0.08818,0.0808 0.16167,0.11023c0.07349,0.0294 0.16167,0.0735 0.27925,0.11758c0.03674,0.0147 0.05879,0.0441 0.05879,0.0735zM169.71894,189.29427c0,0.0514 -0.02939,0.0735 -0.07349,0.0735h-0.51441c-0.05144,0 -0.07349,-0.022 -0.07349,-0.0735v-1.98414c0,-0.0882 -0.02205,-0.16902 -0.05144,-0.24986c-0.03674,-0.0808 -0.08084,-0.15432 -0.13962,-0.21311c-0.05879,-0.0588 -0.13228,-0.11023 -0.21311,-0.14697c-0.08084,-0.0294 -0.16902,-0.0514 -0.2572,-0.0514c-0.19107,0 -0.34539,0.0661 -0.47031,0.19841c-0.13228,0.13228 -0.19107,0.2866 -0.19107,0.46297v1.98414c0,0.0514 -0.0294,0.0735 -0.07349,0.0735h-0.51441c-0.05144,0 -0.07349,-0.022 -0.07349,-0.0735v-4.48269c0,-0.0441 0.02205,-0.0735 0.07349,-0.0735h0.51441c0.04409,0 0.07349,0.0294 0.07349,0.0735v1.41094c0,0.0588 0.0147,0.0882 0.05879,0.0882c0.0147,0 0.03674,-0.007 0.07349,-0.0368c0.03674,-0.0294 0.08818,-0.0588 0.14697,-0.0882c0.05879,-0.0294 0.12493,-0.0514 0.20576,-0.0808c0.08084,-0.0294 0.17637,-0.0441 0.2866,-0.0441c0.16902,0 0.33069,0.0368 0.47766,0.0955c0.14697,0.0661 0.2719,0.15433 0.38213,0.26456c0.11023,0.11023 0.19841,0.2425 0.2572,0.38948c0.05879,0.15432 0.09553,0.32334 0.09553,0.49971zM173.04789,187.75105c0,0.0514 -0.0294,0.0735 -0.07349,0.0735h-1.83717c-0.05144,0 -0.07349,0.0294 -0.07349,0.0735v0.29395c0,0.0882 0.0147,0.17636 0.05144,0.2572c0.02939,0.0808 0.08084,0.15432 0.13962,0.21311c0.05879,0.0588 0.12493,0.11023 0.20576,0.13963c0.08083,0.0367 0.16902,0.0514 0.26455,0.0514c0.08818,0 0.16167,-0.0147 0.23516,-0.0441c0.07349,-0.0294 0.12493,-0.0661 0.16902,-0.11757c0.08084,-0.0955 0.13962,-0.16902 0.17637,-0.22781c0.03674,-0.0514 0.06614,-0.0808 0.09553,-0.0808c0.0073,0 0.02205,0.007 0.04409,0.0147l0.46297,0.23516c0.02939,0.0147 0.04409,0.0367 0.04409,0.0514c0,0.0294 -0.0294,0.0808 -0.07349,0.16902c-0.04409,0.0882 -0.12493,0.17636 -0.23516,0.27925c-0.22046,0.20576 -0.5291,0.30864 -0.91858,0.30864c-0.20576,0 -0.38213,-0.0294 -0.5438,-0.0882c-0.16167,-0.0588 -0.3013,-0.13963 -0.41887,-0.24986c-0.11758,-0.11023 -0.20576,-0.2425 -0.26455,-0.39683c-0.06614,-0.15432 -0.09553,-0.32334 -0.09553,-0.5144v-0.95533c0,-0.16167 0.02939,-0.32334 0.10288,-0.47766c0.06614,-0.14698 0.16167,-0.27925 0.27925,-0.39683c0.11758,-0.11023 0.2572,-0.19842 0.41888,-0.2719c0.16167,-0.0661 0.33069,-0.10288 0.52175,-0.10288c0.17637,0 0.35274,0.0367 0.51441,0.10288c0.16167,0.0735 0.3013,0.16167 0.41887,0.2719c0.11758,0.11758 0.21311,0.24985 0.2866,0.39683c0.06614,0.15432 0.10288,0.31599 0.10288,0.47766zM172.31302,187.31013c0.02939,0 0.05144,-0.007 0.05879,-0.0294c0.0073,-0.0147 0.0147,-0.0514 0.0147,-0.0955c0,-0.0735 -0.02205,-0.15432 -0.05879,-0.22781c-0.03674,-0.0735 -0.08818,-0.13228 -0.14697,-0.19107c-0.05879,-0.0588 -0.13228,-0.10288 -0.20576,-0.13962c-0.08084,-0.0294 -0.16167,-0.0514 -0.24985,-0.0514c-0.08818,0 -0.17637,0.022 -0.2572,0.0514c-0.08084,0.0367 -0.14697,0.0808 -0.20576,0.13962c-0.05879,0.0588 -0.11023,0.13228 -0.14697,0.20577c-0.03674,0.0735 -0.05144,0.15432 -0.05144,0.22781c0,0.0441 0,0.0735 0.0073,0.0882c0.0073,0.0147 0.02939,0.022 0.06614,0.022zM177.74369,189.29427c0,0.0514 -0.0294,0.0735 -0.07349,0.0735h-0.44092c-0.05144,0 -0.07349,-0.022 -0.07349,-0.0735v-0.0955c0,-0.0514 -0.02205,-0.0808 -0.05144,-0.0808c-0.02939,0 -0.06614,0.0147 -0.10288,0.0441c-0.04409,0.0294 -0.08818,0.0514 -0.13962,0.0808c-0.05879,0.0294 -0.11758,0.0588 -0.18372,0.0882c-0.07349,0.0294 -0.14697,0.0367 -0.22781,0.0367h-0.2866c-0.14697,0 -0.2866,-0.022 -0.40418,-0.0661c-0.11758,-0.0441 -0.22046,-0.11023 -0.30864,-0.19107c-0.08819,-0.0808 -0.15432,-0.17637 -0.19841,-0.29395c-0.04409,-0.11023 -0.06614,-0.23515 -0.06614,-0.36743v-0.0441c0,-0.13228 0.02205,-0.24986 0.06614,-0.36009c0.04409,-0.11023 0.11023,-0.20576 0.19841,-0.2866c0.08818,-0.0808 0.19107,-0.14697 0.30864,-0.19106c0.11758,-0.0441 0.2572,-0.0735 0.40418,-0.0735h0.8451c0.04409,0 0.07349,-0.022 0.07349,-0.0735l-0.0073,-0.20577c-0.0147,-0.18371 -0.08084,-0.33804 -0.19841,-0.46296c-0.11758,-0.11758 -0.2719,-0.18372 -0.46297,-0.18372c-0.08818,0 -0.16167,0.0147 -0.22781,0.0441c-0.07349,0.0294 -0.12493,0.0735 -0.16902,0.11758c-0.08818,0.0882 -0.14697,0.16167 -0.18372,0.21311c-0.03674,0.0588 -0.06614,0.0808 -0.08818,0.0808c-0.0147,0 -0.02939,0 -0.04409,-0.0147l-0.44827,-0.23516c-0.02939,-0.0147 -0.04409,-0.0294 -0.04409,-0.0588c0,-0.0294 0.02205,-0.0808 0.07349,-0.16902c0.05144,-0.0808 0.13962,-0.17636 0.2572,-0.27925c0.20576,-0.18371 0.49971,-0.27924 0.87449,-0.27924c0.39683,0 0.72017,0.11757 0.95533,0.33803c0.23516,0.22781 0.36008,0.52176 0.36743,0.88919l0.0073,0.97003zM177.08231,188.11113v-0.0294c0,-0.0441 -0.02939,-0.0735 -0.07349,-0.0735h-0.8451c-0.09553,0 -0.17637,0.0367 -0.23516,0.0955c-0.05879,0.0588 -0.08818,0.13963 -0.08818,0.22781v0.11758c0,0.10288 0.02939,0.18372 0.08818,0.24251c0.05879,0.0588 0.13962,0.0882 0.23516,0.0882h0.2866c0.2866,0 0.49236,-0.17637 0.62464,-0.5291zM183.03473,189.29427c0,0.0514 -0.02939,0.0735 -0.07349,0.0735h-0.51441c-0.05144,0 -0.07349,-0.022 -0.07349,-0.0735v-1.98414c0,-0.0882 -0.02205,-0.16902 -0.05144,-0.24986c-0.02939,-0.0808 -0.07349,-0.15432 -0.13228,-0.21311c-0.05879,-0.0588 -0.11758,-0.11023 -0.19107,-0.14697c-0.07349,-0.0294 -0.13962,-0.0514 -0.21311,-0.0514c-0.07349,0 -0.14697,0.022 -0.22046,0.0588c-0.07349,0.0368 -0.13228,0.0882 -0.18372,0.14698c-0.05879,0.0588 -0.10288,0.13227 -0.13228,0.20576c-0.03674,0.0808 -0.05144,0.16167 -0.05144,0.24986v1.98414c0,0.0514 -0.0294,0.0735 -0.07349,0.0735h-0.51441c-0.05144,0 -0.07349,-0.022 -0.07349,-0.0735v-1.98414c0,-0.0882 -0.02205,-0.16902 -0.05144,-0.24986c-0.0294,-0.0808 -0.07349,-0.15432 -0.13228,-0.21311c-0.05879,-0.0588 -0.11758,-0.11023 -0.19107,-0.14697c-0.07349,-0.0294 -0.13962,-0.0514 -0.21311,-0.0514c-0.07349,0 -0.14697,0.022 -0.22046,0.0588c-0.07349,0.0368 -0.13228,0.0808 -0.18372,0.13963c-0.05879,0.0588 -0.10288,0.13228 -0.13228,0.21311c-0.03674,0.0808 -0.05144,0.16167 -0.05144,0.24986v1.98414c0,0.0514 -0.02939,0.0735 -0.07349,0.0735h-0.51441c-0.05144,0 -0.07349,-0.022 -0.07349,-0.0735v-3.15993c0,-0.0441 0.02205,-0.0735 0.07349,-0.0735h0.44092c0.04409,0 0.07349,0.0294 0.07349,0.0735v0.0955c0,0.0588 0.0147,0.0808 0.05144,0.0808c0.02205,0 0.05144,-0.007 0.09553,-0.0368c0.04409,-0.0294 0.08818,-0.0588 0.14697,-0.0882c0.05879,-0.0294 0.12493,-0.0514 0.19841,-0.0808c0.07349,-0.0294 0.15432,-0.0441 0.24251,-0.0441c0.22046,0 0.41887,0.0588 0.58055,0.16902c0.08084,0.0588 0.13962,0.10288 0.18372,0.13963c0.04409,0.0441 0.07349,0.0588 0.08818,0.0588c0.0147,0 0.04409,-0.0147 0.08818,-0.0588c0.04409,-0.0441 0.10288,-0.0882 0.19107,-0.14698c0.16167,-0.10288 0.37478,-0.16167 0.63198,-0.16167c0.17637,0 0.34539,0.0368 0.49971,0.0955c0.15432,0.0588 0.2866,0.14698 0.39683,0.25721c0.11023,0.11023 0.19841,0.2425 0.2572,0.39683c0.05879,0.15432 0.09553,0.32334 0.09553,0.49971zM186.38573,188.19197c0,0.19106 -0.03674,0.36008 -0.09553,0.5144c-0.06614,0.15433 -0.15432,0.2866 -0.2719,0.39683c-0.11758,0.11023 -0.24985,0.19107 -0.41153,0.24986c-0.16167,0.0588 -0.34539,0.0882 -0.5438,0.0882c-0.20576,0 -0.38213,-0.0294 -0.5438,-0.0882c-0.16167,-0.0588 -0.3013,-0.13963 -0.41887,-0.24986c-0.11758,-0.11023 -0.20576,-0.2425 -0.26455,-0.39683c-0.06614,-0.15432 -0.09553,-0.32334 -0.09553,-0.5144v-0.95533c0,-0.18372 0.02939,-0.35274 0.09553,-0.50706c0.05879,-0.15432 0.14697,-0.2866 0.26455,-0.39683c0.11758,-0.11023 0.2572,-0.19841 0.41887,-0.2572c0.16167,-0.0588 0.33804,-0.0882 0.5438,-0.0882c0.19841,0 0.38213,0.0367 0.5438,0.0955c0.16167,0.0588 0.29395,0.14697 0.41153,0.2572c0.11758,0.11023 0.20576,0.24251 0.2719,0.38948c0.05879,0.15432 0.09553,0.32334 0.09553,0.50706zM185.72435,188.19197v-0.95533c0,-0.17637 -0.06614,-0.33069 -0.19107,-0.46297c-0.13228,-0.13227 -0.2866,-0.19841 -0.47031,-0.19841c-0.19107,0 -0.34539,0.0661 -0.47032,0.19841c-0.13228,0.13228 -0.19106,0.2866 -0.19106,0.46297v0.95533c0,0.0882 0.0147,0.17636 0.05144,0.2572c0.02939,0.0808 0.08084,0.15432 0.13962,0.21311c0.05879,0.0588 0.12493,0.11023 0.20576,0.13963c0.08083,0.0367 0.16902,0.0514 0.26455,0.0514c0.18372,0 0.33804,-0.0588 0.47031,-0.19107c0.12493,-0.13227 0.19107,-0.2866 0.19107,-0.47031zM189.70732,189.29427c0,0.0514 -0.0294,0.0735 -0.07349,0.0735h-0.44092c-0.05144,0 -0.07349,-0.022 -0.07349,-0.0735v-0.0882c0,-0.0514 -0.02205,-0.0808 -0.05144,-0.0808c-0.02939,0 -0.05879,0.0147 -0.09553,0.0367c-0.04409,0.0294 -0.08819,0.0588 -0.14697,0.0882c-0.05879,0.0294 -0.13228,0.0588 -0.21311,0.0808c-0.08084,0.0294 -0.17637,0.0367 -0.27925,0.0367c-0.19107,0 -0.36008,-0.0294 -0.51441,-0.0882c-0.15432,-0.0588 -0.2866,-0.14697 -0.39683,-0.2572c-0.11758,-0.11023 -0.20576,-0.24251 -0.26455,-0.39683c-0.06614,-0.14698 -0.09553,-0.31599 -0.09553,-0.50706v-1.98414c0,-0.0441 0.02205,-0.0735 0.07349,-0.0735h0.51441c0.04409,0 0.07349,0.0294 0.07349,0.0735v1.98414c0,0.0882 0.0147,0.17637 0.05144,0.2572c0.0294,0.0808 0.08084,0.15433 0.13962,0.21311c0.05879,0.0588 0.12493,0.11023 0.20576,0.13963c0.08084,0.0367 0.16902,0.0514 0.26455,0.0514c0.08818,0 0.17637,-0.0147 0.2572,-0.0514c0.08084,-0.0294 0.15432,-0.0808 0.21311,-0.13963c0.05879,-0.0588 0.10288,-0.13227 0.13962,-0.21311c0.02939,-0.0808 0.05144,-0.16902 0.05144,-0.2572v-1.98414c0,-0.0441 0.02205,-0.0735 0.07349,-0.0735h0.51441c0.04409,0 0.07349,0.0294 0.07349,0.0735zM193.30816,189.29427c0,0.0514 -0.02939,0.0735 -0.07349,0.0735h-0.5144c-0.05144,0 -0.07349,-0.022 -0.07349,-0.0735v-1.98414c0,-0.0882 -0.02205,-0.16902 -0.05144,-0.24986c-0.03674,-0.0808 -0.08084,-0.15432 -0.13962,-0.21311c-0.05879,-0.0588 -0.13228,-0.11023 -0.21311,-0.14697c-0.08084,-0.0294 -0.16902,-0.0514 -0.2572,-0.0514c-0.19107,0 -0.34539,0.0661 -0.47031,0.19841c-0.13228,0.13228 -0.19107,0.2866 -0.19107,0.46297v1.98414c0,0.0514 -0.02939,0.0735 -0.07349,0.0735h-0.51441c-0.05144,0 -0.07349,-0.022 -0.07349,-0.0735v-3.15993c0,-0.0441 0.02205,-0.0735 0.07349,-0.0735h0.44092c0.04409,0 0.07349,0.0294 0.07349,0.0735v0.0882c0,0.0588 0.0147,0.0808 0.05144,0.0808c0.02205,0 0.05144,-0.007 0.09553,-0.0368c0.03674,-0.022 0.08818,-0.0514 0.14697,-0.0808c0.05879,-0.0294 0.12493,-0.0588 0.20576,-0.0882c0.08084,-0.0221 0.17637,-0.0368 0.2866,-0.0368c0.18372,0 0.35274,0.0368 0.50706,0.0955c0.15432,0.0588 0.2866,0.14698 0.40418,0.25721c0.11023,0.11023 0.19841,0.2425 0.26455,0.38948c0.05879,0.15432 0.09553,0.32334 0.09553,0.50706zM195.60829,189.36037c0,0.0368 -0.0147,0.0588 -0.0294,0.0661c-0.02205,0.007 -0.05879,0.007 -0.11023,0.007c-0.15432,0 -0.3013,-0.0294 -0.44092,-0.0882c-0.14697,-0.0588 -0.2719,-0.14698 -0.38213,-0.25721c-0.11023,-0.10288 -0.19841,-0.23515 -0.26455,-0.38948c-0.06614,-0.14697 -0.09553,-0.31599 -0.09553,-0.50705v-1.46974c0,-0.0441 -0.02939,-0.0735 -0.07349,-0.0735h-0.40417c-0.05144,0 -0.07349,-0.0221 -0.07349,-0.0735l0.0147,-0.2572l0.8451,-0.89654l0.05144,-0.022h0.22781c0.04409,0 0.07349,0.0294 0.07349,0.0735v0.51441c0,0.0514 0.02205,0.0735 0.07349,0.0735h0.51441c0.04409,0 0.07349,0.0294 0.07349,0.0735v0.44092c0,0.0514 -0.0294,0.0735 -0.07349,0.0735h-0.51441c-0.05144,0 -0.07349,0.0294 -0.07349,0.0735v1.46974c0,0.14697 0.05144,0.29394 0.16167,0.42622c0.0294,0.0441 0.08818,0.0808 0.16167,0.11023c0.07349,0.0294 0.16167,0.0735 0.27925,0.11758c0.03674,0.0147 0.05879,0.0441 0.05879,0.0735zM200.3041,188.19194c0,0.19106 -0.03674,0.36008 -0.09553,0.5144c-0.06614,0.15433 -0.15432,0.2866 -0.2719,0.39683c-0.11758,0.11023 -0.24985,0.19107 -0.41152,0.24986c-0.16167,0.0588 -0.34539,0.0882 -0.5438,0.0882c-0.20576,0 -0.38213,-0.0294 -0.5438,-0.0882c-0.16167,-0.0588 -0.3013,-0.13963 -0.41888,-0.24986c-0.11758,-0.11023 -0.20576,-0.2425 -0.26455,-0.39683c-0.06614,-0.15432 -0.09553,-0.32334 -0.09553,-0.5144v-0.95533c0,-0.18372 0.02939,-0.35274 0.09553,-0.50706c0.05879,-0.15432 0.14697,-0.2866 0.26455,-0.39683c0.11758,-0.11023 0.2572,-0.19841 0.41888,-0.2572c0.16167,-0.0588 0.33804,-0.0882 0.5438,-0.0882c0.19841,0 0.38213,0.0367 0.5438,0.0955c0.16167,0.0588 0.29395,0.14697 0.41152,0.2572c0.11758,0.11023 0.20576,0.24251 0.2719,0.38948c0.05879,0.15432 0.09553,0.32334 0.09553,0.50706zM199.64272,188.19194v-0.95533c0,-0.17637 -0.06614,-0.33069 -0.19107,-0.46297c-0.13228,-0.13227 -0.2866,-0.19841 -0.47032,-0.19841c-0.19106,0 -0.34539,0.0661 -0.47031,0.19841c-0.13228,0.13228 -0.19107,0.2866 -0.19107,0.46297v0.95533c0,0.0882 0.0147,0.17636 0.05144,0.2572c0.02939,0.0808 0.08084,0.15432 0.13962,0.21311c0.05879,0.0588 0.12493,0.11023 0.20576,0.13963c0.08084,0.0367 0.16902,0.0514 0.26455,0.0514c0.18372,0 0.33804,-0.0588 0.47032,-0.19107c0.12493,-0.13227 0.19107,-0.2866 0.19107,-0.47031zM202.91287,184.7895l-0.14697,0.42622c-0.0147,0.0367 -0.04409,0.0514 -0.07349,0.0514c-0.04409,0 -0.08084,-0.007 -0.11023,-0.007c-0.0294,0 -0.05144,-0.007 -0.06614,-0.007c-0.09553,0 -0.18372,0.022 -0.26455,0.0514c-0.08083,0.0367 -0.14697,0.0882 -0.20576,0.14697c-0.05879,0.0588 -0.11023,0.13228 -0.13962,0.21311c-0.03674,0.0808 -0.05144,0.16167 -0.05144,0.24986v0.40418c0,0.0514 0.02205,0.0735 0.07349,0.0735h0.51441c0.04409,0 0.07349,0.0294 0.07349,0.0735v0.44092c0,0.0514 -0.0294,0.0735 -0.07349,0.0735h-0.51441c-0.05144,0 -0.07349,0.0294 -0.07349,0.0735v2.24135c0,0.0514 -0.02939,0.0735 -0.07349,0.0735h-0.51441c-0.05144,0 -0.07349,-0.022 -0.07349,-0.0735v-2.24135c0,-0.0441 -0.02939,-0.0735 -0.07349,-0.0735h-0.18372c-0.05144,0 -0.07349,-0.0221 -0.07349,-0.0735v-0.44092c0,-0.0441 0.02205,-0.0735 0.07349,-0.0735h0.18372c0.04409,0 0.07349,-0.022 0.07349,-0.0735v-0.33069c0,-0.16902 0.02939,-0.33069 0.09553,-0.49237c0.05879,-0.16167 0.15432,-0.30864 0.2866,-0.44092c0.23516,-0.2572 0.5438,-0.38948 0.94063,-0.38948c0.13228,0 0.23516,0.007 0.3013,0.022c0.06614,0.0147 0.10288,0.0367 0.10288,0.0735c0,0.0147 -0.0073,0.022 -0.0073,0.0294zM306.99991,189.29424c0,0.0514 -0.0294,0.0735 -0.0735,0.0735h-0.44092c-0.0514,0 -0.0735,-0.022 -0.0735,-0.0735v-0.0882c0,-0.0514 -0.022,-0.0808 -0.0514,-0.0808c-0.0294,0 -0.0588,0.0147 -0.0955,0.0367c-0.0441,0.0294 -0.0882,0.0588 -0.14697,0.0882c-0.0588,0.0294 -0.13228,0.0588 -0.21311,0.0808c-0.0808,0.0294 -0.17637,0.0367 -0.27925,0.0367c-0.19107,0 -0.36009,-0.0294 -0.51441,-0.0882c-0.15432,-0.0588 -0.2866,-0.14697 -0.39683,-0.2572c-0.11758,-0.11023 -0.20576,-0.24251 -0.26455,-0.39683c-0.0661,-0.14698 -0.0955,-0.31599 -0.0955,-0.50706v-0.80835c0,-0.17637 0.0294,-0.34539 0.0882,-0.49971c0.0588,-0.14698 0.14697,-0.27925 0.2572,-0.38948c0.11023,-0.11023 0.24251,-0.19842 0.39683,-0.26456c0.15432,-0.0588 0.32334,-0.0955 0.50706,-0.0955c0.0882,0 0.17637,0.0147 0.24986,0.0368c0.0735,0.0294 0.13227,0.0588 0.19106,0.0882c0.0514,0.0294 0.0955,0.0588 0.13963,0.0808c0.0441,0.0294 0.0735,0.0368 0.10288,0.0368c0.0294,0 0.0514,-0.0221 0.0514,-0.0808v-1.41094c0,-0.0441 0.022,-0.0735 0.0735,-0.0735h0.51441c0.0441,0 0.0735,0.0294 0.0735,0.0735zM306.33853,188.11845v-0.80835c0,-0.17637 -0.0661,-0.33069 -0.19107,-0.46297c-0.13227,-0.13228 -0.2866,-0.19841 -0.47031,-0.19841c-0.0955,0 -0.18372,0.022 -0.26455,0.0514c-0.0808,0.0367 -0.14698,0.0882 -0.20577,0.14697c-0.0588,0.0588 -0.11023,0.13228 -0.13962,0.21311c-0.0367,0.0808 -0.0514,0.16167 -0.0514,0.24986v0.80835c0,0.0882 0.0147,0.17637 0.0514,0.2572c0.0294,0.0808 0.0808,0.15433 0.13962,0.21311c0.0588,0.0588 0.12493,0.11023 0.20577,0.13963c0.0808,0.0367 0.16902,0.0514 0.26455,0.0514c0.18371,0 0.33804,-0.0588 0.47031,-0.19107c0.12493,-0.13227 0.19107,-0.28659 0.19107,-0.47031zM310.37296,188.19195c0,0.19106 -0.0368,0.36008 -0.0955,0.5144c-0.0661,0.15433 -0.15432,0.2866 -0.2719,0.39683c-0.11758,0.11023 -0.24985,0.19107 -0.41152,0.24986c-0.16167,0.0588 -0.34539,0.0882 -0.54381,0.0882c-0.20576,0 -0.38213,-0.0294 -0.5438,-0.0882c-0.16167,-0.0588 -0.30129,-0.13963 -0.41887,-0.24986c-0.11758,-0.11023 -0.20576,-0.2425 -0.26455,-0.39683c-0.0661,-0.15432 -0.0955,-0.32334 -0.0955,-0.5144v-0.95533c0,-0.18372 0.0294,-0.35274 0.0955,-0.50706c0.0588,-0.15432 0.14697,-0.2866 0.26455,-0.39683c0.11758,-0.11023 0.2572,-0.19841 0.41887,-0.2572c0.16167,-0.0588 0.33804,-0.0882 0.5438,-0.0882c0.19842,0 0.38214,0.0367 0.54381,0.0955c0.16167,0.0588 0.29394,0.14697 0.41152,0.2572c0.11758,0.11023 0.20576,0.24251 0.2719,0.38948c0.0588,0.15432 0.0955,0.32334 0.0955,0.50706zM309.71158,188.19195v-0.95533c0,-0.17637 -0.0661,-0.33069 -0.19107,-0.46297c-0.13228,-0.13227 -0.2866,-0.19841 -0.47032,-0.19841c-0.19106,0 -0.34538,0.0661 -0.47031,0.19841c-0.13228,0.13228 -0.19107,0.2866 -0.19107,0.46297v0.95533c0,0.0882 0.0147,0.17636 0.0514,0.2572c0.0294,0.0808 0.0808,0.15432 0.13962,0.21311c0.0588,0.0588 0.12493,0.11023 0.20576,0.13963c0.0808,0.0367 0.16902,0.0514 0.26455,0.0514c0.18372,0 0.33804,-0.0588 0.47032,-0.19107c0.12493,-0.13227 0.19107,-0.2866 0.19107,-0.47031zM311.76185,189.29425c0,0.0514 -0.0294,0.0735 -0.0735,0.0735h-0.51441c-0.0514,0 -0.0735,-0.022 -0.0735,-0.0735v-4.48269c0,-0.0441 0.022,-0.0735 0.0735,-0.0735h0.51441c0.0441,0 0.0735,0.0294 0.0735,0.0735zM313.37855,189.29425c0,0.0514 -0.0294,0.0735 -0.0735,0.0735h-0.51441c-0.0514,0 -0.0735,-0.022 -0.0735,-0.0735v-4.48269c0,-0.0441 0.022,-0.0735 0.0735,-0.0735h0.51441c0.0441,0 0.0735,0.0294 0.0735,0.0735zM316.73688,189.29425c0,0.0514 -0.0294,0.0735 -0.0735,0.0735h-0.44092c-0.0514,0 -0.0735,-0.022 -0.0735,-0.0735v-0.0955c0,-0.0514 -0.022,-0.0808 -0.0514,-0.0808c-0.0294,0 -0.0661,0.0147 -0.10288,0.0441c-0.0441,0.0294 -0.0882,0.0514 -0.13962,0.0808c-0.0588,0.0294 -0.11758,0.0588 -0.18372,0.0882c-0.0735,0.0294 -0.14697,0.0367 -0.22781,0.0367h-0.2866c-0.14697,0 -0.28659,-0.022 -0.40417,-0.0661c-0.11758,-0.0441 -0.22046,-0.11023 -0.30865,-0.19107c-0.0882,-0.0808 -0.15432,-0.17637 -0.19841,-0.29395c-0.0441,-0.11023 -0.0661,-0.23515 -0.0661,-0.36743v-0.0441c0,-0.13228 0.0221,-0.24986 0.0661,-0.36009c0.0441,-0.11023 0.11023,-0.20576 0.19841,-0.2866c0.0882,-0.0808 0.19107,-0.14697 0.30865,-0.19106c0.11758,-0.0441 0.2572,-0.0735 0.40417,-0.0735h0.8451c0.0441,0 0.0735,-0.022 0.0735,-0.0735l-0.007,-0.20577c-0.0147,-0.18371 -0.0808,-0.33804 -0.19842,-0.46296c-0.11757,-0.11758 -0.2719,-0.18372 -0.46296,-0.18372c-0.0882,0 -0.16167,0.0147 -0.22781,0.0441c-0.0735,0.0294 -0.12493,0.0735 -0.16902,0.11758c-0.0882,0.0882 -0.14697,0.16167 -0.18372,0.21311c-0.0367,0.0588 -0.0661,0.0808 -0.0882,0.0808c-0.0147,0 -0.0294,0 -0.0441,-0.0147l-0.44827,-0.23516c-0.0294,-0.0147 -0.0441,-0.0294 -0.0441,-0.0588c0,-0.0294 0.022,-0.0808 0.0735,-0.16902c0.0514,-0.0808 0.13963,-0.17636 0.25721,-0.27925c0.20576,-0.18371 0.49971,-0.27924 0.87449,-0.27924c0.39683,0 0.72017,0.11757 0.95533,0.33803c0.23515,0.22781 0.36008,0.52176 0.36743,0.88919l0.007,0.97003zM316.0755,188.11111v-0.0294c0,-0.0441 -0.0294,-0.0735 -0.0735,-0.0735h-0.8451c-0.0955,0 -0.17636,0.0367 -0.23515,0.0955c-0.0588,0.0588 -0.0882,0.13963 -0.0882,0.22781v0.11758c0,0.10288 0.0294,0.18372 0.0882,0.24251c0.0588,0.0588 0.13962,0.0882 0.23515,0.0882h0.2866c0.2866,0 0.49236,-0.17637 0.62464,-0.5291zM319.41915,186.70751c0,0.0515 -0.0147,0.0735 -0.0441,0.0735c-0.0367,0 -0.0808,-0.007 -0.13962,-0.022c-0.0588,-0.0147 -0.13228,-0.0294 -0.22046,-0.0294c-0.20576,0 -0.36744,0.0588 -0.48501,0.17637c-0.11758,0.11758 -0.17637,0.2719 -0.17637,0.47766v1.91066c0,0.0514 -0.0294,0.0735 -0.0735,0.0735h-0.51441c-0.0514,0 -0.0735,-0.022 -0.0735,-0.0735v-3.15993c0,-0.0441 0.022,-0.0735 0.0735,-0.0735h0.44092c0.0441,0 0.0735,0.0294 0.0735,0.0735v0.23516c0,0.0588 0.022,0.0882 0.0661,0.0882c0.0147,0 0.0441,-0.0147 0.0808,-0.0588c0.0368,-0.0441 0.0808,-0.0882 0.13963,-0.13962c0.0588,-0.0441 0.12493,-0.0882 0.20576,-0.13228c0.0735,-0.0441 0.16167,-0.0661 0.26455,-0.0661c0.13963,0 0.23516,0.007 0.29395,0.0147c0.0588,0.0147 0.0882,0.0367 0.0882,0.0808zM320.95502,186.55319c-0.17637,0 -0.30864,0.0367 -0.39683,0.10288c-0.0955,0.0661 -0.13962,0.15433 -0.13962,0.27191c0,0.15432 0.0661,0.2572 0.19841,0.31599c0.13228,0.0588 0.33069,0.11758 0.60259,0.16902c0.19107,0.0441 0.36744,0.0882 0.51441,0.13227c0.14697,0.0441 0.26455,0.10288 0.36009,0.16902c0.0955,0.0735 0.16901,0.15432 0.22046,0.25721c0.0441,0.10288 0.0735,0.22046 0.0735,0.36008c0,0.33804 -0.11023,0.60259 -0.33069,0.80835c-0.22046,0.20577 -0.5144,0.3013 -0.88184,0.3013h-0.22046c-0.18372,0 -0.34539,-0.0221 -0.49236,-0.0735c-0.14697,-0.0441 -0.27925,-0.11023 -0.38213,-0.18371c-0.10288,-0.0735 -0.18372,-0.15433 -0.24251,-0.24251c-0.0588,-0.0882 -0.0808,-0.16902 -0.0808,-0.24251c0,-0.0147 0.0147,-0.0367 0.0441,-0.0514l0.42622,-0.21311c0.0147,-0.007 0.0294,-0.0147 0.0368,-0.0147c0.007,0 0.0294,0.0147 0.0588,0.0441c0.0882,0.11758 0.16902,0.21311 0.2572,0.29394c0.0882,0.0808 0.21311,0.11758 0.37478,0.11758h0.22046c0.16902,0 0.3013,-0.0367 0.40418,-0.12492c0.10288,-0.0808 0.15432,-0.18372 0.15432,-0.3013c0,-0.0735 -0.0221,-0.13962 -0.0588,-0.19107c-0.0441,-0.0441 -0.10288,-0.0882 -0.17637,-0.11757c-0.0808,-0.0294 -0.17636,-0.0588 -0.29394,-0.0882c-0.11758,-0.022 -0.25721,-0.0514 -0.40418,-0.0808c-0.35274,-0.0661 -0.60994,-0.16167 -0.77896,-0.29395c-0.16902,-0.13228 -0.24985,-0.33069 -0.24985,-0.60994c0,-0.16167 0.022,-0.30864 0.0808,-0.44092c0.0588,-0.13228 0.13963,-0.24251 0.24251,-0.33804c0.10288,-0.0955 0.22781,-0.16902 0.37478,-0.22046c0.14697,-0.0514 0.30864,-0.0808 0.48501,-0.0808h0.22046c0.17637,0 0.34539,0.0294 0.49236,0.0735c0.14698,0.0514 0.2719,0.11758 0.37478,0.19107c0.10289,0.0735 0.18372,0.15432 0.24251,0.2425c0.0588,0.0882 0.0882,0.16167 0.0882,0.23516c0,0.0221 -0.0147,0.0367 -0.0441,0.0514l-0.42622,0.21311c-0.022,0.0147 -0.0367,0.0147 -0.0441,0.0147c-0.0147,0 -0.0221,0 -0.0294,-0.0147c-0.007,-0.007 -0.0147,-0.0147 -0.022,-0.0294c-0.0955,-0.11758 -0.18372,-0.21311 -0.2719,-0.29395c-0.0882,-0.0735 -0.20577,-0.11758 -0.36009,-0.11758z"/></g><path d="M212.77926,172.48201c0,0 0,-0.07981 0,-0.17827v0c0,-0.09846 0,-0.17827 0,-0.17827h93.07694c0,0 0,0.07981 0,0.17827v0c0,0.09846 0,0.17827 0,0.17827z" fill="#665200" stroke="none" stroke-width="0.5"/><path d="M207.35882,189.61951c0,0 0,-0.07981 0,-0.17827v0c0,-0.09846 0,-0.17827 0,-0.17827h93.07694c0,0 0,0.07981 0,0.17827v0c0,0.09846 0,0.17827 0,0.17827z" fill="#665200" stroke="none" stroke-width="0.5"/><path d="M216.69366,190.10066c-0.68341,-0.00954 -1.3269,-0.15777 -1.93049,-0.44467c-0.60341,-0.29957 -1.09106,-0.73043 -1.46296,-1.29258c-0.3719,-0.56215 -0.55236,-1.23555 -0.54141,-2.02021c0.01873,-1.3415 0.38611,-2.72244 1.10215,-4.14282c0.71621,-1.43303 1.70328,-2.77368 2.96121,-4.02193c0.12815,-0.11213 0.24944,-0.18638 0.36387,-0.22276c0.11443,-0.03641 0.24758,-0.05355 0.39945,-0.05143c0.12656,0.00177 0.24634,0.03508 0.35936,0.09993c0.12567,0.06503 0.18789,0.14185 0.18665,0.23046c-0.00071,0.0506 -0.02708,0.12617 -0.07911,0.22674c-0.03921,0.08806 -0.06531,0.14466 -0.07832,0.16979c0.07593,0.00106 0.16461,-0.00404 0.26603,-0.01529c0.11426,-0.02374 0.32958,-0.0334 0.64597,-0.02898c0.36702,0.00512 0.8597,0.0753 1.47807,0.21052c0.63119,0.12273 1.09145,0.24941 1.38076,0.38004c0.8175,0.3785 1.43733,0.86184 1.85949,1.45c0.42234,0.57552 0.62892,1.19233 0.61973,1.85042c-0.0182,1.30353 -0.40262,2.54499 -1.15327,3.72438c-0.75064,1.17939 -1.70692,2.12806 -2.86884,2.846c-1.16192,0.71795 -2.33137,1.0687 -3.50835,1.05227zM221.41211,179.89444c-0.36472,-0.16965 -0.8255,-0.25836 -1.38235,-0.26614c-0.17718,-0.00247 -0.41781,0.00683 -0.72191,0.02792l-0.70266,0.00919c-0.60747,-0.00848 -0.90944,-0.13928 -0.90591,-0.3924c0.00124,-0.08859 0.00872,-0.17076 0.02243,-0.24652c0.01372,-0.07576 0.02708,-0.1262 0.04009,-0.15134c-0.26577,-0.00371 -0.48198,0.06922 -0.64862,0.21879c-1.05279,1.06124 -1.87242,2.19536 -2.45889,3.40236c-0.57382,1.20717 -0.86876,2.38659 -0.88485,3.53826c-0.01502,1.07574 0.23979,1.8641 0.76444,2.36509c0.53748,0.48851 1.27448,0.73931 2.211,0.75238c1.06308,0.01484 2.10509,-0.2744 3.12603,-0.86773c1.03359,-0.59316 1.87368,-1.37889 2.52024,-2.3572c0.65922,-0.97814 0.99626,-1.99874 1.0111,-3.06182c0.01025,-0.73403 -0.1523,-1.33123 -0.48764,-1.79161c-0.33516,-0.47303 -0.836,-0.8661 -1.50251,-1.1792zM231.98406,191.05468c-0.12656,-0.00177 -0.23369,-0.0349 -0.32139,-0.0994c-0.08788,-0.05183 -0.13112,-0.12839 -0.1297,-0.22966c0.00725,-0.51888 0.05643,-1.32199 0.14757,-2.40931c0.09219,-1.16327 0.14368,-2.1309 0.15446,-2.9029c0.01043,-0.74669 -0.0064,-1.35451 -0.05049,-1.82348c-0.03125,-0.48144 -0.12914,-0.72331 -0.29366,-0.72561c-0.43029,-0.00601 -0.91239,0.52523 -1.4463,1.59372c-0.52107,1.05601 -1.12285,2.45266 -1.80533,4.18996l-0.29536,0.75536c-0.05239,0.12585 -0.14239,0.22586 -0.27001,0.30003c-0.11496,0.07434 -0.23572,0.11063 -0.36228,0.10886c-0.15187,-0.00212 -0.25294,-0.0162 -0.30321,-0.04224c-0.05027,-0.02604 -0.08085,-0.10241 -0.09174,-0.22912l-0.13013,-1.55878l-0.24658,-2.73761c-0.07339,-1.08962 -0.16771,-2.0403 -0.28296,-2.85203c-0.03532,-0.19037 -0.05227,-0.33618 -0.05086,-0.43742c0.00265,-0.18983 0.08703,-0.34055 0.25315,-0.45216c0.16629,-0.12426 0.35701,-0.18488 0.57216,-0.18188c0.12656,0.00177 0.21091,0.30674 0.25305,0.91492c0.0548,0.60836 0.10438,1.59006 0.14875,2.94509l0.06188,1.00719c0.0834,1.27964 0.12904,2.0904 0.13692,2.43228c0.03903,-0.0754 0.07182,-0.15722 0.09837,-0.24546c0.03938,-0.10071 0.08518,-0.20767 0.13739,-0.32086c0.70815,-1.76226 1.36785,-3.22772 1.9791,-4.3964c0.62409,-1.18115 1.21455,-1.76784 1.7714,-1.76007c0.39233,0.00548 0.65341,0.34457 0.78326,1.01727c0.14268,0.66022 0.22576,1.50947 0.24923,2.54777c0.02189,1.1522 0.01737,2.83567 -0.01356,5.05042c-0.00212,0.15187 -0.06717,0.27754 -0.19514,0.37702c-0.12815,0.11214 -0.28081,0.16697 -0.45799,0.16449zM242.23238,185.9573c-0.00318,0.2278 -0.18101,0.72531 -0.53349,1.49254c-0.33983,0.7674 -0.85604,1.47538 -1.54864,2.12393c-0.67994,0.64873 -1.51349,0.9662 -2.50063,0.95242c-0.80997,-0.01131 -1.48351,-0.27388 -2.02064,-0.7877c-0.53712,-0.51383 -0.79835,-1.29596 -0.78369,-2.34638c0.01378,-0.98714 0.25519,-1.95845 0.72423,-2.91392c0.46922,-0.96812 1.07508,-1.7508 1.81759,-2.34802c0.74269,-0.60988 1.50636,-0.90935 2.29102,-0.89839c0.46826,0.00654 0.85908,0.11959 1.17247,0.33915c0.32622,0.20709 0.48659,0.5068 0.48111,0.89913c-0.00619,0.44295 -0.26531,0.86971 -0.77736,1.28027c-0.4994,0.41075 -1.14997,0.76875 -1.9517,1.07401c-0.80173,0.30526 -1.62753,0.52157 -2.4774,0.64894c-0.16,0.58004 -0.24389,1.14849 -0.25166,1.70534c-0.01025,0.73403 0.15265,1.30592 0.4887,1.71567c0.3487,0.40994 0.84577,0.61941 1.49121,0.62842c0.97449,0.01361 1.77033,-0.32338 2.38753,-1.01096c0.61719,-0.68758 1.13438,-1.46517 1.55155,-2.33275c0.02604,-0.05024 0.07166,-0.14454 0.13686,-0.2829c0.06538,-0.15099 0.12339,-0.22613 0.17403,-0.22542c0.08858,0.00124 0.13155,0.09678 0.1289,0.28662zM239.43945,182.00692c-0.48091,-0.00672 -0.94505,0.14503 -1.39242,0.45524c-0.44737,0.3102 -0.82601,0.68466 -1.13594,1.12337c-0.29726,0.43889 -0.49258,0.82856 -0.58594,1.16903c0.58305,-0.05513 1.19914,-0.21108 1.84829,-0.46786c0.64915,-0.25676 1.19109,-0.54033 1.6258,-0.85071c0.44737,-0.31021 0.67247,-0.56656 0.67529,-0.76905c0.00283,-0.20249 -0.10254,-0.36219 -0.31609,-0.4791c-0.2009,-0.11673 -0.44057,-0.17704 -0.71899,-0.18093zM262.18514,190.24221c-0.15187,-0.00212 -0.27201,-0.01013 -0.36042,-0.02403c-0.08824,-0.02657 -0.15072,-0.0844 -0.18746,-0.1735c-0.11124,-0.19143 -0.23626,-0.75646 -0.37506,-1.6951c-0.13879,-0.93864 -0.26931,-2.01641 -0.39155,-3.2333c-0.25196,-3.71236 -0.45967,-5.60765 -0.62313,-5.68588c-0.14345,0.30179 -0.36664,0.87462 -0.66957,1.71849c-0.30274,0.83121 -0.6534,1.92125 -1.05198,3.2701c-0.43796,1.44957 -0.7684,2.45128 -0.99132,3.00513c-0.22274,0.54119 -0.41726,0.87392 -0.58355,0.99818c-0.10249,0.08718 -0.23028,0.174 -0.38338,0.26046c-0.14027,0.074 -0.26104,0.11029 -0.36229,0.10887c-0.12655,-0.00177 -0.20864,-0.01558 -0.24626,-0.04144c-0.03747,-0.03853 -0.08034,-0.14039 -0.12864,-0.3056c-0.04794,-0.19054 -0.15996,-0.78071 -0.33604,-1.7705c-0.17587,-1.00245 -0.30887,-1.90304 -0.39898,-2.70176l-0.10277,-0.7989c-0.19217,-1.64824 -0.3249,-2.56781 -0.39819,-2.75871c-0.24346,0.21179 -0.47798,0.68952 -0.70355,1.43321c-0.2254,0.73102 -0.48676,1.77167 -0.7841,3.12195c-0.28044,1.04671 -0.62701,2.75073 -1.03974,5.11204c-0.01461,0.13904 -0.11129,0.26427 -0.29005,0.3757c-0.17877,0.11143 -0.33776,0.16617 -0.47697,0.16423c-0.20249,-0.00283 -0.31366,-0.20058 -0.33349,-0.59326c-0.00719,-0.39251 -0.08394,-1.24168 -0.23025,-2.54751c-0.13366,-1.30565 -0.25688,-2.45294 -0.36965,-3.44185c-0.15757,-1.40726 -0.37982,-2.71415 -0.66677,-3.92068c-0.08329,-0.38091 -0.12458,-0.59668 -0.12387,-0.6473c0.00265,-0.18983 0.09336,-0.34047 0.27214,-0.45189c0.1916,-0.1239 0.39498,-0.18435 0.61012,-0.18135c0.10124,0.00141 0.20334,0.39524 0.30628,1.18148c0.10295,0.78625 0.20939,1.77507 0.31934,2.96648l0.04825,0.62724c0.04476,0.41835 0.09562,0.85577 0.15256,1.31226c0.21342,1.93968 0.32934,3.15648 0.34776,3.6504c0.27361,-1.46452 0.57896,-2.93494 0.91603,-4.41124l0.18252,-0.83288c0.29715,-1.33762 0.61502,-2.34584 0.95361,-3.02465c0.33877,-0.69146 0.7676,-1.03357 1.28649,-1.02633c0.16452,0.0023 0.34202,0.43515 0.53249,1.29856c0.19065,0.85076 0.33498,1.84645 0.43298,2.98705c0.07728,0.8112 0.18014,1.60378 0.30856,2.37772c0.12843,0.77394 0.24748,1.31357 0.35714,1.61889c0.07894,-0.21409 0.23744,-0.68655 0.47549,-1.4174c0.25071,-0.73067 0.48191,-1.42364 0.69358,-2.07891c0.64964,-2.10485 1.33416,-3.98769 2.05355,-5.64852c0.13027,-0.264 0.25315,-0.45216 0.36865,-0.56447c0.12832,-0.12479 0.34435,-0.18506 0.64809,-0.18082c0.16452,0.0023 0.33163,0.72614 0.50132,2.17154c0.16969,1.4454 0.30456,3.11817 0.40461,5.01829c0.30424,2.68778 0.59389,4.15384 0.86896,4.39818c0.18754,0.16717 0.27998,0.34568 0.27733,0.53551c-0.00124,0.08859 -0.07858,0.18878 -0.23204,0.30056c-0.14063,0.0993 -0.29953,0.14771 -0.47671,0.14524zM265.24391,179.23435c-0.21515,-0.003 -0.43538,-0.09468 -0.66071,-0.27504c-0.21267,-0.18019 -0.31821,-0.32723 -0.31662,-0.44113c0.00194,-0.13921 0.06708,-0.27121 0.1954,-0.396c0.14098,-0.12461 0.28108,-0.18594 0.42029,-0.184c0.18895,0.06591 0.34574,0.16936 0.47035,0.31036c0.09983,0.10266 0.21187,0.23713 0.33613,0.40342c0.12426,0.1663 0.18613,0.26843 0.1856,0.30639c-0.00265,0.18983 -0.2128,0.28184 -0.63044,0.276zM265.64536,191.27788c-0.17701,-0.01514 -0.30591,-0.30175 -0.38672,-0.85983c-0.06816,-0.55791 -0.13567,-1.61581 -0.20252,-3.1737c-0.03628,-1.02582 -0.06662,-2.02624 -0.091,-3.00125c-0.02421,-0.98767 -0.03891,-1.74737 -0.04408,-2.27909c0.00194,-0.13921 0.02236,-0.24019 0.06124,-0.30294c0.05172,-0.07523 0.14084,-0.11195 0.26736,-0.11019c0.29108,0.00406 0.47291,0.12686 0.54549,0.36837c0.07257,0.24152 0.10409,0.70399 0.09455,1.3874l-0.05028,2.23979c-0.01785,1.27823 0.00581,2.30387 0.07097,3.07693c-0.00053,0.038 0.05076,0.44377 0.15388,1.21733c0.08117,0.53278 0.12052,0.88776 0.11804,1.06494c-0.00177,0.12655 -0.06004,0.22068 -0.17483,0.28237c-0.1023,0.07452 -0.22297,0.10447 -0.36201,0.08985zM269.63933,190.80199c-0.15187,-0.00212 -0.29493,-0.18133 -0.4292,-0.53763c-0.12144,-0.36878 -0.17703,-0.92018 -0.16678,-1.65422c0.03263,-1.42992 0.07575,-3.15715 0.12936,-5.18171c0.06627,-2.02438 0.1192,-3.54895 0.15877,-4.57371c0.01779,-0.36684 0.08584,-0.70766 0.20415,-1.02246c0.13097,-0.31463 0.34833,-0.46982 0.65206,-0.46558c0.10125,0.00141 0.16374,0.05925 0.18746,0.1735c0.03658,0.10177 0.05275,0.30453 0.04851,0.60827c-0.00018,0.01267 -0.00713,0.05687 -0.02085,0.13262c-0.00088,0.06326 -0.00256,0.18349 -0.00504,0.36068c-0.27428,3.32527 -0.43351,6.56986 -0.47769,9.73379c-0.00566,0.40499 0.07693,0.83652 0.24775,1.2946c0.18347,0.45825 0.27503,0.70004 0.27468,0.72536c-0.00177,0.12655 -0.08544,0.22665 -0.25103,0.30028c-0.16558,0.07364 -0.34962,0.10904 -0.55212,0.10621zM273.43605,190.85501c-0.15187,-0.00212 -0.29493,-0.18133 -0.4292,-0.53763c-0.12143,-0.36878 -0.17702,-0.92018 -0.16677,-1.65422c0.03263,-1.42992 0.07575,-3.15715 0.12936,-5.18171c0.06627,-2.02438 0.1192,-3.54895 0.15877,-4.57371c0.01779,-0.36684 0.08584,-0.70766 0.20415,-1.02246c0.13098,-0.31463 0.34834,-0.46982 0.65207,-0.46558c0.10124,0.00141 0.16373,0.05925 0.18745,0.1735c0.03658,0.10177 0.05275,0.30453 0.04851,0.60827c-0.00018,0.01267 -0.00713,0.05687 -0.02085,0.13262c-0.00088,0.06326 -0.00256,0.18349 -0.00504,0.36068c-0.27428,3.32527 -0.43351,6.56986 -0.47769,9.73379c-0.00566,0.40499 0.07693,0.83652 0.24775,1.2946c0.18347,0.45825 0.27503,0.70004 0.27468,0.72536c-0.00177,0.12655 -0.08544,0.22665 -0.25103,0.30028c-0.16558,0.07364 -0.34962,0.10904 -0.55212,0.10621zM276.97578,179.39817c-0.21515,-0.003 -0.43538,-0.09468 -0.66071,-0.27504c-0.21267,-0.18019 -0.31821,-0.32723 -0.31662,-0.44113c0.00194,-0.13921 0.06708,-0.27121 0.1954,-0.396c0.14098,-0.12461 0.28108,-0.18594 0.42029,-0.184c0.18895,0.06591 0.34574,0.16936 0.47035,0.31036c0.09983,0.10266 0.21188,0.23713 0.33614,0.40342c0.12426,0.1663 0.18612,0.26843 0.18559,0.30639c-0.00265,0.18983 -0.2128,0.28184 -0.63044,0.276zM277.37722,191.44169c-0.177,-0.01514 -0.30591,-0.30175 -0.38672,-0.85983c-0.06816,-0.55791 -0.13566,-1.61581 -0.20252,-3.1737c-0.03628,-1.02582 -0.06662,-2.02624 -0.091,-3.00125c-0.02421,-0.98767 -0.03891,-1.74737 -0.04408,-2.27909c0.00194,-0.13921 0.02236,-0.24019 0.06124,-0.30294c0.05166,-0.07523 0.14077,-0.11196 0.26735,-0.11019c0.29108,0.00406 0.47291,0.12686 0.54549,0.36837c0.07257,0.24152 0.10409,0.70399 0.09455,1.3874l-0.05028,2.23979c-0.01785,1.27823 0.0058,2.30387 0.07096,3.07693c-0.00053,0.038 0.05077,0.44377 0.15389,1.21733c0.08116,0.53278 0.12051,0.88776 0.11803,1.06494c-0.00177,0.12655 -0.06004,0.22068 -0.17482,0.28237c-0.10231,0.07452 -0.22298,0.10447 -0.36202,0.08985zM282.50703,191.20953c-0.84793,-0.01184 -1.47112,-0.25472 -1.86956,-0.72863c-0.39844,-0.47392 -0.5928,-1.05891 -0.58308,-1.75497c0.00848,-0.60747 0.12657,-1.35899 0.35426,-2.25453c0.24034,-0.89537 0.56796,-1.69459 0.98284,-2.39766c0.02604,-0.05024 0.12984,-0.23233 0.31142,-0.54628c0.19443,-0.3264 0.4067,-0.57027 0.6368,-0.73161c0.23028,-0.174 0.47198,-0.25924 0.72509,-0.2557c0.1139,0.00159 0.2147,0.03463 0.30241,0.09913c0.10054,0.05201 0.1502,0.12232 0.14896,0.21094c-0.00035,0.02533 -0.03921,0.08808 -0.11656,0.18824c-0.0645,0.08771 -0.11609,0.15661 -0.15478,0.2067c-0.43754,0.51287 -0.79273,1.02057 -1.06557,1.52309c-0.36337,0.64049 -0.65072,1.27571 -0.86204,1.90567c-0.19867,0.63013 -0.30322,1.31854 -0.31365,2.06523c-0.01396,0.9998 0.58653,1.50819 1.80147,1.52515c0.56951,0.00795 1.09702,-0.14924 1.58253,-0.47157c0.49817,-0.32216 0.89606,-0.71533 1.19369,-1.17953c0.29779,-0.47686 0.44943,-0.91144 0.45491,-1.30377c0.00619,-0.44295 -0.13396,-0.83098 -0.42045,-1.16409c-0.28649,-0.33311 -0.68028,-0.68671 -1.18138,-1.0608c-0.32569,-0.24505 -0.56341,-0.44457 -0.71316,-0.59857c-0.14974,-0.15399 -0.22391,-0.2816 -0.2225,-0.38285c0.00212,-0.15187 0.11137,-0.27059 0.32775,-0.35618c0.21656,-0.09824 0.47038,-0.14533 0.76146,-0.14126c0.16452,0.0023 0.27192,0.01646 0.3222,0.0425c0.05042,0.01337 0.07527,0.04536 0.07457,0.09595c-0.00035,0.02533 -0.02627,0.06927 -0.07775,0.13182c-0.0387,0.05013 -0.05832,0.09416 -0.05885,0.13209c-0.00053,0.038 0.12426,0.16632 0.37437,0.38497c0.50039,0.42471 0.91844,0.85459 1.25414,1.28966c0.3357,0.43507 0.49948,0.94368 0.49135,1.52584c-0.00689,0.49357 -0.19835,1.06052 -0.57438,1.70084c-0.37603,0.64031 -0.90269,1.18992 -1.57998,1.64881c-0.67712,0.44624 -1.44597,0.66336 -2.30656,0.65134zM294.3071,191.92493c-0.12655,-0.00177 -0.23369,-0.0349 -0.32139,-0.0994c-0.08788,-0.05183 -0.13112,-0.12839 -0.12971,-0.22966c0.00725,-0.51888 0.05643,-1.32199 0.14756,-2.40931c0.0922,-1.16327 0.14369,-2.1309 0.15447,-2.9029c0.01043,-0.74669 -0.00642,-1.35452 -0.05055,-1.82348c-0.03128,-0.48144 -0.12917,-0.72331 -0.29366,-0.72561c-0.4303,-0.00601 -0.9124,0.52523 -1.4463,1.59372c-0.52107,1.05601 -1.12284,2.45266 -1.80533,4.18996l-0.29537,0.75536c-0.05236,0.12585 -0.14236,0.22586 -0.27001,0.30003c-0.11496,0.07434 -0.23572,0.11063 -0.36228,0.10886c-0.15187,-0.00212 -0.25294,-0.0162 -0.30321,-0.04224c-0.05024,-0.02604 -0.08081,-0.10241 -0.09171,-0.22912l-0.13013,-1.55878l-0.24658,-2.73761c-0.07339,-1.08962 -0.16771,-2.0403 -0.28296,-2.85203c-0.03535,-0.19037 -0.05231,-0.33618 -0.0509,-0.43742c0.00265,-0.18983 0.08703,-0.34055 0.25315,-0.45216c0.16629,-0.12426 0.35701,-0.18488 0.57216,-0.18188c0.12656,0.00177 0.21091,0.30674 0.25305,0.91492c0.05478,0.60836 0.10436,1.59006 0.14874,2.94509l0.06184,1.00719c0.0834,1.27964 0.12904,2.0904 0.13692,2.43228c0.03906,-0.0754 0.07184,-0.15722 0.09834,-0.24546c0.03941,-0.10071 0.08521,-0.20767 0.13739,-0.32086c0.70815,-1.76226 1.36785,-3.22772 1.9791,-4.3964c0.62409,-1.18115 1.21455,-1.76784 1.77141,-1.76007c0.39233,0.00548 0.65342,0.34457 0.78326,1.01727c0.14268,0.66022 0.22575,1.50947 0.24923,2.54777c0.02191,1.1522 0.01741,2.83567 -0.01352,5.05042c-0.00212,0.15187 -0.06716,0.27754 -0.19513,0.37702c-0.12814,0.11214 -0.28081,0.16697 -0.45799,0.16449z" fill="#2b1100" stroke="none" stroke-width="0.75514"/><path d="M232.8003,165.13063c-0.3948,0.1717 -0.79575,0.33066 -1.20286,0.47687c-0.4071,0.14621 -0.6742,0.23742 -0.80129,0.27362c0.04172,1.54488 0.05498,2.86151 0.03978,3.9499c-0.00495,0.35436 0.02895,0.64597 0.10171,0.87484c0.08559,0.21638 0.12794,0.35621 0.12705,0.41949c-0.00194,0.13921 -0.07314,0.25214 -0.21359,0.33879c-0.14063,0.0993 -0.28687,0.14789 -0.43874,0.14577c-0.18984,-0.00265 -0.30821,-0.13721 -0.35512,-0.40369c0.00035,-0.02533 -0.01704,-0.1395 -0.05218,-0.3425c-0.02248,-0.20285 -0.03116,-0.48778 -0.02604,-0.85479c0.01378,-0.98715 -0.00156,-2.60761 -0.04604,-4.86139c-0.02207,-1.13954 -0.02974,-1.94977 -0.02302,-2.43069c0.00565,-0.40498 0.0172,-0.77824 0.03463,-1.11977c0.0176,-0.35418 0.02728,-0.59455 0.02905,-0.7211c-0.80031,0.20401 -1.49314,0.41586 -2.07848,0.63553c-0.19107,0.08593 -0.45887,0.22776 -0.80341,0.42548c-0.15311,0.08647 -0.30612,0.16661 -0.45905,0.24042c-0.14027,0.07399 -0.24838,0.11045 -0.32431,0.10939c-0.10125,-0.00141 -0.18922,-0.04694 -0.26391,-0.13659c-0.0747,-0.08965 -0.11116,-0.19776 -0.10939,-0.32432c0.0023,-0.16452 0.24558,-0.36366 0.72986,-0.5974c0.48445,-0.2464 1.06997,-0.47873 1.75656,-0.69698c0.69924,-0.21808 1.34074,-0.38001 1.9245,-0.48579c0.68517,-0.11701 1.4454,-0.16969 2.28068,-0.15802c1.15167,0.01608 2.05443,0.18059 2.70828,0.49351c0.65403,0.30027 0.97689,0.74781 0.96859,1.34262c-0.01043,0.74669 -0.32317,1.38789 -0.93824,1.9236c-0.6149,0.52306 -1.4699,1.01745 -2.56501,1.48317zM232.61607,160.64706c-0.58216,-0.00813 -1.17751,0.02153 -1.78604,0.08898c-0.01407,0.10107 -0.03632,0.33494 -0.06676,0.7016c-0.01778,0.36684 -0.02897,0.71479 -0.03357,1.04383l-0.00036,1.38607c0.00842,0.30391 0.00936,0.69 0.00282,1.15826c0.26612,-0.02162 0.83195,-0.20359 1.69749,-0.54592c0.8404,-0.35535 1.54845,-0.75052 2.12414,-1.18552c0.57587,-0.44766 0.86734,-0.9246 0.87441,-1.43082c0.00601,-0.4303 -0.26185,-0.73783 -0.80358,-0.92261c-0.54172,-0.18478 -1.21123,-0.28274 -2.00854,-0.29387zM238.75833,170.85303c-0.15187,-0.00212 -0.29493,-0.18133 -0.4292,-0.53763c-0.12143,-0.36878 -0.17702,-0.92019 -0.16677,-1.65422c0.03263,-1.42992 0.07575,-3.15715 0.12936,-5.18171c0.06627,-2.02439 0.1192,-3.54896 0.15877,-4.57372c0.01779,-0.36683 0.08584,-0.70765 0.20415,-1.02246c0.13098,-0.31462 0.34834,-0.46981 0.65207,-0.46557c0.10124,0.00141 0.16373,0.05925 0.18745,0.1735c0.03658,0.10177 0.05275,0.30453 0.04851,0.60827c-0.00018,0.01267 -0.00713,0.05687 -0.02085,0.13262c-0.00088,0.06326 -0.00256,0.18349 -0.00504,0.36068c-0.27428,3.32527 -0.43351,6.56986 -0.47769,9.73379c-0.00565,0.40498 0.07693,0.83651 0.24775,1.2946c0.18347,0.45825 0.27503,0.70003 0.27468,0.72535c-0.00177,0.12656 -0.08544,0.22666 -0.25103,0.30029c-0.16558,0.07364 -0.34962,0.10904 -0.55212,0.10621zM249.66339,170.39772c-0.00212,0.15187 -0.06788,0.32816 -0.19726,0.52889c-0.12921,0.18807 -0.25708,0.28122 -0.38364,0.27945c-0.21515,-0.003 -0.37782,-0.13819 -0.48801,-0.40554c-0.11019,-0.26736 -0.16281,-0.57823 -0.15786,-0.93259c0.00424,-0.30374 0.03596,-1.21468 0.09517,-2.73284l0.02907,-0.7211c0.00406,-0.29108 -0.06896,-0.50096 -0.21906,-0.62964c-0.58294,0.95388 -1.12614,1.78173 -1.6296,2.48356c-0.50347,0.70183 -1.13929,1.36384 -1.90747,1.98602c-0.76801,0.60952 -1.56964,0.90845 -2.40492,0.89679c-0.40499,-0.00566 -0.71961,-0.13663 -0.94388,-0.39293c-0.21162,-0.25612 -0.3146,-0.58667 -0.30894,-0.99165c0.00707,-0.50622 0.2445,-1.19278 0.71231,-2.05967c0.46797,-0.87953 1.06259,-1.76363 1.78387,-2.65229c0.72144,-0.90131 1.44059,-1.63811 2.15743,-2.21037c0.47356,-0.37313 0.85044,-0.62103 1.13063,-0.7437c0.28037,-0.13533 0.52813,-0.20149 0.74327,-0.19848c0.20249,0.00283 0.41043,0.06902 0.62381,0.19858c0.21338,0.12957 0.39441,0.30931 0.54309,0.53923c0.14869,0.22993 0.221,0.49043 0.21694,0.78152c-0.00548,0.39232 -0.11826,0.76416 -0.33836,1.11551l0.32404,-0.09038c0.13921,0.00194 0.21909,0.17394 0.23963,0.516c0.00984,0.20267 0.01676,0.61416 0.02077,1.23446c0.01667,0.62049 0.02851,1.13331 0.03552,1.53847c0.00683,0.41782 0.01384,0.82298 0.02103,1.21548c0.00719,0.3925 0.01552,0.70274 0.02501,0.93072c0.01143,0.08877 0.06072,0.18439 0.14789,0.28687c0.08735,0.08983 0.13059,0.16638 0.12971,0.22966zM248.08631,165.04028c0.15717,-0.37755 0.23884,-0.7878 0.24503,-1.23075c0.00371,-0.26577 -0.07537,-0.49472 -0.23724,-0.68686c-0.14904,-0.20461 -0.35644,-0.30877 -0.62222,-0.31248c-0.31639,-0.00442 -0.72437,0.20507 -1.22395,0.62847c-0.57622,0.47297 -1.18638,1.11001 -1.83047,1.91114c-0.64392,0.78847 -1.18018,1.57212 -1.60877,2.35095c-0.4286,0.77882 -0.64607,1.39603 -0.65244,1.85164c-0.0053,0.37967 0.16923,0.57198 0.52359,0.57693c0.68341,0.00954 1.34504,-0.23438 1.98489,-0.73178c0.63985,-0.49739 1.21143,-1.09067 1.71472,-1.77984c0.51613,-0.70165 1.08508,-1.56079 1.70687,-2.57742zM257.71731,164.71906c-0.16742,1.11158 -0.25843,1.73689 -0.27303,1.87593c-0.18626,1.55435 -0.3231,2.74231 -0.41052,3.56387c-0.07457,0.80908 -0.11645,1.54267 -0.12564,2.20077c-0.0076,0.54419 0.02436,0.97502 0.09588,1.29246c0.08417,0.31763 0.16931,0.56566 0.25543,0.74407c0.0986,0.19126 0.14763,0.30586 0.1471,0.34383c-0.00159,0.1139 -0.10425,0.21374 -0.30798,0.2995c-0.20373,0.08576 -0.41317,0.12714 -0.62831,0.12414c-0.16452,-0.0023 -0.29432,-0.22563 -0.38937,-0.66999c-0.08241,-0.44419 -0.11707,-1.13454 -0.10399,-2.07106c0.0099,-0.70872 0.09285,-1.66325 0.24885,-2.8636l0.32133,-2.61575c-0.3509,0.65332 -0.7837,1.28019 -1.2984,1.88059c-0.50188,0.58792 -1.01859,0.87817 -1.55013,0.87075c-0.49357,-0.00689 -0.93051,-0.44337 -1.31083,-1.30944c-0.3803,-0.86606 -0.67676,-1.84488 -0.88937,-2.93645c-0.19995,-1.09139 -0.29639,-1.8902 -0.28932,-2.39643c0.00442,-0.31639 0.10154,-0.47326 0.29138,-0.47061c0.27843,0.00389 0.45198,0.2658 0.52067,0.78575c0.43179,3.525 1.07797,5.29351 1.93856,5.30552c0.34171,0.00477 0.64097,-0.12396 0.8978,-0.38619c0.26966,-0.27472 0.58564,-0.69435 0.94795,-1.25892c0.16824,-0.26347 0.35036,-0.61535 0.54638,-1.05565c0.19602,-0.4403 0.34668,-0.80528 0.45199,-1.09495l0.15966,-1.91549c0.0294,-0.29072 0.07019,-0.49268 0.12239,-0.60588c0.05236,-0.12585 0.15449,-0.18771 0.30638,-0.18559c0.12656,0.00177 0.25206,0.07947 0.37649,0.2331c0.12461,0.14098 0.18594,0.28108 0.184,0.42029c-0.00406,0.29108 -0.08251,0.92289 -0.23533,1.89544zM266.9922,166.78527c-0.00318,0.2278 -0.18101,0.72532 -0.53349,1.49255c-0.33983,0.7674 -0.85604,1.47538 -1.54864,2.12393c-0.67994,0.64873 -1.51349,0.9662 -2.50063,0.95242c-0.80997,-0.01131 -1.48351,-0.27388 -2.02064,-0.78771c-0.53712,-0.51382 -0.79835,-1.29595 -0.78369,-2.34637c0.01378,-0.98714 0.25519,-1.95845 0.72423,-2.91392c0.46922,-0.96813 1.07508,-1.75081 1.81759,-2.34803c0.74269,-0.60988 1.50636,-0.90934 2.29102,-0.89838c0.46826,0.00654 0.85908,0.11959 1.17247,0.33915c0.32622,0.20709 0.48659,0.50679 0.48111,0.89912c-0.00619,0.44295 -0.26531,0.86971 -0.77736,1.28028c-0.4994,0.41075 -1.14997,0.76875 -1.9517,1.074c-0.80173,0.30526 -1.62753,0.52158 -2.4774,0.64895c-0.16,0.58004 -0.24389,1.14849 -0.25166,1.70533c-0.01025,0.73404 0.15265,1.30593 0.4887,1.71568c0.3487,0.40993 0.84577,0.6194 1.49121,0.62841c0.97449,0.01361 1.77033,-0.32338 2.38753,-1.01095c0.61719,-0.68758 1.13438,-1.46517 1.55155,-2.33275c0.02604,-0.05024 0.07166,-0.14454 0.13686,-0.2829c0.06538,-0.15099 0.12339,-0.22613 0.17403,-0.22542c0.08858,0.00124 0.13155,0.09677 0.1289,0.28661zM264.19927,162.8349c-0.48091,-0.00672 -0.94505,0.14503 -1.39242,0.45523c-0.44737,0.31021 -0.82601,0.68467 -1.13594,1.12338c-0.29726,0.43889 -0.49258,0.82856 -0.58594,1.16902c0.58305,-0.05513 1.19914,-0.21108 1.84829,-0.46786c0.64915,-0.25675 1.19109,-0.54033 1.6258,-0.85071c0.44737,-0.3102 0.67247,-0.56655 0.67529,-0.76905c0.00283,-0.20249 -0.10254,-0.36218 -0.31609,-0.47909c-0.2009,-0.11673 -0.44057,-0.17704 -0.71899,-0.18093zM274.39733,164.05958c-0.08859,-0.00124 -0.17665,-0.04044 -0.26417,-0.11762c-0.07488,-0.07699 -0.16197,-0.1858 -0.26127,-0.32643c-0.08682,-0.12779 -0.20555,-0.23704 -0.35618,-0.32775c-0.13798,-0.09054 -0.2829,-0.13686 -0.43477,-0.13898c-0.36701,-0.00512 -0.86739,0.47523 -1.50113,1.44106c-0.63356,0.95317 -1.258,2.15964 -1.87332,3.6194c0.0086,0.29126 0.02247,0.65853 0.04162,1.10184c0.03181,0.44348 0.05251,0.77288 0.06211,0.9882l0.04639,0.76014c-0.00247,0.17718 -0.04256,0.32851 -0.12026,0.45402c-0.07788,0.13815 -0.21807,0.20581 -0.42056,0.20298c-0.21515,-0.003 -0.35038,-0.2897 -0.40571,-0.86009c-0.05513,-0.58305 -0.08135,-1.42518 -0.07864,-2.5264c-0.00878,-0.2786 -0.01588,-0.67743 -0.0213,-1.19649c0.00725,-0.51888 0.00324,-1.13919 -0.01202,-1.86092c-0.0228,-1.08892 -0.03093,-1.86751 -0.02439,-2.33577c0.00406,-0.29108 0.18328,-0.43414 0.53763,-0.4292c0.21515,0.003 0.34038,0.09969 0.3757,0.29005c0.04812,0.17788 0.06856,0.52627 0.06131,1.04515l-0.04215,3.01839c0.39328,-0.96918 0.81634,-1.80504 1.26919,-2.50758c0.45285,-0.70253 0.89065,-1.23439 1.31342,-1.59557c0.43559,-0.37367 0.81791,-0.5582 1.14696,-0.55361c0.27843,0.00389 0.54331,0.07088 0.79466,0.20097c0.25135,0.13009 0.45154,0.29744 0.60058,0.50205c0.14922,0.19196 0.22259,0.37652 0.22012,0.5537c-0.00159,0.1139 -0.08571,0.24564 -0.25235,0.39522c-0.15382,0.13709 -0.28767,0.20484 -0.40158,0.20325z" fill="#2b1100" stroke="none" stroke-width="0.75514"/><path d="M211.00061,209.20518c0,0 0,-0.07981 0,-0.17827v-12.04382c0,-0.09846 0,-0.17827 0,-0.17827h110.76173c0,0 0,0.07981 0,0.17827v12.04382c0,0.09846 0,0.17827 0,0.17827z" fill="#f9f9f9" stroke="none" stroke-width="0.5"/><path d="M246.52068,206.08256l0.03932,0.83685c-0.00171,0.12236 -0.02684,0.2172 -0.07538,0.28452c-0.04864,0.07411 -0.10695,0.1107 -0.17492,0.10975c-0.0476,-0.00066 -0.09356,-0.11689 -0.1379,-0.34869c-0.03757,-0.2317 -0.05417,-0.5039 -0.0498,-0.81659c-0.13634,0.0253 -0.28608,0.03681 -0.44923,0.03453c-0.3195,-0.00446 -0.57055,-0.04196 -0.75314,-0.11251c-0.1825,-0.07734 -0.27285,-0.18059 -0.27104,-0.30974c0.00085,-0.06119 0.07384,-0.17576 0.21897,-0.34371c0.15202,-0.17465 0.25522,-0.2616 0.30961,-0.26084c0.08157,0.00114 0.12212,0.01871 0.12165,0.0527c-0.00028,0.0204 -0.0381,0.05047 -0.11345,0.09022c-0.06845,0.03305 -0.10287,0.06317 -0.10325,0.09037c-0.00028,0.0204 0.02649,0.05137 0.08031,0.09293c0.06062,0.04165 0.14507,0.08022 0.25335,0.11572c0.11509,0.03561 0.25421,0.05455 0.41736,0.05683c0.06119,0.00085 0.15306,-0.00466 0.2756,-0.01655l0.00427,-0.30591c0.00968,-0.69338 0.02091,-1.25415 0.03369,-1.68232c-0.68355,-0.22712 -1.22113,-0.4386 -1.61275,-0.63445c-0.38472,-0.20255 -0.57547,-0.41939 -0.57224,-0.65051c0.00437,-0.3127 0.23703,-0.66302 0.69799,-1.05094c0.46106,-0.39471 0.99321,-0.76804 1.59645,-1.11997l0.02259,-0.88698c0.01126,-0.3194 0.04235,-0.59773 0.09327,-0.835c0.05781,-0.24396 0.16149,-0.3649 0.31103,-0.36281c0.09517,0.00133 0.14214,0.04618 0.14091,0.13455c-0.00047,0.034 -0.0044,0.07134 -0.01177,0.11203c-0.00737,0.0407 -0.01469,0.078 -0.02196,0.11188c-0.04326,0.17617 -0.0658,0.32884 -0.0676,0.458l-0.02809,0.55034l-0.02723,0.48916c0.16438,-0.08609 0.38325,-0.17823 0.65658,-0.2764c0.28014,-0.09807 0.48818,-0.14616 0.62414,-0.14426c0.10877,0.00152 0.21036,0.03014 0.30477,0.08586c0.09451,0.04892 0.14124,0.11077 0.14019,0.18554c0.00613,0.04769 0.01208,0.10897 0.01784,0.18383c0.01265,0.06817 0.02199,0.12949 0.02803,0.18397c-0.00057,0.0408 -0.01469,0.078 -0.04236,0.1116c-0.02078,0.02691 -0.04477,0.04018 -0.07196,0.0398c-0.0272,-0.00038 -0.05066,-0.02451 -0.0704,-0.07239c-0.01964,-0.05468 -0.05641,-0.09939 -0.11032,-0.13412c-0.04712,-0.03466 -0.14545,-0.05304 -0.295,-0.05512c-0.11556,-0.00161 -0.28268,0.03685 -0.50135,0.11539c-0.21858,0.07174 -0.45457,0.17383 -0.708,0.30627c-0.06402,1.17537 -0.10757,2.10285 -0.13066,2.78245c0.74444,0.24836 1.31252,0.46707 1.70424,0.65612c0.39861,0.18234 0.59649,0.37548 0.59364,0.57942c-0.00218,0.15635 -0.11351,0.33837 -0.33399,0.54607c-0.22047,0.2077 -0.50883,0.40765 -0.86507,0.59985c-0.35615,0.1854 -0.71848,0.32652 -1.08699,0.42336zM244.51318,202.31157c-0.00171,0.12236 0.13929,0.25012 0.42299,0.38326c0.28371,0.13315 0.69289,0.28844 1.22755,0.46588c0.03002,-1.17584 0.05501,-1.9914 0.07497,-2.44666c-0.47975,0.27207 -0.88825,0.55533 -1.22552,0.84978c-0.33038,0.28776 -0.49704,0.537 -0.49998,0.74773zM246.49196,203.75683c-0.00917,0.16986 -0.00943,0.43162 -0.00076,0.7853c0.00942,0.2993 0.01309,0.52373 0.011,0.67328l0.00493,0.37743c0.28645,-0.06399 0.5631,-0.15532 0.82993,-0.27398c0.27362,-0.11856 0.49296,-0.24469 0.65801,-0.37837c0.17194,-0.14038 0.25862,-0.26155 0.26004,-0.36352c0.00161,-0.11556 -0.14293,-0.23316 -0.43362,-0.35281c-0.2839,-0.11956 -0.72707,-0.27533 -1.32951,-0.46732zM252.44823,206.66507c0.01926,0.08186 0.03833,0.17732 0.05721,0.28637c0.02558,0.11594 0.03819,0.18751 0.03781,0.21471c-0.00104,0.07477 -0.04618,0.14213 -0.1354,0.20208c-0.08252,0.06684 -0.17477,0.09955 -0.27674,0.09813c-0.06119,-0.00085 -0.12152,-0.06289 -0.18098,-0.18611c-0.05958,-0.11642 -0.10168,-0.26659 -0.12629,-0.45051c-0.11239,-0.71549 -0.20574,-1.82166 -0.28002,-3.31852l-0.11243,-2.17391c-0.53764,0.52283 -1.09113,0.96385 -1.66048,1.32305c-0.15088,0.09308 -0.25691,0.1392 -0.31809,0.13834c-0.06798,-0.00095 -0.12208,-0.02211 -0.16229,-0.06347c-0.04013,-0.04817 -0.05991,-0.09264 -0.05934,-0.13341c0.00123,-0.08837 0.08074,-0.18245 0.23851,-0.28224c0.34983,-0.21949 0.66245,-0.45309 0.93788,-0.70081c0.28222,-0.24763 0.56469,-0.51226 0.84739,-0.79388l0.14475,-0.14076l0.00014,-0.0102l0.00214,-0.15295l0.00142,-0.10197c0.00066,-0.0476 0.01129,-0.07805 0.03188,-0.09136c0.01379,-0.01341 0.02748,-0.02002 0.04108,-0.01983c0.04108,-0.01983 0.08881,-0.02936 0.14318,-0.0286c0.13596,0.0019 0.24444,0.02382 0.32544,0.06575c0.08101,0.04194 0.12094,0.10369 0.11981,0.18525c-0.00114,0.08157 -0.04326,0.17617 -0.12635,0.28379c0.03172,0.16363 0.04984,0.32706 0.05436,0.49031c0.008,0.40126 0.04816,1.17693 0.12049,2.32701c0.07242,1.14328 0.12991,1.89539 0.17246,2.25634c0.03153,0.17722 0.0857,0.43634 0.16252,0.77737zM254.33146,207.65006c-0.06798,-0.00095 -0.12548,-0.02215 -0.17249,-0.06361c-0.04032,-0.03457 -0.06005,-0.08244 -0.0592,-0.14361c0.00057,-0.0408 0.03934,-0.13884 0.1163,-0.29414c0.08366,-0.14841 0.13592,-0.23947 0.15679,-0.27318l0.2932,-0.54664l0.19009,-0.46649c0.07763,-0.20289 0.1409,-0.35159 0.18981,-0.44609c0.04902,-0.10131 0.09732,-0.15163 0.14489,-0.15096c0.07478,0.00104 0.15234,0.04632 0.23268,0.13584c0.08723,0.08281 0.13033,0.1616 0.12928,0.23637c-0.00142,0.10197 -0.08608,0.32176 -0.25397,0.65938c-0.1611,0.33771 -0.33881,0.64799 -0.53314,0.93085c-0.19433,0.28285 -0.33908,0.42362 -0.43425,0.42229zM257.87574,207.27119c-0.48945,-0.00683 -0.86417,-0.19564 -1.12416,-0.56643c-0.25999,-0.37079 -0.3859,-0.84849 -0.37774,-1.4331c0.00978,-0.70019 0.10462,-1.40598 0.28453,-2.11738c0.1868,-0.7181 0.4304,-1.36402 0.73078,-1.93777c-0.05439,-0.00076 -0.10509,-0.02187 -0.1521,-0.06333c-0.04703,-0.04146 -0.07011,-0.09278 -0.06926,-0.15395c0.00123,-0.08837 0.05335,-0.16923 0.15636,-0.24259c0.10981,-0.07325 0.23633,-0.12588 0.37956,-0.15788c0.01379,-0.01341 0.03797,-0.04027 0.07253,-0.0806c0.03466,-0.04712 0.08258,-0.07025 0.14375,-0.0694c0.06797,0.00095 0.13236,0.01545 0.19316,0.0435c0.06091,0.02125 0.09797,0.04557 0.11117,0.07296c0.19082,-0.03134 0.38479,-0.04563 0.58193,-0.04288c0.46226,0.00645 0.87518,0.13801 1.23875,0.39465c0.36357,0.25665 0.64759,0.61077 0.85206,1.06237c0.20456,0.44481 0.303,0.94252 0.29531,1.49315c-0.00835,0.59822 -0.17306,1.19424 -0.49411,1.78809c-0.31426,0.59394 -0.72896,1.07769 -1.24411,1.45125c-0.50845,0.38046 -1.0346,0.56689 -1.57842,0.5593zM258.83838,201.14496c-0.15635,-0.00218 -0.36397,0.01532 -0.62286,0.05251l-0.21456,0.02761c-0.32049,0.55306 -0.57437,1.20564 -0.76166,1.95774c-0.18048,0.75219 -0.27518,1.44779 -0.2841,2.08679c-0.00598,0.42826 0.07066,0.78289 0.22992,1.06388c0.16615,0.27429 0.42937,0.41395 0.78966,0.41898c0.41467,0.00579 0.83515,-0.16172 1.26146,-0.50253c0.42641,-0.3476 0.77918,-0.77782 1.0583,-1.29066c0.27913,-0.51285 0.42197,-1.0038 0.42852,-1.47285c0.00579,-0.41467 -0.08062,-0.80003 -0.25922,-1.15608c-0.17171,-0.36275 -0.4057,-0.64818 -0.70195,-0.85629c-0.28937,-0.21482 -0.5972,-0.32451 -0.9235,-0.32907zM263.62673,207.3515c-0.48945,-0.00683 -0.86417,-0.19564 -1.12416,-0.56643c-0.25999,-0.37079 -0.3859,-0.84849 -0.37774,-1.4331c0.00978,-0.70019 0.10462,-1.40598 0.28453,-2.11738c0.1868,-0.7181 0.4304,-1.36402 0.73078,-1.93777c-0.05439,-0.00076 -0.10509,-0.02187 -0.1521,-0.06333c-0.04703,-0.04146 -0.07011,-0.09278 -0.06926,-0.15395c0.00123,-0.08837 0.05335,-0.16923 0.15636,-0.24259c0.10981,-0.07325 0.23633,-0.12588 0.37956,-0.15788c0.01379,-0.01341 0.03797,-0.04027 0.07253,-0.0806c0.03466,-0.04712 0.08258,-0.07025 0.14375,-0.0694c0.06798,0.00095 0.13237,0.01545 0.19317,0.0435c0.06091,0.02125 0.09796,0.04557 0.11116,0.07296c0.19082,-0.03134 0.38479,-0.04563 0.58194,-0.04288c0.46225,0.00645 0.87517,0.13801 1.23874,0.39465c0.36357,0.25665 0.64759,0.61077 0.85206,1.06237c0.20456,0.44481 0.303,0.94252 0.29531,1.49315c-0.00835,0.59822 -0.17306,1.19424 -0.49411,1.78809c-0.31426,0.59394 -0.72896,1.07769 -1.24411,1.45125c-0.50845,0.38046 -1.0346,0.56689 -1.57842,0.5593zM264.58937,201.22526c-0.15635,-0.00218 -0.36397,0.01532 -0.62286,0.05251l-0.21456,0.02761c-0.32049,0.55306 -0.57437,1.20564 -0.76165,1.95774c-0.18049,0.75219 -0.27519,1.44779 -0.28411,2.08679c-0.00598,0.42826 0.07066,0.78289 0.22992,1.06388c0.16615,0.27429 0.42937,0.41395 0.78966,0.41898c0.41467,0.00579 0.83516,-0.16172 1.26147,-0.50253c0.4264,-0.3476 0.77917,-0.77782 1.05829,-1.29066c0.27913,-0.51285 0.42197,-1.0038 0.42852,-1.47285c0.00579,-0.41467 -0.08062,-0.80003 -0.25922,-1.15608c-0.17171,-0.36275 -0.4057,-0.64818 -0.70195,-0.85629c-0.28937,-0.21482 -0.5972,-0.32451 -0.9235,-0.32907zM269.37771,207.4318c-0.48945,-0.00683 -0.86417,-0.19564 -1.12416,-0.56643c-0.25999,-0.37079 -0.3859,-0.84849 -0.37774,-1.4331c0.00978,-0.70019 0.10462,-1.40598 0.28453,-2.11738c0.1868,-0.7181 0.4304,-1.36402 0.73078,-1.93777c-0.05439,-0.00076 -0.10509,-0.02187 -0.1521,-0.06333c-0.04703,-0.04146 -0.07011,-0.09278 -0.06926,-0.15395c0.00123,-0.08837 0.05336,-0.16923 0.15637,-0.24259c0.10981,-0.07325 0.23632,-0.12588 0.37955,-0.15788c0.01379,-0.01341 0.03797,-0.04027 0.07253,-0.0806c0.03466,-0.04712 0.08258,-0.07025 0.14375,-0.0694c0.06798,0.00095 0.13237,0.01545 0.19317,0.0435c0.06091,0.02125 0.09796,0.04557 0.11116,0.07296c0.19082,-0.03134 0.38479,-0.04563 0.58194,-0.04288c0.46225,0.00645 0.87517,0.13801 1.23874,0.39465c0.36357,0.25665 0.64759,0.61077 0.85206,1.06237c0.20456,0.44481 0.303,0.94252 0.29531,1.49315c-0.00835,0.59822 -0.17306,1.19424 -0.49411,1.78809c-0.31426,0.59394 -0.72896,1.07769 -1.24411,1.45125c-0.50845,0.38046 -1.0346,0.56689 -1.57842,0.5593zM270.34035,201.30557c-0.15635,-0.00218 -0.36397,0.01532 -0.62286,0.05251l-0.21456,0.02761c-0.32049,0.55306 -0.57437,1.20564 -0.76165,1.95774c-0.18049,0.75219 -0.27519,1.44779 -0.28411,2.08679c-0.00598,0.42826 0.07066,0.78289 0.22992,1.06388c0.16615,0.27429 0.42937,0.41395 0.78966,0.41898c0.41467,0.00579 0.83516,-0.16172 1.26147,-0.50253c0.4264,-0.3476 0.77917,-0.77782 1.05829,-1.29066c0.27913,-0.51285 0.42197,-1.0038 0.42852,-1.47285c0.00579,-0.41467 -0.08062,-0.80003 -0.25922,-1.15608c-0.17171,-0.36275 -0.4057,-0.64818 -0.70195,-0.85629c-0.28937,-0.21482 -0.5972,-0.32451 -0.9235,-0.32907zM273.74615,207.92115c-0.06797,-0.00095 -0.12547,-0.02215 -0.17249,-0.06361c-0.04032,-0.03457 -0.06005,-0.08244 -0.0592,-0.14361c0.00057,-0.0408 0.03933,-0.13884 0.11629,-0.29415c0.08366,-0.14841 0.13593,-0.23947 0.1568,-0.27318l0.2932,-0.54664l0.19009,-0.46649c0.07762,-0.20289 0.14089,-0.35159 0.18981,-0.44609c0.04902,-0.10131 0.09732,-0.15163 0.14489,-0.15096c0.07477,0.00104 0.15233,0.04632 0.23268,0.13584c0.08723,0.08281 0.13033,0.1616 0.12928,0.23637c-0.00142,0.10197 -0.08608,0.32176 -0.25398,0.65938c-0.1611,0.33771 -0.33881,0.64799 -0.53314,0.93085c-0.19433,0.28285 -0.33908,0.42362 -0.43425,0.42229zM277.29042,207.54229c-0.48945,-0.00683 -0.86417,-0.19564 -1.12416,-0.56643c-0.25999,-0.37079 -0.3859,-0.84849 -0.37774,-1.4331c0.00978,-0.70019 0.10462,-1.40598 0.28453,-2.11738c0.18681,-0.7181 0.4304,-1.36402 0.73078,-1.93777c-0.05439,-0.00076 -0.10509,-0.02187 -0.15209,-0.06333c-0.04703,-0.04146 -0.07011,-0.09278 -0.06926,-0.15395c0.00123,-0.08837 0.05336,-0.16923 0.15637,-0.24259c0.10981,-0.07325 0.23633,-0.12588 0.37956,-0.15788c0.01379,-0.01341 0.03797,-0.04027 0.07253,-0.0806c0.03466,-0.04712 0.08258,-0.07025 0.14375,-0.0694c0.06798,0.00095 0.13237,0.01545 0.19317,0.0435c0.06091,0.02125 0.09796,0.04557 0.11116,0.07296c0.19082,-0.03134 0.38479,-0.04563 0.58194,-0.04288c0.46225,0.00645 0.87517,0.13801 1.23874,0.39465c0.36357,0.25665 0.64759,0.61077 0.85206,1.06237c0.20457,0.44481 0.30301,0.94252 0.29532,1.49315c-0.00835,0.59822 -0.17306,1.19424 -0.49411,1.78809c-0.31426,0.59394 -0.72896,1.07769 -1.24412,1.45125c-0.50845,0.38046 -1.0346,0.56689 -1.57842,0.5593zM278.25306,201.41606c-0.15635,-0.00218 -0.36397,0.01532 -0.62286,0.05251l-0.21456,0.02761c-0.32049,0.55306 -0.57437,1.20564 -0.76165,1.95774c-0.18049,0.75219 -0.27519,1.44779 -0.28411,2.08679c-0.00598,0.42826 0.07066,0.78289 0.22992,1.06388c0.16615,0.27429 0.42937,0.41395 0.78966,0.41898c0.41467,0.00579 0.83516,-0.16172 1.26147,-0.50253c0.4264,-0.3476 0.77917,-0.77782 1.05829,-1.29066c0.27913,-0.51285 0.42198,-1.0038 0.42853,-1.47285c0.00579,-0.41467 -0.08062,-0.80003 -0.25922,-1.15608c-0.17172,-0.36275 -0.40571,-0.64818 -0.70196,-0.85629c-0.28937,-0.21482 -0.5972,-0.32451 -0.9235,-0.32907zM283.04141,207.6226c-0.48945,-0.00683 -0.86416,-0.19564 -1.12415,-0.56643c-0.26,-0.37079 -0.38591,-0.84849 -0.37775,-1.4331c0.00978,-0.70019 0.10462,-1.40598 0.28454,-2.11738c0.1868,-0.7181 0.4304,-1.36402 0.73078,-1.93777c-0.05439,-0.00076 -0.10509,-0.02187 -0.1521,-0.06333c-0.04703,-0.04146 -0.07011,-0.09278 -0.06926,-0.15395c0.00123,-0.08837 0.05336,-0.16923 0.15637,-0.24259c0.10981,-0.07325 0.23633,-0.12588 0.37956,-0.15788c0.01379,-0.01341 0.03797,-0.04027 0.07253,-0.0806c0.03466,-0.04712 0.08258,-0.07025 0.14375,-0.0694c0.06798,0.00095 0.13237,0.01545 0.19317,0.0435c0.06091,0.02125 0.09797,0.04557 0.11117,0.07296c0.19082,-0.03134 0.38479,-0.04563 0.58193,-0.04288c0.46225,0.00645 0.87517,0.13801 1.23874,0.39465c0.36357,0.25665 0.6476,0.61077 0.85207,1.06237c0.20456,0.44481 0.303,0.94252 0.29531,1.49315c-0.00835,0.59822 -0.17306,1.19424 -0.49411,1.78809c-0.31426,0.59394 -0.72896,1.07769 -1.24412,1.45125c-0.50845,0.38046 -1.03459,0.56689 -1.57842,0.5593zM284.00405,201.49636c-0.15635,-0.00218 -0.36397,0.01532 -0.62285,0.05251l-0.21457,0.02761c-0.32049,0.55306 -0.57437,1.20564 -0.76165,1.95774c-0.18048,0.75219 -0.27518,1.44779 -0.2841,2.08679c-0.00598,0.42826 0.07066,0.78289 0.22991,1.06388c0.16615,0.27429 0.42937,0.41395 0.78966,0.41898c0.41467,0.00579 0.83516,-0.16172 1.26147,-0.50253c0.42641,-0.3476 0.77918,-0.77782 1.0583,-1.29066c0.27913,-0.51285 0.42197,-1.0038 0.42852,-1.47285c0.00579,-0.41467 -0.08062,-0.80003 -0.25922,-1.15608c-0.17171,-0.36275 -0.4057,-0.64818 -0.70196,-0.85629c-0.28936,-0.21482 -0.59719,-0.32451 -0.9235,-0.32907zM288.7924,207.7029c-0.48945,-0.00683 -0.86417,-0.19564 -1.12416,-0.56643c-0.25999,-0.37079 -0.3859,-0.84849 -0.37774,-1.4331c0.00978,-0.70019 0.10462,-1.40598 0.28454,-2.11738c0.1868,-0.7181 0.43039,-1.36402 0.73077,-1.93777c-0.05439,-0.00076 -0.10509,-0.02187 -0.15209,-0.06333c-0.04703,-0.04146 -0.07011,-0.09278 -0.06926,-0.15395c0.00123,-0.08837 0.05336,-0.16923 0.15637,-0.24259c0.10981,-0.07325 0.23633,-0.12588 0.37956,-0.15788c0.01379,-0.01341 0.03797,-0.04027 0.07253,-0.0806c0.03466,-0.04712 0.08258,-0.07025 0.14375,-0.0694c0.06798,0.00095 0.13237,0.01545 0.19317,0.0435c0.06091,0.02125 0.09797,0.04557 0.11117,0.07296c0.19081,-0.03134 0.38478,-0.04563 0.58193,-0.04288c0.46225,0.00645 0.87517,0.13801 1.23874,0.39465c0.36357,0.25665 0.64759,0.61077 0.85206,1.06237c0.20457,0.44481 0.30301,0.94252 0.29532,1.49315c-0.00835,0.59822 -0.17306,1.19424 -0.49411,1.78809c-0.31426,0.59394 -0.72896,1.07769 -1.24412,1.45125c-0.50845,0.38046 -1.0346,0.56689 -1.57842,0.5593zM289.75504,201.57666c-0.15635,-0.00218 -0.36397,0.01532 -0.62285,0.05251l-0.21457,0.02761c-0.32049,0.55306 -0.57437,1.20564 -0.76165,1.95774c-0.18048,0.75219 -0.27518,1.44779 -0.2841,2.08679c-0.00598,0.42826 0.07066,0.78289 0.22991,1.06388c0.16615,0.27429 0.42937,0.41395 0.78966,0.41898c0.41467,0.00579 0.83516,-0.16172 1.26147,-0.50253c0.4264,-0.3476 0.77917,-0.77782 1.0583,-1.29066c0.27913,-0.51285 0.42197,-1.0038 0.42852,-1.47285c0.00579,-0.41467 -0.08062,-0.80003 -0.25922,-1.15608c-0.17172,-0.36275 -0.40571,-0.64818 -0.70196,-0.85629c-0.28936,-0.21482 -0.59719,-0.32451 -0.9235,-0.32907z" fill="#2b1100" stroke="none" stroke-width="0.40562"/></g></g></svg>