<svg version="1.1" xmlns="http://www.w3.org/2000/svg" xmlns:xlink="http://www.w3.org/1999/xlink" width="104.46698" height="19.60984" viewBox="0,0,104.46698,19.60984"><g transform="translate(-187.76651,-170.19508)"><g data-paper-data="{&quot;isPaintingLayer&quot;:true}" fill-rule="nonzero" stroke="none" stroke-linecap="butt" stroke-linejoin="miter" stroke-miterlimit="10" stroke-dasharray="" stroke-dashoffset="0" style="mix-blend-mode: normal"><path d="M187.76651,189.80492c0,0 0,-0.5188 0,-1.15876v-17.29231c0,-0.63997 0,-1.15876 0,-1.15876h104.46698c0,0 0,0.5188 0,1.15876v17.29231c0,0.63997 0,1.15876 0,1.15876z" fill="#1a1a1a" stroke-width="0.052"/><path d="M214.53615,176.51664l-1.00051,1.97033l-0.17187,-0.0982c0.00407,-0.04093 0.0061,-0.07367 0.0061,-0.0982c0,-0.13913 -0.11867,-0.28849 -0.35601,-0.44808c-0.72839,-0.50741 -1.58363,-0.76112 -2.56572,-0.76112c-0.43376,0 -0.81637,0.0532 -1.14782,0.15959c-0.24143,0.08184 -0.43785,0.2046 -0.58926,0.36828c-0.14731,0.16368 -0.22097,0.34168 -0.22097,0.53401c0,0.31509 0.19028,0.52993 0.57084,0.6445c0.19642,0.05727 0.6179,0.11865 1.26445,0.18415l0.96368,0.0982c0.57289,0.0614 1.03529,0.14529 1.38721,0.25166c0.35601,0.10639 0.6711,0.25575 0.94527,0.44808c0.27826,0.20051 0.49719,0.46444 0.65678,0.79181c0.16368,0.32737 0.24552,0.67724 0.24552,1.04961c0,0.58926 -0.19028,1.11304 -0.57084,1.57135c-0.34373,0.41739 -0.87775,0.72634 -1.60204,0.92685c-0.54015,0.15141 -1.11918,0.22711 -1.73708,0.22711c-1.10895,0 -2.20357,-0.26598 -3.28388,-0.79795c-0.22916,-0.10639 -0.36624,-0.15959 -0.41125,-0.15959c-0.0532,0 -0.13709,0.04501 -0.25166,0.13504l-0.178,-0.0921l0.90844,-2.05626l0.178,0.0859c0,0.03687 0,0.06347 0,0.0798c0,0.18414 0.08798,0.35396 0.26394,0.50946c0.26598,0.23734 0.67723,0.44194 1.23376,0.61381c0.55652,0.17187 1.0844,0.2578 1.58363,0.2578c0.54424,0 1.00869,-0.09207 1.39335,-0.27622c0.21279,-0.1023 0.38261,-0.23734 0.50946,-0.40511c0.12685,-0.17187 0.19028,-0.34987 0.19028,-0.53401c0,-0.27826 -0.14936,-0.47673 -0.44808,-0.5954c-0.20869,-0.08184 -0.63018,-0.15754 -1.26445,-0.22711l-0.94527,-0.0982c-0.63427,-0.06547 -1.08235,-0.12685 -1.34424,-0.18414c-0.26189,-0.0614 -0.52378,-0.15756 -0.78567,-0.28849c-0.37238,-0.18414 -0.66496,-0.46035 -0.87775,-0.82864c-0.19233,-0.33146 -0.28849,-0.71202 -0.28849,-1.14168c0,-0.70793 0.24348,-1.29309 0.73043,-1.7555c0.63836,-0.60971 1.5959,-0.91457 2.87263,-0.91457c0.53606,0 1.03529,0.05524 1.49769,0.16573c0.4624,0.10639 1.03938,0.30486 1.73094,0.59539c0.23734,0.09412 0.38261,0.14118 0.4358,0.14118c0.08593,0 0.18619,-0.04706 0.30077,-0.14118zM219.508,177.16728c1.09258,0 2.00306,0.27826 2.73145,0.83478c0.87161,0.6711 1.30741,1.60613 1.30741,2.8051c0,1.12532 -0.4358,2.02353 -1.30741,2.69462c-0.7202,0.55652 -1.62659,0.83478 -2.71917,0.83478c-1.09258,0 -1.99897,-0.27826 -2.71917,-0.83478c-0.8757,-0.67109 -1.31355,-1.58771 -1.31355,-2.74986c0,-1.17442 0.43785,-2.09104 1.31355,-2.74986c0.72429,-0.54425 1.62659,-0.82251 2.7069,-0.83478zM219.5141,178.46855c-0.70793,0 -1.28491,0.22711 -1.73094,0.68133c-0.4133,0.42557 -0.61995,0.95959 -0.61995,1.60204c0,0.63836 0.20665,1.17033 0.61995,1.5959c0.44603,0.45831 1.02506,0.68747 1.73708,0.68747c0.70793,0 1.28491,-0.22916 1.73094,-0.68747c0.4133,-0.42148 0.61995,-0.94322 0.61995,-1.56521c0,-0.67519 -0.20665,-1.21943 -0.61995,-1.63273c-0.45013,-0.44603 -1.02915,-0.67314 -1.73708,-0.68133zM231.81483,177.94068v3.63988c0,0.83069 -0.16368,1.4404 -0.49105,1.82915c-0.52788,0.6179 -1.52225,0.92685 -2.98311,0.92685c-0.978,0 -1.76777,-0.14936 -2.3693,-0.44808c-0.43376,-0.21688 -0.73043,-0.52583 -0.89002,-0.92685c-0.14731,-0.36829 -0.22097,-0.82864 -0.22097,-1.38107v-3.63988c0,-0.12685 -0.02864,-0.22302 -0.08593,-0.28849c-0.05729,-0.06547 -0.15959,-0.12071 -0.3069,-0.16573v-0.17187h2.43682v0.17187c-0.15141,0.04093 -0.25575,0.09618 -0.31304,0.16573c-0.05729,0.06547 -0.08593,0.16163 -0.08593,0.28849v3.30843c0,0.38465 0.03274,0.67928 0.09821,0.88388c0.06956,0.20461 0.18823,0.37238 0.35601,0.50332c0.33555,0.26599 0.82046,0.39898 1.45473,0.39898c0.63427,0 1.11918,-0.13299 1.45473,-0.39898c0.16368,-0.13094 0.27826,-0.29871 0.34373,-0.50332c0.06547,-0.2046 0.09821,-0.49923 0.09821,-0.88388v-3.30843c0,-0.12685 -0.02864,-0.22302 -0.08593,-0.28849c-0.0532,-0.06547 -0.1555,-0.12071 -0.30691,-0.16573v-0.17187h2.28951v0.17187c-0.14731,0.04093 -0.24962,0.09618 -0.3069,0.16573c-0.05729,0.06547 -0.08593,0.16163 -0.08593,0.28849zM235.17236,179.65934v3.90382c0,0.12686 0.02863,0.22507 0.0859,0.29463c0.0614,0.06957 0.1637,0.12481 0.30691,0.16573v0.16573h-2.28337v-0.17187c0.14322,-0.0368 0.24348,-0.09 0.30077,-0.15959c0.06138,-0.06956 0.09207,-0.16777 0.09207,-0.29463v-5.62248c0,-0.12685 -0.02864,-0.22302 -0.08593,-0.28849c-0.05729,-0.06547 -0.15959,-0.12071 -0.3069,-0.16573v-0.17187h2.63937v0.17187c-0.18005,0.045 -0.27007,0.1248 -0.27007,0.23939c0,0.09821 0.06547,0.21278 0.19642,0.34373l3.68285,3.6583v-3.7872c0,-0.12685 -0.02863,-0.22302 -0.0859,-0.28849c-0.05727,-0.06957 -0.15957,-0.12481 -0.30691,-0.16573v-0.17187h2.28337v0.17187c-0.14731,0.04093 -0.24961,0.09618 -0.3069,0.16573c-0.05727,0.06547 -0.0859,0.16163 -0.0859,0.28849v5.62248c0,0.12686 0.02863,0.22507 0.0859,0.29463c0.05727,0.06547 0.15957,0.12071 0.3069,0.16573v0.16573h-2.46137v-0.16573c0.18005,-0.0368 0.27007,-0.1125 0.27007,-0.22711c0,-0.05727 -0.02457,-0.1166 -0.0737,-0.178c-0.04913,-0.0614 -0.16167,-0.18212 -0.3376,-0.36215zM243.02297,183.56316v-5.62248c0,-0.12685 -0.02863,-0.22302 -0.0859,-0.28849c-0.05727,-0.06547 -0.15957,-0.12071 -0.30691,-0.16573v-0.17187h4.03272c0.83887,0 1.49974,0.10435 1.98261,0.31305c0.67928,0.29463 1.16828,0.78158 1.467,1.46086c0.20869,0.47468 0.31304,1.02915 0.31304,1.66342c0,1.17442 -0.34987,2.06444 -1.04961,2.67007c-0.31509,0.27007 -0.68746,0.46649 -1.11713,0.58926c-0.42557,0.11867 -0.95754,0.178 -1.59591,0.178h-4.03272v-0.17187c0.14323,-0.0368 0.24348,-0.09 0.30077,-0.15959c0.0614,-0.06956 0.0921,-0.16777 0.0921,-0.29463zM244.66798,182.94322h1.75549c0.80613,0 1.3913,-0.18414 1.75549,-0.55243c0.38056,-0.38465 0.57084,-0.93094 0.57084,-1.63887c0,-0.70793 -0.19028,-1.25422 -0.57084,-1.63887c-0.18823,-0.19233 -0.42148,-0.33146 -0.69974,-0.41739c-0.27826,-0.09003 -0.63018,-0.13504 -1.05575,-0.13504h-1.75549zM259.37483,175.66345c1.46087,0 2.61892,0.39488 3.47416,1.18465c0.90434,0.82659 1.35651,1.89462 1.35651,3.20408c0,0.80204 -0.21688,1.55089 -0.65063,2.24654c-0.84706,1.35856 -2.23631,2.03784 -4.16776,2.03784c-1.44859,0 -2.6005,-0.39488 -3.45574,-1.18465c-0.45831,-0.42148 -0.80614,-0.92685 -1.04348,-1.5161c-0.20869,-0.51969 -0.31304,-1.06598 -0.31304,-1.63887c0,-0.83887 0.21483,-1.60614 0.6445,-2.30179c0.8225,-1.32991 2.20766,-2.00715 4.15548,-2.0317zM259.38083,177.08135c-0.79795,0 -1.46291,0.23734 -1.99488,0.71201c-0.63017,0.56061 -0.94526,1.29514 -0.94526,2.20358c0,0.90843 0.31509,1.64296 0.94526,2.20357c0.53197,0.47468 1.20102,0.71202 2.00716,0.71202c0.80613,0 1.47314,-0.23734 2.00101,-0.71202c0.31509,-0.28235 0.55652,-0.62813 0.7243,-1.03734c0.14731,-0.36419 0.22097,-0.74066 0.22097,-1.1294c0,-0.94936 -0.31509,-1.69616 -0.94527,-2.24041c-0.53606,-0.46649 -1.20716,-0.70383 -2.01329,-0.71201zM267.26213,179.65934v3.90382c0,0.12686 0.02863,0.22507 0.0859,0.29463c0.0614,0.06957 0.1637,0.12481 0.30691,0.16573v0.16573h-2.28337v-0.17187c0.14322,-0.0368 0.24348,-0.09 0.30077,-0.15959c0.0614,-0.06956 0.0921,-0.16777 0.0921,-0.29463v-5.62248c0,-0.12685 -0.02863,-0.22302 -0.0859,-0.28849c-0.05727,-0.06547 -0.15957,-0.12071 -0.3069,-0.16573v-0.17187h2.63938v0.17187c-0.18005,0.045 -0.27008,0.1248 -0.27008,0.23939c0,0.09821 0.06547,0.21278 0.19642,0.34373l3.68285,3.6583v-3.7872c0,-0.12685 -0.02863,-0.22302 -0.0859,-0.28849c-0.05727,-0.06957 -0.15957,-0.12481 -0.30691,-0.16573v-0.17187h2.28337v0.17187c-0.14731,0.04093 -0.24961,0.09618 -0.3069,0.16573c-0.05727,0.06547 -0.0859,0.16163 -0.0859,0.28849v5.62248c0,0.12686 0.02863,0.22507 0.0859,0.29463c0.05727,0.06547 0.15957,0.12071 0.3069,0.16573v0.16573h-2.46137v-0.16573c0.18005,-0.0368 0.27008,-0.1125 0.27008,-0.22711c0,-0.05727 -0.02457,-0.1166 -0.0737,-0.178c-0.04913,-0.0614 -0.16167,-0.18212 -0.3376,-0.36215z" fill="#f9f9f9" stroke-width="0.052"/></g></g></svg>