<svg version="1.1" xmlns="http://www.w3.org/2000/svg" xmlns:xlink="http://www.w3.org/1999/xlink" width="6.74002" height="12.60005" viewBox="0,0,6.74002,12.60005"><g transform="translate(-66.60318,-167.00452)"><g data-paper-data="{&quot;isPaintingLayer&quot;:true}" fill="#000000" fill-rule="evenodd" stroke="#000000" stroke-width="0" stroke-linecap="round" stroke-linejoin="miter" stroke-miterlimit="10" stroke-dasharray="" stroke-dashoffset="0" style="mix-blend-mode: normal"><path d="M73.14318,179.60455h-6.2c-0.02667,0.00034 -0.05326,-0.00302 -0.079,-0.01c-0.059,-0.017 -0.097,-0.056 -0.112,-0.116c-0.00612,-0.02419 -0.00914,-0.04905 -0.009,-0.074v-1.2c-0.00034,-0.02667 0.00302,-0.05326 0.01,-0.079c0.023,-0.081 0.086,-0.121 0.19,-0.121h2c0.02667,0.00034 0.05326,-0.00302 0.079,-0.01c0.081,-0.023 0.121,-0.086 0.121,-0.19v-7.22c0.00021,-0.02754 -0.00247,-0.05502 -0.008,-0.082c-0.017,-0.08 -0.063,-0.125 -0.137,-0.136c-0.01161,-0.00148 -0.0233,-0.00214 -0.035,-0.002c-0.044,0 -0.088,0.018 -0.132,0.055c-0.00972,0.00789 -0.01906,0.01623 -0.028,0.025l-0.96,0.98c-0.044,0.044 -0.083,0.069 -0.118,0.077c-0.0072,0.00181 -0.01458,0.00281 -0.022,0.003c-0.01512,-0.00008 -0.03007,-0.00314 -0.044,-0.009c-0.029,-0.012 -0.061,-0.036 -0.096,-0.071l-0.88,-0.86c-0.01238,-0.01234 -0.02406,-0.02536 -0.035,-0.039c-0.023,-0.028 -0.037,-0.054 -0.042,-0.079c-0.00181,-0.0072 -0.00281,-0.01458 -0.003,-0.022c0.00008,-0.01512 0.00314,-0.03007 0.009,-0.044c0.01,-0.023 0.028,-0.049 0.053,-0.077c0.00585,-0.00648 0.01185,-0.01281 0.018,-0.019l3.22,-3.22l0.14,-0.06h0.7c0.02667,-0.00034 0.05326,0.00302 0.079,0.01c0.081,0.023 0.121,0.086 0.121,0.19v10.6c-0.00034,0.02667 0.00302,0.05326 0.01,0.079c0.023,0.081 0.086,0.121 0.19,0.121h2c0.02667,-0.00034 0.05326,0.00302 0.079,0.01c0.081,0.023 0.121,0.086 0.121,0.19v1.2c0.00034,0.02667 -0.00302,0.05326 -0.01,0.079c-0.023,0.081 -0.086,0.121 -0.19,0.121z"/></g></g></svg>