<svg version="1.1" xmlns="http://www.w3.org/2000/svg" xmlns:xlink="http://www.w3.org/1999/xlink" width="7.80008" height="12.60021" viewBox="0,0,7.80008,12.60021"><g transform="translate(-258.80852,-167.42459)"><g data-paper-data="{&quot;isPaintingLayer&quot;:true}" fill="#000000" fill-rule="evenodd" stroke="#000000" stroke-width="0" stroke-linecap="round" stroke-linejoin="miter" stroke-miterlimit="10" stroke-dasharray="" stroke-dashoffset="0" style="mix-blend-mode: normal"><path d="M263.00853,174.42475h-2.2c-0.02667,-0.00034 -0.05325,0.00302 -0.079,0.01c-0.081,0.023 -0.121,0.086 -0.121,0.19v5.2c0.00034,0.02667 -0.00302,0.05325 -0.01,0.079c-0.017,0.059 -0.056,0.097 -0.116,0.113c-0.02423,0.00578 -0.0491,0.00847 -0.074,0.008h-1.4c-0.02667,0.00034 -0.05326,-0.00302 -0.079,-0.01c-0.059,-0.017 -0.097,-0.055 -0.112,-0.116c-0.00612,-0.02418 -0.00914,-0.04905 -0.009,-0.074v-12.2c0,-0.106 0.042,-0.17 0.126,-0.191c0.02418,-0.00611 0.04905,-0.00914 0.074,-0.009h4c0.3717,-0.00309 0.7424,0.03888 1.104,0.125c0.57723,0.13457 1.10562,0.42716 1.526,0.845c0.44971,0.45441 0.75426,1.03219 0.875,1.66c0.06505,0.31919 0.09689,0.64425 0.095,0.97c0.00137,0.27967 -0.02781,0.55866 -0.087,0.832c-0.04114,0.18748 -0.09904,0.37088 -0.173,0.548c-0.173,0.413 -0.417,0.77 -0.73,1.07c-0.26119,0.24785 -0.56244,0.44969 -0.891,0.597c-0.08175,0.03726 -0.16481,0.07162 -0.249,0.103c-0.3392,0.12474 -0.69377,0.2028 -1.054,0.232c-0.13834,0.012 -0.27714,0.01801 -0.416,0.018zM264.80852,171.02475v-0.2c0.00282,-0.25386 -0.04724,-0.50554 -0.147,-0.739c-0.08914,-0.20222 -0.21569,-0.38577 -0.373,-0.541c-0.33058,-0.33686 -0.78405,-0.52461 -1.256,-0.52c-0.008,-0.00005 -0.016,-0.00005 -0.024,0h-2.2c-0.02667,-0.00034 -0.05325,0.00302 -0.079,0.01c-0.059,0.017 -0.097,0.056 -0.112,0.116c-0.00612,0.02418 -0.00914,0.04905 -0.009,0.074v3.4c-0.00034,0.02667 0.00302,0.05326 0.01,0.079c0.017,0.059 0.056,0.097 0.116,0.113c0.02423,0.00578 0.04909,0.00847 0.074,0.008h2.2c0.25387,0.00282 0.50554,-0.04724 0.739,-0.147c0.20222,-0.08914 0.38578,-0.21569 0.541,-0.373c0.347,-0.347 0.52,-0.773 0.52,-1.28z"/></g></g></svg>