<svg version="1.1" xmlns="http://www.w3.org/2000/svg" xmlns:xlink="http://www.w3.org/1999/xlink" width="7.20003" height="12.60008" viewBox="0,0,7.20003,12.60008"><g transform="translate(-190.20762,-167.35474)"><g data-paper-data="{&quot;isPaintingLayer&quot;:true}" fill="#000000" fill-rule="evenodd" stroke="#000000" stroke-width="0" stroke-linecap="round" stroke-linejoin="miter" stroke-miterlimit="10" stroke-dasharray="" stroke-dashoffset="0" style="mix-blend-mode: normal"><path d="M197.20762,179.95476h-1.4c-0.02667,0.00034 -0.05325,-0.00302 -0.079,-0.01c-0.059,-0.017 -0.097,-0.055 -0.112,-0.116c-0.00611,-0.02418 -0.00914,-0.04905 -0.009,-0.074v-5.4c0,-0.24 -0.047,-0.47 -0.14,-0.69c-0.093,-0.22 -0.22,-0.413 -0.38,-0.58c-0.16,-0.167 -0.35,-0.297 -0.57,-0.39c-0.22,-0.093 -0.457,-0.14 -0.71,-0.14c-0.26157,-0.00304 -0.52064,0.05124 -0.759,0.159c-0.19488,0.09079 -0.37147,0.21653 -0.521,0.371c-0.3376,0.33336 -0.52528,0.78958 -0.52,1.264c0,0.002 0,0.004 0,0.006v5.4c0.00034,0.02667 -0.00302,0.05326 -0.01,0.079c-0.017,0.059 -0.055,0.097 -0.116,0.113c-0.02423,0.00578 -0.0491,0.00847 -0.074,0.008h-1.4c-0.02667,0.00034 -0.05326,-0.00302 -0.079,-0.01c-0.059,-0.017 -0.097,-0.055 -0.112,-0.116c-0.00611,-0.02418 -0.00914,-0.04905 -0.009,-0.074v-12.2c0,-0.106 0.042,-0.17 0.126,-0.191c0.02418,-0.00611 0.04905,-0.00914 0.074,-0.009h1.4c0.02667,-0.00034 0.05326,0.00302 0.079,0.01c0.059,0.017 0.097,0.056 0.113,0.116c0.00578,0.02423 0.00847,0.04909 0.008,0.074v3.84c-0.00027,0.02845 0.00173,0.05687 0.006,0.085c0.017,0.103 0.068,0.155 0.154,0.155c0.01157,-0.00025 0.02304,-0.00227 0.034,-0.006c0.035,-0.012 0.082,-0.038 0.142,-0.079c0.01144,-0.0082 0.02277,-0.01653 0.034,-0.025c0.04056,-0.02962 0.08226,-0.05764 0.125,-0.084c0.047,-0.029 0.098,-0.058 0.153,-0.088c0.03704,-0.01991 0.07437,-0.03924 0.112,-0.058c0.138,-0.069 0.297,-0.135 0.479,-0.199c0.03025,-0.01057 0.06058,-0.0209 0.091,-0.031c0.11663,-0.03803 0.23645,-0.06547 0.358,-0.082c0.112,-0.016 0.231,-0.025 0.357,-0.027c0.01833,-0.00048 0.03666,-0.00082 0.055,-0.001c0.3435,-0.00217 0.68526,0.04911 1.013,0.152c0.09741,0.03119 0.1932,0.06724 0.287,0.108c0.4,0.173 0.75,0.41 1.05,0.71c0.3,0.3 0.533,0.657 0.7,1.07c0.13205,0.33141 0.21232,0.68117 0.238,1.037c0.00818,0.10747 0.01219,0.21522 0.012,0.323v5.4c0.00034,0.02667 -0.00303,0.05326 -0.01,0.079c-0.023,0.081 -0.086,0.121 -0.19,0.121z"/></g></g></svg>