<svg version="1.1" xmlns="http://www.w3.org/2000/svg" xmlns:xlink="http://www.w3.org/1999/xlink" width="5.60003" height="12.80005" viewBox="0,0,5.60003,12.80005"><g transform="translate(-174.7076,-167.15476)"><g data-paper-data="{&quot;isPaintingLayer&quot;:true}" fill="#000000" fill-rule="evenodd" stroke="#000000" stroke-width="0" stroke-linecap="round" stroke-linejoin="miter" stroke-miterlimit="10" stroke-dasharray="" stroke-dashoffset="0" style="mix-blend-mode: normal"><path d="M180.28762,167.49476l-0.4,1.16c-0.01067,0.0257 -0.02517,0.04963 -0.043,0.071c-0.038,0.045 -0.088,0.068 -0.151,0.069c-0.002,0.00002 -0.004,0.00002 -0.006,0c-0.02866,-0.00307 -0.05733,-0.00607 -0.086,-0.009c-0.083,-0.009 -0.154,-0.016 -0.214,-0.021c-0.08,-0.007 -0.14,-0.01 -0.18,-0.01c-0.20973,-0.00144 -0.41814,0.03341 -0.616,0.103c-0.03169,0.01141 -0.06303,0.02375 -0.094,0.037c-0.21465,0.08968 -0.40865,0.22241 -0.57,0.39c-0.16,0.167 -0.287,0.36 -0.38,0.58c-0.093,0.22 -0.14,0.45 -0.14,0.69v1.1c-0.00034,0.02667 0.00302,0.05325 0.01,0.079c0.017,0.059 0.056,0.097 0.116,0.113c0.02423,0.00578 0.04909,0.00847 0.074,0.008h1.4c0.02667,-0.00034 0.05326,0.00302 0.079,0.01c0.081,0.023 0.121,0.086 0.121,0.19v1.2c0.00034,0.02667 -0.00302,0.05326 -0.01,0.079c-0.023,0.081 -0.086,0.121 -0.19,0.121h-1.4c-0.02667,-0.00034 -0.05326,0.00303 -0.079,0.01c-0.081,0.023 -0.121,0.086 -0.121,0.19v6.1c0.00034,0.02667 -0.00303,0.05326 -0.01,0.079c-0.017,0.059 -0.055,0.097 -0.116,0.113c-0.02423,0.00578 -0.0491,0.00847 -0.074,0.008h-1.4c-0.02667,0.00034 -0.05325,-0.00302 -0.079,-0.01c-0.059,-0.017 -0.097,-0.055 -0.112,-0.116c-0.00611,-0.02418 -0.00914,-0.04905 -0.009,-0.074v-6.1c0.00034,-0.02667 -0.00302,-0.05326 -0.01,-0.079c-0.023,-0.081 -0.086,-0.121 -0.19,-0.121h-0.5c-0.02667,0.00034 -0.05326,-0.00302 -0.079,-0.01c-0.081,-0.023 -0.121,-0.086 -0.121,-0.19v-1.2c-0.00034,-0.02667 0.00303,-0.05325 0.01,-0.079c0.017,-0.059 0.056,-0.097 0.116,-0.112c0.02418,-0.00611 0.04905,-0.00914 0.074,-0.009h0.5c0.02667,0.00034 0.05325,-0.00302 0.079,-0.01c0.081,-0.023 0.121,-0.086 0.121,-0.19v-0.9c0,-0.467 0.087,-0.917 0.26,-1.35c0.16193,-0.40045 0.39389,-0.76888 0.685,-1.088c0.0311,-0.03453 0.06277,-0.06853 0.095,-0.102c0.64,-0.707 1.493,-1.06 2.56,-1.06c0.296,0 0.531,0.011 0.705,0.031c0.04185,0.00501 0.08354,0.01135 0.125,0.019c0.03355,0.006 0.06663,0.01434 0.099,0.025c0.073,0.025 0.123,0.059 0.149,0.103c0.01472,0.0248 0.02233,0.05317 0.022,0.082c-0.00001,0.01349 -0.00169,0.02693 -0.005,0.04c-0.003,0.013 -0.008,0.027 -0.015,0.04z"/></g></g></svg>