<svg version="1.1" xmlns="http://www.w3.org/2000/svg" xmlns:xlink="http://www.w3.org/1999/xlink" width="7.80014" height="12.60031" viewBox="0,0,7.80014,12.60031"><g transform="translate(-145.40852,-167.42459)"><g data-paper-data="{&quot;isPaintingLayer&quot;:true}" fill="#000000" fill-rule="evenodd" stroke="#000000" stroke-width="0" stroke-linecap="round" stroke-linejoin="miter" stroke-miterlimit="10" stroke-dasharray="" stroke-dashoffset="0" style="mix-blend-mode: normal"><path d="M149.60852,180.02475h-4c-0.02667,0.00034 -0.05325,-0.00302 -0.079,-0.01c-0.059,-0.017 -0.097,-0.055 -0.112,-0.116c-0.00611,-0.02418 -0.00914,-0.04905 -0.009,-0.074v-12.2c0,-0.106 0.042,-0.17 0.126,-0.191c0.02418,-0.00611 0.04905,-0.00914 0.074,-0.009h4c0.3717,-0.00309 0.7424,0.03888 1.104,0.125c0.57724,0.13457 1.10562,0.42716 1.526,0.845c0.44971,0.45441 0.75427,1.03219 0.875,1.66c0.06506,0.31919 0.09689,0.64425 0.095,0.97v5.4c0.00277,0.36738 -0.03716,0.73384 -0.119,1.092c-0.12839,0.58512 -0.41999,1.12186 -0.841,1.548c-0.43163,0.42658 -0.97647,0.72051 -1.57,0.847c-0.35126,0.07796 -0.71021,0.11587 -1.07,0.113zM151.40853,176.62475v-5.8c0.00282,-0.25386 -0.04724,-0.50554 -0.147,-0.739c-0.08914,-0.20222 -0.2157,-0.38577 -0.373,-0.541c-0.33058,-0.33686 -0.78405,-0.52461 -1.256,-0.52c-0.008,-0.00005 -0.016,-0.00005 -0.024,0h-2.2c-0.02667,-0.00034 -0.05326,0.00302 -0.079,0.01c-0.059,0.017 -0.097,0.056 -0.112,0.116c-0.00611,0.02418 -0.00914,0.04905 -0.009,0.074v9c-0.00034,0.02667 0.00302,0.05325 0.01,0.079c0.017,0.059 0.056,0.097 0.116,0.113c0.02423,0.00578 0.04909,0.00847 0.074,0.008h2.2c0.2615,0.00334 0.52056,-0.05058 0.759,-0.158c0.19496,-0.09109 0.37155,-0.21717 0.521,-0.372c0.347,-0.353 0.52,-0.777 0.52,-1.27z"/></g></g></svg>