<svg version="1.1" xmlns="http://www.w3.org/2000/svg" xmlns:xlink="http://www.w3.org/1999/xlink" width="7.20003" height="13.50005" viewBox="0,0,7.20003,13.50005"><g transform="translate(-263.72761,-170.95474)"><g data-paper-data="{&quot;isPaintingLayer&quot;:true}" fill="#000000" fill-rule="evenodd" stroke="#000000" stroke-width="0" stroke-linecap="round" stroke-linejoin="miter" stroke-miterlimit="10" stroke-dasharray="" stroke-dashoffset="0" style="mix-blend-mode: normal"><path d="M270.72762,184.45476h-1.4c-0.02667,0.00034 -0.05326,-0.00302 -0.079,-0.01c-0.059,-0.017 -0.097,-0.055 -0.112,-0.116c-0.00612,-0.02418 -0.00914,-0.04905 -0.009,-0.074v-4.74c0.00016,-0.02509 -0.00151,-0.05015 -0.005,-0.075c-0.009,-0.06 -0.029,-0.101 -0.062,-0.124c-0.02153,-0.01447 -0.04707,-0.02181 -0.073,-0.021c-0.02261,0.00027 -0.04512,0.0033 -0.067,0.009c-0.044,0.011 -0.094,0.032 -0.152,0.062c-0.01721,0.0093 -0.03421,0.01897 -0.051,0.029c-0.113,0.067 -0.243,0.143 -0.39,0.23c-0.144,0.085 -0.315,0.161 -0.511,0.227c-0.003,0.001 -0.006,0.002 -0.009,0.003c-0.11807,0.03879 -0.23964,0.06592 -0.363,0.081c-0.10516,0.01298 -0.21104,0.01933 -0.317,0.019c-0.493,0 -0.95,-0.087 -1.37,-0.26c-0.315,-0.12778 -0.6087,-0.30279 -0.871,-0.519c-0.07254,-0.06044 -0.14228,-0.12418 -0.209,-0.191c-0.3,-0.3 -0.533,-0.657 -0.7,-1.07c-0.13195,-0.3311 -0.21222,-0.68051 -0.238,-1.036c-0.00821,-0.10781 -0.01222,-0.21589 -0.012,-0.324v-2.2c0,-0.507 0.087,-0.967 0.26,-1.38c0.173,-0.413 0.413,-0.77 0.72,-1.07c0.3123,-0.30338 0.68226,-0.54107 1.088,-0.699c0.00067,-0.00034 0.00133,-0.00066 0.002,-0.001c0.3188,-0.12471 0.65391,-0.20284 0.995,-0.232c0.13133,-0.01201 0.26313,-0.01802 0.395,-0.018c0.268,0 0.505,0.028 0.711,0.083c0.01975,0.00535 0.03943,0.01102 0.059,0.017c0.203,0.061 0.38,0.131 0.532,0.21c0.01273,0.00654 0.0254,0.01321 0.038,0.02c0.05662,0.03048 0.11295,0.06148 0.169,0.093c0.044,0.025 0.085,0.049 0.123,0.072c0.03627,0.02122 0.07227,0.04288 0.108,0.065c0.02632,0.0165 0.05335,0.03185 0.081,0.046c0.055,0.028 0.104,0.045 0.146,0.052c0.01094,0.00145 0.02196,0.00212 0.033,0.002c0.04748,0.0025 0.09175,-0.02398 0.112,-0.067c0.019,-0.036 0.028,-0.087 0.028,-0.153v-0.24c-0.00034,-0.02667 0.00302,-0.05326 0.01,-0.079c0.023,-0.081 0.086,-0.121 0.19,-0.121h1.2c0.02667,-0.00034 0.05326,0.00303 0.079,0.01c0.081,0.023 0.121,0.086 0.121,0.19v13.1c0.00034,0.02667 -0.00302,0.05326 -0.01,0.079c-0.023,0.081 -0.086,0.121 -0.19,0.121zM269.12762,176.55476v-2.2c0,-0.493 -0.173,-0.917 -0.52,-1.27c-0.32479,-0.33928 -0.77432,-0.53081 -1.244,-0.53c-0.012,-0.0001 -0.024,-0.0001 -0.036,0c-0.20974,-0.00144 -0.41814,0.03341 -0.616,0.103c-0.03169,0.01141 -0.06304,0.02375 -0.094,0.037c-0.22,0.093 -0.41,0.223 -0.57,0.39c-0.16,0.167 -0.287,0.36 -0.38,0.58c-0.093,0.22 -0.14,0.45 -0.14,0.69v2.2c0,0.24 0.047,0.47 0.14,0.69c0.093,0.22 0.22,0.413 0.38,0.58c0.16,0.167 0.35,0.297 0.57,0.39c0.22,0.093 0.457,0.14 0.71,0.14c0.507,0 0.933,-0.177 1.28,-0.53c0.347,-0.353 0.52,-0.777 0.52,-1.27z"/></g></g></svg>