<svg version="1.1" xmlns="http://www.w3.org/2000/svg" xmlns:xlink="http://www.w3.org/1999/xlink" width="178.89804" height="27.11675" viewBox="0,0,178.89804,27.11675"><g transform="translate(-150.54331,-166.44166)"><g stroke-miterlimit="10"><path d="M151.21193,180.23447l11.59659,-13.2928h154.90881l11.07073,12.83554l-10.89246,13.28121h-155.09604z" fill="#ff2a00" stroke="#80f7ff" stroke-width="1"/><path d="M178.57752,187.10112c0,0.15577 -0.08901,0.22253 -0.22253,0.22253h-6.89851c-0.15578,0 -0.22253,-0.06676 -0.22253,-0.22253v-1.3352c0,-0.13352 0.06676,-0.22253 0.22253,-0.22253h2.22533c0.13352,0 0.22253,-0.06676 0.22253,-0.22253v-8.03343c0,-0.15577 -0.06676,-0.24478 -0.20028,-0.24478c-0.06676,0 -0.13352,0.04451 -0.17803,0.08901l-1.06815,1.09041c-0.06676,0.06676 -0.11127,0.08901 -0.15578,0.08901c-0.0445,0 -0.11127,-0.02226 -0.15577,-0.08901l-0.97914,-0.95689c-0.06676,-0.0445 -0.08901,-0.11127 -0.08901,-0.15577c0,-0.04451 0.02226,-0.08901 0.08901,-0.15578l3.58277,-3.58278l0.15578,-0.06676h0.77887c0.13352,0 0.22253,0.08901 0.22253,0.22253v11.79423c0,0.15577 0.06676,0.22253 0.22253,0.22253h2.22533c0.13352,0 0.22253,0.08901 0.22253,0.22253z" fill="#000000" stroke="none" stroke-width="0.25147"/></g></g></svg>