<svg version="1.1" xmlns="http://www.w3.org/2000/svg" xmlns:xlink="http://www.w3.org/1999/xlink" width="7.68001" height="12.80003" viewBox="0,0,7.68001,12.80003"><g transform="translate(-74.02317,-166.80454)"><g data-paper-data="{&quot;isPaintingLayer&quot;:true}" fill="#000000" fill-rule="evenodd" stroke="#000000" stroke-width="0" stroke-linecap="round" stroke-linejoin="miter" stroke-miterlimit="10" stroke-dasharray="" stroke-dashoffset="0" style="mix-blend-mode: normal"><path d="M76.14318,177.28455v0.52c-0.00034,0.02667 0.00302,0.05326 0.01,0.079c0.017,0.059 0.056,0.097 0.116,0.113c0.02423,0.00578 0.04909,0.00847 0.074,0.008h5c0.02667,-0.00034 0.05326,0.00302 0.079,0.01c0.081,0.023 0.121,0.086 0.121,0.19v1.2c0.00034,0.02667 -0.00302,0.05326 -0.01,0.079c-0.023,0.081 -0.086,0.121 -0.19,0.121h-6.8c-0.02667,0.00034 -0.05326,-0.00302 -0.079,-0.01c-0.059,-0.017 -0.097,-0.056 -0.112,-0.116c-0.00612,-0.02419 -0.00914,-0.04905 -0.009,-0.074v-2.12c-0.00271,-0.37679 0.03823,-0.75263 0.122,-1.12c0.10964,-0.4851 0.32021,-0.94167 0.618,-1.34c0.383,-0.507 0.918,-1.006 1.606,-1.497c0.20706,-0.14731 0.41849,-0.28837 0.634,-0.423c0.17927,-0.11514 0.35928,-0.22915 0.54,-0.342c0.16589,-0.10392 0.33256,-0.20659 0.5,-0.308c0.14759,-0.08873 0.2917,-0.18314 0.432,-0.283c0.14,-0.1 0.267,-0.201 0.383,-0.302c0.00167,-0.00167 0.00333,-0.00333 0.005,-0.005c0.12572,-0.11008 0.24058,-0.23197 0.343,-0.364c0.06981,-0.09023 0.13234,-0.18586 0.187,-0.286c0.127,-0.233 0.19,-0.503 0.19,-0.81c0.00144,-0.20974 -0.03341,-0.41814 -0.103,-0.616c-0.01141,-0.03169 -0.02375,-0.06303 -0.037,-0.094c-0.093,-0.22 -0.223,-0.41 -0.39,-0.57c-0.167,-0.16 -0.36,-0.287 -0.58,-0.38c-0.22,-0.093 -0.45,-0.14 -0.69,-0.14h-0.76c-0.08689,-0.00027 -0.17372,0.00474 -0.26,0.015c-0.118,0.014 -0.225,0.039 -0.32,0.075c-0.10607,0.03914 -0.20737,0.09013 -0.302,0.152c-0.04093,0.02713 -0.08033,0.05651 -0.118,0.088c-0.12,0.1 -0.23,0.22 -0.33,0.36c-0.07703,0.10763 -0.15672,0.21333 -0.239,0.317c-0.03004,0.0379 -0.06037,0.07557 -0.091,0.113c-0.067,0.08 -0.127,0.12 -0.18,0.12c-0.032,0 -0.06,-0.004 -0.084,-0.013c-0.00546,-0.00204 -0.0108,-0.00438 -0.016,-0.007l-1.26,-0.64c-0.069,-0.034 -0.108,-0.073 -0.118,-0.118c-0.00145,-0.00724 -0.00212,-0.01462 -0.002,-0.022c0.0011,-0.06401 0.01224,-0.12744 0.033,-0.188c0.036,-0.112 0.103,-0.236 0.199,-0.373c0.01884,-0.02669 0.03818,-0.05303 0.058,-0.079c0.07789,-0.10087 0.16205,-0.19672 0.252,-0.287c0.084,-0.085 0.177,-0.172 0.28,-0.261c0.10981,-0.09416 0.22253,-0.18487 0.338,-0.272c0.187,-0.143 0.423,-0.263 0.71,-0.361c0.06283,-0.02124 0.12619,-0.04092 0.19,-0.059c0.22063,-0.06193 0.4461,-0.10508 0.674,-0.129c0.19462,-0.02099 0.39025,-0.03134 0.586,-0.031h0.76c0.547,0 1.04,0.083 1.48,0.25c0.44,0.167 0.817,0.4 1.13,0.7c0.313,0.3 0.557,0.657 0.73,1.07c0.1269,0.30705 0.20745,0.63126 0.239,0.962c0.01407,0.13889 0.02108,0.2784 0.021,0.418c0,0.587 -0.123,1.14 -0.37,1.66c-0.25105,0.52448 -0.61469,0.98714 -1.065,1.355c-0.00167,0.00167 -0.00333,0.00333 -0.005,0.005c-0.347,0.293 -0.723,0.56 -1.13,0.8c-0.36579,0.21626 -0.72915,0.4366 -1.09,0.661c-0.05338,0.03292 -0.10672,0.06592 -0.16,0.099c-0.19389,0.11992 -0.38148,0.24976 -0.562,0.389c-0.181,0.14 -0.34,0.282 -0.477,0.425c-0.10172,0.10501 -0.19563,0.21731 -0.281,0.336c-0.28,0.393 -0.42,0.843 -0.42,1.35z"/></g></g></svg>