<svg version="1.1" xmlns="http://www.w3.org/2000/svg" xmlns:xlink="http://www.w3.org/1999/xlink" width="4.70005" height="9.00008" viewBox="0,0,4.70005,9.00008"><g transform="translate(-273.5276,-170.95474)"><g data-paper-data="{&quot;isPaintingLayer&quot;:true}" fill="#000000" fill-rule="evenodd" stroke="#000000" stroke-width="0" stroke-linecap="round" stroke-linejoin="miter" stroke-miterlimit="10" stroke-dasharray="" stroke-dashoffset="0" style="mix-blend-mode: normal"><path d="M275.32762,174.55476v5.2c0.00034,0.02667 -0.00303,0.05326 -0.01,0.079c-0.017,0.059 -0.055,0.097 -0.116,0.113c-0.02423,0.00578 -0.0491,0.00847 -0.074,0.008h-1.4c-0.02667,0.00034 -0.05326,-0.00302 -0.079,-0.01c-0.059,-0.017 -0.097,-0.055 -0.112,-0.116c-0.00612,-0.02418 -0.00914,-0.04905 -0.009,-0.074v-8.6c-0.00034,-0.02667 0.00302,-0.05326 0.01,-0.079c0.023,-0.081 0.086,-0.121 0.19,-0.121h1.2c0.02667,-0.00034 0.05326,0.00303 0.079,0.01c0.081,0.023 0.121,0.086 0.121,0.19v0.64c0,0.153 0.055,0.233 0.164,0.24c0.00533,0.00017 0.01067,0.00017 0.016,0c0.049,0 0.119,-0.048 0.208,-0.146c0.00741,-0.00793 0.01475,-0.01593 0.022,-0.024c0.04003,-0.04521 0.08139,-0.08922 0.124,-0.132c0.047,-0.047 0.098,-0.096 0.153,-0.146c0.03396,-0.03108 0.0683,-0.06175 0.103,-0.092c0.09063,-0.07815 0.18652,-0.14999 0.287,-0.215c0.0853,-0.05558 0.17306,-0.1073 0.263,-0.155c0.17775,-0.09335 0.37278,-0.14918 0.573,-0.164c0.0489,-0.00402 0.09794,-0.00602 0.147,-0.006c0.08868,0.00011 0.17735,0.00112 0.266,0.003c0.247,0.005 0.429,0.017 0.544,0.037c0.03073,0.00495 0.06089,0.01299 0.09,0.024c0.091,0.036 0.138,0.099 0.14,0.189c0.00003,0.00233 0.00003,0.00467 0,0.007v1.5c0.00022,0.02273 -0.00112,0.04545 -0.004,0.068c-0.007,0.05 -0.023,0.086 -0.047,0.108c-0.01915,0.01641 -0.04379,0.02499 -0.069,0.024c-0.03211,-0.00028 -0.06419,-0.00261 -0.096,-0.007c-0.066,-0.008 -0.143,-0.025 -0.23,-0.05c-0.0147,-0.00421 -0.02937,-0.00854 -0.044,-0.013c-0.05771,-0.01723 -0.11651,-0.0306 -0.176,-0.04c-0.123,-0.02 -0.268,-0.03 -0.434,-0.03c-0.18361,-0.00145 -0.36679,0.01801 -0.546,0.058c-0.275,0.064 -0.509,0.18 -0.704,0.348c-0.024,0.0206 -0.04734,0.04195 -0.07,0.064c-0.316,0.31 -0.476,0.74 -0.48,1.291c-0.00002,0.00634 -0.00002,0.01266 0,0.019z"/></g></g></svg>