<svg version="1.1" xmlns="http://www.w3.org/2000/svg" xmlns:xlink="http://www.w3.org/1999/xlink" width="123.01458" height="74.6279" viewBox="0,0,123.01458,74.6279"><g transform="translate(-178.49271,-141.30168)"><g data-paper-data="{&quot;isPaintingLayer&quot;:true}" fill-rule="nonzero" stroke-linejoin="miter" stroke-miterlimit="10" stroke-dasharray="" stroke-dashoffset="0" style="mix-blend-mode: normal"><path d="M179.49271,180c0,-18.65796 27.09003,-33.78323 60.50729,-33.78323c33.41725,0 60.50729,15.12527 60.50729,33.78323c0,18.65796 -27.09003,33.78323 -60.50729,33.78323c-33.41725,0 -60.50729,-15.12527 -60.50729,-33.78323z" fill="#1a1a1a" stroke="#80f7ff" stroke-width="2" stroke-linecap="butt"/><path d="M221.84781,204.63993c0,0 0,-2.15895 0,-4.82214v-40.644c0,-2.66319 0,-4.82214 0,-4.82214h11.093c0,0 0,2.15895 0,4.82214v40.644c0,2.66319 0,4.82214 0,4.82214z" fill="#f9f9f9" stroke="none" stroke-width="1.46667" stroke-linecap="butt"/><path d="M234.4535,204.63991c0,0 0,-1.7693 0,-3.95183v-33.30852c0,-2.18254 0,-3.95183 0,-3.95183h11.093c0,0 0,1.7693 0,3.95183v33.30852c0,2.18254 0,3.95183 0,3.95183z" fill="#f9f9f9" stroke="none" stroke-width="1.32774" stroke-linecap="butt"/><path d="M247.05919,204.63992c0,0 0,-1.37965 0,-3.08153v-25.97304c0,-1.70188 0,-3.08153 0,-3.08153h11.093c0,0 0,1.37965 0,3.08153v25.97304c0,1.70188 0,3.08153 0,3.08153z" fill="#f9f9f9" stroke="none" stroke-width="1.17246" stroke-linecap="butt"/><path d="M281.92143,212.51214l-83.72896,-66.93652" fill="none" stroke="#ff0000" stroke-width="5" stroke-linecap="round"/><path d="M194.11899,213.42959l85.43714,-69.6279" fill="none" stroke="#ff0000" stroke-width="5" stroke-linecap="round"/></g></g></svg>