<svg version="1.1" xmlns="http://www.w3.org/2000/svg" xmlns:xlink="http://www.w3.org/1999/xlink" width="458.09275" height="423.16974" viewBox="0,0,458.09275,423.16974"><defs><radialGradient cx="130.18669" cy="189.27013" r="105" fx="130.18669" fy="189.27013" gradientUnits="userSpaceOnUse" id="color-1"><stop offset="0" stop-color="#cddfff"/><stop offset="1" stop-color="#454545"/></radialGradient><radialGradient cx="132.45741" cy="180.00001" r="217.35594" fx="132.45741" fy="180.00001" gradientUnits="userSpaceOnUse" id="color-2"><stop offset="0" stop-color="#002d67"/><stop offset="1" stop-color="#000000"/></radialGradient><radialGradient cx="376.69461" cy="177.51466" r="209.83487" gradientUnits="userSpaceOnUse" id="color-3"><stop offset="0" stop-color="#000000"/><stop offset="1" stop-color="#00234f"/></radialGradient><radialGradient cx="360.65599" cy="178.82224" r="147.28798" gradientUnits="userSpaceOnUse" id="color-4"><stop offset="0" stop-color="#002554"/><stop offset="1" stop-color="#001836"/></radialGradient><radialGradient cx="376.69457" cy="177.5147" r="209.83487" gradientUnits="userSpaceOnUse" id="color-5"><stop offset="0" stop-color="#000000"/><stop offset="1" stop-color="#00234f"/></radialGradient><radialGradient cx="376.69455" cy="177.51468" r="149.83014" gradientUnits="userSpaceOnUse" id="color-6"><stop offset="0" stop-color="#000000"/><stop offset="1" stop-color="#00234f"/></radialGradient><radialGradient cx="376.69458" cy="177.51468" r="149.83014" gradientUnits="userSpaceOnUse" id="color-7"><stop offset="0" stop-color="#000000"/><stop offset="1" stop-color="#00234f"/></radialGradient><radialGradient cx="381.8887" cy="170.27096" r="194.19107" gradientUnits="userSpaceOnUse" id="color-8"><stop offset="0" stop-color="#000000"/><stop offset="1" stop-color="#00234f"/></radialGradient><radialGradient cx="377.47089" cy="173.63301" r="194.19107" gradientUnits="userSpaceOnUse" id="color-9"><stop offset="0" stop-color="#000000"/><stop offset="1" stop-color="#00234f"/></radialGradient><radialGradient cx="377.47091" cy="173.63302" r="194.19107" gradientUnits="userSpaceOnUse" id="color-10"><stop offset="0" stop-color="#000000"/><stop offset="1" stop-color="#00234f"/></radialGradient><radialGradient cx="374.67549" cy="177.35711" r="194.19107" gradientUnits="userSpaceOnUse" id="color-11"><stop offset="0" stop-color="#000000"/><stop offset="1" stop-color="#00234f"/></radialGradient><radialGradient cx="359.17577" cy="180.75267" r="115.56902" gradientUnits="userSpaceOnUse" id="color-12"><stop offset="0" stop-color="#00285c"/><stop offset="1" stop-color="#00132c"/></radialGradient></defs><g transform="translate(-130.18669,34.07021)"><g data-paper-data="{&quot;isPaintingLayer&quot;:true}" fill-rule="nonzero" stroke-linecap="butt" stroke-linejoin="miter" stroke-miterlimit="10" stroke-dasharray="" stroke-dashoffset="0" style="mix-blend-mode: normal"><path d="M130.18669,328.50001v-297h210v297z" fill="url(#color-1)" stroke="none" stroke-width="1"/><path d="M132.45741,328.50001v-297h217.35594v297z" fill="url(#color-2)" stroke="none" stroke-width="1.01253"/><path d="M347.43012,177.51466c0,-115.88861 13.10216,-209.83487 29.26449,-209.83487c16.16232,0 29.26449,93.94626 29.26449,209.83487c0,115.88861 -13.10216,209.83487 -29.26449,209.83487c-16.16232,0 -29.26449,-93.94626 -29.26449,-209.83487z" fill="none" stroke="url(#color-3)" stroke-width="3.5"/><path d="M213.368,178.82224c0,-81.34491 65.94308,-147.28798 147.28798,-147.28798c81.34491,0 147.28798,65.94308 147.28798,147.28798c0,81.34491 -65.94308,147.28798 -147.28798,147.28798c-81.34491,0 -147.28798,-65.94308 -147.28798,-147.28798z" fill="url(#color-4)" stroke="#d4d4d4" stroke-width="0"/><path d="M376.69457,148.25021c115.88861,0 209.83487,13.10216 209.83487,29.26449c0,16.16232 -93.94626,29.26449 -209.83487,29.26449c-115.88861,0 -209.83487,-13.10216 -209.83487,-29.26449c0,-16.16232 93.94626,-29.26449 209.83487,-29.26449z" fill="none" stroke="url(#color-5)" stroke-width="3.5"/><path d="M356.00145,156.82158c81.9456,-81.9456 157.64026,-139.11102 169.06876,-127.68256c11.4285,11.4285 -45.73692,87.12316 -127.68256,169.06876c-81.9456,81.9456 -157.64026,139.11102 -169.06876,127.68256c-11.4285,-11.4285 45.73692,-87.12316 127.68256,-169.06876z" fill="none" stroke="url(#color-6)" stroke-width="3.5"/><path d="M397.38769,156.82158c81.9456,81.9456 139.11102,157.64026 127.68256,169.06876c-11.4285,11.4285 -87.12316,-45.73692 -169.06876,-127.68256c-81.9456,-81.9456 -139.11102,-157.64026 -127.68256,-169.06876c11.4285,-11.4285 87.12316,45.73692 169.06876,127.68256z" fill="none" stroke="url(#color-7)" stroke-width="3.5"/><path d="M370.68967,143.2341c107.0671,-44.34865 198.87611,-68.19553 205.06117,-53.26346c6.18506,14.93203 -75.59599,62.98853 -182.6631,107.33718c-107.0671,44.34865 -198.87611,68.19553 -205.06117,53.26346c-6.18506,-14.93203 75.59599,-62.98853 182.6631,-107.33718z" fill="none" stroke="url(#color-8)" stroke-width="3.5"/><path d="M404.50775,162.43397c44.34865,107.0671 68.19553,198.87611 53.26346,205.06117c-14.93203,6.18506 -62.98853,-75.59599 -107.33718,-182.6631c-44.34865,-107.0671 -68.19553,-198.87611 -53.26346,-205.06117c14.93203,-6.18506 62.98853,75.59599 107.33718,182.6631z" fill="none" stroke="url(#color-9)" stroke-width="3.5"/><path d="M388.66994,146.59616c107.0671,44.34865 188.84816,92.40515 182.6631,107.33718c-6.18506,14.93203 -97.99406,-8.91481 -205.06117,-53.26346c-107.0671,-44.34865 -188.84816,-92.40515 -182.6631,-107.33718c6.18506,-14.93203 97.99406,8.91481 205.06117,53.26346z" fill="none" stroke="url(#color-10)" stroke-width="3.5"/><path d="M401.71235,188.55615c-44.34865,107.0671 -92.40515,188.84816 -107.33718,182.6631c-14.93203,-6.18506 8.91481,-97.99406 53.26346,-205.06117c44.34865,-107.0671 92.40515,-188.84816 107.33718,-182.6631c14.93203,6.18506 -8.91481,97.99406 -53.26346,205.06117z" fill="none" stroke="url(#color-11)" stroke-width="3.5"/><path d="M243.60674,180.75267c0,-63.82701 51.74202,-115.56902 115.56902,-115.56902c63.82701,0 115.56902,51.74202 115.56902,115.56902c0,63.82701 -51.74202,115.56902 -115.56902,115.56902c-63.82701,0 -115.56902,-51.74201 -115.56902,-115.56902z" fill="url(#color-12)" stroke="#d4d4d4" stroke-width="0"/></g></g></svg>