<svg version="1.1" xmlns="http://www.w3.org/2000/svg" xmlns:xlink="http://www.w3.org/1999/xlink" width="380.68369" height="91.5856" viewBox="0,0,380.68369,91.5856"><defs><linearGradient x1="49.65816" y1="77.2928" x2="430.34184" y2="77.2928" gradientUnits="userSpaceOnUse" id="color-1"><stop offset="0" stop-color="#07133a"/><stop offset="1" stop-color="#663aa2"/></linearGradient><linearGradient x1="172.4245" y1="55.59171" x2="305.84639" y2="55.59171" gradientUnits="userSpaceOnUse" id="color-2"><stop offset="0" stop-color="#1e51fa"/><stop offset="1" stop-color="#a05cff"/></linearGradient></defs><g transform="translate(-49.65815,-31.5)"><g data-paper-data="{&quot;isPaintingLayer&quot;:true}" fill-rule="nonzero" stroke="none" stroke-linecap="butt" stroke-linejoin="miter" stroke-miterlimit="10" stroke-dasharray="" stroke-dashoffset="0" style="mix-blend-mode: normal"><path d="M51.75874,31.5h376.48252c1.16371,0 2.10058,0.15937 2.10058,0.35733v90.87094c0,0.19796 -0.93686,0.35733 -2.10058,0.35733h-376.48252c-1.16372,0 -2.10059,-0.15937 -2.10059,-0.35733v-90.87094c0,-0.19796 0.93686,-0.35733 2.10059,-0.35733z" fill="url(#color-1)" stroke-width="2"/><path d="M173.16072,43.02736h131.94947c0.40786,0 0.73621,0.04373 0.73621,0.09804v24.93263c0,0.05431 -0.32835,0.09804 -0.73621,0.09804h-131.94947c-0.40786,0 -0.73621,-0.04373 -0.73621,-0.09804v-24.93263c0,-0.05431 0.32835,-0.09804 0.73621,-0.09804z" fill="url(#color-2)" stroke-width="2"/><path d="M188.03165,60.74905c0.09666,0.04833 0.14499,0.12083 0.14499,0.16916c0,0.09666 -0.09667,0.26582 -0.24166,0.55582c-0.14499,0.28999 -0.41082,0.57997 -0.7733,0.9183c-0.72497,0.67664 -1.73994,1.01496 -3.02071,1.01496h-0.72497c-0.67664,0 -1.25662,-0.09666 -1.78826,-0.28999c-0.53164,-0.19333 -0.99079,-0.45915 -1.37744,-0.82164c-0.38665,-0.36248 -0.67664,-0.79747 -0.86997,-1.30495c-0.21749,-0.50748 -0.31415,-1.06329 -0.31415,-1.6916v-7.49136c0,-0.60415 0.09666,-1.15996 0.31415,-1.66744c0.19332,-0.50748 0.48332,-0.94246 0.86997,-1.30495c0.38665,-0.36248 0.8458,-0.65247 1.37744,-0.8458c0.53164,-0.19333 1.11162,-0.28999 1.78826,-0.28999h0.72497c0.57997,0 1.13579,0.09665 1.61911,0.26582c0.48332,0.16916 0.9183,0.36249 1.28078,0.60415c0.33832,0.24166 0.62831,0.50747 0.82163,0.79746c0.19332,0.28999 0.28999,0.53165 0.28999,0.77331c0,0.09666 -0.04833,0.145 -0.145,0.19333l-1.5466,0.7733c-0.04833,0.02417 -0.0725,0.02417 -0.12083,0.02417c-0.0725,0 -0.145,-0.04833 -0.19333,-0.14499c-0.28999,-0.36248 -0.55581,-0.67664 -0.82163,-0.94246c-0.28999,-0.26582 -0.67664,-0.41081 -1.18412,-0.41081h-0.72497c-0.62831,0 -1.13579,0.21749 -1.5466,0.62831c-0.43499,0.43498 -0.62831,0.94246 -0.62831,1.5466v7.49137c0,0.62831 0.19332,1.13579 0.62831,1.5466c0.41082,0.43498 0.9183,0.62831 1.5466,0.62831h0.72497c0.28999,0 0.53165,-0.04832 0.7733,-0.14499c0.24166,-0.09666 0.41082,-0.21749 0.53165,-0.36249c0.26583,-0.31415 0.45914,-0.55581 0.60414,-0.74914c0.12083,-0.19333 0.21749,-0.28999 0.31416,-0.28999c0.02417,0 0.0725,0.02417 0.14499,0.04833zM199.94533,62.85147c0,0.04833 0,0.0725 0,0.0725l0.02417,0.02417c0,0.145 -0.09666,0.21749 -0.26582,0.21749h-1.81243c-0.14499,0 -0.24166,-0.04833 -0.24166,-0.16916l-0.89414,-3.18988c-0.02416,-0.09666 -0.09666,-0.145 -0.24166,-0.145h-3.91484c-0.14499,0 -0.24166,0.04833 -0.24166,0.145l-0.89413,3.18988c-0.02417,0.12083 -0.09667,0.16916 -0.24166,0.16916h-1.81243c-0.19332,0 -0.26582,-0.0725 -0.26582,-0.21749v-0.02417c0,0 0.02417,-0.02417 0.02417,-0.0725l4.49482,-14.74108c0,-0.09666 0.09666,-0.16916 0.24166,-0.16916h1.30495c0.09666,0 0.19333,0.0725 0.24166,0.16916zM196.05466,57.41418l-1.15995,-4.54315c-0.04833,-0.12083 -0.0725,-0.26582 -0.12083,-0.45915c-0.04833,-0.16916 -0.12083,-0.36248 -0.16916,-0.60414h-0.09666l-0.28999,1.08745l-1.18412,4.51899c0,0.04833 -0.02417,0.0725 -0.02417,0.0725v0.02417c0,0.145 0.0725,0.21749 0.26582,0.21749h2.5374c0.16916,0 0.26582,-0.0725 0.26582,-0.21749c0,0 -0.02417,-0.02417 -0.02417,-0.04833c0,0 0,-0.02417 0,-0.04833zM210.50576,62.92396c0,0.16916 -0.09666,0.24166 -0.24166,0.24166h-8.21634c-0.16916,0 -0.24166,-0.0725 -0.24166,-0.24166v-14.74108c0,-0.145 0.0725,-0.24165 0.24166,-0.24165h1.6916c0.14499,0 0.24166,0.09666 0.24166,0.24165v12.80783c0,0.16916 0.07251,0.24166 0.24166,0.24166h6.04143c0.14499,0 0.24166,0.09667 0.24166,0.24166zM221.11449,62.92396c0,0.16916 -0.09667,0.24166 -0.24166,0.24166h-8.21634c-0.16916,0 -0.24166,-0.0725 -0.24166,-0.24166v-14.74108c0,-0.145 0.0725,-0.24165 0.24166,-0.24165h1.6916c0.14499,0 0.24166,0.09666 0.24166,0.24165v12.80783c0,0.16916 0.0725,0.24166 0.24166,0.24166h6.04143c0.14499,0 0.24166,0.09667 0.24166,0.24166zM223.7002,58.57414c0,0.16916 -0.09666,0.24166 -0.24166,0.24166h-3.86651c-0.16916,0 -0.24165,-0.0725 -0.24165,-0.24166v-1.6916c0,-0.145 0.0725,-0.24165 0.24165,-0.24165h3.86651c0.14499,0 0.24166,0.09666 0.24166,0.24165zM235.37224,62.85147c0,0.04833 0,0.0725 0,0.0725l0.0242,0.02417c0,0.145 -0.0967,0.21749 -0.26583,0.21749h-1.81242c-0.14499,0 -0.24166,-0.04833 -0.24166,-0.16916l-0.89413,-3.18988c-0.02417,-0.09666 -0.09667,-0.145 -0.24166,-0.145h-3.91485c-0.14499,0 -0.24165,0.04833 -0.24165,0.145l-0.89413,3.18988c-0.02416,0.12083 -0.09667,0.16916 -0.24166,0.16916h-1.81242c-0.19332,0 -0.26583,-0.0725 -0.26583,-0.21749v-0.02417c0,0 0.02417,-0.02417 0.02417,-0.0725l4.49482,-14.74108c0,-0.09666 0.09667,-0.16916 0.24166,-0.16916h1.30495c0.09666,0 0.19333,0.0725 0.24166,0.16916zM231.48157,57.41418l-1.15995,-4.54315c-0.04833,-0.12083 -0.0725,-0.26582 -0.12083,-0.45915c-0.04833,-0.16916 -0.12083,-0.36248 -0.16916,-0.60414h-0.09666l-0.28999,1.08745l-1.18412,4.51899c0,0.04833 -0.02417,0.0725 -0.02417,0.0725v0.02417c0,0.145 0.0725,0.21749 0.26583,0.21749h2.5374c0.16916,0 0.26582,-0.0725 0.26582,-0.21749c0,0 -0.02417,-0.02417 -0.02417,-0.04833c0,0 0,-0.02417 0,-0.04833zM240.64036,58.57414c0,0.16916 -0.0967,0.24166 -0.24165,0.24166h-3.86652c-0.16916,0 -0.24165,-0.0725 -0.24165,-0.24166v-1.6916c0,-0.145 0.0725,-0.24165 0.24165,-0.24165h3.86652c0.14499,0 0.24165,0.09666 0.24165,0.24165zM252.96488,58.86412c0,1.35328 -0.38665,2.39241 -1.15995,3.16571c-0.77331,0.7733 -1.8366,1.13579 -3.18988,1.13579h-4.83314c-0.16916,0 -0.24165,-0.0725 -0.24165,-0.24166v-14.74108c0,-0.145 0.0725,-0.24165 0.24165,-0.24165h4.83314c1.32912,0 2.39241,0.41081 3.16571,1.18412c0.7733,0.7733 1.18412,1.83659 1.18412,3.1657v0.24166c0,0.62831 -0.26582,1.28078 -0.74914,1.95742c-0.21749,0.28999 -0.41081,0.50748 -0.60414,0.65248c-0.19332,0.145 -0.28999,0.24166 -0.28999,0.31415c0,0.09666 0.0967,0.19332 0.28999,0.33832c0.19333,0.145 0.38665,0.38665 0.60414,0.70081c0.48332,0.74914 0.74914,1.42578 0.74914,2.00575zM250.78997,52.29105v-0.24166c0,-0.60415 -0.21749,-1.11162 -0.62831,-1.5466c-0.43498,-0.41081 -0.94246,-0.62831 -1.54661,-0.62831h-2.65822c-0.16916,0 -0.24166,0.09667 -0.24166,0.24166v4.10817c0,0.16916 0.0725,0.24165 0.24166,0.24165h2.65822c0.60415,0 1.11163,-0.19333 1.54661,-0.62831c0.41082,-0.41081 0.62831,-0.9183 0.62831,-1.5466zM250.78997,59.05745v-0.48332c0,-0.57997 -0.21749,-1.08746 -0.62831,-1.52244c-0.43498,-0.43498 -0.94246,-0.65248 -1.54661,-0.65248h-2.65822c-0.16916,0 -0.24166,0.09667 -0.24166,0.24166v4.34982c0,0.16916 0.0725,0.24166 0.24166,0.24166h2.65822c0.60415,0 1.11163,-0.19332 1.54661,-0.6283c0.41082,-0.43498 0.62831,-0.94246 0.62831,-1.5466zM264.63694,59.29911c0,0.62831 -0.12083,1.18412 -0.31415,1.6916c-0.21749,0.50748 -0.50748,0.94246 -0.89413,1.30495c-0.38665,0.36248 -0.82164,0.62831 -1.35328,0.82164c-0.53165,0.19333 -1.13579,0.28999 -1.78826,0.28999h-0.72498c-0.67664,0 -1.25661,-0.09666 -1.78826,-0.28999c-0.53164,-0.19333 -0.99079,-0.45915 -1.37744,-0.82164c-0.38665,-0.36248 -0.67664,-0.79747 -0.86997,-1.30495c-0.21749,-0.50748 -0.31415,-1.06329 -0.31415,-1.6916v-11.11622c0,-0.145 0.0725,-0.24165 0.24166,-0.24165h1.69159c0.145,0 0.24166,0.09666 0.24166,0.24165v11.11623c0,0.62831 0.19333,1.13579 0.62831,1.5466c0.41082,0.43498 0.9183,0.62831 1.5466,0.62831h0.72498c0.60414,0 1.11162,-0.19333 1.5466,-0.62831c0.41082,-0.41081 0.62831,-0.9183 0.62831,-1.5466v-11.11622c0,-0.145 0.0725,-0.24165 0.24166,-0.24165h1.69159c0.145,0 0.24166,0.09666 0.24166,0.24165zM277.32394,58.81579c0,1.35328 -0.38666,2.41658 -1.15996,3.18988c-0.7733,0.77331 -1.83659,1.15995 -3.18987,1.15995h-4.83314c-0.16916,0 -0.24166,-0.0725 -0.24166,-0.24166v-14.74108c0,-0.145 0.0725,-0.24165 0.24166,-0.24165h4.83314c1.32911,0 2.3924,0.41081 3.16571,1.18412c0.7733,0.7733 1.18412,1.83659 1.18412,3.1657zM275.14902,59.05745v-7.00806c0,-0.60415 -0.21749,-1.11162 -0.62831,-1.5466c-0.43498,-0.41081 -0.94246,-0.62831 -1.5466,-0.62831h-2.65823c-0.16916,0 -0.24165,0.09667 -0.24165,0.24166v10.87456c0,0.16916 0.0725,0.24166 0.24165,0.24166h2.65823c0.60414,0 1.11162,-0.19332 1.5466,-0.6283c0.41082,-0.43498 0.62831,-0.94246 0.62831,-1.5466zM289.38264,58.81579c0,1.35328 -0.38666,2.41658 -1.15996,3.18988c-0.7733,0.77331 -1.83659,1.15995 -3.18987,1.15995h-4.83314c-0.16916,0 -0.24166,-0.0725 -0.24166,-0.24166v-14.74108c0,-0.145 0.0725,-0.24165 0.24166,-0.24165h4.83314c1.32911,0 2.3924,0.41081 3.16571,1.18412c0.7733,0.7733 1.18412,1.83659 1.18412,3.1657zM287.20772,59.05745v-7.00806c0,-0.60415 -0.21749,-1.11162 -0.62831,-1.5466c-0.43498,-0.41081 -0.94246,-0.62831 -1.5466,-0.62831h-2.65823c-0.16916,0 -0.24165,0.09667 -0.24165,0.24166v10.87456c0,0.16916 0.0725,0.24166 0.24165,0.24166h2.65823c0.60414,0 1.11162,-0.19332 1.5466,-0.6283c0.41082,-0.43498 0.62831,-0.94246 0.62831,-1.5466zM300.8855,48.30371l-4.20483,7.87802v6.74223c0,0.16916 -0.0967,0.24166 -0.24166,0.24166h-1.6916c-0.16916,0 -0.24165,-0.0725 -0.24165,-0.24166v-6.74223l-4.20484,-7.87802c-0.0483,-0.09666 -0.0483,-0.145 -0.0483,-0.16916c0,-0.12083 0.0725,-0.19332 0.26583,-0.19332h1.98155l0.21749,0.14499l2.65823,5.50978c0.0483,0.12083 0.12083,0.16916 0.21749,0.16916c0.0967,0 0.16916,-0.04833 0.21749,-0.16916l2.65823,-5.50978l0.21749,-0.14499h1.98159c0.16916,0 0.26582,0.0725 0.26582,0.19332c0,0.02417 -0.0242,0.0725 -0.0483,0.16916z" fill="#f9f9f9" stroke-width="0.09997"/></g></g></svg>