<svg version="1.1" xmlns="http://www.w3.org/2000/svg" xmlns:xlink="http://www.w3.org/1999/xlink" width="10.80014" height="12.60006" viewBox="0,0,10.80014,12.60006"><g transform="translate(-323.60313,-167.00454)"><g data-paper-data="{&quot;isPaintingLayer&quot;:true}" fill="#000000" fill-rule="evenodd" stroke="#000000" stroke-width="0" stroke-linecap="round" stroke-linejoin="miter" stroke-miterlimit="10" stroke-dasharray="" stroke-dashoffset="0" style="mix-blend-mode: normal"><path d="M332.48318,176.50455h-0.26c-0.57058,0.01001 -1.11942,-0.21873 -1.514,-0.631c-0.02243,-0.02258 -0.04444,-0.04559 -0.066,-0.069c-0.469,0.357 -0.926,0.577 -1.371,0.661c-0.13482,0.02573 -0.27175,0.03879 -0.409,0.039c-0.22354,0.00129 -0.44634,-0.02593 -0.663,-0.081c-0.10111,-0.0263 -0.20033,-0.05937 -0.297,-0.099c-0.293,-0.12 -0.55,-0.287 -0.77,-0.5c-0.20933,-0.20421 -0.37769,-0.44656 -0.496,-0.714c-0.00822,-0.01857 -0.01622,-0.03724 -0.024,-0.056c-0.127,-0.3 -0.19,-0.63 -0.19,-0.99v-1.62c-0.00086,-0.19877 0.02061,-0.39702 0.064,-0.591c0.02998,-0.13326 0.07215,-0.26347 0.126,-0.389c0.127,-0.293 0.3,-0.547 0.52,-0.76c0.22,-0.213 0.477,-0.38 0.77,-0.5c0.24492,-0.09911 0.50428,-0.15788 0.768,-0.174c0.06392,-0.00413 0.12795,-0.00613 0.192,-0.006c0.439,0 0.896,0.136 1.371,0.408c0.02988,0.01697 0.05955,0.03431 0.089,0.052v-0.06c-0.00068,-0.05334 0.00605,-0.10651 0.02,-0.158c0.034,-0.119 0.111,-0.193 0.232,-0.225c0.04841,-0.01191 0.09815,-0.01762 0.148,-0.017h0.46c0.253,0 0.38,0.133 0.38,0.4l-0.02,4.14c-0.00246,0.1778 0.06758,0.34894 0.194,0.474c0.00199,0.00201 0.00399,0.00401 0.006,0.006c0.12711,0.12834 0.30036,0.20038 0.481,0.2c0.00633,0.00007 0.01267,0.00007 0.019,0h0.24c0.15629,0.00039 0.30698,-0.05818 0.422,-0.164c0.01304,-0.0116 0.02572,-0.0236 0.038,-0.036c0.12787,-0.12332 0.20007,-0.29335 0.2,-0.471c0.00002,-0.003 0.00002,-0.006 0,-0.009v-4.08c0.00247,-0.24876 -0.03224,-0.4965 -0.103,-0.735c-0.10157,-0.33499 -0.29035,-0.63696 -0.547,-0.875c-0.28938,-0.26825 -0.646,-0.45312 -1.032,-0.535c-0.23578,-0.05174 -0.47662,-0.0769 -0.718,-0.075h-3.48c-0.24655,-0.00184 -0.4925,0.02466 -0.733,0.079c-0.38031,0.08307 -0.73146,0.26641 -1.017,0.531c-0.36509,0.3423 -0.59088,0.8074 -0.634,1.306c-0.01081,0.10097 -0.01615,0.20245 -0.016,0.304v5.64c-0.00232,0.2384 0.0283,0.47598 0.091,0.706c0.09664,0.35119 0.2904,0.66798 0.559,0.914c0.28316,0.25779 0.62901,0.43675 1.003,0.519c0.229,0.054 0.478,0.081 0.747,0.081h5.02c0.05064,-0.00064 0.10112,0.00575 0.15,0.019c0.113,0.032 0.184,0.106 0.214,0.22c0.01129,0.04613 0.01667,0.09351 0.016,0.141v0.5c0.00064,0.05064 -0.00575,0.10112 -0.019,0.15c-0.032,0.113 -0.106,0.184 -0.22,0.214c-0.04613,0.01129 -0.09351,0.01667 -0.141,0.016h-5.02c-0.27911,0.00135 -0.55781,-0.0214 -0.833,-0.068c-0.23079,-0.03967 -0.45743,-0.10059 -0.677,-0.182c-0.447,-0.167 -0.83,-0.403 -1.15,-0.71c-0.32,-0.307 -0.567,-0.673 -0.74,-1.1c-0.12705,-0.31742 -0.20755,-0.65154 -0.239,-0.992c-0.01403,-0.14224 -0.02103,-0.28508 -0.021,-0.428v-5.64c-0.00151,-0.29102 0.02833,-0.58137 0.089,-0.866c0.04107,-0.18921 0.09828,-0.37456 0.171,-0.554c0.173,-0.427 0.42,-0.793 0.74,-1.1c0.27633,-0.26231 0.59695,-0.47357 0.947,-0.624c0.07012,-0.0308 0.14115,-0.05948 0.213,-0.086c0.33043,-0.11981 0.67494,-0.19645 1.025,-0.228c0.15789,-0.01486 0.31641,-0.02221 0.475,-0.022h3.48c0.547,0 1.047,0.083 1.5,0.25c0.29253,0.10586 0.56938,0.25084 0.823,0.431c0.11882,0.08488 0.23144,0.17811 0.337,0.279c0.32,0.307 0.567,0.673 0.74,1.1c0.173,0.427 0.26,0.9 0.26,1.42v4.18c0.00191,0.20813 -0.02707,0.41538 -0.086,0.615c-0.08151,0.27136 -0.23089,0.51745 -0.434,0.715c-0.24372,0.23651 -0.55139,0.39643 -0.885,0.46c-0.16951,0.03422 -0.34208,0.05098 -0.515,0.05zM327.68318,172.60455v1.3c-0.00173,0.16191 0.02293,0.32302 0.073,0.477c0.06102,0.18147 0.16259,0.34666 0.297,0.483c0.23402,0.24342 0.55733,0.38069 0.895,0.38c0.01167,0.00013 0.02333,0.00013 0.035,0c0.3498,0.00636 0.68683,-0.13142 0.932,-0.381c0.00605,-0.00628 0.01205,-0.01262 0.018,-0.019c0.26,-0.267 0.39,-0.58 0.39,-0.94v-1.3c0,-0.36 -0.127,-0.67 -0.38,-0.93c-0.23748,-0.2461 -0.56401,-0.3863 -0.906,-0.389c-0.01799,-0.00062 -0.036,-0.00096 -0.054,-0.001c-0.33628,-0.00472 -0.65952,0.12994 -0.893,0.372c-0.00912,0.00922 -0.01812,0.01855 -0.027,0.028c-0.12001,0.12336 -0.21628,0.26777 -0.284,0.426c-0.06463,0.15661 -0.09727,0.32458 -0.096,0.494z"/></g></g></svg>