<svg version="1.1" xmlns="http://www.w3.org/2000/svg" xmlns:xlink="http://www.w3.org/1999/xlink" width="178.89804" height="27.11675" viewBox="0,0,178.89804,27.11675"><g transform="translate(-150.54331,-166.44162)"><g data-paper-data="{&quot;isPaintingLayer&quot;:true}" fill-rule="nonzero" stroke-width="1" stroke-linecap="butt" stroke-linejoin="miter" stroke-miterlimit="10" stroke-dasharray="" stroke-dashoffset="0" style="mix-blend-mode: normal"><path d="M151.21193,180.23442l11.59659,-13.2928h154.90881l11.07073,12.83554l-10.89246,13.28121h-155.09604z" fill="#ffad00" stroke="#80f7ff"/><path d="M182.71423,181.7191l1.16444,1.69499l-0.15847,0.11713c-0.11024,-0.07809 -0.19752,-0.11713 -0.26183,-0.11713c-0.07809,0 -0.25953,0.08498 -0.54432,0.25494c-0.6293,0.36748 -1.18511,0.62241 -1.66743,0.76481c-0.48231,0.1424 -1.03812,0.2136 -1.66743,0.2136c-1.25861,0 -2.28525,-0.30087 -3.07991,-0.90261c-0.45016,-0.34451 -0.80845,-0.77629 -1.07487,-1.29536c-0.28479,-0.5604 -0.42719,-1.16904 -0.42719,-1.8259c0,-0.90491 0.26183,-1.70417 0.78548,-2.39778c0.82223,-1.08406 2.08313,-1.62608 3.78271,-1.62608c0.6293,0 1.18741,0.0712 1.67432,0.2136c0.4915,0.1424 1.0496,0.39733 1.67432,0.76481c0.28479,0.16996 0.46624,0.25494 0.54432,0.25494c0.06431,0 0.15158,-0.03904 0.26183,-0.11713l0.15847,0.12402l-1.16444,1.6881l-0.15158,-0.11024c0.0046,-0.05512 0.00919,-0.08957 0.01378,-0.10335c0.0046,-0.04134 0.0069,-0.0712 0.0069,-0.08957c0,-0.22508 -0.31006,-0.48002 -0.93017,-0.76481c-0.58796,-0.27101 -1.18052,-0.40652 -1.77767,-0.40652c-0.83601,0 -1.52503,0.22049 -2.06706,0.66146c-0.62012,0.49609 -0.93017,1.13229 -0.93017,1.90858c0,0.78089 0.31006,1.41938 0.93017,1.91547c0.54662,0.43638 1.23564,0.65457 2.06706,0.65457c0.65227,0 1.30224,-0.16307 1.94992,-0.4892c0.50528,-0.25723 0.75792,-0.48231 0.75792,-0.67524c0,-0.00919 -0.00689,-0.0735 -0.02067,-0.19293zM191.32007,181.12654h-4.30637v2.65272c0,0.1424 0.03215,0.25264 0.09646,0.33073c0.06431,0.0735 0.17914,0.13551 0.34451,0.18604v0.18604h-2.72851v-0.19293c0.16077,-0.04134 0.27331,-0.10106 0.33762,-0.17915c0.0689,-0.07809 0.10335,-0.18833 0.10335,-0.33073v-6.31141c0,-0.1424 -0.03215,-0.25034 -0.09646,-0.32384c-0.06431,-0.0735 -0.17914,-0.13551 -0.34451,-0.18604v-0.19293h2.72851v0.19293c-0.16536,0.04593 -0.2802,0.10795 -0.34451,0.18604c-0.06431,0.0735 -0.09646,0.18144 -0.09646,0.32384v2.25998h4.30637v-2.25998c0,-0.1424 -0.03215,-0.25034 -0.09646,-0.32384c-0.05971,-0.0735 -0.17455,-0.13551 -0.34451,-0.18604v-0.19293h2.72851v0.19293c-0.16536,0.04593 -0.2802,0.10795 -0.34451,0.18604c-0.06431,0.0735 -0.09646,0.18144 -0.09646,0.32384v6.31141c0,0.1424 0.03215,0.25264 0.09646,0.33073c0.06431,0.0735 0.17914,0.13551 0.34451,0.18604v0.18604h-2.72851v-0.19293c0.16077,-0.04134 0.27331,-0.10106 0.33762,-0.17915c0.0689,-0.07809 0.10335,-0.18833 0.10335,-0.33073zM200.81474,182.55281h-3.54845l-0.39963,0.8406c-0.09646,0.20211 -0.14469,0.36059 -0.14469,0.47542c0,0.22049 0.14699,0.36059 0.44097,0.4203v0.19293h-2.83876v-0.19293c0.17455,-0.02756 0.30317,-0.08039 0.38585,-0.15848c0.08728,-0.07809 0.18833,-0.23197 0.30317,-0.46164l2.81809,-5.70507c0.10565,-0.21589 0.15847,-0.40422 0.15847,-0.565c0,-0.18833 -0.12862,-0.33532 -0.38585,-0.44097v-0.19293h2.99723v0.19293c-0.25264,0.10106 -0.37896,0.25723 -0.37896,0.46853c0,0.15158 0.05742,0.33762 0.17226,0.55811l2.92144,5.53282c0.16077,0.30317 0.28709,0.50069 0.37896,0.59256c0.09187,0.08728 0.23197,0.14929 0.4203,0.18604v0.18604h-3.14881v-0.18604c0.29857,-0.05053 0.44786,-0.19063 0.44786,-0.4203c0,-0.1424 -0.05742,-0.31924 -0.17225,-0.53054zM200.25664,181.47105l-1.2609,-2.47358l-1.19889,2.47358zM206.87811,179.39711v4.38216c0,0.1424 0.03215,0.25264 0.09646,0.33073c0.0689,0.07809 0.18374,0.1401 0.34451,0.18604v0.18604h-2.56315v-0.19293c0.16077,-0.04134 0.27331,-0.10106 0.33762,-0.17915c0.0689,-0.07809 0.10335,-0.18833 0.10335,-0.33073v-6.31141c0,-0.1424 -0.03215,-0.25034 -0.09646,-0.32384c-0.06431,-0.0735 -0.17914,-0.13551 -0.34451,-0.18604v-0.19293h2.96278v0.19293c-0.20211,0.05053 -0.30317,0.1401 -0.30317,0.26872c0,0.11024 0.0735,0.23886 0.22049,0.38585l4.13411,4.10655v-4.25124c0,-0.1424 -0.03215,-0.25034 -0.09646,-0.32384c-0.06431,-0.07809 -0.17914,-0.1401 -0.34451,-0.18604v-0.19293h2.56315v0.19293c-0.16536,0.04593 -0.2802,0.10795 -0.34451,0.18604c-0.06431,0.0735 -0.09646,0.18144 -0.09646,0.32384v6.31141c0,0.1424 0.03215,0.25264 0.09646,0.33073c0.06431,0.0735 0.17914,0.13551 0.34451,0.18604v0.18604h-2.76297v-0.18604c0.20211,-0.04134 0.30317,-0.12632 0.30317,-0.25494c0,-0.06431 -0.02756,-0.13091 -0.08268,-0.19982c-0.05512,-0.0689 -0.18144,-0.20441 -0.37896,-0.40652zM222.20877,181.5055h-1.757c-0.14699,0 -0.25953,0.03215 -0.33762,0.09646c-0.0735,0.06431 -0.13321,0.17914 -0.17915,0.34451h-0.18604v-2.03949h0.18604c0.04593,0.16077 0.10565,0.27331 0.17915,0.33762c0.07809,0.06431 0.19063,0.09646 0.33762,0.09646h3.67247v0.19982c-0.16077,0.04593 -0.27561,0.11254 -0.34451,0.19982c-0.06431,0.08728 -0.09646,0.2113 -0.09646,0.37207v1.62608c0,0.1424 0.03215,0.25264 0.09646,0.33073c0.0689,0.07809 0.18374,0.1401 0.34451,0.18604v0.15847c-1.48828,0.82223 -2.97197,1.23334 -4.45106,1.23334c-1.27698,0 -2.31051,-0.30087 -3.10058,-0.90261c-0.42719,-0.33073 -0.7717,-0.73955 -1.03353,-1.22645c-0.30776,-0.57878 -0.46164,-1.1966 -0.46164,-1.85346c0,-0.9095 0.2802,-1.71795 0.8406,-2.42534c0.87276,-1.09324 2.16352,-1.63987 3.87228,-1.63987c0.74873,0 1.60312,0.16536 2.56315,0.49609c0.38126,0.12862 0.60404,0.19293 0.66835,0.19293c0.07809,0 0.16996,-0.03675 0.27561,-0.11024l0.16536,0.08957l-0.91639,1.94303l-0.16536,-0.08268c0,-0.01837 0,-0.03215 0,-0.04134c0,-0.16996 -0.16996,-0.34451 -0.50987,-0.52365c-0.6293,-0.33532 -1.30454,-0.50298 -2.02571,-0.50298c-0.83142,0 -1.51354,0.22738 -2.04639,0.68213c-0.5604,0.47772 -0.8406,1.1208 -0.8406,1.92925c0,0.75792 0.25494,1.36426 0.76481,1.81901c0.52365,0.46394 1.25861,0.69591 2.20486,0.69591c0.90032,0 1.66053,-0.16766 2.28065,-0.50298zM227.53488,181.20233v1.88102h4.89892c0.1424,0 0.25034,-0.03215 0.32384,-0.09646c0.07809,-0.06431 0.1401,-0.18144 0.18604,-0.3514h0.19293v2.28754h-0.19293c-0.04134,-0.16077 -0.10106,-0.27561 -0.17915,-0.34451c-0.07809,-0.06431 -0.18833,-0.09646 -0.33073,-0.09646h-7.18646v-0.19293c0.16077,-0.04134 0.27331,-0.10106 0.33762,-0.17915c0.0689,-0.07809 0.10335,-0.18833 0.10335,-0.33073v-6.31141c0,-0.1424 -0.03215,-0.25034 -0.09646,-0.32384c-0.06431,-0.0735 -0.17914,-0.13551 -0.34451,-0.18604v-0.19293h6.97287c0.14699,0 0.25723,-0.03215 0.33073,-0.09646c0.07809,-0.06431 0.1401,-0.17914 0.18604,-0.34451h0.18604v2.28754h-0.18604c-0.04593,-0.16996 -0.10795,-0.28709 -0.18604,-0.3514c-0.0735,-0.06431 -0.18374,-0.09646 -0.33073,-0.09646h-4.68533v1.69499h2.90766c0.1424,0 0.25034,-0.03215 0.32384,-0.09646c0.07809,-0.06431 0.1424,-0.17914 0.19293,-0.34451h0.18604v2.23242h-0.18604c-0.04593,-0.16536 -0.10795,-0.2802 -0.18604,-0.34451c-0.0735,-0.0689 -0.18374,-0.10335 -0.33073,-0.10335zM245.24955,177.46096l-0.93017,1.79834l-0.16537,-0.08957c0,-0.15158 -0.04823,-0.27101 -0.14469,-0.35829c-0.26183,-0.23427 -0.64768,-0.42719 -1.15755,-0.57878c-0.50987,-0.15158 -1.02664,-0.22738 -1.55029,-0.22738c-0.44557,0 -0.8406,0.06201 -1.18511,0.18604c-0.4961,0.17915 -0.74415,0.43868 -0.74415,0.77859c0,0.22508 0.11943,0.38585 0.35828,0.48231c0.23886,0.09187 0.7005,0.16536 1.38493,0.22049l1.08865,0.08268c0.95085,0.0735 1.67432,0.25723 2.17041,0.55122c0.27561,0.16536 0.50298,0.38585 0.68213,0.66146c0.22508,0.34451 0.33762,0.73266 0.33762,1.16444c0,0.78548 -0.3537,1.4056 -1.06109,1.86035c-0.67524,0.43638 -1.58934,0.65457 -2.7423,0.65457c-1.16214,0 -2.28524,-0.24575 -3.3693,-0.73725c-0.0735,-0.03215 -0.13551,-0.04823 -0.18604,-0.04823c-0.09187,0 -0.17685,0.05512 -0.25494,0.16537l-0.17225,-0.0689l0.79237,-1.88791l0.17226,0.0689c0,0.02756 0,0.04593 0,0.05512c0,0.11943 0.04593,0.22049 0.1378,0.30317c0.22967,0.20211 0.62701,0.37896 1.192,0.53054c0.56499,0.14699 1.1231,0.22049 1.67431,0.22049c0.48691,0 0.92329,-0.06431 1.30914,-0.19293c0.47772,-0.15618 0.71658,-0.40882 0.71658,-0.75792c0,-0.2802 -0.16536,-0.47542 -0.49609,-0.58567c-0.22049,-0.0735 -0.61782,-0.13551 -1.19201,-0.18604l-1.08176,-0.08957c-0.58337,-0.04593 -1.02893,-0.10565 -1.33669,-0.17915c-0.30776,-0.0735 -0.57648,-0.18144 -0.80615,-0.32384c-0.29398,-0.18374 -0.52365,-0.43408 -0.68902,-0.75103c-0.16536,-0.31695 -0.24805,-0.66375 -0.24805,-1.04042c0,-0.8452 0.36288,-1.49058 1.08865,-1.93614c0.66146,-0.40422 1.4791,-0.60634 2.45291,-0.60634c0.52825,0 1.01975,0.05971 1.4745,0.17915c0.45935,0.11484 1.00597,0.31925 1.63986,0.61323c0.18833,0.08728 0.31925,0.13091 0.39274,0.13091c0.07349,0 0.16766,-0.05053 0.2825,-0.15158zM248.80489,181.20233v1.88102h4.89892c0.1424,0 0.25035,-0.03215 0.32384,-0.09646c0.07809,-0.06431 0.1401,-0.18144 0.18603,-0.3514h0.19293v2.28754h-0.19293c-0.04133,-0.16077 -0.10105,-0.27561 -0.17914,-0.34451c-0.07809,-0.06431 -0.18833,-0.09646 -0.33073,-0.09646h-7.18646v-0.19293c0.16077,-0.04134 0.27331,-0.10106 0.33762,-0.17915c0.0689,-0.07809 0.10335,-0.18833 0.10335,-0.33073v-6.31141c0,-0.1424 -0.03217,-0.25034 -0.0965,-0.32384c-0.06433,-0.0735 -0.17917,-0.13551 -0.34451,-0.18604v-0.19293h6.97286c0.14699,0 0.25724,-0.03215 0.33073,-0.09646c0.07809,-0.06431 0.14011,-0.17914 0.18604,-0.34451h0.18603v2.28754h-0.18603c-0.04593,-0.16996 -0.10795,-0.28709 -0.18604,-0.3514c-0.07349,-0.06431 -0.18374,-0.09646 -0.33073,-0.09646h-4.68532v1.69499h2.90766c0.14239,0 0.25034,-0.03215 0.32383,-0.09646c0.07809,-0.06431 0.1424,-0.17914 0.19293,-0.34451h0.18603v2.23242h-0.18603c-0.04593,-0.16536 -0.10795,-0.2802 -0.18604,-0.34451c-0.07349,-0.0689 -0.18373,-0.10335 -0.33072,-0.10335zM259.91187,178.16376v5.6155c0,0.1424 0.03217,0.25264 0.0965,0.33073c0.06433,0.0735 0.17917,0.13551 0.34451,0.18604v0.18604h-2.72851v-0.19293c0.16077,-0.04134 0.27331,-0.10106 0.33762,-0.17915c0.0689,-0.07809 0.10335,-0.18833 0.10335,-0.33073v-5.6155h-2.27376c-0.14699,0 -0.25953,0.03445 -0.33762,0.10335c-0.07349,0.06431 -0.13321,0.17914 -0.17914,0.34451h-0.18604v-2.28754h0.19293c0.04133,0.16077 0.09875,0.27561 0.17225,0.34451c0.07809,0.06431 0.19063,0.09646 0.33762,0.09646h6.39409c0.14699,0 0.25724,-0.03215 0.33073,-0.09646c0.07809,-0.06431 0.1401,-0.17914 0.18604,-0.34451h0.18603v2.28754h-0.18603c-0.04593,-0.16536 -0.10795,-0.2802 -0.18604,-0.34451c-0.07349,-0.0689 -0.18374,-0.10335 -0.33073,-0.10335zM267.93893,178.16376v5.6155c0,0.1424 0.03217,0.25264 0.0965,0.33073c0.06433,0.0735 0.17917,0.13551 0.3445,0.18604v0.18604h-2.72851v-0.19293c0.16077,-0.04134 0.27331,-0.10106 0.33762,-0.17915c0.0689,-0.07809 0.10335,-0.18833 0.10335,-0.33073v-5.6155h-2.27376c-0.14699,0 -0.25953,0.03445 -0.33762,0.10335c-0.07349,0.06431 -0.13321,0.17914 -0.17914,0.34451h-0.18604v-2.28754h0.19293c0.04133,0.16077 0.09875,0.27561 0.17225,0.34451c0.07809,0.06431 0.19063,0.09646 0.33762,0.09646h6.39409c0.14699,0 0.25724,-0.03215 0.33073,-0.09646c0.07809,-0.06431 0.14011,-0.17914 0.18604,-0.34451h0.18603v2.28754h-0.18603c-0.04593,-0.16536 -0.10795,-0.2802 -0.18604,-0.34451c-0.07349,-0.0689 -0.18374,-0.10335 -0.33073,-0.10335zM273.99541,177.46785v6.31141c0,0.1424 0.03217,0.25264 0.0965,0.33073c0.06433,0.0735 0.17917,0.13551 0.34451,0.18604v0.18604h-2.72851v-0.19293c0.16077,-0.04134 0.27331,-0.10106 0.33762,-0.17915c0.0689,-0.07809 0.10335,-0.18833 0.10335,-0.33073v-6.31141c0,-0.1424 -0.03217,-0.25034 -0.0965,-0.32384c-0.06433,-0.0735 -0.17917,-0.13551 -0.34451,-0.18604v-0.19293h2.72851v0.19293c-0.16537,0.04593 -0.2802,0.10795 -0.34451,0.18604c-0.06433,0.0735 -0.0965,0.18144 -0.0965,0.32384zM277.91592,179.39711v4.38216c0,0.1424 0.03217,0.25264 0.0965,0.33073c0.06891,0.07809 0.18374,0.1401 0.34451,0.18604v0.18604h-2.56315v-0.19293c0.16077,-0.04134 0.27331,-0.10106 0.33762,-0.17915c0.06891,-0.07809 0.10336,-0.18833 0.10336,-0.33073v-6.31141c0,-0.1424 -0.03217,-0.25034 -0.0965,-0.32384c-0.06433,-0.0735 -0.17917,-0.13551 -0.34451,-0.18604v-0.19293h2.96278v0.19293c-0.20211,0.05053 -0.30316,0.1401 -0.30316,0.26872c0,0.11024 0.07349,0.23886 0.22048,0.38585l4.13411,4.10655v-4.25124c0,-0.1424 -0.03217,-0.25034 -0.0965,-0.32384c-0.06433,-0.07809 -0.17917,-0.1401 -0.34451,-0.18604v-0.19293h2.56315v0.19293c-0.16537,0.04593 -0.2802,0.10795 -0.34451,0.18604c-0.06433,0.0735 -0.0965,0.18144 -0.0965,0.32384v6.31141c0,0.1424 0.03217,0.25264 0.0965,0.33073c0.06433,0.0735 0.17917,0.13551 0.34451,0.18604v0.18604h-2.76296v-0.18604c0.20211,-0.04134 0.30316,-0.12632 0.30316,-0.25494c0,-0.06431 -0.02757,-0.13091 -0.0827,-0.19982c-0.05513,-0.0689 -0.18145,-0.20441 -0.37896,-0.40652zM293.24659,181.5055h-1.757c-0.14699,0 -0.25953,0.03215 -0.33762,0.09646c-0.07349,0.06431 -0.13321,0.17914 -0.17914,0.34451h-0.18604v-2.03949h0.18604c0.04593,0.16077 0.10565,0.27331 0.17914,0.33762c0.07809,0.06431 0.19063,0.09646 0.33762,0.09646h3.67247v0.19982c-0.16077,0.04593 -0.2756,0.11254 -0.34451,0.19982c-0.06433,0.08728 -0.0965,0.2113 -0.0965,0.37207v1.62608c0,0.1424 0.03217,0.25264 0.0965,0.33073c0.06891,0.07809 0.18374,0.1401 0.34451,0.18604v0.15847c-1.48828,0.82223 -2.97197,1.23334 -4.45106,1.23334c-1.27698,0 -2.31051,-0.30087 -3.10058,-0.90261c-0.42719,-0.33073 -0.7717,-0.73955 -1.03353,-1.22645c-0.30776,-0.57878 -0.46164,-1.1966 -0.46164,-1.85346c0,-0.9095 0.2802,-1.71795 0.8406,-2.42534c0.87276,-1.09324 2.16352,-1.63987 3.87229,-1.63987c0.74873,0 1.60311,0.16536 2.56314,0.49609c0.38126,0.12862 0.60404,0.19293 0.66835,0.19293c0.07809,0 0.16996,-0.03675 0.27561,-0.11024l0.16536,0.08957l-0.91639,1.94303l-0.16537,-0.08268c0,-0.01837 0,-0.03215 0,-0.04134c0,-0.16996 -0.16996,-0.34451 -0.50987,-0.52365c-0.6293,-0.33532 -1.30454,-0.50298 -2.02571,-0.50298c-0.83142,0 -1.51355,0.22738 -2.04639,0.68213c-0.5604,0.47772 -0.8406,1.1208 -0.8406,1.92925c0,0.75792 0.25494,1.36426 0.76481,1.81901c0.52365,0.46394 1.25861,0.69591 2.20486,0.69591c0.90032,0 1.66054,-0.16766 2.28065,-0.50298zM303.86436,177.46096l-0.93017,1.79834l-0.16537,-0.08957c0,-0.15158 -0.04823,-0.27101 -0.14469,-0.35829c-0.26183,-0.23427 -0.64768,-0.42719 -1.15755,-0.57878c-0.50987,-0.15158 -1.02664,-0.22738 -1.5503,-0.22738c-0.44556,0 -0.8406,0.06201 -1.18511,0.18604c-0.49609,0.17915 -0.74414,0.43868 -0.74414,0.77859c0,0.22508 0.11943,0.38585 0.35829,0.48231c0.23886,0.09187 0.7005,0.16536 1.38493,0.22049l1.08865,0.08268c0.95085,0.0735 1.67432,0.25723 2.17041,0.55122c0.27561,0.16536 0.50298,0.38585 0.68213,0.66146c0.22507,0.34451 0.33761,0.73266 0.33761,1.16444c0,0.78548 -0.35369,1.4056 -1.06108,1.86035c-0.67524,0.43638 -1.58934,0.65457 -2.7423,0.65457c-1.16214,0 -2.28524,-0.24575 -3.3693,-0.73725c-0.07349,-0.03215 -0.1355,-0.04823 -0.18603,-0.04823c-0.09187,0 -0.17685,0.05512 -0.25494,0.16537l-0.17226,-0.0689l0.79238,-1.88791l0.17225,0.0689c0,0.02756 0,0.04593 0,0.05512c0,0.11943 0.04593,0.22049 0.1378,0.30317c0.22967,0.20211 0.62701,0.37896 1.19201,0.53054c0.56499,0.14699 1.1231,0.22049 1.67431,0.22049c0.48691,0 0.92329,-0.06431 1.30914,-0.19293c0.47772,-0.15618 0.71658,-0.40882 0.71658,-0.75792c0,-0.2802 -0.16537,-0.47542 -0.4961,-0.58567c-0.22049,-0.0735 -0.61782,-0.13551 -1.192,-0.18604l-1.08176,-0.08957c-0.58337,-0.04593 -1.02893,-0.10565 -1.33669,-0.17915c-0.30777,-0.0735 -0.57649,-0.18144 -0.80616,-0.32384c-0.29398,-0.18374 -0.52365,-0.43408 -0.68901,-0.75103c-0.16537,-0.31695 -0.24805,-0.66375 -0.24805,-1.04042c0,-0.8452 0.36288,-1.49058 1.08865,-1.93614c0.66145,-0.40422 1.47909,-0.60634 2.4529,-0.60634c0.52825,0 1.01975,0.05971 1.4745,0.17915c0.45935,0.11484 1.00597,0.31925 1.63987,0.61323c0.18833,0.08728 0.31925,0.13091 0.39274,0.13091c0.07349,0 0.16766,-0.05053 0.2825,-0.15158z" fill="#ffffff" stroke="none"/></g></g></svg>