<svg version="1.1" xmlns="http://www.w3.org/2000/svg" xmlns:xlink="http://www.w3.org/1999/xlink" width="87.33758" height="20.03105" viewBox="0,0,87.33758,20.03105"><g transform="translate(-196.33121,-169.98448)"><g data-paper-data="{&quot;isPaintingLayer&quot;:true}" fill="#ffad00" fill-rule="nonzero" stroke="none" stroke-width="0.65849" stroke-linecap="butt" stroke-linejoin="miter" stroke-miterlimit="10" stroke-dasharray="" stroke-dashoffset="0" style="mix-blend-mode: normal"><path d="M205.33184,188.14599c0,0.18696 -0.10683,0.26709 -0.26708,0.26709h-8.27951c-0.18696,0 -0.26708,-0.0801 -0.26708,-0.26709v-1.60248c0,-0.16025 0.08013,-0.26708 0.26708,-0.26708h2.67081c0.16025,0 0.26708,-0.0801 0.26708,-0.26708v-9.64163c0,-0.18695 -0.08012,-0.29379 -0.24037,-0.29379c-0.08012,0 -0.16025,0.0534 -0.21366,0.10684l-1.28199,1.30869c-0.08012,0.0801 -0.13354,0.10684 -0.18696,0.10684c-0.05342,0 -0.13354,-0.0267 -0.18696,-0.10684l-1.17516,-1.14845c-0.08012,-0.0534 -0.10683,-0.13354 -0.10683,-0.18695c0,-0.0534 0.02671,-0.10683 0.10683,-0.18696l4.3,-4.3l0.18696,-0.0801h0.93478c0.16025,0 0.26708,0.10684 0.26708,0.26708v14.1553c0,0.18695 0.08012,0.26708 0.26708,0.26708h2.67081c0.16025,0 0.26708,0.10683 0.26708,0.26708z"/><path d="M239.62709,178.50437c0,0.18696 0.16025,0.3205 0.48074,0.42733c0.3205,0.10683 0.72112,0.29379 1.25529,0.58758c0.96149,0.56087 1.6559,1.20186 2.10994,1.94969c0.45403,0.74783 0.69441,1.6559 0.69441,2.67081c0,1.84286 -0.85466,3.20497 -2.53727,4.05963c-0.26708,0.16025 -0.53417,0.24037 -0.77454,0.29379c-0.26708,0.0534 -0.48074,0.0801 -0.64099,0.10683c-0.18696,0.0267 -0.3205,0.0534 -0.42733,0.0801c-0.10683,0.0534 -0.16025,0.13354 -0.16025,0.24037v0.82795c0,0.18696 -0.10683,0.26708 -0.26708,0.26708h-0.6677c-0.18696,0 -0.26708,-0.0801 -0.26708,-0.26708v-0.80124c0,-0.16025 -0.08013,-0.24038 -0.18696,-0.26708c-0.6677,0 -1.25528,-0.0801 -1.73603,-0.21367c-0.48075,-0.13354 -0.88137,-0.3205 -1.17516,-0.56087c-0.53416,-0.40062 -0.90807,-0.77453 -1.14845,-1.12174c-0.26708,-0.3472 -0.37391,-0.64099 -0.37391,-0.85466c0,-0.0534 0.05342,-0.13354 0.16025,-0.18695l1.68261,-0.85466c0.02671,0 0.08012,-0.0267 0.13354,-0.0267c0.05342,0 0.13354,0.0534 0.24037,0.16025c0.3205,0.42733 0.64099,0.80124 0.90807,1.09503c0.26708,0.29379 0.64099,0.42733 1.12174,0.42733c0.13354,0 0.24037,0 0.29379,-0.0267c0.05342,-0.0267 0.08013,-0.10683 0.08013,-0.24037v-5.18137c-0.05342,-0.16025 -0.21366,-0.3205 -0.50745,-0.42733c-0.3205,-0.10684 -0.69441,-0.29379 -1.14845,-0.56087c-0.85466,-0.42733 -1.52236,-1.01491 -1.9764,-1.73603c-0.45404,-0.72112 -0.6677,-1.54907 -0.6677,-2.51056c0,-1.86957 0.77453,-3.20497 2.35031,-4.03292c0.24037,-0.10684 0.48075,-0.21367 0.72112,-0.26709c0.24037,-0.0534 0.45404,-0.0801 0.64099,-0.10683c0.16025,-0.0267 0.3205,-0.0534 0.42733,-0.10683c0.10683,-0.0534 0.16025,-0.13354 0.16025,-0.24037v-0.85466c0,-0.16025 0.08012,-0.26708 0.26708,-0.26708h0.6677c0.16025,0 0.26708,0.10683 0.26708,0.26708v0.82795c0,0.16025 0.05342,0.26708 0.16025,0.26708c0.10683,0.0267 0.29379,0.0534 0.58758,0.10683c0.56087,0.13354 1.06832,0.29379 1.49565,0.50746c0.42733,0.21366 0.77453,0.45403 1.06832,0.69441c0.26708,0.24037 0.48075,0.48074 0.641,0.72112c0.13354,0.26708 0.21366,0.48074 0.21366,0.64099c0,0.10683 -0.0534,0.18696 -0.13354,0.21366l-1.68261,0.85466c-0.0801,0.0534 -0.13354,0.0534 -0.16025,0.0534c-0.10683,0 -0.21366,-0.0801 -0.32049,-0.24037c-0.10684,-0.16025 -0.29379,-0.40062 -0.50746,-0.72112c-0.16025,-0.21367 -0.3472,-0.37391 -0.56087,-0.48075c-0.21366,-0.10683 -0.40062,-0.16025 -0.56087,-0.16025c-0.16025,0 -0.24037,0.10684 -0.24037,0.26709zM238.42523,177.64971v-3.76584c0,-0.16025 -0.08013,-0.26708 -0.18696,-0.26708c-0.21366,0 -0.40062,0.0801 -0.61429,0.18696c-0.21367,0.10683 -0.37391,0.26708 -0.53416,0.48074c-0.16025,0.21367 -0.29379,0.45404 -0.40062,0.72112c-0.10683,0.26708 -0.16025,0.56087 -0.16025,0.85466c0,0.26708 0.05342,0.53416 0.18696,0.80124c0.13354,0.26708 0.29379,0.48075 0.48075,0.6677c0.16025,0.18696 0.3472,0.34721 0.56087,0.45404c0.18696,0.10683 0.34721,0.16025 0.48075,0.16025c0.10683,0 0.18696,-0.0801 0.18696,-0.29379zM239.62709,186.22301c0,0.18696 0.08012,0.26708 0.24037,0.26708c0.21367,0 0.45404,-0.0534 0.6677,-0.18695c0.21367,-0.10684 0.42733,-0.29379 0.61429,-0.50746c0.16025,-0.21366 0.3205,-0.45404 0.42733,-0.74783c0.10683,-0.26708 0.18696,-0.58757 0.18696,-0.90807c0,-0.3205 -0.0801,-0.64099 -0.24038,-0.93478c-0.16024,-0.29379 -0.32049,-0.56087 -0.53416,-0.77454c-0.21366,-0.21366 -0.42733,-0.40062 -0.64099,-0.53416c-0.21367,-0.13354 -0.40062,-0.21367 -0.53416,-0.21367c-0.13355,0 -0.18696,0.10684 -0.18696,0.29379zM257.44141,188.14599c0,0.18696 -0.10684,0.26709 -0.26708,0.26709h-8.27951c-0.18696,0 -0.26709,-0.0801 -0.26709,-0.26709v-1.60248c0,-0.16025 0.0801,-0.26708 0.26709,-0.26708h2.67081c0.16024,0 0.26708,-0.0801 0.26708,-0.26708v-9.64163c0,-0.18695 -0.0801,-0.29379 -0.24038,-0.29379c-0.0801,0 -0.16025,0.0534 -0.21366,0.10684l-1.28199,1.30869c-0.0801,0.0801 -0.13354,0.10684 -0.18696,0.10684c-0.0534,0 -0.13354,-0.0267 -0.18695,-0.10684l-1.17516,-1.14845c-0.0801,-0.0534 -0.10683,-0.13354 -0.10683,-0.18695c0,-0.0534 0.0267,-0.10683 0.10683,-0.18696l4.3,-4.3l0.18696,-0.0801h0.93478c0.16025,0 0.26709,0.10684 0.26709,0.26708v14.1553c0,0.18695 0.0801,0.26708 0.26708,0.26708h2.67081c0.16024,0 0.26708,0.10683 0.26708,0.26708zM269.62031,184.13978c0,0.69441 -0.13354,1.3087 -0.34721,1.86957c-0.24037,0.56087 -0.56087,1.04161 -0.9882,1.44223c-0.42733,0.40063 -0.90807,0.69441 -1.49565,0.90808c-0.58758,0.21366 -1.25528,0.3205 -1.9764,0.3205h-0.80125c-0.74782,0 -1.38882,-0.10684 -1.97639,-0.3205c-0.58758,-0.21367 -1.09504,-0.50745 -1.52237,-0.90808c-0.42733,-0.40062 -0.74782,-0.88136 -0.96149,-1.44223c-0.24037,-0.56087 -0.3472,-1.17516 -0.3472,-1.86957v-8.27951c0,-0.6677 0.10683,-1.28199 0.3472,-1.84286c0.21367,-0.56087 0.53416,-1.04162 0.96149,-1.44224c0.42733,-0.40062 0.93479,-0.72112 1.52237,-0.93478c0.58757,-0.21367 1.22857,-0.3205 1.97639,-0.3205h0.80125c0.72112,0 1.38882,0.10683 1.9764,0.3205c0.58758,0.21366 1.06832,0.53416 1.49565,0.93478c0.42733,0.40062 0.74783,0.88137 0.9882,1.44224c0.21367,0.56087 0.34721,1.17516 0.34721,1.84286zM267.21658,184.13978v-8.27951c0,-0.6677 -0.24038,-1.22857 -0.69441,-1.70932c-0.48075,-0.45404 -1.04162,-0.69441 -1.70932,-0.69441h-0.80125c-0.69441,0 -1.25528,0.24037 -1.70931,0.69441c-0.48075,0.48075 -0.69441,1.04162 -0.69441,1.70932v8.27951c0,0.69441 0.21366,1.25528 0.69441,1.70932c0.45403,0.48074 1.0149,0.69441 1.70931,0.69441h0.80125c0.6677,0 1.22857,-0.21367 1.70932,-0.69441c0.45403,-0.45404 0.69441,-1.01491 0.69441,-1.70932zM283.66879,184.13978c0,0.69441 -0.13354,1.3087 -0.3472,1.86957c-0.24037,0.56087 -0.56087,1.04161 -0.9882,1.44223c-0.42733,0.40063 -0.90808,0.69441 -1.49565,0.90808c-0.58758,0.21366 -1.25528,0.3205 -1.9764,0.3205h-0.80125c-0.74782,0 -1.38882,-0.10684 -1.9764,-0.3205c-0.58757,-0.21367 -1.09503,-0.50745 -1.52236,-0.90808c-0.42733,-0.40062 -0.74782,-0.88136 -0.96149,-1.44223c-0.24037,-0.56087 -0.3472,-1.17516 -0.3472,-1.86957v-8.27951c0,-0.6677 0.10683,-1.28199 0.3472,-1.84286c0.21367,-0.56087 0.53416,-1.04162 0.96149,-1.44224c0.42733,-0.40062 0.93479,-0.72112 1.52236,-0.93478c0.58758,-0.21367 1.22858,-0.3205 1.9764,-0.3205h0.80125c0.72112,0 1.38882,0.10683 1.9764,0.3205c0.58757,0.21366 1.06832,0.53416 1.49565,0.93478c0.42733,0.40062 0.74783,0.88137 0.9882,1.44224c0.21366,0.56087 0.3472,1.17516 0.3472,1.84286zM281.26507,184.13978v-8.27951c0,-0.6677 -0.24038,-1.22857 -0.69442,-1.70932c-0.48074,-0.45404 -1.04161,-0.69441 -1.70931,-0.69441h-0.80125c-0.69441,0 -1.25528,0.24037 -1.70931,0.69441c-0.48075,0.48075 -0.69442,1.04162 -0.69442,1.70932v8.27951c0,0.69441 0.21367,1.25528 0.69442,1.70932c0.45403,0.48074 1.0149,0.69441 1.70931,0.69441h0.80125c0.6677,0 1.22857,-0.21367 1.70931,-0.69441c0.45404,-0.45404 0.69442,-1.01491 0.69442,-1.70932z"/></g></g></svg>