<svg version="1.1" xmlns="http://www.w3.org/2000/svg" xmlns:xlink="http://www.w3.org/1999/xlink" width="11.80005" height="9.00014" viewBox="0,0,11.80005,9.00014"><g transform="translate(-222.0876,-170.95468)"><g data-paper-data="{&quot;isPaintingLayer&quot;:true}" fill="#000000" fill-rule="evenodd" stroke="#000000" stroke-width="0" stroke-linecap="round" stroke-linejoin="miter" stroke-miterlimit="10" stroke-dasharray="" stroke-dashoffset="0" style="mix-blend-mode: normal"><path d="M233.68762,179.95476h-1.4c-0.106,0 -0.17,-0.042 -0.191,-0.126c-0.00611,-0.02418 -0.00914,-0.04905 -0.009,-0.074v-5.4c0,-0.24 -0.043,-0.47 -0.13,-0.69c-0.087,-0.22 -0.207,-0.413 -0.36,-0.58c-0.14244,-0.15684 -0.31263,-0.286 -0.502,-0.381c-0.00598,-0.00304 -0.01198,-0.00603 -0.018,-0.009c-0.13288,-0.06526 -0.27534,-0.10881 -0.422,-0.129c-0.05569,-0.00736 -0.11182,-0.01104 -0.168,-0.011c-0.17526,0.00083 -0.34836,0.03866 -0.508,0.111c-0.02773,0.01217 -0.05507,0.02517 -0.082,0.039c-0.193,0.1 -0.363,0.233 -0.51,0.4c-0.14887,0.17015 -0.27032,0.36246 -0.36,0.57c-0.093,0.213 -0.14,0.44 -0.14,0.68v5.4c0.00034,0.02667 -0.00302,0.05326 -0.01,0.079c-0.023,0.081 -0.086,0.121 -0.19,0.121h-1.4c-0.02667,0.00034 -0.05326,-0.00302 -0.079,-0.01c-0.059,-0.017 -0.097,-0.055 -0.112,-0.116c-0.00611,-0.02418 -0.00914,-0.04905 -0.009,-0.074v-5.4c0,-0.24 -0.043,-0.47 -0.13,-0.69c-0.087,-0.22 -0.207,-0.413 -0.36,-0.58c-0.14017,-0.15446 -0.30721,-0.28219 -0.493,-0.377c-0.00896,-0.00441 -0.01796,-0.00875 -0.027,-0.013c-0.13288,-0.06526 -0.27534,-0.10881 -0.422,-0.129c-0.05569,-0.00736 -0.11182,-0.01104 -0.168,-0.011c-0.17526,0.00083 -0.34836,0.03866 -0.508,0.111c-0.02773,0.01217 -0.05507,0.02517 -0.082,0.039c-0.19174,0.09878 -0.36442,0.23084 -0.51,0.39c-0.11749,0.12921 -0.21674,0.27388 -0.295,0.43c-0.02326,0.04591 -0.04494,0.09261 -0.065,0.14c-0.093,0.22 -0.14,0.45 -0.14,0.69v5.4c0.00034,0.02667 -0.00302,0.05326 -0.01,0.079c-0.017,0.059 -0.055,0.097 -0.116,0.113c-0.02423,0.00578 -0.04909,0.00847 -0.074,0.008h-1.4c-0.02667,0.00034 -0.05326,-0.00302 -0.079,-0.01c-0.059,-0.017 -0.097,-0.055 -0.112,-0.116c-0.00611,-0.02418 -0.00914,-0.04905 -0.009,-0.074v-8.6c-0.00034,-0.02667 0.00303,-0.05326 0.01,-0.079c0.023,-0.081 0.086,-0.121 0.19,-0.121h1.2c0.02667,-0.00034 0.05326,0.00303 0.079,0.01c0.081,0.023 0.121,0.086 0.121,0.19v0.26c-0.00016,0.02509 0.00151,0.05015 0.005,0.075c0.014,0.097 0.059,0.145 0.135,0.145c0.02235,-0.00041 0.04454,-0.00376 0.066,-0.01c0.043,-0.011 0.093,-0.033 0.149,-0.066c0.01862,-0.01087 0.03695,-0.02221 0.055,-0.034c0.097,-0.063 0.21,-0.128 0.337,-0.196c0.02094,-0.01145 0.04194,-0.02277 0.063,-0.034c0.153,-0.08 0.33,-0.157 0.53,-0.23c0.2,-0.073 0.42,-0.11 0.66,-0.11c0.27161,-0.002 0.5423,0.03196 0.805,0.101c0.27722,0.07376 0.53948,0.19523 0.775,0.359c0.05351,0.03456 0.10652,0.0699 0.159,0.106c0.149,0.103 0.266,0.194 0.351,0.274c0.01965,0.01838 0.03965,0.03639 0.06,0.054c0.06,0.053 0.107,0.086 0.141,0.099c0.00915,0.00409 0.01898,0.00646 0.029,0.007c0.053,0 0.137,-0.057 0.25,-0.17c0.0393,-0.03885 0.08034,-0.07589 0.123,-0.111c0.102,-0.085 0.231,-0.178 0.387,-0.279c0.424,-0.274 0.953,-0.42 1.587,-0.438c0.04432,-0.00128 0.08866,-0.00196 0.133,-0.002c0.493,0 0.95,0.083 1.37,0.25c0.42,0.167 0.78,0.4 1.08,0.7c0.28548,0.28757 0.51236,0.62787 0.668,1.002c0.01097,0.02588 0.02164,0.05187 0.032,0.078c0.13737,0.35041 0.2187,0.72028 0.241,1.096c0.00598,0.09121 0.00897,0.18259 0.009,0.274v5.4c0.00034,0.02667 -0.00302,0.05326 -0.01,0.079c-0.017,0.059 -0.055,0.097 -0.116,0.113c-0.02423,0.00578 -0.04909,0.00847 -0.074,0.008z"/></g></g></svg>