<svg version="1.1" xmlns="http://www.w3.org/2000/svg" xmlns:xlink="http://www.w3.org/1999/xlink" width="178.89804" height="27.11675" viewBox="0,0,178.89804,27.11675"><g transform="translate(-150.54331,-166.44162)"><g data-paper-data="{&quot;isPaintingLayer&quot;:true}" fill-rule="nonzero" stroke-linecap="butt" stroke-linejoin="miter" stroke-miterlimit="10" stroke-dasharray="" stroke-dashoffset="0" style="mix-blend-mode: normal"><path d="M151.21193,180.23442l11.59659,-13.2928h154.90881l11.07073,12.83554l-10.89246,13.28121h-155.09604z" fill="#000000" stroke="#80f7ff" stroke-width="1"/><path d="M178.15592,184.697c0.08263,0.04131 0.12395,0.10328 0.12395,0.1446c0,0.08263 -0.08263,0.22723 -0.20658,0.47512c-0.12394,0.24788 -0.35117,0.49578 -0.66103,0.78498c-0.61972,0.57841 -1.48732,0.8676 -2.58216,0.8676h-0.61972c-0.57841,0 -1.07418,-0.08263 -1.52864,-0.24789c-0.45445,-0.16526 -0.84695,-0.39249 -1.17747,-0.70235c-0.33051,-0.30986 -0.5784,-0.68169 -0.74365,-1.11549c-0.18591,-0.43381 -0.26854,-0.90893 -0.26854,-1.44601v-6.40375c0,-0.51643 0.08263,-0.99155 0.26854,-1.42535c0.16526,-0.4338 0.41314,-0.80563 0.74365,-1.11549c0.33052,-0.30986 0.72301,-0.55775 1.17747,-0.72301c0.45446,-0.16526 0.95023,-0.24788 1.52864,-0.24788h0.61972c0.49578,0 0.97089,0.08262 1.38403,0.22723c0.41314,0.1446 0.78498,0.30986 1.09484,0.51643c0.2892,0.20657 0.53709,0.4338 0.70234,0.68169c0.16526,0.24788 0.24788,0.45446 0.24788,0.66103c0,0.08263 -0.04131,0.12395 -0.12394,0.16526l-1.32207,0.66103c-0.04131,0.02065 -0.06197,0.02065 -0.10328,0.02065c-0.06197,0 -0.12394,-0.04131 -0.16526,-0.12394c-0.24788,-0.30986 -0.47512,-0.5784 -0.70235,-0.80563c-0.24788,-0.22723 -0.57841,-0.35117 -1.0122,-0.35117h-0.61972c-0.53709,0 -0.97089,0.18591 -1.32207,0.53709c-0.37183,0.37183 -0.53708,0.80563 -0.53708,1.32206v6.40374c0,0.53708 0.16526,0.9709 0.53708,1.32207c0.35118,0.37183 0.78498,0.53709 1.32207,0.53709h0.61972c0.24788,0 0.45446,-0.04132 0.66103,-0.12395c0.20657,-0.08263 0.35118,-0.18591 0.45446,-0.30986c0.22723,-0.26854 0.39249,-0.47511 0.51644,-0.64037c0.10328,-0.16526 0.18591,-0.24789 0.26854,-0.24789c0.02065,0 0.06197,0.02068 0.12394,0.04131zM182.26671,180.25569c0,0.33052 -0.12395,0.59906 -0.33052,0.80563c-0.22723,0.22723 -0.49578,0.33051 -0.80563,0.33051c-0.33052,0 -0.59906,-0.10328 -0.80563,-0.33051c-0.22723,-0.20657 -0.33052,-0.47511 -0.33052,-0.80563c0,-0.33051 0.10329,-0.59906 0.33052,-0.80563c0.20657,-0.20657 0.47511,-0.33051 0.80563,-0.33051c0.30986,0 0.57841,0.12394 0.80563,0.33051c0.20657,0.22723 0.33052,0.49577 0.33052,0.80563zM182.26671,185.83315c0,0.33052 -0.12395,0.59906 -0.33052,0.80563c-0.20657,0.22723 -0.47512,0.33052 -0.80563,0.33052c-0.33052,0 -0.61972,-0.10329 -0.82629,-0.30986c-0.20657,-0.20657 -0.30986,-0.49577 -0.30986,-0.82629c0,-0.30986 0.10329,-0.57841 0.33052,-0.80564c0.20657,-0.20657 0.47511,-0.33051 0.80563,-0.33051c0.30986,0 0.57841,0.12394 0.80563,0.33051c0.20657,0.22723 0.33052,0.49578 0.33052,0.80564z" fill="#ffae00" stroke="none" stroke-width="9.52081"/><path d="M163.07937,182.01079c0,0 0,-0.70135 0,-1.56652v0c0,-0.86516 0,-1.56652 0,-1.56652h3.13303c0,0 0,0.70135 0,1.56652v0c0,0.86516 0,1.56652 0,1.56652z" fill="#ffae00" stroke="none" stroke-width="2"/></g></g></svg>