<svg version="1.1" xmlns="http://www.w3.org/2000/svg" xmlns:xlink="http://www.w3.org/1999/xlink" width="7.52016" height="13.00031" viewBox="0,0,7.52016,13.00031"><g transform="translate(-82.86317,-166.80439)"><g data-paper-data="{&quot;isPaintingLayer&quot;:true}" fill="#000000" fill-rule="evenodd" stroke="#000000" stroke-width="0" stroke-linecap="round" stroke-linejoin="miter" stroke-miterlimit="10" stroke-dasharray="" stroke-dashoffset="0" style="mix-blend-mode: normal"><path d="M86.78318,179.80455h-0.6c-0.21383,0.00068 -0.42752,-0.011 -0.64,-0.035c-0.228,-0.027 -0.442,-0.068 -0.64,-0.125c-0.1321,-0.03726 -0.26198,-0.082 -0.389,-0.134c-0.199,-0.082 -0.369,-0.178 -0.511,-0.286c-0.11391,-0.09016 -0.22496,-0.18388 -0.333,-0.281c-0.223,-0.2 -0.399,-0.39 -0.527,-0.569c-0.04329,-0.06024 -0.08399,-0.1223 -0.122,-0.186c-0.075,-0.125 -0.124,-0.237 -0.145,-0.334c-0.00831,-0.03609 -0.01267,-0.07297 -0.013,-0.11c0,-0.052 0.037,-0.097 0.112,-0.136c0.00265,-0.00136 0.00532,-0.00269 0.008,-0.004l1.26,-0.64c0.0125,-0.00604 0.02517,-0.01171 0.038,-0.017c0.035,-0.015 0.062,-0.023 0.082,-0.023c0.01212,-0.0002 0.02422,0.00115 0.036,0.004c0.02167,0.00529 0.04078,0.01803 0.054,0.036c0.00814,0.0109 0.01614,0.0219 0.024,0.033c0.007,0.01 0.014,0.02 0.022,0.031c0.00808,0.01195 0.01608,0.02395 0.024,0.036l0.33,0.44c0.1,0.133 0.21,0.253 0.33,0.36c0.11506,0.1018 0.24705,0.18269 0.39,0.239c0.00996,0.00377 0.01996,0.00744 0.03,0.011c0.07845,0.02897 0.15948,0.0504 0.242,0.064c0.078,0.013 0.16,0.021 0.248,0.024c0.02999,0.00122 0.05999,0.00189 0.09,0.002h0.6c0.47453,0.00688 0.93148,-0.17936 1.266,-0.516c0.00134,-0.00133 0.00267,-0.00266 0.004,-0.004c0.33929,-0.32479 0.53081,-0.77432 0.53,-1.244c0.0001,-0.012 0.0001,-0.024 0,-0.036v-0.7c0,-0.507 -0.177,-0.933 -0.53,-1.28c-0.33336,-0.3376 -0.78958,-0.52528 -1.264,-0.52c-0.002,0 -0.004,0 -0.006,0h-1.6c-0.02667,0.00034 -0.05326,-0.00302 -0.079,-0.01c-0.081,-0.023 -0.121,-0.086 -0.121,-0.19v-1.2c-0.00034,-0.02667 0.00302,-0.05326 0.01,-0.079c0.017,-0.059 0.056,-0.097 0.116,-0.112c0.02419,-0.00612 0.04905,-0.00914 0.074,-0.009h1.6c0.47453,0.00688 0.93148,-0.17936 1.266,-0.516c0.00134,-0.00133 0.00267,-0.00266 0.004,-0.004c0.33929,-0.32479 0.53081,-0.77432 0.53,-1.244c0.0001,-0.012 0.0001,-0.024 0,-0.036v-0.3c0.00303,-0.26157 -0.05124,-0.52064 -0.159,-0.759c-0.09079,-0.19488 -0.21653,-0.37146 -0.371,-0.521c-0.33336,-0.3376 -0.78958,-0.52528 -1.264,-0.52c-0.002,0 -0.004,0 -0.006,0h-0.6c-0.08689,-0.00027 -0.17372,0.00474 -0.26,0.015c-0.118,0.014 -0.225,0.039 -0.32,0.075c-0.10607,0.03914 -0.20737,0.09013 -0.302,0.152c-0.04093,0.02713 -0.08033,0.05651 -0.118,0.088c-0.12,0.1 -0.23,0.22 -0.33,0.36c-0.07703,0.10763 -0.15672,0.21333 -0.239,0.317c-0.03004,0.0379 -0.06037,0.07557 -0.091,0.113c-0.067,0.08 -0.127,0.12 -0.18,0.12c-0.032,0 -0.06,-0.004 -0.084,-0.013c-0.00546,-0.00204 -0.0108,-0.00438 -0.016,-0.007l-1.26,-0.64c-0.069,-0.034 -0.108,-0.073 -0.118,-0.118c-0.00145,-0.00724 -0.00212,-0.01462 -0.002,-0.022c0.0011,-0.06401 0.01224,-0.12744 0.033,-0.188c0.036,-0.112 0.103,-0.236 0.199,-0.373c0.01884,-0.02669 0.03818,-0.05303 0.058,-0.079c0.07789,-0.10087 0.16205,-0.19672 0.252,-0.287c0.084,-0.085 0.177,-0.172 0.28,-0.261c0.10981,-0.09416 0.22253,-0.18487 0.338,-0.272c0.187,-0.143 0.423,-0.263 0.71,-0.361c0.06283,-0.02124 0.12619,-0.04092 0.19,-0.059c0.22063,-0.06193 0.4461,-0.10508 0.674,-0.129c0.19462,-0.02099 0.39025,-0.03134 0.586,-0.031h0.6c0.3717,-0.00309 0.7424,0.03888 1.104,0.125c0.57724,0.13457 1.10562,0.42716 1.526,0.845c0.44971,0.45441 0.75426,1.03219 0.875,1.66c0.06505,0.31919 0.09689,0.64425 0.095,0.97v0.3c-0.0023,0.25104 -0.04832,0.49976 -0.136,0.735c-0.069,0.192 -0.165,0.388 -0.287,0.588c-0.06175,0.10154 -0.12747,0.20062 -0.197,0.297c-0.132,0.173 -0.261,0.315 -0.385,0.426c-0.037,0.03293 -0.07537,0.06429 -0.115,0.094c-0.03008,0.02238 -0.05943,0.04573 -0.088,0.07c-0.082,0.071 -0.131,0.13 -0.147,0.178c-0.00333,0.01034 -0.00501,0.02114 -0.005,0.032c0,0.058 0.062,0.14 0.185,0.245c0.01807,0.01532 0.03641,0.03032 0.055,0.045c0.06493,0.05192 0.12608,0.1084 0.183,0.169c0.103,0.109 0.209,0.243 0.317,0.401c0.413,0.613 0.62,1.167 0.62,1.66v0.6c0.00296,0.36734 -0.03868,0.73369 -0.124,1.091c-0.13332,0.5708 -0.42277,1.09327 -0.836,1.509c-0.43163,0.42657 -0.97648,0.72051 -1.57,0.847c-0.35125,0.07796 -0.71021,0.11587 -1.07,0.113z"/></g></g></svg>