<svg version="1.1" xmlns="http://www.w3.org/2000/svg" xmlns:xlink="http://www.w3.org/1999/xlink" width="7.76042" height="15.00005" viewBox="0,0,7.76042,15.00005"><g transform="translate(-186.26318,-165.80452)"><g data-paper-data="{&quot;isPaintingLayer&quot;:true}" fill="#000000" fill-rule="evenodd" stroke="#000000" stroke-width="0" stroke-linecap="round" stroke-linejoin="miter" stroke-miterlimit="10" stroke-dasharray="" stroke-dashoffset="0" style="mix-blend-mode: normal"><path d="M190.62318,179.98455v0.62c0.00034,0.02667 -0.00302,0.05326 -0.01,0.079c-0.023,0.081 -0.086,0.121 -0.19,0.121h-0.5c-0.02667,0.00034 -0.05326,-0.00302 -0.079,-0.01c-0.081,-0.023 -0.121,-0.086 -0.121,-0.19v-0.6c0,-0.12 -0.047,-0.187 -0.14,-0.2c-0.20419,-0.0049 -0.40806,-0.01891 -0.611,-0.042c-0.246,-0.029 -0.473,-0.072 -0.679,-0.128c-0.305,-0.083 -0.561,-0.191 -0.769,-0.325c-0.04147,-0.02668 -0.08184,-0.05503 -0.121,-0.085c-0.11391,-0.09016 -0.22496,-0.18388 -0.333,-0.281c-0.223,-0.2 -0.399,-0.39 -0.527,-0.569c-0.04329,-0.06024 -0.08399,-0.1223 -0.122,-0.186c-0.075,-0.125 -0.124,-0.237 -0.145,-0.334c-0.00831,-0.03609 -0.01267,-0.07297 -0.013,-0.11c0,-0.052 0.037,-0.097 0.112,-0.136c0.00265,-0.00136 0.00532,-0.00269 0.008,-0.004l1.26,-0.64c0.01335,-0.00642 0.02747,-0.01112 0.042,-0.014c0.013,-0.003 0.027,-0.005 0.042,-0.006c0.00533,-0.00013 0.01067,-0.00013 0.016,0c0.0198,0.0004 0.03927,0.00518 0.057,0.014c0.03,0.014 0.061,0.039 0.094,0.074c0.01,0.01036 0.01967,0.02103 0.029,0.032c0.0902,0.11418 0.18187,0.22719 0.275,0.339c0.092,0.11 0.181,0.213 0.266,0.308c0.04899,0.05494 0.09866,0.10928 0.149,0.163c0.16523,0.17538 0.38677,0.28721 0.626,0.316c0.06759,0.00945 0.13576,0.01412 0.204,0.014c0.02401,-0.00002 0.04802,-0.00069 0.072,-0.002c0.068,-0.003 0.117,-0.013 0.147,-0.028c0.01596,-0.00808 0.02892,-0.02104 0.037,-0.037c0.012,-0.021 0.019,-0.051 0.022,-0.088c0.0013,-0.01496 0.00197,-0.02998 0.002,-0.045v-3.88c-0.025,-0.123 -0.134,-0.225 -0.327,-0.309c-0.01752,-0.00736 -0.03519,-0.01436 -0.053,-0.021c-0.07752,-0.02991 -0.15422,-0.06192 -0.23,-0.096c-0.176,-0.078 -0.378,-0.179 -0.607,-0.302c-0.00767,-0.00399 -0.01534,-0.00799 -0.023,-0.012c-0.31442,-0.16124 -0.60682,-0.36222 -0.87,-0.598c-0.2316,-0.20879 -0.43348,-0.44836 -0.6,-0.712c-0.2792,-0.44763 -0.44785,-0.95528 -0.492,-1.481c-0.01211,-0.12931 -0.01811,-0.25912 -0.018,-0.389c0,-1.349 0.544,-2.332 1.633,-2.951c0.04193,-0.02374 0.08427,-0.04674 0.127,-0.069c0.11167,-0.05636 0.22731,-0.10449 0.346,-0.144c0.06703,-0.02202 0.13512,-0.04071 0.204,-0.056c0.06419,-0.01435 0.12852,-0.02802 0.193,-0.041c0.063,-0.012 0.123,-0.024 0.179,-0.033c0.03261,-0.00567 0.06528,-0.011 0.098,-0.016c0.088,-0.013 0.164,-0.029 0.228,-0.048c0.03123,-0.00897 0.06194,-0.01966 0.092,-0.032c0.02205,-0.00882 0.04262,-0.02096 0.061,-0.036c0.038,-0.032 0.057,-0.074 0.059,-0.127c0.00003,-0.00233 0.00003,-0.00467 0,-0.007v-0.64c0,-0.106 0.042,-0.17 0.126,-0.191c0.02419,-0.00612 0.04905,-0.00914 0.074,-0.009h0.5c0.02667,-0.00034 0.05326,0.00302 0.079,0.01c0.081,0.023 0.121,0.086 0.121,0.19v0.62c-0.0003,0.0231 0.00137,0.04618 0.005,0.069c0.014,0.077 0.052,0.121 0.115,0.131c0.02235,0.0039 0.04468,0.0079 0.067,0.012c0.085,0.015 0.21,0.037 0.373,0.068c0.20154,0.04362 0.40051,0.09837 0.596,0.164c0.17941,0.05992 0.35448,0.13209 0.524,0.216c0.32,0.16 0.587,0.33 0.8,0.51c0.08541,0.07152 0.16624,0.14833 0.242,0.23c0.097,0.105 0.176,0.212 0.238,0.32c0.03059,0.0528 0.0583,0.10721 0.083,0.163c0.051,0.118 0.077,0.223 0.077,0.316c0,0.00033 0,0.00067 0,0.001c0.0002,0.02061 -0.00249,0.04114 -0.008,0.061c-0.01278,0.04598 -0.04708,0.08289 -0.092,0.099l-1.26,0.64c-0.01216,0.00636 -0.02449,0.01236 -0.037,0.018c-0.035,0.015 -0.063,0.022 -0.083,0.022c-0.02325,-0.00067 -0.04595,-0.00721 -0.066,-0.019c-0.05,-0.027 -0.105,-0.084 -0.164,-0.171c-0.02399,-0.03491 -0.04832,-0.06958 -0.073,-0.104c-0.056,-0.078 -0.123,-0.17 -0.202,-0.275c-0.03815,-0.05047 -0.07648,-0.10081 -0.115,-0.151c-0.05842,-0.07891 -0.12513,-0.15132 -0.199,-0.216c-0.0645,-0.05604 -0.13531,-0.10437 -0.211,-0.144c-0.0575,-0.03044 -0.11736,-0.0562 -0.179,-0.077c-0.068,-0.022 -0.134,-0.036 -0.198,-0.041c-0.01763,-0.00135 -0.03531,-0.00201 -0.053,-0.002c-0.0251,-0.00038 -0.05009,0.00334 -0.074,0.011c-0.069,0.023 -0.104,0.084 -0.106,0.182c-0.00002,0.00233 -0.00002,0.00467 0,0.007v3.52c0,0.12 0.098,0.216 0.293,0.288c0.02213,0.00793 0.04447,0.01527 0.067,0.022c0.24,0.073 0.553,0.223 0.94,0.45c0.27626,0.1568 0.53826,0.33749 0.783,0.54c0.284,0.237 0.519,0.492 0.707,0.766c0.03477,0.05039 0.06812,0.10174 0.1,0.154c0.22804,0.38069 0.38081,0.80166 0.45,1.24c0.04095,0.25124 0.06102,0.50544 0.06,0.76c0.00753,0.48509 -0.08648,0.9664 -0.276,1.413c-0.235,0.536 -0.622,0.988 -1.16,1.353c-0.14904,0.10054 -0.30399,0.19203 -0.464,0.274c-0.2,0.107 -0.393,0.177 -0.58,0.21c-0.06628,0.01194 -0.13262,0.02361 -0.199,0.035c-0.052,0.009 -0.101,0.017 -0.148,0.024c-0.0443,0.00724 -0.08863,0.01424 -0.133,0.021c-0.03912,0.00592 -0.07813,0.01259 -0.117,0.02c-0.079,0.015 -0.146,0.031 -0.2,0.049c-0.001,0.00033 -0.002,0.00066 -0.003,0.001c-0.02479,0.00774 -0.04763,0.0207 -0.067,0.038c-0.024,0.022 -0.04,0.051 -0.048,0.087c-0.0036,0.01811 -0.00528,0.03654 -0.005,0.055zM190.62318,174.78455v3.18c-0.00034,0.02556 0.00234,0.05107 0.008,0.076c0.016,0.067 0.057,0.107 0.122,0.12c0.0165,0.00294 0.03324,0.00428 0.05,0.004c0.14366,-0.00046 0.28554,-0.03184 0.416,-0.092c0.03201,-0.01464 0.06337,-0.03065 0.094,-0.048c0.14141,-0.07976 0.2696,-0.18097 0.38,-0.3c0.0241,-0.02599 0.04744,-0.05266 0.07,-0.08c0.10478,-0.12675 0.19377,-0.26577 0.265,-0.414c0.02328,-0.04793 0.04496,-0.09662 0.065,-0.146c0.087,-0.213 0.13,-0.44 0.13,-0.68c0.00154,-0.24693 -0.0568,-0.49055 -0.17,-0.71c-0.07787,-0.15264 -0.16995,-0.29762 -0.275,-0.433c-0.03969,-0.05065 -0.08139,-0.09969 -0.125,-0.147c-0.08078,-0.08867 -0.16802,-0.17123 -0.261,-0.247c-0.06938,-0.056 -0.14255,-0.10712 -0.219,-0.153c-0.146,-0.088 -0.27,-0.137 -0.37,-0.148c-0.01329,-0.00137 -0.02664,-0.00204 -0.04,-0.002c-0.093,0 -0.14,0.073 -0.14,0.22zM189.72318,171.54455v-2.82c0,-0.13 -0.044,-0.196 -0.132,-0.2c-0.00267,-0.00006 -0.00533,-0.00006 -0.008,0c-0.09385,0.00081 -0.18687,0.01772 -0.275,0.05c-0.06054,0.02155 -0.11909,0.04831 -0.175,0.08c-0.1229,0.07011 -0.23394,0.15921 -0.329,0.264c-0.02824,0.03093 -0.05526,0.06295 -0.081,0.096c-0.08338,0.10727 -0.15543,0.22289 -0.215,0.345c-0.03118,0.06372 -0.05955,0.12878 -0.085,0.195c-0.08,0.207 -0.12,0.423 -0.12,0.65c0.00083,0.17526 0.03866,0.34837 0.111,0.508c0.01216,0.02772 0.02517,0.05507 0.039,0.082c0.1,0.193 0.217,0.36 0.35,0.5c0.07751,0.0819 0.16144,0.15748 0.251,0.226c0.05407,0.04125 0.1105,0.07931 0.169,0.114c0.129,0.076 0.237,0.119 0.325,0.128c0.01162,0.00128 0.02331,0.00194 0.035,0.002c0.093,0 0.14,-0.073 0.14,-0.22z"/></g></g></svg>