<svg version="1.1" xmlns="http://www.w3.org/2000/svg" xmlns:xlink="http://www.w3.org/1999/xlink" width="7.54002" height="12.60008" viewBox="0,0,7.54002,12.60008"><g transform="translate(-356.74852,-167.42471)"><g data-paper-data="{&quot;isPaintingLayer&quot;:true}" fill="#000000" fill-rule="evenodd" stroke="#000000" stroke-width="0" stroke-linecap="round" stroke-linejoin="miter" stroke-miterlimit="10" stroke-dasharray="" stroke-dashoffset="0" style="mix-blend-mode: normal"><path d="M364.08853,180.02475h-7.12c-0.02646,0.00035 -0.0529,-0.00166 -0.079,-0.006c-0.094,-0.017 -0.141,-0.069 -0.141,-0.154c0.00012,-0.00842 0.00113,-0.0168 0.003,-0.025c0.004,-0.017 0.01,-0.037 0.021,-0.06c0.00502,-0.01181 0.01036,-0.02348 0.016,-0.035l4.68,-10.44c0.00635,-0.01216 0.01236,-0.0245 0.018,-0.037c0.015,-0.035 0.022,-0.063 0.022,-0.083c0,-0.091 -0.053,-0.143 -0.16,-0.157c-0.01992,-0.00224 -0.03996,-0.00325 -0.06,-0.003h-4c-0.02667,0.00034 -0.05326,-0.00302 -0.079,-0.01c-0.059,-0.017 -0.097,-0.055 -0.112,-0.116c-0.00612,-0.02418 -0.00914,-0.04905 -0.009,-0.074v-1.2c0,-0.106 0.042,-0.17 0.126,-0.191c0.02418,-0.00611 0.04905,-0.00914 0.074,-0.009h6.7c0.02646,-0.00035 0.0529,0.00166 0.079,0.006c0.094,0.017 0.141,0.069 0.141,0.154c-0.00012,0.00842 -0.00113,0.0168 -0.003,0.025c-0.004,0.017 -0.01,0.037 -0.021,0.06c-0.00502,0.01181 -0.01036,0.02348 -0.016,0.035l-4.7,10.44c-0.02,0.041 -0.033,0.074 -0.038,0.099c-0.00132,0.00692 -0.00199,0.01396 -0.002,0.021c0,0.107 0.073,0.16 0.22,0.16h4.44c0.02667,-0.00034 0.05326,0.00302 0.079,0.01c0.081,0.023 0.121,0.086 0.121,0.19v1.2c0.00034,0.02667 -0.00302,0.05325 -0.01,0.079c-0.023,0.081 -0.086,0.121 -0.19,0.121z"/></g></g></svg>