<svg version="1.1" xmlns="http://www.w3.org/2000/svg" xmlns:xlink="http://www.w3.org/1999/xlink" width="6.34" height="12.60009" viewBox="0,0,6.34,12.60009"><g transform="translate(-393.14318,-167.00449)"><g data-paper-data="{&quot;isPaintingLayer&quot;:true}" fill="#000000" fill-rule="evenodd" stroke="#000000" stroke-width="0" stroke-linecap="round" stroke-linejoin="miter" stroke-miterlimit="10" stroke-dasharray="" stroke-dashoffset="0" style="mix-blend-mode: normal"><path d="M399.16318,179.60455h-0.66c-0.03418,0.00048 -0.06824,-0.00424 -0.101,-0.014c-0.07,-0.022 -0.119,-0.069 -0.149,-0.141c-0.00365,-0.0082 -0.00699,-0.01654 -0.01,-0.025l-5.06,-12c-0.00554,-0.01626 -0.01088,-0.0326 -0.016,-0.049c-0.016,-0.053 -0.024,-0.09 -0.024,-0.111c0,-0.158 0.089,-0.244 0.267,-0.258c0.01763,-0.00134 0.03531,-0.00201 0.053,-0.002h0.66c0.0432,-0.00087 0.08601,0.00837 0.125,0.027c0.041,0.02 0.075,0.052 0.104,0.095c0.0119,0.01845 0.02227,0.03785 0.031,0.058l5.06,12c0.027,0.08 0.04,0.133 0.04,0.16c0,0.158 -0.089,0.244 -0.267,0.258c-0.01763,0.00134 -0.03531,0.00201 -0.053,0.002z"/></g></g></svg>