<svg version="1.1" xmlns="http://www.w3.org/2000/svg" xmlns:xlink="http://www.w3.org/1999/xlink" width="11.70011" height="9.00003" viewBox="0,0,11.70011,9.00003"><g transform="translate(-312.08753,-170.95474)"><g data-paper-data="{&quot;isPaintingLayer&quot;:true}" fill="#000000" fill-rule="evenodd" stroke="#000000" stroke-width="0" stroke-linecap="round" stroke-linejoin="miter" stroke-miterlimit="10" stroke-dasharray="" stroke-dashoffset="0" style="mix-blend-mode: normal"><path d="M317.94762,172.93476l-1.74,6.88c-0.00308,0.0266 -0.0127,0.05202 -0.028,0.074c-0.029,0.039 -0.077,0.061 -0.145,0.065c-0.00898,0.00063 -0.01799,0.00096 -0.027,0.001h-1.16c-0.12,0 -0.187,-0.047 -0.2,-0.14l-2.54,-8.6c0,-0.027 -0.003,-0.043 -0.01,-0.05c-0.005,-0.005 -0.009,-0.013 -0.01,-0.023c-0.00011,-0.00233 -0.00011,-0.00467 0,-0.007c-0.00038,-0.02666 0.00438,-0.05313 0.014,-0.078c0.024,-0.06 0.081,-0.094 0.171,-0.101c0.01165,-0.00077 0.02332,-0.0011 0.035,-0.001h1.46c0.01766,0.00032 0.03505,0.00441 0.051,0.012c0.043,0.02 0.092,0.062 0.147,0.126c0.00067,0.00066 0.00133,0.00133 0.002,0.002l1.5,6.42l1.6,-6.42c0.01623,-0.01871 0.03325,-0.03673 0.051,-0.054c0.035,-0.036 0.068,-0.06 0.097,-0.073c0.01619,-0.00804 0.03393,-0.01248 0.052,-0.013h1.34c0.115,0 0.181,0.043 0.198,0.129c0.00077,0.00365 0.00143,0.00732 0.002,0.011l1.6,6.42l1.48,-6.42c0.00895,-0.03429 0.02772,-0.06522 0.054,-0.089c0.038,-0.034 0.092,-0.05 0.163,-0.051c0.001,0 0.002,0 0.003,0h1.46c0.02754,-0.00021 0.05502,0.00247 0.082,0.008c0.08,0.017 0.125,0.063 0.136,0.137c0.00148,0.01161 0.00214,0.0233 0.002,0.035c-0.00002,0.00369 -0.00035,0.00737 -0.001,0.011c-0.001,0.004 -0.002,0.008 -0.003,0.011c-0.00154,0.00298 -0.00356,0.00569 -0.006,0.008c-0.006,0.006 -0.009,0.02 -0.01,0.043c-0.00003,0.00233 -0.00003,0.00467 0,0.007l-2.58,8.6c-0.01067,0.0257 -0.02517,0.04963 -0.043,0.071c-0.038,0.045 -0.088,0.068 -0.151,0.069c-0.002,0.00002 -0.004,0.00002 -0.006,0h-1.12c-0.05142,-0.00009 -0.10069,-0.02059 -0.137,-0.057c-0.022,-0.021 -0.044,-0.049 -0.063,-0.083z"/></g></g></svg>